<svg width="27" height="401" viewBox="0 0 27 401" fill="none" xmlns="http://www.w3.org/2000/svg">
<path d="M13.5001 14.752L17.7655 19.0174C20.3701 21.6221 21.8334 25.1546 21.8334 28.8381L21.8344 156.376M13.5001 14.752V170.724M13.5001 14.752L9.23467 19.0173C6.62997 21.622 5.16667 25.1547 5.16667 28.8383V156.376M13.5001 170.724C13.5001 158.224 6.55556 156.141 3.08333 156.141M13.5001 170.724C13.5001 160.408 18.2299 157.187 21.8344 156.376M13.5001 170.724C13.5001 177.628 9.76904 183.224 5.16667 183.224C5.16667 184.178 5.23782 185.106 5.3726 185.998M13.5001 170.724C13.5001 177.628 17.231 183.224 21.8333 183.224C21.8333 184.178 21.7622 185.106 21.6274 185.998M13.5001 170.724C13.5001 158.224 20.4444 156.141 23.9167 156.141M13.5001 170.724C13.5001 160.408 8.77117 157.187 5.16667 156.376M3.08333 156.141C1.93274 156.141 1 157.074 1 158.224C1 159.375 1.93274 160.307 3.08333 160.307C4.23393 160.307 5.16555 159.375 5.16555 158.224C5.16555 157.615 5.16667 156.999 5.16667 156.376M3.08333 156.141C3.68994 156.141 4.40364 156.204 5.16667 156.376M21.8344 156.376C21.8344 156.999 21.8334 157.615 21.8334 158.224C21.8334 159.375 22.7661 160.307 23.9167 160.307C25.0673 160.307 26 159.375 26 158.224C26 157.074 25.0673 156.141 23.9167 156.141M21.8344 156.376C22.5975 156.204 23.3101 156.141 23.9167 156.141M5.3726 185.998C5.59116 187.445 5.97703 188.797 6.49811 190.005C7.04296 191.268 7.73562 192.375 8.53938 193.269M5.3726 185.998C5.59156 187.448 5.97844 188.802 6.50095 190.011C7.04537 191.272 7.73702 192.376 8.53938 193.269M8.53938 193.269C9.43033 194.261 10.4578 194.992 11.5718 195.388C12.1907 195.608 12.8363 195.724 13.5 195.724C14.1637 195.724 14.8094 195.608 15.4283 195.388C16.5422 194.992 17.5697 194.261 18.4606 193.269M18.4606 193.269C19.263 192.376 19.9546 191.272 20.499 190.011C21.0216 188.802 21.4084 187.448 21.6274 185.998M18.4606 193.269C19.2644 192.375 19.957 191.268 20.5019 190.005C21.023 188.797 21.4088 187.445 21.6274 185.998M16.8673 11.3146L16.8698 11.3122C18.7682 9.41378 18.7682 6.33588 16.8698 4.4375L13.4324 1.00024L13.43 1.00266M16.8673 11.3146L13.4325 14.7495M16.8673 11.3146C18.7657 9.41625 18.7657 6.33838 16.8673 4.44L13.43 1.00266M13.4325 14.7495L13.43 14.747M13.4325 14.7495V7.87482M13.4325 14.7495L13.43 14.752M13.43 14.747L9.99517 11.3122C8.09679 9.41378 8.09679 6.33588 9.99517 4.4375M13.43 14.747V14.752M13.43 14.747V7.87732M9.99517 4.4375L13.43 1.00266M9.99517 4.4375L9.99268 4.44C8.0943 6.33838 8.0943 9.41625 9.99268 11.3146L13.43 14.752M13.5001 386.556L17.7655 382.29C20.3701 379.686 21.8334 376.153 21.8334 372.47L21.8344 244.932M13.5001 386.556V230.584M13.5001 386.556L9.23467 382.291C6.62997 379.686 5.16667 376.153 5.16667 372.47V244.932M13.5001 230.584C13.5001 243.084 6.55556 245.167 3.08333 245.167M13.5001 230.584C13.5001 240.9 18.2299 244.121 21.8344 244.932M13.5001 230.584C13.5001 223.68 9.76904 218.084 5.16667 218.084C5.16667 217.13 5.23782 216.202 5.3726 215.31M13.5001 230.584C13.5001 223.68 17.231 218.084 21.8333 218.084C21.8333 217.13 21.7622 216.202 21.6274 215.31M13.5001 230.584C13.5001 243.084 20.4444 245.167 23.9167 245.167M13.5001 230.584C13.5001 240.9 8.77117 244.121 5.16667 244.932M3.08333 245.167C1.93274 245.167 1 244.234 1 243.084C1 241.933 1.93274 241 3.08333 241C4.23393 241 5.16555 241.933 5.16555 243.084C5.16555 243.693 5.16667 244.309 5.16667 244.932M3.08333 245.167C3.68994 245.167 4.40364 245.103 5.16667 244.932M21.8344 244.932C21.8344 244.309 21.8334 243.693 21.8334 243.084C21.8334 241.933 22.7661 241 23.9167 241C25.0673 241 26 241.933 26 243.084C26 244.234 25.0673 245.167 23.9167 245.167M21.8344 244.932C22.5975 245.103 23.3101 245.167 23.9167 245.167M5.3726 215.31C5.59116 213.863 5.97703 212.511 6.49811 211.303C7.04296 210.04 7.73562 208.933 8.53938 208.039M5.3726 215.31C5.59156 213.86 5.97844 212.506 6.50095 211.296C7.04537 210.036 7.73702 208.932 8.53938 208.039M8.53938 208.039C9.43033 207.047 10.4578 206.316 11.5718 205.92C12.1907 205.7 12.8363 205.584 13.5 205.584C14.1637 205.584 14.8094 205.7 15.4283 205.92C16.5422 206.316 17.5697 207.047 18.4606 208.039M18.4606 208.039C19.263 208.932 19.9546 210.036 20.499 211.296C21.0216 212.506 21.4084 213.86 21.6274 215.31M18.4606 208.039C19.2644 208.933 19.957 210.04 20.5019 211.303C21.023 212.511 21.4088 213.863 21.6274 215.31M16.8673 389.993L16.8698 389.996C18.7682 391.894 18.7682 394.972 16.8698 396.87L13.4324 400.308L13.43 400.305M16.8673 389.993L13.4325 386.558M16.8673 389.993C18.7657 391.892 18.7657 394.969 16.8673 396.868L13.43 400.305M13.4325 386.558L13.43 386.561M13.4325 386.558V393.433M13.4325 386.558L13.43 386.556M13.43 386.561L9.99517 389.996C8.09679 391.894 8.09679 394.972 9.99517 396.87M13.43 386.561V386.556M13.43 386.561V393.431M9.99517 396.87L13.43 400.305M9.99517 396.87L9.99268 396.868C8.0943 394.969 8.0943 391.892 9.99268 389.993L13.43 386.556" stroke="#474542" stroke-width="0.5" stroke-linecap="round" stroke-linejoin="round"/>
</svg>
