<svg width="27" height="27" viewBox="0 0 27 27" fill="none" xmlns="http://www.w3.org/2000/svg">
<path d="M22.5 22.5C18 22.5 13.5 18 13.5 13.5M22.5 22.5C22.5 18 18 13.5 13.5 13.5M22.5 22.5H27M22.5 22.5V27M22.5 4.5C18 4.5 13.5 9 13.5 13.5M22.5 4.5C22.5 9 18 13.5 13.5 13.5M22.5 4.5V0M22.5 4.5H27M13.5 13.5C13.5 18 9 22.5 4.5 22.5M13.5 13.5C13.5 9 9 4.5 4.5 4.5M13.5 13.5C9 13.5 4.5 9 4.5 4.5M13.5 13.5C9 13.5 4.5 18 4.5 22.5M4.5 22.5H0M4.5 22.5L4.5 27M4.5 4.5H0M4.5 4.5L4.5 0" stroke="#D5A654" stroke-width="0.5"/>
</svg>
