<svg width="710" height="710" viewBox="0 0 710 710" fill="none" xmlns="http://www.w3.org/2000/svg">
<g clip-path="url(#clip0_504_3817)">
<path d="M695.5 695.25V695.255M695.5 695.25H695.495M695.5 695.25L702.5 702.25M695.5 695.25H702.5C702.741 695.25 702.98 695.262 703.215 695.286M695.5 695.255V702.25C695.5 706.116 698.634 709.25 702.5 709.25M695.5 695.255L695.495 695.25M695.5 695.255L702.495 702.25M695.495 695.25V702.25C695.495 706.116 698.629 709.25 702.495 709.25H702.5M695.495 695.25L14.5011 695.25M695.495 695.25L695.498 14.75M702.5 709.25H709.495M703.215 695.286C706.745 695.645 709.5 698.626 709.5 702.25V709.25H709.495M703.215 695.286C706.743 695.647 709.495 698.627 709.495 702.25V709.25M702.498 14.75H702.503C706.369 14.75 709.503 11.616 709.503 7.75004V0.750087H709.498M702.498 14.75H695.503M702.498 14.75C706.364 14.75 709.498 11.616 709.498 7.75004V0.750087M695.503 14.75V14.7449M695.503 14.75H695.498M695.503 14.75L702.503 7.75004M695.503 14.7449V7.75004C695.503 3.88407 698.637 0.750087 702.503 0.750087M695.503 14.7449L695.498 14.75M695.503 14.7449L702.498 7.75004M695.498 14.75V7.75004C695.498 3.88407 698.632 0.750087 702.498 0.750087H702.503M695.498 14.75L14.5047 14.7499M702.503 0.750087H709.498M7.50114 695.25H14.496M7.50114 695.25C3.63517 695.25 0.501186 698.384 0.501186 702.25L0.501142 709.25M7.50114 695.25H7.49605C3.63008 695.25 0.496094 698.384 0.496094 702.25L0.496216 709.25H0.501142M14.496 695.25H14.5011M14.496 695.25V695.255M14.496 695.25L7.49605 702.25M14.496 695.25L14.4996 14.7499M14.5011 695.25V702.25C14.5011 705.874 11.7466 708.855 8.21685 709.214M14.5011 695.25L14.496 695.255M8.21685 709.214C7.98153 709.238 7.74277 709.25 7.50114 709.25H0.501142M8.21685 709.214C11.7442 708.853 14.496 705.872 14.496 702.25V695.255M7.50471 14.7499H14.4996M7.50471 14.7499C3.63874 14.7499 0.504752 11.6159 0.504752 7.74996L0.50458 0.75M7.50471 14.7499H7.49962C3.63365 14.7499 0.49966 11.6159 0.49966 7.74996V0.75H0.50458M14.4996 14.7499H14.5047M14.4996 14.7499V14.7448M14.4996 14.7499L7.49962 7.74996M14.5047 14.7499V7.74996C14.5047 3.88399 11.3707 0.75 7.50471 0.75H7.49962M14.5047 14.7499L14.4996 14.7448M0.50458 0.75H7.49962M7.49962 0.75C11.3656 0.75 14.4996 3.88399 14.4996 7.74996V14.7448M14.4996 14.7448L7.50471 7.74996M14.496 695.255L7.50114 702.25" stroke="#474542" stroke-linecap="round" stroke-linejoin="round"/>
</g>
<defs>
<clipPath id="clip0_504_3817">
<rect width="710" height="710" fill="white"/>
</clipPath>
</defs>
</svg>
