<svg width="592" height="303" viewBox="0 0 592 303" fill="none" xmlns="http://www.w3.org/2000/svg">
<path d="M25.7126 25.7193C19.7824 25.7193 13.8515 31.6528 13.8521 37.5852C19.7824 37.5816 25.7126 31.6497 25.7126 25.7193ZM25.7126 25.7193C19.7824 25.7193 13.8533 19.7894 13.8521 13.8571C19.7824 13.8554 25.7126 19.787 25.7126 25.7193ZM25.7126 25.7193C31.6429 25.7193 37.5719 19.7894 37.5731 13.8571C31.6429 13.8546 25.7126 19.7851 25.7126 25.7193ZM25.7126 25.7193L21.7591 29.6733M25.7126 25.7193L21.7591 21.7635M25.7126 25.7193L29.6661 21.7635M25.7126 25.7193L17.8061 25.718M25.7126 25.7193L25.7097 17.8082M25.7126 25.7193V277.281M25.7126 25.7193L566.294 25.7128M566.294 25.7128C572.224 25.7128 578.155 31.6463 578.154 37.5787C572.224 37.5751 566.294 31.6432 566.294 25.7128ZM566.294 25.7128C572.224 25.7128 578.153 19.7829 578.154 13.8506C572.224 13.8489 566.294 19.7805 566.294 25.7128ZM566.294 25.7128C560.363 25.7128 554.434 19.7829 554.433 13.8506C560.363 13.8481 566.294 19.7786 566.294 25.7128ZM566.294 25.7128L570.247 29.6668M566.294 25.7128L570.247 21.757M566.294 25.7128L562.34 21.757M566.294 25.7128L574.2 25.718L582.104 25.7128M566.294 25.7128V17.8012M566.294 25.7128V277.287M566.294 9.8895V17.8012M566.294 17.8012C562.1 13.6064 562.099 5.19564 566.292 1C570.487 5.19302 570.488 13.605 566.294 17.8012ZM25.7093 9.89848L25.7097 17.8082M25.7097 17.8082C29.903 13.6135 29.9068 5.19564 25.7143 1C21.5193 5.19302 21.515 13.6121 25.7097 17.8082ZM9.9025 25.7193L17.8061 25.718M17.8061 25.718C13.6119 29.9119 5.19331 29.9124 1 25.7176C5.19467 21.5215 13.6146 21.5214 17.8061 25.718ZM25.7126 277.281C19.7824 277.281 13.8515 271.347 13.8521 265.415C19.7824 265.418 25.7126 271.35 25.7126 277.281ZM25.7126 277.281C19.7824 277.281 13.8533 283.211 13.8521 289.143C19.7824 289.145 25.7126 283.213 25.7126 277.281ZM25.7126 277.281C31.6429 277.281 37.5719 283.211 37.5731 289.143C31.6429 289.145 25.7126 283.215 25.7126 277.281ZM25.7126 277.281L21.7591 273.327M25.7126 277.281L21.7591 281.236M25.7126 277.281L29.6661 281.236M25.7126 277.281L17.8061 277.282M25.7126 277.281L25.7097 285.192M25.7126 277.281L566.294 277.287M566.294 277.287C572.224 277.287 578.155 271.354 578.154 265.421C572.224 265.425 566.294 271.357 566.294 277.287ZM566.294 277.287C572.224 277.287 578.153 283.217 578.154 289.149C572.224 289.151 566.294 283.219 566.294 277.287ZM566.294 277.287C560.363 277.287 554.434 283.217 554.433 289.149C560.363 289.152 566.294 283.221 566.294 277.287ZM566.294 277.287L570.247 273.333M566.294 277.287L570.247 281.243M566.294 277.287L562.34 281.243M566.294 277.287L574.2 277.282L582.104 277.287M566.294 277.287V285.199M566.294 293.11V285.199M566.294 285.199C562.1 289.394 562.099 297.804 566.292 302C570.487 297.807 570.488 289.395 566.294 285.199ZM25.7093 293.102L25.7097 285.192M25.7097 285.192C29.903 289.387 29.9068 297.804 25.7143 302C21.5193 297.807 21.515 289.388 25.7097 285.192ZM9.9025 277.281L17.8061 277.282M17.8061 277.282C13.6119 273.088 5.19331 273.088 1 277.282C5.19467 281.478 13.6146 281.479 17.8061 277.282ZM574.195 25.7128C578.389 29.9068 586.807 29.9059 591 25.7111C586.805 21.515 578.387 21.5163 574.195 25.7128ZM574.195 277.287C578.389 273.093 586.807 273.094 591 277.289C586.805 281.485 578.387 281.484 574.195 277.287Z" stroke="#474542" stroke-width="0.5" stroke-linecap="round" stroke-linejoin="round"/>
</svg>
