<svg width="302" height="125" viewBox="0 0 302 125" fill="none" xmlns="http://www.w3.org/2000/svg">
<path d="M14 8V14H8.00001V8H4.50001C2.56701 8 1.00001 6.433 1.00001 4.5L1 1H4.50001C6.433 1 8.00001 2.567 8.00001 4.5V8H14Z" fill="#FBF3E8"/>
<path d="M288 14V8H294V4.5C294 2.567 295.567 1 297.5 1L301 1.00003V4.5C301 6.433 299.433 8 297.5 8H294V14H288Z" fill="#FBF3E8"/>
<path d="M288 117V111H294V117H297.5C299.433 117 301 118.567 301 120.5V124H297.5C295.567 124 294 122.433 294 120.5V117H288Z" fill="#FBF3E8"/>
<path d="M14 117L14 111H8.00001L8 117H4.5C2.567 117 1 118.567 1 120.5C1 121.454 1.00002 124 1.00002 124C1.00002 124 3.52066 124 4.5 124C6.433 124 8 122.433 8 120.5V117H14Z" fill="#FBF3E8"/>
<path d="M14 8V2H288V8M14 8V14M14 8H8.00001M14 8H288M14 14H8.00001M14 14V111M14 14H288M8.00001 8H4.50001C2.56701 8 1.00001 6.433 1.00001 4.5L1 1H4.50001C6.433 1 8.00001 2.567 8.00001 4.5V8ZM8.00001 8V14M8.00001 8L4.50001 4.5M8.00001 14H2.00001V111H8.00001M8.00001 14V111M8.00001 111H14M8.00001 111L8 117M14 111H288M14 111L14 117M288 8V14M288 8H294M288 14H294M288 14V111M294 8H297.5C299.433 8 301 6.433 301 4.5V1.00003L297.5 1C295.567 1 294 2.567 294 4.5V8ZM294 8V14M294 8L297.5 4.5M294 14H300V111H294M294 14V111M294 111H288M294 111V117M288 111V117M288 117V123H14V117M288 117H294M288 117H14M294 117H297.5C299.433 117 301 118.567 301 120.5V124H297.5C295.567 124 294 122.433 294 120.5V117ZM294 117L297.5 120.5M14 117H8M8 117H4.5C2.567 117 1 118.567 1 120.5C1 121.454 1.00002 124 1.00002 124C1.00002 124 3.52066 124 4.5 124C6.433 124 8 122.433 8 120.5V117ZM8 117L4.5 120.5" stroke="#D5A654" stroke-linecap="round" stroke-linejoin="round"/>
</svg>
