<svg width="169" height="42" viewBox="0 0 169 42" fill="none" xmlns="http://www.w3.org/2000/svg">
<path d="M20.6256 12.5558C20.7951 10.3873 21.1757 8.2909 20.9402 6.20541C20.8648 5.60496 20.6598 5.03756 20.4972 4.90027C20.3428 4.81977 20.4561 4.77055 19.7679 4.95225C19.185 5.12537 18.6106 5.4121 18.0446 5.75563C10.954 10.1716 3.47648 25.087 3.52637 33.3518C3.55978 33.5952 3.64967 33.7734 3.63329 33.7329C3.63323 33.7167 3.55194 33.6602 3.48696 33.628C3.47886 33.628 3.4383 33.6201 3.4464 33.6201C3.9413 33.7315 4.48374 33.5748 5.1473 33.3039C8.3513 31.8687 10.9589 29.2834 13.3391 26.5935C15.1459 24.4257 17.0171 22.136 17.9464 19.4444C17.5065 18.9025 18.4157 21.2285 19.2961 20.4614C19.6275 20.2325 19.4415 20.347 19.5385 20.2735L19.4902 20.3549C19.2568 20.7619 18.863 21.5837 18.6459 22.015C17.5532 24.3906 15.3511 29.012 16.8841 31.2621C17.6413 32.0787 18.6442 31.5465 19.6232 31.1118C22.066 29.8506 24.4089 27.9483 26.4675 25.9013C27.8635 24.3606 29.6321 22.7532 30.1506 20.713C30.2144 20.4448 30.1473 19.9093 30.0668 20.0314C30.0668 20.0314 30.0672 20.137 30.1079 20.1693C30.1569 20.2665 30.2868 20.3227 30.2299 20.2905C30.2137 20.2825 30.2949 20.3065 30.3272 20.2982C30.384 20.2979 30.384 20.2979 30.384 20.2979C29.486 20.7323 28.5979 21.5887 27.8228 22.3473C26.6365 23.6272 25.2076 25.0382 24.9308 26.7444C24.9306 26.6957 24.8491 26.5743 24.7922 26.5421C24.776 26.5421 24.9868 26.5655 25.2135 26.4833C26.7272 25.9813 27.9214 24.6607 29.4671 24.0448C29.7421 23.8975 30.7141 23.7307 31.2183 24.1425C32.34 24.9007 32.0384 26.469 31.5478 27.4129C30.4701 29.4881 29.4407 31.4899 28.3628 33.5245C27.447 35.5421 25.9805 37.6839 25.8516 39.8684C25.8601 39.9577 25.9328 39.9006 25.7861 39.7145C25.6152 39.5366 25.5018 39.5453 25.5584 39.5125C26.132 39.0553 26.9666 38.9866 27.4233 39.6584C27.9368 40.3706 27.4142 41.4121 26.5552 41.4728C25.3974 41.7947 23.961 41.3789 24.0361 39.9172C24.1289 38.8045 24.6599 37.836 25.0533 36.9168C26.3635 34.1992 27.8768 31.6187 29.041 28.8693C29.4344 27.9501 29.6812 26.8611 29.6774 25.9275C29.6519 25.6434 29.6286 25.8709 29.7587 25.9921C29.8483 26.0972 30.027 26.1938 30.1568 26.2176C30.465 26.2568 30.3675 26.2085 30.2867 26.2576C29.8659 26.4219 29.4454 26.6836 29.0007 26.9372C27.4475 27.6993 25.7427 29.0628 23.8423 28.162C23.3631 27.9043 23.085 27.2967 23.091 26.7851C23.3252 24.5758 25.0032 22.6278 26.2202 20.9255C27.3095 19.7028 28.4621 18.1064 30.2608 17.9034C31.3548 17.8498 32.3879 18.7626 32.3358 19.8995C32.2596 21.077 31.0332 22.4709 30.5183 23.4231C29.6481 24.7098 28.6722 25.8914 27.6636 27.0407C25.5737 29.3477 23.4102 31.5251 20.6526 33.1044C19.7468 33.5875 18.5574 34.1287 17.3574 34.0285C14.2839 33.6689 13.5477 30.0512 14.2024 27.6044C14.9034 24.573 16.1729 21.8393 17.9135 19.3147C17.97 19.2576 18.0585 19.1111 18.1151 19.0621C18.2282 18.9723 18.0502 19.0624 18.4059 18.8254C19.3105 18.0256 20.2199 20.4085 19.7719 19.8747C19.5154 20.5659 19.0164 21.445 18.6625 22.1123C15.9176 26.8011 12.6112 30.9647 8.35375 34.4586C6.17274 36.3033 1.41364 38.0296 0.772276 33.8026C0.461917 31.2384 1.19813 28.905 1.89385 26.5799C3.31883 22.2055 5.3203 18.0722 7.58984 14.0838C10.2469 9.70391 14.8776 2.32746 20.6321 2.20421C23.6169 2.67794 23.6803 6.29866 23.2271 8.47654C22.8931 10.045 22.3641 11.5087 21.6239 12.8679C21.4791 13.1284 21.1552 13.2272 20.8953 13.0823C20.7003 12.9776 20.6022 12.767 20.6176 12.5639L20.6256 12.5558Z" fill="#474542"/>
<path d="M44.2272 21.9974C44.1283 21.6082 44.0693 21.0482 43.7772 20.9602C43.7609 20.9603 43.7122 20.9362 43.6311 20.9203C43.5824 20.9205 43.55 20.9044 43.4771 20.921L43.3879 20.9214C43.3879 20.9214 43.3231 20.9217 43.3474 20.9216C43.3474 20.9134 43.1935 20.9547 43.0641 21.0203C42.9266 21.0858 42.7567 21.1678 42.5949 21.2578C39.9831 22.804 37.3268 25.3733 36.2282 28.2848C36.1241 28.5938 36.1092 28.9186 36.1335 28.9185C36.1497 28.9184 36.1006 28.7969 36.0518 28.7646C36.0843 28.7645 35.8812 28.668 35.8894 28.6842C35.857 28.6843 35.8651 28.6843 35.8732 28.6842C36.4404 28.6492 37.2577 28.3046 37.8647 28.0664C39.5718 27.2956 41.5053 26.3776 42.512 24.7655C42.512 24.7655 42.5281 24.7411 42.5119 24.7493C42.5206 24.9035 42.4701 24.441 42.4815 25.2528C44.925 26.143 43.3491 25.3301 43.8365 25.5715C43.4421 26.2633 42.8719 27.5568 43.3289 28.3098C43.4509 28.4229 43.5644 28.4224 43.7268 28.4866C45.4997 27.9509 48.0611 25.9503 49.692 24.3761C52.0897 22.0108 54.1943 19.3141 56.0392 16.5454C56.7156 15.4301 57.5377 14.2897 57.865 13.0623C57.8649 13.0298 57.8648 13.0136 57.8651 13.0867C57.89 13.2165 57.9798 13.3865 58.1018 13.4834C58.4026 13.7013 58.4998 13.6765 58.7345 13.6024C55.6106 16.7827 53.2134 21.2751 52.1369 25.6235C51.9301 26.5906 51.6595 27.8096 51.9303 28.6365C51.9547 28.6608 51.9139 28.596 51.849 28.5638C51.784 28.5316 51.784 28.5479 51.857 28.5394C52.3513 28.5129 53.0471 28.2012 53.694 27.8167C58.6823 24.6442 63.1408 18.7787 65.3821 13.8242C65.3823 13.8648 65.4158 14.1326 65.4973 14.2459C65.4578 14.4977 66.4399 14.8343 66.4151 14.6964C66.5367 14.6959 66.7631 14.5812 66.7469 14.5813C64.8064 17.7644 62.3448 22.3626 61.4288 26.3287C61.3492 26.6863 61.302 27.0357 61.3032 27.3198C61.2881 27.604 61.4023 27.774 61.3045 27.6283C61.223 27.5313 61.0852 27.5238 61.2311 27.5393C61.0609 27.532 60.8832 27.687 61.1824 27.5071C62.3872 26.7791 63.1598 25.4198 64.1687 24.3842C64.4275 24.2206 64.5081 24.1147 64.9702 24.1451C65.3512 24.1434 65.7589 24.7424 65.7027 24.8806C65.7613 25.335 65.5597 25.5714 65.4234 25.9455C65.1585 26.5799 64.6603 27.6457 64.8654 28.2456C64.882 28.343 65.4174 28.4542 65.62 28.4452C67.4358 28.4776 69.2588 28.2827 71.0239 27.8039C74.1166 26.9132 77.1737 25.2432 79.2386 22.7496C79.8113 22.0488 80.3753 21.2263 80.2828 20.4148C80.2582 20.3418 80.1773 20.3828 80.2837 20.6259C80.3654 20.7879 80.5036 20.8847 80.6417 20.9653C79.5403 21.1975 78.1013 22.1214 77.2635 23.3917C77.022 23.7988 76.6117 24.5638 76.8239 24.9363C76.8565 24.9767 76.8645 24.9361 76.8643 24.9036C76.848 24.8712 76.8641 24.8468 76.9047 24.8547C77.01 24.8543 77.2613 24.8612 77.5773 24.8274C80.1939 24.4421 82.0362 26.9994 81.3972 29.3243C81.3176 29.69 80.8155 29.7897 80.6035 29.4821C80.0332 28.7783 79.5524 28.1391 79.0812 27.8814C78.6505 27.6073 78.2373 27.666 77.7835 27.6924C74.2098 27.9033 73.6052 24.7478 75.2645 22.1829C76.4803 20.1721 78.3281 18.1178 80.9795 18.3251C81.4986 18.3959 82.1403 18.734 82.418 19.2605C82.7528 19.8679 82.6819 20.3634 82.6185 20.7047C82.2671 22.0053 81.2578 22.9679 80.5158 23.8643C76.6253 27.9168 71.1967 30.4255 65.5794 30.4264C63.6505 30.4756 62.4851 28.922 63.0615 27.1577C63.2851 26.3448 63.6471 25.6693 64.0089 24.9451L64.041 24.8637L64.0412 24.9125C64.0252 24.9694 64.0091 24.9857 64.026 25.1561C63.9616 25.27 64.353 25.8366 64.7096 25.835C65.0664 25.8578 65.0986 25.8089 65.2361 25.7352C64.4453 26.6156 64.0605 27.6565 63.3842 28.7719C62.5634 30.2369 60.6526 30.7651 59.3583 29.4151C57.5086 27.0364 59.786 22.9912 60.7819 20.7296C62.2218 18.0358 63.5644 15.3181 65.6221 13.0356C65.7918 12.9131 65.8726 12.8559 66.1561 12.7978C66.1555 12.6516 67.1701 13.0124 67.1388 13.2805C67.5556 14.1149 66.8295 14.9462 66.532 15.5403C64.6555 18.5121 62.5427 21.1845 60.4141 23.9545C58.1231 26.6521 55.8355 30.1941 52.0203 30.8363C51.267 30.9696 50.1055 30.3659 49.8592 29.5957C49.2445 27.9504 49.8466 26.5187 50.2865 25.0716C50.8957 23.3883 51.6188 21.81 52.3337 20.2236C53.6922 17.4327 54.7905 14.4482 56.9452 12.1165C57.7037 11.2688 59.2423 10.9046 59.9528 12.2167C60.1326 12.565 60.1508 13.0439 60.0952 13.3446C59.7455 15.043 58.6729 16.3793 57.7138 17.7151C55.5852 20.5013 53.2042 22.9882 50.8232 25.4914C48.7236 27.4087 44.6383 33.3782 41.5686 29.9658C40.4518 28.412 41.3925 26.5486 42.165 25.1568C42.2777 24.9533 42.4469 24.709 42.584 24.5297C43.0874 24.7548 41.5277 23.9093 43.9954 24.7995C43.9988 25.6357 43.9403 25.1975 43.941 25.3761C43.2572 26.6295 42.0693 27.5279 41.0192 28.4095C39.9527 29.2586 38.8292 30.0593 37.5507 30.5928C36.1914 31.1996 34.2543 31.2246 33.8737 29.3265C33.7567 28.4745 33.9978 27.9457 34.1903 27.4658C35.0343 25.7165 36.2695 24.4931 37.4959 23.1074C38.7146 21.8273 39.8278 20.4989 41.3389 19.3636C42.9867 17.9354 45.8579 18.3772 46.038 20.7958C46.0982 21.6643 45.5698 23.266 44.5054 22.6376C44.2778 22.4762 44.22 22.2248 44.1866 21.9732L44.2272 21.9974Z" fill="#474542"/>
<path d="M56.3356 15.6105C58.4006 13.1331 61.0759 11.27 63.8988 9.78778C65.3713 9.11542 73.4571 4.2403 73.8495 7.04766C73.9081 7.50205 73.6748 7.9334 73.2865 8.12999C71.879 8.85077 70.3728 9.20664 68.8831 9.61927C67.3933 10.0157 65.8872 10.4121 64.4711 11.003C61.6552 12.1929 58.9219 13.764 56.9618 16.1272C56.6312 16.5347 55.9969 16.026 56.3356 15.6105Z" fill="#474542"/>
<path d="M102.155 13.3661C102.294 13.5197 102.441 13.6896 102.611 13.7781C102.935 13.7442 103.282 13.4179 103.402 13.0114C103.522 12.6293 103.286 12.3786 102.985 12.1283C101.628 11.1033 100.146 11.4834 98.3251 12.2467C94.1347 14.2952 90.7463 18.2318 88.8426 22.4784C85.5031 30.4417 89.2561 32.4546 96.4481 29.0286C102.354 26.2742 107.181 21.3568 111.384 16.4261C113.473 13.8836 115.424 11.1957 116.936 8.34727C117.756 6.76042 118.512 5.17385 118.619 3.53336L118.618 3.44406C118.619 3.60643 118.668 3.8173 118.815 3.99526C118.856 4.06003 119.125 4.37545 119.579 4.40589C120.073 4.37932 119.959 4.33923 120.097 4.30614C120.218 4.24876 120.331 4.14271 120.347 4.1264L120.307 4.18341C118.2 8.13863 116.539 12.4004 114.813 16.5487C113.377 20.1924 111.787 23.7881 110.805 27.5434C110.765 27.6978 110.758 27.9252 110.75 27.8684C110.749 27.6492 110.415 27.2691 110.099 27.2461C109.904 27.2308 109.921 27.2388 109.839 27.2473C109.645 27.305 109.742 27.2883 109.767 27.2639C111.609 25.8916 112.988 24.0262 114.805 22.5729C115.516 21.9852 116.765 22.0039 116.932 23.2291C117.036 24.9823 116.33 26.6661 116.426 28.3219C116.426 28.4356 116.483 28.5003 116.41 28.3788C116.344 28.2817 116.166 28.1932 116.036 28.1775C115.931 28.1536 115.728 28.187 115.76 28.1869C117.848 27.3088 119.941 25.7568 121.418 24.0452C121.781 23.6052 122.176 23.1975 122.158 22.6617C122.183 22.7996 122.11 22.9542 122.557 23.3175C123.142 23.5747 123.546 23.2563 123.506 23.2483C123.635 23.126 123.619 23.1261 123.635 23.1179C123.643 23.1016 123.635 23.126 123.635 23.126C123.066 24.8254 122.419 27.1178 122.799 28.8779C122.823 28.9184 122.783 28.8373 122.701 28.8134C125.049 28.0234 127.511 25.6254 128.88 23.2973C128.92 23.2322 129.025 23.1505 129.098 23.0933C129.081 23.0528 129.6 22.8962 129.778 23.0335C130.006 23.0893 130.21 23.5024 130.169 23.4701C130.218 23.5917 130.219 23.7541 130.22 23.8677C130.104 25.4514 129.883 26.9057 130.562 28.3478C130.701 28.6557 130.386 29.0224 130.062 28.9183C128.974 28.5904 128.726 27.3249 128.665 26.3753C128.63 25.6042 128.739 24.5969 128.833 23.8252C128.833 23.809 128.833 23.7927 128.833 23.8009C128.833 23.8333 128.842 23.8739 128.858 23.9144C128.817 23.8578 128.997 24.2467 129.208 24.2863C129.444 24.4476 129.873 24.259 129.921 24.1613C129.067 25.4561 127.994 26.7031 126.945 27.8769C125.839 29.051 124.751 30.4685 123.067 30.8901C119.129 31.2894 120.727 25.6802 121.529 23.582C121.762 23.037 121.897 22.4193 122.398 21.9137C122.381 21.8894 122.81 21.5546 123.419 21.8279C123.882 22.1993 123.794 22.354 123.835 22.4269C123.894 22.9949 123.718 23.5478 123.444 23.9793C122.122 25.8201 120.303 27.0055 118.729 28.5389C117.905 29.2165 117.203 29.9909 116.101 30.2638C115.064 30.447 114.322 29.3462 114.303 28.5344C114.19 26.8137 115.009 24.8291 115.239 23.4722C115.296 23.6343 115.573 23.8685 115.783 23.8351C114.279 24.5969 112.732 26.8609 111.359 28.2716C110.964 28.6144 110.811 28.8748 110.163 29.0564C109.92 29.1305 109.409 29.0354 109.205 28.7927C109.051 28.6473 108.936 28.4286 108.92 28.3637C108.664 27.2364 109.155 26.268 109.394 25.244C110.385 21.9839 111.564 18.8609 112.775 15.7297C114.574 11.4187 116.144 7.02745 118.462 2.93327C118.623 2.71334 118.784 2.47717 119.084 2.33781C119.246 2.28837 119.156 2.23194 119.675 2.21337C120.454 2.32354 120.658 2.7854 120.733 3.28843C120.758 3.45881 120.664 4.14934 120.656 4.32798C119.241 12.9809 101.085 31.1836 92.7052 33.4702C89.5885 34.4503 85.5624 33.0719 84.8267 29.5598C84.1908 26.6723 85.3302 23.8094 86.5605 21.3926C89.4651 16.1023 97.3552 4.98464 104.359 9.05322C107.795 10.9051 107.103 16.0069 103.101 16.5282C101.982 16.655 100.869 16.0186 100.306 15.0794C99.8654 14.3019 99.5207 13.248 100.556 12.7968C101.163 12.5343 101.716 12.9053 102.091 13.3502L102.155 13.3661Z" fill="#474542"/>
<path d="M132.632 19.1724C132.536 19.5381 132.011 19.8328 131.564 19.6075C130.703 19.1404 131.242 18.1638 131.897 17.8848C132.771 17.4587 133.392 18.6088 132.632 19.1724Z" fill="#474542"/>
<path d="M141.305 17.113C139.694 17.6642 137.722 18.8584 137.372 20.5568C137.388 20.5892 137.42 20.4673 137.33 20.2972C137.224 20.1353 137.135 20.1195 137.184 20.1192C137.581 20.1581 138.115 20.042 138.545 20.0238C139.412 19.9631 140.597 20.3313 140.893 21.361C141.488 24.1269 136.384 26.8696 134.01 26.9858C132.851 27.0965 132.658 25.3762 133.816 25.2249C135.755 25.5896 138.375 24.1814 138.935 22.2142C138.967 22.0922 138.95 21.9949 138.934 21.9868C138.901 21.9626 138.902 22.125 138.992 22.2383C139.171 22.4242 138.992 22.3113 138.717 22.3856C137.566 22.5775 136.303 22.7862 135.439 21.6372C133.944 18.8916 138.951 16.2873 141.074 16.0261C141.762 15.9175 141.985 16.9395 141.313 17.1292L141.305 17.113Z" fill="#474542"/>
<path d="M154.845 2.17757C153.233 8.30642 150.419 13.9373 147.905 19.7048C146.782 22.4622 145.521 25.3581 144.957 28.2104C144.902 28.5922 144.912 29.0306 144.936 28.9818C144.936 28.9249 144.903 28.9413 144.879 28.8765C144.846 28.8198 144.765 28.8039 144.765 28.7795C146.686 28.6735 148.612 26.01 149.854 24.405C150.063 24.1199 150.442 23.5905 150.652 23.3135L150.684 23.2809C150.724 23.2482 150.603 23.3462 150.813 23.1585C151.363 22.6933 152.288 23.1357 152.243 23.8747C152.172 24.3459 152.171 24.1592 152.163 24.216C152.147 24.2567 152.107 24.3462 152.083 24.395C150.853 26.958 150.703 29.8489 152.245 32.302C152.441 32.6178 152.337 33.0404 152.013 33.2205C151.779 33.3515 151.503 33.3283 151.308 33.175C148.324 30.9638 148.881 26.4959 150.499 23.6227C150.499 23.6227 150.547 23.5413 150.547 23.5332C150.547 23.5738 150.555 23.3789 150.492 23.8338C150.493 24.0124 150.55 24.207 150.648 24.3365C150.746 24.4497 150.811 24.555 151.087 24.6755C151.42 24.8364 151.93 24.5905 152.01 24.444C151.558 25.0144 150.704 26.0737 150.228 26.6685C149.179 27.9235 148.171 29.1783 147.049 30.4255C146.646 30.8495 146.096 31.2498 145.489 31.4393C144.275 31.7857 142.878 31.2318 142.419 30.016C141.788 28.1678 142.809 26.1335 143.5 24.5553C146.322 18.9731 149.413 13.5927 151.39 7.65706C152.063 5.72175 152.598 3.74647 152.906 1.75597C153.144 0.40718 155.196 0.795792 154.87 2.16934L154.845 2.17757Z" fill="#474542"/>
<path d="M143.611 12.1744C150.803 8.73222 158.853 4.89647 166.992 7.06827C167.535 7.20385 167.87 7.74631 167.734 8.29088C167.615 8.77855 167.17 9.09718 166.684 9.06689C160.878 8.52463 155.165 8.89938 149.826 11.4564C148.021 12.2114 146.241 13.0638 144.478 13.9567C143.993 14.2024 143.392 14.0103 143.147 13.5242C142.893 13.022 143.102 12.4121 143.611 12.1744Z" fill="#474542"/>
<path d="M155.877 14.7406C156.072 14.6748 156.088 14.6422 156.136 14.5527C156.056 14.8859 155.717 15.0904 155.384 15.0026C154.873 14.8831 154.789 14.234 155.12 13.8915C155.37 13.4925 156.156 13.4078 156.304 14.008C156.386 14.3242 156.193 14.6498 155.877 14.7325L155.877 14.7406Z" fill="#474542"/>
<path d="M156.107 21.3813C159.641 21.3005 163.859 20.0475 166.036 17.1068C166.116 17.0009 166.156 16.879 166.14 16.8953C166.092 17.0173 166.101 17.139 166.142 17.285C166.175 17.5121 166.492 17.7543 166.581 17.7539C165.812 17.8223 165.044 18.3291 164.259 18.7629C162.351 19.9812 160.802 21.823 159.562 23.6797C158.901 24.7137 158.097 26.1625 158.125 27.2828C158.151 27.4856 158.192 27.5991 158.249 27.6719C158.289 27.7042 158.346 27.7689 158.289 27.688C158.257 27.68 158.257 27.6719 158.257 27.6638C158.257 27.6638 158.232 27.6801 158.281 27.6637C159.992 27.7534 162.305 26.5577 163.825 25.6334C164.157 25.4371 164.579 25.5407 164.783 25.8727C164.929 26.1075 164.906 26.3999 164.769 26.6197C164.254 27.3933 163.624 27.9482 162.953 28.4708C161.328 29.5741 160.06 30.6434 157.749 30.4021C154.885 29.7736 155.13 26.2732 156.428 24.465C157.757 22.3238 159.639 20.6754 161.472 19.0515C162.829 17.9899 163.805 16.784 165.391 15.9325C167.202 14.9663 169.259 16.5322 167.573 18.3665C164.252 20.9469 160.334 22.3447 156.203 22.9478C155.109 23.0583 155.005 21.3944 156.107 21.3813Z" fill="#474542"/>
</svg>
