<svg width="167" height="120" viewBox="0 0 167 120" fill="none" xmlns="http://www.w3.org/2000/svg">
<path d="M0.0738741 107.91L0 105.577L13.7058 104.277C14.6881 104.185 16.7697 104.028 17.5942 103.554C18.1307 103.26 18.4193 102.76 18.6252 102.192L19.3967 102.371L17.7998 109.244L17.0284 109.065C17.1429 108.254 17.7189 106.835 16.5033 106.553C16.1292 106.466 15.298 106.544 14.9148 106.603L11.8167 106.893L10.4316 112.854L11.2494 113.365C11.873 113.756 13.5335 114.881 14.2114 115.038C15.4037 115.315 15.8552 114.115 16.0779 113.156L16.8493 113.335L15.4589 119.32L14.6874 119.141C15.1311 117.125 13.3375 116.043 11.8494 115.13L0.0738741 107.91ZM10.6653 106.971L2.20217 107.764L9.44319 112.231L10.6653 106.971Z" fill="#474542"/>
<path d="M10.11 92.7182L14.2618 92.6554L14.3724 93.301C12.563 93.9296 10.4415 94.7311 9.8176 96.5723C9.5172 97.4587 9.82281 98.5759 10.7548 98.8917C13.5279 99.8315 14.9009 92.3398 19.0605 93.7494C21.0154 94.4118 21.8535 96.7991 21.2373 98.6175C21.0447 99.1858 20.747 99.541 20.4107 100.01C20.2273 100.252 20.0213 100.486 19.9211 100.782C19.7594 101.259 19.8099 101.783 19.9972 102.277L15.6554 102.377L15.5749 101.792C17.2996 101.414 19.9557 99.9317 20.5334 98.227C20.8877 97.1814 20.4157 95.9571 19.3474 95.5951C16.4151 94.6014 15.2925 102.102 11.1783 100.708C9.24624 100.053 8.55142 97.841 9.15993 96.0453C9.43722 95.227 10.0705 94.5547 10.2862 93.9182C10.4325 93.4864 10.3358 93.0988 10.11 92.7182Z" fill="#474542"/>
<path d="M14.877 87.8172L21.6231 90.7799C22.4963 90.4032 23.5249 89.9113 23.9303 88.9884C24.9822 86.5932 22.1744 84.8096 20.3065 83.9893C18.4387 83.169 15.5949 82.6016 14.5719 84.9309C14.2341 85.7 14.518 87.0828 14.877 87.8172ZM22.5021 91.1659L24.4358 92.0152C26.5014 92.9224 26.6333 92.9803 27.4776 91.5948L28.1149 91.8747L25.9628 96.775L25.3255 96.4951C25.784 94.914 25.6522 94.8561 23.5866 93.9489L15.0166 90.1852C13.8327 89.7177 13.3766 89.6222 12.7976 90.9407L12.2702 90.709L12.4599 86.7556L14.0201 87.4408C13.6343 86.1705 13.4437 84.9334 13.9841 83.7028C15.1904 80.9561 18.7719 80.7989 21.1574 81.8728C23.8919 83.0475 26.4578 85.7996 25.0778 88.9419C24.6049 90.0187 23.5677 90.7689 22.5021 91.1659Z" fill="#474542"/>
<path d="M26.2478 71.7483L22.3059 78.8656C24.3634 80.0052 27.7449 81.0824 29.1984 78.458C29.9775 77.0514 29.8751 75.4034 29.1949 73.9567L29.7285 73.7858C30.6887 75.47 30.9035 77.5094 29.95 79.231C28.3221 82.1702 24.7426 82.9861 21.8663 81.3931C19.1789 79.9047 17.4425 76.5012 19.0705 73.5619C20.524 70.9376 23.7704 70.3762 26.2478 71.7483ZM21.5662 78.3188L24.2756 73.4269C22.8967 72.4986 20.7633 72.1401 19.7517 73.9667C18.7633 75.7512 20.1618 77.4861 21.5662 78.3188Z" fill="#474542"/>
<path d="M27.2695 67.2012L31.4313 69.9579C33.3121 71.2038 33.4322 71.2833 34.4802 70.0487L35.0605 70.4331L32.1314 74.855L31.5512 74.4706C32.2659 73.044 32.1458 72.9645 30.265 71.7187L25.9631 68.8692C24.8629 68.2268 24.4695 67.995 23.661 69.2155L23.1808 68.8974L24.0281 65.0542L26.3891 66.6181C25.9523 65.2348 25.3269 63.0933 26.2017 61.7727C26.639 61.1125 27.4836 60.837 28.1839 61.3009C28.8042 61.7118 29.026 62.4633 28.5887 63.1236C28.1248 63.8239 27.4323 63.7394 27.0082 64.3797C26.5443 65.08 26.9346 66.49 27.2695 67.2012Z" fill="#474542"/>
<path d="M42.0111 61.9073L39.2842 63.8805C38.9177 64.8455 38.2435 66.5466 39.2593 67.3515C40.5009 68.3351 42.3834 66.1523 43.1435 65.1929C43.8142 64.3464 45.2812 62.263 44.209 61.4135C43.513 60.862 42.5977 61.5148 42.0111 61.9073ZM38.1793 62.4539L39.7141 61.251C41.0325 60.244 43.1071 58.2439 44.8189 59.6002C46.8881 61.2397 44.8523 64.3116 43.6004 65.8917C42.6316 67.1144 39.7348 70.4227 38.023 69.0665C36.6874 68.0083 37.8729 65.855 38.2984 64.661C37.6592 65.0426 36.2216 66.2001 35.4127 65.5592C34.6226 64.9332 34.9948 63.5746 35.366 62.797C33.978 63.3507 32.4249 63.0694 31.2398 62.1305C29.1894 60.5059 29.4383 57.6411 30.9436 55.7412C31.6441 54.857 32.6676 54.1063 33.8437 53.9359C33.7421 53.0593 33.7857 51.9608 34.3818 51.2084C34.829 50.644 35.5934 50.6067 36.1578 51.0538C36.6092 51.4115 36.8073 52.089 36.4496 52.5405C35.8982 53.2365 35.0861 52.7156 34.5645 53.374C34.4601 53.5057 34.4459 53.6782 34.4506 53.8655C35.3758 53.7412 36.4952 54.2607 37.21 54.8271C39.204 56.4069 39.0116 59.3165 37.5808 61.1223C37.2082 61.5926 36.5925 62.1765 36.0616 62.4601C35.9728 62.7266 35.8174 63.1547 36.0996 63.3782C36.6075 63.7807 37.8169 62.718 38.1793 62.4539ZM35.8694 56.6738C34.7783 55.8093 32.6226 54.8974 31.5345 56.2706C30.4018 57.7003 31.6023 59.5088 32.7874 60.4477C34.0289 61.4314 35.8869 61.9849 37.0196 60.5552C38.1374 59.1444 37.0357 57.5978 35.8694 56.6738Z" fill="#474542"/>
<path d="M47.0079 45.8485L41.39 51.7335C43.0912 53.3575 46.089 55.257 48.1605 53.0871C49.2708 51.924 49.5897 50.3039 49.2986 48.732L49.8581 48.702C50.3599 50.5746 50.0505 52.6018 48.6916 54.0253C46.3715 56.4557 42.7021 56.3372 40.3238 54.0668C38.1017 51.9456 37.2851 48.2131 39.6052 45.7827C41.6767 43.6127 44.9594 43.893 47.0079 45.8485ZM40.8131 51.0169L44.6744 46.9721C43.576 45.7244 41.6033 44.8366 40.1615 46.3469C38.7529 47.8225 39.6658 49.8553 40.8131 51.0169Z" fill="#474542"/>
<path d="M49.6608 36.0403L53.2994 38.0408L53.0759 38.6566C51.1925 38.307 48.9525 37.9533 47.499 39.2443C46.7991 39.8658 46.5117 40.9878 47.1651 41.7235C49.1095 43.9128 54.0109 38.083 56.9274 41.3668C58.298 42.91 57.8446 45.3992 56.409 46.6742C55.9604 47.0726 55.5258 47.2339 55.0016 47.4748C54.7225 47.5943 54.4275 47.6958 54.1942 47.903C53.8174 48.2377 53.6019 48.7179 53.52 49.2401L49.6981 47.1777L49.9175 46.6297C51.6035 47.1545 54.6449 47.1817 55.9908 45.9864C56.8162 45.2533 57.012 43.9559 56.263 43.1125C54.2071 40.7976 49.5189 46.7591 46.6342 43.5111C45.2795 41.9859 45.7708 39.7199 47.1884 38.4609C47.8344 37.8871 48.7174 37.6164 49.2199 37.1702C49.5608 36.8674 49.6686 36.4827 49.6608 36.0403Z" fill="#474542"/>
<path d="M67.7637 34.6466L65.5468 31.4234C64.306 32.6264 62.7837 35.0716 63.9125 36.7129C64.5518 37.6422 65.6123 37.7867 66.4033 37.2426C67.135 36.7394 67.6501 35.5403 67.7637 34.6466ZM65.098 30.7709L64.2003 29.4658C63.5339 28.4968 62.5609 27.5057 61.3744 28.3217C60.3857 29.0018 60.4193 29.9399 60.7866 30.9398C61.0303 31.6752 61.0316 32.2278 60.3197 32.7174C59.7661 33.0982 59.1591 33.0205 58.7919 32.4865C57.6631 30.8453 59.5414 28.6212 60.8268 27.7372C61.6573 27.166 62.761 26.6107 63.8141 26.702C64.934 26.8056 65.5052 27.6361 66.0765 28.4666L69.1774 32.9752C69.5038 33.4498 70.1023 34.3198 70.6955 33.9118C71.0316 33.6806 71.1057 33.2801 71.1662 32.8598L71.7089 33.0983C71.7178 34.1699 71.5734 35.2305 70.644 35.8697C69.8332 36.4274 68.9432 36.1074 68.3473 35.4104C67.9409 36.7677 67.3219 38.1547 66.1354 38.9707C64.7512 39.9227 63.1492 39.6264 62.1836 38.2224C60.3747 35.5925 63.353 32.5536 65.098 30.7709ZM57.9991 23.7107L60.7918 25.7805L60.578 26.1897L58.8845 25.5485C58.3294 25.3768 56.1625 24.6826 55.8497 24.2278C55.6049 23.8718 55.8854 23.475 56.182 23.271C56.9136 22.7678 57.3871 23.2868 57.9991 23.7107Z" fill="#474542"/>
<path d="M76.8272 28.1013L71.6371 18.4662C70.6469 16.628 70.3966 16.8718 68.8395 17.5743L68.5094 16.9616L71.516 13.7881L78.6866 27.0997C79.7565 29.0859 79.8248 29.2126 81.3737 28.5963L81.7038 29.2091L76.9708 31.7586L76.6407 31.1459C77.9654 30.2142 77.8971 30.0875 76.8272 28.1013Z" fill="#474542"/>
<path d="M77.5725 18.6899L77.1247 18.4273C77.4563 17.5723 78.0086 16.1831 77.631 15.4061C77.4736 15.0823 77.2164 15.0472 76.8728 15.054C76.1641 15.0783 75.5979 14.8465 75.2726 14.1773C74.895 13.4002 75.2266 12.5453 75.9605 12.1886C77.0614 11.6535 78.0719 12.47 78.5335 13.4197C79.3518 15.1034 78.4801 17.2082 77.5725 18.6899Z" fill="#474542"/>
<path d="M85.0572 12.8489L88.7468 21.5032C89.7916 23.9538 90.3454 24.3961 92.1336 23.6337L92.4442 24.3622L86.086 27.0729L85.7753 26.3444C87.5415 25.5914 87.6059 24.8856 86.5611 22.435L82.8715 13.7807C81.8362 11.3522 81.273 10.8879 79.5068 11.6409L79.1962 10.9123L85.5545 8.20159L85.8651 8.93014C84.0768 9.69254 84.0219 10.4204 85.0572 12.8489Z" fill="#474542"/>
<path d="M90.3561 13.4809L88.7069 14.0723L88.5125 13.5301C89.9331 12.2303 90.3258 10.1262 89.9133 8.33632L90.6589 8.06895L92.0767 12.0224L95.2395 10.8881L95.5068 11.6336L92.3441 12.7679L94.799 19.613C95.1636 20.6296 95.5854 22.1611 96.9861 21.6588C97.8671 21.3428 98.2067 20.5836 98.569 19.8162L99.1151 20.1303C98.605 21.4096 97.7995 22.7184 96.4215 23.2126C94.4335 23.9256 93.5564 22.4043 92.9812 20.8004L90.3561 13.4809Z" fill="#474542"/>
<path d="M104.818 17.8628L103.765 14.0951C102.202 14.831 99.9689 16.6509 100.505 18.5694C100.808 19.6558 101.765 20.1361 102.69 19.8778C103.545 19.6389 104.421 18.6715 104.818 17.8628ZM103.552 13.3323L103.126 11.8067C102.809 10.6741 102.21 9.42113 100.823 9.80862C99.6675 10.1315 99.3952 11.0299 99.4187 12.0949C99.4108 12.8696 99.2331 13.3927 98.4009 13.6252C97.7537 13.806 97.2047 13.5358 97.0304 12.9117C96.4944 10.9932 98.9921 9.4979 100.495 9.07812C101.465 8.80688 102.689 8.63932 103.656 9.06696C104.682 9.52791 104.953 10.4987 105.225 11.4696L106.697 16.7397C106.852 17.2945 107.136 18.3115 107.83 18.1178C108.223 18.008 108.422 17.6531 108.616 17.2751L109.052 17.6766C108.713 18.6933 108.233 19.6498 107.146 19.9533C106.199 20.2181 105.46 19.627 105.122 18.7745C104.298 19.9268 103.263 21.0383 101.876 21.4258C100.258 21.8779 98.8386 21.0783 98.3801 19.4372C97.5212 16.3629 101.324 14.4533 103.552 13.3323Z" fill="#474542"/>
<path d="M109.991 15.7036L107.779 4.98545C107.357 2.94053 107.047 3.10246 105.354 3.32932L105.214 2.64768L109.003 0.468779L112.059 15.2768C112.515 17.4862 112.544 17.6272 114.205 17.4806L114.346 18.1622L109.08 19.2487L108.94 18.5671C110.476 18.0541 110.447 17.9131 109.991 15.7036Z" fill="#474542"/>
<path d="M116.308 5.55217L117.664 14.3281C118.008 16.5577 118.03 16.7 119.672 16.6406L119.778 17.3285L114.465 18.1491L114.356 17.4375C115.939 16.9986 115.913 16.8326 115.573 14.6268L114.789 9.55095C114.524 8.30485 114.43 7.85786 112.983 8.08132L112.895 7.51207L116.308 5.55217ZM115.903 1.51073C116.034 2.3646 115.433 3.18607 114.579 3.31795C113.701 3.45349 112.884 2.87555 112.748 1.99795C112.612 1.12036 113.19 0.30256 114.068 0.167015C114.946 0.0314703 115.767 0.633131 115.903 1.51073Z" fill="#474542"/>
<path d="M129.992 9.79093L121.882 10.4349C122.068 12.7796 123.037 16.1935 126.028 15.9561C127.631 15.8288 128.948 14.8334 129.779 13.4674L130.216 13.8179C129.342 15.5485 127.76 16.8538 125.799 17.0095C122.449 17.2755 119.792 14.7419 119.532 11.4642C119.289 8.40181 121.167 5.07467 124.517 4.80871C127.507 4.57125 129.768 6.96781 129.992 9.79093ZM121.929 9.5163L127.504 9.07366C127.516 7.41146 126.637 5.43485 124.556 5.60013C122.522 5.7616 121.848 7.88562 121.929 9.5163Z" fill="#474542"/>
<path d="M134.324 7.29002L134.175 13.1441C134.117 15.3994 134.114 15.5433 135.716 15.7762L135.699 16.472L130.348 16.3357L130.366 15.6399C132.002 15.4895 132.006 15.3456 132.064 13.0903L132.195 7.93198C132.156 6.65856 132.143 6.2021 130.68 6.16479L130.694 5.58898L134.401 4.267L134.349 6.30634C135.286 5.34589 136.82 4.49671 138.164 4.53095C139.003 4.55235 139.835 4.90965 140.419 5.52474C141.188 6.43263 141.184 7.53688 141.155 8.66452L141.037 13.319C140.979 15.5743 140.976 15.7182 142.578 15.9511L142.56 16.6469L137.186 16.5099L137.204 15.8142C138.864 15.6644 138.868 15.5205 138.925 13.2652L139.032 9.06656C139.069 7.62703 139.019 5.82516 137.124 5.77686C136.068 5.74995 135.062 6.5886 134.324 7.29002Z" fill="#474542"/>
<path d="M147.131 8.07262L146.322 13.8725C146.01 16.1069 145.99 16.2495 147.556 16.6618L147.46 17.3511L142.16 16.6118L142.256 15.9225C143.899 15.9577 143.918 15.8151 144.23 13.5807L144.943 8.47021C145.047 7.20046 145.087 6.74551 143.637 6.54328L143.716 5.9728L147.549 5.07761L147.267 7.09806C148.306 6.24947 149.926 5.57884 151.257 5.7645C152.089 5.88053 152.875 6.32935 153.386 7.00648C154.048 7.99537 153.919 9.0921 153.763 10.2093L153.12 14.8206C152.808 17.055 152.789 17.1976 154.355 17.6099L154.258 18.2992L148.934 17.5566L149.03 16.8673C150.697 16.9059 150.717 16.7633 151.028 14.5289L151.609 10.3692C151.807 8.94298 151.961 7.14697 150.083 6.88506C149.037 6.73919 147.943 7.45898 147.131 8.07262Z" fill="#474542"/>
<path d="M165.991 14.5143L158.105 12.5157C157.527 14.7956 157.347 18.34 160.255 19.0769C161.813 19.4719 163.381 18.953 164.607 17.9267L164.908 18.3991C163.524 19.7568 161.606 20.4841 159.699 20.0006C156.442 19.1753 154.741 15.9218 155.548 12.7345C156.303 9.75663 159.152 7.2104 162.409 8.03577C165.317 8.77271 166.687 11.769 165.991 14.5143ZM158.445 11.6611L163.866 13.0348C164.412 11.4649 164.215 9.31052 162.191 8.79761C160.214 8.29649 158.892 10.0909 158.445 11.6611Z" fill="#474542"/>
</svg>
