<svg width="137" height="101" viewBox="0 0 137 101" fill="none" xmlns="http://www.w3.org/2000/svg">
<path d="M135.989 7.19965L136.378 9.10552L125.305 12.1074C124.512 12.3216 122.824 12.7443 122.214 13.2497C121.815 13.5671 121.648 14.0182 121.559 14.5139L120.9 14.4755L121.242 8.60545L121.901 8.64378C121.921 9.32612 121.648 10.5724 122.687 10.6328C123.006 10.6514 123.678 10.4701 123.984 10.3677L126.488 9.69199L126.784 4.6006L126.04 4.29689C125.473 4.06354 123.95 3.37394 123.371 3.34025C122.353 3.281 122.152 4.33108 122.104 5.14969L121.445 5.11136L121.743 0L122.402 0.0383372C122.322 1.75659 123.947 2.39211 125.298 2.93149L135.989 7.19965ZM127.422 9.4659L134.261 7.62003L127.684 4.9735L127.422 9.4659Z" fill="#474542"/>
<path d="M129.655 21.3523L126.239 21.9053L126.07 21.3863C127.486 20.6496 129.139 19.7326 129.431 18.1392C129.572 17.372 129.185 16.4877 128.378 16.3398C125.978 15.8998 125.751 22.2427 122.151 21.5826C120.459 21.2724 119.48 19.4052 119.768 17.8314C119.858 17.3396 120.061 17.0108 120.282 16.5836C120.404 16.3619 120.545 16.1439 120.592 15.8882C120.668 15.4751 120.563 15.0492 120.349 14.6642L123.917 14.0577L124.054 14.5302C122.677 15.0505 120.666 16.5931 120.396 18.0685C120.23 18.9734 120.767 19.9259 121.691 20.0954C124.229 20.5607 124.249 14.2407 127.81 14.8936C129.482 15.2001 130.322 16.9402 130.037 18.4943C129.907 19.2025 129.466 19.8333 129.365 20.3841C129.297 20.7579 129.423 21.0657 129.655 21.3523Z" fill="#474542"/>
<path d="M126.214 26.1432L120.327 24.3962C119.645 24.7986 118.845 25.3125 118.606 26.1177C117.986 28.2076 120.493 29.3899 122.123 29.8735C123.753 30.3572 126.163 30.5302 126.767 28.4978C126.966 27.8267 126.587 26.7129 126.214 26.1432ZM119.56 24.1686L117.873 23.6679C116.071 23.133 115.956 23.0988 115.402 24.3322L114.846 24.1672L116.115 19.8915L116.671 20.0566C116.457 21.4116 116.572 21.4457 118.374 21.9806L125.852 24.1998C126.879 24.4631 127.266 24.4945 127.608 23.3441L128.068 23.4807L128.323 26.7691L126.961 26.3651C127.413 27.3752 127.699 28.3782 127.38 29.4519C126.669 31.8486 123.724 32.3515 121.64 31.7121C119.257 31.0257 116.849 29.0175 117.662 26.2757C117.941 25.3362 118.721 24.6079 119.56 24.1686Z" fill="#474542"/>
<path d="M118.254 40.6862L120.896 34.4419C119.091 33.6783 116.194 33.0826 115.22 35.3851C114.698 36.6192 114.927 37.9758 115.618 39.115L115.191 39.3034C114.247 37.9921 113.89 36.321 114.529 34.8105C115.62 32.2318 118.515 31.2413 121.038 32.3088C123.396 33.3062 125.134 35.9741 124.043 38.5529C123.069 40.8553 120.428 41.6057 118.254 40.6862ZM121.557 34.8301L119.741 39.1219C120.965 39.7701 122.765 39.8798 123.443 38.2773C124.105 36.7116 122.794 35.3968 121.557 34.8301Z" fill="#474542"/>
<path d="M117.664 44.6869L114.006 42.7057C112.353 41.8104 112.248 41.7533 111.469 42.8554L110.959 42.5791L113.064 38.6926L113.574 38.9688C113.086 40.2057 113.191 40.2628 114.845 41.1582L118.626 43.206C119.586 43.658 119.93 43.8214 120.511 42.7486L120.933 42.9772L120.513 46.2299L118.438 45.106C118.903 46.2219 119.58 47.9534 118.951 49.1141C118.637 49.6944 117.956 49.9854 117.341 49.652C116.796 49.3567 116.556 48.7493 116.87 48.1689C117.204 47.5534 117.785 47.5724 118.089 47.0097C118.423 46.3942 117.995 45.2526 117.664 44.6869Z" fill="#474542"/>
<path d="M105.72 50.1441L107.869 48.3419C108.117 47.518 108.576 46.064 107.684 45.4554C106.593 44.7115 105.158 46.6378 104.584 47.4804C104.076 48.2239 102.981 50.0429 103.923 50.6853C104.534 51.1023 105.256 50.5053 105.72 50.1441ZM108.873 49.4621L107.668 50.5532C106.632 51.4686 105.027 53.2543 103.523 52.2287C101.706 50.989 103.216 48.3146 104.162 46.9268C104.895 45.8528 107.106 42.9307 108.61 43.9564C109.783 44.7566 108.925 46.6169 108.643 47.6346C109.151 47.2794 110.277 46.2319 110.988 46.7165C111.682 47.1899 111.453 48.3413 111.191 49.0097C112.312 48.4669 113.619 48.6084 114.66 49.3185C116.461 50.5469 116.424 52.943 115.286 54.6117C114.756 55.3882 113.95 56.0731 112.983 56.2847C113.119 57.0073 113.148 57.9229 112.698 58.5838C112.359 59.0794 111.726 59.1559 111.231 58.8178C110.834 58.5473 110.629 57.9959 110.9 57.5994C111.317 56.9881 112.023 57.3728 112.417 56.7945C112.496 56.6789 112.497 56.5347 112.482 56.3792C111.721 56.5375 110.759 56.1722 110.132 55.744C108.38 54.5493 108.367 52.1194 109.449 50.5333C109.731 50.1203 110.208 49.5984 110.633 49.3311C110.69 49.1042 110.794 48.7392 110.546 48.5702C110.1 48.2658 109.158 49.2211 108.873 49.4621ZM111.136 54.1293C112.095 54.783 113.941 55.4128 114.763 54.2067C115.62 52.9511 114.515 51.5192 113.474 50.8091C112.383 50.0653 110.806 49.7157 109.949 50.9713C109.104 52.2105 110.112 53.4305 111.136 54.1293Z" fill="#474542"/>
<path d="M102.28 63.8111L106.702 58.6717C105.216 57.3934 102.64 55.9416 101.009 57.8366C100.135 58.8524 99.9394 60.2143 100.249 61.51L99.785 61.559C99.2868 60.0222 99.4571 58.3218 100.527 57.0786C102.353 54.9561 105.412 54.8969 107.489 56.684C109.429 58.3537 110.27 61.4249 108.443 63.5473C106.813 65.4424 104.069 65.3504 102.28 63.8111ZM107.213 59.2432L104.173 62.7756C105.141 63.7667 106.821 64.4206 107.956 63.1017C109.065 61.813 108.218 60.1606 107.213 59.2432Z" fill="#474542"/>
<path d="M100.225 72.1783L97.1398 70.6126L97.3089 70.0936C98.8871 70.3327 100.763 70.5654 101.938 69.4501C102.503 68.913 102.712 67.9706 102.147 67.3759C100.467 65.6063 96.546 70.5972 94.0261 67.9427C92.842 66.6953 93.1508 64.6096 94.3113 63.508C94.6739 63.1638 95.0314 63.0175 95.4614 62.8023C95.6905 62.6951 95.9334 62.6024 96.122 62.4234C96.4266 62.1342 96.5928 61.7283 96.6466 61.2911L99.8867 62.9033L99.7191 63.3658C98.3004 62.9752 95.7665 63.0366 94.6786 64.0693C94.0114 64.7027 93.8841 65.7887 94.5313 66.4705C96.3076 68.3416 100.048 63.247 102.54 65.8724C103.71 67.1053 103.364 69.0062 102.218 70.094C101.696 70.5897 100.968 70.8395 100.562 71.2251C100.286 71.4867 100.207 71.81 100.225 72.1783Z" fill="#474542"/>
<path d="M84.9618 73.7196L86.8209 76.3975C87.8505 75.3905 89.1102 73.3473 88.1636 71.9837C87.6275 71.2116 86.7432 71.0951 86.086 71.5513C85.4782 71.9733 85.0532 72.9744 84.9618 73.7196ZM87.1973 76.9397L87.9501 78.024C88.509 78.829 89.3234 79.6514 90.3091 78.967C91.1306 78.3967 91.0992 77.6151 90.7895 76.7832C90.5838 76.1712 90.5806 75.7108 91.1721 75.3002C91.6321 74.9808 92.1381 75.0434 92.4461 75.487C93.3928 76.8506 91.8356 78.7108 90.7677 79.4522C90.0777 79.9312 89.1599 80.3979 88.282 80.3257C87.3484 80.2434 86.8693 79.5534 86.3903 78.8634L83.7898 75.1176C83.5161 74.7233 83.0142 74.0004 82.5214 74.3426C82.2421 74.5365 82.1818 74.8705 82.1329 75.2209L81.6798 75.0242C81.6685 74.1312 81.785 73.2469 82.5572 72.7108C83.2308 72.2432 83.9736 72.5066 84.4727 73.0852C84.8065 71.9527 85.3172 70.7946 86.303 70.1103C87.453 69.3119 88.7891 69.553 89.5989 70.7195C91.1158 72.9045 88.645 75.4477 87.1973 76.9397ZM93.1387 82.7973L90.8039 81.0826L90.9806 80.7408L92.3942 81.269C92.8573 81.41 94.6656 81.9807 94.928 82.3586C95.1333 82.6543 94.901 82.986 94.6545 83.1571C94.0467 83.5791 93.6502 83.1483 93.1387 82.7973Z" fill="#474542"/>
<path d="M77.2847 79.1529L81.4351 87.2738C82.2269 88.8232 82.4398 88.6245 83.7498 88.0674L84.0137 88.5838L81.4515 91.1735L75.7176 79.9538C74.862 78.2798 74.8074 78.1729 73.5058 78.6585L73.2418 78.142L77.231 76.1032L77.495 76.6197C76.3746 77.372 76.4292 77.4788 77.2847 79.1529Z" fill="#474542"/>
<path d="M76.358 87.0314L76.724 87.2622C76.4249 87.9654 75.9277 89.1077 76.2215 89.765C76.3439 90.0389 76.5572 90.075 76.8435 90.0785C77.4345 90.0773 77.8999 90.2855 78.1529 90.8515C78.4467 91.5089 78.1475 92.2121 77.5267 92.4896C76.5955 92.9057 75.7757 92.1987 75.4166 91.3953C74.7801 89.9711 75.5624 88.2413 76.358 87.0314Z" fill="#474542"/>
<path d="M69.833 91.6955L67.0746 84.3568C66.2935 82.2788 65.8484 81.8906 64.332 82.4605L64.0998 81.8427L69.4915 79.8161L69.7237 80.4339C68.226 80.9969 68.1469 81.5821 68.928 83.6602L71.6864 90.9989C72.4605 93.0582 72.9126 93.4652 74.4102 92.9022L74.6425 93.52L69.2508 95.5467L69.0185 94.9289C70.535 94.3589 70.6071 93.7549 69.833 91.6955Z" fill="#474542"/>
<path d="M65.2639 91.0058L66.664 90.5918L66.8 91.0521C65.5566 92.0663 65.1301 93.7983 65.3884 95.3069L64.7555 95.494L63.7632 92.1377L61.0781 92.9315L60.891 92.2986L63.5761 91.5047L61.858 85.6934C61.6028 84.8303 61.3245 83.5361 60.1354 83.8877C59.3874 84.1088 59.0688 84.7244 58.7311 85.3456L58.2916 85.0584C58.7766 84.0183 59.5088 82.9676 60.6787 82.6217C62.3665 82.1227 63.0241 83.4299 63.4267 84.7916L65.2639 91.0058Z" fill="#474542"/>
<path d="M53.3498 86.6239L54.0003 89.8183C55.3439 89.2998 57.3081 87.9202 56.9769 86.2935C56.7893 85.3724 56.0228 84.9162 55.2389 85.0758C54.5138 85.2235 53.728 85.9754 53.3498 86.6239ZM54.132 90.4651L54.3954 91.7585C54.591 92.7188 55.0144 93.796 56.1903 93.5565C57.1702 93.357 57.45 92.6265 57.494 91.7399C57.5467 91.0964 57.7256 90.6722 58.4311 90.5285C58.9799 90.4168 59.4201 90.6741 59.5278 91.2032C59.8591 92.8299 57.6938 93.9239 56.42 94.1833C55.5969 94.3509 54.5694 94.4173 53.7914 94.0042C52.9661 93.56 52.7985 92.7368 52.6309 91.9137L51.721 87.4454C51.6252 86.9751 51.4496 86.1128 50.8617 86.2325C50.5285 86.3004 50.3413 86.5834 50.158 86.8861L49.8194 86.5264C50.1617 85.7015 50.6179 84.9351 51.539 84.7475C52.3425 84.5839 52.921 85.1192 53.151 85.848C53.9048 84.9393 54.8314 84.0771 56.0073 83.8376C57.3791 83.5583 58.5114 84.3074 58.7947 85.6988C59.3255 88.3053 56.0512 89.6661 54.132 90.4651Z" fill="#474542"/>
<path d="M48.83 88.0955L49.9225 97.1499C50.1309 98.8773 50.3993 98.7644 51.8211 98.6936L51.8906 99.2694L48.592 100.816L47.0827 88.3064C46.8575 86.4399 46.8431 86.3208 45.4539 86.3272L45.3844 85.7514L49.8321 85.2148L49.9016 85.7906C48.5904 86.1099 48.6048 86.2291 48.83 88.0955Z" fill="#474542"/>
<path d="M42.7467 96.0754L42.282 88.69C42.164 86.8137 42.1564 86.694 40.7891 86.6197L40.7526 86.0408L45.2238 85.7595L45.2615 86.3583C43.9142 86.6034 43.923 86.7431 44.0398 88.5995L44.3085 92.871C44.435 93.9252 44.4788 94.3032 45.6964 94.2266L45.7265 94.7056L42.7467 96.0754ZM42.7792 99.4601C42.734 98.7415 43.2952 98.105 44.0138 98.0598C44.7523 98.0133 45.3875 98.5545 45.434 99.293C45.4805 100.032 44.9393 100.667 44.2007 100.713C43.4622 100.76 42.8257 100.199 42.7792 99.4601Z" fill="#474542"/>
<path d="M31.5465 91.4623L38.3253 91.5925C38.3629 89.6328 37.8387 86.7222 35.3392 86.6743C33.9994 86.6485 32.8254 87.3661 32.0248 88.4309L31.691 88.1045C32.5574 86.7409 33.9759 85.7879 35.6156 85.8194C38.4151 85.8732 40.411 88.1919 40.3584 90.9314C40.3092 93.4909 38.4789 96.0963 35.6794 96.0425C33.1798 95.9945 31.5012 93.8219 31.5465 91.4623ZM38.2107 92.3504L33.5516 92.261C33.4051 93.6384 33.9724 95.3496 35.712 95.383C37.4117 95.4157 38.1446 93.7094 38.2107 92.3504Z" fill="#474542"/>
<path d="M27.4856 93.1374L28.1115 88.2977C28.3527 86.4333 28.3681 86.3143 27.0597 85.9837L27.1341 85.4085L31.5572 85.9806L31.4828 86.5558C30.1136 86.54 30.0982 86.659 29.857 88.5235L29.3054 92.788C29.229 93.8469 29.2 94.2264 30.41 94.3829L30.3484 94.8589L27.1623 95.6366L27.3804 93.9507C26.5215 94.6664 25.177 95.2386 24.0662 95.095C23.372 95.0052 22.7137 94.6377 22.282 94.0777C21.7223 93.2591 21.8205 92.3442 21.9411 91.4119L22.4388 87.564C22.68 85.6995 22.6954 85.5805 21.387 85.25L21.4614 84.6748L25.9043 85.2494L25.8299 85.8246C24.4408 85.8063 24.4254 85.9253 24.1843 87.7898L23.7353 91.2609C23.5814 92.4509 23.4683 93.9488 25.0352 94.1515C25.908 94.2644 26.8136 93.6555 27.4856 93.1374Z" fill="#474542"/>
<path d="M16.6683 91.345L17.8175 86.6022C18.2602 84.7751 18.2884 84.6585 17.0238 84.1874L17.1604 83.6237L21.4949 84.674L21.3584 85.2377C19.9989 85.0729 19.9707 85.1896 19.528 87.0167L18.5154 91.1958C18.3241 92.2401 18.254 92.6141 19.4397 92.9014L19.3267 93.3679L16.0749 93.7941L16.4752 92.1419C15.5435 92.7599 14.1447 93.1824 13.0562 92.9187C12.3758 92.7538 11.7615 92.3169 11.3933 91.7132C10.9261 90.8386 11.1233 89.9397 11.3446 89.0262L12.2583 85.2553C12.701 83.4282 12.7293 83.3115 11.4646 82.8405L11.6012 82.2768L15.9552 83.3317L15.8186 83.8954C14.4398 83.726 14.4115 83.8426 13.9688 85.6697L13.1446 89.0713C12.862 90.2376 12.5866 91.7142 14.1221 92.0863C14.9774 92.2935 15.9439 91.7868 16.6683 91.345Z" fill="#474542"/>
<path d="M1.24738 84.4784L7.65103 86.7059C8.29496 84.8547 8.69992 81.9251 6.33869 81.1038C5.07307 80.6635 3.73434 80.9813 2.64282 81.7451L2.42683 81.3312C3.67358 80.3038 5.31783 79.8381 6.8668 80.3769C9.51137 81.2968 10.6891 84.1205 9.78888 86.7084C8.94783 89.1263 6.39929 91.0349 3.75472 90.115C1.39349 89.2937 0.472035 86.7074 1.24738 84.4784ZM7.30689 87.3908L2.90557 85.8599C2.33885 87.1238 2.34703 88.9266 3.99044 89.4983C5.59608 90.0568 6.82231 88.6622 7.30689 87.3908Z" fill="#474542"/>
</svg>
