<svg width="214" height="156" viewBox="0 0 214 156" fill="none" xmlns="http://www.w3.org/2000/svg">
<path d="M0.549974 142.028L0.169922 138.939L18.212 135.557C19.5053 135.316 22.2502 134.856 23.2879 134.127C23.9648 133.671 24.2876 132.973 24.4923 132.194L25.5384 132.339L24.2485 141.658L23.2025 141.513C23.2566 140.422 23.85 138.469 22.2017 138.241C21.6945 138.171 20.6002 138.375 20.0984 138.499L16.0197 139.259L14.901 147.342L16.0485 147.921C16.9238 148.365 19.2647 149.658 20.1839 149.785C21.8005 150.009 22.2549 148.36 22.4348 147.06L23.4808 147.205L22.3577 155.32L21.3116 155.175C21.6572 152.444 19.1448 151.224 17.0585 150.193L0.549974 142.028ZM14.5002 139.501L3.35836 141.577L13.5131 146.633L14.5002 139.501Z" fill="#474542"/>
<path d="M12.3478 121.269L17.8691 120.86L18.0669 121.71C15.7078 122.689 12.9469 123.922 12.2607 126.421C11.9304 127.625 12.4247 129.088 13.6899 129.435C17.4546 130.469 18.695 120.389 24.3421 121.94C26.9959 122.668 28.2986 125.78 27.621 128.249C27.4092 129.02 27.0407 129.516 26.6299 130.167C26.4048 130.503 26.1488 130.831 26.0387 131.232C25.8608 131.88 25.9691 132.574 26.2572 133.217L20.486 133.69L20.3329 132.918C22.5989 132.279 26.0181 130.098 26.6535 127.784C27.0431 126.364 26.3189 124.772 24.8685 124.374C20.8878 123.281 19.9814 133.352 14.396 131.819C11.773 131.099 10.6748 128.209 11.344 125.772C11.649 124.661 12.4392 123.716 12.6764 122.852C12.8373 122.266 12.6782 121.758 12.3478 121.269Z" fill="#474542"/>
<path d="M18.2348 114.891L27.3771 118.486C28.5208 117.939 29.8656 117.23 30.3575 115.979C31.6342 112.733 27.8004 110.503 25.2691 109.508C22.7378 108.512 18.9193 107.904 17.6778 111.061C17.2679 112.103 17.7182 113.931 18.2348 114.891ZM28.5683 118.955L31.1889 119.985C33.9881 121.086 34.1668 121.157 35.2196 119.267L36.0832 119.607L33.4713 126.247L32.6077 125.908C33.1361 123.777 32.9574 123.707 30.1582 122.606L18.5442 118.038C16.9424 117.477 16.3298 117.374 15.627 119.16L14.9123 118.879L14.959 113.602L17.0734 114.434C16.4932 112.761 16.1748 111.123 16.8307 109.455C18.2947 105.733 23.0582 105.337 26.2924 106.643C29.9968 108.066 33.5589 111.599 31.884 115.857C31.3101 117.317 29.9673 118.37 28.5683 118.955Z" fill="#474542"/>
<path d="M32.5185 93.4862L27.5077 103.108C30.2892 104.556 34.8332 105.876 36.6808 102.329C37.6711 100.427 37.4783 98.234 36.5221 96.3289L37.2275 96.0829C38.565 98.2948 38.9211 101.006 37.709 103.333C35.6397 107.307 30.8965 108.516 27.0082 106.492C23.3754 104.6 20.9445 100.122 23.0138 96.149C24.8614 92.6013 29.1694 91.7421 32.5185 93.4862ZM26.5031 102.404L29.9471 95.7911C28.0774 94.6009 25.2216 94.196 23.9356 96.6652C22.6792 99.0776 24.6027 101.342 26.5031 102.404Z" fill="#474542"/>
<path d="M33.5677 87.7674L39.182 91.3427C41.7192 92.9585 41.8811 93.0616 43.2487 91.3907L44.0315 91.8892L40.2327 97.8543L39.45 97.3558C40.3685 95.4369 40.2065 95.3337 37.6693 93.718L31.8662 90.0224C30.384 89.1923 29.854 88.8927 28.8055 90.5392L28.1577 90.1267L29.1951 84.9828L32.3801 87.0111C31.7647 85.1776 30.8796 82.3377 32.0141 80.5562C32.5813 79.6655 33.7006 79.2781 34.6453 79.8797C35.482 80.4126 35.7958 81.4091 35.2286 82.2998C34.627 83.2445 33.7018 83.1485 33.1517 84.0122C32.5501 84.9569 33.1042 86.8273 33.5677 87.7674Z" fill="#474542"/>
<path d="M52.8603 80.7526L49.2596 83.4315C48.788 84.7245 47.9193 87.0044 49.2878 88.0594C50.9605 89.349 53.4317 86.4055 54.4282 85.113C55.3074 83.9725 57.2263 81.169 55.7818 80.0553C54.8441 79.3324 53.6354 80.2188 52.8603 80.7526ZM47.7613 81.549L49.7863 79.9181C51.5262 78.5523 54.2567 75.8491 56.5629 77.627C59.3506 79.7762 56.6908 83.9077 55.0496 86.0365C53.7796 87.6838 49.9761 92.1457 47.6699 90.3678C45.8705 88.9806 47.413 86.0888 47.9591 84.4895C47.1137 85.0095 45.2175 86.5781 44.1278 85.738C43.0634 84.9174 43.5355 83.0995 44.0166 82.0562C42.1759 82.819 40.1004 82.4715 38.5037 81.2406C35.7414 79.111 36.0225 75.2871 37.9958 72.7275C38.9141 71.5364 40.2654 70.5174 41.8304 70.2693C41.6795 69.1024 41.7181 67.6372 42.4996 66.6235C43.0857 65.8632 44.1043 65.7999 44.8646 66.3861C45.4728 66.855 45.7489 67.7547 45.28 68.3629C44.5571 69.3006 43.4652 68.6205 42.7814 69.5075C42.6446 69.6849 42.6288 69.9151 42.6382 70.1649C43.8696 69.9828 45.3712 70.6556 46.3342 71.398C49.0206 73.469 48.8155 77.3514 46.9398 79.7844C46.4514 80.4179 45.6408 81.2073 44.938 81.5948C44.8245 81.9517 44.6248 82.5251 45.005 82.8182C45.6893 83.3457 47.2829 81.9075 47.7613 81.549ZM44.5795 73.8837C43.1096 72.7505 40.2194 71.5729 38.7931 73.4229C37.3082 75.349 38.9406 77.7389 40.5373 78.9698C42.2099 80.2593 44.6968 80.9643 46.1816 79.0382C47.647 77.1375 46.1507 75.0951 44.5795 73.8837Z" fill="#474542"/>
<path d="M59.0044 59.6106L51.5908 67.5301C53.8803 69.6733 57.9019 72.1668 60.6355 69.2466C62.1007 67.6814 62.5047 65.5173 62.0961 63.4253L62.8416 63.378C63.5351 65.8681 63.149 68.575 61.3557 70.4906C58.2941 73.7612 53.4003 73.6511 50.1997 70.655C47.2095 67.8558 46.0721 62.89 49.1338 59.6194C51.8674 56.6992 56.2477 57.0301 59.0044 59.6106ZM50.8125 66.5823L55.9079 61.1391C54.4272 59.49 51.7854 58.332 49.8828 60.3644C48.024 62.3501 49.2676 65.0485 50.8125 66.5823Z" fill="#474542"/>
<path d="M62.1778 46.7645L67.0486 49.3963L66.7567 50.2195C64.2422 49.7718 61.252 49.3222 59.3267 51.0576C58.3997 51.8931 58.0274 53.3919 58.9058 54.3664C61.5196 57.2663 67.9977 49.4456 71.9184 53.7954C73.7609 55.8395 73.1806 59.1628 71.2791 60.8768C70.6849 61.4124 70.107 61.6316 69.4104 61.958C69.0394 62.12 68.6471 62.2583 68.3381 62.5368C67.8389 62.9867 67.5564 63.6291 67.4522 64.3261L62.3363 61.6137L62.6236 60.8808C64.8766 61.5642 68.932 61.5707 70.7147 59.9638C71.8081 58.9783 72.0565 57.2465 71.0496 56.1294C68.2858 53.0631 62.0933 61.0573 58.2154 56.755C56.3943 54.7346 57.0272 51.7086 58.9049 50.0161C59.7606 49.2448 60.9354 48.8752 61.6009 48.2753C62.0525 47.8683 62.1925 47.3544 62.1778 46.7645Z" fill="#474542"/>
<path d="M85.8962 45.1217L82.9275 40.8329C81.278 42.4417 79.2579 45.7081 80.7695 47.8919C81.6255 49.1286 83.0401 49.3169 84.0926 48.5884C85.0661 47.9146 85.7483 46.3138 85.8962 45.1217ZM82.3265 39.9646L81.1245 38.2281C80.2321 36.9388 78.9309 35.6211 77.3522 36.7139C76.0366 37.6245 76.0851 38.8752 76.5788 40.207C76.9065 41.1866 76.9105 41.9232 75.9633 42.5789C75.2266 43.0888 74.417 42.9876 73.9253 42.2771C72.4137 40.0933 74.9094 37.1204 76.6196 35.9366C77.7247 35.1717 79.1941 34.4271 80.5986 34.5446C82.0922 34.6783 82.8572 35.7834 83.6221 36.8885L87.7745 42.8876C88.2116 43.5191 89.0129 44.6768 89.8023 44.1304C90.2496 43.8208 90.3468 43.2865 90.4258 42.7259L91.1503 43.0417C91.1663 44.4705 90.978 45.8852 89.7413 46.7412C88.6626 47.4879 87.4746 47.0648 86.6773 46.1378C86.1408 47.9491 85.321 49.8008 83.7423 50.8936C81.9004 52.1685 79.7633 51.7797 78.4702 49.9115C76.0479 46.4121 80.007 42.3485 82.3265 39.9646ZM72.8335 30.5791L76.5652 33.3279L76.2818 33.8743L74.0212 33.0261C73.2805 32.7994 70.3885 31.8823 69.9696 31.2771C69.6418 30.8035 70.0143 30.2733 70.4089 30.0001C71.3825 29.3262 72.0159 30.0164 72.8335 30.5791Z" fill="#474542"/>
<path d="M97.5033 36.6808L90.6213 23.8136C89.3083 21.3587 88.9736 21.6829 86.8947 22.6133L86.457 21.795L90.4784 17.5757L99.9864 35.3527C101.405 38.0052 101.496 38.1745 103.563 37.3589L104.001 38.1772L97.6803 41.5578L97.2427 40.7395C99.0125 39.5026 98.922 39.3333 97.5033 36.6808Z" fill="#474542"/>
<path d="M98.3839 24.2215L97.7889 23.8678C98.2378 22.7305 98.9852 20.8826 98.4878 19.8436C98.2806 19.4106 97.9379 19.3618 97.4798 19.3682C96.5347 19.3949 95.7815 19.0814 95.3531 18.1866C94.8557 17.1475 95.3047 16.0102 96.2861 15.5404C97.7581 14.8358 99.099 15.9323 99.7069 17.2023C100.785 19.4537 99.6057 22.253 98.3839 24.2215Z" fill="#474542"/>
<path d="M108.205 16.6143L113.014 28.2001C114.376 31.4807 115.108 32.0775 117.502 31.0839L117.907 32.0592L109.395 35.592L108.99 34.6166C111.355 33.6353 111.45 32.6951 110.088 29.4145L105.279 17.8287C103.93 14.5775 103.185 13.9513 100.821 14.9326L100.416 13.9573L108.928 10.4245L109.333 11.3998C106.939 12.3934 106.856 13.3632 108.205 16.6143Z" fill="#474542"/>
<path d="M115.044 17.6304L112.834 18.3859L112.586 17.6591C114.505 15.9546 115.071 13.1573 114.557 10.7629L115.556 10.4213L117.367 15.7204L121.607 14.2714L121.948 15.2707L117.709 16.7196L120.845 25.8945C121.311 27.2571 121.842 29.3073 123.72 28.6657C124.901 28.262 125.369 27.2566 125.867 26.2409L126.589 26.6706C125.883 28.3659 124.783 30.0946 122.936 30.7259C120.271 31.6366 119.132 29.591 118.398 27.4411L115.044 17.6304Z" fill="#474542"/>
<path d="M133.825 23.9419L132.533 18.8885C130.427 19.8232 127.397 22.1832 128.055 24.7564C128.428 26.2136 129.688 26.8821 130.929 26.5651C132.076 26.2718 133.272 25.0082 133.825 23.9419ZM132.272 17.8654L131.749 15.8192C131.36 14.3 130.598 12.6121 128.738 13.0876C127.188 13.4839 126.799 14.6735 126.798 16.0938C126.765 17.1262 126.513 17.8183 125.396 18.1036C124.528 18.3255 123.805 17.9491 123.591 17.112C122.933 14.5387 126.306 12.6193 128.322 12.1042C129.624 11.7713 131.26 11.5841 132.536 12.1827C133.89 12.8275 134.223 14.1296 134.556 15.4317L136.363 22.5004C136.553 23.2445 136.902 24.6086 137.832 24.3709C138.359 24.2361 138.636 23.769 138.905 23.2708L139.475 23.8189C138.993 25.1641 138.324 26.425 136.867 26.7975C135.596 27.1224 134.629 26.3126 134.204 25.1662C133.071 26.6779 131.659 28.129 129.798 28.6045C127.628 29.1593 125.76 28.0516 125.197 25.8504C124.143 21.727 129.268 19.2938 132.272 17.8654Z" fill="#474542"/>
<path d="M140.395 21.3244L137.866 6.95321C137.384 4.21134 136.965 4.41504 134.699 4.65121L134.538 3.73726L139.674 0.981444L143.168 20.8364C143.69 23.7989 143.723 23.988 145.942 23.8574L146.103 24.7714L139.043 26.0136L138.882 25.0997C140.949 24.476 140.916 24.2869 140.395 21.3244Z" fill="#474542"/>
<path d="M148.965 8.10984L150.367 19.8665C150.723 22.8534 150.746 23.044 152.937 23.0406L153.047 23.9621L145.93 24.8108L145.816 23.8575C147.946 23.3457 147.92 23.1233 147.567 20.1682L146.757 13.3684C146.46 11.6957 146.357 11.0957 144.418 11.3269L144.327 10.5643L148.965 8.10984ZM148.611 2.70578C148.747 3.84967 147.908 4.91659 146.764 5.05299C145.588 5.19318 144.525 4.38538 144.385 3.2097C144.245 2.03403 145.053 0.970909 146.228 0.830718C147.404 0.690528 148.471 1.53011 148.611 2.70578Z" fill="#474542"/>
<path d="M166.626 14.5232L155.786 14.9244C155.902 18.0583 157.001 22.6608 160.998 22.5128C163.141 22.4335 164.952 21.1817 166.135 19.4087L166.697 19.9002C165.436 22.1564 163.256 23.8062 160.633 23.9033C156.156 24.069 152.76 20.5442 152.598 16.1632C152.446 12.07 155.136 7.74358 159.613 7.57786C163.61 7.42989 166.487 10.7497 166.626 14.5232ZM155.901 13.7034L163.352 13.4275C163.462 11.214 162.402 8.53133 159.62 8.63432C156.902 8.73494 155.884 11.5265 155.901 13.7034Z" fill="#474542"/>
<path d="M172.042 11.4614L171.442 19.2463C171.21 22.2454 171.196 22.4368 173.314 22.8569L173.242 23.7822L166.127 23.2335L166.199 22.3082C168.388 22.2203 168.403 22.0288 168.634 19.0298L169.163 12.1701C169.198 10.4718 169.213 9.8631 167.266 9.713L167.325 8.94728L172.352 7.44134L172.143 10.1533C173.456 8.93867 175.557 7.91319 177.344 8.05098C178.461 8.1371 179.543 8.6699 180.279 9.52904C181.241 10.7907 181.16 12.2608 181.044 13.7604L180.567 19.95C180.335 22.9491 180.32 23.1405 182.438 23.5606L182.367 24.4859L175.22 23.9347L175.292 23.0095C177.513 22.924 177.528 22.7326 177.759 19.7335L178.189 14.1501C178.337 12.2357 178.394 9.833 175.874 9.63862C174.47 9.53035 173.073 10.5781 172.042 11.4614Z" fill="#474542"/>
<path d="M188.52 13.3528L186.996 21.0107C186.41 23.9609 186.372 24.1492 188.425 24.8186L188.244 25.7288L181.245 24.3366L181.426 23.4264C183.61 23.5999 183.648 23.4116 184.234 20.4614L185.577 13.7135C185.813 12.0314 185.901 11.4288 183.986 11.048L184.136 10.2948L189.306 9.39823L188.776 12.066C190.224 11.0164 192.432 10.2485 194.19 10.5981C195.288 10.8166 196.3 11.4745 196.928 12.4152C197.733 13.7824 197.477 15.2324 197.184 16.7075L195.973 22.7962C195.386 25.7464 195.348 25.9347 197.401 26.6041L197.22 27.5142L190.19 26.1158L190.371 25.2057C192.586 25.3853 192.624 25.197 193.211 22.2468L194.303 16.7544C194.678 14.8713 195.02 12.4925 192.541 11.9993C191.16 11.7246 189.648 12.5985 188.52 13.3528Z" fill="#474542"/>
<path d="M212.666 23.2967L202.326 20.0166C201.377 23.0058 200.859 27.7092 204.672 28.9186C206.715 29.5669 208.843 28.9995 210.555 27.7298L210.918 28.3823C208.97 30.0806 206.36 30.8979 203.859 30.1044C199.589 28.7498 197.581 24.2857 198.906 20.1069C200.145 16.2026 204.137 13.0375 208.407 14.3921C212.22 15.6016 213.808 19.6974 212.666 23.2967ZM202.846 18.9058L209.953 21.1603C210.804 19.1137 210.711 16.2308 208.057 15.389C205.465 14.5665 203.565 16.8511 202.846 18.9058Z" fill="#474542"/>
</svg>
