<svg width="338" height="532" viewBox="0 0 338 532" fill="none" xmlns="http://www.w3.org/2000/svg">
<path d="M330.503 524.5V524.503M330.503 524.5H330.5M330.503 524.5L334.003 528M330.503 524.5H334.003C334.123 524.5 334.243 524.506 334.36 524.518M330.503 524.503V528C330.503 529.933 332.07 531.5 334.003 531.5M330.503 524.503L330.5 524.5M330.503 524.503L334 528M330.5 524.5V528C330.5 529.933 332.067 531.5 334 531.5H334.003M330.5 524.5H7.50254M330.5 524.5V7.5M334.003 531.5H337.5M334.36 524.518C336.125 524.697 337.503 526.188 337.503 528V531.5H337.5M334.36 524.518C336.124 524.698 337.5 526.189 337.5 528V531.5M334 7.5H334.003C335.936 7.5 337.503 5.933 337.503 4L337.502 0.5H337.5M334 7.5H330.503M334 7.5C335.933 7.5 337.5 5.933 337.5 4V0.5M330.503 7.5V7.49747M330.503 7.5H330.5M330.503 7.5L334.003 4M330.503 7.49747V4C330.503 2.067 332.07 0.5 334.003 0.5M330.503 7.49747L330.5 7.5M330.503 7.49747L334 4M330.5 7.5V4C330.5 2.067 332.067 0.5 334 0.5H334.003M330.5 7.5H7.50254M334.003 0.5H337.5M4.00255 524.5H7.5M4.00255 524.5C2.06955 524.5 0.502546 526.067 0.502546 528L0.502524 531.5M4.00255 524.5H4C2.067 524.5 0.5 526.067 0.5 528L0.500061 531.5H0.502524M7.5 524.5H7.50254M7.5 524.5V524.503M7.5 524.5L4 528M7.5 524.5V7.5M7.50254 524.5V528C7.50254 529.812 6.1253 531.303 4.3604 531.482M7.50254 524.5L7.5 524.503M4.3604 531.482C4.24274 531.494 4.12336 531.5 4.00255 531.5H0.502524M4.3604 531.482C6.12409 531.302 7.5 529.811 7.5 528V524.503M4.00255 7.5H7.5M4.00255 7.5C2.06955 7.5 0.502546 5.933 0.502546 4L0.50246 0.5M4.00255 7.5H4C2.067 7.5 0.5 5.933 0.5 4V0.5H0.50246M7.5 7.5H7.50254M7.5 7.5V7.49745M7.5 7.5L4 4M7.50254 7.5V4C7.50254 2.067 5.93554 0.5 4.00255 0.5H4M7.50254 7.5L7.5 7.49745M0.50246 0.5H4M4 0.5C5.933 0.5 7.5 2.067 7.5 4V7.49745M7.5 7.49745L4.00255 4M7.5 524.503L4.00255 528" stroke="#474542" stroke-linecap="round" stroke-linejoin="round"/>
</svg>
