<svg width="32" height="32" viewBox="0 0 32 32" fill="none" xmlns="http://www.w3.org/2000/svg">
<path d="M23.5027 16H23.4973M23.5027 16C27.6434 16 31 12.6421 31 8.5L30.9999 1H30.9946M23.5027 16C27.6434 16 31 19.3579 31 23.5L30.9999 31H30.9946M23.4973 16H16.0054M23.4973 16C27.6379 16 30.9946 12.6421 30.9946 8.5V1M23.4973 16C27.6379 16 30.9946 19.3579 30.9946 23.5V31M16.0054 16V15.9946M16.0054 16H16M16.0054 16L23.5027 8.5M16.0054 16V16.0054M16.0054 16L23.5027 23.5M16.0054 15.9946V8.5C16.0054 4.35786 19.3621 1 23.5027 1M16.0054 15.9946L16 16M16.0054 15.9946L23.4973 8.5M16 16V8.5M16 16H15.9946M16 16L15.9946 15.9946M16 16V23.5M16 16L16.0054 16.0054M16 16L15.9946 16.0054M23.5027 1H30.9946M23.5027 1H23.4973C19.3566 1 16 4.35786 16 8.5M16 8.5C16 4.35786 12.6434 1 8.50271 1H8.49729M8.49729 16H8.50271M8.49729 16C4.35665 16 1 12.6421 1 8.5L1.00013 1H1.00543M8.49729 16C4.35665 16 1 19.3579 1 23.5L1.00013 31H1.00543M8.50271 16H15.9946M8.50271 16C4.36207 16 1.00543 12.6421 1.00543 8.5V1M8.50271 16C4.36207 16 1.00543 19.3579 1.00543 23.5V31M15.9946 16V15.9946M15.9946 16L8.49729 8.5M15.9946 16V16.0054M15.9946 16L8.49729 23.5M15.9946 15.9946V8.5C15.9946 4.35786 12.6379 1 8.49729 1M15.9946 15.9946L8.50271 8.5M8.49729 1H1.00543M16.0054 16.0054V23.5C16.0054 27.6421 19.3621 31 23.5027 31M16.0054 16.0054L23.4973 23.5M23.5027 31H30.9946M23.5027 31H23.4973C19.3566 31 16 27.6421 16 23.5M16 23.5C16 27.6421 12.6434 31 8.50271 31H8.49729M15.9946 16.0054V23.5C15.9946 27.6421 12.6379 31 8.49729 31M15.9946 16.0054L8.50271 23.5M8.49729 31H1.00543" stroke="#474542" stroke-linecap="round" stroke-linejoin="round"/>
</svg>
