<svg width="188" height="188" viewBox="0 0 188 188" fill="none" xmlns="http://www.w3.org/2000/svg">
<path d="M94 94L149 39L113 94H94L149 149L94 113L94 94L39 149L75 94H94L39 39L93.9999 75L94 94Z" fill="#A3C3CE"/>
<path d="M94 94L149 39L113 94H94ZM94 94L93.9999 75L39 39L94 94ZM94 94L149 149L94 113L94 94ZM94 94L39 149L75 94H94Z" stroke="#A3C3CE" stroke-linecap="round" stroke-linejoin="round"/>
<path d="M94 94L39 39L75 94H94L39.0001 149L94 113L94 94L149 149L113 94H94L149 39L94.0001 75L94 94Z" fill="#FBF3E8"/>
<path d="M94 94L39 39L75 94H94ZM94 94L94.0001 75L149 39L94 94ZM94 94L39.0001 149L94 113L94 94ZM94 94L149 149L113 94H94Z" stroke="#A3C3CE" stroke-linecap="round" stroke-linejoin="round"/>
<path d="M94 94V1L107 81L94 94H187L107 107L94 94L94 187L81 107L94 94L1 94L81 81L94 94Z" fill="#D5A654"/>
<path d="M94 94V1L107 81L94 94ZM94 94L81 81L1 94L94 94ZM94 94L107 107L187 94H94ZM94 94L81 107L94 187L94 94ZM94 94L93.9999 75" stroke="#D5A654" stroke-linecap="round" stroke-linejoin="round"/>
<path d="M94 94V1L81 81L94 94H1L81 107L94 94L94 187L107 107L94 94L187 94L107 81L94 94Z" fill="#FBF3E8"/>
<path d="M94 94V1L81 81L94 94ZM94 94L107 81L187 94L94 94ZM94 94L81 107L1 94H94ZM94 94L107 107L94 187L94 94ZM94 94L94.0001 75" stroke="#D5A654" stroke-linecap="round" stroke-linejoin="round"/>
</svg>
