<svg width="1512" height="642" viewBox="0 0 1512 642" fill="none" xmlns="http://www.w3.org/2000/svg">
<path d="M625 141V101M625 141H635M625 141C620.53 141 616.129 140.707 611.814 140.138M525 41H565M525 41V31M525 41C525 45.4702 525.293 49.8719 525.862 54.1869M625 101H635M625 101C622.322 101 619.685 100.825 617.1 100.485M565 41V31M565 41C565 43.7223 565.181 46.4023 565.532 49.0286M1255 101H1245M1255 101V141M1255 101C1259.47 101 1263.87 101.293 1268.19 101.862M1355 201V211M1355 201H1315M1355 201C1355 196.53 1354.71 192.128 1354.14 187.813M1255 141H1245M1255 141C1257.68 141 1260.31 141.175 1262.9 141.515M1315 201V211M1315 201C1315 198.278 1314.82 195.598 1314.47 192.971M1415 611H1425M1415 611V571M1415 611C1410.53 611 1406.13 610.707 1401.81 610.138M1315 511V501M1315 511H1355M1315 511C1315 515.47 1315.29 519.872 1315.86 524.187M1415 571H1425M1415 571C1412.32 571 1409.69 570.825 1407.1 570.485M1355 511V501M1355 511C1355 513.722 1355.18 516.402 1355.53 519.029M1465 571H1455M1465 571V611M1465 571C1469.47 571 1473.87 571.293 1478.19 571.862M1465 611H1455M1465 611C1467.68 611 1470.31 611.175 1472.9 611.515M1425 571H1435M1425 571V611M1435 571H1445M1435 571V611M1445 571H1455M1445 571V611M1455 571V611M1425 611H1435M1435 611H1445M1445 611H1455M1355 211V221M1355 211H1315M1355 221V231M1355 221H1315M1355 231V241M1355 231H1315M1355 241V251M1355 241H1315M1355 251V261M1355 251H1315M1355 261V271M1355 261H1315M1355 271V281M1355 271H1315M1355 281V291M1355 281H1315M1355 291V301M1355 291H1315M1355 301V311M1355 301H1315M1355 311V321M1355 311H1315M1355 321V331M1355 321H1315M1355 331V341M1355 331H1315M1355 341V351M1355 341H1315M1355 351V361M1355 351H1315M1355 361V371M1355 361H1315M1355 371V381M1355 371H1315M1355 381V391M1355 381H1315M1355 391V401M1355 391H1315M1355 401V411M1355 401H1315M1355 411V421M1355 411H1315M1355 421V431M1355 421H1315M1355 431V441M1355 431H1315M1355 441V451M1355 441H1315M1355 451V461M1355 451H1315M1355 461V471M1355 461H1315M1355 471V481M1355 471H1315M1355 481V491M1355 481H1315M1355 491V501M1355 491H1315M1355 501H1315M1315 211V221M1315 221V231M1315 231V241M1315 241V251M1315 251V261M1315 261V271M1315 271V281M1315 281V291M1315 291V301M1315 301V311M1315 311V321M1315 321V331M1315 331V341M1315 341V351M1315 351V361M1315 361V371M1315 371V381M1315 381V391M1315 391V401M1315 401V411M1315 411V421M1315 421V431M1315 431V441M1315 441V451M1315 451V461M1315 461V471M1315 471V481M1315 481V491M1315 491V501M635 101H645M635 101V141M645 101H655M645 101V141M655 101H665M655 101V141M665 101H675M665 101V141M675 101H685M675 101V141M685 101H695M685 101V141M695 101H705M695 101V141M705 101H715M705 101V141M715 101H725M715 101V141M725 101H735M725 101V141M735 101H745M735 101V141M745 101H755M745 101V141M755 101H765M755 101V141M765 101H775M765 101V141M775 101H785M775 101V141M785 101H795M785 101V141M795 101H805M795 101V141M805 101H815M805 101V141M815 101H825M815 101V141M825 101H835M825 101V141M835 101H845M835 101V141M845 101H855M845 101V141M855 101H865M855 101V141M865 101H875M865 101V141M875 101H885M875 101V141M885 101H895M885 101V141M895 101H905M895 101V141M905 101H915M905 101V141M915 101H925M915 101V141M925 101H935M925 101V141M935 101H945M935 101V141M945 101H955M945 101V141M955 101H965M955 101V141M965 101H975M965 101V141M975 101H985M975 101V141M985 101H995M985 101V141M995 101H1005M995 101V141M1005 101H1015M1005 101V141M1015 101H1025M1015 101V141M1025 101H1035M1025 101V141M1035 101H1045M1035 101V141M1045 101H1055M1045 101V141M1055 101H1065M1055 101V141M1065 101H1075M1065 101V141M1075 101H1085M1075 101V141M1085 101H1095M1085 101V141M1095 101H1105M1095 101V141M1105 101H1115M1105 101V141M1115 101H1125M1115 101V141M1125 101H1135M1125 101V141M1135 101H1145M1135 101V141M1145 101H1155M1145 101V141M1155 101H1165M1155 101V141M1165 101H1175M1165 101V141M1175 101H1185M1175 101V141M1185 101H1195M1185 101V141M1195 101H1205M1195 101V141M1205 101H1215M1205 101V141M1215 101H1225M1215 101V141M1225 101H1235M1225 101V141M1235 101H1245M1235 101V141M1245 101V141M635 141H645M645 141H655M655 141H665M665 141H675M675 141H685M685 141H695M695 141H705M705 141H715M715 141H725M725 141H735M735 141H745M745 141H755M755 141H765M765 141H775M775 141H785M785 141H795M795 141H805M805 141H815M815 141H825M825 141H835M835 141H845M845 141H855M855 141H865M865 141H875M875 141H885M885 141H895M895 141H905M905 141H915M915 141H925M925 141H935M935 141H945M945 141H955M955 141H965M965 141H975M975 141H985M985 141H995M995 141H1005M1005 141H1015M1015 141H1025M1025 141H1035M1035 141H1045M1045 141H1055M1055 141H1065M1065 141H1075M1075 141H1085M1085 141H1095M1095 141H1105M1105 141H1115M1115 141H1125M1125 141H1135M1135 141H1145M1145 141H1155M1155 141H1165M1165 141H1175M1175 141H1185M1185 141H1195M1195 141H1205M1205 141H1215M1215 141H1225M1225 141H1235M1235 141H1245M525 31V21M525 31H565M525 21V11M525 21H565M525 11V1H565V11M525 11H565M565 31V21M565 21V11M525.862 54.1869C526.425 58.4649 527.259 62.6576 528.346 66.7474M525.862 54.1869L565.532 49.0286M528.346 66.7474C529.497 71.0807 530.932 75.2985 532.63 79.3795M528.346 66.7474L567.024 56.5114M532.63 79.3795C534.336 83.4819 536.308 87.4463 538.524 91.251M532.63 79.3795L569.662 64.2295M538.524 91.251C540.685 94.9613 543.077 98.5199 545.682 101.907M538.524 91.251L573.28 71.4325M545.682 101.907C548.384 105.42 551.314 108.749 554.45 111.871M545.682 101.907L577.564 77.7448M554.45 111.871C557.564 114.971 560.882 117.868 564.381 120.539M554.45 111.871L582.911 83.7607M564.381 120.539C567.738 123.101 571.262 125.456 574.934 127.584M564.381 120.539L588.925 88.9478M574.934 127.584C578.711 129.772 582.645 131.721 586.714 133.409M574.934 127.584L595.124 93.0449M586.714 133.409C590.773 135.093 594.967 136.517 599.275 137.66M586.714 133.409L602.161 96.5002M599.275 137.66C603.358 138.744 607.544 139.576 611.814 140.138M599.275 137.66L609.751 99.0452M611.814 140.138L617.1 100.485M617.1 100.485C614.599 100.156 612.146 99.6725 609.751 99.0452M609.751 99.0452C607.148 98.3631 604.614 97.5106 602.161 96.5002M602.161 96.5002C599.731 95.4992 597.382 94.3433 595.124 93.0449M595.124 93.0449C592.97 91.8055 590.9 90.4363 588.925 88.9478M588.925 88.9478C586.806 87.3515 584.797 85.6181 582.911 83.7607M582.911 83.7607C580.998 81.8781 579.211 79.8683 577.564 77.7448M577.564 77.7448C576.008 75.7382 574.576 73.6303 573.28 71.4325M573.28 71.4325C571.919 69.1259 570.709 66.7205 569.662 64.2295M569.662 64.2295C568.615 61.7379 567.731 59.1608 567.024 56.5114M567.024 56.5114C566.374 54.0747 565.873 51.577 565.532 49.0286M1354.14 187.813C1353.57 183.535 1352.74 179.342 1351.65 175.253M1354.14 187.813L1314.47 192.971M1351.65 175.253C1350.5 170.919 1349.07 166.702 1347.37 162.62M1351.65 175.253L1312.98 185.489M1347.37 162.62C1345.66 158.518 1343.69 154.554 1341.48 150.749M1347.37 162.62L1310.34 177.771M1341.48 150.749C1339.32 147.039 1336.92 143.48 1334.32 140.093M1341.48 150.749L1306.72 170.568M1334.32 140.093C1331.62 136.58 1328.69 133.251 1325.55 130.129M1334.32 140.093L1302.44 164.255M1325.55 130.129C1322.44 127.029 1319.12 124.132 1315.62 121.461M1325.55 130.129L1297.09 158.239M1315.62 121.461C1312.26 118.899 1308.74 116.544 1305.07 114.416M1315.62 121.461L1291.08 153.052M1305.07 114.416C1301.29 112.228 1297.36 110.279 1293.29 108.591M1305.07 114.416L1284.88 148.955M1293.29 108.591C1289.23 106.908 1285.03 105.483 1280.72 104.34M1293.29 108.591L1277.84 145.5M1280.72 104.34C1276.64 103.256 1272.46 102.424 1268.19 101.862M1280.72 104.34L1270.25 142.955M1268.19 101.862L1262.9 141.515M1262.9 141.515C1265.4 141.844 1267.85 142.327 1270.25 142.955M1270.25 142.955C1272.85 143.637 1275.39 144.489 1277.84 145.5M1277.84 145.5C1280.27 146.501 1282.62 147.657 1284.88 148.955M1284.88 148.955C1287.03 150.194 1289.1 151.564 1291.08 153.052M1291.08 153.052C1293.19 154.649 1295.2 156.382 1297.09 158.239M1297.09 158.239C1299 160.122 1300.79 162.132 1302.44 164.255M1302.44 164.255C1303.99 166.262 1305.42 168.37 1306.72 170.568M1306.72 170.568C1308.08 172.874 1309.29 175.28 1310.34 177.771M1310.34 177.771C1311.38 180.262 1312.27 182.839 1312.98 185.489M1312.98 185.489C1313.63 187.925 1314.13 190.423 1314.47 192.971M1315.86 524.187C1316.43 528.465 1317.26 532.658 1318.35 536.747M1315.86 524.187L1355.53 519.029M1318.35 536.747C1319.5 541.081 1320.93 545.298 1322.63 549.38M1318.35 536.747L1357.02 526.511M1322.63 549.38C1324.34 553.482 1326.31 557.446 1328.52 561.251M1322.63 549.38L1359.66 534.229M1328.52 561.251C1330.68 564.961 1333.08 568.52 1335.68 571.907M1328.52 561.251L1363.28 541.432M1335.68 571.907C1338.38 575.42 1341.31 578.749 1344.45 581.871M1335.68 571.907L1367.56 547.745M1344.45 581.871C1347.56 584.971 1350.88 587.868 1354.38 590.539M1344.45 581.871L1372.91 553.761M1354.38 590.539C1357.74 593.101 1361.26 595.456 1364.93 597.584M1354.38 590.539L1378.92 558.948M1364.93 597.584C1368.71 599.772 1372.64 601.721 1376.71 603.409M1364.93 597.584L1385.12 563.045M1376.71 603.409C1380.77 605.092 1384.97 606.517 1389.28 607.66M1376.71 603.409L1392.16 566.5M1389.28 607.66C1393.36 608.744 1397.54 609.576 1401.81 610.138M1389.28 607.66L1399.75 569.045M1401.81 610.138L1407.1 570.485M1407.1 570.485C1404.6 570.156 1402.15 569.672 1399.75 569.045M1399.75 569.045C1397.15 568.363 1394.61 567.511 1392.16 566.5M1392.16 566.5C1389.73 565.499 1387.38 564.343 1385.12 563.045M1385.12 563.045C1382.97 561.806 1380.9 560.436 1378.92 558.948M1378.92 558.948C1376.81 557.351 1374.8 555.618 1372.91 553.761M1372.91 553.761C1371 551.878 1369.21 549.868 1367.56 547.745M1367.56 547.745C1366.01 545.738 1364.58 543.63 1363.28 541.432M1363.28 541.432C1361.92 539.126 1360.71 536.72 1359.66 534.229M1359.66 534.229C1358.62 531.738 1357.73 529.161 1357.02 526.511M1357.02 526.511C1356.37 524.075 1355.87 521.577 1355.53 519.029M1515.07 584.416C1511.29 582.228 1507.36 580.279 1503.29 578.591M1515.07 584.416L1494.88 618.955M1515.07 584.416C1515.62 584.738 1516.17 585.065 1516.72 585.397V602.915M1503.29 578.591C1499.23 576.908 1495.03 575.483 1490.72 574.34M1503.29 578.591L1487.84 615.5M1490.72 574.34C1486.64 573.256 1482.46 572.424 1478.19 571.862M1490.72 574.34L1480.25 612.955M1478.19 571.862L1472.9 611.515M1472.9 611.515C1475.4 611.844 1477.85 612.328 1480.25 612.955M1480.25 612.955C1482.85 613.637 1485.39 614.489 1487.84 615.5M1487.84 615.5C1490.27 616.501 1492.62 617.657 1494.88 618.955M1494.88 618.955C1497.03 620.194 1499.1 621.564 1501.08 623.052M1501.08 623.052C1503.19 624.649 1505.2 626.382 1507.09 628.239M1501.08 623.052L1516.72 602.915M1507.09 628.239C1509 630.122 1510.79 632.132 1512.44 634.255M1507.09 628.239L1516.72 618.727M1512.44 634.255C1513.99 636.262 1515.42 638.37 1516.72 640.568V631.008M1512.44 634.255L1516.72 631.008M1516.72 602.915V618.727M1516.72 618.727V631.008" stroke="#A3C3CE" stroke-width="2" stroke-linecap="round" stroke-linejoin="round"/>
<path d="M319 111V71M319 111H309M319 111C323.47 111 327.871 110.707 332.186 110.138M419 11H379M419 11V1H379V11M419 11C419 15.4702 418.707 19.8719 418.138 24.1869M319 71H309M319 71C321.678 71 324.315 70.8246 326.9 70.4846M379 11C379 13.7223 378.819 16.4023 378.468 19.0286M299 71H309M299 71V111M299 71C294.53 71 290.129 71.2933 285.814 71.8616M199 171V181M199 171H239M199 171C199 166.53 199.293 162.128 199.862 157.813M299 111H309M299 111C296.322 111 293.685 111.175 291.1 111.515M239 171V181M239 171C239 168.278 239.181 165.598 239.532 162.971M139 371H129M139 371V331M139 371C143.47 371 147.871 370.707 152.186 370.138M239 271V261M239 271H199M239 271C239 275.47 238.707 279.872 238.138 284.187M139 331H129M139 331C141.678 331 144.315 330.825 146.9 330.485M199 271V261M199 271C199 273.722 198.819 276.402 198.468 279.029M129 331H119M129 331V371M119 331H109M119 331V371M109 331H99M109 331V371M99 331V371M99 331H-1V371H99M129 371H119M119 371H109M109 371H99M199 181V191M199 181H239M199 191V201M199 191H239M199 201V211M199 201H239M199 211V221M199 211H239M199 221V231M199 221H239M199 231V241M199 231H239M199 241V251M199 241H239M199 251V261M199 251H239M199 261H239M239 181V191M239 191V201M239 201V211M239 211V221M239 221V231M239 231V241M239 241V251M239 251V261M309 71V111M418.138 24.1869C417.575 28.4649 416.741 32.6576 415.654 36.7474M418.138 24.1869L378.468 19.0286M415.654 36.7474C414.503 41.0807 413.068 45.2985 411.37 49.3795M415.654 36.7474L376.976 26.5114M411.37 49.3795C409.664 53.4819 407.692 57.4463 405.476 61.251M411.37 49.3795L374.338 34.2295M405.476 61.251C403.315 64.9613 400.923 68.5199 398.318 71.907M405.476 61.251L370.72 41.4325M398.318 71.907C395.616 75.4201 392.686 78.7487 389.55 81.8705M398.318 71.907L366.436 47.7448M389.55 81.8705C386.436 84.9712 383.118 87.8678 379.619 90.5388M389.55 81.8705L361.089 53.7607M379.619 90.5388C376.262 93.1012 372.738 95.4559 369.066 97.5837M379.619 90.5388L355.075 58.9478M369.066 97.5837C365.289 99.7724 361.355 101.721 357.286 103.409M369.066 97.5837L348.876 63.0449M357.286 103.409C353.227 105.093 349.033 106.517 344.725 107.66M357.286 103.409L341.839 66.5002M344.725 107.66C340.642 108.744 336.456 109.576 332.186 110.138M344.725 107.66L334.249 69.0452M332.186 110.138L326.9 70.4846M326.9 70.4846C329.401 70.1556 331.854 69.6725 334.249 69.0452M334.249 69.0452C336.852 68.3631 339.386 67.5106 341.839 66.5002M341.839 66.5002C344.269 65.4992 346.618 64.3433 348.876 63.0449M348.876 63.0449C351.03 61.8055 353.1 60.4363 355.075 58.9478M355.075 58.9478C357.193 57.3515 359.203 55.6181 361.089 53.7607M361.089 53.7607C363.002 51.8781 364.789 49.8683 366.436 47.7448M366.436 47.7448C367.992 45.7382 369.424 43.6303 370.72 41.4325M370.72 41.4325C372.081 39.1259 373.291 36.7205 374.338 34.2295M374.338 34.2295C375.385 31.7379 376.269 29.1608 376.976 26.5114M376.976 26.5114C377.626 24.0747 378.127 21.577 378.468 19.0286M199.862 157.813C200.425 153.535 201.259 149.342 202.346 145.253M199.862 157.813L239.532 162.971M202.346 145.253C203.497 140.919 204.932 136.702 206.63 132.62M202.346 145.253L241.024 155.489M206.63 132.62C208.336 128.518 210.308 124.554 212.524 120.749M206.63 132.62L243.662 147.771M212.524 120.749C214.685 117.039 217.077 113.48 219.682 110.093M212.524 120.749L247.28 140.568M219.682 110.093C222.384 106.58 225.314 103.251 228.45 100.129M219.682 110.093L251.564 134.255M228.45 100.129C231.564 97.0288 234.882 94.1322 238.381 91.4612M228.45 100.129L256.911 128.239M238.381 91.4612C241.738 88.8988 245.262 86.5441 248.934 84.4163M238.381 91.4612L262.925 123.052M248.934 84.4163C252.711 82.2276 256.645 80.2789 260.714 78.5912M248.934 84.4163L269.124 118.955M260.714 78.5912C264.773 76.9075 268.967 75.4835 273.275 74.3399M260.714 78.5912L276.161 115.5M273.275 74.3399C277.358 73.2561 281.544 72.4241 285.814 71.8616M273.275 74.3399L283.751 112.955M285.814 71.8616L291.1 111.515M291.1 111.515C288.599 111.844 286.146 112.327 283.751 112.955M283.751 112.955C281.148 113.637 278.614 114.489 276.161 115.5M276.161 115.5C273.731 116.501 271.382 117.657 269.124 118.955M269.124 118.955C266.97 120.194 264.9 121.564 262.925 123.052M262.925 123.052C260.807 124.649 258.797 126.382 256.911 128.239M256.911 128.239C254.998 130.122 253.211 132.132 251.564 134.255M251.564 134.255C250.008 136.262 248.576 138.37 247.28 140.568M247.28 140.568C245.919 142.874 244.709 145.28 243.662 147.771M243.662 147.771C242.615 150.262 241.731 152.839 241.024 155.489M241.024 155.489C240.374 157.925 239.873 160.423 239.532 162.971M238.138 284.187C237.575 288.465 236.741 292.658 235.654 296.747M238.138 284.187L198.468 279.029M235.654 296.747C234.503 301.081 233.068 305.298 231.37 309.38M235.654 296.747L196.976 286.511M231.37 309.38C229.664 313.482 227.692 317.446 225.476 321.251M231.37 309.38L194.338 294.229M225.476 321.251C223.315 324.961 220.923 328.52 218.318 331.907M225.476 321.251L190.72 301.432M218.318 331.907C215.616 335.42 212.686 338.749 209.55 341.871M218.318 331.907L186.436 307.745M209.55 341.871C206.436 344.971 203.118 347.868 199.619 350.539M209.55 341.871L181.089 313.761M199.619 350.539C196.262 353.101 192.738 355.456 189.066 357.584M199.619 350.539L175.075 318.948M189.066 357.584C185.289 359.772 181.355 361.721 177.286 363.409M189.066 357.584L168.876 323.045M177.286 363.409C173.227 365.092 169.033 366.517 164.725 367.66M177.286 363.409L161.839 326.5M164.725 367.66C160.642 368.744 156.456 369.576 152.186 370.138M164.725 367.66L154.249 329.045M152.186 370.138L146.9 330.485M146.9 330.485C149.401 330.156 151.854 329.672 154.249 329.045M154.249 329.045C156.852 328.363 159.386 327.511 161.839 326.5M161.839 326.5C164.269 325.499 166.618 324.343 168.876 323.045M168.876 323.045C171.03 321.806 173.1 320.436 175.075 318.948M175.075 318.948C177.193 317.351 179.203 315.618 181.089 313.761M181.089 313.761C183.002 311.878 184.789 309.868 186.436 307.745M186.436 307.745C187.992 305.738 189.424 303.63 190.72 301.432M190.72 301.432C192.081 299.126 193.291 296.72 194.338 294.229M194.338 294.229C195.385 291.738 196.269 289.161 196.976 286.511M196.976 286.511C197.626 284.075 198.127 281.577 198.468 279.029M89 331V371M79 331V371M69 331V371M59 331V371M49 331V371M39 331V371M29 331V371M19 331V371M9 331V371" stroke="#D5A654" stroke-width="2" stroke-linecap="round" stroke-linejoin="round"/>
</svg>
