<svg width="125" height="43" viewBox="0 0 125 43" fill="none" xmlns="http://www.w3.org/2000/svg">
<path d="M11 41.5H1V1.5H11M11 41.5H21M11 41.5V1.5M21 41.5H31M21 41.5V1.5M31 41.5H41M31 41.5V1.5M41 41.5H51M41 41.5H71M41 41.5H111M41 41.5H81M41 41.5V1.5M51 41.5H61M51 41.5V1.5M61 41.5H71M61 41.5V1.5M71 41.5H81M71 41.5V1.5M81 41.5H91M81 41.5V1.5M91 41.5H101M91 41.5V1.5M101 41.5H111M101 41.5V1.5M111 41.5H121M111 41.5V1.5M121 41.5H131V1.5H121M121 41.5V1.5M11 1.5H21M21 1.5H31M31 1.5H41M41 1.5H51M41 1.5H71M41 1.5H111M41 1.5H81M51 1.5H61M61 1.5H71M71 1.5H81M81 1.5H91M91 1.5H101M101 1.5H111M111 1.5H121" stroke="#A3C3CE" stroke-width="2" stroke-linecap="round" stroke-linejoin="round"/>
</svg>
