<svg width="194" height="362" viewBox="0 0 194 362" fill="none" xmlns="http://www.w3.org/2000/svg">
<path d="M93 181V221M93 181C97.4698 181 101.871 181.293 106.186 181.862M93 181C90.3221 181 87.6852 180.825 85.1001 180.485M193 281H153M193 281V291M193 281C193 276.53 192.707 272.128 192.138 267.813M93 221C95.6779 221 98.3148 221.175 100.9 221.515M93 221C88.5302 221 84.1289 220.707 79.8143 220.138M153 281V291M153 281C153 278.278 152.819 275.598 152.468 272.971M-7 121V111M-7 121H33M-7 121C-7 125.47 -6.70667 129.872 -6.13824 134.187M33 121V111M33 121C33 123.722 33.1813 126.402 33.5325 129.029M33 81V91M33 81H-7M33 81C33 76.5298 32.7067 72.1281 32.1382 67.8131M-7 81V91M-7 81V72.9022M-7 111V101M-7 111H33M-7 101V91M-7 101H33M-7 91H33M33 111V101M33 101V91M193 291V301M193 291H153M193 301V311M193 301H153M193 311V321M193 311H153M193 321V331M193 321H153M193 331V341M193 331H153M193 341V351M193 341H153M193 351V361M193 351H153M153 291V301M153 301V311M153 311V321M153 321V331M153 331V341M153 341V351M153 351V361M192.138 267.813C191.575 263.535 190.741 259.342 189.654 255.253M192.138 267.813L152.468 272.971M189.654 255.253C188.503 250.919 187.068 246.702 185.37 242.62M189.654 255.253L150.976 265.489M185.37 242.62C183.664 238.518 181.692 234.554 179.476 230.749M185.37 242.62L148.338 257.771M179.476 230.749C177.315 227.039 174.923 223.48 172.318 220.093M179.476 230.749L144.72 250.568M172.318 220.093C169.616 216.58 166.686 213.251 163.55 210.129M172.318 220.093L140.436 244.255M163.55 210.129C160.436 207.029 157.118 204.132 153.619 201.461M163.55 210.129L135.089 238.239M153.619 201.461C150.262 198.899 146.738 196.544 143.066 194.416M153.619 201.461L129.075 233.052M143.066 194.416C139.289 192.228 135.355 190.279 131.286 188.591M143.066 194.416L122.876 228.955M131.286 188.591C127.227 186.907 123.033 185.483 118.725 184.34M131.286 188.591L115.839 225.5M118.725 184.34C114.642 183.256 110.456 182.424 106.186 181.862M118.725 184.34L108.249 222.955M106.186 181.862L100.9 221.515M100.9 221.515C103.401 221.844 105.854 222.328 108.249 222.955M108.249 222.955C110.852 223.637 113.386 224.489 115.839 225.5M115.839 225.5C118.269 226.501 120.618 227.657 122.876 228.955M122.876 228.955C125.03 230.194 127.1 231.564 129.075 233.052M129.075 233.052C131.193 234.648 133.203 236.382 135.089 238.239M135.089 238.239C137.002 240.122 138.789 242.132 140.436 244.255M140.436 244.255C141.992 246.262 143.424 248.37 144.72 250.568M144.72 250.568C146.081 252.874 147.291 255.28 148.338 257.771M148.338 257.771C149.385 260.262 150.269 262.839 150.976 265.489M150.976 265.489C151.626 267.925 152.127 270.423 152.468 272.971M-6.13824 134.187C-5.57469 138.465 -4.74077 142.658 -3.65411 146.747M-6.13824 134.187L33.5325 129.029M-3.65411 146.747C-2.50276 151.081 -1.06772 155.298 0.629883 159.38M-3.65411 146.747L35.0243 136.511M0.629883 159.38C2.33637 163.482 4.3082 167.446 6.52393 171.251M0.629883 159.38L37.6623 144.229M6.52393 171.251C8.68463 174.961 11.0773 178.52 13.682 181.907M6.52393 171.251L41.2795 151.432M13.682 181.907C16.3837 185.42 19.3136 188.749 22.4495 191.871M13.682 181.907L45.5641 157.745M22.4495 191.871C25.5641 194.971 28.882 197.868 32.3813 200.539M22.4495 191.871L50.9106 163.761M32.3813 200.539C35.7383 203.101 39.2624 205.456 42.9343 207.584M32.3813 200.539L56.9248 168.948M42.9343 207.584C46.7113 209.772 50.6447 211.721 54.7137 213.409M42.9343 207.584L63.1245 173.045M54.7137 213.409C58.7729 215.092 62.967 216.517 67.2754 217.66M54.7137 213.409L70.161 176.5M67.2754 217.66C71.3584 218.744 75.5439 219.576 79.8143 220.138M67.2754 217.66L77.7515 179.045M79.8143 220.138L85.1001 180.485M85.1001 180.485C82.5987 180.156 80.1459 179.672 77.7515 179.045M77.7515 179.045C75.1481 178.363 72.6137 177.511 70.161 176.5M70.161 176.5C67.7313 175.499 65.3816 174.343 63.1245 173.045M63.1245 173.045C60.9701 171.806 58.9 170.436 56.9248 168.948M56.9248 168.948C54.8065 167.351 52.7974 165.618 50.9106 163.761M50.9106 163.761C48.9982 161.878 47.2114 159.868 45.5641 157.745M45.5641 157.745C44.0076 155.738 42.5755 153.63 41.2795 151.432M41.2795 151.432C39.9194 149.126 38.7092 146.72 37.6623 144.229M37.6623 144.229C36.6151 141.738 35.7313 139.161 35.0243 136.511M35.0243 136.511C34.374 134.075 33.8733 131.577 33.5325 129.029M32.1382 67.8131C31.5747 63.5351 30.7408 59.3424 29.6541 55.2526M32.1382 67.8131L-7 72.9022M29.6541 55.2526C28.5028 50.9192 27.0677 46.7016 25.3701 42.6205M29.6541 55.2526L-7 64.9528M25.3701 42.6205C23.6636 38.5181 21.6918 34.5537 19.4761 30.749M25.3701 42.6205L-7 55.8632M19.4761 30.749C17.3154 27.0387 14.9227 23.48 12.318 20.093M19.4761 30.749L-7 45.8463M12.318 20.093C9.61626 16.5798 6.68638 13.2513 3.55048 10.1295M12.318 20.093L-7 34.7334M3.55048 10.1295C0.435871 7.02883 -2.88198 4.13217 -6.38129 1.46118M3.55048 10.1295L-7 20.5497M-6.38129 1.46118C-6.5869 1.30424 -6.79314 1.14806 -7 0.992676V2.25757M-6.38129 1.46118L-7 2.25757M-7 20.5497V2.25757M-7 20.5497V34.7334M-7 2.25757V34.7334M-7 34.7334V45.8463M-7 45.8463V55.8632M-7 55.8632V64.9528M-7 64.9528V72.9022" stroke="#D5A654" stroke-width="2" stroke-linecap="round" stroke-linejoin="round"/>
</svg>
