<svg width="420" height="382" viewBox="0 0 420 382" fill="none" xmlns="http://www.w3.org/2000/svg">
<path d="M319 121V81M319 121H309M319 121C323.47 121 327.871 120.707 332.186 120.138M419 21H379M419 21V11M419 21C419 25.4702 418.707 29.8719 418.138 34.1869M319 81H309M319 81C321.678 81 324.315 80.8246 326.9 80.4846M379 21V11M379 21C379 23.7223 378.819 26.4023 378.468 29.0286M299 81H309M299 81V121M299 81C294.53 81 290.129 81.2933 285.814 81.8616M199 181V191M199 181H239M199 181C199 176.53 199.293 172.128 199.862 167.813M299 121H309M299 121C296.322 121 293.685 121.175 291.1 121.515M239 181V191M239 181C239 178.278 239.181 175.598 239.532 172.971M139 381H129M139 381V341M139 381C143.47 381 147.871 380.707 152.186 380.138M239 281V271M239 281H199M239 281C239 285.47 238.707 289.872 238.138 294.187M139 341H129M139 341C141.678 341 144.315 340.825 146.9 340.485M199 281V271M199 281C199 283.722 198.819 286.402 198.468 289.029M129 341H119M129 341V381M119 341H109M119 341V381M109 341H99M109 341V381M99 341V381M99 341H-1V381H99M129 381H119M119 381H109M109 381H99M199 191V201M199 191H239M199 201V211M199 201H239M199 211V221M199 211H239M199 221V231M199 221H239M199 231V241M199 231H239M199 241V251M199 241H239M199 251V261M199 251H239M199 261V271M199 261H239M199 271H239M239 191V201M239 201V211M239 211V221M239 221V231M239 231V241M239 241V251M239 251V261M239 261V271M309 81V121M419 11V1H379V11M419 11H379M418.138 34.1869C417.575 38.4649 416.741 42.6576 415.654 46.7474M418.138 34.1869L378.468 29.0286M415.654 46.7474C414.503 51.0807 413.068 55.2985 411.37 59.3795M415.654 46.7474L376.976 36.5114M411.37 59.3795C409.664 63.4819 407.692 67.4463 405.476 71.251M411.37 59.3795L374.338 44.2295M405.476 71.251C403.315 74.9613 400.923 78.5199 398.318 81.907M405.476 71.251L370.72 51.4325M398.318 81.907C395.616 85.4201 392.686 88.7487 389.55 91.8705M398.318 81.907L366.436 57.7448M389.55 91.8705C386.436 94.9712 383.118 97.8678 379.619 100.539M389.55 91.8705L361.089 63.7607M379.619 100.539C376.262 103.101 372.738 105.456 369.066 107.584M379.619 100.539L355.075 68.9478M369.066 107.584C365.289 109.772 361.355 111.721 357.286 113.409M369.066 107.584L348.876 73.0449M357.286 113.409C353.227 115.093 349.033 116.517 344.725 117.66M357.286 113.409L341.839 76.5002M344.725 117.66C340.642 118.744 336.456 119.576 332.186 120.138M344.725 117.66L334.249 79.0452M332.186 120.138L326.9 80.4846M326.9 80.4846C329.401 80.1556 331.854 79.6725 334.249 79.0452M334.249 79.0452C336.852 78.3631 339.386 77.5106 341.839 76.5002M341.839 76.5002C344.269 75.4992 346.618 74.3433 348.876 73.0449M348.876 73.0449C351.03 71.8055 353.1 70.4363 355.075 68.9478M355.075 68.9478C357.193 67.3515 359.203 65.6181 361.089 63.7607M361.089 63.7607C363.002 61.8781 364.789 59.8683 366.436 57.7448M366.436 57.7448C367.992 55.7382 369.424 53.6303 370.72 51.4325M370.72 51.4325C372.081 49.1259 373.291 46.7205 374.338 44.2295M374.338 44.2295C375.385 41.7379 376.269 39.1608 376.976 36.5114M376.976 36.5114C377.626 34.0747 378.127 31.577 378.468 29.0286M199.862 167.813C200.425 163.535 201.259 159.342 202.346 155.253M199.862 167.813L239.532 172.971M202.346 155.253C203.497 150.919 204.932 146.702 206.63 142.62M202.346 155.253L241.024 165.489M206.63 142.62C208.336 138.518 210.308 134.554 212.524 130.749M206.63 142.62L243.662 157.771M212.524 130.749C214.685 127.039 217.077 123.48 219.682 120.093M212.524 130.749L247.28 150.568M219.682 120.093C222.384 116.58 225.314 113.251 228.45 110.129M219.682 120.093L251.564 144.255M228.45 110.129C231.564 107.029 234.882 104.132 238.381 101.461M228.45 110.129L256.911 138.239M238.381 101.461C241.738 98.8988 245.262 96.5441 248.934 94.4163M238.381 101.461L262.925 133.052M248.934 94.4163C252.711 92.2276 256.645 90.2789 260.714 88.5912M248.934 94.4163L269.124 128.955M260.714 88.5912C264.773 86.9075 268.967 85.4835 273.275 84.3399M260.714 88.5912L276.161 125.5M273.275 84.3399C277.358 83.2561 281.544 82.4241 285.814 81.8616M273.275 84.3399L283.751 122.955M285.814 81.8616L291.1 121.515M291.1 121.515C288.599 121.844 286.146 122.327 283.751 122.955M283.751 122.955C281.148 123.637 278.614 124.489 276.161 125.5M276.161 125.5C273.731 126.501 271.382 127.657 269.124 128.955M269.124 128.955C266.97 130.194 264.9 131.564 262.925 133.052M262.925 133.052C260.807 134.649 258.797 136.382 256.911 138.239M256.911 138.239C254.998 140.122 253.211 142.132 251.564 144.255M251.564 144.255C250.008 146.262 248.576 148.37 247.28 150.568M247.28 150.568C245.919 152.874 244.709 155.28 243.662 157.771M243.662 157.771C242.615 160.262 241.731 162.839 241.024 165.489M241.024 165.489C240.374 167.925 239.873 170.423 239.532 172.971M238.138 294.187C237.575 298.465 236.741 302.658 235.654 306.747M238.138 294.187L198.468 289.029M235.654 306.747C234.503 311.081 233.068 315.298 231.37 319.38M235.654 306.747L196.976 296.511M231.37 319.38C229.664 323.482 227.692 327.446 225.476 331.251M231.37 319.38L194.338 304.229M225.476 331.251C223.315 334.961 220.923 338.52 218.318 341.907M225.476 331.251L190.72 311.432M218.318 341.907C215.616 345.42 212.686 348.749 209.55 351.871M218.318 341.907L186.436 317.745M209.55 351.871C206.436 354.971 203.118 357.868 199.619 360.539M209.55 351.871L181.089 323.761M199.619 360.539C196.262 363.101 192.738 365.456 189.066 367.584M199.619 360.539L175.075 328.948M189.066 367.584C185.289 369.772 181.355 371.721 177.286 373.409M189.066 367.584L168.876 333.045M177.286 373.409C173.227 375.092 169.033 376.517 164.725 377.66M177.286 373.409L161.839 336.5M164.725 377.66C160.642 378.744 156.456 379.576 152.186 380.138M164.725 377.66L154.249 339.045M152.186 380.138L146.9 340.485M146.9 340.485C149.401 340.156 151.854 339.672 154.249 339.045M154.249 339.045C156.852 338.363 159.386 337.511 161.839 336.5M161.839 336.5C164.269 335.499 166.618 334.343 168.876 333.045M168.876 333.045C171.03 331.806 173.1 330.436 175.075 328.948M175.075 328.948C177.193 327.351 179.203 325.618 181.089 323.761M181.089 323.761C183.002 321.878 184.789 319.868 186.436 317.745M186.436 317.745C187.992 315.738 189.424 313.63 190.72 311.432M190.72 311.432C192.081 309.126 193.291 306.72 194.338 304.229M194.338 304.229C195.385 301.738 196.269 299.161 196.976 296.511M196.976 296.511C197.626 294.075 198.127 291.577 198.468 289.029M89 341V381M79 341V381M69 341V381M59 341V381M49 341V381M39 341V381M29 341V381M19 341V381M9 341V381" stroke="#D5A654" stroke-width="2" stroke-linecap="round" stroke-linejoin="round"/>
</svg>
