<svg width="988" height="672" viewBox="0 0 988 672" fill="none" xmlns="http://www.w3.org/2000/svg">
<path d="M101 171V131M101 171H111M101 171C96.5302 171 92.1289 170.707 87.8143 170.138M1 71H41M1 71V61M1 71C1 75.4702 1.29331 79.8719 1.86174 84.1869M101 131H111M101 131C98.3221 131 95.6852 130.825 93.1001 130.485M41 71V61M41 71C41 73.7223 41.1813 76.4023 41.5325 79.0286M731 131H721M731 131V171M731 131C735.47 131 739.871 131.293 744.186 131.862M831 231V241M831 231H791M831 231C831 226.53 830.707 222.128 830.138 217.813M731 171H721M731 171C733.678 171 736.315 171.175 738.9 171.515M791 231V241M791 231C791 228.278 790.819 225.598 790.468 222.971M891 641H901M891 641V601M891 641C886.53 641 882.129 640.707 877.814 640.138M791 541V531M791 541H831M791 541C791 545.47 791.293 549.872 791.862 554.187M891 601H901M891 601C888.322 601 885.685 600.825 883.1 600.485M831 541V531M831 541C831 543.722 831.181 546.402 831.532 549.029M941 601H931M941 601V641M941 601C945.47 601 949.871 601.293 954.186 601.862M941 641H931M941 641C943.678 641 946.315 641.175 948.9 641.515M901 601H911M901 601V641M911 601H921M911 601V641M921 601H931M921 601V641M931 601V641M901 641H911M911 641H921M921 641H931M831 241V251M831 241H791M831 251V261M831 251H791M831 261V271M831 261H791M831 271V281M831 271H791M831 281V291M831 281H791M831 291V301M831 291H791M831 301V311M831 301H791M831 311V321M831 311H791M831 321V331M831 321H791M831 331V341M831 331H791M831 341V351M831 341H791M831 351V361M831 351H791M831 361V371M831 361H791M831 371V381M831 371H791M831 381V391M831 381H791M831 391V401M831 391H791M831 401V411M831 401H791M831 411V421M831 411H791M831 421V431M831 421H791M831 431V441M831 431H791M831 441V451M831 441H791M831 451V461M831 451H791M831 461V471M831 461H791M831 471V481M831 471H791M831 481V491M831 481H791M831 491V501M831 491H791M831 501V511M831 501H791M831 511V521M831 511H791M831 521V531M831 521H791M831 531H791M791 241V251M791 251V261M791 261V271M791 271V281M791 281V291M791 291V301M791 301V311M791 311V321M791 321V331M791 331V341M791 341V351M791 351V361M791 361V371M791 371V381M791 381V391M791 391V401M791 401V411M791 411V421M791 421V431M791 431V441M791 441V451M791 451V461M791 461V471M791 471V481M791 481V491M791 491V501M791 501V511M791 511V521M791 521V531M111 131H121M111 131V171M121 131H131M121 131V171M131 131H141M131 131V171M141 131H151M141 131V171M151 131H161M151 131V171M161 131H171M161 131V171M171 131H181M171 131V171M181 131H191M181 131V171M191 131H201M191 131V171M201 131H211M201 131V171M211 131H221M211 131V171M221 131H231M221 131V171M231 131H241M231 131V171M241 131H251M241 131V171M251 131H261M251 131V171M261 131H271M261 131V171M271 131H281M271 131V171M281 131H291M281 131V171M291 131H301M291 131V171M301 131H311M301 131V171M311 131H321M311 131V171M321 131H331M321 131V171M331 131H341M331 131V171M341 131H351M341 131V171M351 131H361M351 131V171M361 131H371M361 131V171M371 131H381M371 131V171M381 131H391M381 131V171M391 131H401M391 131V171M401 131H411M401 131V171M411 131H421M411 131V171M421 131H431M421 131V171M431 131H441M431 131V171M441 131H451M441 131V171M451 131H461M451 131V171M461 131H471M461 131V171M471 131H481M471 131V171M481 131H491M481 131V171M491 131H501M491 131V171M501 131H511M501 131V171M511 131H521M511 131V171M521 131H531M521 131V171M531 131H541M531 131V171M541 131H551M541 131V171M551 131H561M551 131V171M561 131H571M561 131V171M571 131H581M571 131V171M581 131H591M581 131V171M591 131H601M591 131V171M601 131H611M601 131V171M611 131H621M611 131V171M621 131H631M621 131V171M631 131H641M631 131V171M641 131H651M641 131V171M651 131H661M651 131V171M661 131H671M661 131V171M671 131H681M671 131V171M681 131H691M681 131V171M691 131H701M691 131V171M701 131H711M701 131V171M711 131H721M711 131V171M721 131V171M111 171H121M121 171H131M131 171H141M141 171H151M151 171H161M161 171H171M171 171H181M181 171H191M191 171H201M201 171H211M211 171H221M221 171H231M231 171H241M241 171H251M251 171H261M261 171H271M271 171H281M281 171H291M291 171H301M301 171H311M311 171H321M321 171H331M331 171H341M341 171H351M351 171H361M361 171H371M371 171H381M381 171H391M391 171H401M401 171H411M411 171H421M421 171H431M431 171H441M441 171H451M451 171H461M461 171H471M471 171H481M481 171H491M491 171H501M501 171H511M511 171H521M521 171H531M531 171H541M541 171H551M551 171H561M561 171H571M571 171H581M581 171H591M591 171H601M601 171H611M611 171H621M621 171H631M631 171H641M641 171H651M651 171H661M661 171H671M671 171H681M681 171H691M691 171H701M701 171H711M711 171H721M1 61V51M1 61H41M1 51V41M1 51H41M1 41V31M1 41H41M1 31V21M1 31H41M1 21V11M1 21H41M1 11V1H41V11M1 11H41M41 61V51M41 51V41M41 41V31M41 31V21M41 21V11M1.86174 84.1869C2.42529 88.4649 3.25926 92.6576 4.34591 96.7474M1.86174 84.1869L41.5325 79.0286M4.34591 96.7474C5.49727 101.081 6.93229 105.298 8.6299 109.38M4.34591 96.7474L43.0243 86.5114M8.6299 109.38C10.3364 113.482 12.3082 117.446 14.5239 121.251M8.6299 109.38L45.6623 94.2295M14.5239 121.251C16.6846 124.961 19.0773 128.52 21.682 131.907M14.5239 121.251L49.2795 101.432M21.682 131.907C24.3837 135.42 27.3136 138.749 30.4495 141.871M21.682 131.907L53.5642 107.745M30.4495 141.871C33.5641 144.971 36.882 147.868 40.3813 150.539M30.4495 141.871L58.9106 113.761M40.3813 150.539C43.7383 153.101 47.2624 155.456 50.9343 157.584M40.3813 150.539L64.9248 118.948M50.9343 157.584C54.7113 159.772 58.6447 161.721 62.7137 163.409M50.9343 157.584L71.1245 123.045M62.7137 163.409C66.7729 165.093 70.967 166.517 75.2754 167.66M62.7137 163.409L78.161 126.5M75.2754 167.66C79.3583 168.744 83.5439 169.576 87.8143 170.138M75.2754 167.66L85.7515 129.045M87.8143 170.138L93.1001 130.485M93.1001 130.485C90.5987 130.156 88.1459 129.672 85.7515 129.045M85.7515 129.045C83.1481 128.363 80.6137 127.511 78.161 126.5M78.161 126.5C75.7312 125.499 73.3816 124.343 71.1245 123.045M71.1245 123.045C68.9701 121.806 66.9 120.436 64.9248 118.948M64.9248 118.948C62.8065 117.351 60.7973 115.618 58.9106 113.761M58.9106 113.761C56.9981 111.878 55.2114 109.868 53.5642 107.745M53.5642 107.745C52.0076 105.738 50.5755 103.63 49.2795 101.432M49.2795 101.432C47.9194 99.1259 46.7092 96.7205 45.6623 94.2295M45.6623 94.2295C44.6151 91.7379 43.7313 89.1608 43.0243 86.5114M43.0243 86.5114C42.374 84.0747 41.8733 81.577 41.5325 79.0286M830.138 217.813C829.575 213.535 828.741 209.342 827.654 205.253M830.138 217.813L790.468 222.971M827.654 205.253C826.503 200.919 825.068 196.702 823.37 192.62M827.654 205.253L788.976 215.489M823.37 192.62C821.664 188.518 819.692 184.554 817.476 180.749M823.37 192.62L786.338 207.771M817.476 180.749C815.315 177.039 812.923 173.48 810.318 170.093M817.476 180.749L782.72 200.568M810.318 170.093C807.616 166.58 804.686 163.251 801.55 160.129M810.318 170.093L778.436 194.255M801.55 160.129C798.436 157.029 795.118 154.132 791.619 151.461M801.55 160.129L773.089 188.239M791.619 151.461C788.262 148.899 784.738 146.544 781.066 144.416M791.619 151.461L767.075 183.052M781.066 144.416C777.289 142.228 773.355 140.279 769.286 138.591M781.066 144.416L760.876 178.955M769.286 138.591C765.227 136.908 761.033 135.483 756.725 134.34M769.286 138.591L753.839 175.5M756.725 134.34C752.642 133.256 748.456 132.424 744.186 131.862M756.725 134.34L746.249 172.955M744.186 131.862L738.9 171.515M738.9 171.515C741.401 171.844 743.854 172.327 746.249 172.955M746.249 172.955C748.852 173.637 751.386 174.489 753.839 175.5M753.839 175.5C756.269 176.501 758.618 177.657 760.876 178.955M760.876 178.955C763.03 180.194 765.1 181.564 767.075 183.052M767.075 183.052C769.193 184.649 771.203 186.382 773.089 188.239M773.089 188.239C775.002 190.122 776.789 192.132 778.436 194.255M778.436 194.255C779.992 196.262 781.424 198.37 782.72 200.568M782.72 200.568C784.081 202.874 785.291 205.28 786.338 207.771M786.338 207.771C787.385 210.262 788.269 212.839 788.976 215.489M788.976 215.489C789.626 217.925 790.127 220.423 790.468 222.971M791.862 554.187C792.425 558.465 793.259 562.658 794.346 566.747M791.862 554.187L831.532 549.029M794.346 566.747C795.497 571.081 796.932 575.298 798.63 579.38M794.346 566.747L833.024 556.511M798.63 579.38C800.336 583.482 802.308 587.446 804.524 591.251M798.63 579.38L835.662 564.229M804.524 591.251C806.685 594.961 809.077 598.52 811.682 601.907M804.524 591.251L839.28 571.432M811.682 601.907C814.384 605.42 817.314 608.749 820.45 611.871M811.682 601.907L843.564 577.745M820.45 611.871C823.564 614.971 826.882 617.868 830.381 620.539M820.45 611.871L848.911 583.761M830.381 620.539C833.738 623.101 837.262 625.456 840.934 627.584M830.381 620.539L854.925 588.948M840.934 627.584C844.711 629.772 848.645 631.721 852.714 633.409M840.934 627.584L861.124 593.045M852.714 633.409C856.773 635.092 860.967 636.517 865.275 637.66M852.714 633.409L868.161 596.5M865.275 637.66C869.358 638.744 873.544 639.576 877.814 640.138M865.275 637.66L875.751 599.045M877.814 640.138L883.1 600.485M883.1 600.485C880.599 600.156 878.146 599.672 875.751 599.045M875.751 599.045C873.148 598.363 870.614 597.511 868.161 596.5M868.161 596.5C865.731 595.499 863.382 594.343 861.124 593.045M861.124 593.045C858.97 591.806 856.9 590.436 854.925 588.948M854.925 588.948C852.807 587.351 850.797 585.618 848.911 583.761M848.911 583.761C846.998 581.878 845.211 579.868 843.564 577.745M843.564 577.745C842.008 575.738 840.576 573.63 839.28 571.432M839.28 571.432C837.919 569.126 836.709 566.72 835.662 564.229M835.662 564.229C834.615 561.738 833.731 559.161 833.024 556.511M833.024 556.511C832.374 554.075 831.873 551.577 831.532 549.029M991.066 614.416C987.289 612.228 983.355 610.279 979.286 608.591M991.066 614.416L970.876 648.955M991.066 614.416C991.621 614.738 992.172 615.065 992.72 615.397V632.915M979.286 608.591C975.227 606.908 971.033 605.483 966.725 604.34M979.286 608.591L963.839 645.5M966.725 604.34C962.642 603.256 958.456 602.424 954.186 601.862M966.725 604.34L956.249 642.955M954.186 601.862L948.9 641.515M948.9 641.515C951.401 641.844 953.854 642.328 956.249 642.955M956.249 642.955C958.852 643.637 961.386 644.489 963.839 645.5M963.839 645.5C966.269 646.501 968.618 647.657 970.876 648.955M970.876 648.955C973.03 650.194 975.1 651.564 977.075 653.052M977.075 653.052C979.193 654.649 981.203 656.382 983.089 658.239M977.075 653.052L992.72 632.915M983.089 658.239C985.002 660.122 986.789 662.132 988.436 664.255M983.089 658.239L992.72 648.727M988.436 664.255C989.992 666.262 991.424 668.37 992.72 670.568V661.008M988.436 664.255L992.72 661.008M992.72 632.915V648.727M992.72 648.727V661.008" stroke="#A3C3CE" stroke-width="2" stroke-linecap="round" stroke-linejoin="round"/>
</svg>
