<svg width="318" height="301" viewBox="0 0 318 301" fill="none" xmlns="http://www.w3.org/2000/svg">
<path d="M217 101V61M217 101C221.47 101 225.871 100.707 230.186 100.138M217 101H207M217 61C219.678 61 222.315 60.8246 224.9 60.4846M217 61H207M137 61H147M137 61V101M137 61C132.53 61 128.129 61.2933 123.814 61.8616M37 161V171M37 161H77M37 161C37 156.53 37.2933 152.128 37.8618 147.813M137 101H147M137 101C134.322 101 131.685 101.175 129.1 101.515M77 161V171M77 161C77 158.278 77.1813 155.598 77.5325 152.971M77 201V191M77 201H37M77 201C77 205.47 76.7067 209.872 76.1382 214.187M37 201V191M37 201C37 203.722 36.8187 206.402 36.4675 209.029M37 171V181M37 171H77M37 181V191M37 181H77M37 191H77M77 171V181M77 181V191M147 61V101M147 61H207M147 101H207M316.138 14.1869C316.707 9.87189 317 5.4702 317 1H277C277 3.72234 276.819 6.40233 276.468 9.02856M316.138 14.1869C315.575 18.4649 314.741 22.6576 313.654 26.7474M316.138 14.1869L276.468 9.02856M313.654 26.7474C312.503 31.0807 311.068 35.2985 309.37 39.3795M313.654 26.7474L274.976 16.5114M309.37 39.3795C307.664 43.4819 305.692 47.4463 303.476 51.251M309.37 39.3795L272.338 24.2295M303.476 51.251C301.315 54.9613 298.923 58.5199 296.318 61.907M303.476 51.251L268.72 31.4325M296.318 61.907C293.616 65.4201 290.686 68.7487 287.55 71.8705M296.318 61.907L264.436 37.7448M287.55 71.8705C284.436 74.9712 281.118 77.8678 277.619 80.5388M287.55 71.8705L259.089 43.7607M277.619 80.5388C274.262 83.1012 270.738 85.4559 267.066 87.5837M277.619 80.5388L253.075 48.9478M267.066 87.5837C263.289 89.7724 259.355 91.7211 255.286 93.4088M267.066 87.5837L246.876 53.0449M255.286 93.4088C251.227 95.0925 247.033 96.5165 242.725 97.6601M255.286 93.4088L239.839 56.5002M242.725 97.6601C238.642 98.7439 234.456 99.5759 230.186 100.138M242.725 97.6601L232.249 59.0452M230.186 100.138L224.9 60.4846M224.9 60.4846C227.401 60.1556 229.854 59.6725 232.249 59.0452M232.249 59.0452C234.852 58.3631 237.386 57.5106 239.839 56.5002M239.839 56.5002C242.269 55.4992 244.618 54.3433 246.876 53.0449M246.876 53.0449C249.03 51.8055 251.1 50.4363 253.075 48.9478M253.075 48.9478C255.193 47.3515 257.203 45.6181 259.089 43.7607M259.089 43.7607C261.002 41.8781 262.789 39.8683 264.436 37.7448M264.436 37.7448C265.992 35.7382 267.424 33.6303 268.72 31.4325M268.72 31.4325C270.081 29.1259 271.291 26.7205 272.338 24.2295M272.338 24.2295C273.385 21.7379 274.269 19.1608 274.976 16.5114M274.976 16.5114C275.626 14.0747 276.127 11.577 276.468 9.02856M37.8618 147.813C38.4253 143.535 39.2592 139.342 40.3459 135.253M37.8618 147.813L77.5325 152.971M40.3459 135.253C41.4972 130.919 42.9323 126.702 44.6299 122.62M40.3459 135.253L79.0243 145.489M44.6299 122.62C46.3364 118.518 48.3082 114.554 50.5239 110.749M44.6299 122.62L81.6623 137.771M50.5239 110.749C52.6846 107.039 55.0773 103.48 57.682 100.093M50.5239 110.749L85.2795 130.568M57.682 100.093C60.3837 96.5799 63.3136 93.2513 66.4495 90.1295M57.682 100.093L89.5641 124.255M66.4495 90.1295C69.5641 87.0288 72.882 84.1322 76.3813 81.4612M66.4495 90.1295L94.9106 118.239M76.3813 81.4612C79.7383 78.8988 83.2624 76.5441 86.9343 74.4163M76.3813 81.4612L100.925 113.052M86.9343 74.4163C90.7113 72.2276 94.6447 70.2789 98.7137 68.5912M86.9343 74.4163L107.124 108.955M98.7137 68.5912C102.773 66.9075 106.967 65.4835 111.275 64.3399M98.7137 68.5912L114.161 105.5M111.275 64.3399C115.358 63.2561 119.544 62.4241 123.814 61.8616M111.275 64.3399L121.751 102.955M123.814 61.8616L129.1 101.515M129.1 101.515C126.599 101.844 124.146 102.327 121.751 102.955M121.751 102.955C119.148 103.637 116.614 104.489 114.161 105.5M114.161 105.5C111.731 106.501 109.382 107.657 107.124 108.955M107.124 108.955C104.97 110.194 102.9 111.564 100.925 113.052M100.925 113.052C98.8065 114.649 96.7974 116.382 94.9106 118.239M94.9106 118.239C92.9982 120.122 91.2114 122.132 89.5641 124.255M89.5641 124.255C88.0076 126.262 86.5755 128.37 85.2795 130.568M85.2795 130.568C83.9194 132.874 82.7092 135.28 81.6623 137.771M81.6623 137.771C80.6151 140.262 79.7313 142.839 79.0243 145.489M79.0243 145.489C78.374 147.925 77.8733 150.423 77.5325 152.971M76.1382 214.187C75.5747 218.465 74.7408 222.658 73.6541 226.747M76.1382 214.187L36.4675 209.029M73.6541 226.747C72.5028 231.081 71.0677 235.298 69.3701 239.38M73.6541 226.747L34.9757 216.511M69.3701 239.38C67.6636 243.482 65.6918 247.446 63.4761 251.251M69.3701 239.38L32.3377 224.229M63.4761 251.251C61.3154 254.961 58.9227 258.52 56.318 261.907M63.4761 251.251L28.7205 231.432M56.318 261.907C53.6163 265.42 50.6864 268.749 47.5505 271.871M56.318 261.907L24.4359 237.745M47.5505 271.871C44.4359 274.971 41.118 277.868 37.6187 280.539M47.5505 271.871L19.0894 243.761M37.6187 280.539C34.2617 283.101 30.7376 285.456 27.0657 287.584M37.6187 280.539L13.0752 248.948M27.0657 287.584C23.2887 289.772 19.3553 291.721 15.2863 293.409M27.0657 287.584L6.87555 253.045M15.2863 293.409C11.2271 295.092 7.03295 296.517 2.72461 297.66M15.2863 293.409L-0.161011 256.5M2.72461 297.66L-7.75146 259.045M2.72461 297.66C-0.698783 298.569 -4.19427 299.301 -7.75146 299.845V259.045M-7.75146 259.045C-5.14806 258.363 -2.61372 257.511 -0.161011 256.5M-0.161011 256.5C2.26875 255.499 4.61839 254.343 6.87555 253.045M6.87555 253.045C9.02989 251.806 11.1 250.436 13.0752 248.948M13.0752 248.948C15.1935 247.351 17.2026 245.618 19.0894 243.761M19.0894 243.761C21.0018 241.878 22.7886 239.868 24.4359 237.745M24.4359 237.745C25.9924 235.738 27.4245 233.63 28.7205 231.432M28.7205 231.432C30.0806 229.126 31.2908 226.72 32.3377 224.229M32.3377 224.229C33.3849 221.738 34.2687 219.161 34.9757 216.511M34.9757 216.511C35.626 214.075 36.1267 211.577 36.4675 209.029M207 61V101M197 61V101M187 61V101M177 61V101M167 61V101M157 61V101" stroke="#D5A654" stroke-width="2" stroke-linecap="round" stroke-linejoin="round"/>
</svg>
