<svg width="834" height="324" viewBox="0 0 834 324" fill="none" xmlns="http://www.w3.org/2000/svg">
<path d="M739.308 305H731V272H739.308M739.308 305H747.615M739.308 305V272M747.615 305H755.923M747.615 305V272M755.923 305H764.231M755.923 305V272M764.231 305H772.538M764.231 305H789.154M764.231 305H822.385M764.231 305H797.462M764.231 305V272M772.538 305H780.846M772.538 305V272M780.846 305H789.154M780.846 305V272M789.154 305H797.462M789.154 305V272M797.462 305H805.769M797.462 305V272M805.769 305H814.077M805.769 305V272M814.077 305H822.385M814.077 305V272M822.385 305H830.692M822.385 305V272M830.692 305H839V272H830.692M830.692 305V272M739.308 272H747.615M747.615 272H755.923M755.923 272H764.231M764.231 272H772.538M764.231 272H789.154M764.231 272H822.385M764.231 272H797.462M772.538 272H780.846M780.846 272H789.154M789.154 272H797.462M797.462 272H805.769M805.769 272H814.077M814.077 272H822.385M822.385 272H830.692" stroke="#A3C3CE" stroke-width="2" stroke-linecap="round" stroke-linejoin="round"/>
<path d="M82.5 162.003V197.78M82.5 162.003C86.5005 162.003 90.4396 162.266 94.3012 162.774M82.5 162.003C80.1033 162.003 77.7432 161.846 75.4296 161.542M172 251.446H136.2M172 251.446V260.39M172 251.446C172 247.448 171.738 243.511 171.229 239.651M82.5 197.78C84.8967 197.78 87.2568 197.937 89.5704 198.241M82.5 197.78C78.4995 197.78 74.5604 197.518 70.6988 197.01M136.2 251.446V260.39M136.2 251.446C136.2 249.011 136.038 246.614 135.723 244.265M-7 108.338V99.3934M-7 108.338H28.8M-7 108.338C-7 112.336 -6.73747 116.273 -6.22873 120.132M28.8 108.338V99.3934M28.8 108.338C28.8 110.773 28.9622 113.17 29.2766 115.519M28.8 72.5606V81.5049M28.8 72.5606H-7M28.8 72.5606C28.8 68.5624 28.5375 64.6254 28.0287 60.7659M-7 72.5606V81.5049M-7 72.5606V65.3178M-7 99.3934V90.4492M-7 99.3934H28.8M-7 90.4492V81.5049M-7 90.4492H28.8M-7 81.5049H28.8M28.8 99.3934V90.4492M28.8 90.4492V81.5049M172 260.39V269.334M172 260.39H136.2M172 269.334V278.279M172 269.334H136.2M172 278.279V287.223M172 278.279H136.2M172 287.223V296.167M172 287.223H136.2M172 296.167V305.111M172 296.167H136.2M172 305.111V314.056M172 305.111H136.2M172 314.056V323M172 314.056H136.2M136.2 260.39V269.334M136.2 269.334V278.279M136.2 278.279V287.223M136.2 287.223V296.167M136.2 296.167V305.111M136.2 305.111V314.056M136.2 314.056V323M171.229 239.651C170.724 235.825 169.978 232.075 169.005 228.417M171.229 239.651L135.723 244.265M169.005 228.417C167.975 224.541 166.691 220.768 165.171 217.118M169.005 228.417L134.388 237.572M165.171 217.118C163.644 213.449 161.879 209.903 159.896 206.5M165.171 217.118L132.027 230.669M159.896 206.5C157.962 203.181 155.821 199.999 153.49 196.969M159.896 206.5L128.79 224.226M153.49 196.969C151.072 193.827 148.449 190.85 145.643 188.057M153.49 196.969L124.955 218.58M145.643 188.057C142.855 185.284 139.886 182.693 136.754 180.304M145.643 188.057L120.17 213.2M136.754 180.304C133.749 178.012 130.595 175.906 127.309 174.003M136.754 180.304L114.787 208.56M127.309 174.003C123.928 172.046 120.408 170.303 116.766 168.793M127.309 174.003L109.239 204.896M116.766 168.793C113.133 167.287 109.379 166.013 105.524 164.991M116.766 168.793L102.941 201.805M105.524 164.991C101.869 164.021 98.1232 163.277 94.3012 162.774M105.524 164.991L96.1474 199.529M94.3012 162.774L89.5704 198.241M89.5704 198.241C91.8091 198.536 94.0044 198.968 96.1474 199.529M96.1474 199.529C98.4775 200.139 100.746 200.901 102.941 201.805M102.941 201.805C105.116 202.7 107.218 203.734 109.239 204.896M109.239 204.896C111.167 206.004 113.019 207.229 114.787 208.56M114.787 208.56C116.683 209.988 118.481 211.538 120.17 213.2M120.17 213.2C121.882 214.883 123.481 216.681 124.955 218.58M124.955 218.58C126.348 220.375 127.63 222.261 128.79 224.226M128.79 224.226C130.007 226.289 131.09 228.441 132.027 230.669M132.027 230.669C132.964 232.897 133.755 235.202 134.388 237.572M134.388 237.572C134.97 239.751 135.418 241.986 135.723 244.265M-6.22873 120.132C-5.72435 123.959 -4.97799 127.709 -4.00543 131.367M-6.22873 120.132L29.2766 115.519M-4.00543 131.367C-2.97497 135.243 -1.69061 139.015 -0.171255 142.665M-4.00543 131.367L30.6117 122.212M-0.171255 142.665C1.35605 146.335 3.12084 149.88 5.10391 153.284M-0.171255 142.665L32.9728 129.115M5.10391 153.284C7.03774 156.602 9.17917 159.785 11.5104 162.815M5.10391 153.284L36.2102 135.557M11.5104 162.815C13.9284 165.957 16.5507 168.934 19.3573 171.726M11.5104 162.815L40.0449 141.203M19.3573 171.726C22.1449 174.499 25.1144 177.09 28.2463 179.479M19.3573 171.726L44.83 146.584M28.2463 179.479C31.2508 181.771 34.4049 183.877 37.6912 185.78M28.2463 179.479L50.2127 151.223M37.6912 185.78C41.0716 187.738 44.592 189.481 48.2337 190.991M37.6912 185.78L55.7614 154.888M48.2337 190.991C51.8668 192.496 55.6205 193.77 59.4765 194.793M48.2337 190.991L62.0591 157.979M59.4765 194.793C63.1307 195.762 66.8768 196.507 70.6988 197.01M59.4765 194.793L68.8526 160.255M70.6988 197.01L75.4296 161.542M75.4296 161.542C73.1909 161.248 70.9956 160.816 68.8526 160.255M68.8526 160.255C66.5225 159.645 64.2543 158.882 62.0591 157.979M62.0591 157.979C59.8845 157.083 57.7815 156.049 55.7614 154.888M55.7614 154.888C53.8332 153.779 51.9805 152.555 50.2127 151.223M50.2127 151.223C48.3168 149.796 46.5186 148.245 44.83 146.584M44.83 146.584C43.1184 144.9 41.5192 143.102 40.0449 141.203M40.0449 141.203C38.6518 139.408 37.3701 137.523 36.2102 135.557M36.2102 135.557C34.9929 133.494 33.9097 131.343 32.9728 129.115M32.9728 129.115C32.0355 126.886 31.2445 124.581 30.6117 122.212M30.6117 122.212C30.0297 120.032 29.5816 117.798 29.2766 115.519M28.0287 60.7659C27.5243 56.9396 26.778 53.1895 25.8054 49.5315M28.0287 60.7659L-7 65.3178M25.8054 49.5315C24.775 45.6556 23.4906 41.8832 21.9713 38.233M25.8054 49.5315L-7 58.2076M21.9713 38.233C20.444 34.5637 18.6792 31.0179 16.6961 27.6148M21.9713 38.233L-7 50.0776M16.6961 27.6148C14.7623 24.2962 12.6208 21.1133 10.2896 18.0838M16.6961 27.6148L-7 41.1183M10.2896 18.0838C7.87155 14.9416 5.24931 11.9644 2.44268 9.17218M10.2896 18.0838L-7 31.1786M2.44268 9.17218C-0.344895 6.3989 -3.31437 3.80805 -6.44625 1.41904M2.44268 9.17218L-7 18.4924M-6.44625 1.41904C-6.63027 1.27867 -6.81486 1.13898 -7 1V2.13135M-6.44625 1.41904L-7 2.13135M-7 18.4924V2.13135M-7 18.4924V31.1786M-7 2.13135V31.1786M-7 31.1786V41.1183M-7 41.1183V50.0776M-7 50.0776V58.2076M-7 58.2076V65.3178" stroke="#D5A654" stroke-width="2" stroke-linecap="round" stroke-linejoin="round"/>
</svg>
