<svg width="834" height="444" viewBox="0 0 834 444" fill="none" xmlns="http://www.w3.org/2000/svg">
<path d="M529.08 121.765V86.1447M529.08 121.765H537.988M529.08 121.765C525.099 121.765 521.178 121.503 517.334 120.997M440 32.7149H475.632M440 32.7149V23.8099M440 32.7149C440 36.6956 440.261 40.6153 440.768 44.4578M529.08 86.1447H537.988M529.08 86.1447C526.695 86.1447 524.346 85.9885 522.043 85.6857M475.632 32.7149V23.8099M475.632 32.7149C475.632 35.1391 475.794 37.5257 476.106 39.8643M733.965 86.1447H725.057M733.965 86.1447H635.977M733.965 86.1447V121.765M733.965 86.1447C737.947 86.1447 741.867 86.4059 745.711 86.9119M823.045 175.194V184.099M823.045 175.194H787.413M823.045 175.194C823.045 171.214 822.784 167.294 822.278 163.451M733.965 121.765H725.057M733.965 121.765H635.977M733.965 121.765C736.35 121.765 738.699 121.921 741.002 122.224M787.413 175.194V184.099M787.413 175.194C787.413 172.77 787.252 170.384 786.939 168.045M787.413 362.199V353.294M787.413 362.199V282.054M787.413 362.199H823.045M787.413 362.199C787.413 366.179 787.674 370.099 788.181 373.942M823.045 362.199V353.294M823.045 362.199V282.054M823.045 362.199C823.045 364.623 823.207 367.009 823.52 369.348M823.045 184.099V193.004M823.045 184.099H787.413M823.045 193.004V201.909M823.045 193.004H787.413M823.045 201.909V210.814M823.045 201.909H787.413M823.045 210.814V219.719M823.045 210.814H787.413M823.045 219.719V228.624M823.045 219.719H787.413M823.045 228.624V237.529M823.045 228.624H787.413M823.045 237.529V246.434M823.045 237.529H787.413M823.045 246.434V255.339M823.045 246.434H787.413M823.045 255.339V264.244M823.045 255.339H787.413M823.045 264.244V273.149M823.045 264.244H787.413M823.045 273.149V282.054M823.045 273.149H787.413M823.045 282.054V290.959M823.045 282.054H787.413M823.045 290.959V299.864M823.045 290.959H787.413M823.045 299.864V308.769M823.045 299.864H787.413M823.045 308.769V317.674M823.045 308.769H787.413M823.045 317.674V326.579M823.045 317.674H787.413M823.045 326.579V335.484M823.045 326.579H787.413M823.045 335.484V344.389M823.045 335.484H787.413M823.045 344.389V353.294M823.045 344.389H787.413M823.045 353.294H787.413M787.413 184.099V193.004M787.413 193.004V201.909M787.413 201.909V210.814M787.413 210.814V219.719M787.413 219.719V228.624M787.413 228.624V237.529M787.413 237.529V246.434M787.413 246.434V255.339M787.413 255.339V264.244M787.413 264.244V273.149M787.413 273.149V282.054M787.413 282.054V290.959M787.413 290.959V299.864M787.413 299.864V308.769M787.413 308.769V317.674M787.413 317.674V326.579M787.413 326.579V335.484M787.413 335.484V344.389M787.413 344.389V353.294M537.988 86.1447H546.896M537.988 86.1447V121.765M546.896 86.1447H555.804M546.896 86.1447V121.765M555.804 86.1447H564.712M555.804 86.1447V121.765M564.712 86.1447H573.62M564.712 86.1447V121.765M573.62 86.1447H582.528M573.62 86.1447V121.765M582.528 86.1447H591.436M582.528 86.1447V121.765M591.436 86.1447H600.345M591.436 86.1447V121.765M600.345 86.1447H609.253M600.345 86.1447H627.069M600.345 86.1447H689.425M600.345 86.1447H662.701M600.345 86.1447H635.977M600.345 86.1447V121.765M609.253 86.1447H618.161M609.253 86.1447V121.765M618.161 86.1447H627.069M618.161 86.1447V121.765M627.069 86.1447H635.977M627.069 86.1447V121.765M635.977 86.1447H644.885M635.977 86.1447V121.765M644.885 86.1447H653.793M644.885 86.1447V121.765M653.793 86.1447H662.701M653.793 86.1447V121.765M662.701 86.1447H671.609M662.701 86.1447V121.765M671.609 86.1447H680.517M671.609 86.1447V121.765M680.517 86.1447H689.425M680.517 86.1447V121.765M689.425 86.1447H698.333M689.425 86.1447V121.765M698.333 86.1447H707.241M698.333 86.1447V121.765M707.241 86.1447H716.149M707.241 86.1447V121.765M716.149 86.1447H725.057M716.149 86.1447V121.765M725.057 86.1447V121.765M537.988 121.765H546.896M546.896 121.765H555.804M555.804 121.765H564.712M564.712 121.765H573.62M573.62 121.765H582.528M582.528 121.765H591.436M591.436 121.765H600.345M600.345 121.765H609.253M600.345 121.765H627.069M600.345 121.765H689.425M600.345 121.765H662.701M600.345 121.765H635.977M609.253 121.765H618.161M618.161 121.765H627.069M627.069 121.765H635.977M635.977 121.765H644.885M644.885 121.765H653.793M653.793 121.765H662.701M662.701 121.765H671.609M671.609 121.765H680.517M680.517 121.765H689.425M689.425 121.765H698.333M698.333 121.765H707.241M707.241 121.765H716.149M716.149 121.765H725.057M440 23.8099V14.905M440 23.8099H475.632M440 14.905V6H475.632V14.905M440 14.905H475.632M475.632 23.8099V14.905M440.768 44.4578C441.27 48.2673 442.013 52.0009 442.981 55.6429M440.768 44.4578L476.106 39.8643M442.981 55.6429C444.006 59.5017 445.285 63.2576 446.797 66.8918M442.981 55.6429L477.435 46.5278M446.797 66.8918C448.317 70.5449 450.073 74.0751 452.047 77.4633M446.797 66.8918L479.785 53.4007M452.047 77.4633C453.972 80.7673 456.103 83.9362 458.424 86.9523M452.047 77.4633L483.008 59.8149M458.424 86.9523C460.83 90.0808 463.44 93.0449 466.234 95.8249M458.424 86.9523L486.824 65.436M466.234 95.8249C469.008 98.586 471.964 101.165 475.081 103.544M466.234 95.8249L491.587 70.7932M475.081 103.544C478.071 105.826 481.211 107.923 484.482 109.817M475.081 103.544L496.944 75.4122M484.482 109.817C487.846 111.766 491.35 113.502 494.975 115.005M484.482 109.817L502.467 79.0607M494.975 115.005C498.591 116.504 502.327 117.772 506.165 118.79M494.975 115.005L508.735 82.1376M506.165 118.79C509.802 119.756 513.53 120.496 517.334 120.997M506.165 118.79L515.497 84.404M517.334 120.997L522.043 85.6857M522.043 85.6857C519.815 85.3927 517.63 84.9626 515.497 84.404M515.497 84.404C513.178 83.7966 510.92 83.0374 508.735 82.1376M508.735 82.1376C506.571 81.2463 504.478 80.217 502.467 79.0607M502.467 79.0607C500.548 77.9571 498.704 76.7377 496.944 75.4122M496.944 75.4122C495.057 73.9907 493.268 72.4471 491.587 70.7932M491.587 70.7932C489.883 69.1168 488.292 67.327 486.824 65.436M486.824 65.436C485.438 63.6492 484.162 61.772 483.008 59.8149M483.008 59.8149C481.796 57.761 480.718 55.6189 479.785 53.4007M479.785 53.4007C478.852 51.1819 478.065 48.887 477.435 46.5278M477.435 46.5278C476.856 44.3579 476.41 42.1336 476.106 39.8643M822.278 163.451C821.776 159.642 821.033 155.908 820.065 152.266M822.278 163.451L786.939 168.045M820.065 152.266C819.039 148.408 817.761 144.652 816.248 141.018M820.065 152.266L785.61 161.381M816.248 141.018C814.728 137.364 812.972 133.834 810.998 130.446M816.248 141.018L783.26 154.509M810.998 130.446C809.073 127.142 806.942 123.973 804.622 120.957M810.998 130.446L780.038 148.094M804.622 120.957C802.215 117.828 799.605 114.864 796.811 112.084M804.622 120.957L776.221 142.473M796.811 112.084C794.037 109.323 791.081 106.744 787.964 104.365M796.811 112.084L771.458 137.116M787.964 104.365C784.974 102.083 781.835 99.9866 778.564 98.0918M787.964 104.365L766.101 132.497M778.564 98.0918C775.199 96.1428 771.695 94.4075 768.07 92.9046M778.564 98.0918L760.578 128.849M768.07 92.9046C764.455 91.4053 760.718 90.1372 756.88 89.1188M768.07 92.9046L754.31 125.772M756.88 89.1188C753.243 88.1537 749.515 87.4129 745.711 86.9119M756.88 89.1188L747.548 123.505M745.711 86.9119L741.002 122.224M741.002 122.224C743.23 122.517 745.415 122.947 747.548 123.505M747.548 123.505C749.867 124.113 752.125 124.872 754.31 125.772M754.31 125.772C756.474 126.663 758.567 127.692 760.578 128.849M760.578 128.849C762.497 129.952 764.341 131.172 766.101 132.497M766.101 132.497C767.988 133.919 769.778 135.462 771.458 137.116M771.458 137.116C773.162 138.793 774.754 140.582 776.221 142.473M776.221 142.473C777.608 144.26 778.883 146.137 780.038 148.094M780.038 148.094C781.249 150.148 782.327 152.29 783.26 154.509M783.26 154.509C784.193 156.727 784.98 159.022 785.61 161.381M785.61 161.381C786.189 163.551 786.635 165.776 786.939 168.045M788.181 373.942C788.683 377.751 789.426 381.485 790.394 385.127M788.181 373.942L823.52 369.348M790.394 385.127C791.419 388.985 792.698 392.741 794.21 396.376M790.394 385.127L824.848 376.012M794.21 396.376C795.73 400.029 797.486 403.559 799.46 406.947M794.21 396.376L827.198 382.884M799.46 406.947C801.385 410.251 803.516 413.42 805.837 416.436M799.46 406.947L830.421 389.299M805.837 416.436C808.243 419.565 810.853 422.529 813.647 425.309M805.837 416.436L834.237 394.92M813.647 425.309C816.421 428.07 819.377 430.649 822.494 433.028M813.647 425.309L839 400.277M822.494 433.028C825.485 435.31 828.624 437.406 831.895 439.301M822.494 433.028L839 411.789M831.895 439.301C834.2 440.636 836.57 441.871 839 443V427.151M831.895 439.301L839 427.151M839 400.277C837.296 398.601 835.705 396.811 834.237 394.92M839 400.277V411.789M834.237 394.92C832.851 393.133 831.575 391.256 830.421 389.299M830.421 389.299C829.209 387.245 828.131 385.103 827.198 382.884M827.198 382.884C826.266 380.666 825.478 378.371 824.848 376.012M824.848 376.012C824.269 373.842 823.823 371.617 823.52 369.348M839 427.151V411.789" stroke="#A3C3CE" stroke-width="2" stroke-linecap="round" stroke-linejoin="round"/>
<path d="M192.701 90.344V54.6064M192.701 90.344C196.692 90.344 200.623 90.082 204.476 89.5743M192.701 90.344H183.771M192.701 54.6064C195.092 54.6064 197.447 54.4497 199.755 54.1459M192.701 54.6064H183.771M121.262 54.6064H130.192M121.262 54.6064V90.344M121.262 54.6064C117.27 54.6064 113.34 54.8684 109.487 55.3762M31.9626 143.95V152.885M31.9626 143.95H67.6823M31.9626 143.95C31.9626 139.957 32.2246 136.024 32.7322 132.169M121.262 90.344H130.192M121.262 90.344C118.87 90.344 116.516 90.5008 114.207 90.8046M67.6823 143.95V152.885M67.6823 143.95C67.6823 141.518 67.8441 139.124 68.1578 136.777M67.6823 179.688V170.754M67.6823 179.688H31.9626M67.6823 179.688C67.6823 183.682 67.4203 187.615 66.9127 191.47M31.9626 179.688V170.754M31.9626 179.688C31.9626 182.12 31.8008 184.515 31.4871 186.861M31.9626 152.885V161.819M31.9626 152.885H67.6823M31.9626 161.819V170.754M31.9626 161.819H67.6823M31.9626 170.754H67.6823M67.6823 152.885V161.819M67.6823 161.819V170.754M130.192 54.6064V90.344M130.192 54.6064H183.771M130.192 90.344H183.771M281.231 12.7817C281.738 8.9265 282 4.99385 282 1H246.28C246.28 3.43225 246.118 5.82666 245.805 8.17304M281.231 12.7817C280.727 16.6038 279.982 20.3498 279.012 24.0038M281.231 12.7817L245.805 8.17304M279.012 24.0038C277.984 27.8753 276.703 31.6436 275.187 35.2898M279.012 24.0038L244.473 14.8586M275.187 35.2898C273.663 38.9551 271.902 42.497 269.923 45.8963M275.187 35.2898L242.117 21.7542M269.923 45.8963C267.994 49.2112 265.857 52.3906 263.531 55.4167M269.923 45.8963L238.887 28.1896M263.531 55.4167C261.119 58.5555 258.502 61.5294 255.702 64.3186M263.531 55.4167L235.061 33.8293M255.702 64.3186C252.921 67.0888 249.958 69.6768 246.833 72.0632M255.702 64.3186L230.286 39.2042M246.833 72.0632C243.835 74.3526 240.688 76.4563 237.409 78.3574M246.833 72.0632L224.916 43.8385M237.409 78.3574C234.036 80.3129 230.524 82.0539 226.89 83.5618M237.409 78.3574L219.38 47.499M226.89 83.5618C223.265 85.066 219.52 86.3383 215.673 87.3601M226.89 83.5618L213.096 50.5861M215.673 87.3601C212.027 88.3284 208.289 89.0717 204.476 89.5743M215.673 87.3601L206.318 52.8599M204.476 89.5743L199.755 54.1459M199.755 54.1459C201.989 53.852 204.18 53.4204 206.318 52.8599M206.318 52.8599C208.643 52.2506 210.906 51.4888 213.096 50.5861M213.096 50.5861C215.266 49.6918 217.364 48.6591 219.38 47.499M219.38 47.499C221.303 46.3917 223.152 45.1684 224.916 43.8385M224.916 43.8385C226.807 42.4123 228.602 40.8636 230.286 39.2042M230.286 39.2042C231.994 37.5222 233.59 35.7265 235.061 33.8293M235.061 33.8293C236.451 32.0365 237.73 30.1532 238.887 28.1896M238.887 28.1896C240.101 26.1289 241.182 23.9797 242.117 21.7542M242.117 21.7542C243.052 19.5281 243.841 17.2256 244.473 14.8586M244.473 14.8586C245.053 12.6815 245.501 10.4499 245.805 8.17304M32.7322 132.169C33.2354 128.347 33.9801 124.601 34.9505 120.947M32.7322 132.169L68.1578 136.777M34.9505 120.947C35.9786 117.075 37.2601 113.307 38.7761 109.661M34.9505 120.947L69.4899 130.092M38.7761 109.661C40.2999 105.995 42.0608 102.453 44.0394 99.0542M38.7761 109.661L71.8456 123.196M44.0394 99.0542C45.9689 95.7392 48.1055 92.5598 50.4315 89.5337M44.0394 99.0542L75.0758 116.761M50.4315 89.5337C52.8441 86.3949 55.4604 83.421 58.2608 80.6319M50.4315 89.5337L78.9019 111.121M58.2608 80.6319C61.0421 77.8616 64.0049 75.2736 67.1298 72.8873M58.2608 80.6319L83.6762 105.746M67.1298 72.8873C70.1276 70.5979 73.2745 68.4941 76.5535 66.593M67.1298 72.8873L89.0469 101.112M76.5535 66.593C79.9263 64.6376 83.4388 62.8966 87.0724 61.3887M76.5535 66.593L94.5831 97.4515M87.0724 61.3887C90.6972 59.8844 94.4426 58.6121 98.2899 57.5904M87.0724 61.3887L100.867 94.3644M98.2899 57.5904C101.936 56.6221 105.674 55.8788 109.487 55.3762M98.2899 57.5904L107.645 92.0905M109.487 55.3762L114.207 90.8046M114.207 90.8046C111.973 91.0985 109.783 91.5301 107.645 92.0905M107.645 92.0905C105.32 92.6999 103.057 93.4616 100.867 94.3644M100.867 94.3644C98.6969 95.2587 96.5987 96.2914 94.5831 97.4515M94.5831 97.4515C92.6593 98.5588 90.8107 99.7821 89.0469 101.112M89.0469 101.112C87.1553 102.538 85.3611 104.087 83.6762 105.746M83.6762 105.746C81.9685 107.428 80.3729 109.224 78.9019 111.121M78.9019 111.121C77.5119 112.914 76.2331 114.797 75.0758 116.761M75.0758 116.761C73.8613 118.822 72.7805 120.971 71.8456 123.196M71.8456 123.196C70.9105 125.422 70.1213 127.725 69.4899 130.092M69.4899 130.092C68.9092 132.269 68.4621 134.501 68.1578 136.777M66.9127 191.47C66.4095 195.292 65.6648 199.038 64.6944 202.692M66.9127 191.47L31.4871 186.861M64.6944 202.692C63.6663 206.563 62.3848 210.332 60.8688 213.978M64.6944 202.692L30.155 193.547M60.8688 213.978C59.345 217.643 57.5841 221.185 55.6055 224.584M60.8688 213.978L27.7993 200.442M55.6055 224.584C53.676 227.899 51.5394 231.079 49.2134 234.105M55.6055 224.584L24.5691 206.878M49.2134 234.105C46.8008 237.244 44.1844 240.218 41.3841 243.007M49.2134 234.105L20.743 212.517M41.3841 243.007C38.6028 245.777 35.64 248.365 32.5151 250.751M41.3841 243.007L15.9687 217.892M32.5151 250.751C29.5173 253.041 26.3704 255.144 23.0914 257.045M32.5151 250.751L10.598 222.527M23.0914 257.045C19.7186 259.001 16.2061 260.742 12.5725 262.25M23.0914 257.045L5.06179 226.187M12.5725 262.25C8.94767 263.754 5.20234 265.026 1.35504 266.048M12.5725 262.25L-1.2218 229.274M1.35504 266.048L-8 231.548M1.35504 266.048C-1.70202 266.86 -4.82346 267.514 -8 268V231.548M-8 231.548C-5.67519 230.939 -3.41205 230.177 -1.2218 229.274M-1.2218 229.274C0.947953 228.38 3.04617 227.347 5.06179 226.187M5.06179 226.187C6.98559 225.08 8.83416 223.856 10.598 222.527M10.598 222.527C12.4896 221.1 14.2838 219.552 15.9687 217.892M15.9687 217.892C17.6764 216.21 19.272 214.415 20.743 212.517M20.743 212.517C22.133 210.725 23.4118 208.841 24.5691 206.878M24.5691 206.878C25.7836 204.817 26.8644 202.668 27.7993 200.442M27.7993 200.442C28.7344 198.216 29.5236 195.914 30.155 193.547M30.155 193.547C30.7357 191.37 31.1828 189.138 31.4871 186.861M183.771 54.6064V90.344M174.841 54.6064V90.344M165.911 54.6064V90.344M156.981 54.6064V90.344M148.051 54.6064V90.344M139.122 54.6064V90.344" stroke="#D5A654" stroke-width="2" stroke-linecap="round" stroke-linejoin="round"/>
</svg>
