<svg width="444" height="493" viewBox="0 0 444 493" fill="none" xmlns="http://www.w3.org/2000/svg">
<path d="M101 131V91M101 131H111M101 131C96.5302 131 92.1289 130.707 87.8143 130.138M1 31H41M1 31V21M1 31C1 35.4702 1.29331 39.8719 1.86174 44.1869M101 91H111M101 91C98.3221 91 95.6852 90.8246 93.1001 90.4846M41 31V21M41 31C41 33.7223 41.1813 36.4023 41.5325 39.0286M331 91H321M331 91H221M331 91V131M331 91C335.47 91 339.871 91.2933 344.186 91.8616M431 191V201M431 191H391M431 191C431 186.53 430.707 182.128 430.138 177.813M331 131H321M331 131H221M331 131C333.678 131 336.315 131.175 338.9 131.515M391 191V201M391 191C391 188.278 390.819 185.598 390.468 182.971M391 401V391M391 401V311M391 401H431M391 401C391 405.47 391.293 409.872 391.862 414.187M431 401V391M431 401V311M431 401C431 403.722 431.181 406.402 431.532 409.029M431 201V211M431 201H391M431 211V221M431 211H391M431 221V231M431 221H391M431 231V241M431 231H391M431 241V251M431 241H391M431 251V261M431 251H391M431 261V271M431 261H391M431 271V281M431 271H391M431 281V291M431 281H391M431 291V301M431 291H391M431 301V311M431 301H391M431 311V321M431 311H391M431 321V331M431 321H391M431 331V341M431 331H391M431 341V351M431 341H391M431 351V361M431 351H391M431 361V371M431 361H391M431 371V381M431 371H391M431 381V391M431 381H391M431 391H391M391 201V211M391 211V221M391 221V231M391 231V241M391 241V251M391 251V261M391 261V271M391 271V281M391 281V291M391 291V301M391 301V311M391 311V321M391 321V331M391 331V341M391 341V351M391 351V361M391 361V371M391 371V381M391 381V391M111 91H121M111 91V131M121 91H131M121 91V131M131 91H141M131 91V131M141 91H151M141 91V131M151 91H161M151 91V131M161 91H171M161 91V131M171 91H181M171 91V131M181 91H191M181 91H211M181 91H281M181 91H251M181 91H221M181 91V131M191 91H201M191 91V131M201 91H211M201 91V131M211 91H221M211 91V131M221 91H231M221 91V131M231 91H241M231 91V131M241 91H251M241 91V131M251 91H261M251 91V131M261 91H271M261 91V131M271 91H281M271 91V131M281 91H291M281 91V131M291 91H301M291 91V131M301 91H311M301 91V131M311 91H321M311 91V131M321 91V131M111 131H121M121 131H131M131 131H141M141 131H151M151 131H161M161 131H171M171 131H181M181 131H191M181 131H211M181 131H281M181 131H251M181 131H221M191 131H201M201 131H211M211 131H221M221 131H231M231 131H241M241 131H251M251 131H261M261 131H271M271 131H281M281 131H291M291 131H301M301 131H311M311 131H321M1 21V11M1 21H41M1 11V1H41V11M1 11H41M41 21V11M1.86174 44.1869C2.42529 48.4649 3.25926 52.6576 4.34591 56.7474M1.86174 44.1869L41.5325 39.0286M4.34591 56.7474C5.49727 61.0807 6.93229 65.2985 8.6299 69.3795M4.34591 56.7474L43.0243 46.5114M8.6299 69.3795C10.3364 73.4819 12.3082 77.4463 14.5239 81.251M8.6299 69.3795L45.6623 54.2295M14.5239 81.251C16.6846 84.9613 19.0773 88.5199 21.682 91.907M14.5239 81.251L49.2795 61.4325M21.682 91.907C24.3837 95.4201 27.3136 98.7487 30.4495 101.871M21.682 91.907L53.5642 67.7448M30.4495 101.871C33.5641 104.971 36.882 107.868 40.3813 110.539M30.4495 101.871L58.9106 73.7607M40.3813 110.539C43.7383 113.101 47.2624 115.456 50.9343 117.584M40.3813 110.539L64.9248 78.9478M50.9343 117.584C54.7113 119.772 58.6447 121.721 62.7137 123.409M50.9343 117.584L71.1245 83.0449M62.7137 123.409C66.7729 125.093 70.967 126.517 75.2754 127.66M62.7137 123.409L78.161 86.5002M75.2754 127.66C79.3583 128.744 83.5439 129.576 87.8143 130.138M75.2754 127.66L85.7515 89.0452M87.8143 130.138L93.1001 90.4846M93.1001 90.4846C90.5987 90.1556 88.1459 89.6725 85.7515 89.0452M85.7515 89.0452C83.1481 88.3631 80.6137 87.5106 78.161 86.5002M78.161 86.5002C75.7312 85.4992 73.3816 84.3433 71.1245 83.0449M71.1245 83.0449C68.9701 81.8055 66.9 80.4363 64.9248 78.9478M64.9248 78.9478C62.8065 77.3515 60.7973 75.6181 58.9106 73.7607M58.9106 73.7607C56.9981 71.8781 55.2114 69.8683 53.5642 67.7448M53.5642 67.7448C52.0076 65.7382 50.5755 63.6303 49.2795 61.4325M49.2795 61.4325C47.9194 59.1259 46.7092 56.7205 45.6623 54.2295M45.6623 54.2295C44.6151 51.7379 43.7313 49.1608 43.0243 46.5114M43.0243 46.5114C42.374 44.0747 41.8733 41.577 41.5325 39.0286M430.138 177.813C429.575 173.535 428.741 169.342 427.654 165.253M430.138 177.813L390.468 182.971M427.654 165.253C426.503 160.919 425.068 156.702 423.37 152.62M427.654 165.253L388.976 175.489M423.37 152.62C421.664 148.518 419.692 144.554 417.476 140.749M423.37 152.62L386.338 167.771M417.476 140.749C415.315 137.039 412.923 133.48 410.318 130.093M417.476 140.749L382.72 160.568M410.318 130.093C407.616 126.58 404.686 123.251 401.55 120.129M410.318 130.093L378.436 154.255M401.55 120.129C398.436 117.029 395.118 114.132 391.619 111.461M401.55 120.129L373.089 148.239M391.619 111.461C388.262 108.899 384.738 106.544 381.066 104.416M391.619 111.461L367.075 143.052M381.066 104.416C377.289 102.228 373.355 100.279 369.286 98.5912M381.066 104.416L360.876 138.955M369.286 98.5912C365.227 96.9075 361.033 95.4835 356.725 94.3399M369.286 98.5912L353.839 135.5M356.725 94.3399C352.642 93.2561 348.456 92.4241 344.186 91.8616M356.725 94.3399L346.249 132.955M344.186 91.8616L338.9 131.515M338.9 131.515C341.401 131.844 343.854 132.327 346.249 132.955M346.249 132.955C348.852 133.637 351.386 134.489 353.839 135.5M353.839 135.5C356.269 136.501 358.618 137.657 360.876 138.955M360.876 138.955C363.03 140.194 365.1 141.564 367.075 143.052M367.075 143.052C369.193 144.649 371.203 146.382 373.089 148.239M373.089 148.239C375.002 150.122 376.789 152.132 378.436 154.255M378.436 154.255C379.992 156.262 381.424 158.37 382.72 160.568M382.72 160.568C384.081 162.874 385.291 165.28 386.338 167.771M386.338 167.771C387.385 170.262 388.269 172.839 388.976 175.489M388.976 175.489C389.626 177.925 390.127 180.423 390.468 182.971M391.862 414.187C392.425 418.465 393.259 422.658 394.346 426.747M391.862 414.187L431.532 409.029M394.346 426.747C395.497 431.081 396.932 435.298 398.63 439.38M394.346 426.747L433.024 416.511M398.63 439.38C400.336 443.482 402.308 447.446 404.524 451.251M398.63 439.38L435.662 424.229M404.524 451.251C406.685 454.961 409.077 458.52 411.682 461.907M404.524 451.251L439.28 431.432M411.682 461.907C414.384 465.42 417.314 468.749 420.45 471.871M411.682 461.907L443.564 437.745M420.45 471.871C423.564 474.971 426.882 477.868 430.381 480.539M420.45 471.871L448.911 443.761M430.381 480.539C433.738 483.101 437.262 485.456 440.934 487.584M430.381 480.539L448.911 456.689M440.934 487.584C443.522 489.083 446.183 490.47 448.911 491.737V473.939M440.934 487.584L448.911 473.939M448.911 443.761C446.998 441.878 445.211 439.868 443.564 437.745M448.911 443.761V456.689M443.564 437.745C442.008 435.738 440.576 433.63 439.28 431.432M439.28 431.432C437.919 429.126 436.709 426.72 435.662 424.229M435.662 424.229C434.615 421.738 433.731 419.161 433.024 416.511M433.024 416.511C432.374 414.075 431.873 411.577 431.532 409.029M448.911 473.939V456.689" stroke="#A3C3CE" stroke-width="2" stroke-linecap="round" stroke-linejoin="round"/>
</svg>
