<svg width="19" height="13" viewBox="0 0 19 13" fill="none" xmlns="http://www.w3.org/2000/svg">
<g clip-path="url(#clip0_679_4277)">
<path d="M7.50269 0.64827C8.14509 0.551231 8.81357 0.5 9.5 0.5C9.5 3.81371 13.5294 6.50005 18.5 6.50005C13.5294 6.50005 9.5 9.18629 9.5 12.5C8.81357 12.5 8.14509 12.4488 7.50269 12.3517M7.50269 0.64827C6.46094 0.805636 5.48777 1.08347 4.61788 1.45865C3.70832 1.85094 2.91167 2.34965 2.26759 2.92836M7.50269 0.64827C6.45905 0.805921 5.48426 1.08447 4.61317 1.46068C3.70557 1.85266 2.91055 2.35065 2.26759 2.92836M2.26759 2.92836C1.55363 3.56984 1.02715 4.30962 0.742146 5.11167C0.583803 5.55728 0.5 6.02212 0.5 6.5C0.500007 6.9779 0.583821 7.44275 0.74218 7.88838C1.02719 8.69042 1.55366 9.43019 2.2676 10.0717M2.2676 10.0717C2.91056 10.6494 3.70557 11.1473 4.61317 11.5393C5.48426 11.9155 6.45905 12.1941 7.50269 12.3517M2.2676 10.0717C2.91167 10.6504 3.70832 11.1491 4.61788 11.5414C5.48777 11.9165 6.46094 12.1944 7.50269 12.3517" stroke="#D5A654" stroke-linecap="round" stroke-linejoin="round"/>
</g>
<defs>
<clipPath id="clip0_679_4277">
<rect width="19" height="13" fill="white"/>
</clipPath>
</defs>
</svg>
