<svg width="157" height="76" viewBox="0 0 157 76" fill="none" xmlns="http://www.w3.org/2000/svg">
<path d="M2.17692 60.5599L6.79617 60.2156L6.90706 60.8718C4.91117 61.6462 2.16866 63.2796 1.54493 65.4477C0.44345 69.2764 4.26013 71.5482 7.35077 72.4373C10.6721 73.3928 15.6607 72.98 16.7953 69.0359C17.5053 66.568 16.2697 64.4394 14.6245 62.6925L15.0406 62.2878C17.4039 64.3162 18.8393 67.2265 17.9501 70.3171C16.6429 74.8609 12.054 76.6623 7.74092 75.4215C5.64205 74.8177 3.74225 73.5219 2.32775 71.8413C0.827635 70.1112 -0.150517 67.7819 0.519661 65.4524C0.751901 64.6452 1.10894 64.0986 1.43943 63.6442C1.77656 63.1668 2.07073 62.752 2.21007 62.2676C2.38259 61.668 2.28465 61.1403 2.17692 60.5599Z" fill="#474542"/>
<path d="M22.0933 59.5681C20.7519 62.3318 17.1 63.0403 14.4443 61.7514C11.6374 60.389 9.64545 57.1279 11.1231 54.0836C12.5797 51.0824 16.3859 50.7155 19.128 52.0464C21.8917 53.3878 23.4871 56.6965 22.0933 59.5681ZM21.3808 59.2223C22.4706 56.9768 19.3218 54.835 17.6593 54.028C16.0832 53.263 12.8626 52.3135 11.8356 54.4294C10.7771 56.6101 13.3652 58.5332 15.0277 59.3401C16.5607 60.0841 20.3643 61.3167 21.3808 59.2223Z" fill="#474542"/>
<path d="M19.339 47.133L23.4883 49.9086C25.3634 51.1629 25.4831 51.243 26.5368 50.0132L27.1153 50.4002L24.1662 54.8087L23.5877 54.4218C24.3088 52.9984 24.1891 52.9184 22.314 51.664L18.0251 48.795C16.9278 48.1476 16.5355 47.914 15.7215 49.1309L15.2427 48.8106L16.1074 44.9712L18.4613 46.5458C18.0308 45.1606 17.4151 43.0163 18.2959 41.6997C18.7362 41.0414 19.582 40.7698 20.2802 41.2369C20.8986 41.6505 21.1171 42.4031 20.6767 43.0613C20.2097 43.7595 19.5175 43.6719 19.0905 44.3103C18.6235 45.0085 19.0073 46.4202 19.339 47.133Z" fill="#474542"/>
<path d="M23.8186 39.1745L29.1904 44.0046C30.0663 43.8561 31.0295 43.7539 31.6874 43.0222C33.2921 41.2376 31.5158 38.5108 30.0881 37.2271C28.6604 35.9433 25.984 34.8279 24.4114 36.5769C23.7856 37.2729 23.7379 38.2951 23.8186 39.1745ZM29.5796 44.6127L29.686 46.9353L29.4934 47.1494L18.8211 37.5535C17.2684 36.1575 17.1152 36.4715 15.8866 37.6584L15.3691 37.193L17.1279 33.1909L23.0708 38.5344C23.0078 37.3482 23.3211 35.887 24.1395 34.9768C26.1453 32.746 29.5958 33.7184 31.5411 35.4674C33.5935 37.3128 35.1847 41.0351 33.0505 43.4087C32.184 44.3724 30.8034 44.6157 29.5796 44.6127Z" fill="#474542"/>
<path d="M40.0145 27.981L33.706 33.1188C35.1912 34.9425 37.9285 37.2013 40.2546 35.3069C41.5015 34.2914 42.02 32.7239 41.9274 31.1279L42.4862 31.168C42.7504 33.0886 42.1904 35.0613 40.6644 36.3041C38.0591 38.4259 34.4332 37.8503 32.3569 35.3009C30.417 32.9189 30.0726 29.1136 32.6779 26.9918C35.0041 25.0973 38.2261 25.7851 40.0145 27.981ZM33.2231 32.3359L37.5591 28.8046C36.625 27.4296 34.7785 26.3025 33.1595 27.6211C31.5777 28.9093 32.2297 31.0401 33.2231 32.3359Z" fill="#474542"/>
<path d="M40.6354 21.091L45.4679 28.5409C46.6956 30.4336 46.7739 30.5544 48.2476 29.8273L48.6264 30.4112L44.1161 33.3369L43.7243 32.7328C44.989 31.6836 44.8976 31.5427 43.6829 29.6701L40.8879 25.3612C40.1353 24.3333 39.867 23.9638 38.6388 24.7605L38.3253 24.2772L40.6354 21.091ZM38.6093 17.5706C39.0795 18.2955 38.8673 19.2913 38.1424 19.7615C37.3974 20.2448 36.4146 20.0527 35.9314 19.3077C35.4481 18.5627 35.6402 17.5799 36.3852 17.0966C37.1302 16.6134 38.1261 16.8256 38.6093 17.5706Z" fill="#474542"/>
<path d="M48.5809 26.6833L43.2969 17.0994C42.2888 15.2709 42.0409 15.5172 40.4907 16.2349L40.1547 15.6254L43.1301 12.4227L50.4304 25.6635C51.5197 27.6392 51.5892 27.7653 53.1321 27.1339L53.4681 27.7433L48.7603 30.339L48.4242 29.7295C49.7397 28.785 49.6702 28.6589 48.5809 26.6833Z" fill="#474542"/>
<path d="M53.5887 24.0861L48.9843 14.1578C48.1059 12.2636 47.8414 12.4921 46.2451 13.1001L45.9523 12.4687L49.1434 9.48085L55.5047 23.1976C56.4538 25.2442 56.5144 25.3748 58.0975 24.8523L58.3903 25.4837L53.5133 27.7455L53.2204 27.1141C54.5984 26.2634 54.5378 26.1328 53.5887 24.0861Z" fill="#474542"/>
<path d="M65.8992 15.7486L58.2219 18.4417C59.0004 20.6611 60.8091 23.7146 63.6399 22.7216C65.1573 22.1893 66.1769 20.8906 66.6311 19.3578L67.1432 19.5851C66.7402 21.4814 65.5442 23.1472 63.6871 23.7987C60.5165 24.9108 57.3009 23.1394 56.2125 20.0367C55.1957 17.1379 56.1626 13.4415 59.3332 12.3293C62.1641 11.3363 64.9618 13.0763 65.8992 15.7486ZM58.0332 17.5414L63.31 15.6904C62.8977 14.0801 61.543 12.3934 59.5727 13.0846C57.6477 13.7598 57.5383 15.9855 58.0332 17.5414Z" fill="#474542"/>
<path d="M80.6998 17.2613L79.612 10.1439C78.8663 9.55381 77.7228 8.9031 76.7501 9.05177C74.4251 9.40713 74.285 12.779 74.5569 14.5584C74.8398 16.4089 75.9188 19.4973 78.2912 19.1347C79.2639 18.986 80.1644 18.0472 80.6998 17.2613ZM79.4633 9.17121L78.8904 5.42274C78.5749 3.35872 78.2573 3.50438 76.5547 3.64321L76.4496 2.9552L80.3472 0.975586L82.6317 15.922C82.9725 18.1521 82.9943 18.2945 84.6365 18.2377L84.7417 18.9257L81.0407 19.4914L80.834 18.1391C80.0904 19.151 79.064 20.0606 77.8303 20.2491C74.6512 20.735 72.7274 17.6786 72.3104 14.9503C71.6033 10.324 74.1269 8.40874 75.8113 8.15128C77.1636 7.94459 78.3637 8.48953 79.4633 9.17121Z" fill="#474542"/>
<path d="M94.9228 12.0686L86.7908 12.3227C86.8643 14.6736 87.6686 18.1301 90.6672 18.0364C92.2744 17.9862 93.638 17.0552 94.533 15.7305L94.9528 16.1016C93.997 17.7883 92.3546 19.0162 90.3875 19.0777C87.0292 19.1826 84.4969 16.5244 84.3942 13.238C84.2982 10.1675 86.3343 6.93435 89.6926 6.8294C92.6911 6.73569 94.8344 9.23797 94.9228 12.0686ZM86.8822 11.4074L92.4715 11.2327C92.5637 9.57306 91.7803 7.55654 89.6934 7.62176C87.6544 7.68548 86.8792 9.77472 86.8822 11.4074Z" fill="#474542"/>
<path d="M106.125 10.9815L105.441 15.5142C105.043 18.1484 105.283 18.8155 107.561 19.1592L107.443 19.9424L100.252 18.8575L100.37 18.0743C102.269 18.3608 102.694 17.7939 103.092 15.1597L104.495 5.85698C104.889 3.24652 104.653 2.55565 102.755 2.2692L102.873 1.48607L115.403 3.3766L116.35 7.71845L115.723 8.01222C114.061 4.8731 113.292 3.85897 109.59 3.3004C107.43 2.97457 107.203 3.83831 106.852 6.16399L106.243 10.1983L107.216 10.3451C109.447 10.6817 111.026 10.5074 111.579 7.9695L112.244 8.06976L111.216 14.8807L110.528 14.7768C111.01 11.7428 108.99 11.2925 107.098 11.1283L106.125 10.9815Z" fill="#474542"/>
<path d="M118.591 13.8576L117.284 18.6756C116.694 20.853 116.656 20.992 118.158 21.5981L117.976 22.2698L112.857 20.8819L113.039 20.2101C114.618 20.4393 114.656 20.3003 115.246 18.123L116.596 13.1428C116.86 11.8962 116.956 11.4499 115.543 11.0667L115.693 10.5108L119.608 10.1051L118.867 12.8384C120.042 11.9883 121.878 10.7205 123.407 11.1351C124.171 11.3423 124.699 12.0572 124.479 12.8679C124.284 13.586 123.641 14.0332 122.876 13.826C122.065 13.6061 121.928 12.9222 121.186 12.7213C120.376 12.5015 119.16 13.3158 118.591 13.8576Z" fill="#474542"/>
<path d="M129.512 26.4101L130.161 24.8349C128.845 25.3823 127.281 25.7754 125.906 25.2079C124.996 24.8326 124.179 24.1062 123.985 23.0657C123.788 21.9716 124.227 20.9066 124.648 19.8861L126.278 15.937C126.696 14.7337 126.848 14.303 125.494 13.7446L125.714 13.2122L129.649 13.3037L126.363 21.2684C125.877 22.4443 125.858 23.8124 127.212 24.3707C128.299 24.8192 129.53 24.2888 130.524 23.8939L132.711 18.5915C133.13 17.3882 133.282 16.9575 131.928 16.3991L132.148 15.8667L136.083 15.9582L132.696 24.167C131.835 26.2524 131.78 26.3856 133.238 27.1946L132.973 27.838L129.512 26.4101Z" fill="#474542"/>
<path d="M141.838 18.985L137.635 26.8073C136.567 28.7946 136.499 28.9214 137.846 29.863L137.516 30.4761L132.781 27.9315L133.121 27.2973C134.65 27.9006 134.729 27.7526 135.786 25.7865L138.217 21.2622C138.755 20.1076 138.95 19.6946 137.661 19.0017L137.933 18.4943L141.838 18.985ZM143.948 15.5143C143.539 16.2754 142.564 16.5688 141.803 16.1599C141.021 15.7396 140.716 14.7857 141.136 14.0035C141.557 13.2212 142.51 12.9164 143.293 13.3367C144.075 13.757 144.368 14.7321 143.948 15.5143Z" fill="#474542"/>
<path d="M144.599 21.9905L143.122 21.0497L143.431 20.5638C145.329 20.8899 147.232 19.9109 148.394 18.4882L149.062 18.9135L146.806 22.4565L149.641 24.2609L149.216 24.929L146.381 23.1247L142.476 29.2592C141.896 30.1702 140.944 31.442 142.199 32.2411C142.989 32.7437 143.797 32.5469 144.625 32.3629L144.712 32.987C143.388 33.3678 141.861 33.5332 140.626 32.747C138.844 31.6129 139.509 29.9876 140.424 28.5502L144.599 21.9905Z" fill="#474542"/>
<path d="M156.385 28.9279L155.056 32.8616L154.41 32.7499C154.423 30.8344 154.377 28.5671 152.851 27.3633C152.116 26.7837 150.961 26.698 150.352 27.4707C148.538 29.7698 155.139 33.5694 152.42 37.0181C151.142 38.6387 148.611 38.6301 147.104 37.4412C146.633 37.0697 146.398 36.6703 146.068 36.1965C145.901 35.9428 145.75 35.6702 145.505 35.477C145.109 35.165 144.598 35.0373 144.07 35.0485L145.428 30.9234L146.006 31.0431C145.786 32.7951 146.294 35.7939 147.707 36.9085C148.574 37.5921 149.886 37.5567 150.584 36.671C152.502 34.24 145.808 30.6734 148.498 27.2625C149.762 25.6606 152.079 25.7457 153.567 26.9197C154.246 27.4547 154.668 28.2764 155.195 28.6925C155.553 28.9749 155.951 29.0134 156.385 28.9279Z" fill="#474542"/>
</svg>
