<svg width="129" height="72" viewBox="0 0 129 72" fill="none" xmlns="http://www.w3.org/2000/svg">
<path d="M0.856567 60.0863L4.6304 59.275L4.79681 59.8041C3.23759 60.6711 1.16008 62.3324 0.892589 64.1932C0.420208 67.4795 3.83004 68.9193 6.48277 69.3006C9.33347 69.7104 13.4044 68.8003 13.891 65.4151C14.1955 63.2969 12.9326 61.6808 11.3752 60.4264L11.6725 60.0448C13.8548 61.4496 15.3718 63.6882 14.9904 66.341C14.4298 70.2409 10.8473 72.2516 7.14535 71.7195C5.34386 71.4605 3.62775 70.6077 2.26834 69.3818C0.832596 68.1247 -0.240629 66.3136 0.0467835 64.3141C0.146382 63.6213 0.378742 63.1293 0.599718 62.7165C0.823541 62.284 1.01903 61.908 1.07879 61.4923C1.15278 60.9775 1.01172 60.5532 0.856567 60.0863Z" fill="#474542"/>
<path d="M17.3144 56.6863C16.4983 59.1127 13.5547 60.0851 11.2231 59.3008C8.75872 58.472 6.76688 55.9873 7.66587 53.3145C8.55212 50.6795 11.6594 49.9733 14.0669 50.783C16.4933 51.5991 18.1624 54.1651 17.3144 56.6863ZM16.6888 56.4759C17.3519 54.5044 14.5224 53.0674 13.0627 52.5765C11.6789 52.111 8.91627 51.6672 8.29144 53.5249C7.64747 55.4395 9.99033 56.755 11.45 57.246C12.7959 57.6987 16.0704 58.3147 16.6888 56.4759Z" fill="#474542"/>
<path d="M13.8669 46.4177L17.5784 48.2966C19.2557 49.1457 19.3628 49.1999 20.1107 48.0766L20.6282 48.3386L18.6319 52.2821L18.1144 52.0201C18.5679 50.7702 18.4608 50.716 16.7835 49.8669L12.947 47.9247C11.9742 47.4995 11.6262 47.3457 11.0751 48.4342L10.6469 48.2174L10.9762 44.9543L13.0817 46.0203C12.5863 44.9176 11.8614 43.2057 12.4576 42.028C12.7557 41.4391 13.4281 41.1294 14.0526 41.4456C14.6058 41.7256 14.8622 42.3261 14.5641 42.915C14.2479 43.5395 13.6665 43.5366 13.3775 44.1076C13.0613 44.7322 13.5208 45.8614 13.8669 46.4177Z" fill="#474542"/>
<path d="M16.953 39.1112L21.8631 42.5942C22.5739 42.3873 23.3615 42.2104 23.8359 41.5415C24.993 39.9103 23.2611 37.8235 21.9561 36.8978C20.6511 35.9721 18.3286 35.3054 17.1946 36.9041C16.7433 37.5403 16.8019 38.391 16.953 39.1112ZM22.2436 43.0603L22.5545 44.9727L22.4156 45.1685L12.6606 38.2488C11.2414 37.2421 11.1447 37.5167 10.2416 38.6171L9.76849 38.2815L10.8405 34.7999L16.2726 38.6531C16.1067 37.6772 16.2259 36.4376 16.816 35.6056C18.2624 33.5666 21.212 34.0405 22.9901 35.3018C24.8661 36.6325 26.5403 39.5611 25.0013 41.7307C24.3765 42.6116 23.2569 42.9454 22.2436 43.0603Z" fill="#474542"/>
<path d="M29.5676 28.0436L24.8113 32.8753C26.208 34.2503 28.6816 35.8714 30.4354 34.0898C31.3754 33.1349 31.6619 31.7891 31.4394 30.4756L31.906 30.4578C32.3001 32.0245 32.0164 33.7097 30.8659 34.8784C28.9016 36.8738 25.8456 36.7281 23.893 34.8059C22.0686 33.01 21.436 29.8895 23.4003 27.8941C25.1541 26.1125 27.8858 26.388 29.5676 28.0436ZM24.3398 32.2709L27.6089 28.95C26.7097 27.8964 25.0773 27.1313 23.8566 28.3713C22.664 29.5828 23.3987 31.2883 24.3398 32.2709Z" fill="#474542"/>
<path d="M29.6585 22.1019L34.3225 27.8471C35.5074 29.3067 35.583 29.3999 36.7398 28.6669L37.1053 29.1172L33.6271 31.9408L33.249 31.475C34.204 30.4936 34.1158 30.3849 32.9435 28.9409L30.2459 25.618C29.5313 24.8328 29.2762 24.5504 28.329 25.3194L28.0265 24.9467L29.6585 22.1019ZM27.6679 19.3643C28.1217 19.9233 28.0341 20.7673 27.4751 21.2211C26.9006 21.6875 26.0692 21.6154 25.6028 21.0409C25.1364 20.4663 25.2085 19.635 25.783 19.1686C26.3576 18.7022 27.2015 18.7898 27.6679 19.3643Z" fill="#474542"/>
<path d="M36.8843 25.9401L31.6742 18.4549C30.6801 17.0268 30.496 17.2524 29.2734 17.9816L28.9421 17.5055L31.1306 14.5932L38.3288 24.9347C39.4028 26.4777 39.4714 26.5762 40.6954 25.9191L41.0268 26.3952L37.3498 28.9545L37.0185 28.4785C38.0269 27.5816 37.9583 27.4832 36.8843 25.9401Z" fill="#474542"/>
<path d="M40.9379 23.2708L36.2763 15.4322C35.3869 13.9367 35.1871 14.1485 33.9155 14.7884L33.6191 14.2899L36.0102 11.5415L42.4506 22.3712C43.4116 23.987 43.4729 24.0902 44.7408 23.5223L45.0373 24.0208L41.1867 26.3107L40.8902 25.8122C41.9602 24.9898 41.8989 24.8866 40.9379 23.2708Z" fill="#474542"/>
<path d="M50.6572 15.2282L44.5109 18.0904C45.3383 19.8672 47.0883 22.2512 49.3547 21.1959C50.5694 20.6302 51.3086 19.4697 51.5598 18.1614L52.0031 18.3079C51.8242 19.9135 50.9687 21.3929 49.482 22.0853C46.9437 23.2673 44.1319 22.0615 42.9753 19.5777C41.8946 17.2569 42.3937 14.1123 44.932 12.9303C47.1983 11.8749 49.6609 13.0888 50.6572 15.2282ZM44.2808 17.3592L48.5052 15.392C48.0314 14.0903 46.7698 12.8025 45.1925 13.537C43.6514 14.2547 43.7429 16.1094 44.2808 17.3592Z" fill="#474542"/>
<path d="M63.4418 15.2115L62.0066 9.38568C61.3435 8.9517 60.3458 8.49716 59.5496 8.69331C57.6465 9.16217 57.7824 11.9712 58.1412 13.4277C58.5144 14.9424 59.641 17.425 61.5829 16.9465C62.3791 16.7504 63.0563 15.9038 63.4418 15.2115ZM61.8104 8.58949L61.0545 5.52123C60.6383 3.83175 60.3856 3.97641 58.9829 4.21899L58.8441 3.65583L61.931 1.72126L64.945 13.9554C65.3947 15.7809 65.4234 15.8974 66.7822 15.7274L66.921 16.2906L63.8916 17.0369L63.6189 15.93C63.0774 16.8255 62.2935 17.6572 61.2837 17.906C58.6815 18.547 56.8562 16.1542 56.306 13.921C55.373 10.1342 57.3243 8.35584 58.7031 8.01616C59.81 7.74346 60.8468 8.10597 61.8104 8.58949Z" fill="#474542"/>
<path d="M75.1121 9.86522L68.376 10.6351C68.5985 12.5824 69.5041 15.3978 71.9879 15.1139C73.3193 14.9618 74.3877 14.0948 75.04 12.9332L75.4142 13.2126C74.7363 14.679 73.4566 15.8117 71.8273 15.9979C69.0454 16.3158 66.7597 14.2822 66.4485 11.5599C66.1579 9.01649 67.6266 6.19145 70.4085 5.87351C72.8923 5.58963 74.8442 7.52048 75.1121 9.86522ZM68.389 9.86865L73.0189 9.33951C72.9814 7.9548 72.1923 6.33393 70.4635 6.53151C68.7745 6.72454 68.2744 8.5129 68.389 9.86865Z" fill="#474542"/>
<path d="M84.7786 8.27763L84.4623 12.0845C84.2785 14.2969 84.5145 14.8383 86.4279 14.9973L86.3732 15.655L80.334 15.1532L80.3887 14.4955C81.9832 14.628 82.3053 14.1329 82.4891 11.9206L83.1383 4.10748C83.3205 1.91503 83.0862 1.3537 81.4917 1.22121L81.5463 0.563477L92.0701 1.43793L93.099 4.99536L92.5942 5.27451C91.0373 2.75694 90.3412 1.95655 87.2319 1.69818C85.4181 1.54747 85.2771 2.27831 85.1148 4.23158L84.8333 7.6199L85.6505 7.6878C87.524 7.84348 88.8278 7.61064 89.1462 5.46966L89.7042 5.51603L89.2289 11.2363L88.6509 11.1883C88.8828 8.63873 87.1787 8.37672 85.5958 8.34554L84.7786 8.27763Z" fill="#474542"/>
<path d="M95.583 10.0523L94.7181 14.1213C94.3272 15.9603 94.3023 16.0776 95.5797 16.5127L95.4591 17.0801L91.1357 16.1611L91.2563 15.5938C92.5807 15.7117 92.6057 15.5943 92.9966 13.7554L93.8906 9.54939C94.0523 8.50008 94.1117 8.12422 92.9184 7.87057L93.0182 7.40106L96.2566 6.88306L95.766 9.19148C96.7048 8.43004 98.1738 7.29056 99.465 7.56501C100.111 7.70223 100.582 8.27276 100.437 8.95747C100.308 9.56392 99.793 9.96567 99.1474 9.82845C98.4627 9.68291 98.3165 9.12022 97.6905 8.98715C97.0058 8.84161 96.032 9.57518 95.583 10.0523Z" fill="#474542"/>
<path d="M105.402 20.1246L105.887 18.7901C104.811 19.2925 103.522 19.6754 102.357 19.2517C101.586 18.9715 100.88 18.3957 100.682 17.5362C100.479 16.6323 100.807 15.7301 101.121 14.8655L102.338 11.5197C102.643 10.503 102.754 10.1391 101.608 9.72219L101.772 9.27108L105.051 9.20768L102.598 15.9555C102.235 16.9517 102.268 18.0914 103.415 18.5083C104.336 18.8432 105.342 18.3578 106.155 17.9938L107.789 13.5015C108.094 12.4848 108.205 12.1209 107.059 11.704L107.223 11.2529L110.502 11.1895L107.973 18.1441C107.331 19.911 107.29 20.0237 108.532 20.6456L108.334 21.1907L105.402 20.1246Z" fill="#474542"/>
<path d="M115.603 13.6496L112.318 20.2807C111.484 21.9654 111.431 22.0729 112.578 22.8199L112.321 23.3397L108.306 21.3512L108.573 20.8136C109.862 21.2738 109.925 21.1484 110.75 19.4816L112.65 15.6463C113.067 14.6698 113.217 14.3204 112.124 13.7789L112.337 13.3488L115.603 13.6496ZM117.264 10.7007C116.945 11.3459 116.141 11.6172 115.496 11.2976C114.833 10.9692 114.552 10.1831 114.881 9.52002C115.209 8.85691 115.995 8.57669 116.658 8.90514C117.322 9.23359 117.593 10.0376 117.264 10.7007Z" fill="#474542"/>
<path d="M118.157 16.1795L116.904 15.4286L117.151 15.017C118.739 15.2464 120.303 14.3885 121.239 13.1775L121.805 13.517L120.005 16.5186L122.407 17.9586L122.067 18.5247L119.666 17.0846L116.549 22.2818C116.087 23.0537 115.322 24.1343 116.385 24.772C117.054 25.1731 117.723 24.9912 118.409 24.8195L118.495 25.3374C117.401 25.6841 116.132 25.8559 115.086 25.2285C113.576 24.3234 114.094 22.9547 114.824 21.7369L118.157 16.1795Z" fill="#474542"/>
<path d="M128.304 21.8656L127.263 25.1655L126.723 25.0833C126.702 23.4872 126.625 21.5989 125.333 20.6217C124.711 20.1512 123.747 20.0993 123.253 20.7533C121.781 22.6994 127.345 25.7538 125.137 28.673C124.1 30.0448 121.991 30.0803 120.715 29.1152C120.316 28.8136 120.114 28.4848 119.831 28.0957C119.688 27.8871 119.557 27.6625 119.35 27.5057C119.015 27.2524 118.587 27.1546 118.147 27.1729L119.209 23.7131L119.693 23.8031C119.539 25.2665 120.013 27.7564 121.209 28.6612C121.943 29.2161 123.035 29.1645 123.602 28.4148C125.158 26.357 119.522 23.4984 121.705 20.6111C122.731 19.2552 124.663 19.287 125.923 20.2401C126.497 20.6744 126.862 21.3518 127.309 21.6896C127.612 21.9188 127.944 21.9442 128.304 21.8656Z" fill="#474542"/>
</svg>
