<svg width="208" height="74" viewBox="0 0 208 74" fill="none" xmlns="http://www.w3.org/2000/svg">
<path d="M5.94455 45.1947L11.9216 46.7502L11.7788 47.626C8.92672 47.7433 4.7625 48.623 3.04148 51.09C0.00224185 55.4466 3.83957 59.9574 7.35638 62.4108C11.1356 65.0472 17.6082 66.6753 20.739 62.1874C22.698 59.3792 22.0558 56.161 20.7325 53.2479L21.4319 52.9165C23.5402 56.4942 24.0976 60.7847 21.6442 64.3015C18.0374 69.4718 11.4709 69.7681 6.56312 66.3444C4.17484 64.6783 2.33582 62.2248 1.27495 59.4949C0.127411 56.6655 -0.103438 53.305 1.74574 50.6543C2.38654 49.7357 3.07253 49.1998 3.68527 48.7689C4.31633 48.3117 4.86622 47.915 5.2507 47.3638C5.72673 46.6815 5.83045 45.9735 5.94455 45.1947Z" fill="#474542"/>
<path d="M30.9589 53.4184C28.0344 56.2863 23.1314 55.5369 20.3755 52.7266C17.4628 49.7565 16.4254 44.7681 19.6469 41.6089C22.8227 38.4946 27.7662 39.7422 30.6116 42.6439C33.4795 45.5683 33.9976 50.4385 30.9589 53.4184ZM30.2195 52.6645C32.5957 50.3343 29.6035 46.2319 27.8783 44.4727C26.2428 42.8048 22.6254 40.1672 20.3863 42.3629C18.0787 44.6258 20.465 48.2018 22.1902 49.9611C23.781 51.5832 28.0033 54.8378 30.2195 52.6645Z" fill="#474542"/>
<path d="M32.6922 36.8728L36.6924 42.1927C38.5001 44.5969 38.6155 44.7504 40.483 43.6665L41.0407 44.4082L35.3883 48.6583L34.8306 47.9166C36.3648 46.4427 36.2494 46.2892 34.4416 43.8851L30.3069 38.3861C29.2109 37.0883 28.8199 36.6215 27.2598 37.7946L26.7982 37.1808L29.5768 32.7294L31.8461 35.7474C31.9141 33.8145 32.0833 30.8447 33.7713 29.5755C34.6153 28.9408 35.7994 28.9714 36.4725 29.8666C37.0686 30.6594 37.0123 31.7027 36.1683 32.3373C35.2731 33.0104 34.4406 32.5955 33.6222 33.2109C32.727 33.8839 32.5886 35.8297 32.6922 36.8728Z" fill="#474542"/>
<path d="M41.4336 29.0127L46.2131 37.3751C47.384 37.5537 48.6463 37.8274 49.7853 37.1764C52.5636 35.5885 51.4558 31.3932 50.1855 29.1706C48.9152 26.948 45.9937 24.416 43.271 25.9721C42.1875 26.5914 41.6994 27.8656 41.4336 29.0127ZM46.4514 38.3079L45.6142 41.2927L45.2808 41.4833L35.7852 24.8694C34.4037 22.4523 34.0783 22.7858 32.0263 23.7743L31.5658 22.9686L35.4671 18.6379L40.7548 27.8895C41.1714 26.3613 42.1794 24.6426 43.5963 23.8328C47.0691 21.8479 51.0305 24.5227 52.7613 27.551C54.5874 30.746 55.0443 36.1241 51.3493 38.236C49.849 39.0934 47.9994 38.8237 46.4514 38.3079Z" fill="#474542"/>
<path d="M66.1813 21.4417L56.1403 25.5476C57.3272 28.4503 59.9424 32.3938 63.6448 30.8799C65.6293 30.0684 66.8991 28.27 67.4002 26.1982L68.0975 26.4662C67.6892 29.0187 66.2093 31.3178 63.7805 32.311C59.6338 34.0066 55.2319 31.8654 53.5726 27.8075C52.0223 24.0162 53.0597 19.0285 57.2065 17.3329C60.9089 15.819 64.7521 17.9466 66.1813 21.4417ZM55.8281 24.3615L62.7295 21.5395C62.0715 19.4231 60.1534 17.2688 57.5765 18.3225C55.0589 19.3519 55.0638 22.3231 55.8281 24.3615Z" fill="#474542"/>
<path d="M69.2865 12.8825L72.7521 24.2039C73.6326 27.0802 73.6888 27.2638 75.8444 26.8716L76.116 27.759L69.262 29.8571L68.981 28.9391C70.9867 28.0574 70.9212 27.8432 70.0501 24.9976L68.0456 18.4495C67.4574 16.8559 67.2488 16.2839 65.3823 16.8552L65.1575 16.1209L69.2865 12.8825ZM67.9789 7.62703C68.3161 8.72858 67.6791 9.92753 66.5776 10.2647C65.4455 10.6113 64.2559 10.0049 63.9093 8.87279C63.5627 7.74065 64.1691 6.55106 65.3012 6.2045C66.4334 5.85793 67.6323 6.49489 67.9789 7.62703Z" fill="#474542"/>
<path d="M77.3306 22.9738L73.9291 8.7838C73.2802 6.0765 72.8744 6.3054 70.6276 6.67943L70.4113 5.77699L75.3696 2.71277L80.069 22.3174C80.7702 25.2425 80.815 25.4292 83.0218 25.1635L83.2382 26.0659L76.2676 27.7368L76.0513 26.8344C78.0766 26.0857 78.0318 25.8989 77.3306 22.9738Z" fill="#474542"/>
<path d="M84.5241 21.4018L81.9953 7.03056C81.5128 4.28869 81.0937 4.49239 78.8284 4.72856L78.6676 3.8146L83.8037 1.05879L87.2975 20.9137C87.8188 23.8762 87.8521 24.0653 90.071 23.9348L90.2319 24.8487L83.1723 26.091L83.0115 25.177C85.0787 24.5533 85.0454 24.3642 84.5241 21.4018Z" fill="#474542"/>
<path d="M102.968 14.8102L92.1598 15.7349C92.4271 18.8595 93.7472 23.4035 97.7327 23.0625C99.8689 22.8798 101.617 21.5419 102.713 19.7138L103.299 20.1775C102.148 22.4921 100.05 24.2453 97.4355 24.469C92.9718 24.8509 89.4087 21.4944 89.035 17.1263C88.6858 13.0453 91.1634 8.59386 95.6271 8.21197C99.6125 7.871 102.646 11.0479 102.968 14.8102ZM92.2155 14.5097L99.6444 13.8741C99.6475 11.6578 98.4591 9.02954 95.6852 9.26685C92.9751 9.49872 92.0938 12.3362 92.2155 14.5097Z" fill="#474542"/>
<path d="M120.833 21.6321L121.785 12.0794C121.017 11.0704 119.755 9.85129 118.45 9.72121C115.329 9.41028 114.032 13.7189 113.794 16.107C113.546 18.5907 113.917 22.9369 117.102 23.2542C118.407 23.3843 119.881 22.4699 120.833 21.6321ZM121.915 10.7739L122.416 5.74281C122.692 2.97253 122.233 3.05548 119.989 2.67101L120.081 1.74758L125.77 0.481445L123.771 20.5421C123.473 23.5353 123.454 23.7263 125.594 24.1968L125.502 25.1203L120.535 24.6253L120.715 22.8103C119.42 23.8711 117.793 24.7059 116.137 24.5409C111.87 24.1158 110.398 19.5312 110.762 15.8693C111.381 9.66007 115.275 8.02203 117.536 8.24729C119.351 8.42813 120.72 9.52934 121.915 10.7739Z" fill="#474542"/>
<path d="M140.261 19.6696L129.7 17.1869C128.983 20.2397 128.824 24.9689 132.718 25.8844C134.805 26.3751 136.883 25.6473 138.493 24.2507L138.906 24.8736C137.092 26.7155 134.553 27.7292 131.998 27.1287C127.637 26.1034 125.295 21.8052 126.298 17.5375C127.235 13.5503 130.974 10.0902 135.336 11.1155C139.229 12.0309 141.125 15.9938 140.261 19.6696ZM130.134 16.0398L137.393 17.7462C138.085 15.6408 137.773 12.7732 135.063 12.1361C132.415 11.5136 130.695 13.9362 130.134 16.0398Z" fill="#474542"/>
<path d="M153.949 22.0517L151.325 27.572C149.801 30.7801 149.848 31.7238 152.623 33.0425L152.169 33.9963L143.412 29.8343L143.865 28.8805C146.178 29.9794 146.939 29.4202 148.464 26.2121L153.848 14.8825C155.359 11.7033 155.326 10.7307 153.014 9.6318L153.467 8.67803L168.727 15.9306L168.258 21.8373L167.345 21.97C166.436 17.3219 165.846 15.7306 161.337 13.5878C158.707 12.3378 158.083 13.3522 156.737 16.1846L154.402 21.0979L155.587 21.6611C158.304 22.9523 160.387 23.3401 162.073 20.3148L162.882 20.6994L158.94 28.9943L158.102 28.5959C159.889 24.9102 157.486 23.5555 155.134 22.6149L153.949 22.0517Z" fill="#474542"/>
<path d="M168.069 30.3376L164.404 35.8937C162.748 38.4047 162.642 38.5649 164.291 39.9592L163.78 40.7338L157.876 36.8398L158.387 36.0651C160.291 37.0144 160.397 36.8541 162.053 34.3432L165.841 28.6001C166.695 27.1315 167.003 26.6063 165.374 25.5315L165.797 24.8904L170.923 26.0103L168.844 29.1623C170.687 28.5764 173.541 27.737 175.304 28.8999C176.185 29.4814 176.555 30.6068 175.938 31.5417C175.392 32.3698 174.391 32.6675 173.509 32.0861C172.574 31.4694 172.685 30.5458 171.83 29.982C170.895 29.3653 169.016 29.8892 168.069 30.3376Z" fill="#474542"/>
<path d="M175.684 50.3563L177.205 48.6681C175.307 48.7673 173.166 48.5619 171.692 47.2341C170.717 46.356 170.016 45.0784 170.238 43.6847C170.479 42.222 171.507 41.0807 172.492 39.987L176.304 35.7547C177.368 34.4303 177.751 33.9571 176.3 32.6507L176.814 32.08L181.716 33.9539L174.027 42.4898C172.892 43.75 172.257 45.4599 173.707 46.7663C174.872 47.8157 176.656 47.6999 178.081 47.6481L183.199 41.9654C184.263 40.641 184.646 40.1678 183.196 38.8614L183.71 38.2908L188.611 40.1646L180.687 48.9621C178.674 51.1971 178.545 51.3398 180.015 53.0077L179.394 53.6973L175.684 50.3563Z" fill="#474542"/>
<path d="M194.063 46.2657L185.187 54.1018C182.932 56.0926 182.789 56.2197 184.037 58.0203L183.341 58.6345L178.597 53.261L179.317 52.6257C180.949 54.0875 181.117 53.9392 183.348 51.9696L188.481 47.4374C189.689 46.2429 190.124 45.8165 188.832 44.3532L189.408 43.8449L194.063 46.2657ZM198.308 42.9024C197.444 43.6648 196.089 43.5805 195.327 42.7169C194.543 41.8293 194.604 40.4955 195.491 39.7119C196.379 38.9282 197.713 38.9886 198.496 39.8761C199.28 40.7637 199.196 42.1187 198.308 42.9024Z" fill="#474542"/>
<path d="M195.908 51.0673L194.503 49.2005L195.117 48.7388C197.333 50.0349 200.168 49.7045 202.285 48.4728L202.92 49.3167L198.444 52.6829L201.137 56.2632L200.293 56.898L197.6 53.3177L189.852 59.1462C188.701 60.0118 186.917 61.1535 188.11 62.739C188.86 63.7364 189.961 63.8692 191.081 64.0276L190.896 64.8471C189.066 64.7025 187.081 64.1932 185.908 62.6333C184.215 60.3828 185.806 58.6654 187.622 57.2997L195.908 51.0673Z" fill="#474542"/>
<path d="M207.154 64.9282L203.658 69.2209L202.904 68.7801C203.814 66.3938 204.815 63.5405 203.47 61.3245C202.823 60.2576 201.42 59.6115 200.299 60.2922C196.961 62.3175 203.432 70.144 198.426 73.1819C196.073 74.6096 192.917 73.418 191.589 71.2294C191.174 70.5455 191.066 69.9369 190.876 69.1914C190.786 68.7967 190.724 68.3855 190.508 68.0298C190.16 67.4553 189.581 67.0576 188.916 66.8249L192.538 62.3066L193.204 62.7259C192.111 64.8113 191.346 68.794 192.591 70.8457C193.355 72.1042 195.01 72.6721 196.295 71.8919C199.824 69.7504 193.13 62.172 198.081 59.1672C200.407 57.7562 203.261 58.9438 204.572 61.105C205.17 62.0899 205.313 63.313 205.778 64.079C206.093 64.5988 206.572 64.8324 207.154 64.9282Z" fill="#474542"/>
</svg>
