<svg width="119" height="32" viewBox="0 0 119 32" fill="none" xmlns="http://www.w3.org/2000/svg">
<path d="M7.01432 4.38342L9.06874 7.53177L8.56358 7.93129C7.26321 6.60244 5.39661 5.21543 3.44455 5.65069C1.9805 5.97714 1.10076 7.36179 1.42721 8.82583C1.80589 10.5241 3.75413 10.8069 5.21198 10.9122C7.84133 11.125 10.5075 11.2272 11.1995 14.331C11.7567 16.8297 10.1746 18.9242 7.75404 19.4639C6.52425 19.7381 5.34391 19.4071 4.56308 19.5812C4.13363 19.6769 3.72607 20.0547 3.49855 20.4128L1.22478 16.924L1.74946 16.5201C3.29278 17.8358 5.46314 19.2985 7.49328 18.8458C8.99637 18.5107 10.156 17.1866 9.79473 15.5664C8.78491 11.0376 1.31459 15.1212 0.148085 9.88971C-0.400349 7.43012 0.97796 5.52447 3.39852 4.98475C4.02318 4.84546 4.40066 4.88424 5.03416 4.96839C5.5136 5.00492 5.71105 5.06335 6.14051 4.96759C6.47236 4.8936 6.841 4.70894 7.01432 4.38342Z" fill="#474542"/>
<path d="M16.9346 17.7763C14.4035 18.1596 12.1932 15.986 11.8249 13.5537C11.4356 10.983 12.735 8.07573 15.5233 7.65355C18.2719 7.23736 20.3204 9.67819 20.7007 12.1896C21.0839 14.7207 19.5646 17.3781 16.9346 17.7763ZM16.8358 17.1238C18.8924 16.8124 18.8771 13.6389 18.6466 12.1163C18.428 10.6727 17.56 8.01269 15.6221 8.30611C13.6248 8.60852 13.5257 11.2936 13.7562 12.8163C13.9688 14.2203 14.9177 17.4142 16.8358 17.1238Z" fill="#474542"/>
<path d="M29.0782 16.1581L28.953 14.7436C28.1903 15.6544 27.1851 16.5466 25.9499 16.6559C25.1331 16.7282 24.25 16.5053 23.7066 15.8105C23.1398 15.0776 23.0551 14.1214 22.9739 13.205L22.66 9.65882C22.5067 8.60825 22.4533 8.23149 21.238 8.3391L21.1957 7.86097L24.1397 6.41568L24.773 13.5677C24.8664 14.6236 25.3783 15.6424 26.5935 15.5348C27.5697 15.4484 28.2761 14.5827 28.8589 13.9086L28.4374 9.14727C28.2841 8.09669 28.2307 7.71994 27.0154 7.82754L26.9731 7.34941L29.9171 5.90412L30.5698 13.2753C30.7356 15.148 30.7462 15.2675 32.1349 15.3052L32.186 15.8829L29.0782 16.1581Z" fill="#474542"/>
<path d="M35.6537 5.99298L38.0314 5.88958L38.0601 6.54896L35.6823 6.65236L35.9595 13.0263C36.0412 14.9046 36.0464 15.0244 37.3921 15.1261L38.1114 15.0948L38.1366 15.6743L32.422 15.9228L32.3968 15.3433L32.9563 15.319C34.2881 15.1009 34.2829 14.981 34.2012 13.1028L33.924 6.72882L32.0258 6.81137L31.9971 6.15199L33.8953 6.06945C33.871 5.04954 33.9248 3.98619 34.367 3.10615C34.8804 2.02283 36.0124 0.89258 37.2712 0.837839C37.9106 0.810035 38.6447 1.11843 38.676 1.83775C38.6986 2.35726 38.2746 2.73604 37.7751 2.75776C37.1157 2.78643 36.8638 2.05669 36.2044 2.08536C35.4651 2.11751 35.5268 3.07574 35.5511 3.63521L35.6537 5.99298Z" fill="#474542"/>
<path d="M46.6157 1.04202L48.7394 0.496094L48.657 12.9158C48.6446 14.7958 48.6438 14.9158 50.0627 15.0852L50.0588 15.6652L45.5389 15.6352L45.5428 15.0552C46.8838 14.9041 46.8846 14.7841 46.8971 12.9041L46.953 4.46433C46.9566 3.92435 46.9835 2.8845 46.8067 2.40332C46.5508 1.78161 45.7531 1.43631 45.0931 1.43193C43.5532 1.42172 42.8859 2.51732 42.8764 3.93728L42.8638 5.83724L45.2038 5.85276L45.1994 6.51275L42.8595 6.49723L42.8172 12.8771C42.8047 14.757 42.8028 15.037 44.1428 15.0459L44.4028 15.0477L44.399 15.6276L39.1391 15.5928L39.1429 15.0128C40.7629 15.0235 41.063 15.0055 41.0572 12.8654L41.0995 6.48556L39.2196 6.47309L39.2239 5.8131L41.1039 5.82557L41.1088 5.08559C41.1258 2.52564 42.2176 0.752845 44.9575 0.771017C45.4975 0.774599 46.0772 0.818444 46.6157 1.04202Z" fill="#474542"/>
<path d="M59.4448 10.7336L52.6767 10.3327C52.5608 12.2892 52.9683 15.2185 55.4639 15.3663C56.8016 15.4455 58.0033 14.7754 58.8458 13.7434L59.1663 14.083C58.2461 15.4109 56.7906 16.3064 55.1535 16.2094C52.3584 16.0438 50.4568 13.6472 50.6188 10.912C50.7702 8.35648 52.7032 5.82635 55.4983 5.99192C57.9939 6.13975 59.5844 8.37772 59.4448 10.7336ZM52.8214 9.57991L57.4733 9.85547C57.6747 8.48498 57.1762 6.75247 55.4393 6.64958C53.7423 6.54906 52.9418 8.22466 52.8214 9.57991ZM54.7365 4.98511L55.8369 2.30549C56.0908 1.73952 56.2049 1.16526 56.9436 1.20902C57.2431 1.22676 57.6142 1.38898 57.5929 1.74835C57.5657 2.20755 56.319 3.63633 55.9971 3.99793L55.0652 5.1849L54.7365 4.98511Z" fill="#474542"/>
<path d="M71.7864 2.95313L73.7186 2.72706L75.7656 14.0157C75.9114 14.8249 76.1887 16.5422 76.6403 17.1934C76.9224 17.6181 77.3577 17.8225 77.844 17.9533L77.7496 18.6065L71.93 17.7659L72.0244 17.1126C72.706 17.1505 73.9244 17.5286 74.0731 16.4992C74.1189 16.1825 73.9955 15.4979 73.9196 15.1838L73.4598 12.6318L68.4122 11.9027L68.0462 12.6177C67.7653 13.1631 66.9484 14.6213 66.8655 15.1953C66.7197 16.2049 67.7488 16.495 68.5603 16.6122L68.466 17.2654L63.3986 16.5334L63.4929 15.8802C65.1981 16.1063 65.9699 14.5406 66.6225 13.2405L71.7864 2.95313ZM73.3142 11.6812L72.058 4.71002L68.8604 11.0379L73.3142 11.6812Z" fill="#474542"/>
<path d="M78.9502 16.199L80.7013 7.24871C81.0354 5.54108 80.7452 5.56583 79.3708 5.19504L79.4822 4.62583L83.0967 4.17139L80.6774 16.5369C80.3164 18.382 80.2934 18.4997 81.617 18.9217L81.5056 19.4909L77.109 18.6307L77.2204 18.0615C78.5662 18.1618 78.5892 18.044 78.9502 16.199Z" fill="#474542"/>
<path d="M87.8707 18.9365L88.6334 15.767C87.1967 15.6681 84.8331 16.0868 84.4448 17.7007C84.2248 18.6146 84.7262 19.3524 85.504 19.5395C86.2234 19.7127 87.2536 19.364 87.8707 18.9365ZM88.7878 15.1253L89.0966 13.8419C89.3259 12.8891 89.3982 11.734 88.2315 11.4532C87.2592 11.2193 86.6965 11.7627 86.2814 12.5474C85.9613 13.1081 85.6196 13.4167 84.9196 13.2482C84.3752 13.1172 84.0853 12.6978 84.2116 12.1727C84.6 10.5588 87.0247 10.484 88.2887 10.7882C89.1053 10.9847 90.0643 11.3594 90.5944 12.063C91.154 12.8148 90.9575 13.6315 90.761 14.4482L89.6942 18.8816C89.5819 19.3483 89.376 20.2039 89.9593 20.3442C90.2899 20.4238 90.5794 20.2466 90.8736 20.05L91.0281 20.5191C90.3688 21.1216 89.6311 21.6229 88.7172 21.403C87.9199 21.2112 87.6224 20.4813 87.7224 19.7237C86.6548 20.2279 85.4504 20.6169 84.2837 20.3362C82.9226 20.0086 82.2138 18.8507 82.546 17.4701C83.1683 14.8839 86.7109 15.0369 88.7878 15.1253Z" fill="#474542"/>
<path d="M99.7158 13.8214L99.8786 17.2778L99.3438 17.3872C98.7722 15.8968 98.0481 14.1511 96.498 13.6805C95.7516 13.4538 94.8292 13.7381 94.591 14.5227C93.8821 16.8575 100.158 17.8017 99.0951 21.3039C98.5954 22.9497 96.6293 23.7113 95.0983 23.2464C94.6199 23.1012 94.3161 22.8626 93.9166 22.595C93.7102 22.4487 93.5096 22.2833 93.2608 22.2078C92.859 22.0858 92.4239 22.1418 92.0172 22.3109L91.8186 18.6973L92.3035 18.6146C92.6646 20.0411 93.9696 22.214 95.4049 22.6498C96.2852 22.9171 97.2924 22.4913 97.5655 21.5919C98.3151 19.1232 92.038 18.3877 93.0897 14.9239C93.5836 13.2972 95.4075 12.6596 96.9194 13.1187C97.6083 13.3278 98.1851 13.8374 98.721 14.0001C99.0846 14.1105 99.4048 14.0196 99.7158 13.8214Z" fill="#474542"/>
<path d="M103.16 20.8346L106.374 19.3955C106.788 19.2123 107.516 18.9361 107.703 18.4509C107.876 18.0032 107.631 17.6941 107.004 17.4306L107.213 16.8895L111.56 18.5678L111.351 19.1089C110.105 18.6708 109.2 19.0717 108.058 19.5312L106.07 20.35L107.25 25.1791C107.477 26.1457 107.68 26.953 108.694 27.3233L108.486 27.8644L104.026 26.1428L104.235 25.6017C104.758 25.8034 105.279 25.8974 105.452 25.4496C105.581 25.1138 105.373 24.4329 105.313 24.0882L104.521 20.9741L102.843 21.6555L102.476 22.6071C101.799 24.3609 101.755 24.4728 102.985 25.1191L102.776 25.6602L98.5783 24.0395L98.7871 23.4984C100.114 23.839 100.157 23.727 100.834 21.9732L104.118 13.4652C104.745 11.842 104.455 11.8158 103.166 11.2111L103.375 10.67L107.014 10.8526L103.16 20.8346Z" fill="#474542"/>
<path d="M114.193 28.534L115.639 25.6125C114.26 25.1975 111.863 25.0817 111.126 26.5694C110.709 27.4118 111.035 28.2423 111.751 28.5973C112.415 28.9256 113.496 28.814 114.193 28.534ZM115.932 25.021L116.518 23.8381C116.953 22.9598 117.279 21.8494 116.204 21.317C115.308 20.8733 114.639 21.2784 114.06 21.9515C113.623 22.4273 113.222 22.6525 112.577 22.333C112.075 22.0845 111.885 21.6112 112.125 21.1273C112.861 19.6396 115.242 20.1043 116.407 20.6811C117.16 21.0538 118.012 21.6319 118.373 22.4355C118.752 23.2926 118.379 24.0454 118.007 24.7982L115.983 28.8848C115.77 29.3149 115.38 30.1036 115.918 30.3698C116.222 30.5206 116.544 30.412 116.874 30.2855L116.921 30.7773C116.144 31.2186 115.314 31.5439 114.472 31.1268C113.737 30.763 113.608 29.9853 113.874 29.2687C112.721 29.5237 111.46 29.636 110.385 29.1035C109.13 28.4824 108.696 27.1961 109.326 25.9235C110.506 23.5397 113.927 24.4743 115.932 25.021Z" fill="#474542"/>
</svg>
