<svg width="142" height="35" viewBox="0 0 142 35" fill="none" xmlns="http://www.w3.org/2000/svg">
<path d="M8.91183 3.62654L11.0904 7.57687L10.4503 8.01005C9.01235 6.30417 6.90194 4.47834 4.52719 4.82562C2.74614 5.08608 1.57021 6.66486 1.83068 8.44591C2.13281 10.5119 4.43912 11.0236 6.17437 11.2792C9.30199 11.7678 12.4835 12.1272 13.0357 15.903C13.4802 18.9427 11.4006 21.3085 8.45596 21.7391C6.95987 21.9579 5.5768 21.4568 4.6269 21.5957C4.10446 21.6721 3.58314 22.0879 3.27902 22.4962L0.868257 18.119L1.53206 17.6823C3.26195 19.394 5.72914 21.3375 8.19887 20.9763C10.0274 20.7089 11.5329 19.2275 11.2447 17.2564C10.439 11.747 1.13606 15.9696 0.205337 9.60531C-0.232241 6.61313 1.58665 4.45522 4.53133 4.02459C5.29125 3.91346 5.73954 3.99343 6.49016 4.15047C7.06066 4.23683 7.29175 4.32431 7.81419 4.24791C8.2179 4.18887 8.67548 4.00068 8.91183 3.62654Z" fill="#474542"/>
<path d="M19.5958 20.4173C16.5377 20.7096 14.0327 17.9595 13.7518 15.0209C13.4549 11.9151 15.2036 8.51727 18.5722 8.19528C21.8931 7.87786 24.1866 10.9375 24.4766 13.9717C24.7689 17.0297 22.7733 20.1136 19.5958 20.4173ZM19.5204 19.6289C22.0051 19.3914 22.1961 15.588 22.0202 13.7484C21.8535 12.0043 20.9889 8.75989 18.6476 8.98369C16.2346 9.21433 15.9387 12.425 16.1146 14.2647C16.2767 15.9609 17.203 19.8504 19.5204 19.6289Z" fill="#474542"/>
<path d="M34.2684 19.1403L34.1837 17.4384C33.2271 18.4953 31.9804 19.5185 30.4942 19.5925C29.5115 19.6414 28.4628 19.3332 27.8434 18.4749C27.1976 17.5699 27.1403 16.4193 27.0854 15.3167L26.873 11.05C26.7379 9.78314 26.6912 9.3289 25.229 9.40169L25.2004 8.8264L28.7974 7.22958L29.2258 15.8349C29.2891 17.1053 29.8557 18.3507 31.3179 18.2779C32.4924 18.2195 33.3795 17.2141 34.1096 16.4328L33.8244 10.7039C33.6892 9.43708 33.6426 8.98284 32.1804 9.05563L32.1518 8.48034L35.7488 6.88352L36.1904 15.7525C36.3025 18.0057 36.3097 18.1496 37.9732 18.259L38.0078 18.9541L34.2684 19.1403Z" fill="#474542"/>
<path d="M42.5182 7.17553L45.3738 7.12867L45.3868 7.92057L42.5312 7.96742L42.6568 15.6224C42.6938 17.8781 42.6962 18.0221 44.3071 18.1877L45.171 18.1735L45.1824 18.8694L38.3193 18.982L38.3079 18.2861L38.9798 18.2751C40.5844 18.0567 40.5821 17.9127 40.5451 15.657L40.4195 8.00207L38.1398 8.03947L38.1268 7.24758L40.4065 7.21018C40.4104 5.98595 40.5095 4.71215 41.0685 3.67084C41.7195 2.38799 43.1141 1.06893 44.6259 1.04412C45.3938 1.03153 46.2644 1.4253 46.2785 2.28918C46.2888 2.9131 45.7679 3.3537 45.168 3.36354C44.3761 3.37654 44.0976 2.49299 43.3057 2.50598C42.4178 2.52055 42.4607 3.672 42.4717 4.34391L42.5182 7.17553Z" fill="#474542"/>
<path d="M55.6421 1.49362L58.1997 0.875488L57.885 15.7762C57.8373 18.0317 57.8343 18.1756 59.5339 18.4036L59.5192 19.0994L54.0964 18.9849L54.1111 18.289C55.7228 18.131 55.7258 17.9871 55.7734 15.7316L55.9873 5.60582C56.001 4.95797 56.0513 3.71075 55.8476 3.13032C55.5513 2.3799 54.6002 1.95172 53.8083 1.93499C51.9608 1.89597 51.1411 3.19895 51.1051 4.90257L51.0569 7.18206L53.8643 7.24136L53.8476 8.03318L51.0402 7.97388L50.8785 15.6282C50.8309 17.8837 50.8238 18.2196 52.4314 18.2536L52.7434 18.2601L52.7287 18.956L46.4181 18.8227L46.4328 18.1269C48.3763 18.1679 48.7368 18.1515 48.767 15.5836L48.9287 7.92929L46.6732 7.88165L46.6899 7.08982L48.9454 7.13746L48.9642 6.24966C49.029 3.17834 50.3698 1.07019 53.6571 1.13962C54.305 1.15331 54.9998 1.21599 55.6421 1.49362Z" fill="#474542"/>
<path d="M70.8061 13.1806L62.6849 12.6896C62.543 15.0373 63.0277 18.553 66.0222 18.734C67.6273 18.8311 69.0703 18.0287 70.0828 16.7916L70.4669 17.1995C69.3608 18.7916 67.6129 19.8641 65.6485 19.7453C62.2946 19.5425 60.0162 16.6638 60.2146 13.3818C60.4 10.3154 62.7233 7.28206 66.0772 7.48484C69.0717 7.6659 70.977 10.3538 70.8061 13.1806ZM62.8597 11.7865L68.4415 12.124C68.6852 10.4797 68.0897 8.39996 66.0055 8.27395C63.9692 8.15083 63.0061 10.1604 62.8597 11.7865ZM65.1645 6.27555L66.4889 3.06162C66.7944 2.38283 66.9323 1.69389 67.8186 1.74748C68.178 1.76921 68.623 1.96442 68.597 2.39563C68.5636 2.94663 67.0655 4.65934 66.6787 5.09278L65.5588 6.51578L65.1645 6.27555Z" fill="#474542"/>
<path d="M85.2962 3.64252L87.6088 3.32435L90.339 16.8182C90.5336 17.7855 90.908 19.8391 91.4656 20.6094C91.8144 21.1121 92.3416 21.3467 92.9282 21.4919L92.8309 22.2779L85.8284 21.4107L85.9257 20.6247C86.7444 20.6535 88.2154 21.0775 88.3688 19.839C88.416 19.4579 88.2513 18.6394 88.1527 18.2645L87.539 15.2139L81.4654 14.4617L81.0436 15.3285C80.7199 15.9897 79.7753 17.759 79.6897 18.4497C79.5393 19.6644 80.781 19.9875 81.7575 20.1084L81.6602 20.8944L75.5628 20.1393L75.6601 19.3533C77.7114 19.5832 78.5993 17.6859 79.3507 16.1103L85.2962 3.64252ZM87.3412 14.077L85.6647 5.74375L81.9821 13.4133L87.3412 14.077Z" fill="#474542"/>
<path d="M94.2402 19.3052L95.9805 8.50051C96.3125 6.43908 95.9655 6.48042 94.3023 6.09098L94.4129 5.40384L98.7297 4.71349L96.3253 19.6411C95.9665 21.8684 95.9436 22.0106 97.548 22.4635L97.4373 23.1506L92.1298 22.2957L92.2404 21.6086C93.8585 21.6747 93.8814 21.5325 94.2402 19.3052Z" fill="#474542"/>
<path d="M105.019 22.1488L105.76 18.3077C104.033 18.2677 101.222 18.8987 100.845 20.8546C100.631 21.9622 101.273 22.8192 102.215 23.001C103.087 23.1693 104.303 22.695 105.019 22.1488ZM105.91 17.53L106.211 15.9747C106.433 14.82 106.457 13.4313 105.043 13.1585C103.865 12.9312 103.22 13.6134 102.765 14.5767C102.412 15.2663 102.019 15.6549 101.171 15.4912C100.511 15.3639 100.141 14.8769 100.263 14.2407C100.641 12.2847 103.543 12.0626 105.075 12.3581C106.065 12.5491 107.235 12.9459 107.909 13.7603C108.621 14.631 108.43 15.6207 108.239 16.6104L107.202 21.9834C107.093 22.5489 106.893 23.5858 107.6 23.7222C108.001 23.7995 108.338 23.5713 108.68 23.3195L108.891 23.8735C108.133 24.6317 107.276 25.273 106.169 25.0593C105.203 24.8729 104.806 24.0142 104.885 23.1006C103.632 23.7633 102.21 24.2955 100.796 24.0227C99.1463 23.7044 98.2334 22.3551 98.5562 20.6819C99.1609 17.5477 103.416 17.5376 105.91 17.53Z" fill="#474542"/>
<path d="M118.853 15.2012L119.307 19.3285L118.675 19.4996C117.878 17.7577 116.88 15.7214 114.988 15.2742C114.077 15.0588 112.994 15.4686 112.768 16.4262C112.094 19.2757 119.682 19.935 118.672 24.2092C118.197 26.2178 115.899 27.2777 114.031 26.836C113.447 26.698 113.065 26.4351 112.567 26.1446C112.308 25.9849 112.056 25.8019 111.752 25.7301C111.262 25.6142 110.745 25.714 110.27 25.9471L109.761 21.6342L110.335 21.4987C110.875 23.18 112.601 25.6843 114.353 26.0984C115.427 26.3523 116.602 25.7668 116.861 24.669C117.573 21.6561 110 21.2469 111 17.0194C111.469 15.0341 113.606 14.1335 115.451 14.5697C116.292 14.7684 117.021 15.3354 117.675 15.49C118.118 15.5949 118.495 15.462 118.853 15.2012Z" fill="#474542"/>
<path d="M123.448 23.2479L127.142 21.1966C127.618 20.9349 128.46 20.5297 128.634 19.9305C128.795 19.3773 128.47 19.0331 127.693 18.7825L127.887 18.1141L133.257 19.6733L133.063 20.3417C131.529 19.9461 130.488 20.5186 129.17 21.1855L126.877 22.3691L128.784 28.0212C129.155 29.1535 129.481 30.0978 130.732 30.4361L130.538 31.1045L125.03 29.5052L125.224 28.8368C125.869 29.0241 126.502 29.0829 126.662 28.5297C126.783 28.1148 126.463 27.3223 126.356 26.9163L125.089 23.2747L123.153 24.262L122.812 25.4375C122.183 27.604 122.143 27.7423 123.679 28.3884L123.485 29.0568L118.3 27.5512L118.494 26.8828C120.114 27.1534 120.155 27.0151 120.784 24.8486L123.835 14.3386C124.417 12.3334 124.068 12.3319 122.465 11.7416L122.659 11.0732L127.028 10.9171L123.448 23.2479Z" fill="#474542"/>
<path d="M137.568 31.1374L138.884 27.4534C137.182 27.1513 134.308 27.348 133.638 29.2239C133.259 30.2861 133.762 31.2306 134.666 31.5536C135.503 31.8523 136.776 31.5683 137.568 31.1374ZM139.15 26.7076L139.683 25.2159C140.079 24.1085 140.313 22.7395 138.957 22.255C137.827 21.8513 137.086 22.4275 136.49 23.3106C136.036 23.9385 135.589 24.263 134.775 23.9723C134.143 23.7462 133.85 23.2086 134.068 22.5983C134.739 20.7225 137.641 20.944 139.11 21.4688C140.06 21.8079 141.156 22.3779 141.698 23.2853C142.269 24.254 141.93 25.2032 141.591 26.1525L139.75 31.3055C139.556 31.8479 139.201 32.8424 139.879 33.0846C140.263 33.2219 140.632 33.0475 141.008 32.8506L141.132 33.4302C140.268 34.0646 139.324 34.5682 138.261 34.1887C137.335 33.8576 137.073 32.9487 137.29 32.0575C135.951 32.5223 134.464 32.8322 133.108 32.3477C131.526 31.7825 130.829 30.31 131.402 28.7054C132.476 25.6995 136.683 26.336 139.15 26.7076Z" fill="#474542"/>
</svg>
