<svg width="209" height="46" viewBox="0 0 209 46" fill="none" xmlns="http://www.w3.org/2000/svg">
<path d="M10.4158 19.1783L14.2923 23.7775L13.5679 24.5105C11.2437 22.6537 8.00897 20.815 4.99383 21.8869C2.73247 22.6908 1.60537 25.0613 2.40927 27.3226C3.34179 29.9458 6.49088 30.015 8.82657 29.8979C13.0437 29.7232 17.2977 29.3657 19.0019 34.1597C20.3739 38.0191 18.2699 41.6539 14.5311 42.983C12.6315 43.6583 10.6925 43.3627 9.48645 43.7914C8.82312 44.0272 8.24955 44.7066 7.95805 45.3196L3.66686 40.2226L4.42134 39.4789C7.12879 41.2673 10.8607 43.167 13.9964 42.0523C16.3181 41.227 17.9015 38.8981 17.0118 36.3955C14.5251 29.4003 3.45797 37.3422 0.585367 29.2616C-0.765185 25.4625 1.05209 22.1674 4.79087 20.8383C5.75571 20.4953 6.36275 20.4833 7.3852 20.4934C8.15372 20.4579 8.47867 20.5122 9.142 20.2764C9.65458 20.0942 10.204 19.7291 10.4158 19.1783Z" fill="#474542"/>
<path d="M30.2786 37.9472C26.336 39.0577 22.3957 36.0451 21.3286 32.2565C20.2008 28.2523 21.6873 23.3788 26.0303 22.1555C30.3117 20.9497 34.0481 24.4186 35.1499 28.3304C36.2603 32.273 34.3752 36.7934 30.2786 37.9472ZM29.9923 36.9308C33.1957 36.0285 32.5421 30.9931 31.8741 28.6214C31.2408 26.3729 29.3352 22.3218 26.3166 23.172C23.2056 24.0482 23.5807 28.3309 24.2487 30.7026C24.8647 32.8895 27.0046 37.7723 29.9923 36.9308Z" fill="#474542"/>
<path d="M50.8417 32.4816L50.355 30.2623C49.3301 31.863 47.9165 33.4835 45.9785 33.9085C44.697 34.1896 43.2501 34.0155 42.2463 33.0235C41.1975 31.9759 40.8685 30.4755 40.5531 29.0377L39.3329 23.4739C38.8758 21.8379 38.7143 21.2508 36.8076 21.669L36.6431 20.9188L41.021 18.0258L43.482 29.2471C43.8453 30.9037 44.865 32.4164 46.7717 31.9982C48.3033 31.6623 49.2481 30.1447 50.0359 28.9564L48.3975 21.4859C47.9404 19.8499 47.7789 19.2628 45.8722 19.681L45.7077 18.9308L50.0855 16.0378L52.622 27.6029C53.2663 30.5411 53.3075 30.7287 55.5191 30.5057L55.7178 31.4122L50.8417 32.4816Z" fill="#474542"/>
<path d="M61.0235 14.5823L64.7738 13.9217L64.9569 14.9617L61.2067 15.6223L62.9775 25.6755C63.4993 28.6379 63.5327 28.827 65.6886 28.7072L66.8231 28.5073L66.9841 29.4213L57.9708 31.0089L57.8099 30.095L58.6923 29.9396C60.7594 29.3155 60.726 29.1264 60.2042 26.164L58.4334 16.1108L55.4395 16.6382L55.2563 15.5982L58.2502 15.0708C57.9986 13.458 57.862 11.76 58.3796 10.2716C58.9678 8.44588 60.5274 6.41656 62.5128 6.06683C63.5213 5.88919 64.7502 6.2251 64.9501 7.35963C65.0944 8.17902 64.501 8.86841 63.7131 9.00719C62.6731 9.19038 62.1211 8.0854 61.0811 8.26859C59.915 8.47399 60.213 9.98115 60.3684 10.8636L61.0235 14.5823Z" fill="#474542"/>
<path d="M78.3378 4.20518L81.5873 2.8826L84.1295 22.5913C84.5143 25.5746 84.5389 25.765 86.825 25.7283L86.9437 26.6486L79.7711 27.5738L79.6524 26.6535C81.746 26.1253 81.7215 25.9349 81.3367 22.9516L79.6091 9.55853C79.4986 8.70163 79.3174 7.04721 78.9335 6.32236C78.394 5.39173 77.055 5.01595 76.0076 5.15105C73.5639 5.46627 72.7417 7.3469 73.0324 9.60023L73.4213 12.6153L77.1345 12.1363L77.2696 13.1836L73.5564 13.6626L74.8623 23.7867C75.2471 26.77 75.3044 27.2143 77.4308 26.94L77.8434 26.8868L77.9621 27.8072L69.6153 28.8838L69.4965 27.9635C72.0672 27.6319 72.5392 27.5387 72.0694 24.147L70.7635 14.0228L67.7802 14.4076L67.6451 13.3603L70.6284 12.9755L70.477 11.8012C69.953 7.73889 71.3024 4.69323 75.6504 4.13238C76.5073 4.02185 77.4359 3.9666 78.3378 4.20518Z" fill="#474542"/>
<path d="M102.565 16.4972L91.7514 17.3653C92.0024 20.4913 93.2987 25.0421 97.2859 24.722C99.423 24.5504 101.178 23.2217 102.284 21.3994L102.867 21.8662C101.704 24.1747 99.597 25.9169 96.9814 26.1269C92.5157 26.4854 88.9703 23.1103 88.6194 18.7404C88.2917 14.6575 90.7925 10.2191 95.2581 9.86063C99.2453 9.54053 102.262 12.7333 102.565 16.4972ZM91.8136 16.1404L99.2457 15.5438C99.2604 13.3275 98.0858 10.693 95.3107 10.9158C92.5995 11.1335 91.7033 13.9663 91.8136 16.1404ZM93.8274 8.43455L94.9758 3.94425C95.2524 2.99106 95.3057 2.05579 96.4859 1.96104C96.9644 1.92263 97.5883 2.09726 97.6344 2.67141C97.6933 3.40505 96.0354 5.94588 95.6055 6.59034L94.3927 8.67809L93.8274 8.43455Z" fill="#474542"/>
<path d="M122.646 1.16781L125.651 0.358887L131.527 17.7495C131.947 18.9963 132.786 21.6498 133.653 22.5752C134.199 23.1816 134.936 23.4034 135.736 23.4971L135.739 24.5531L126.331 24.581L126.328 23.525C127.416 23.4258 129.433 23.7398 129.428 22.0758C129.426 21.5638 129.071 20.5088 128.878 20.0294L127.554 16.0973L119.394 16.1215L118.982 17.3388C118.664 18.2677 117.712 20.7665 117.715 21.6945C117.719 23.3265 119.416 23.5455 120.728 23.5416L120.731 24.5976L112.539 24.6219L112.536 23.5659C115.288 23.5257 116.144 20.8672 116.874 18.657L122.646 1.16781ZM127.102 14.6266L123.486 3.88533L119.902 14.648L127.102 14.6266Z" fill="#474542"/>
<path d="M139.407 20.4398L140.033 5.86124C140.152 3.07981 139.699 3.18846 137.436 2.93109L137.476 2.00395L143.085 0.419243L142.22 20.5607C142.091 23.5659 142.083 23.7577 144.278 24.1083L144.238 25.0354L137.076 24.7277L137.116 23.8006C139.269 23.6368 139.278 23.445 139.407 20.4398Z" fill="#474542"/>
<path d="M154.889 22.6169L155.319 17.4187C153.023 17.6141 149.388 18.8546 149.169 21.5015C149.045 23.0004 150.018 24.0442 151.294 24.1498C152.474 24.2474 154.018 23.4439 154.889 22.6169ZM155.406 16.3663L155.58 14.2615C155.709 12.6988 155.541 10.8547 153.627 10.6963C152.033 10.5644 151.276 11.5614 150.812 12.9037C150.443 13.8686 149.978 14.4402 148.83 14.3452C147.937 14.2713 147.376 13.679 147.447 12.818C147.666 10.171 151.482 9.45923 153.555 9.63075C154.894 9.74157 156.502 10.0994 157.513 11.082C158.582 12.1338 158.471 13.4732 158.36 14.8126L157.758 22.0838C157.695 22.8492 157.579 24.2524 158.536 24.3315C159.078 24.3764 159.492 24.0254 159.909 23.6424L160.268 24.3465C159.374 25.4605 158.33 26.4337 156.831 26.3097C155.523 26.2015 154.874 25.1203 154.847 23.8979C153.282 24.9565 151.473 25.8664 149.56 25.708C147.327 25.5233 145.923 23.8659 146.111 21.6016C146.461 17.3601 152.1 16.735 155.406 16.3663Z" fill="#474542"/>
<path d="M173.805 11.6882L174.929 17.1092L174.112 17.4161C172.834 15.2044 171.252 12.6275 168.685 12.2726C167.449 12.1017 166.062 12.7823 165.883 14.082C165.348 17.9492 175.503 17.8669 174.701 23.6677C174.324 26.3938 171.409 28.0905 168.873 27.74C168.08 27.6305 167.54 27.3297 166.842 27.007C166.479 26.8277 166.121 26.6166 165.709 26.5596C165.043 26.4676 164.369 26.6653 163.769 27.0346L162.549 21.3741L163.294 21.1219C164.223 23.2854 166.83 26.3916 169.208 26.7202C170.666 26.9218 172.15 25.9964 172.356 24.5065C172.922 20.4174 162.818 20.8299 163.611 15.0924C163.983 12.398 166.706 10.933 169.21 11.2791C170.351 11.4369 171.39 12.0974 172.278 12.2201C172.88 12.3033 173.363 12.0794 173.805 11.6882Z" fill="#474542"/>
<path d="M182.203 22.0205L186.906 18.9173C187.512 18.5209 188.591 17.8965 188.761 17.0821C188.918 16.3304 188.451 15.9058 187.393 15.6518L187.583 14.7434L194.881 16.2694L194.691 17.1778C192.61 16.8082 191.285 17.6752 189.6 18.6961L186.672 20.5031L189.784 27.8229C190.393 29.2905 190.922 30.5127 192.62 30.835L192.43 31.7434L184.944 30.1781L185.134 29.2697C186.011 29.4531 186.858 29.4668 187.015 28.715C187.133 28.1512 186.627 27.1301 186.443 26.6013L184.388 21.889L181.915 23.3987L181.581 24.9962C180.965 27.9405 180.926 28.1284 183.035 28.8309L182.845 29.7393L175.797 28.2657L175.987 27.3573C178.17 27.5521 178.209 27.3642 178.825 24.4198L181.811 10.1367C182.381 7.41165 181.916 7.44525 179.725 6.82363L179.915 5.91528L185.707 5.26293L182.203 22.0205Z" fill="#474542"/>
<path d="M203.123 31.574L204.625 26.5788C202.338 26.2925 198.525 26.7502 197.761 29.2938C197.328 30.7341 198.063 31.9575 199.288 32.3259C200.422 32.6668 202.099 32.2018 203.123 31.574ZM204.929 25.5675L205.537 23.5449C205.988 22.0432 206.207 20.2043 204.368 19.6516C202.836 19.1911 201.888 20.0089 201.155 21.2253C200.594 22.0925 200.02 22.555 198.917 22.2234C198.059 21.9654 197.633 21.2694 197.882 20.442C198.646 17.8984 202.527 17.9955 204.519 18.5943C205.806 18.9812 207.304 19.6655 208.088 20.8367C208.915 22.0877 208.528 23.3748 208.141 24.6619L206.041 31.6491C205.82 32.3846 205.415 33.733 206.334 34.0094C206.855 34.166 207.333 33.9088 207.821 33.6209L208.026 34.3842C206.919 35.2878 205.695 36.0228 204.255 35.5898C202.999 35.2121 202.589 34.0196 202.816 32.8182C201.066 33.5284 199.107 34.0423 197.268 33.4896C195.123 32.8448 194.094 30.9316 194.748 28.7558C195.973 24.6799 201.619 25.2408 204.929 25.5675Z" fill="#474542"/>
</svg>
