<svg width="80" height="80" viewBox="0 0 80 80" fill="none" xmlns="http://www.w3.org/2000/svg">
<path d="M14 8V2H66V8H72V4.5C72 2.567 73.567 1 75.5 1L79 1.00003L79 4.5C79 6.433 77.433 8 75.5 8H72V14H78V66H72L72 72H75.5C77.433 72 79 73.567 79 75.5V79H75.5C73.567 79 72 77.433 72 75.5L72 72H66V78H14V72H8.00001V75.5C8.00001 77.433 6.433 79 4.50001 79H1.00002L1.00001 75.5C1.00001 73.567 2.56701 72 4.50001 72H8.00001V66H2.00001V14H8.00001V8H4.50001C2.56701 8 1.00001 6.433 1.00001 4.5L1 1H4.50001C6.433 1 8.00001 2.567 8.00001 4.5V8H14Z" fill="#FBF3E8"/>
<path d="M28.3673 51.9388C28.3673 53.6294 29.7201 55 31.3888 55H51.6327V31.1225H31.3888C29.7201 31.1225 28.3673 29.752 28.3673 28.0613V51.9388Z" fill="#FBF3E8"/>
<path d="M39.6173 42.9991C41.8673 42.9991 44.1176 45.2495 44.1174 47.4995C41.8674 47.4982 39.6173 45.2483 39.6173 42.9991C39.6173 45.2483 37.3666 47.4987 35.1173 47.4983C35.1179 45.2487 37.3677 42.9991 39.6173 42.9991C37.3673 42.9991 35.1178 40.75 35.1173 38.5C37.3673 38.4991 39.6173 40.7483 39.6173 42.9991C39.6173 40.7491 41.8674 38.4994 44.1174 38.5C44.1169 40.75 41.8673 42.9991 39.6173 42.9991Z" fill="#FBF3E8"/>
<path d="M14 8V2H66V8M14 8V14M14 8H8.00001M14 8H66M14 14H8.00001M14 14V66M14 14H66M8.00001 8H4.50001C2.56701 8 1.00001 6.433 1.00001 4.5L1 1H4.50001C6.433 1 8.00001 2.567 8.00001 4.5V8ZM8.00001 8V14M8.00001 8L4.50001 4.5M8.00001 14H2.00001V66H8.00001M8.00001 14V66M14 72V78H66V72M14 72V66M14 72H8.00001M14 72H66M14 66H8.00001M14 66H66M8.00001 72H4.50001C2.56701 72 1.00001 73.567 1.00001 75.5L1.00002 79H4.50001C6.433 79 8.00001 77.433 8.00001 75.5V72ZM8.00001 72V66M8.00001 72L4.50001 75.5M66 8V14M66 8H72M66 14H72M66 14V66M72 8H75.5C77.433 8 79 6.433 79 4.5L79 1.00003L75.5 1C73.567 1 72 2.567 72 4.5V8ZM72 8V14M72 8L75.5 4.5M72 14H78V66H72M72 14V66M66 72V66M66 72H72M66 66H72M72 72H75.5C77.433 72 79 73.567 79 75.5V79H75.5C73.567 79 72 77.433 72 75.5L72 72ZM72 72L72 66M72 72L75.5 75.5M28.3673 28.0613V51.9388C28.3673 53.6294 29.7201 55 31.3888 55H51.6327V31.1225M28.3673 28.0613C28.3673 29.752 29.7201 31.1225 31.3888 31.1225H51.6327M28.3673 28.0613C28.3673 26.3706 29.7201 25 31.3888 25H51.6327C49.9639 25 48.6112 26.3706 48.6112 28.0613C48.6112 29.752 49.9639 31.1225 51.6327 31.1225M39.6173 42.9991C41.8673 42.9991 44.1176 45.2495 44.1174 47.4995C41.8674 47.4982 39.6173 45.2483 39.6173 42.9991ZM39.6173 42.9991C41.8673 42.9991 44.1169 40.75 44.1174 38.5C41.8674 38.4994 39.6173 40.7491 39.6173 42.9991ZM39.6173 42.9991C37.3673 42.9991 35.1178 40.75 35.1173 38.5C37.3673 38.4991 39.6173 40.7483 39.6173 42.9991ZM39.6173 42.9991C37.3677 42.9991 35.1179 45.2487 35.1173 47.4983C37.3666 47.4987 39.6173 45.2483 39.6173 42.9991Z" stroke="#A3C3CE" stroke-linecap="round" stroke-linejoin="round"/>
</svg>
