<svg width="129" height="30" viewBox="0 0 129 30" fill="none" xmlns="http://www.w3.org/2000/svg">
<path d="M1.36993 1.65286C6.76 0.717527 18.7504 -0.486046 21.9018 5.04467C24.0183 8.48864 23.42 13.0001 21.8157 16.4433L20.5257 19.3118C19.0546 22.5944 19.4649 23.1304 22.9407 23.7566C24.8417 24.0919 26.8907 24.2078 29.0225 24.5892C29.6323 24.6999 30.0344 25.2831 29.9277 25.8909C29.8308 26.4159 29.3768 26.794 28.8622 26.8125C25.1233 26.9418 16.3738 27.4405 17.1226 21.5321C17.6867 19.1068 19.0822 17.6528 20.1284 15.6358C21.9863 12.5074 22.4968 9.20537 19.9248 6.419C18.653 4.54168 16.1318 4.18443 13.939 3.95495C10.0009 3.62915 5.89135 4.01536 1.91173 4.68102C-0.0844642 4.96003 -0.608677 2.06352 1.36993 1.65286Z" fill="#474542"/>
<path d="M13.2007 2.16135C12.1898 10.1756 10.0122 17.9827 8.25044 25.8383C8.12806 26.6477 7.94835 27.5318 8.21704 28.2814C8.24002 28.3003 8.25109 28.3187 8.26216 28.337C8.27408 28.3375 8.28117 28.3141 8.27521 28.3138C8.27635 28.2901 8.25422 28.2534 8.23095 28.2404C8.66172 28.4739 8.81549 29.0043 8.58587 29.4341C8.25095 30.0674 7.37632 29.9983 7.0029 29.4402C6.54661 28.8666 6.59918 28.0183 6.68976 27.3741C6.97766 25.6026 7.44633 23.9225 7.89826 22.2179C9.13195 17.7825 10.3296 13.3515 11.2148 8.83505C11.6571 6.58276 12.0166 4.31485 12.3164 2.04426C12.3911 1.48255 13.2712 1.56376 13.201 2.15542L13.2007 2.16135Z" fill="#474542"/>
<path d="M23.7577 16.5483C25.0667 17.0236 26.644 17.2611 28.0567 17.4435C28.6796 17.531 29.1121 18.1037 29.0226 18.7242C28.8579 19.7934 27.6277 19.7916 26.7823 19.8606C25.3154 19.9374 21.0124 19.3751 22.1375 17.0822C22.4809 16.5207 23.1717 16.3138 23.7577 16.5483Z" fill="#474542"/>
<path d="M33.7815 4.28229C37.2032 3.66886 41.6854 2.85925 44.7692 5.18684C45.6071 5.89666 46.2615 6.94916 46.1484 8.06233C46.0425 9.40184 45.384 10.5559 44.8172 11.6665C43.7926 13.6071 42.5755 15.8245 42.3202 17.9127C42.2288 18.5748 42.3451 19.1392 42.5054 19.2832C42.6172 19.4429 43.0593 19.6888 43.6751 19.7997C44.9184 20.0282 46.4557 19.9783 47.9518 19.9147C49.4661 19.846 51.0054 19.7547 52.5543 19.7113C53.1824 19.692 53.7022 20.1852 53.7201 20.8106C53.7342 21.3882 53.3107 21.8747 52.7511 21.9626C51.2172 22.191 49.6791 22.3836 48.0966 22.5027C45.5431 22.5723 42.0684 23.0465 40.3891 20.5739C39.3903 18.7327 40.4762 16.7592 41.3047 15.1726C42.303 13.2843 43.6512 10.9479 44.0398 8.94299C44.7887 6.0264 40.4728 6.60556 38.461 6.46156C36.9515 6.42937 35.4001 6.40123 33.841 6.15862C33.3191 6.08162 32.9604 5.58964 33.0391 5.06974C33.0998 4.67395 33.4069 4.37251 33.7756 4.28202L33.7815 4.28229Z" fill="#474542"/>
<path d="M61.1249 18.086C60.1644 19.5596 58.7882 21.3595 56.7676 21.7742C55.1959 22.1675 53.4814 20.8056 53.4506 19.2042C53.2732 15.9247 56.9528 12.0455 60.2628 13.7646C61.065 14.223 61.7608 14.9086 62.0357 15.7775C62.5847 17.4082 61.9313 19.08 62.7806 20.4267C64.1662 21.7976 67.7528 17.1172 68.3829 15.9321L69.438 16.4732L69.4556 16.48C69.3108 17.6333 69.4 19.2612 70.2122 20.1364C70.7145 20.498 71.416 20.1905 72.2002 19.6548C72.9173 19.1457 73.6263 18.4341 74.1147 17.7126C74.2425 17.5399 74.4831 17.5031 74.6565 17.6239C74.7547 17.6938 74.8092 17.8033 74.816 17.9106L74.8401 17.9058C75.3224 19.0576 76.151 20.2131 77.3262 20.492C79.3056 20.6881 80.2236 17.107 80.8118 15.5512C80.9242 15.1994 81.4702 15.2715 81.4886 15.6352L81.5249 15.6249C81.7718 16.332 82.0765 17.0773 82.4556 17.5166C82.5867 17.6475 82.6659 17.7402 82.7811 17.7038C84.2716 17.0094 84.8584 14.8588 85.4065 13.3905C85.4956 13.2755 85.6312 13.0616 85.8098 12.9506C86.2619 12.6141 87.0247 12.7733 87.2922 13.2969C87.5051 13.7169 87.4832 14.049 87.5243 14.4374L87.6128 15.4585C87.7145 17.2 88.4912 21.0595 90.9251 19.4976C92.358 18.5092 93.5748 16.6724 93.7636 14.9738L94.8999 15.0665C94.8099 15.9488 94.9548 17.0378 95.1239 17.8722C95.2941 18.558 95.6076 19.3691 96.1967 19.6633C97.751 20.1317 99.2092 18.74 99.9656 17.4119C100.135 17.128 100.503 17.0316 100.788 17.199C100.91 17.27 100.988 17.3805 101.043 17.4901C101.636 18.4565 102.238 19.7149 103.381 19.9209C104.408 19.9255 105.514 18.5298 106.177 17.6555C106.357 17.3959 106.806 17.4935 106.857 17.8051C108.385 19.5571 110.768 18.3259 112.32 17.2061C112.575 17.0034 112.986 17.1468 113.061 17.4595C113.424 17.8625 113.807 18.0997 114.247 18.2504C114.859 18.4445 115.768 18.5508 116.335 18.1896C116.466 18.0706 116.497 18.0482 116.449 17.9152C116.434 17.8551 116.356 17.7445 116.327 17.7313C116.315 17.7307 116.337 17.7556 116.408 17.7706C116.479 17.7857 116.552 17.7652 116.564 17.7598C116.013 18.7997 116.279 20.6021 116.73 21.4134C117.867 23.2193 120.292 20.0985 120.232 18.8705C120.254 18.9072 120.348 18.9471 120.36 18.9417C120.378 18.9425 120.348 18.9411 120.305 18.963C120.037 19.0759 119.888 19.313 120.049 19.576C120.223 19.9229 120.734 20.2373 121.213 20.4552C123.311 21.4239 125.481 21.6226 127.825 21.0678C128.412 20.9038 128.892 21.7284 128.371 22.1392C126.124 24.0427 122.222 24.1944 120.027 22.0138C119.234 21.2406 118.227 19.4525 119.386 18.4518C119.821 18.1025 120.505 17.7824 120.945 18.3078C121.414 19.12 120.969 19.9268 120.748 20.696C120.195 22.1225 119.16 23.789 117.395 23.8524C114.327 23.8155 114.035 19.9361 115.109 17.8371C115.315 17.3944 115.475 17.0625 115.956 16.7391C116.896 16.1985 117.803 17.4468 117.564 18.3342C116.697 20.722 112.541 20.3388 112.073 17.885C112.062 17.8726 112.968 18.0204 112.963 18.0142C111.784 19.8111 109.301 21.5195 107.144 20.1556C106.381 19.6276 106.069 18.7927 106.067 18.0789L106.83 18.125C106.245 20.24 104.16 22.8646 101.801 21.1228C100.77 20.3151 100.25 19.0723 99.9114 17.921L100.989 17.9992C100.042 19.4317 99.1418 21.021 97.4081 21.6806C95.1584 22.3884 93.4272 20.1276 93.3862 18.1153C93.2615 16.9795 93.5561 15.815 93.7628 14.8667C93.7898 14.5527 94.0693 14.3273 94.3846 14.3534C94.6999 14.3795 94.9195 14.657 94.8991 14.9594C94.9979 18.0093 91.3343 23.5488 87.9844 20.9178C86.3031 19.1113 86.2849 16.2494 85.5883 14.2076C85.6473 14.3471 85.6987 14.397 85.819 14.5035C86.1575 14.7923 86.7271 14.7466 87.0211 14.4683C87.1154 14.3715 87.1466 14.3431 87.1855 14.2794L87.1914 14.2797C86.3175 15.6918 85.5004 17.0409 84.3759 18.3227C83.5787 19.2564 82.0891 19.5582 81.3573 18.2524C80.9146 17.3938 80.7314 16.4815 80.7783 15.7519C80.7723 15.7517 81.4832 15.748 81.4835 15.742C81.3173 17.8402 80.8843 20.2713 79.0163 21.6149C76.5804 23.2184 74.0663 20.3454 73.9405 18.1092L74.8143 18.0712C74.7907 18.4389 74.7015 18.6788 74.5996 18.9359C73.2426 22.4556 68.39 23.891 67.8557 19.0847C67.801 17.9818 67.8244 16.8706 68.3724 15.9019C68.7423 15.1631 69.8144 15.7228 69.4275 16.443C68.1412 19.2343 63.1483 25.4694 60.8548 20.358C60.3821 19.0043 60.6558 17.5296 60.2643 16.3521C60.0994 15.9283 59.7146 15.6077 59.348 15.4068C57.8828 14.6985 56.3854 16.2848 55.7939 17.537C55.4366 18.2644 55.2234 19.3493 55.9527 19.7093C56.1749 19.8085 56.6065 19.7743 57.0901 19.5284C58.0687 19.049 59.0399 18.0993 59.9339 17.1403C60.5628 16.4786 61.5917 17.3159 61.1084 18.0556L61.1249 18.086Z" fill="#474542"/>
</svg>
