<svg width="114" height="56" viewBox="0 0 114 56" fill="none" xmlns="http://www.w3.org/2000/svg">
<path d="M36.5102 1.77242C30.2407 9.61041 22.6656 20.7036 11.1211 18.4981C7.516 17.7657 4.13265 16.2172 1.45959 13.6004C1.03016 13.1291 0.476936 12.5149 0.388839 11.7315C0.368551 11.1365 0.526153 10.8287 0.762407 10.3607C2.78825 7.27229 10.1494 6.5227 13.6184 6.31442C17.3902 6.04834 21.1031 8.13389 23.5334 10.9401C25.9183 13.703 26.9861 17.3395 28.3415 20.5321C28.6239 21.2223 28.9848 21.7459 29.3398 22.2887C29.2911 22.3722 29.6633 22.2938 29.9557 22.0588C30.2611 21.8363 30.5775 21.5438 30.8682 21.2328C31.0228 21.0708 31.2699 21.065 31.432 21.2196C31.5682 21.3494 31.5918 21.5452 31.5067 21.6993C30.9827 22.6048 30.2947 23.812 29.0038 23.6396C28.2189 23.4173 28.0193 23.0166 27.5712 22.5584C26.1352 20.793 25.2904 18.5577 24.2829 16.6809C22.7223 13.6578 20.8906 10.9642 18.159 9.09635C16.7791 8.10255 15.3282 7.59187 13.6028 7.54376C10.2518 7.3755 3.87882 7.82312 2.12896 11.0571C2.07536 11.204 2.03412 11.338 2.01838 11.4778C2.00705 11.535 2.01016 11.668 2.02061 11.5727C3.048 13.2146 4.95199 14.3925 6.67547 15.4416C15.5137 20.6437 23.0329 16.3619 29.0796 9.29563C31.3828 6.68217 33.44 3.84644 35.4968 0.998052C35.9944 0.321186 37.0454 1.07566 36.5165 1.77227L36.5102 1.77242Z" fill="#474542"/>
<path d="M37.2204 18.2768L39.8218 18.3804C40.5644 18.4199 40.527 19.5294 39.7787 19.5153C39.7597 19.5158 39.7407 19.5162 39.7217 19.5167L37.1147 19.1789C36.536 19.0974 36.6422 18.2207 37.2268 18.283L37.2204 18.2768Z" fill="#474542"/>
<path d="M54.6889 3.31494C57.0123 3.45668 55.1687 8.09917 54.8636 9.41767C53.2657 14.5358 51.2393 19.493 49.1998 24.4315C48.7488 25.4747 47.1617 24.8342 47.5866 23.7599C48.9681 20.4967 50.3113 17.2216 51.5522 13.911C52.5785 10.9094 53.9463 7.87452 54.2144 4.70711C54.2133 4.66279 54.2129 4.64379 54.2061 4.62495C54.261 4.80104 54.5244 4.95321 54.7079 4.93623C53.6427 4.9296 53.6308 3.33983 54.6952 3.31479L54.6889 3.31494Z" fill="#474542"/>
<path d="M42.0177 3.07471C46.0241 3.07551 50.0225 2.74075 54.0276 2.41851C56.0333 2.25731 58.0523 2.12114 60.0934 2.11748C62.3012 2.19226 65.0411 1.98212 66.5719 4.00496C67.3509 5.05723 65.8132 6.25268 64.9904 5.22678C63.959 2.33065 56.7076 3.43874 54.1097 3.48717C50.0976 3.77791 46.088 4.18261 42.0621 4.42933C41.1566 4.46963 41.0927 3.09646 42.0179 3.08104L42.0177 3.07471Z" fill="#474542"/>
<path d="M54.6029 16.4115C56.0733 15.319 57.5641 14.0169 59.4838 13.6994C61.8178 13.4798 62.8514 15.3876 62.4225 17.3742C62.3233 18.01 62.1946 18.4692 62.2943 18.9356C62.3211 18.9983 62.322 19.0363 62.3867 19.0918C63.0202 19.343 64.1361 19.0823 64.9058 18.9249C66.4456 18.6289 68.09 18.1975 68.2286 20.3228C68.2398 20.5315 68.3369 20.6179 68.213 20.4688C68.1481 20.407 68.0523 20.3776 68.0398 20.3842C68.3562 20.3578 68.7948 20.1384 69.2204 19.9067C69.4144 19.8007 69.5329 19.7156 69.6011 19.6507C69.6258 19.6247 69.6317 19.6056 69.6137 19.6504C69.5955 19.6825 69.5856 19.8031 69.6192 19.8846C69.6993 20.0538 69.7231 19.9899 69.634 19.973C69.2258 19.8685 68.8874 20.0349 68.5216 20.3855C68.3976 20.5025 68.3244 20.6246 68.3066 20.6757C68.2892 20.7458 68.3116 20.6185 68.2466 20.5504C68.1881 20.4884 68.2018 20.5324 68.2844 20.5432C68.9327 20.6166 69.7192 19.5529 69.7691 18.9752C69.8396 18.4668 68.9713 18.4745 68.7497 18.4861C68.3015 18.5663 69.8424 18.5871 68.9696 17.0492C68.7195 16.9284 68.7777 16.9777 68.7393 16.9596C68.7266 16.9599 68.7393 16.9596 68.7519 16.9593C72.96 16.911 77.0427 14.7625 80.1797 12.0217C81.9114 10.448 84.9639 7.34809 84.0337 4.98172L84.014 4.95684C84.0985 5.04354 84.2279 5.15453 84.4563 5.16183C84.6466 5.17002 84.7405 5.11713 84.7906 5.09062C84.8656 5.04451 84.8155 5.07103 84.7786 5.12257C84.7355 5.17426 84.6866 5.25143 84.6315 5.33508C83.6156 7.15808 82.9862 9.24439 82.2417 11.2891C81.4766 13.5306 79.8478 18.1427 79.0622 20.3277C78.9847 20.5386 78.9018 20.7876 78.812 21.0114C78.5873 21.1624 79.2332 20.8622 78.1595 21.5716C75.8564 19.5922 77.5756 20.7301 77.0713 20.3112C78.1697 18.2202 80.798 17.848 82.8056 17.2243C84.8146 16.6639 86.7956 15.4453 87.5736 13.4822C90.7019 14.1562 88.4613 14.0315 89.1472 14.0851C89.0655 16.2789 89.0212 18.4464 88.4267 20.665C88.1259 21.6286 87.8226 22.7507 86.9122 23.3929C86.4253 23.7148 85.5947 23.7089 85.2575 23.1151C85.0511 22.6955 85.1533 22.4587 85.1807 22.2743C85.4586 21.4189 85.9838 20.8364 86.488 20.1721C88.5121 17.8186 90.6745 15.6899 93.4603 14.1927C94.013 13.9706 94.2677 13.7493 95.0038 13.7826C97.5532 14.3688 96.0764 18.1665 95.3566 19.6404C95.2178 19.9351 95.0351 20.2561 94.8455 20.552C94.8024 20.6037 94.7353 20.7193 94.6922 20.771C94.6489 20.8164 94.6621 20.8414 94.4628 20.9918C94.5157 21.624 92.3786 20.5087 92.9902 20.3676C93.0449 18.3771 95.0579 17.1705 96.3588 16.1517C97.3116 15.4198 98.6898 14.4498 98.1833 13.125C98.1762 13.0935 98.184 13.1567 98.2036 13.1816C98.2386 13.3201 98.4903 13.5106 98.6808 13.5251C98.8271 13.547 98.9467 13.5125 98.9908 13.4988C99.204 13.3988 99.1469 13.4001 99.1599 13.4125C98.3144 14.9337 98.1509 16.8824 98.1525 18.5738C98.1558 18.7131 98.1962 18.8135 98.1571 18.77C98.1308 18.7263 97.8744 18.6056 97.8567 18.6631C97.8588 18.7517 98.2878 18.6656 98.4198 18.6182C98.7532 18.509 99.1497 18.3856 99.4828 18.2637C100.91 17.7741 102.205 17.0278 103.519 16.2747C104.226 15.897 105.069 15.3324 106.002 15.4118C106.536 15.4436 107.148 15.8853 107.295 16.471C107.363 16.6721 107.353 16.799 107.389 16.9692C107.563 17.909 107.211 19.0893 107.272 19.8163C107.637 20.7896 108.995 21.1125 110.069 21.7714C110.994 22.2818 111.98 22.9871 112.632 24.017C117.148 31.4113 102.704 43.7113 98.8685 49.6549C97.7892 51.207 96.8711 52.8756 96.676 54.559C96.6191 55.1051 96.1276 55.5031 95.581 55.44C95.028 55.3769 94.6357 54.8667 94.7178 54.3136C95.4855 50.0132 98.5871 47.1149 101.176 43.9689C104.703 39.743 111.552 32.8352 111.803 27.3306C111.547 21.2678 102.501 25.0408 104.787 17.1064L104.797 16.9985C104.802 17.2011 105.039 17.5819 105.213 17.6919C105.38 17.8083 105.508 17.8497 105.629 17.8595C105.698 17.8578 105.692 17.8517 105.692 17.839C103.802 17.8138 101.813 18.6967 100.201 19.6975C99.751 19.9679 99.3594 20.3001 98.8835 20.5521C98.1026 21.0392 96.7628 20.944 96.2026 20.0323C95.4446 18.7958 95.7433 17.4775 96.1521 16.2579C96.7106 14.9334 97.2061 13.6231 98.0725 12.4561C98.1594 12.3781 98.1889 12.2824 98.5214 12.1352C98.5905 12.1082 98.7417 12.0666 98.9198 12.0941C99.0658 12.1034 99.2907 12.2311 99.356 12.3119C99.4921 12.4418 99.5401 12.5927 99.5743 12.6996C100.184 14.6427 98.3814 16.1675 97.1292 17.1028C96.0466 17.9771 94.7739 18.8496 94.8195 20.2549C94.82 20.2739 94.8318 20.2356 94.816 20.1029C95.4156 19.9938 93.3173 18.9092 93.4011 19.509C93.2332 19.646 93.2585 19.6454 93.2336 19.665C93.5608 18.479 94.0574 16.947 94.1992 15.6957C94.2276 15.5556 94.1672 15.4114 94.2857 15.5986C94.3448 15.6859 94.5763 15.8262 94.6965 15.817C92.1622 15.8766 87.4308 19.8268 86.455 22.5484C86.4371 22.5995 86.5013 22.6297 86.4205 22.4289C86.3539 22.2911 86.2133 22.2437 86.149 22.2072C86.0789 22.1899 86.0795 22.2152 86.1586 22.074C86.4252 21.5482 86.5049 20.8939 86.6171 20.2704C86.8801 18.5094 87.1633 15.9878 87.3936 14.1833L87.4207 13.9863L87.4199 13.9546C88.1117 13.989 85.8887 13.8069 88.9918 14.4878C89.1077 14.295 89.0406 14.4043 89.0527 14.3787L89.0345 14.4171C88.1691 16.1669 86.3038 17.18 84.582 17.8286C82.5562 18.4844 80.0133 19.2537 78.8292 20.935C78.3194 20.5479 80.014 21.718 77.7305 19.7635C76.6753 20.4535 77.3395 20.1212 77.1269 20.2465C77.1088 20.285 77.1148 20.2721 77.1266 20.2339L77.1859 20.0614C78.2233 16.9899 79.306 13.6893 80.4008 10.6355C81.0925 8.7758 81.7339 6.92994 82.6535 5.05852C83.0877 4.11075 84.1311 2.64819 85.3016 3.63424C86.5946 4.97851 85.9881 7.22899 85.2646 8.54465C82.4942 13.4053 74.0983 18.6897 68.4591 18.5309C68.3888 18.5072 68.4152 18.5509 68.1395 18.418C67.2218 16.8559 68.8321 16.8624 68.4027 16.9358C69.0408 16.8448 69.5484 16.8645 70.1691 17.1097C72.8989 18.3631 70.5867 22.4845 68.109 22.2514C66.4317 22.0944 66.0837 20.2275 67.2821 19.1604C68.2398 18.0989 70.4973 17.5897 71.2854 19.3006C71.7551 20.9493 69.7709 21.7562 68.4677 22.1416C68.0071 22.2348 67.4103 22.1918 66.9889 21.7963C66.7427 21.5677 66.6288 21.3043 66.5608 21.1095C66.4392 20.7893 66.4525 20.5482 66.395 20.2582C66.3869 20.1824 66.3477 20.1326 66.4073 20.2389C66.4403 20.2951 66.5314 20.3943 66.6467 20.4486C66.7107 20.4725 66.7618 20.4903 66.8 20.4957C66.8762 20.5003 66.819 20.4953 66.8 20.4957L66.4889 20.4777C64.9318 20.3053 63.3961 21.0446 61.803 20.6893C60.3164 20.2808 60.1631 18.3396 60.2752 17.1713C60.3022 16.7019 60.2986 16.2775 60.2439 16.1078C60.2103 16.0262 60.21 16.0136 60.1967 15.9885C60.1836 15.9698 60.0999 15.9148 59.9976 15.8792C58.8385 15.6467 56.6164 17.1243 55.3153 17.5984C54.5941 17.9321 53.9427 16.9148 54.5965 16.4116L54.6029 16.4115Z" fill="#474542"/>
<path d="M94.0463 5.38583C95.2084 4.66166 96.5255 4.59901 96.8911 6.13612C97.1131 6.68204 96.8748 7.3338 96.2762 7.48725C95.6026 7.6868 94.9343 7.03102 95.1087 6.35542C95.1315 6.24719 95.1253 6.25367 95.2476 6.33315C95.3888 6.40585 95.4313 6.32883 95.3167 6.30618C95.0999 6.25427 94.7079 6.29516 94.3668 6.34753C93.8047 6.43677 93.5516 5.64452 94.0463 5.38583Z" fill="#474542"/>
</svg>
