<svg width="400" height="26" viewBox="0 0 400 26" fill="none" xmlns="http://www.w3.org/2000/svg">
<path d="M385.902 13.1544L381.636 17.4198C379.032 20.0244 375.499 21.4877 371.816 21.4877L244.278 21.4887M385.902 13.1544L229.93 13.1544M385.902 13.1544L381.636 8.88896C379.032 6.28427 375.499 4.82096 371.816 4.82096L244.278 4.82096M229.93 13.1544C242.43 13.1544 244.513 6.20985 244.513 2.73763M229.93 13.1544C240.246 13.1544 243.467 17.8842 244.278 21.4887M229.93 13.1544C223.026 13.1544 217.43 9.42334 217.43 4.82096C216.476 4.82096 215.548 4.89212 214.656 5.02689M229.93 13.1544C223.026 13.1544 217.43 16.8853 217.43 21.4876C216.476 21.4876 215.548 21.4165 214.656 21.2817M229.93 13.1544C242.43 13.1544 244.513 20.0987 244.513 23.571M229.93 13.1544C240.246 13.1544 243.467 8.42547 244.278 4.82096M244.513 2.73763C244.513 1.58704 243.58 0.654297 242.43 0.654297C241.279 0.654297 240.346 1.58704 240.346 2.73763C240.346 3.88822 241.279 4.81985 242.43 4.81985C243.039 4.81985 243.655 4.82096 244.278 4.82096M244.513 2.73763C244.513 3.34424 244.449 4.05794 244.278 4.82096M244.278 21.4887C243.655 21.4887 243.039 21.4877 242.43 21.4877C241.279 21.4877 240.346 22.4204 240.346 23.571C240.346 24.7216 241.279 25.6543 242.43 25.6543C243.58 25.6543 244.513 24.7216 244.513 23.571M244.278 21.4887C244.449 22.2518 244.513 22.9644 244.513 23.571M214.656 5.02689C213.209 5.24546 211.857 5.63133 210.649 6.15241C209.386 6.69726 208.279 7.38992 207.385 8.19368M214.656 5.02689C213.206 5.24585 211.852 5.63274 210.642 6.15525C209.382 6.69966 208.278 7.39131 207.385 8.19368M207.385 8.19368C206.393 9.08463 205.662 10.1121 205.266 11.2261C205.046 11.845 204.93 12.4906 204.93 13.1543C204.93 13.818 205.046 14.4637 205.266 15.0826C205.662 16.1965 206.393 17.224 207.385 18.1149M207.385 18.1149C208.278 18.9173 209.382 19.6089 210.642 20.1533C211.852 20.6759 213.206 21.0627 214.656 21.2817M207.385 18.1149C208.279 18.9187 209.386 19.6113 210.649 20.1562C211.857 20.6773 213.209 21.0631 214.656 21.2817M389.339 16.5216L389.342 16.5241C391.24 18.4225 394.318 18.4225 396.216 16.5241L399.654 13.0867L399.651 13.0843M389.339 16.5216L385.904 13.0868M389.339 16.5216C391.238 18.42 394.315 18.42 396.214 16.5216L399.651 13.0843M385.904 13.0868L385.907 13.0843M385.904 13.0868L392.779 13.0868M385.904 13.0868L385.902 13.0843M385.907 13.0843L389.342 9.64947C391.24 7.75108 394.318 7.75108 396.216 9.64947M385.907 13.0843H385.902M385.907 13.0843L392.776 13.0843M396.216 9.64947L399.651 13.0843M396.216 9.64947L396.214 9.64698C394.315 7.7486 391.238 7.7486 389.339 9.64698L385.902 13.0843M14.0979 13.1544L18.3634 17.4198C20.968 20.0244 24.5006 21.4877 28.1841 21.4877L155.722 21.4887M14.0979 13.1544L170.07 13.1544M14.0979 13.1544L18.3633 8.88896C20.968 6.28427 24.5007 4.82096 28.1842 4.82096L155.722 4.82096M170.07 13.1544C157.57 13.1544 155.487 6.20985 155.487 2.73763M170.07 13.1544C159.754 13.1544 156.533 17.8842 155.722 21.4887M170.07 13.1544C176.974 13.1544 182.57 9.42334 182.57 4.82096C183.523 4.82096 184.452 4.89212 185.344 5.02689M170.07 13.1544C176.974 13.1544 182.57 16.8853 182.57 21.4876C183.523 21.4876 184.452 21.4165 185.344 21.2817M170.07 13.1544C157.57 13.1544 155.487 20.0987 155.487 23.571M170.07 13.1544C159.754 13.1544 156.533 8.42547 155.722 4.82096M155.487 2.73763C155.487 1.58704 156.42 0.654297 157.57 0.654297C158.721 0.654297 159.653 1.58704 159.653 2.73763C159.653 3.88822 158.721 4.81985 157.57 4.81985C156.961 4.81985 156.345 4.82096 155.722 4.82096M155.487 2.73763C155.487 3.34424 155.55 4.05794 155.722 4.82096M155.722 21.4887C156.345 21.4887 156.961 21.4877 157.57 21.4877C158.721 21.4877 159.653 22.4204 159.653 23.571C159.653 24.7216 158.721 25.6543 157.57 25.6543C156.42 25.6543 155.487 24.7216 155.487 23.571M155.722 21.4887C155.55 22.2518 155.487 22.9644 155.487 23.571M185.344 5.02689C186.791 5.24546 188.143 5.63133 189.351 6.15241C190.614 6.69726 191.721 7.38992 192.615 8.19368M185.344 5.02689C186.794 5.24585 188.148 5.63274 189.357 6.15525C190.618 6.69966 191.722 7.39131 192.615 8.19368M192.615 8.19368C193.607 9.08463 194.338 10.1121 194.734 11.2261C194.954 11.845 195.07 12.4906 195.07 13.1543C195.07 13.818 194.954 14.4637 194.734 15.0826C194.338 16.1965 193.607 17.224 192.615 18.1149M192.615 18.1149C191.722 18.9173 190.618 19.6089 189.357 20.1533C188.148 20.6759 186.794 21.0627 185.344 21.2817M192.615 18.1149C191.721 18.9187 190.614 19.6113 189.351 20.1562C188.143 20.6773 186.791 21.0631 185.344 21.2817M10.6606 16.5216L10.6581 16.5241C8.75974 18.4225 5.68183 18.4225 3.78345 16.5241L0.346191 13.0867L0.348607 13.0843M10.6606 16.5216L14.0954 13.0868M10.6606 16.5216C8.7622 18.42 5.68433 18.42 3.78595 16.5216L0.348607 13.0843M14.0954 13.0868L14.093 13.0843M14.0954 13.0868H7.22078M14.0954 13.0868L14.0979 13.0843M14.093 13.0843L10.6581 9.64947C8.75974 7.75108 5.68183 7.75108 3.78345 9.64947M14.093 13.0843H14.0979M14.093 13.0843H7.22329M3.78345 9.64947L0.348607 13.0843M3.78345 9.64947L3.78595 9.64698C5.68433 7.7486 8.7622 7.7486 10.6606 9.64698L14.0979 13.0843" stroke="#474542" stroke-width="0.5" stroke-linecap="round" stroke-linejoin="round"/>
</svg>
