<svg width="140" height="70" viewBox="0 0 140 70" fill="none" xmlns="http://www.w3.org/2000/svg">
<path d="M124.419 24.7366C114.446 16.8009 95.7256 16.7607 85.6787 24.6495C78.0178 30.6683 78.0982 39.7635 85.9803 45.5879C91.5299 49.6898 97.924 51.2448 105.411 51.2381C111.838 51.3185 118.447 49.7635 124.164 45.4606C131.872 39.6495 131.932 30.7152 124.419 24.7366ZM122.073 43.1147C117.428 47.8064 111.523 49.3681 105.042 49.482C98.5474 49.4016 92.5353 47.8399 87.8235 43.0209C83.1519 38.242 83.1921 31.8747 87.7832 27.0289C95.8999 18.4497 113.856 18.3693 122.066 26.8747C126.812 31.7876 126.872 38.2688 122.073 43.1147Z" fill="#474542"/>
<path d="M114.043 35.0919C113.34 34.482 113.152 34.3211 113.755 33.4029C116.255 29.6026 115.438 26.9551 111.155 25.179C106.155 23.1146 101.175 23.4833 96.4428 26.057C95.0487 26.8144 92.1197 27.6388 95.8664 29.5021C96.5567 29.8439 96.3959 30.7018 96.3959 31.5932C96.3959 33.5771 96.4294 35.5544 96.4026 37.5383C96.3825 38.9994 96.7243 40.4203 94.794 41.3587C93.2122 42.1294 94.365 43.1683 95.3771 43.7447C98.42 45.4606 101.698 46.352 105.417 46.3855C107.87 46.2246 110.511 45.9699 112.917 44.6764C117.502 42.2099 117.971 38.4967 114.043 35.0919ZM104.452 26.6066C106.718 26.7205 108.507 27.4444 108.527 29.8573C108.547 32.431 106.711 33.2018 104.305 33.3426C101.899 33.4833 102.133 31.3787 102.106 30.2527C102.053 28.0744 101.852 26.4793 104.446 26.6066H104.452ZM110.042 39.8037C109.881 42.8265 107.77 43.3225 105.189 43.5705C101.443 43.9324 102.1 41.5195 102.1 39.1938C102.1 36.868 102.006 35.5007 105.055 35.7755C108.299 36.0637 110.176 37.2702 110.042 39.8037Z" fill="#474542"/>
<path d="M51.6357 19.3106C38.2071 40.6748 31.8429 43.5891 10 43.5891H59.8357M39.5214 11.2534C29.1429 29.1177 26.6143 29.3106 10 29.3106H59.8357" stroke="#474542" stroke-width="6" stroke-miterlimit="10"/>
<path d="M10 51.928V51.1233H15.5877V51.928H13.2449V58.6146H12.3428V51.928H10Z" fill="#474542"/>
<path d="M16.2834 58.6146V52.9961H17.1128V53.8447H17.1711C17.2729 53.5667 17.4572 53.3412 17.724 53.168C17.9908 52.9949 18.2915 52.9083 18.6262 52.9083C18.6892 52.9083 18.7681 52.9095 18.8626 52.912C18.9572 52.9144 19.0288 52.9181 19.0773 52.9229V53.8008C19.0482 53.7935 18.9815 53.7825 18.8772 53.7679C18.7753 53.7508 18.6674 53.7423 18.5534 53.7423C18.2818 53.7423 18.0393 53.7996 17.8259 53.9142C17.6149 54.0264 17.4475 54.1825 17.3238 54.3824C17.2026 54.58 17.1419 54.8055 17.1419 55.0592V58.6146H16.2834Z" fill="#474542"/>
<path d="M21.7392 58.7463C21.3852 58.7463 21.0638 58.6792 20.7752 58.5451C20.4866 58.4086 20.2574 58.2123 20.0877 57.9562C19.9179 57.6977 19.833 57.3856 19.833 57.0198C19.833 56.6979 19.8961 56.437 20.0222 56.237C20.1483 56.0346 20.3169 55.8761 20.5278 55.7615C20.7388 55.6469 20.9717 55.5615 21.2263 55.5054C21.4834 55.4469 21.7417 55.4006 22.0012 55.3664C22.3407 55.3225 22.616 55.2896 22.8269 55.2677C23.0404 55.2433 23.1956 55.203 23.2926 55.1469C23.392 55.0909 23.4417 54.9933 23.4417 54.8543V54.825C23.4417 54.4641 23.3435 54.1837 23.1471 53.9837C22.9531 53.7838 22.6584 53.6838 22.2631 53.6838C21.8532 53.6838 21.5319 53.774 21.2991 53.9545C21.0662 54.1349 20.9025 54.3276 20.808 54.5324L19.9931 54.2398C20.1386 53.8984 20.3326 53.6326 20.5751 53.4424C20.8201 53.2497 21.0869 53.1156 21.3755 53.04C21.6665 52.962 21.9527 52.9229 22.234 52.9229C22.4135 52.9229 22.6196 52.9449 22.8524 52.9888C23.0877 53.0302 23.3144 53.1168 23.5327 53.2485C23.7534 53.3802 23.9365 53.5789 24.082 53.8447C24.2275 54.1105 24.3003 54.4666 24.3003 54.9128V58.6146H23.4417V57.8538H23.3981C23.3399 57.9757 23.2429 58.1062 23.1071 58.2452C22.9712 58.3842 22.7906 58.5024 22.565 58.6C22.3395 58.6975 22.0642 58.7463 21.7392 58.7463ZM21.8702 57.9708C22.2097 57.9708 22.4959 57.9038 22.7287 57.7696C22.964 57.6355 23.141 57.4624 23.2598 57.2502C23.3811 57.0381 23.4417 56.8149 23.4417 56.5808V55.7907C23.4054 55.8346 23.3253 55.8749 23.2016 55.9114C23.0804 55.9456 22.9397 55.9761 22.7797 56.0029C22.622 56.0273 22.468 56.0492 22.3177 56.0687C22.1697 56.0858 22.0497 56.1004 21.9575 56.1126C21.7344 56.1419 21.5258 56.1894 21.3318 56.2553C21.1402 56.3187 20.985 56.415 20.8662 56.5443C20.7498 56.6711 20.6915 56.8442 20.6915 57.0637C20.6915 57.3636 20.8019 57.5904 21.0226 57.744C21.2457 57.8952 21.5282 57.9708 21.8702 57.9708Z" fill="#474542"/>
<path d="M25.8673 58.6146V52.9961H26.7258V58.6146H25.8673ZM26.3038 52.0597C26.1365 52.0597 25.9922 52.0024 25.8709 51.8878C25.7521 51.7731 25.6926 51.6354 25.6926 51.4744C25.6926 51.3135 25.7521 51.1757 25.8709 51.0611C25.9922 50.9465 26.1365 50.8892 26.3038 50.8892C26.4711 50.8892 26.6142 50.9465 26.7331 51.0611C26.8543 51.1757 26.9149 51.3135 26.9149 51.4744C26.9149 51.6354 26.8543 51.7731 26.7331 51.8878C26.6142 52.0024 26.4711 52.0597 26.3038 52.0597Z" fill="#474542"/>
<path d="M29.1568 55.2347V58.6146H28.2982V52.9961H29.1277V53.874H29.2004C29.3314 53.5887 29.5302 53.3595 29.797 53.1863C30.0638 53.0107 30.4082 52.9229 30.8302 52.9229C31.2085 52.9229 31.5395 53.001 31.8233 53.1571C32.107 53.3107 32.3277 53.5448 32.4854 53.8594C32.643 54.1715 32.7218 54.5666 32.7218 55.0445V58.6146H31.8633V55.103C31.8633 54.6617 31.7493 54.3178 31.5213 54.0715C31.2934 53.8228 30.9805 53.6984 30.5828 53.6984C30.3087 53.6984 30.0638 53.7582 29.8479 53.8777C29.6345 53.9971 29.466 54.1715 29.3423 54.4007C29.2186 54.63 29.1568 54.908 29.1568 55.2347Z" fill="#474542"/>
<path d="M35.2401 58.6146L33.2029 51.1233H34.1196L35.6766 57.2246H35.7494L37.3355 51.1233H38.3541L39.9402 57.2246H40.0129L41.5699 51.1233H42.4866L40.4495 58.6146H39.5182L37.8739 52.6449H37.8157L36.1714 58.6146H35.2401Z" fill="#474542"/>
<path d="M45.2441 58.7317C44.7397 58.7317 44.2971 58.611 43.9163 58.3695C43.538 58.1281 43.2421 57.7904 43.0287 57.3563C42.8177 56.9222 42.7122 56.415 42.7122 55.8346C42.7122 55.2494 42.8177 54.7385 43.0287 54.302C43.2421 53.8655 43.538 53.5265 43.9163 53.2851C44.2971 53.0437 44.7397 52.9229 45.2441 52.9229C45.7485 52.9229 46.1899 53.0437 46.5683 53.2851C46.949 53.5265 47.2449 53.8655 47.4559 54.302C47.6693 54.7385 47.776 55.2494 47.776 55.8346C47.776 56.415 47.6693 56.9222 47.4559 57.3563C47.2449 57.7904 46.949 58.1281 46.5683 58.3695C46.1899 58.611 45.7485 58.7317 45.2441 58.7317ZM45.2441 57.9562C45.6273 57.9562 45.9426 57.8574 46.1899 57.6599C46.4373 57.4624 46.6204 57.2027 46.7392 56.8808C46.8581 56.5589 46.9175 56.2102 46.9175 55.8346C46.9175 55.4591 46.8581 55.1091 46.7392 54.7848C46.6204 54.4605 46.4373 54.1983 46.1899 53.9984C45.9426 53.7984 45.6273 53.6984 45.2441 53.6984C44.8609 53.6984 44.5456 53.7984 44.2983 53.9984C44.0509 54.1983 43.8678 54.4605 43.749 54.7848C43.6301 55.1091 43.5707 55.4591 43.5707 55.8346C43.5707 56.2102 43.6301 56.5589 43.749 56.8808C43.8678 57.2027 44.0509 57.4624 44.2983 57.6599C44.5456 57.8574 44.8609 57.9562 45.2441 57.9562Z" fill="#474542"/>
<path d="M49.0865 58.6146V52.9961H49.916V53.8447H49.9742C50.076 53.5667 50.2603 53.3412 50.5271 53.168C50.7939 52.9949 51.0946 52.9083 51.4293 52.9083C51.4924 52.9083 51.5712 52.9095 51.6658 52.912C51.7603 52.9144 51.8319 52.9181 51.8804 52.9229V53.8008C51.8513 53.7935 51.7846 53.7825 51.6803 53.7679C51.5785 53.7508 51.4705 53.7423 51.3565 53.7423C51.0849 53.7423 50.8424 53.7996 50.629 53.9142C50.418 54.0264 50.2506 54.1825 50.127 54.3824C50.0057 54.58 49.9451 54.8055 49.9451 55.0592V58.6146H49.0865Z" fill="#474542"/>
<path d="M53.7566 51.1233V58.6146H52.8981V51.1233H53.7566Z" fill="#474542"/>
<path d="M57.439 58.7317C56.9733 58.7317 56.5623 58.6134 56.2058 58.3769C55.8492 58.1379 55.5703 57.8013 55.3691 57.3673C55.1678 56.9308 55.0671 56.415 55.0671 55.82C55.0671 55.2299 55.1678 54.7177 55.3691 54.2837C55.5703 53.8496 55.8505 53.5143 56.2094 53.2778C56.5683 53.0412 56.983 52.9229 57.4535 52.9229C57.8173 52.9229 58.1047 52.9839 58.3157 53.1058C58.5291 53.2253 58.6916 53.3619 58.8032 53.5155C58.9171 53.6667 59.0057 53.7911 59.0687 53.8886H59.1415V51.1233H60V58.6146H59.1706V57.7514H59.0687C59.0057 57.8538 58.9159 57.983 58.7995 58.1391C58.6831 58.2927 58.517 58.4305 58.3011 58.5524C58.0853 58.6719 57.7979 58.7317 57.439 58.7317ZM57.5554 57.9562C57.8998 57.9562 58.1908 57.866 58.4285 57.6855C58.6661 57.5026 58.8468 57.2502 58.9705 56.9283C59.0942 56.604 59.156 56.2297 59.156 55.8054C59.156 55.3859 59.0954 55.0189 58.9741 54.7043C58.8529 54.3873 58.6734 54.141 58.4357 53.9654C58.1981 53.7874 57.9046 53.6984 57.5554 53.6984C57.1916 53.6984 56.8885 53.7923 56.6459 53.9801C56.4058 54.1654 56.2252 54.4178 56.1039 54.7373C55.9851 55.0543 55.9256 55.4103 55.9256 55.8054C55.9256 56.2053 55.9863 56.5686 56.1075 56.8954C56.2312 57.2197 56.4131 57.4782 56.6532 57.6709C56.8957 57.8611 57.1965 57.9562 57.5554 57.9562Z" fill="#474542"/>
</svg>
