<svg width="133" height="69" viewBox="0 0 133 69" fill="none" xmlns="http://www.w3.org/2000/svg">
<path d="M3.78236 10.1025C2.4687 14.5225 2.14305 19.2936 1.75382 23.8992C1.48007 28.5296 1.20796 33.2641 1.70019 37.8648C1.80772 38.6176 1.90951 39.4937 2.26998 40.1021C2.31253 40.1625 2.31434 40.1236 2.20472 40.1121C2.08187 40.1064 2.01269 40.2008 2.10773 40.1076C2.71132 39.251 2.97933 38.0863 3.31153 37.0742C3.96618 34.8414 4.5389 32.5592 5.11777 30.2839C6.86117 23.4517 8.48383 16.5684 10.6818 9.85466C11.8053 6.59647 12.9704 3.28166 14.7549 0.301034C14.7755 0.275971 14.7561 0.275078 14.8785 0.150661C15.2038 -0.296053 16.2411 1.08482 15.7549 0.67225C14.6867 4.13458 13.3914 7.46289 12.3813 10.9279C10.955 15.4012 10.2552 19.999 9.96636 24.6742C9.78655 27.007 9.6711 29.3492 9.62737 31.6817C9.6795 34.4608 9.42062 37.5182 10.3365 40.116C10.3544 40.1494 10.3732 40.1633 10.367 40.1565C10.3479 40.1491 10.3042 40.1146 10.2063 40.1296C10.0755 40.156 10.0801 40.1953 10.0875 40.1761C10.7738 38.9332 10.955 37.4068 11.3315 36.0001C11.846 33.7152 12.3162 31.4089 12.7925 29.1093C14.7434 19.9066 16.3723 10.52 20.5917 2.00058C20.8834 1.44176 21.1944 0.883843 21.5369 0.346879C21.1701 -0.125221 22.7699 0.585765 22.3177 0.694989C21.0882 4.55957 19.8138 8.41557 18.8528 12.3575C16.4988 21.4506 15.8286 30.8424 15.5422 40.1998C15.2812 49.5714 15.5688 58.9878 16.8406 68.2804C16.8648 68.4571 16.7405 68.6205 16.5642 68.6514C16.3881 68.6758 16.2254 68.5512 16.1947 68.3742C14.2289 54.361 14.3522 40.1515 15.5061 26.0739C16.3045 17.4099 18.2972 8.83991 21.3969 0.711089L21.4706 0.5194C21.4709 0.512911 21.4786 0.487253 21.4783 0.493742C21.0479 0.551948 22.6292 1.24257 22.2341 0.821193C21.8805 1.31863 21.5518 1.83672 21.2358 2.3619C16.7443 10.6022 15.1432 20.0876 13.3705 29.2205C12.5855 33.0015 12.3961 36.9335 10.9893 40.5688C10.8224 40.8147 10.7416 41.0191 10.3291 41.1106C10.0813 41.1447 9.89124 41.0514 9.75969 40.9543C9.3536 40.63 9.22287 40.0972 9.11167 39.702C8.19788 34.6917 8.64764 29.6207 8.9592 24.5953C9.15315 22.2372 9.37792 19.913 9.71502 17.542C10.6653 11.7397 12.5757 6.05321 14.6772 0.577079L14.707 0.493915C14.7076 0.480937 14.7079 0.474448 14.7073 0.487426C14.2288 0.0491955 15.2703 1.33923 15.5609 0.942934C15.6627 0.843579 15.6159 0.873938 15.6221 0.880725L15.5941 0.924956L15.5317 1.01312L15.2885 1.36608L14.8205 2.09235C12.0972 6.5904 10.5566 11.7087 9.14256 16.7548C7.01818 24.1157 6.01536 31.7429 3.82693 39.0878C3.50646 40.1265 2.60598 42.2115 1.34885 40.8205C0.741817 39.9406 0.695978 38.9761 0.533754 38.0062C0.0419994 33.256 0.274112 28.5456 0.61735 23.8143C1.05111 19.0872 1.46517 14.3657 2.95358 9.81074C3.15352 9.27371 3.96997 9.55193 3.78236 10.1025Z" fill="#474542"/>
<path d="M20.0129 41.0428C20.973 41.8543 23.6472 34.0961 24.0739 33.1403C25.7405 28.5155 27.5297 23.9029 28.7365 19.1334C29.1499 17.3511 29.5389 15.5353 29.4747 13.7115C29.4573 13.5286 29.4679 13.3015 29.3231 13.2103C29.2978 13.1961 29.2529 13.1876 29.2887 13.2542C29.3065 13.2876 29.3688 13.3425 29.459 13.3531C29.6195 13.3865 29.7428 13.2426 29.5871 13.385C27.6251 15.1675 26.4919 17.6579 25.5927 20.133C24.5303 23.1925 23.8565 26.3933 23.4608 29.607C23.2556 31.789 22.9177 34.3161 23.5119 36.3073C23.4869 36.2867 23.4364 36.2583 23.3656 36.2486C23.34 36.2409 23.3203 36.2465 23.3074 36.2459C23.2815 36.2447 23.2939 36.2583 23.3277 36.2273C23.6852 35.9251 23.9162 35.4156 24.1449 34.9579C25.8 31.2755 26.9845 27.2658 27.7148 23.2676C27.7632 23.0618 27.8982 22.5283 27.9654 22.3363C27.9811 22.2785 28.0035 22.2145 27.9958 22.2401C27.3697 22.3283 29.3924 23.2799 28.984 22.7279C27.6532 25.5668 26.0397 29.7453 27.2669 32.7542L27.4378 33.1197C27.4874 33.1675 27.3658 33.1359 27.3578 33.1681C28.0547 32.9531 28.5771 31.8911 28.8865 31.2291C29.0718 30.867 28.9224 30.4569 29.1003 29.9774C29.2961 29.3882 28.5367 30.8098 30.1002 30.212L30.068 30.3471C29.7898 31.869 29.2185 33.9821 29.6326 35.3863C29.6074 35.3721 29.5618 35.3765 29.5745 35.3836C29.8838 35.2808 30.1581 34.9553 30.4389 34.6301C31.685 33.0553 32.6368 31.2588 33.5758 29.4618C34.9831 26.5093 36.6752 23.4269 37.0158 20.1456C37.0269 20.1851 37.0221 20.289 37.2174 20.4085C37.4006 20.508 37.5868 20.406 37.5074 20.4414C34.6414 22.1561 33.0203 29.7028 32.9928 32.94C32.9178 34.4126 33.3374 38.7629 35.27 36.0817C36.7888 33.7976 37.6276 30.949 37.9037 28.2175C37.9342 27.8418 37.9089 27.4114 37.8301 27.1542C37.8196 27.1017 37.7691 27.0733 37.8492 27.1616C37.8923 27.2091 38.0205 27.241 38.0725 27.2369C38.2095 27.2172 38.1784 27.1897 38.108 27.31C37.1043 29.6634 36.7934 32.7249 37.1506 35.2124C38.1622 35.7532 39.7658 32.9008 40.1247 32.15C40.2067 32.1993 39.9141 32.0818 40.3293 32.6277C40.9831 32.7814 40.7461 32.5818 40.8281 32.6311C40.5743 32.9316 40.3443 33.5583 40.4438 33.927C40.6139 34.4486 41.2188 34.9577 41.9079 34.7683C42.6797 34.6153 43.3926 34.1929 44.1438 33.7853C44.7174 33.4346 45.713 33.0643 46.3936 33.6159C46.6198 33.7694 46.777 34.0107 46.9158 34.2317C47.5647 35.4646 49.3774 36.0554 50.2836 34.8225C50.3611 34.6896 50.393 34.561 50.3707 34.4819C50.3423 34.3961 50.3235 34.3822 50.2061 34.2597C50.113 34.1709 49.9908 34.1523 50.0681 34.1623C50.1134 34.1644 50.2007 34.0969 50.2158 34.0521C51.7891 37.1419 65.1959 36.5761 68.6367 36.1558C71.93 35.7028 75.606 35.2414 78.2213 33.0664C79.5429 31.2609 74.8344 27.4544 73.524 26.3731C71.6045 24.8735 69.6271 23.3648 67.5401 22.1242C63.9296 20.2021 59.879 19.3847 55.9028 18.4992C51.136 17.3366 45.9866 16.8783 41.7885 14.0772C37.7135 10.5795 43.3876 7.97969 46.5515 7.5207C51.3007 6.55598 56.6128 7.13887 61.4093 7.52242C71.6114 8.29158 82.3795 9.56803 86.9961 20.2243C88.394 23.3256 89.1541 26.625 89.6553 29.919C89.7191 30.3577 89.4215 30.7666 88.9844 30.831C88.5405 30.9016 88.1338 30.5903 88.0702 30.1451C87.5969 26.9499 86.8698 23.7756 85.5731 20.8676C81.2732 10.7851 70.9587 9.64662 61.2925 8.7786C56.6077 8.36117 51.383 7.71078 46.7542 8.5965C42.3208 9.32215 38.2118 11.9876 44.2377 14.7753C51.0451 17.6186 58.6154 17.9934 65.4938 20.7033C68.587 21.9058 71.1693 24.0601 73.7786 26.0532C75.6468 27.6804 77.7738 29.1765 78.9446 31.448C79.3858 32.4112 79.1662 33.37 78.2111 33.9828C76.8152 35.0175 75.2027 35.5544 73.6012 35.9944C68.783 37.19 63.7727 37.3624 58.839 37.1416C56.5426 36.9187 50.1204 36.7984 49.2738 34.2428C49.1309 33.833 49.4585 33.1978 49.9517 33.1815C50.4517 33.1591 50.6992 33.4111 50.8847 33.6017C51.0517 33.772 51.2482 34.1452 51.2134 34.4752C50.996 35.8048 49.4632 36.2999 48.3219 36.3189C47.2397 36.321 46.2357 35.618 45.7084 34.6963C45.4238 34.267 44.9032 34.3145 44.3488 34.3931C43.1168 34.5509 41.8968 35.7042 40.5738 35.3116C39.0407 34.8378 39.1117 32.7537 40.2042 31.8351C40.3264 31.8537 40.1366 31.6174 40.8415 31.7864C41.3004 32.3668 40.9854 32.3133 41.0523 32.4074C40.6385 33.3637 39.9957 34.0885 39.282 34.8034C38.7068 35.3296 38.0433 35.9429 37.1997 35.969C34.9892 35.7111 35.6063 32.1955 35.8124 30.6898C36.06 29.4072 36.3261 28.1449 36.9833 26.9721C37.1447 26.7064 37.4718 26.2208 37.9527 26.1909C39.3708 26.2107 38.6711 28.7146 38.5872 29.5431C38.095 31.907 37.028 37.4308 34.3852 38.1088C32.8656 38.3185 32.0932 36.6767 31.9418 35.4732C31.4007 31.6441 33.3697 21.3562 37.0814 19.5699C37.1993 19.5428 37.2823 19.4296 37.6134 19.5554C38.0222 19.8213 37.9216 20.1743 37.8677 20.497C37.3566 22.1512 36.6295 23.5743 36.0752 25.181C34.8314 28.2386 33.6452 31.3118 31.9357 34.2113C31.3454 35.062 30.8565 36.0995 29.7512 36.4582C28.4589 36.6588 28.2705 34.9984 28.3295 34.1492C28.3783 32.6818 28.7009 31.3181 29.0768 29.9243C30.671 29.2239 29.8784 30.8001 30.0669 30.23C29.9979 30.4609 29.9676 30.6937 29.8151 30.9077C29.2387 31.8761 29.1594 33.0235 28.3671 33.8974C27.6038 34.8441 26.3824 34.4952 25.9282 33.3948C24.5016 29.798 26.3074 25.2447 28.0311 22.0402C27.6583 21.4182 29.7321 22.3852 29.07 22.5497C29.0319 22.6715 29.0175 22.7034 29.0028 22.7417C27.3256 26.8978 26.9407 31.2695 25.2405 35.5026C24.9323 36.1387 24.6423 36.8016 24.0239 37.2803C20.9303 39.0106 22.0786 30.9024 22.2032 29.4776C22.6161 26.1736 23.3579 22.9043 24.5465 19.7792C25.5325 17.2495 26.7924 14.6804 28.8609 12.8378L28.9825 12.7329L29.0431 12.6837C29.3617 12.3797 29.9109 12.5546 29.9224 13.0038C30.0053 16.7923 28.8048 20.4501 27.7703 24.0245C26.7691 27.1583 25.7551 30.2915 24.6517 33.3945C23.6121 36.1038 22.7976 38.9861 21.0547 41.3509C20.8914 41.5189 20.7145 41.6994 20.4116 41.8025C20.1153 41.9059 19.7269 41.7579 19.5361 41.541C19.2393 41.2347 19.6687 40.7798 19.9793 41.0672L20.0129 41.0428Z" fill="#474542"/>
<path d="M91.5637 27.7571C93.6607 26.6962 96.405 22.8624 96.0502 20.4595C95.8074 19.8306 94.9083 20.0753 94.5253 20.5063C93.0417 22.1742 92.7752 24.6981 92.7267 26.8548C92.8541 31.4972 94.4436 31.733 96.4217 27.6558C99.0662 22.0681 100.603 15.9092 102.823 10.1264L102.824 10.1004L102.823 10.1134C102.823 10.1134 102.819 10.2107 102.83 10.2567C102.811 10.6591 103.606 10.9753 103.815 10.6663C103.848 10.6483 103.896 10.5985 103.903 10.5858L103.854 10.6681C101.167 16.3383 99.4577 22.5674 99.0176 28.8223C98.9008 28.9665 99.2312 28.6891 98.7276 29.2057C97.877 29.2445 98.0399 28.6667 98.0253 28.8417C97.9284 27.5821 98.0542 26.4109 98.151 25.1668C98.3841 23.2202 98.6053 21.1105 99.6779 19.3651C100.151 18.5285 101.579 17.7685 102.303 18.7967C103.462 20.6254 103.201 22.8764 103.084 24.8543C102.99 26.04 102.806 27.2086 102.583 28.3688C102.556 28.5367 102.441 29.0451 102.415 29.2064C102.416 29.1805 102.414 29.2129 102.417 29.148C102.434 29.3504 102.509 28.4369 101.553 28.6465C101.352 28.7803 101.411 28.7636 101.378 28.7945C101.363 28.8199 101.427 28.7122 101.426 28.7187C102.631 26.5047 103.488 23.9626 105.03 21.8812C105.111 21.8069 105.172 21.7447 105.324 21.6866C105.779 21.5125 106.2 21.9351 106.161 22.3625C106.029 23.6699 105.596 24.8791 105.44 26.1529C105.336 27.1301 105.129 28.239 105.65 29.0174C105.693 29.0779 105.817 29.1876 105.862 29.1962C105.862 29.1962 105.875 29.2098 105.88 29.2231C105.893 29.2237 105.9 29.224 105.913 29.2245C106.528 29.0968 106.997 28.208 107.29 27.6233C107.76 26.6955 107.938 25.6697 108.346 24.6936C108.445 24.5161 108.68 24.3448 108.906 24.3617C109.049 24.3553 109.251 24.4687 109.3 24.5295C109.472 24.726 109.469 24.7909 109.505 24.8575C109.654 25.2806 109.744 25.7139 109.901 26.0789C109.913 26.1119 109.966 26.2249 109.984 26.2647C110.197 26.6972 109.882 27.19 109.408 27.2201C107.969 27.2319 107.084 27.3146 106.767 28.9713C106.257 32.6804 111.171 31.9314 113.331 30.7694C113.701 30.6238 114.039 30.4573 114.463 30.2558C114.674 30.1874 114.973 30.0256 115.442 30.2553C116.031 30.6727 116.206 31.383 116.534 31.9769C117.976 34.9631 120.675 37.1229 123.69 38.4778C125.756 39.4639 127.966 40.1575 130.131 40.979C131.001 41.3637 131.725 41.5272 132.464 42.3611C133.046 43.0967 131.978 44.0424 131.332 43.2908C130.42 42.4359 128.641 42.0874 127.433 41.596C123.002 40.0393 118.099 38.0381 115.542 33.8105C115.107 32.9971 114.643 32.1043 114.609 31.1664C114.628 31.1673 114.685 31.1959 114.743 31.2051C114.886 31.2051 114.762 31.0694 114.601 31.0619C114.267 31.001 113.872 31.1194 113.523 31.2464C111.467 31.9776 108.455 33.3474 106.584 31.3624C105.509 29.9733 105.928 27.5085 107.445 26.6485C108.017 26.3302 108.698 26.3096 109.267 26.2057C109.124 26.2186 108.982 26.4917 109.015 26.6168C109.013 26.6492 109.018 26.6884 109.036 26.7218C108.822 26.2958 108.639 25.7736 108.522 25.3585L108.488 25.2529C108.489 25.2335 108.445 25.2119 108.556 25.3276C108.587 25.368 108.763 25.4802 108.887 25.4599C109.035 25.4732 109.234 25.3783 109.291 25.2639C109.291 25.2834 109.278 25.2828 109.256 25.3208C108.878 26.2203 108.448 27.0979 107.999 27.9746C107.561 28.7478 107.3 29.4965 106.514 30.0781C105.998 30.451 105.229 30.266 104.816 29.8243C103.388 28.0678 104.314 25.5613 104.709 23.6286C104.833 23.1922 104.951 22.6058 105.026 22.3752C105.059 22.5133 105.136 22.6664 105.384 22.7559C105.608 22.8182 105.74 22.7593 105.828 22.6918C104.277 24.6817 103.572 27.1659 102.397 29.4397C102.301 29.5654 102.38 29.53 102.126 29.7069C101.137 29.9344 101.207 28.9817 101.231 29.1584C101.236 29.0546 101.273 28.8157 101.291 28.7125C101.507 27.8315 102.67 18.43 101.084 19.2348C99.0866 20.5149 98.9486 26.4066 99.0079 28.6138C98.9988 28.8085 99.1664 28.27 98.3355 28.3032C97.852 28.8077 98.1774 28.4975 98.0744 28.6228C98.0985 28.3833 98.1088 27.8831 98.1271 27.6303C98.4868 22.126 99.8972 16.7415 101.987 11.6615C102.309 11.0001 102.557 10.1206 103.087 9.59881C103.323 9.27151 104.13 9.59485 104.123 10.0302C104.148 10.1939 104.123 10.3033 104.091 10.4449C103.143 13.1259 101.795 16.7574 100.773 19.37C99.0867 23.2981 97.7705 27.6334 95.0359 30.9799C94.2042 31.865 92.9394 31.4751 92.4277 30.4956C91.0447 27.7722 92.1348 22.308 94.1746 20.1065C94.7624 19.4508 96.1972 19.2503 96.5378 20.2869C96.7763 21.1498 96.4805 21.936 96.2041 22.7231C95.6171 24.1982 94.7514 25.5369 93.6859 26.7104C93.1471 27.2903 92.5389 27.828 91.8021 28.2038C91.6827 28.2633 91.5294 28.2172 91.4705 28.091C91.4051 27.9644 91.464 27.811 91.5899 27.7518L91.5637 27.7571Z" fill="#474542"/>
<path d="M87.2685 11.0293C87.4184 10.7306 87.5801 10.4584 87.8561 10.237C88.1677 9.94575 88.863 10.0428 88.7567 10.6557C88.6929 10.9129 88.4394 11.0703 88.1832 11.0064C88.3731 10.9632 88.1292 10.9129 87.9704 10.9836C87.806 11.0346 87.6272 11.1174 87.4675 11.2076C87.354 11.2804 87.2113 11.1437 87.2752 11.0231L87.2685 11.0293Z" fill="#474542"/>
<path d="M108.251 16.4375C108.387 16.5673 108.583 16.817 108.767 16.897C108.819 16.8994 108.712 16.8294 108.68 16.8279C108.897 16.8835 109.036 17.098 108.98 17.323C108.914 17.6321 108.501 17.7431 108.292 17.5059C108.053 17.2022 107.997 16.8745 107.93 16.4943C107.94 16.2801 108.137 16.3802 108.251 16.4375Z" fill="#474542"/>
</svg>
