<svg width="147" height="33" viewBox="0 0 147 33" fill="none" xmlns="http://www.w3.org/2000/svg">
<path d="M1.00132 24.6834C5.01063 24.4392 17.6297 14.1268 18.6641 10.2203C18.6384 10.7022 19.191 11.1712 19.6729 11.107C19.8078 11.0941 19.8399 11.0749 19.9234 11.0427C17.4626 13.3815 15.4451 16.382 13.5818 19.2155C13.0742 20.038 12.4702 21.0981 12.2582 21.8948C12.2582 21.8434 12.2068 21.7599 12.1618 21.6957C12.0912 21.5415 11.7314 21.4194 11.7121 21.4515C14.597 20.16 17.1028 17.6928 19.5058 15.5596C20.733 14.3517 22.0437 13.0731 22.9047 11.6146L22.9433 11.531C22.9368 11.5503 22.9304 11.5696 22.924 11.5953C22.924 11.5953 22.9176 11.6338 22.9111 11.6917C22.8726 12.1543 23.4123 12.5783 23.8428 12.4498C23.9713 12.4113 23.907 12.4241 23.8813 12.4498C23.6243 12.6297 23.3802 12.8611 23.1296 13.0988C21.4655 14.7308 19.9299 16.6069 18.6191 18.5473C17.7453 19.9223 16.7751 21.4001 16.6338 22.9743C16.6081 23.6296 16.7815 23.8931 17.4433 24.073C21.8189 25.0046 26.3872 24.7219 30.8527 24.8376C38.1259 24.8504 45.4185 24.7026 52.7046 24.7605C55.1462 24.8054 57.5621 24.8054 60.0615 25.1588C60.3763 25.2038 60.6012 25.4994 60.5562 25.8142C60.5112 26.129 60.2157 26.3539 59.9008 26.3089C50.2952 25.4223 40.5161 26.2897 30.8591 26.2447C27.2032 26.264 23.5344 26.3025 19.872 26.0262C18.5163 25.8592 17.2377 25.8913 15.9334 25.2938C11.7699 22.2868 19.5701 14.1589 21.9923 11.8716C22.4935 11.4732 22.8854 10.9592 23.6051 10.8371C24.1576 10.76 24.6781 11.3511 24.5303 11.9037C23.7079 13.8248 21.9666 15.2127 20.5788 16.6776C18.0666 19.0035 15.58 21.5093 12.451 23.0385C11.9434 23.2763 10.9668 23.2955 10.6455 22.5631C10.4527 22.2033 10.4977 21.6892 10.5555 21.4322C10.8254 20.2821 11.4165 19.2734 11.9691 18.2646C13.2156 16.1058 14.6034 14.0818 16.1133 12.1157C17.0321 11.0363 17.6746 10.0404 18.9083 9.19871C19.2038 9.02523 19.5958 8.94813 19.9491 9.06378C20.4503 9.19871 20.8037 9.79625 20.7523 10.291C19.9684 15.3797 6.70687 25.1524 1.72737 26.0648C1.19408 26.1933 -0.309413 26.0648 0.0568218 25.0432C0.211026 24.6705 0.641512 24.5163 1.00132 24.6834Z" fill="#474542"/>
<path d="M33.3458 14.4411C33.3201 14.3126 33.2751 14.1905 33.3137 14.2933C33.3651 14.3833 33.5193 14.3961 33.4293 14.3961C31.4632 15.1029 29.722 17.1268 28.5012 18.8231C28.1414 19.3435 27.8266 19.8768 27.6467 20.4101C27.6081 20.5065 27.6917 20.5193 27.5503 20.1981C27.531 20.1595 27.5053 20.121 27.4732 20.0824C27.4475 20.0503 27.3833 20.0117 27.409 20.0181C27.4154 20.0181 27.4154 20.0181 27.4154 20.0181C27.4154 20.0439 27.4154 20.031 27.4154 20.031C27.4025 20.0503 27.4282 20.0438 27.4539 20.0503C27.7623 20.0696 28.1286 19.8961 28.5655 19.6455C30.1718 18.7138 31.6817 17.2489 33.0181 15.8868C33.2944 15.6041 33.7249 15.1543 33.9819 14.8652L33.9562 14.9037C33.9369 15.0322 33.9048 14.7752 33.8534 15.3599C34.1297 16.2723 35.2412 16.041 34.9071 16.0088C34.9778 15.9767 34.9585 15.9831 34.9907 15.9639C35.0356 15.9382 34.965 15.9831 34.9585 15.9831C34.2132 16.5743 32.1122 18.8937 33.0631 19.684C33.0438 19.6648 33.0181 19.6519 32.9924 19.6455C32.9089 19.6455 32.9796 19.6391 32.9667 19.6455C33.2237 19.6455 33.5 19.562 33.7891 19.472C35.6075 18.868 37.3358 17.7051 38.9935 16.5871C41.2873 14.923 43.6839 13.246 45.5665 11.1707C45.5665 11.1707 45.605 11.1064 45.5922 11.1321C45.5729 11.1835 45.5536 11.2285 45.5344 11.3377C45.5472 11.3763 45.4701 11.4277 45.605 11.871C45.5858 12.1216 46.3311 12.6292 46.6588 12.5071C46.8194 12.5007 47.0186 12.4172 47.1021 12.3593C46.7037 12.7513 45.7785 13.7922 45.3416 14.274L41.3516 18.868L40.3749 20.0181C40.1565 20.2944 39.8609 20.6285 39.4497 20.6864C39.4433 20.6992 39.1092 20.7249 38.8907 20.5964C38.4859 20.3523 38.4538 20.1981 38.3703 19.8575C38.3446 19.684 38.3896 19.472 38.4153 19.3949C39 17.8786 40.3171 16.8313 41.7885 16.253C42.8615 15.8418 44.0373 15.8803 45.1553 16.041C46.9479 16.1823 48.9076 16.0731 50.0577 14.5568C51.0215 13.2524 52.7819 11.4148 54.8059 11.8646C54.279 11.3056 53.7843 15.225 54.1891 13.7151L54.2533 13.7408C54.2533 13.7408 54.2983 13.7536 54.279 13.7472C53.675 13.7022 53.1996 14.0042 52.6791 14.4347C51.2399 15.5719 49.9934 17.6794 49.6143 19.2214C49.5886 19.1443 49.5886 19.0608 49.4794 18.9066C49.3702 18.7524 49.1646 18.6432 49.0746 18.6367C48.8754 18.6175 49.0104 18.656 49.1324 18.6239C50.7066 18.2255 52.4735 17.1525 53.4052 15.8739C53.3795 15.9317 53.3602 15.996 53.3538 16.0667C53.0454 15.8418 53.8485 17.0561 54.022 16.7477C54.112 16.7477 54.2083 16.7156 54.2919 16.6771C53.4694 17.7886 52.178 19.3628 52.0816 20.8084C52.0238 21.7979 50.5653 21.7401 50.5845 20.7506C50.758 18.6946 51.9274 16.9084 53.4373 15.6812C53.553 15.5912 53.7778 15.4691 53.9449 15.4627C54.1312 15.1479 54.9472 16.3879 54.6324 16.1759C54.6324 16.3494 54.4525 16.6064 54.3882 16.6771C53.0068 18.5082 51.1114 21.5923 48.3871 21.1811C46.9993 20.8727 46.6973 19.2022 47.1985 18.1806C47.886 16.5421 49.1389 15.4113 50.289 14.1841C51.4969 12.9505 53.1096 11.2028 55.0565 11.9417C55.4741 10.4061 55.0179 14.3062 54.4718 13.8179C52.5378 13.4902 51.6318 16.0345 49.9677 16.8377C47.9823 17.9364 45.7143 17.6023 43.594 17.5252C42.1547 17.5702 40.6962 18.5789 40.1629 19.8639C40.2079 19.7483 40.1629 19.4592 40.0665 19.3178C40.0216 19.2471 39.938 19.1058 39.7003 18.9773C39.4947 18.8552 39.1863 18.8937 39.1863 18.8937C39.0578 18.9066 38.8972 18.9837 38.8201 19.0415C38.7815 19.0672 38.8072 19.0479 38.8265 19.0158C38.8522 18.9708 39.8095 17.7372 39.8674 17.6537C41.3451 15.7518 43.1827 13.503 44.7698 11.7168C45.2645 11.2349 45.7014 10.5089 46.466 10.3997C46.8065 10.284 47.5711 10.7916 47.5519 11.0615C47.6932 11.5241 47.6097 11.5883 47.6225 11.6397C47.5776 11.9032 47.4812 12.0766 47.3591 12.2694C46.7359 13.1689 45.8299 13.7986 44.9882 14.4475C42.4503 16.2851 39.8288 17.8721 37.1045 19.3821C35.8388 20.0374 34.6308 20.8663 33.1916 21.1554C32.9667 21.1747 32.7675 21.2004 32.4913 21.1104C29.6256 19.6776 32.2278 16.3108 33.802 14.9294C33.9626 14.7881 34.104 14.6531 34.3032 14.5696C33.9819 14.5375 35.1192 14.2869 35.3954 15.225C35.344 15.8225 35.3055 15.5848 35.2734 15.7261C35.1898 15.8546 35.0678 15.996 34.965 16.1116C33.0438 18.232 28.7454 24.8627 25.5007 21.7272C24.3891 20.2816 25.6228 18.5018 26.5159 17.3581C27.9679 15.649 29.465 14.1905 31.4183 13.0404C31.9451 12.7706 32.4527 12.475 33.3073 12.4043C33.802 12.3722 34.4702 12.5842 34.7915 13.0276C35.3569 13.7408 35.5625 15.1864 34.4317 15.3792C33.8534 15.4627 33.3715 15.0001 33.333 14.4411H33.3458Z" fill="#474542"/>
<path d="M54.7286 2.40051C56.3928 3.33859 55.8916 5.27256 55.1206 6.55117C55.0756 6.67967 55.0563 6.75035 55.0756 6.7632C55.4097 7.58562 56.6626 8.19601 57.5943 8.56867C61.1667 9.78945 65.0989 9.90511 68.8833 9.84086C69.8985 9.86013 71.3056 9.50032 72.0573 10.4255C72.2437 10.6954 72.1601 11.0745 71.871 11.2351C71.569 11.4022 71.2092 11.7106 70.8494 11.5564C66.3004 10.5026 61.5201 11.8005 56.9775 10.3677C55.4097 9.86013 53.2187 8.8578 52.9489 6.9431C52.7882 5.86368 53.7263 5.02198 53.8163 4.21241C53.8291 4.0068 53.752 3.68554 53.7135 3.19081C53.585 2.60612 54.1889 2.09853 54.7222 2.40051H54.7286Z" fill="#474542"/>
<path d="M65.4586 16.5552C67.1677 15.5272 68.9218 16.0091 70.6887 16.0605C71.8838 16.1183 73.0917 16.189 74.2418 16.0091C74.4282 15.9705 74.6595 15.9191 74.743 15.8228C74.743 15.8228 74.653 15.8677 74.6209 15.9641C74.7494 15.5465 75.1927 15.3087 75.6104 15.4372C76.028 15.5657 76.2658 16.0091 76.1372 16.4267C75.8545 17.1849 75.0707 17.3391 74.4217 17.3969C73.1495 17.4869 71.9095 17.3776 70.6694 17.429C69.1788 17.474 67.5082 17.8467 66.1782 18.2193C65.1823 18.4571 64.6041 17.1078 65.4522 16.5488L65.4586 16.5552Z" fill="#474542"/>
<path d="M84.7278 7.50793C85.6466 7.64928 86.4947 7.54648 87.2272 7.00677C87.2657 6.98107 87.2464 6.98749 87.3814 6.91682C88.3708 6.44135 89.4567 7.33445 89.2254 8.30465C89.0198 8.92789 89.1226 8.56166 89.0583 8.74156C89.0005 8.83152 88.9748 8.86364 88.9234 8.92147C88.4415 9.44833 87.8054 9.89809 87.2657 10.3093C85.6723 11.4016 84.368 13.0207 83.4813 14.6527C83.3271 14.8969 83.1922 15.1667 83.115 15.3338C83.0701 15.4045 83.0829 15.5073 83.0894 15.3081C83.0894 15.2117 83.0315 14.9226 82.8259 14.7362C82.6203 14.5435 82.4404 14.5242 82.389 14.5178C82.5625 14.5306 83.2821 14.2929 83.6548 14.1516C86.0385 13.3034 88.268 11.7485 90.1313 9.98805C90.6453 9.49331 91.0887 9.02427 91.487 8.47813C91.4356 8.57451 91.6027 8.2661 91.3714 8.69016C92.0332 10.7783 92.5408 9.46118 92.7207 9.59611C92.7914 9.52543 92.7399 9.57684 92.7592 9.56398L92.6243 9.73104C90.8445 12.0698 88.8913 14.672 87.754 17.3256C87.6384 17.5954 87.5934 17.9296 87.5677 18.0581C87.5484 18.0195 87.5805 18.0966 87.6191 18.1416C88.7435 19.2146 90.7931 19.5744 92.4058 19.9728C96.2481 20.808 100.193 21.0201 104.119 21.2963C106.753 21.4505 109.388 21.5726 112.06 21.7911C112.465 21.8232 112.767 22.1766 112.729 22.5814C112.697 23.0054 112.305 23.3138 111.887 23.2496C105.404 22.4079 98.6832 22.4657 92.1103 21.7011C85.3446 20.8466 83.3271 18.8998 87.8118 12.9243C88.9877 11.3373 90.2406 9.81457 91.577 8.38175C91.7698 8.51026 92.2838 7.18025 92.9327 9.2877C92.695 9.71819 92.8556 9.42263 92.7978 9.52543C91.365 11.1253 89.5338 12.2369 87.8504 13.5155C86.2891 14.5692 84.8627 16.0406 83.0058 16.6895C82.0742 17.0429 80.802 16.5674 80.7827 15.3595C80.8213 14.415 81.2325 13.9845 81.6694 13.3805C83.115 11.7999 84.6314 10.6241 85.7751 8.85722C86.0385 8.47171 86.7517 7.55933 86.9316 7.34088C86.3662 8.10547 86.8673 9.45476 88.1845 9.32625C88.6343 9.20418 88.3901 9.262 88.5186 9.21703L88.6214 9.1592C88.6985 9.1078 88.3644 9.35195 88.3708 9.3391C87.1115 10.2258 85.306 10.335 83.9632 9.66679C83.3913 9.39693 83.1472 8.70944 83.417 8.13117C83.6548 7.62358 84.2137 7.38585 84.7278 7.50151V7.50793Z" fill="#474542"/>
<path d="M103.104 13.7596C104.1 12.1404 105.481 10.5727 106.021 8.80577C106.021 8.82505 105.957 8.8379 106.111 9.17843C106.207 9.37761 106.464 9.53824 106.631 9.57679C106.663 9.58964 106.708 9.58964 106.728 9.58964C106.824 9.58964 106.593 9.62177 106.413 9.7053C106.207 9.78882 105.976 9.89805 105.744 10.0201C103.733 11.061 102.037 13.0978 101.118 15.1281C101.157 14.8647 100.938 14.5242 100.72 14.4085C100.514 14.2993 100.457 14.3443 100.495 14.3507C100.797 14.4471 101.401 14.3443 101.787 14.2672C102.243 14.1772 102.699 13.9909 103.072 13.7403C103.065 13.766 103.02 13.8174 103.007 13.8624C103.078 13.8174 102.827 13.8881 103.078 14.4792C103.476 14.8454 103.438 14.6848 103.553 14.7426C103.656 14.7491 103.759 14.7234 103.804 14.7041C103.419 14.8262 102.667 15.5393 102.545 16.0791C102.519 16.1626 102.545 16.2333 102.558 16.1562C102.596 16.0726 102.468 15.867 102.436 15.867C102.416 15.8542 102.436 15.867 102.448 15.867C103.341 16.1626 104.492 15.867 105.584 15.3594C107.685 14.3764 109.439 12.5195 110.608 10.5727C110.814 10.2193 111.122 9.62819 111.142 9.30051C111.161 9.53824 111.116 9.57679 111.399 9.9366C111.675 10.2129 112.125 10.2579 112.427 10.0587C112.44 10.0523 112.401 10.0844 112.369 10.1229C111.9 10.6434 111.315 11.5236 111.122 12.1404C111.103 12.1276 111.065 12.0376 111.026 12.0184C111 12.0055 111.052 12.0441 111.058 12.0569C111.701 12.8215 112.658 12.2175 113.204 11.5879C113.191 11.6071 113.185 11.6264 113.178 11.6521C113.178 11.6842 113.153 11.6328 113.159 11.8834C113.198 12.224 113.564 12.4424 113.84 12.346C113.082 12.7059 112.44 13.5604 112.048 14.2736C111.913 14.492 111.803 14.7105 111.752 14.8326C111.726 14.8904 111.746 14.8968 111.726 14.8005C111.707 14.6977 111.598 14.5563 111.508 14.5434C111.399 14.5434 111.668 14.627 111.906 14.6141C112.998 14.6527 114.11 14.2415 115.164 13.9266C115.254 13.8945 115.504 13.8624 115.652 13.9266C116.025 14.0423 116.16 14.5177 115.98 14.8262C115.781 15.1924 115.177 15.7193 115.292 16.1176C115.318 16.1562 115.324 16.1176 115.357 16.1176C115.395 16.1176 115.485 16.124 115.581 16.1112C116.475 15.9827 116.687 17.3191 115.793 17.4733C115.607 17.5055 115.44 17.4476 115.286 17.3641C114.855 17.197 114.296 16.7601 114.316 16.214C114.341 15.4751 114.682 15.1988 114.881 14.6463C114.9 14.6077 114.971 14.4278 114.971 14.3957C114.971 14.3957 114.971 14.3828 114.965 14.4085C114.868 14.6848 115.164 15.051 115.472 15.0125C115.524 15.0061 115.472 15.0125 115.44 15.0253C115.318 15.0575 114.945 15.1795 114.817 15.2117C113.911 15.4815 113.05 15.957 112.08 16.1819C111.713 16.2397 111.341 16.3682 110.673 16.0919C109.966 15.7578 109.754 14.8005 110.03 14.1901C110.461 13.0785 111.463 12.6095 112.311 11.9991C112.735 11.7292 113.063 11.3437 113.609 11.2216C114.072 11.1381 114.425 11.6585 114.258 12.0312C114.155 12.2882 113.93 12.5002 113.789 12.6737C113.32 13.1556 112.748 13.7018 111.842 13.8238C110.904 13.9202 109.702 13.4126 109.484 12.436C109.33 10.9646 110.197 9.8595 111.071 8.85717C111.219 8.70297 111.489 8.47809 111.733 8.42026C112.054 8.33674 112.382 8.40741 112.632 8.64514C112.902 8.95998 112.851 9.00495 112.896 9.14631C112.915 9.24268 112.915 9.34549 112.902 9.43544C112.446 11.53 110.66 12.8279 109.221 14.1901C107.216 15.7707 104.993 17.9938 102.179 17.4926C101.118 17.3384 100.572 16.2204 101.215 15.3659C101.812 14.6141 102.455 14.2029 103.187 13.5797C103.296 13.509 103.438 13.4447 103.611 13.4576C103.74 13.5154 103.708 13.3484 104.106 13.7275C104.357 14.325 104.106 14.4021 104.17 14.37C103.778 15.0125 103.194 15.4944 102.615 15.957C101.934 16.4453 101.363 16.8051 100.412 16.8758C99.2743 16.9722 98.2463 15.9056 98.5033 14.6591C98.9017 12.8922 100.386 11.8256 101.536 10.6369C102.731 9.48684 103.849 8.18253 105.385 7.41151C106.773 6.65977 108.706 7.18021 108.43 9.15916C107.743 11.5429 105.802 13.0978 104.029 14.6206C103.464 15.0832 102.667 14.3378 103.084 13.7467L103.104 13.7596Z" fill="#474542"/>
<path d="M124.384 10.1943C124.384 10.1943 124.332 10.2459 124.352 10.2974" stroke="#474542" stroke-width="4" stroke-linecap="round" stroke-linejoin="round"/>
<path d="M119.854 1C117.817 3.39659 127.018 5.40767 132.441 5.40767C137.864 5.40767 150.11 5.34984 143.833 7.8428" stroke="#474542" stroke-width="2" stroke-linecap="round" stroke-linejoin="round"/>
<path d="M58.4745 31.8792C74.0812 32.1233 102.281 26.7583 117.888 25.8652" stroke="#474542" stroke-width="2" stroke-linecap="round" stroke-linejoin="round"/>
</svg>
