<svg width="191" height="52" viewBox="0 0 191 52" fill="none" xmlns="http://www.w3.org/2000/svg">
<path d="M3.73091 37.0963L7.45026 38.129L7.35215 38.6748C5.56866 38.7192 2.95744 39.2267 1.85692 40.7509C-0.0865445 43.4426 2.26571 46.3004 4.43854 47.8692C6.77352 49.5551 10.8018 50.6382 12.8038 47.8654C14.0566 46.1304 13.6879 44.1127 12.8905 42.2789L13.3309 42.0789C14.6121 44.336 14.9169 47.0229 13.3481 49.1957C11.0417 52.3901 6.93515 52.5087 3.90292 50.3194C2.42734 49.254 1.30299 47.7021 0.667727 45.9854C-0.0206879 44.2056 -0.13086 42.1032 1.05161 40.4655C1.46138 39.8979 1.8955 39.57 2.28279 39.3069C2.68179 39.0277 3.02945 38.7853 3.27531 38.4448C3.5797 38.0232 3.6517 37.5818 3.73091 37.0963Z" fill="#474542"/>
<path d="M21.3641 39.9849L20.3794 38.9618C20.3566 40.1495 20.1332 41.4748 19.2397 42.3346C18.6488 42.9032 17.8211 43.2834 16.9621 43.083C16.061 42.8676 15.3953 42.1759 14.7574 41.513L12.2889 38.9478C11.5107 38.2257 11.2328 37.9657 10.3537 38.8117L10.0209 38.4658L11.4075 35.4938L16.3862 40.6673C17.1212 41.4311 18.1588 41.9037 19.0379 41.0577C19.744 40.3782 19.7513 39.2609 19.7826 38.3704L16.4681 34.9261C15.6899 34.2039 15.412 33.944 14.5329 34.7899L14.2001 34.4441L15.5867 31.472L20.7179 36.8041C22.0215 38.1587 22.1047 38.2452 23.21 37.4036L23.6122 37.8215L21.3641 39.9849Z" fill="#474542"/>
<path d="M20.0194 27.9633L24.5601 33.8065C25.7136 35.291 25.7873 35.3857 26.9593 34.6776L27.3152 35.1355L23.7777 37.8844L23.4095 37.4107C24.3852 36.4498 24.2993 36.3393 23.1581 34.8706L20.5319 31.491C19.8341 30.6909 19.5851 30.4031 18.6218 31.1517L18.3273 30.7726L20.0194 27.9633ZM18.0876 25.1839C18.5294 25.7524 18.4238 26.5944 17.8553 27.0362C17.2709 27.4902 16.4413 27.4004 15.9872 26.8161C15.5332 26.2318 15.623 25.4021 16.2073 24.948C16.7916 24.494 17.6336 24.5996 18.0876 25.1839Z" fill="#474542"/>
<path d="M27.2757 22.9793L30.0255 25.0797L29.7649 25.5593C28.2564 25.0374 26.4544 24.4678 25.0964 25.351C24.4425 25.7763 24.0663 26.6652 24.5134 27.3526C25.8437 29.398 30.6066 25.2027 32.6021 28.2709C33.5399 29.7127 32.8571 31.7076 31.5159 32.58C31.0967 32.8526 30.7186 32.9315 30.2567 33.0649C30.0119 33.1287 29.7562 33.1757 29.5382 33.3175C29.1861 33.5465 28.9489 33.9155 28.8166 34.3356L25.9233 32.1615L26.1722 31.7371C27.4963 32.379 29.9992 32.7791 31.2566 31.9613C32.0278 31.4596 32.3504 30.4149 31.8378 29.6269C30.4312 27.4641 25.8277 31.7943 23.8539 28.7596C22.9271 27.3346 23.6132 25.5284 24.9377 24.6669C25.5413 24.2743 26.3026 24.1609 26.772 23.8556C27.0906 23.6484 27.2272 23.3449 27.2757 22.9793Z" fill="#474542"/>
<path d="M35.2689 18.5886L37.8073 20.9402L37.5023 21.393C36.0501 20.7304 34.3103 19.9925 32.8746 20.743C32.1834 21.1044 31.7246 21.9536 32.1045 22.6803C33.2349 24.8426 38.3741 21.1178 40.0697 24.3613C40.8666 25.8856 39.9978 27.8067 38.5799 28.548C38.1368 28.7796 37.7529 28.8224 37.2803 28.9114C37.0306 28.9517 36.7716 28.9743 36.5412 29.0947C36.169 29.2893 35.8979 29.6342 35.7263 30.0398L33.0522 27.6012L33.3402 27.2024C34.5975 27.9669 37.0511 28.6025 38.3804 27.9075C39.1957 27.4813 39.6158 26.4718 39.1803 25.6387C37.985 23.3523 32.9917 27.2266 31.3146 24.0185C30.527 22.512 31.3813 20.779 32.7815 20.047C33.4196 19.7134 34.1882 19.6727 34.6845 19.4132C35.0212 19.2372 35.186 18.9479 35.2689 18.5886Z" fill="#474542"/>
<path d="M45.899 25.1837C43.5312 26.1567 40.8681 24.5699 39.9331 22.2945C38.9448 19.8896 39.517 16.757 42.1254 15.6851C44.6967 14.6285 47.266 16.5133 48.2315 18.8627C49.2045 21.2305 48.3594 24.1726 45.899 25.1837ZM45.6482 24.5732C47.5721 23.7826 46.804 20.7034 46.2186 19.279C45.6637 17.9286 44.1891 15.5506 42.3763 16.2956C40.5079 17.0634 41.0489 19.6953 41.6342 21.1197C42.174 22.4331 43.8538 25.3106 45.6482 24.5732Z" fill="#474542"/>
<path d="M48.9559 14.0505L47.5699 14.5094L47.419 14.0537C48.6291 12.9999 48.9995 11.2551 48.6926 9.75554L49.3191 9.54809L50.4193 12.8707L53.0773 11.9906L53.2848 12.6171L50.6267 13.4972L52.5315 19.2501C52.8144 20.1045 53.1344 21.389 54.3115 20.9993C55.052 20.7541 55.3505 20.1285 55.668 19.4967L56.1165 19.7696C55.6653 20.8249 54.9675 21.8987 53.8093 22.2821C52.1385 22.8353 51.4391 21.55 50.9927 20.202L48.9559 14.0505Z" fill="#474542"/>
<path d="M66.9621 16.6178L65.6645 10.7598C65.0118 10.3103 64.0251 9.83243 63.2245 10.0098C61.3109 10.4337 61.3806 13.2451 61.705 14.7096C62.0424 16.2327 63.1101 18.7411 65.0628 18.3086C65.8634 18.1313 66.5603 17.3009 66.9621 16.6178ZM65.4871 9.95924L64.8037 6.87402C64.4274 5.17521 64.1713 5.31387 62.7633 5.52334L62.6379 4.95706L65.7694 3.09575L68.4944 15.3976C68.901 17.2331 68.927 17.3502 70.2894 17.2123L70.4148 17.7786L67.3687 18.4533L67.1221 17.3403C66.5597 18.2229 65.7565 19.0358 64.7411 19.2607C62.1245 19.8403 60.356 17.4052 59.8586 15.1596C59.0151 11.3519 61.0077 9.61996 62.3941 9.31286C63.5072 9.06632 64.5351 9.45315 65.4871 9.95924Z" fill="#474542"/>
<path d="M78.8513 10.9797L72.1447 11.9748C72.4324 13.9136 73.4317 16.697 75.9047 16.3301C77.2302 16.1334 78.269 15.2312 78.882 14.0484L79.2653 14.315C78.6369 15.8034 77.396 16.9782 75.7737 17.2189C73.004 17.6299 70.6515 15.674 70.2493 12.9637C69.8736 10.4314 71.2468 7.55875 74.0165 7.14778C76.4894 6.78085 78.5049 8.64522 78.8513 10.9797ZM72.1321 11.2083L76.7416 10.5244C76.6578 9.14171 75.8147 7.54818 74.0936 7.80357C72.412 8.05309 71.972 9.8572 72.1321 11.2083Z" fill="#474542"/>
<path d="M91.3772 15.5641L90.7178 15.5936L86.0713 3.90949C85.7523 3.04287 85.5457 2.45151 85.031 2.13418C84.5181 1.85682 83.8596 1.90627 83.2802 1.93218L83.2507 1.27284L89.3447 1.00038L89.3741 1.65972C88.7148 1.6892 87.714 1.69391 87.7524 2.55305C87.7739 3.03257 88.1302 3.83746 88.3096 4.26987L91.4713 12.2967L93.6681 5.01127C93.8611 4.40205 94.259 3.00288 94.2322 2.40348C94.1884 1.42445 93.1957 1.60898 92.511 1.51947L92.4815 0.86013L97.4565 0.637695L97.486 1.29704C96.9483 1.36112 96.4679 1.36258 96.0054 1.76364C95.3702 2.33258 94.9222 3.95421 94.6981 4.76502L91.3772 15.5641Z" fill="#474542"/>
<path d="M104.827 10.0013L98.0476 9.90779C98.0205 11.8676 98.5605 14.7753 101.06 14.8098C102.4 14.8283 103.57 14.1043 104.365 13.0352L104.701 13.3598C103.842 14.7281 102.428 15.6887 100.788 15.6661C97.9887 15.6275 95.9803 13.3196 96.0181 10.5799C96.0534 8.02012 97.8696 5.40491 100.669 5.44352C103.169 5.47799 104.859 7.6415 104.827 10.0013ZM98.158 9.14924L102.818 9.21349C102.957 7.83528 102.38 6.12717 100.64 6.10318C98.9404 6.07974 98.2168 7.78992 98.158 9.14924Z" fill="#474542"/>
<path d="M111.216 13.9308L111.428 10.6777C109.996 10.8246 107.738 11.639 107.629 13.2955C107.568 14.2335 108.188 14.8753 108.986 14.9274C109.724 14.9757 110.68 14.457 111.216 13.9308ZM111.471 10.0191L111.557 8.70193C111.621 7.72402 111.496 6.5734 110.299 6.49512C109.301 6.42989 108.839 7.06109 108.563 7.90491C108.343 8.51185 108.059 8.87408 107.34 8.82712C106.782 8.79059 106.425 8.42652 106.46 7.88767C106.568 6.23121 108.945 5.74521 110.242 5.83001C111.08 5.8848 112.089 6.09103 112.731 6.6942C113.41 7.33988 113.355 8.1781 113.301 9.01631L113.003 13.5666C112.972 14.0456 112.915 14.9237 113.513 14.9628C113.853 14.985 114.108 14.7612 114.364 14.5174L114.596 14.9535C114.049 15.6593 113.407 16.2787 112.469 16.2174C111.651 16.1639 111.234 15.4953 111.203 14.7317C110.237 15.4101 109.116 15.9982 107.919 15.92C106.522 15.8286 105.627 14.8081 105.719 13.3911C105.893 10.7368 109.41 10.2852 111.471 10.0191Z" fill="#474542"/>
<path d="M121.22 16.949L121.394 15.5397C120.457 16.2705 119.287 16.9321 118.056 16.7801C117.243 16.6796 116.426 16.2764 116.04 15.4832C115.64 14.6478 115.757 13.695 115.87 12.782L116.306 9.2488C116.377 8.18944 116.403 7.80985 115.193 7.66032L115.251 7.18394L118.433 6.38788L117.553 13.5137C117.423 14.5658 117.71 15.6692 118.921 15.8188C119.893 15.9389 120.766 15.2405 121.477 14.7036L122.063 9.95966C122.133 8.9003 122.16 8.52071 120.949 8.37118L121.008 7.8948L124.189 7.09874L123.282 14.443C123.052 16.3088 123.037 16.4279 124.387 16.7558L124.316 17.3314L121.22 16.949Z" fill="#474542"/>
<path d="M140.245 10.0169L138.9 15.5969L138.336 15.4609C138.955 12.9769 137.311 12.457 135.752 12.1838L134.955 11.9915L133.872 16.4827C133.492 18.0576 133.612 18.498 135.381 18.9247C138.55 19.6891 139.306 19.0279 141.842 17.0471L142.261 17.354L139.932 20.7011L129.51 18.1877L129.665 17.5461C131.201 17.9165 131.595 17.4767 132.116 15.3185L133.954 7.69708C134.47 5.55841 134.324 4.96781 132.788 4.59736L132.943 3.95576L143.111 6.40824L143.67 10.0612L143.114 10.2356C141.952 7.54814 141.479 6.69346 138.621 6.00414C136.638 5.52583 136.446 5.80878 135.987 7.71414L135.11 11.3499L135.907 11.5422C137.734 11.9829 139.058 11.9525 139.701 9.88557L140.245 10.0169Z" fill="#474542"/>
<path d="M150.26 21.3346L150.454 21.6962C149.075 22.7699 147.345 23.3862 145.622 22.8009C143.141 21.9583 142.145 19.1065 142.943 16.7583C143.895 13.9555 146.58 12.3327 149.496 13.3232C150.575 13.6898 152.377 15.0409 151.926 16.3665C151.74 16.9157 151.131 17.1526 150.582 16.966C149.181 16.4901 150.515 14.3662 148.697 13.7487C146.746 13.0862 145.492 15.5331 144.997 16.9913C144.386 18.7903 144.637 21.3469 146.739 22.0609C148.027 22.4983 149.143 21.948 150.26 21.3346Z" fill="#474542"/>
<path d="M155.678 24.4341L156.992 21.4507C155.596 21.098 153.195 21.0898 152.526 22.609C152.147 23.4692 152.51 24.2844 153.242 24.6068C153.919 24.9051 154.995 24.7451 155.678 24.4341ZM157.258 20.8467L157.79 19.6386C158.185 18.7418 158.461 17.6179 157.363 17.1342C156.448 16.7311 155.798 17.1658 155.25 17.8642C154.835 18.3591 154.444 18.602 153.785 18.3118C153.273 18.0861 153.062 17.6218 153.279 17.1276C153.949 15.6084 156.348 15.9659 157.538 16.4899C158.307 16.8284 159.184 17.3677 159.58 18.1543C159.997 18.9936 159.659 19.7623 159.32 20.5311L157.482 24.7043C157.289 25.1435 156.934 25.9489 157.483 26.1907C157.794 26.3278 158.111 26.2049 158.435 26.0637L158.504 26.5528C157.748 27.0285 156.933 27.3907 156.072 27.0118C155.322 26.6813 155.159 25.9102 155.392 25.1824C154.252 25.4888 152.997 25.6575 151.899 25.1738C150.618 24.6095 150.126 23.344 150.699 22.0445C151.771 19.6101 155.23 20.3905 157.258 20.8467Z" fill="#474542"/>
<path d="M163.596 22.916L161.583 26.5565C160.673 28.2017 160.615 28.3068 161.711 29.0952L161.43 29.6028L157.562 27.464L157.842 26.9564C159.075 27.4551 159.133 27.3501 160.043 25.7049L162.124 21.9418C162.584 20.9851 162.75 20.6429 161.683 20.0526L161.915 19.6325L165.164 20.0806L164.022 22.1459C165.142 21.691 166.879 21.029 168.034 21.6677C168.612 21.9871 168.897 22.6703 168.558 23.2829C168.258 23.8255 167.649 24.0598 167.071 23.7405C166.458 23.4017 166.483 22.8208 165.922 22.5112C165.31 22.1724 164.165 22.5904 163.596 22.916Z" fill="#474542"/>
<path d="M166.654 29.5632L171.652 21.9345C172.605 20.479 172.327 20.3925 171.194 19.5307L171.512 19.0455L175.031 19.988L168.126 30.5276C167.096 32.1002 167.03 32.2006 168.097 33.0907L167.779 33.5758L164.032 31.1208L164.349 30.6356C165.558 31.2361 165.624 31.1357 166.654 29.5632Z" fill="#474542"/>
<path d="M173.497 35.4719L175.522 32.9167C174.26 32.223 171.939 31.6092 170.908 32.9103C170.325 33.6471 170.469 34.5272 171.096 35.024C171.676 35.4836 172.758 35.6003 173.497 35.4719ZM175.932 32.3994L176.751 31.3648C177.36 30.5966 177.911 29.5789 176.971 28.8337C176.187 28.2127 175.448 28.4692 174.741 29.0066C174.215 29.3808 173.775 29.5172 173.211 29.07C172.772 28.7223 172.685 28.2198 173.021 27.7966C174.052 26.4954 176.283 27.447 177.302 28.2543C177.961 28.7759 178.673 29.5191 178.858 30.3803C179.05 31.2977 178.528 31.9561 178.007 32.6145L175.175 36.1887C174.877 36.5649 174.33 37.2546 174.801 37.6272C175.067 37.8384 175.404 37.7993 175.754 37.7446L175.697 38.2352C174.845 38.5047 173.965 38.6494 173.228 38.0657C172.586 37.5564 172.623 36.7691 173.032 36.1238C171.851 36.1325 170.595 35.9791 169.654 35.2339C168.557 34.3644 168.401 33.0158 169.283 31.9028C170.934 29.8179 174.084 31.4461 175.932 32.3994Z" fill="#474542"/>
<path d="M181.677 33.1546L180.629 32.1373L180.964 31.793C182.457 32.3795 184.176 31.902 185.364 30.9372L185.838 31.3971L183.399 33.9075L185.407 35.8586L184.947 36.332L182.939 34.3809L178.716 38.7276C178.089 39.3732 177.098 40.2503 177.987 41.1143C178.547 41.6578 179.239 41.6336 179.946 41.6234L179.912 42.1472C178.767 42.2345 177.492 42.1116 176.617 41.2615C175.355 40.0351 176.172 38.8211 177.161 37.8025L181.677 33.1546Z" fill="#474542"/>
<path d="M188.3 45.8907L183.976 40.6681C182.466 41.918 180.602 44.2141 182.197 46.1398C183.051 47.172 184.361 47.5937 185.69 47.5058L185.66 47.9717C184.062 48.2047 182.414 47.7512 181.368 46.488C179.583 44.3312 180.038 41.3058 182.149 39.5585C184.121 37.926 187.289 37.6137 189.075 39.7705C190.669 41.6962 190.118 44.3858 188.3 45.8907ZM184.625 40.2605L187.597 43.8501C188.736 43.0625 189.663 41.5162 188.554 40.1759C187.47 38.8664 185.698 39.4241 184.625 40.2605Z" fill="#474542"/>
</svg>
