<svg width="292" height="94" viewBox="0 0 292 94" fill="none" xmlns="http://www.w3.org/2000/svg">
<path d="M8.50524 31.7945L13.8345 34.9158L13.4591 35.7199C10.6825 35.0576 6.43595 34.7725 4.10924 36.6789C0.00036335 40.0456 2.46733 45.4294 5.18501 48.7462C8.10549 52.3106 13.892 55.6364 18.1246 52.1684C20.7731 49.9983 21.0297 46.7266 20.5479 43.5636L21.3111 43.4347C22.3676 47.4507 21.738 51.7313 18.4212 54.4489C13.545 58.4443 7.14513 56.9448 3.35255 52.3162C1.50697 50.0637 0.403952 47.2028 0.124951 44.2873C-0.210424 41.2525 0.480706 37.9558 2.98069 35.9074C3.84702 35.1976 4.65282 34.8683 5.35962 34.6201C6.09117 34.3517 6.72819 34.1193 7.24799 33.6934C7.89154 33.1661 8.18378 32.5129 8.50524 31.7945Z" fill="#474542"/>
<path d="M33.4692 44.2424L32.357 42.2612C31.843 44.0911 30.9628 46.0532 29.2328 47.0244C28.0887 47.6667 26.6539 47.9217 25.4046 47.2653C24.0961 46.5686 23.3442 45.2293 22.6236 43.9457L19.8352 38.9789C18.9212 37.547 18.5957 37.0325 16.8936 37.9881L16.5176 37.3184L19.8626 33.2753L25.4864 43.2927C26.3166 44.7716 27.7328 45.9215 29.435 44.9659C30.8022 44.1983 31.2639 42.4712 31.6712 41.1049L27.9272 34.436C27.0132 33.0041 26.6877 32.4896 24.9856 33.4452L24.6096 32.7755L27.9546 28.7324L33.7507 39.0567C35.2232 41.6797 35.3172 41.8471 37.3679 40.9894L37.8222 41.7986L33.4692 44.2424Z" fill="#474542"/>
<path d="M35.5214 25.3332L40.339 36.1487C41.5629 38.8964 41.6411 39.0718 43.733 38.4203L44.1106 39.268L37.5628 42.1846L37.1721 41.3077C39.0557 40.1884 38.9646 39.9838 37.7536 37.2653L34.9672 31.0098C34.1894 29.4996 33.9128 28.9572 32.1297 29.7515L31.8172 29.05L35.5214 25.3332ZM33.5839 20.2759C34.0527 21.3282 33.5664 22.5958 32.514 23.0645C31.4325 23.5463 30.178 23.0892 29.6962 22.0077C29.2144 20.9261 29.6715 19.6716 30.7531 19.1898C31.8346 18.708 33.1022 19.1943 33.5839 20.2759Z" fill="#474542"/>
<path d="M48.1056 20.453L51.6358 24.7178L51.0568 25.3717C48.8931 24.0147 46.2892 22.4776 43.8539 23.3654C42.6814 23.7928 41.7748 25.043 42.2241 26.2756C43.5613 29.9435 52.4974 25.119 54.5031 30.6208C55.4457 33.2063 53.6628 36.0702 51.2576 36.947C50.506 37.221 49.8881 37.2079 49.1199 37.2495C48.7153 37.2608 48.2998 37.242 47.9089 37.3845C47.2776 37.6146 46.7749 38.1044 46.4173 38.7117L42.69 34.2802L43.2309 33.7084C45.0638 35.186 48.8215 36.7112 51.0763 35.8891C52.4593 35.385 53.3384 33.8724 52.8232 32.4593C51.4094 28.581 42.6731 33.6733 40.6893 28.2317C39.7576 25.6762 41.4779 23.1076 43.853 22.2417C44.9353 21.8472 46.1629 21.9446 47.0048 21.6377C47.576 21.4294 47.8982 21.0054 48.1056 20.453Z" fill="#474542"/>
<path d="M61.4591 16.4844L64.6558 21.0047L64.0288 21.6128C61.9743 20.0956 59.4944 18.3654 56.9988 19.066C55.7973 19.4033 54.7984 20.581 55.153 21.8442C56.2081 25.6029 65.4844 21.4701 67.067 27.1082C67.8108 29.7578 65.8158 32.4782 63.3511 33.1701C62.5808 33.3863 61.9657 33.3263 61.1966 33.3095C60.7923 33.2901 60.3793 33.2398 59.9788 33.3522C59.3318 33.5339 58.7935 33.9841 58.3908 34.5625L55.0104 29.8611L55.5931 29.3319C57.3087 30.9443 60.9398 32.7501 63.2505 32.1015C64.6677 31.7036 65.659 30.2621 65.2526 28.8141C64.1369 24.8397 55.0396 29.2547 53.4742 23.6782C52.7391 21.0594 54.6492 18.6287 57.0831 17.9455C58.1923 17.6341 59.409 17.8244 60.2716 17.5822C60.857 17.4179 61.2105 17.0196 61.4591 16.4844Z" fill="#474542"/>
<path d="M75.5808 30.2551C71.5679 31.0759 67.8571 27.7848 67.0683 23.9286C66.2347 19.853 68.0716 15.1005 72.492 14.1963C76.8498 13.305 80.324 17.0365 81.1385 21.018C81.9593 25.0309 79.7504 29.4022 75.5808 30.2551ZM75.3692 29.2205C78.6297 28.5536 78.344 23.484 77.8502 21.07C77.3821 18.7814 75.776 14.6025 72.7037 15.2309C69.5372 15.8786 69.5999 20.1772 70.0937 22.5912C70.549 24.8171 72.3281 29.8426 75.3692 29.2205Z" fill="#474542"/>
<path d="M83.2834 13.6739L80.9724 14.0147L80.8603 13.255C83.0582 11.9281 84.1233 9.28032 84.0534 6.83233L85.098 6.67824L85.9151 12.2183L90.3472 11.5646L90.5013 12.6093L86.0692 13.263L87.484 22.8552C87.6941 24.2798 87.844 26.3926 89.8067 26.1031C91.0414 25.921 91.6844 25.0175 92.3591 24.1093L92.9907 24.6631C91.9885 26.2018 90.5924 27.7016 88.6613 27.9864C85.8754 28.3973 85.1277 26.1786 84.7962 23.9309L83.2834 13.6739Z" fill="#474542"/>
<path d="M110.487 22.4768L109.866 12.8969C108.943 12.0268 107.5 11.0301 106.191 11.115C103.061 11.3179 102.485 15.7805 102.64 18.1755C102.801 20.6663 103.877 24.8935 107.071 24.6865C108.38 24.6016 109.685 23.4588 110.487 22.4768ZM109.781 11.5877L109.453 6.54225C109.273 3.76409 108.835 3.92081 106.557 3.90816L106.497 2.9821L111.903 0.803711L113.208 20.9215C113.402 23.9232 113.415 24.1148 115.603 24.2294L115.663 25.1555L110.681 25.4785L110.563 23.6583C109.458 24.9164 107.99 26.0058 106.329 26.1134C102.05 26.3909 99.8486 22.1084 99.6104 18.4361C99.2067 12.2092 102.78 9.9572 105.048 9.81019C106.868 9.69216 108.399 10.5549 109.781 11.5877Z" fill="#474542"/>
<path d="M130.255 16.2793L119.407 16.3475C119.427 19.4834 120.384 24.1175 124.384 24.0923C126.528 24.0789 128.376 22.8832 129.613 21.1474L130.161 21.656C128.831 23.8724 126.6 25.4544 123.977 25.4709C119.497 25.4991 116.21 21.8717 116.182 17.4877C116.156 13.3918 118.978 9.15002 123.458 9.12187C127.458 9.09674 130.231 12.5034 130.255 16.2793ZM119.559 15.1305L127.015 15.0836C127.193 12.8745 126.216 10.1606 123.432 10.1781C120.712 10.1951 119.61 12.9541 119.559 15.1305Z" fill="#474542"/>
<path d="M148.572 26.1293L147.52 26.0425L142.515 6.55648C142.184 5.1164 141.976 4.13595 141.223 3.52797C140.466 2.98377 139.41 2.92876 138.486 2.8524L138.573 1.79998L148.299 2.6031L148.213 3.65552C147.16 3.56862 145.571 3.37318 145.458 4.74451C145.394 5.50991 145.797 6.85959 145.994 7.58227L149.384 20.9626L154.348 9.84538C154.778 8.91759 155.693 6.77764 155.772 5.8209C155.901 4.25822 154.288 4.3498 153.219 4.06892L153.306 3.0165L161.247 3.67216L161.16 4.72458C160.294 4.71727 159.531 4.62218 158.716 5.16492C157.592 5.9391 156.553 8.42196 156.033 9.66338L148.572 26.1293Z" fill="#474542"/>
<path d="M170.688 19.8944L159.938 18.439C159.517 21.5467 159.814 26.2692 163.778 26.8059C165.902 27.0935 167.901 26.1692 169.369 24.6243L169.839 25.2046C168.211 27.2123 165.781 28.4657 163.181 28.1136C158.742 27.5126 155.996 23.4597 156.585 19.1153C157.134 15.0563 160.523 11.2526 164.963 11.8536C168.926 12.3903 171.194 16.1525 170.688 19.8944ZM160.259 17.2555L167.648 18.2558C168.134 16.0935 167.548 13.2693 164.789 12.8958C162.094 12.5309 160.615 15.1077 160.259 17.2555Z" fill="#474542"/>
<path d="M179.587 27.2979L180.563 22.174C178.259 22.1263 174.514 22.9768 174.017 25.5859C173.736 27.0634 174.593 28.2039 175.851 28.4434C177.014 28.6648 178.634 28.0285 179.587 27.2979ZM180.76 21.1366L181.155 19.0619C181.448 17.5216 181.475 15.6699 179.589 15.3108C178.017 15.0115 177.16 15.9232 176.556 17.2091C176.088 18.1297 175.566 18.6492 174.434 18.4337C173.554 18.2661 173.058 17.618 173.22 16.7693C173.717 14.1601 177.586 13.8545 179.629 14.2435C180.95 14.4949 182.511 15.0202 183.412 16.1039C184.364 17.2624 184.113 18.5827 183.862 19.903L182.497 27.0702C182.353 27.8246 182.09 29.2078 183.033 29.3874C183.567 29.4891 184.016 29.1837 184.471 28.8469L184.754 29.5848C183.747 30.5983 182.607 31.4561 181.129 31.1748C179.84 30.9294 179.309 29.7858 179.41 28.5673C177.743 29.4551 175.848 30.1693 173.962 29.8102C171.761 29.3912 170.54 27.595 170.965 25.3631C171.761 21.1822 177.434 21.1548 180.76 21.1366Z" fill="#474542"/>
<path d="M194.392 33.9886L194.951 31.7865C193.318 32.7583 191.328 33.5736 189.405 33.0852C188.133 32.7623 186.918 31.9583 186.465 30.6217C185.996 29.2152 186.375 27.7265 186.737 26.2997L188.139 20.779C188.463 19.1116 188.582 18.5144 186.69 18.0339L186.879 17.2895L192.089 16.6648L189.261 27.7993C188.844 29.4431 189.078 31.2524 190.97 31.7328C192.489 32.1188 194.014 31.1854 195.251 30.476L197.133 23.0633C197.458 21.3959 197.576 20.7987 195.685 20.3182L195.874 19.5738L201.084 18.9491L198.169 30.4248C197.429 33.3402 197.382 33.5263 199.459 34.3179L199.23 35.2174L194.392 33.9886Z" fill="#474542"/>
<path d="M225.067 26.5489L221.797 35.1309L220.93 34.8004C222.418 30.9843 219.915 29.825 217.496 29.0743L216.27 28.6071L213.638 35.5146C212.715 37.9367 212.816 38.6601 215.537 39.697C220.411 41.5543 221.745 40.6588 226.171 38.0305L226.775 38.603L222.397 43.4413L206.37 37.3337L206.746 36.3469C209.108 37.2471 209.823 36.6292 211.088 33.31L215.554 21.5882C216.808 18.2989 216.697 17.3321 214.334 16.4319L214.71 15.4451L230.35 21.4045L230.494 27.3155L229.576 27.4792C228.277 22.9778 227.701 21.5253 223.305 19.8503C220.255 18.688 219.893 19.0981 218.777 22.0285L216.646 27.6203L217.872 28.0875C220.683 29.1586 222.79 29.3795 224.23 26.2298L225.067 26.5489Z" fill="#474542"/>
<path d="M237.978 46.2776L238.211 46.8912C235.804 48.312 232.932 48.9349 230.317 47.6524C226.554 45.8062 225.559 41.0767 227.307 37.5143C229.392 33.2623 233.985 31.2382 238.41 33.4085C240.047 34.2118 242.628 36.7253 241.641 38.7364C241.233 39.5695 240.219 39.8205 239.385 39.4118C237.259 38.3689 239.812 35.2726 237.054 33.9197C234.095 32.4681 231.604 36.0935 230.518 38.3056C229.18 41.0349 229.053 45.1432 232.242 46.7076C234.196 47.6659 236.08 47.0219 237.978 46.2776Z" fill="#474542"/>
<path d="M245.273 51.9647L247.985 47.5088C245.844 46.6558 242.039 46.1382 240.658 48.4072C239.876 49.692 240.279 51.0611 241.373 51.7264C242.384 52.3419 244.124 52.3143 245.273 51.9647ZM248.534 46.6067L249.632 44.8024C250.447 43.4629 251.121 41.7384 249.481 40.7403C248.114 39.9086 246.991 40.4614 245.975 41.4539C245.214 42.1517 244.542 42.4548 243.558 41.856C242.793 41.3903 242.556 40.6095 243.005 39.8714C244.386 37.6024 248.117 38.6738 249.893 39.7551C251.042 40.4537 252.319 41.4934 252.783 42.8244C253.268 44.2433 252.569 45.3915 251.871 46.5396L248.078 52.7724C247.679 53.4285 246.947 54.6313 247.767 55.1304C248.232 55.4131 248.76 55.2847 249.304 55.1289L249.31 55.9193C248.011 56.5149 246.642 56.918 245.357 56.1362C244.236 55.4541 244.14 54.1968 244.663 53.0914C242.79 53.3377 240.765 53.3416 239.124 52.3436C237.211 51.1792 236.697 49.0686 237.878 47.1276C240.09 43.4918 245.413 45.4567 248.534 46.6067Z" fill="#474542"/>
<path d="M257.478 50.8022L253.48 56.1242C251.674 58.5293 251.558 58.6828 253.119 60.1751L252.562 60.9171L246.907 56.67L247.464 55.928C249.307 56.9917 249.422 56.8381 251.229 54.433L255.361 48.9319C256.302 47.5181 256.642 47.0128 255.081 45.8405L255.542 45.2264L260.591 46.6572L258.323 49.6764C260.199 49.2041 263.098 48.5405 264.787 49.8089C265.631 50.4431 265.931 51.5889 265.259 52.4844C264.663 53.2776 263.645 53.5137 262.801 52.8795C261.905 52.2069 262.072 51.2918 261.254 50.6768C260.358 50.0042 258.451 50.4125 257.478 50.8022Z" fill="#474542"/>
<path d="M260.234 61.5543L269.96 50.6763C271.816 48.6009 271.396 48.3977 269.809 46.7641L270.428 46.0723L275.771 48.4024L262.333 63.4312C260.328 65.6736 260.2 65.8167 261.676 67.4793L261.057 68.1711L255.714 63.3934L256.332 62.7016C258.101 63.9398 258.229 63.7967 260.234 61.5543Z" fill="#474542"/>
<path d="M268.793 71.8699L272.669 68.3804C270.864 66.9486 267.368 65.36 265.393 67.1368C264.276 68.143 264.269 69.5701 265.125 70.5215C265.917 71.4015 267.591 71.8748 268.793 71.8699ZM273.454 67.674L275.024 66.261C276.19 65.212 277.331 63.7539 276.047 62.3269C274.976 61.1377 273.742 61.3447 272.484 62.0036C271.554 62.4532 270.823 62.5507 270.053 61.6945C269.453 61.0285 269.451 60.2127 270.093 59.6347C272.067 57.8578 275.333 59.9555 276.725 61.5015C277.624 62.5004 278.549 63.8633 278.611 65.2714C278.668 66.7699 277.669 67.669 276.67 68.5681L271.247 73.4492C270.677 73.963 269.63 74.9049 270.272 75.6185C270.636 76.0228 271.179 76.0513 271.745 76.0584L271.523 76.8172C270.108 77.0147 268.681 77.0076 267.675 75.8897C266.797 74.9146 267.066 73.6825 267.884 72.7738C266.019 72.4719 264.078 71.894 262.794 70.4669C261.295 68.802 261.409 66.6328 263.098 65.1128C266.261 62.2655 270.795 65.6761 273.454 67.674Z" fill="#474542"/>
<path d="M281.625 69.7113L280.302 67.7854L280.936 67.3507C283.094 68.7415 285.94 68.5341 288.108 67.3951L288.706 68.2657L284.089 71.4352L286.624 75.1286L285.754 75.7262L283.218 72.0328L275.225 77.5205C274.038 78.3355 272.206 79.3989 273.329 81.0346C274.035 82.0635 275.129 82.2439 276.242 82.4506L276.022 83.2613C274.199 83.0376 272.238 82.443 271.134 80.8337C269.54 78.5121 271.204 76.8652 273.077 75.5793L281.625 69.7113Z" fill="#474542"/>
<path d="M286.82 90.8193L282.09 81.0567C279.267 82.4241 275.496 85.2823 277.24 88.8821C278.175 90.8115 280.05 91.9656 282.149 92.3353L281.926 93.0481C279.353 92.8013 276.965 91.4691 275.821 89.1077C273.867 85.0759 275.727 80.5479 279.672 78.6365C283.359 76.8505 288.402 77.5718 290.355 81.6035C292.099 85.2033 290.218 89.1729 286.82 90.8193ZM283.254 80.6705L286.505 87.3805C288.575 86.5905 290.605 84.5406 289.391 82.0352C288.205 79.5873 285.24 79.7793 283.254 80.6705Z" fill="#474542"/>
</svg>
