<svg width="197" height="114" viewBox="0 0 197 114" fill="none" xmlns="http://www.w3.org/2000/svg">
<path d="M0.152141 101.25L4.46299 99.5552L4.76298 100.149C3.08533 101.479 0.948494 103.851 0.993772 106.106C1.07373 110.089 5.3915 111.131 8.60686 111.066C12.0622 110.997 16.7056 109.127 16.6232 105.024C16.5717 102.457 14.7618 100.789 12.6737 99.6064L12.9515 99.0967C15.8089 100.336 18.0407 102.691 18.1052 105.907C18.2001 110.634 14.3491 113.712 9.86201 113.802C7.67845 113.846 5.48044 113.17 3.63224 111.982C1.68758 110.773 0.0643998 108.837 0.0157503 106.414C-0.00110848 105.574 0.17833 104.946 0.359693 104.415C0.540576 103.859 0.698909 103.376 0.688794 102.872C0.67627 102.248 0.426684 101.773 0.152141 101.25Z" fill="#474542"/>
<path d="M19.1607 91.9773L17.4813 91.689C18.3042 92.853 19.0311 94.2927 18.7794 95.7593C18.6129 96.7291 18.0835 97.6853 17.1109 98.1028C16.0869 98.5358 14.9515 98.3409 13.8634 98.1541L9.65295 97.4314C8.38711 97.2872 7.93362 97.2337 7.68595 98.6766L7.11825 98.5791L6.34388 94.7205L14.8357 96.1782C16.0893 96.3933 17.4283 96.1118 17.676 94.6689C17.8749 93.5099 17.0871 92.4249 16.4837 91.5421L10.8304 90.5717C9.56458 90.4275 9.1111 90.374 8.86342 91.8169L8.29572 91.7195L7.52135 87.8608L16.2734 89.3631C18.4968 89.7448 18.6388 89.7692 19.1082 88.1695L19.7941 88.2873L19.1607 91.9773Z" fill="#474542"/>
<path d="M9.31699 81.6446L17.8264 84.183C19.9883 84.8279 20.1263 84.869 20.7768 83.36L21.4438 83.559L19.907 88.7107L19.217 88.5048C19.4996 86.8861 19.3386 86.838 17.1997 86.2L12.278 84.7318C11.0385 84.4372 10.5947 84.3299 10.1762 85.7328L9.62424 85.5681L9.31699 81.6446ZM5.49197 80.2782C6.31992 80.5251 6.80406 81.4209 6.55708 82.2489C6.30324 83.0998 5.43047 83.5908 4.57952 83.337C3.72858 83.0831 3.23758 82.2104 3.49142 81.3594C3.74526 80.5085 4.64103 80.0243 5.49197 80.2782Z" fill="#474542"/>
<path d="M12.9596 71.9904L17.107 72.192L17.1763 72.8434C15.3305 73.3555 13.1623 74.0203 12.4224 75.818C12.0662 76.6836 12.3001 77.818 13.21 78.1925C15.9177 79.3068 17.7649 71.9178 21.8264 73.5893C23.735 74.3748 24.4195 76.8106 23.6888 78.5862C23.4604 79.141 23.1407 79.4766 22.7752 79.9231C22.5768 80.1529 22.3563 80.3735 22.2375 80.662C22.0457 81.1281 22.0628 81.6542 22.2182 82.1594L17.8789 81.9826L17.8357 81.3939C19.581 81.1259 22.3261 79.8161 23.0112 78.1516C23.4314 77.1306 23.0382 75.8788 21.9951 75.4495C19.1321 74.2712 17.5342 81.685 13.5171 80.0318C11.6307 79.2554 11.0781 77.0036 11.7997 75.2503C12.1285 74.4513 12.8033 73.8207 13.059 73.1992C13.2326 72.7775 13.1607 72.3846 12.9596 71.9904Z" fill="#474542"/>
<path d="M17.9214 62.559L22.0147 63.2559L22.0055 63.9109C20.1117 64.1982 17.8795 64.5985 16.9296 66.2947C16.4722 67.1113 16.5685 68.2655 17.4271 68.7463C19.9817 70.177 22.7007 63.0625 26.5328 65.2085C28.3336 66.217 28.7213 68.7173 27.7832 70.3925C27.49 70.916 27.1324 71.2108 26.7161 71.6103C26.4916 71.8147 26.2462 72.0073 26.0937 72.2795C25.8474 72.7193 25.8014 73.2436 25.8952 73.7638L21.6083 73.0685L21.636 72.4788C23.4008 72.4219 26.283 71.4503 27.1625 69.8798C27.702 68.9166 27.4616 67.6267 26.4774 67.0755C23.7762 65.5627 21.3017 72.7318 17.5116 70.6092C15.7317 69.6124 15.4529 67.3107 16.3793 65.6564C16.8015 64.9026 17.5469 64.3573 17.8753 63.771C18.0981 63.3731 18.0738 62.9744 17.9214 62.559Z" fill="#474542"/>
<path d="M32.6915 62.8814C30.8741 65.3582 27.1543 65.3971 24.7743 63.6507C22.2588 61.805 20.887 58.2383 22.889 55.51C24.8625 52.8204 28.6725 53.1453 31.1299 54.9485C33.6067 56.7659 34.5798 60.3079 32.6915 62.8814ZM32.0529 62.4129C33.5295 60.4005 30.8182 57.7263 29.3283 56.6331C27.9157 55.5966 24.9189 54.0823 23.5275 55.9786C22.0935 57.9329 24.2927 60.2908 25.7826 61.3841C27.1564 62.3921 30.6757 64.2898 32.0529 62.4129Z" fill="#474542"/>
<path d="M28.7742 49.8024L27.6033 51.1056L27.1748 50.7206C27.8084 48.9023 27.1556 46.8639 25.9432 45.4841L26.4725 44.895L29.5966 47.7021L31.8423 45.2027L32.4314 45.7321L30.1858 48.2314L35.595 53.0917C36.3984 53.8135 37.4964 54.9614 38.4909 53.8546C39.1165 53.1583 39.0552 52.3289 39.0099 51.4815L39.6396 51.4989C39.7977 52.867 39.7098 54.4012 38.7313 55.4902C37.3198 57.0612 35.8259 56.1384 34.5583 54.9995L28.7742 49.8024Z" fill="#474542"/>
<path d="M48.8019 42.7024L44.225 37.1443C43.2824 37.0189 41.967 37.045 41.2074 37.6705C39.3918 39.1656 40.9969 42.1342 42.1411 43.5238C43.3311 44.9689 45.8386 47.0701 47.6913 45.5445C48.4509 44.919 48.7441 43.6516 48.8019 42.7024ZM43.5995 36.3847L41.1891 33.4574C39.8618 31.8456 39.6634 32.1332 38.2717 33.1238L37.8293 32.5865L40.1649 28.8912L49.7763 40.5632C51.2103 42.3047 51.3019 42.4159 52.6838 41.5267L53.1262 42.0639L50.236 44.4439L49.3664 43.3879C49.2454 44.6378 48.829 45.9445 47.8656 46.7378C45.383 48.7821 42.166 47.1408 40.4116 45.0102C37.4366 41.3974 38.6246 38.4605 39.94 37.3773C40.996 36.5077 42.306 36.3617 43.5995 36.3847Z" fill="#474542"/>
<path d="M58.3425 30.8065L51.5424 35.2733C52.8337 37.2391 55.326 39.7656 57.8334 38.1185C59.1774 37.2357 59.8533 35.7293 59.9241 34.1322L60.4759 34.2291C60.5426 36.1666 59.7841 38.0719 58.1392 39.1524C55.3309 40.9971 51.7827 40.0543 49.9775 37.3062C48.2909 34.7386 48.3369 30.9181 51.1452 29.0733C53.6527 27.4263 56.7877 28.4394 58.3425 30.8065ZM51.142 34.4452L55.8158 31.375C55.027 29.9119 53.3052 28.6021 51.56 29.7485C49.855 30.8685 50.2861 33.0548 51.142 34.4452Z" fill="#474542"/>
<path d="M73.6565 30.4446L72.9347 30.7706L62.5603 19.814C61.8194 18.9899 61.3261 18.4227 60.6113 18.2979C59.9163 18.2168 59.2044 18.5647 58.5702 18.8513L58.2441 18.1295L64.9151 15.116L65.2411 15.8378C64.5193 16.1639 63.406 16.6141 63.8308 17.5546C64.0679 18.0795 64.823 18.8182 65.2153 19.2203L72.3085 26.7609L71.5174 17.664C71.4616 16.8991 71.2829 15.1627 70.9865 14.5065C70.5024 13.4348 69.4779 14.0819 68.675 14.2866L68.349 13.5648L73.7951 11.1047L74.1211 11.8265C73.5503 12.137 73.0155 12.3522 72.6783 13.0049C72.2233 13.9215 72.4451 15.9281 72.5559 16.9315L73.6565 30.4446Z" fill="#474542"/>
<path d="M85.9782 18.6896L78.2999 21.38C79.0776 23.5997 80.8852 26.6538 83.7165 25.6617C85.234 25.13 86.2541 23.8316 86.7088 22.299L87.2209 22.5265C86.8172 24.4227 85.6206 26.0881 83.7633 26.7388C80.5923 27.8499 77.3773 26.0773 76.29 22.9743C75.2742 20.0751 76.2424 16.379 79.4134 15.2679C82.2446 14.2759 85.0417 16.0169 85.9782 18.6896ZM78.1115 20.4796L83.389 18.6305C82.9773 17.02 81.6232 15.3329 79.6526 16.0233C77.7274 16.6979 77.6172 18.9236 78.1115 20.4796Z" fill="#474542"/>
<path d="M94.3792 20.8467L93.3905 17.0617C91.8146 17.771 89.5515 19.5528 90.0549 21.4802C90.34 22.5715 91.2883 23.068 92.2171 22.8254C93.0763 22.6009 93.9686 21.6485 94.3792 20.8467ZM93.1903 16.2954L92.79 14.7628C92.4927 13.625 91.9148 12.3621 90.5215 12.726C89.3605 13.0293 89.073 13.923 89.0784 14.9882C89.0575 15.7626 88.8709 16.2827 88.0349 16.5011C87.3847 16.6709 86.8404 16.3914 86.6766 15.7644C86.1732 13.8371 88.6959 12.3843 90.2053 11.9901C91.1805 11.7353 92.4072 11.5885 93.3666 12.0324C94.3845 12.5107 94.6393 13.4859 94.8941 14.4612L96.2771 19.7556C96.4227 20.3129 96.6896 21.3346 97.3862 21.1526C97.7809 21.0495 97.9868 20.698 98.1866 20.3234L98.6158 20.7322C98.2598 21.743 97.7633 22.6912 96.6719 22.9763C95.7199 23.225 94.9917 22.6215 94.6683 21.7634C93.8246 22.9016 92.7708 23.9954 91.3776 24.3594C89.7521 24.784 88.3464 23.9605 87.9157 22.3118C87.1089 19.2235 90.9431 17.3785 93.1903 16.2954Z" fill="#474542"/>
<path d="M106.659 20.7139L106.343 19.0395C105.539 20.217 104.444 21.4007 102.982 21.6768C102.015 21.8593 100.934 21.697 100.203 20.9312C99.44 20.1228 99.2263 18.9907 99.0215 17.9059L98.2291 13.708C97.9224 12.4715 97.8142 12.0278 96.3756 12.2994L96.2688 11.7334L99.6144 9.66084L101.213 18.1273C101.449 19.3772 102.18 20.5337 103.618 20.2621C104.774 20.044 105.516 18.927 106.132 18.0535L105.068 12.417C104.762 11.1804 104.653 10.7368 103.215 11.0084L103.108 10.4424L106.454 8.3698L108.101 17.0957C108.519 19.3125 108.546 19.454 110.209 19.3355L110.338 20.0194L106.659 20.7139Z" fill="#474542"/>
<path d="M125.494 5.54319L126.182 12.3968L125.489 12.4663C125.206 9.40722 123.138 9.47001 121.264 9.77871L120.285 9.87695L120.838 15.3932C121.032 17.3275 121.343 17.7788 123.516 17.5607C127.408 17.1702 128.003 16.1216 130.089 12.8731L130.686 13.0544L129.374 17.7689L116.574 19.0532L116.495 18.2652C118.382 18.0759 118.654 17.4215 118.388 14.7708L117.449 5.4098C117.185 2.78299 116.786 2.17177 114.899 2.36107L114.82 1.57303L127.31 0.319824L129.391 4.23559L128.83 4.65369C126.448 2.07059 125.574 1.28998 122.063 1.64221C119.628 1.88662 119.523 2.28308 119.758 4.62333L120.206 9.08891L121.185 8.99066C123.429 8.76542 124.917 8.20611 124.825 5.61028L125.494 5.54319Z" fill="#474542"/>
<path d="M141.307 14.111L141.678 14.4343C140.588 16.2254 138.909 17.6529 136.726 17.7291C133.584 17.8388 131.254 15.0625 131.15 12.0883C131.026 8.53843 133.348 5.57559 137.042 5.4466C138.409 5.39886 141.005 6.14872 141.063 7.8277C141.087 8.52328 140.505 9.04791 139.81 9.0722C138.035 9.13418 138.628 6.18368 136.326 6.26408C133.855 6.35036 133.489 9.62912 133.554 11.476C133.634 13.7546 135.003 16.5165 137.665 16.4235C139.296 16.3666 140.315 15.2744 141.307 14.111Z" fill="#474542"/>
<path d="M148.784 15.0791L148.88 11.1683C147.17 11.4143 144.502 12.501 144.453 14.4924C144.426 15.6201 145.2 16.3593 146.159 16.3829C147.047 16.4048 148.168 15.7362 148.784 15.0791ZM148.9 10.3766L148.939 8.79305C148.968 7.6174 148.762 6.24391 147.322 6.20848C146.122 6.17895 145.599 6.95831 145.31 7.9835C145.075 8.72196 144.752 9.17014 143.889 9.14888C143.217 9.13235 142.771 8.71325 142.787 8.06545C142.836 6.07405 145.662 5.37538 147.221 5.41377C148.229 5.43857 149.449 5.63664 150.248 6.32851C151.094 7.06955 151.069 8.07725 151.044 9.08494L150.91 14.5553C150.895 15.1311 150.87 16.1868 151.589 16.2045C151.997 16.2145 152.292 15.9337 152.588 15.6289L152.887 16.1404C152.266 17.0134 151.526 17.7874 150.399 17.7597C149.415 17.7355 148.882 16.9541 148.809 16.04C147.683 16.9006 146.368 17.6605 144.928 17.625C143.249 17.5837 142.126 16.4037 142.167 14.7002C142.246 11.5092 146.441 10.7962 148.9 10.3766Z" fill="#474542"/>
<path d="M156.748 9.63207L156.333 14.6068C156.145 16.855 156.133 16.9985 157.719 17.3235L157.662 18.0171L152.376 17.576L152.434 16.8825C154.028 16.8228 154.04 16.6793 154.228 14.4312L154.657 9.28902C154.691 8.01544 154.705 7.55902 153.246 7.43728L153.294 6.86328L157.071 5.75753L156.835 8.57972C157.838 7.53147 159.415 5.95312 160.993 6.08484C161.783 6.15069 162.43 6.75866 162.36 7.59575C162.299 8.33717 161.746 8.89319 160.957 8.82733C160.12 8.75747 159.861 8.10969 159.096 8.04583C158.259 7.97598 157.21 8.99632 156.748 9.63207Z" fill="#474542"/>
<path d="M163.427 15.329L164.848 4.47766C165.119 2.40733 164.773 2.45889 163.099 2.11867L163.19 1.42856L167.484 0.611215L165.521 15.6032C165.228 17.8401 165.21 17.9829 166.827 18.3883L166.736 19.0784L161.406 18.3804L161.496 17.6903C163.115 17.7087 163.134 17.5659 163.427 15.329Z" fill="#474542"/>
<path d="M174.041 17.9685L174.763 14.1237C173.035 14.0921 170.228 14.7369 169.86 16.6946C169.652 17.8032 170.298 18.6571 171.241 18.8344C172.114 18.9983 173.327 18.5181 174.041 17.9685ZM174.91 13.3453L175.202 11.7886C175.419 10.6328 175.436 9.24399 174.021 8.97811C172.841 8.75655 172.2 9.44187 171.75 10.4074C171.4 11.0987 171.009 11.4893 170.16 11.3297C169.5 11.2057 169.127 10.7205 169.246 10.0836C169.614 8.12587 172.516 7.88954 174.049 8.17757C175.04 8.36369 176.212 8.7548 176.889 9.56591C177.606 10.4331 177.419 11.4237 177.233 12.4144L176.223 17.7923C176.117 18.3584 175.922 19.3963 176.629 19.5292C177.03 19.6045 177.367 19.3747 177.707 19.1212L177.921 19.6741C177.167 20.4361 176.313 21.0815 175.205 20.8733C174.238 20.6916 173.837 19.8349 173.911 18.9208C172.662 19.5897 171.242 20.1288 169.827 19.8629C168.176 19.5527 167.256 18.2078 167.571 16.5331C168.16 13.396 172.415 13.3651 174.91 13.3453Z" fill="#474542"/>
<path d="M181.259 10.7843L179.56 10.356L179.701 9.79749C181.605 9.51023 183.104 7.98232 183.759 6.26646L184.527 6.46007L183.5 10.5326L186.759 11.354L186.565 12.122L183.307 11.3006L181.529 18.352C181.265 19.3992 180.762 20.9058 182.204 21.2696C183.112 21.4984 183.817 21.0574 184.546 20.6223L184.824 21.1875C183.687 21.9652 182.289 22.6027 180.869 22.2448C178.822 21.7285 178.941 19.9767 179.358 18.3244L181.259 10.7843Z" fill="#474542"/>
<path d="M195.887 19.6379L188.147 17.1305C187.422 19.368 187.012 22.8931 189.866 23.8177C191.396 24.3133 192.994 23.8975 194.284 22.953L194.553 23.4441C193.084 24.7088 191.123 25.3098 189.251 24.7033C186.055 23.6678 184.569 20.3105 185.582 17.1826C186.529 14.2601 189.538 11.9046 192.734 12.9401C195.588 13.8647 196.76 16.9438 195.887 19.6379ZM188.543 16.2999L193.862 18.0233C194.51 16.4922 194.453 14.3296 192.467 13.6861C190.526 13.0574 189.091 14.7621 188.543 16.2999Z" fill="#474542"/>
</svg>
