<svg width="1512" height="308" viewBox="0 0 1512 308" fill="none" xmlns="http://www.w3.org/2000/svg">
<g clip-path="url(#clip0_453_24793)">
<path d="M427.706 7.20052C427.575 7.54111 427.465 7.88171 427.377 8.23329C426.169 12.7489 427.75 17.5283 428.244 22.033C428.716 26.4058 429.638 30.8445 428.65 35.2283C427.234 41.4799 422.975 46.5559 420.241 52.2362C414.236 64.6845 415.85 79.7696 421.504 92.3717C421.998 93.4814 422.558 94.624 423.491 95.4041C424.501 96.2501 425.851 96.5907 427.168 96.6237C430.912 96.7225 434.37 94.5471 436.994 91.8663C439.618 89.1855 441.637 85.9883 444.162 83.2195C448.411 78.561 454.032 75.188 457.698 70.0571C460.75 65.8051 462.265 60.4105 461.596 55.2137C461.244 52.4779 460.63 50.1816 459.06 47.9513C457.49 45.7209 455.766 43.3917 454.493 40.8756C452.824 37.5466 451.913 33.6352 453.044 30.0864C453.549 28.5043 454.24 27.4276 454.306 25.7466C454.361 24.3842 454.328 23.0328 454.207 21.6704C453.966 18.7698 453.384 15.8912 452.44 13.1335C450.65 7.93665 447.346 2.71782 441.989 0.696217C439.102 -0.391496 435.764 -0.19373 433.02 1.21261C430.594 2.45414 428.672 4.64055 427.706 7.17854V7.20052Z" fill="#C2D7DE"/>
<path d="M412.491 18.9016C416.256 17.9787 420.219 18.4731 424.017 19.1872C425.785 19.5278 427.662 19.9783 428.87 21.3077C430.023 22.5822 430.319 24.4061 430.506 26.12C430.967 30.4269 431.011 34.8657 429.704 38.9968C427.234 46.7866 420.076 53.3348 420.779 61.4762C421.163 65.882 423.831 69.6834 425.95 73.5728C428.068 77.4513 429.693 82.1757 427.882 86.2079C425.873 90.7126 420.384 92.5254 415.455 92.6902C405.223 93.0308 394.289 87.2956 391.204 77.5282C388.449 68.7825 392.324 59.4216 396.495 51.2583C399.602 45.1825 403.016 38.9528 404.092 32.1189C404.499 29.548 403.829 26.5705 404.938 24.2083C406.222 21.4506 409.669 19.6047 412.48 18.9126L412.491 18.9016Z" fill="#DCB571"/>
<path d="M465.075 26.8349C466.096 23.9453 463.286 21.1546 462.858 18.1222C462.43 15.0898 464.417 12.2991 466.305 9.90396C468.303 7.36596 470.444 4.74007 473.419 3.49854C476.141 2.35589 479.215 2.5207 482.146 2.83932C486.559 3.32275 491.214 4.26763 494.442 7.32201C499.349 11.9695 499.283 19.8692 497.384 26.3625C495.485 32.8558 492.125 38.9975 491.587 45.7435C491.521 46.5895 491.51 47.4905 491.895 48.2376C492.257 48.9188 492.905 49.4022 493.552 49.8197C496.198 51.5447 499.162 52.7313 501.83 54.4232C504.497 56.1152 506.946 58.4994 507.703 61.5648C508.439 64.5533 507.451 67.7175 505.936 70.3983C500.106 80.7151 486.548 85.2088 475.087 82.2313C471.508 81.2974 467.919 79.5944 465.888 76.5071C464.581 74.5185 464.043 72.1453 463.626 69.805C461.969 60.4991 461.881 50.9184 463.374 41.5904C463.945 38.0307 464.735 34.328 463.648 30.9001" fill="#A3C3CE"/>
<path d="M483.163 9.13622C479.76 8.12542 476.587 11.2128 474.622 14.1683C473.052 16.5305 471.658 19.0575 471.076 21.8262C470.538 24.3862 470.736 27.045 470.922 29.6489C471.164 32.945 471.405 36.2521 471.658 39.5482C471.844 42.0423 472.097 44.7121 473.667 46.6458C474.644 47.8434 476.192 49.1179 475.654 50.5682C475.511 50.9417 475.248 51.2494 474.984 51.546C469.341 57.7976 462.25 62.7088 454.422 65.8071C452.787 66.4553 450.986 67.1256 450.13 68.6637C449.57 69.6636 449.515 70.8501 449.482 71.9928C449.339 76.1788 449.186 80.3649 449.043 84.5509C448.823 90.7146 448.648 97.0761 450.876 102.833C453.972 110.832 451.919 119.918 454.411 128.125C454.971 129.982 455.652 131.894 457.046 133.234C458.451 134.586 460.405 135.179 462.316 135.596C473.25 137.981 484.689 135.827 495.338 132.377C505.053 129.224 514.516 124.917 522.508 118.545C530.5 112.172 536.955 103.602 539.645 93.736C540.995 88.7699 541.336 83.2984 539.184 78.6289C536.582 72.9706 530.797 69.4548 524.989 67.2244C519.182 64.9941 512.99 63.6756 507.523 60.6872C504.768 59.182 502.045 56.9846 501.397 53.9082C500.75 50.8318 503.362 47.0963 506.436 47.7775C508.006 39.1527 507.358 30.1433 504.592 21.8262C505.306 19.3541 504.23 19.0135 502.726 16.926C501.507 15.223 500.256 13.4981 498.543 12.3005C497.226 11.3886 495.7 10.8392 494.163 10.4107C490.43 9.37793 486.873 10.2459 483.174 9.13622H483.163Z" fill="#D5A654"/>
<path d="M446.713 45.5874C443.309 44.5766 440.137 47.6639 438.172 50.6194C436.602 52.9816 435.208 55.5086 434.626 58.2774C434.088 60.8373 434.285 63.4962 434.472 66.1001C434.714 69.3962 434.955 72.7033 435.208 75.9994C435.394 78.4934 435.647 81.1633 437.217 83.097C438.194 84.2946 439.742 85.5691 439.204 87.0193C439.061 87.3929 438.797 87.7005 438.534 87.9972C432.891 94.2488 425.799 99.16 417.972 102.258C416.336 102.907 414.536 103.577 413.68 105.115C413.12 106.115 413.065 107.301 413.032 108.444C412.889 112.63 412.736 116.816 412.593 121.002C412.373 127.166 412.198 133.527 414.426 139.284C417.522 147.283 415.469 156.369 417.961 164.576C418.521 166.433 419.202 168.345 420.596 169.685C422.001 171.037 423.955 171.63 425.865 172.048C436.799 174.432 448.239 172.278 458.887 168.828C468.603 165.675 478.066 161.368 486.058 154.996C494.05 148.623 500.505 140.054 503.195 130.187C504.545 125.221 504.885 119.75 502.734 115.08C500.132 109.422 494.346 105.906 488.539 103.676C482.732 101.445 476.54 100.127 471.073 97.1384C468.317 95.6331 465.595 93.4357 464.947 90.3594C464.299 87.283 466.912 83.5474 469.986 84.2286C471.556 75.6039 470.908 66.5945 468.142 58.2774C468.855 55.8053 467.78 55.4647 466.276 53.3772C465.057 51.6742 463.805 49.9492 462.093 48.7516C460.776 47.8397 459.25 47.2904 457.713 46.8619C453.98 45.8291 450.423 46.6971 446.724 45.5874H446.713Z" fill="#E3C48D"/>
<path d="M524.565 26.6969C519.713 27.0155 514.4 28.7954 512.259 33.1572C510.952 35.8271 511.095 38.9584 511.611 41.8809C512.171 45.0452 513.148 48.1435 514.498 51.066C515.157 52.4943 515.936 54.0875 515.453 55.5817C515.102 56.6584 514.18 57.4275 513.28 58.1197C511.446 59.515 509.547 60.8115 507.582 61.9981C504.475 63.8879 501.149 65.5689 498.789 68.3376C496.428 71.1063 495.32 75.3473 497.307 78.3797C499.14 81.1814 502.225 81.3572 505.145 82.2471C509.13 83.4667 512.994 85.0378 516.99 86.2244C522.205 87.7846 527.804 88.6965 533.073 87.3341C536.323 86.4881 539.298 84.8071 542.492 83.7853C543.931 83.3238 545.413 82.9832 546.829 82.4559C550.375 81.1264 552.23 78.7533 554.766 76.1713C557.302 73.5894 559.585 71.8095 559.75 68.008C559.871 65.1074 558.476 62.3607 556.841 59.9655C554.898 57.1199 552.57 54.5269 549.946 52.2966C548.519 51.088 546.96 49.9344 546.06 48.2973C544.798 46.001 545.061 43.2103 545.149 40.5844C545.314 36.0908 543.36 32.8276 540.176 29.7952C536.685 26.4771 529.044 26.3893 524.554 26.6859L524.565 26.6969Z" fill="#E3C48D"/>
<path d="M598.045 23.7916C596.64 23.0994 595.048 22.9016 593.478 22.7808C589.625 22.4621 585.42 22.572 582.346 24.9232C579.953 26.7471 578.625 29.7135 578.197 32.691C577.769 35.6685 578.164 38.7119 578.68 41.6784C579.042 43.7659 579.47 45.8974 580.502 47.7432C583.17 52.5116 589.043 54.2805 594.367 55.4561C596.552 55.9395 598.813 56.39 601.009 55.9725C603.227 55.544 605.181 54.2695 607.058 53.0279C608.792 51.8743 610.615 50.6218 611.438 48.721C612.558 46.1281 611.482 43.3154 610.231 40.9752C608.979 38.635 607.673 37.8 605.763 36.1959C603.852 34.5918 603.677 31.7242 602.711 29.5048C601.745 27.2854 600.328 24.9342 598.023 23.8025L598.045 23.7916Z" fill="#B2CDD6"/>
<path d="M603.666 29.2732C604.357 28.7458 605.543 28.7788 605.938 29.5589C605.905 22.9447 610.856 16.6272 617.279 15.089C623.174 13.6827 630.222 16.814 631.934 22.6371C632.922 25.9991 632.11 29.6028 631.144 32.9648C632.033 33.1516 632.922 33.3384 633.812 33.5252C633.065 36.9861 632 40.8864 628.839 42.4686C628.323 42.7213 627.763 42.9081 627.313 43.2706C626.808 43.6662 626.478 44.2485 626.303 44.8528C625.501 47.5775 627.697 50.3133 630.156 51.7416C632.615 53.1699 635.491 53.8841 637.654 55.7299C640.047 57.7625 641.255 60.9817 641.277 64.1239C641.299 67.2662 640.245 70.3426 638.73 73.1003C633.537 82.5381 622.526 88.4272 611.79 87.5042C606.542 87.0538 601.558 85.1421 596.673 83.1754C594.818 82.4283 592.929 81.6482 591.403 80.3407C585.585 75.3636 586.342 65.1897 588.439 58.6085C590.843 51.0714 596.311 44.4243 603.523 41.0732C603.995 40.8535 604.544 40.5239 604.511 40.0075C604.445 38.9418 601.756 37.6892 601.492 35.7775C601.207 33.679 601.909 30.5916 603.666 29.2732Z" fill="#D5A654"/>
<path d="M561.96 52.0503C562.596 49.4134 561.729 46.0844 561.488 43.4036C561.356 41.9862 561.246 40.481 561.894 39.2175C562.838 37.3827 565.034 36.6575 567.01 36.1082C570.007 35.2622 573.07 34.4162 576.165 34.6469C579.426 34.8886 582.478 36.306 585.354 37.8551C588 39.2724 590.591 40.8106 593.105 42.4587C596.091 44.4144 599.307 47.282 598.824 50.8198C598.407 53.7973 595.476 55.8079 594.499 58.6535C593.697 60.9718 594.279 63.5867 593.478 65.9049C592.237 69.4757 587.78 73.8925 585.2 76.6062C581.325 80.6714 577.055 84.3411 573.168 88.3953C567.613 94.1854 562.684 101.162 561.85 109.15C561.784 109.787 561.74 110.446 561.411 110.996C560.994 111.699 560.214 112.072 559.468 112.391C554.572 114.423 549.148 115.138 543.89 114.445C537.698 113.632 531.122 110.04 529.849 103.931C528.817 98.9758 531.594 93.9767 535.075 90.2851C538.686 86.4506 543.121 83.4511 547.864 81.1658C549.236 80.5066 552.332 80.0232 553.342 79.1113C553.671 78.8146 553.847 78.3752 553.99 77.9576C555.56 73.5299 556.13 68.8165 557.678 64.3777C559.127 60.2137 560.928 56.3902 561.971 52.0613L561.96 52.0503Z" fill="#C2D7DE"/>
<path d="M680.215 28.5264C680.193 24.0767 679.15 19.2644 675.736 16.4078C673.288 14.3642 670.006 13.661 666.844 13.2215C664.561 12.9029 662.211 12.6942 659.95 13.1776C657.919 13.6171 656.053 14.6059 654.318 15.7595C648.368 19.7149 643.823 25.7357 641.649 32.5367C641.452 33.1629 641.265 33.8112 641.342 34.4594C641.452 35.3493 642.034 36.1074 642.703 36.7007C645.426 39.1289 649.96 39.7551 651.277 43.1611C652.166 45.4684 651.036 48.1272 649.312 49.8961C647.588 51.665 645.327 52.7967 643.285 54.192C639.739 56.6202 636.797 59.8613 633.141 62.1246C630.122 63.9924 626.631 65.179 624.074 67.6511C620.736 70.8703 619.562 75.8474 619.968 80.4729C620.374 85.0984 622.163 89.4713 624.041 93.7232C625.501 97.0193 627.114 100.436 629.98 102.623C633.91 105.633 639.278 105.71 644.218 105.644C649.773 105.578 655.548 105.468 660.543 103.018C666.273 100.195 670.214 94.6022 672.597 88.6582C674.979 82.7143 676 76.3528 677.46 70.1232C679.227 62.5312 681.653 54.9831 681.774 47.1823C681.829 44.0181 680.138 41.8427 679.886 38.8322C679.59 35.4263 680.248 31.9324 680.226 28.5045L680.215 28.5264Z" fill="#88A2AC"/>
<path d="M222.921 26.901C227.773 27.2196 233.087 28.9995 235.228 33.3613C236.534 36.0312 236.391 39.1625 235.875 42.085C235.315 45.2493 234.338 48.3476 232.988 51.2701C232.329 52.6984 231.55 54.2916 232.033 55.7858C232.384 56.8625 233.306 57.6316 234.207 58.3238C236.04 59.7191 237.939 61.0156 239.904 62.2022C243.011 64.092 246.337 65.773 248.698 68.5417C251.058 71.3104 252.167 75.5514 250.18 78.5838C248.346 81.3855 245.261 81.5613 242.341 82.4512C238.356 83.6708 234.492 85.2419 230.496 86.4285C225.281 87.9887 219.683 88.9006 214.413 87.5382C211.164 86.6922 208.189 85.0112 204.994 83.9894C203.556 83.5279 202.074 83.1873 200.658 82.66C197.112 81.3305 195.256 78.9574 192.721 76.3754C190.185 73.7935 187.901 72.0136 187.736 68.2121C187.616 65.3115 189.01 62.5648 190.646 60.1696C192.589 57.324 194.916 54.731 197.54 52.5007C198.967 51.2921 200.526 50.1385 201.426 48.5014C202.689 46.2051 202.425 43.4144 202.337 40.7885C202.173 36.2949 204.127 33.0317 207.31 29.9993C210.801 26.6813 218.442 26.5934 222.932 26.89L222.921 26.901Z" fill="#88A2AC"/>
<path d="M144.934 28.6255C146.339 27.9334 147.931 27.7356 149.5 27.6147C153.354 27.2961 157.558 27.406 160.632 29.7572C163.025 31.581 164.354 34.5475 164.782 37.525C165.452 42.2494 164.035 46.9958 164.057 51.7422C164.079 57.5213 164.09 63.3005 164.112 69.0687C164.112 70.8925 164.112 72.7383 163.75 74.5292C163.124 77.5067 161.51 80.1545 159.908 82.7365C159.315 83.6923 158.711 84.6702 157.822 85.3624C156.911 86.0655 155.78 86.4061 154.638 86.5599C151.114 87.0324 147.524 85.7909 144.615 83.7583C141.706 81.7257 139.379 78.9679 137.249 76.1223C134.647 72.6504 132.243 68.9368 130.97 64.7837C129.323 59.4001 130.08 50.7863 132.726 45.8202C133.988 43.447 135.284 42.6449 137.194 41.0408C139.104 39.4367 139.28 36.5691 140.246 34.3498C141.212 32.1304 142.628 29.7792 144.934 28.6475V28.6255Z" fill="#C2D7DE"/>
<path d="M50.2584 56.1809C50.489 54.9833 50.8293 53.6319 51.8941 53.0496C52.5309 52.698 53.3103 52.6871 53.9141 52.3025C54.9241 51.6433 55.0558 50.2479 55.0558 49.0394C55.0778 44.1831 54.8692 39.3269 54.4081 34.4926C54.1446 31.7788 53.7384 28.8892 51.938 26.8347C50.2694 24.9339 47.7225 24.0989 45.2744 23.4836C43.2215 22.9563 41.1247 22.5168 39.0169 22.6486C35.1965 22.8684 31.7385 24.9119 28.467 26.8896C24.3063 29.3946 19.7175 32.5369 19.0698 37.3602C18.7844 39.4697 19.3332 41.5902 19.8712 43.6448C21.5179 49.8854 23.1536 56.115 24.8003 62.3556C20.0139 64.4981 15.3921 66.9811 10.968 69.7938C9.52986 70.7057 8.09174 71.6726 7.0598 73.024C3.88714 77.1441 5.62164 83.4287 9.22244 87.1752C15.6666 93.8663 25.8871 94.6134 35.0209 96.3164C39.3792 97.1294 43.8912 98.2501 48.1617 97.0635C57.1197 94.5805 61.7964 82.9342 71.0399 81.9125C73.005 81.6927 69.2285 73.0899 68.6467 72.3648C66.2864 69.4202 62.96 68.3875 59.3592 67.904C52.5967 66.9921 48.7764 63.7839 50.2584 56.2139V56.1809Z" fill="#D5A654"/>
<path d="M129.103 29.614C128.411 29.0866 127.225 29.1196 126.83 29.8997C126.863 23.2855 121.912 16.968 115.49 15.4298C109.595 14.0235 102.547 17.1548 100.834 22.9779C99.8462 26.3399 100.659 29.9436 101.625 33.3056C100.735 33.4924 99.8462 33.6792 98.957 33.866C98.4629 33.9759 102.58 42.8533 102.711 43.8751C103.337 48.6545 101.262 52.445 97.5188 54.7742C93.7753 57.1035 91.5358 59.7294 91.4919 64.4538C91.4699 67.596 92.5238 70.6724 94.0388 73.4301C99.2314 82.868 110.242 88.757 120.979 87.8341C126.226 87.3836 131.21 85.4719 136.096 83.5052C137.951 82.7581 139.839 81.978 141.365 80.6706C147.184 75.6935 146.426 65.5195 144.329 58.9383C141.925 51.4012 136.458 44.7541 129.245 41.4031C128.773 41.1833 128.224 40.8537 128.257 40.3373C128.323 39.2716 131.013 38.0191 131.276 36.1073C131.562 34.0088 130.859 30.9215 129.103 29.603V29.614Z" fill="#DCB571"/>
<path d="M190.328 53.357C189.691 50.7201 190.558 47.391 190.8 44.7102C190.932 43.2929 191.041 41.7877 190.394 40.5242C189.45 38.6893 187.254 37.9642 185.278 37.4148C182.281 36.5688 179.218 35.7228 176.122 35.9536C172.862 36.1953 169.81 37.6126 166.934 39.1618C164.288 40.5791 161.697 42.1173 159.183 43.7653C156.197 45.721 152.98 48.5886 153.463 52.1264C153.881 55.1039 156.812 57.1145 157.789 59.9601C158.59 62.2784 158.008 64.8933 158.81 67.2116C160.05 70.7823 164.507 75.1991 167.087 77.9129C170.962 81.9781 175.233 85.6477 179.119 89.7019C184.674 95.4921 189.603 102.469 190.438 110.456C190.503 111.094 190.547 111.753 190.877 112.302C191.294 113.005 192.073 113.379 192.82 113.698C197.716 115.73 203.139 116.444 208.398 115.752C214.589 114.939 221.165 111.346 222.439 105.238C223.471 100.282 220.693 95.2833 217.213 91.5917C213.601 87.7572 209.166 84.7578 204.424 82.4725C203.051 81.8133 199.956 81.3298 198.946 80.4179C198.616 80.1213 198.441 79.6818 198.298 79.2643C196.728 74.8365 196.157 70.1231 194.609 65.6844C193.16 61.5203 191.36 57.6968 190.317 53.3679L190.328 53.357Z" fill="#D5A654"/>
<path d="M269.557 28.4055C267.602 28.4055 265.615 28.5483 263.65 28.6692C258.644 28.9878 253.858 28.3616 250.345 32.9761C248.435 35.4811 247.886 38.7333 246.876 41.7217C245.943 44.4795 244.571 47.1054 243.835 49.918C243.099 52.7307 243.056 55.9279 244.647 58.378C246.031 60.5095 248.402 61.74 250.268 63.465C252.134 65.19 253.54 68.0246 252.255 70.211C251.201 72.0239 248.841 72.5073 246.766 72.771C242.594 73.2874 238.961 72.5512 235.689 75.6386C233.669 77.5503 231.726 79.55 229.871 81.6265C228.301 83.3734 226.786 85.2083 225.776 87.3178C223.054 93.02 224.514 99.7221 224.536 105.776C224.568 115.049 228.18 123.707 237.929 126.08C242.463 127.179 247.084 126.025 251.223 124.124C255 122.388 257.206 123.146 261.378 123.531C269.677 124.3 278.152 123.201 285.969 120.29C291.414 118.257 296.98 114.851 298.703 109.303C299.505 106.743 299.384 103.996 299.263 101.315C299.12 98.2168 298.978 95.1185 298.835 92.0312C298.67 88.4055 298.44 84.593 296.519 81.5166C292.951 75.8034 284.443 74.0345 282.181 67.695C280.194 62.1246 284.124 56.3894 285.826 50.7201C287.934 43.7214 286.046 35.1735 279.975 31.0973C276.758 28.9329 273.201 28.4055 269.557 28.3945V28.4055Z" fill="#A3C3CE"/>
<path d="M74.6294 35.0967C74.6514 30.647 75.6943 25.8347 79.1084 22.9781C81.5565 20.9345 84.839 20.2313 88.0007 19.7919C90.2841 19.4732 92.6334 19.2645 94.8949 19.7479C96.9258 20.1874 98.7921 21.1762 100.527 22.3299C106.477 26.2852 111.022 32.306 113.195 39.107C113.393 39.7332 113.58 40.3815 113.503 41.0297C113.393 41.9197 112.811 42.6778 112.141 43.2711C109.419 45.6992 104.885 46.3254 103.568 49.7314C102.678 52.0387 103.809 54.6975 105.533 56.4664C107.256 58.2353 109.518 59.367 111.56 60.7623C115.106 63.1905 118.048 66.4316 121.703 68.695C124.722 70.5627 128.213 71.7493 130.771 74.2214C134.109 77.4406 135.283 82.4177 134.877 87.0432C134.471 91.6688 132.681 96.0416 130.804 100.294C129.344 103.59 127.73 107.007 124.865 109.193C120.935 112.203 115.567 112.28 110.626 112.214C105.072 112.149 99.2971 112.039 94.3021 109.589C88.5716 106.765 84.6305 101.173 82.2482 95.2285C79.866 89.2846 78.845 82.9231 77.3849 76.6935C75.6175 69.1015 73.1913 61.5534 73.0705 53.7526C73.0156 50.5884 74.7063 48.413 74.9588 45.4025C75.2552 41.9966 74.5965 38.5027 74.6185 35.0748L74.6294 35.0967Z" fill="#88A2AC"/>
<path d="M13.2186 20.3853C12.2635 19.4185 11.2096 18.5395 9.98006 17.9682C8.38824 17.2431 6.60983 17.0892 4.86432 16.9574C0.319403 16.5948 -4.89518 16.474 -8.04588 19.7811C-10.5599 22.4289 -10.8892 26.4282 -10.8892 30.0759C-10.8892 33.306 -10.7356 36.5252 -10.4282 39.7444C-10.2745 41.3595 -10.0878 43.0185 -10.494 44.5897C-11.2845 47.677 -14.1497 49.7536 -16.9491 51.2808C-19.6497 52.742 -22.482 53.9506 -25.4132 54.8845C-27.4551 55.5327 -29.7056 56.159 -30.9352 57.9169C-31.5609 58.8069 -31.8353 59.8726 -32.0659 60.9273C-32.8453 64.4542 -33.2515 68.2227 -32.011 71.6177C-30.0898 76.8804 -24.6338 80.0777 -19.2106 81.44C-12.3932 83.154 -5.24649 82.6596 1.75751 82.1432C9.4641 81.5829 17.2256 80.9896 24.6577 78.8911C26.3593 78.4076 28.1268 77.8034 29.3124 76.4849C30.5749 75.0896 30.9811 73.1339 31.2336 71.2661C31.9581 65.9044 31.7605 60.2571 29.521 55.324C26.9851 49.7316 20.53 44.8973 19.3773 38.7776C18.7625 35.5474 19.4761 32.3831 18.4222 29.087C17.3683 25.7909 15.6118 22.8025 13.2076 20.3634L13.2186 20.3853Z" fill="#E3C48D"/>
<path d="M346.501 26.3945C346.128 32.9208 345.766 39.4471 345.392 45.9733C345.217 49.0827 345.052 52.2689 346.007 55.2244C347.665 60.3443 352.33 63.7942 356.722 66.9036C357.863 67.7166 359.082 68.5516 360.476 68.6944C362.156 68.8702 363.748 68.0132 365.175 67.1123C377.81 59.0698 386.066 44.5231 386.494 29.5368C386.527 28.3612 386.505 27.1416 386.055 26.0539C385.067 23.6697 382.421 22.571 380.215 21.6262C376.888 20.1979 373.639 18.5828 370.389 16.9127C368.863 16.1217 367.326 15.3416 365.713 14.7483C361.42 13.1882 356.579 13.1662 352.265 14.6604C346.918 16.5172 346.786 21.3625 346.501 26.4055V26.3945Z" fill="#E3C48D"/>
<path d="M610.231 55.9758C610.461 54.7783 610.801 53.4269 611.866 52.8445C612.503 52.493 613.283 52.482 613.886 52.0974C614.896 51.4382 615.028 50.0429 615.028 48.8343C615.05 43.978 614.841 39.1218 614.38 34.2875C614.117 31.5737 613.711 28.6842 611.91 26.6296C610.242 24.7288 607.695 23.8938 605.247 23.2786C603.194 22.7512 601.097 22.3117 598.989 22.4435C595.169 22.6633 591.711 24.7069 588.439 26.6845C584.278 29.1896 579.69 32.3318 579.042 37.1551C578.757 39.2646 579.305 41.3851 579.843 43.4397C581.49 49.6803 583.126 55.9099 584.772 62.1505C579.986 64.293 575.364 66.7761 570.94 69.5887C569.502 70.5006 568.064 71.4675 567.032 72.8189C563.859 76.939 565.594 83.2236 569.195 86.9701C575.639 93.6612 585.859 94.4083 594.993 96.1113C599.351 96.9244 603.863 98.045 608.134 96.8584C617.092 94.3754 621.769 82.7292 631.012 81.7074C632.977 81.4876 629.201 72.8848 628.619 72.1597C626.259 69.2152 622.932 68.1824 619.331 67.699C612.569 66.787 608.749 63.5788 610.231 56.0088V55.9758Z" fill="#B18A46"/>
<path d="M506.517 18.9897C504.267 18.6381 502.016 19.55 500.029 20.6487C496.615 22.5385 493.443 25.2632 492.103 28.9329C490.303 33.877 490.358 39.9199 490.292 45.1167C490.248 49.116 491.016 52.6648 492.641 56.2905C494.123 59.5976 497.592 61.0588 500.919 62.1026C504.322 63.1793 508.076 64.0363 511.392 62.7289C513.708 61.817 515.519 59.9601 517.111 58.0374C519.504 55.1259 521.557 51.9396 523.204 48.5556C524.126 46.6549 524.949 44.5893 524.697 42.4908C524.521 41.0405 523.852 39.7111 523.16 38.4256C521.261 34.9318 519.076 31.5807 516.65 28.4275C514.147 25.1753 510.887 19.6599 506.517 18.9787V18.9897Z" fill="#E3C48D"/>
<path d="M638.145 28.5264C638.167 24.0767 639.209 19.2644 642.624 16.4078C645.072 14.3642 648.354 13.661 651.516 13.2215C653.799 12.9029 656.149 12.6942 658.41 13.1776C660.441 13.6171 662.307 14.6059 664.042 15.7595C669.992 19.7149 674.537 25.7357 676.71 32.5367C676.908 33.1629 677.095 33.8112 677.018 34.4594C676.908 35.3493 676.326 36.1074 675.657 36.7007C672.934 39.1289 668.4 39.7551 667.083 43.1611C666.194 45.4684 667.324 48.1272 669.048 49.8961C670.771 51.665 673.033 52.7967 675.075 54.192C678.621 56.6202 681.563 59.8613 685.218 62.1246C688.237 63.9924 691.728 65.179 694.286 67.6511C697.624 70.8703 698.798 75.8474 698.392 80.4729C697.986 85.0984 696.197 89.4713 694.319 93.7232C692.859 97.0193 691.245 100.436 688.38 102.623C684.45 105.633 679.082 105.71 674.142 105.644C668.587 105.578 662.812 105.468 657.817 103.018C652.087 100.195 648.146 94.6022 645.763 88.6582C643.381 82.7143 642.36 76.3528 640.9 70.1232C639.133 62.5312 636.706 54.9831 636.586 47.1823C636.531 44.0181 638.221 41.8427 638.474 38.8322C638.77 35.4263 638.112 31.9324 638.134 28.5045L638.145 28.5264Z" fill="#88A2AC"/>
<path d="M535.251 53.7463C536.82 53.9551 538.368 53.0652 539.367 51.8236C540.366 50.5821 540.904 49.0659 541.431 47.5717C543.495 41.6826 545.504 34.8927 542.397 29.4761C539.4 24.2463 532.824 22.4444 526.874 21.4776C523.899 20.9941 520.847 20.5986 517.894 21.1809C514.941 21.7632 512.054 23.4772 510.792 26.202C509.771 28.3994 509.913 30.9374 510.056 33.3545C510.528 41.1992 510.857 49.2087 508.706 56.7568C508.354 57.9983 507.926 59.2398 507.224 60.3276C506.115 62.0635 504.391 63.316 502.58 64.3158C495.905 67.9855 488.012 68.5019 480.701 70.5894C479.932 70.8091 479.142 71.0618 478.549 71.5892C477.704 72.3363 477.385 73.5229 477.276 74.6436C476.88 78.7967 478.867 82.9388 481.853 85.8503C484.839 88.7619 488.737 90.5857 492.711 91.8492C500.373 94.2993 508.508 94.8926 516.566 95.0135C519.673 95.0574 522.834 95.0355 525.81 94.1235C529.465 93.0029 532.572 90.6297 535.591 88.2675C539.411 85.279 543.199 82.2576 546.997 79.2362C547.952 78.4781 548.929 77.687 549.489 76.6103C550.049 75.5445 550.148 74.303 550.247 73.0944C550.587 68.6117 550.719 62.2832 545.592 60.5363C541.168 59.0421 537.369 58.7454 535.251 53.7024V53.7463Z" fill="#B18A46"/>
<path d="M322.855 26.3292C323.008 25.3074 323.162 24.2527 323.645 23.3407C324.084 22.5057 324.765 21.8245 325.424 21.1653C327.905 18.7042 330.43 16.1992 333.547 14.6281C336.577 13.1009 340.024 12.5405 343.417 12.4746C345.656 12.4307 348.071 12.6614 349.795 14.0897C352.122 16.0124 352.441 19.4074 352.583 22.4178C352.891 28.8342 353.165 35.4374 351.068 41.5132C350.487 43.1942 349.729 44.8313 349.477 46.5892C349.224 48.3471 349.586 50.3248 350.926 51.4894C352.748 53.0825 355.569 52.6431 357.765 53.6429C359.324 54.346 360.466 55.7194 361.552 57.0488C364.462 60.5976 367.524 64.5859 367.437 69.1785C367.393 71.6725 366.394 74.0347 365.362 76.298C360.773 86.3951 355.064 95.9867 348.368 104.831C346.897 106.776 345.316 108.732 343.142 109.841C340.332 111.27 336.973 111.05 333.877 110.446C327.059 109.138 320.56 106.183 315.082 101.909C312.81 100.129 308.463 55.258 310.581 52.4013C312.92 49.2591 315.84 48.3142 318.694 45.9849C320.813 44.249 320.538 42.1944 320.868 39.6125C321.428 35.1737 322.185 30.746 322.844 26.3182L322.855 26.3292Z" fill="#C2D7DE"/>
<path d="M576.744 13.8258C575.789 12.8589 574.735 11.98 573.505 11.4086C571.914 10.6835 570.135 10.5297 568.39 10.3978C563.845 10.0353 558.63 9.9144 555.479 13.2215C552.965 15.8694 552.636 19.8686 552.636 23.5163C552.636 26.7465 552.79 29.9657 553.097 33.1849C553.251 34.7999 553.438 36.459 553.031 38.0301C552.241 41.1175 549.376 43.194 546.576 44.7212C543.876 46.1825 541.043 47.391 538.112 48.3249C536.07 48.9732 533.82 49.5994 532.59 51.3573C531.964 52.2473 531.69 53.313 531.459 54.3678C530.68 57.8946 530.274 61.6631 531.514 65.0581C533.436 70.3209 538.892 73.5181 544.315 74.8805C551.132 76.5945 558.279 76.1 565.283 75.5837C572.989 75.0233 580.751 74.43 588.183 72.3315C589.885 71.8481 591.652 71.2438 592.838 69.9254C594.1 68.53 594.506 66.5743 594.759 64.7065C595.483 59.3449 595.286 53.6976 593.046 48.7644C590.51 43.172 584.055 38.3378 582.903 32.218C582.288 28.9878 583.001 25.8236 581.948 22.5275C580.894 19.2314 579.137 16.2429 576.733 13.8038L576.744 13.8258Z" fill="#E3C48D"/>
<path d="M588.923 21.2307C590.877 21.2307 592.864 21.3735 594.829 21.4944C599.835 21.813 604.622 21.1868 608.135 25.8013C610.045 28.3063 610.594 31.5585 611.604 34.5469C612.537 37.3047 613.909 39.9306 614.644 42.7432C615.38 45.5559 615.424 48.7531 613.832 51.2032C612.449 53.3347 610.078 54.5652 608.211 56.2902C606.345 58.0152 604.94 60.8498 606.224 63.0362C607.278 64.8491 609.639 65.3325 611.713 65.5962C615.885 66.1126 619.519 65.3764 622.79 68.4638C624.81 70.3755 626.753 72.3752 628.609 74.4517C630.178 76.1986 631.693 78.0335 632.703 80.143C635.426 85.8452 633.966 92.5473 633.944 98.6011C633.911 107.874 630.299 116.532 620.551 118.905C616.017 120.004 611.395 118.85 607.256 116.949C603.48 115.213 601.273 115.972 597.102 116.356C588.802 117.125 580.327 116.026 572.511 113.115C567.066 111.082 561.5 107.676 559.776 102.128C558.975 99.5679 559.096 96.8212 559.216 94.1404C559.359 91.042 559.502 87.9437 559.644 84.8564C559.809 81.2307 560.04 77.4182 561.961 74.3418C565.529 68.6286 574.037 66.8597 576.298 60.5202C578.285 54.9498 574.355 49.2146 572.653 43.5453C570.546 36.5466 572.434 27.9987 578.505 23.9225C581.721 21.7581 585.278 21.2307 588.923 21.2197V21.2307Z" fill="#B18A46"/>
<path d="M6.80862 70.0903C7.92838 67.6512 9.04814 65.2011 10.1679 62.762C10.3875 62.2786 10.618 61.7731 10.5851 61.2348C10.5521 60.6195 10.1789 60.0812 9.83858 59.5758C8.55414 57.642 7.4453 55.4776 7.30258 53.1593C7.15987 50.8411 8.20282 48.3251 10.2886 47.2813C10.9364 46.9517 11.6719 46.7759 12.2647 46.3364C13.8675 45.1388 13.6699 42.7547 13.8894 40.766C14.3944 36.1735 18.3356 32.1852 22.9134 31.6468C25.2188 31.3721 27.5352 31.8775 29.7967 32.3829C31.5202 32.7675 33.2437 33.152 34.9673 33.5366C36.3286 33.8442 37.7119 34.1519 38.9194 34.833C42.0043 36.569 43.3546 40.3046 43.7937 43.8204C44.2328 47.3362 44.0132 50.962 45.0561 54.335C45.605 56.1148 46.5052 57.8508 46.5052 59.7186C46.5052 63.2894 43.3436 65.9372 40.4673 68.0467C39.5122 68.7499 38.3485 69.486 37.2288 69.1015C36.6579 71.9691 37.8216 74.8477 38.7986 77.6054C43.6619 91.427 43.9035 106.49 48.1629 120.51C49.9194 126.278 52.3675 132.035 52.0821 138.045C52.0382 139.001 51.6869 140.198 50.7318 140.286C37.1081 141.484 23.2098 141.088 9.90444 137.891C5.39246 136.803 0.847507 135.232 -2.62156 132.134C-5.26727 129.772 -7.13352 126.651 -8.57164 123.41C-10.5148 119.037 -11.7553 114.335 -12.1175 109.567C-12.3591 106.281 -12.1834 102.93 -11.2393 99.7772C-10.394 96.9645 -8.96685 94.3606 -7.46285 91.8336C-3.32412 84.8678 3.43836 77.4626 6.80862 70.0903Z" fill="#88A2AC"/>
<path d="M294.751 134.199C296.156 134.594 297.77 134.627 299.505 134.55C305.147 134.287 310.845 134.968 316.499 134.781C323.129 134.561 329.76 134.078 336.391 134.078C337.467 134.397 338.597 133.551 339.037 132.518C339.476 131.485 339.399 130.32 339.344 129.2C338.817 115.993 343.9 103.095 343.779 89.8773C343.746 86.3285 343.34 82.7907 342.725 79.2859C341.496 72.2652 339.454 65.3983 336.654 58.8501C335.304 55.6858 333.624 52.4337 330.704 50.6318C329.014 49.588 327.038 49.1156 325.062 48.8849C323.942 48.753 322.778 48.6871 321.801 48.1158C320.242 47.1929 319.616 45.1823 319.814 43.3804C320.012 41.5785 320.846 39.9195 321.614 38.2824C324.776 31.5474 326.972 23.9004 325.171 16.671C322.987 7.87043 306.915 9.68328 300.767 10.6611C299.516 10.8589 298.231 11.1116 297.122 11.7269C295.849 12.43 294.872 13.5837 294.136 14.8472C291.974 18.5718 291.908 23.1533 292.556 27.4053C293.203 31.6573 294.51 35.8104 294.905 40.0953C295.201 43.2925 294.85 46.8523 292.566 49.1156C290.437 51.2251 287.736 52.4337 285.837 54.8508C281.753 60.0477 280.908 67.1672 281.731 73.7374C282.565 80.2967 284.882 86.5703 286.529 92.9647C288.834 101.897 289.844 111.148 289.515 120.366C289.405 123.53 289.152 126.805 290.261 129.771C291.238 132.397 292.797 133.66 294.74 134.21L294.751 134.199Z" fill="#B18A46"/>
<path d="M148.501 57.9283C147.14 56.6978 145.647 55.5441 143.923 54.9289C141.563 54.0938 138.972 54.3026 136.513 54.808C132.012 55.7199 127.588 57.6426 124.459 61.0266C121.331 64.4106 119.75 69.3877 121.155 73.7606C121.715 75.4855 122.703 77.0676 123.131 78.8256C124.404 83.9675 120.65 89.0984 116.248 92.0429C113.975 93.5591 111.34 94.8886 110.144 97.3387C109.463 98.723 109.342 100.305 109.288 101.843C109.134 105.963 109.54 110.424 112.241 113.533C114.821 116.489 118.915 117.544 122.769 118.225C130.343 119.565 138.061 120.093 145.746 119.785C150.203 119.609 154.792 119.115 158.744 117.049C162.784 114.94 165.846 111.38 168.8 107.897C170.413 106.007 172.082 103.953 172.367 101.481C172.653 98.9757 171.456 96.5696 170.293 94.3392C166.648 87.3515 163.289 80.4736 158.524 74.244C156.691 71.8488 156.263 68.9812 154.934 66.3004C153.353 63.1252 151.114 60.3015 148.49 57.9283H148.501Z" fill="#B18A46"/>
<path d="M86.2009 48.5335C85.7837 46.2922 85.0591 44.1717 83.3795 42.3588C81.5681 40.4141 79.0102 39.3704 76.5072 38.4804C72.0062 36.8653 67.2747 35.5139 62.5102 35.9754C57.7457 36.4368 52.9483 39.0627 51.115 43.4795C50.105 45.9076 50.0611 48.6104 50.0392 51.2363C49.9733 57.3561 49.9184 63.4648 49.8526 69.5846C49.8196 72.584 49.4683 76.1658 46.8226 77.5941C45.4284 78.3412 43.7707 78.2533 42.2008 78.4401C38.5671 78.8796 35.3505 80.8902 32.2547 82.8349C31.5411 83.2854 30.8056 83.7578 30.3994 84.4829C29.9822 85.2301 29.9603 86.12 29.9493 86.977C29.9054 91.6245 29.8615 96.261 29.8176 100.909C29.7956 103.337 29.7847 105.853 30.7727 108.072C31.9912 110.819 34.5272 112.72 37.0302 114.39C43.3426 118.631 50.3575 122.377 57.9544 122.74C67.9444 123.212 77.1549 117.828 85.6959 112.632C88.5611 110.885 91.4703 109.105 93.6769 106.589C97.7937 101.886 98.8915 95.3381 99.8356 89.1634C99.9783 88.2515 100.11 87.3066 99.8905 86.4167C99.6161 85.3289 98.8476 84.45 98.0791 83.6369C93.161 78.4621 87.1889 73.7267 85.3885 66.4313C85.158 65.5194 85.0372 64.4866 85.5202 63.6846C85.7837 63.2451 86.2008 62.9265 86.5192 62.5309C87.4304 61.4103 87.4853 59.8391 87.3975 58.3998C87.2987 56.8616 87.1011 55.3454 86.8925 53.8182C86.651 52.0493 86.5192 50.2475 86.2009 48.5225V48.5335Z" fill="#B2CDD6"/>
<path d="M649.716 41.9632C649.298 39.7218 648.574 37.6014 646.894 35.7885C645.083 33.8438 642.525 32.8 640.022 31.9101C635.521 30.295 630.789 28.9436 626.025 29.4051C621.26 29.8665 616.463 32.4924 614.63 36.9092C613.62 39.3373 613.576 42.0401 613.554 44.666C613.488 50.7857 613.433 56.8945 613.367 63.0143C613.334 66.0137 612.983 69.5955 610.337 71.0238C608.943 71.7709 607.285 71.683 605.715 71.8698C602.082 72.3093 598.865 74.3199 595.769 76.2646C595.056 76.715 594.32 77.1875 593.914 77.9126C593.497 78.6597 593.475 79.5497 593.464 80.4067C593.42 85.0542 593.376 89.6907 593.332 94.3382C593.31 96.7663 593.299 99.2823 594.287 101.502C595.506 104.248 598.042 106.149 600.545 107.819C606.857 112.06 613.872 115.807 621.469 116.169C631.459 116.642 640.67 111.258 649.211 106.061C652.076 104.314 654.985 102.534 657.192 100.018C661.308 95.316 662.406 88.7678 663.35 82.5931C663.493 81.6812 663.625 80.7363 663.405 79.8463C663.131 78.7586 662.362 77.8797 661.594 77.0666C656.676 71.8918 650.704 67.1564 648.903 59.861C648.673 58.9491 648.552 57.9163 649.035 57.1142C649.298 56.6748 649.716 56.3561 650.034 55.9606C650.945 54.8399 651 53.2688 650.912 51.8295C650.813 50.2913 650.616 48.7751 650.407 47.2479C650.166 45.479 650.034 43.6772 649.716 41.9522V41.9632Z" fill="#A3C3CE"/>
<path d="M540.308 63.5307C541.428 61.0916 542.548 58.6415 543.667 56.2024C543.887 55.719 544.117 55.2136 544.085 54.6752C544.052 54.0599 543.678 53.5216 543.338 53.0162C542.054 51.0825 540.945 48.918 540.802 46.5998C540.659 44.2815 541.702 41.7655 543.788 40.7217C544.436 40.3921 545.171 40.2163 545.764 39.7769C547.367 38.5793 547.169 36.1951 547.389 34.2065C547.894 29.6139 551.835 25.6256 556.413 25.0872C558.718 24.8126 561.035 25.318 563.296 25.8234C565.02 26.2079 566.743 26.5925 568.467 26.977C569.828 27.2846 571.211 27.5923 572.419 28.2735C575.504 30.0094 576.854 33.745 577.293 37.2608C577.732 40.7767 577.513 44.4024 578.556 47.7754C579.105 49.5553 580.005 51.2912 580.005 53.159C580.005 56.7298 576.843 59.3776 573.967 61.4872C573.012 62.1903 571.848 62.9264 570.728 62.5419C570.157 65.4095 571.321 68.2881 572.298 71.0458C577.161 84.8675 577.403 99.9306 581.662 113.95C583.419 119.718 585.867 125.475 585.582 131.485C585.538 132.441 585.186 133.639 584.231 133.727C570.608 134.924 556.709 134.529 543.404 131.331C538.892 130.244 534.347 128.673 530.878 125.574C528.232 123.212 526.366 120.092 524.928 116.851C522.985 112.478 521.744 107.775 521.382 103.007C521.14 99.7219 521.316 96.3709 522.26 93.2176C523.106 90.4049 524.533 87.801 526.037 85.274C530.175 78.3082 536.938 70.903 540.308 63.5307Z" fill="#C2D7DE"/>
<path d="M402.139 55.6086C401.601 54.2682 401.172 52.807 401.414 51.3896C401.941 48.2254 405.311 46.5224 407.529 44.2041C410.317 41.3036 411.404 37.0956 411.327 33.0743C411.25 29.0531 410.131 25.1307 409.022 21.2633C408.089 17.9892 407.09 14.6052 404.861 12.0342C401.359 7.96905 395.585 6.78246 390.238 6.44186C387.099 6.24409 383.816 6.26607 380.973 7.61747C376.538 9.72697 374.101 14.5832 372.695 19.2966C370.686 26.0207 370.094 33.1732 370.972 40.139C371.104 41.2157 371.279 42.3254 370.972 43.3581C370.697 44.2811 370.083 45.0611 369.49 45.8082C366.844 49.1043 364.132 52.4664 360.609 54.8066C357.842 56.6414 354.647 57.7951 352.079 59.8936C349.488 62.0031 347.709 64.9146 345.986 67.7712C342.78 73.067 339.564 78.4066 337.346 84.1858C334.14 92.5689 333.174 101.622 332.241 110.544C331.539 117.213 330.847 124.003 332.219 130.562C333.119 134.869 334.898 138.956 337.148 142.735C337.917 144.021 338.773 145.317 340.014 146.174C341.353 147.108 343.022 147.438 344.646 147.592C355.317 148.57 365.219 142.67 374.902 138.066C393.279 129.309 413.314 124.739 433.152 120.146C435.644 119.564 438.388 118.817 439.738 116.63C440.507 115.378 440.671 113.851 440.759 112.378C441.22 103.721 439.409 95.1179 437.598 86.6469C436.994 83.8013 436.346 80.8677 434.634 78.5275C431.077 73.6603 421.515 73.2098 416.333 70.3971C410.24 67.09 404.795 62.1898 402.16 55.6416L402.139 55.6086Z" fill="#88A2AC"/>
<path d="M610.958 64.3882C613.879 64.3882 616.843 65.1902 619.664 67.0251C622.244 68.6951 624.077 71.321 625.384 74.1117C626.558 76.6387 627.36 79.4623 626.811 82.1981C626.24 85.0437 624.264 87.4828 623.792 90.3504C622.892 95.8659 627.909 100.733 633.189 102.59C638.469 104.447 644.244 104.414 649.535 106.216C656.199 108.49 661.523 113.478 666.628 118.323C670.558 122.059 674.554 125.893 677.068 130.706C679.659 135.672 680.482 141.341 681.492 146.846C682.952 154.734 684.885 162.645 684.665 170.665C684.555 174.555 683.754 178.774 680.834 181.345C677.046 184.685 674.884 189.761 670.701 192.584C666.914 195.144 662.303 196.199 657.758 196.595C650.732 197.199 643.673 196.353 636.68 195.496C628.205 194.342 619.675 193.222 611.156 192.453C607.95 192.167 605.425 191.024 602.319 190.453C599.629 189.959 596.83 190.09 594.403 188.618C592.263 187.311 590.923 185.047 589.683 182.861C586.346 177.027 582.964 171.116 581.142 164.644C579.978 160.513 579.462 156.217 579.067 151.944C578.266 143.132 577.98 134.265 578.222 125.41C578.354 120.367 579.111 116.708 583.217 113.709C586.587 111.237 592.142 109.215 593.92 105.194C594.7 103.425 594.645 101.414 594.579 99.4806C594.338 92.7346 594.085 85.9996 593.844 79.2536C593.8 77.9681 593.756 76.6497 594.129 75.4081C594.623 73.793 595.776 72.4856 596.906 71.2221C600.661 67.047 605.733 64.3882 610.98 64.3662L610.958 64.3882Z" fill="#C2D7DE"/>
<path d="M265.813 70.9585C262.892 70.9585 259.928 71.7606 257.107 73.5954C254.527 75.2654 252.694 77.8913 251.387 80.682C250.213 83.209 249.411 86.0327 249.96 88.7684C250.531 91.614 252.507 94.0532 252.979 96.9208C253.879 102.436 248.862 107.303 243.582 109.16C238.302 111.017 232.527 110.984 227.236 112.786C220.572 115.06 215.248 120.048 210.143 124.894C206.213 128.629 202.217 132.464 199.703 137.276C197.112 142.242 196.289 147.911 195.279 153.416C193.819 161.305 191.886 169.215 192.106 177.236C192.216 181.125 193.017 185.344 195.937 187.915C199.725 191.255 201.887 196.331 206.07 199.155C209.857 201.715 214.468 202.769 219.013 203.165C226.039 203.769 233.098 202.923 240.091 202.066C248.566 200.913 257.096 199.792 265.615 199.023C268.821 198.737 271.346 197.595 274.452 197.023C277.142 196.529 279.941 196.661 282.368 195.188C284.508 193.881 285.848 191.618 287.088 189.431C290.425 183.597 293.807 177.686 295.629 171.215C296.793 167.084 297.309 162.788 297.704 158.514C298.505 149.702 298.791 140.836 298.549 131.98C298.417 126.937 297.66 123.279 293.554 120.279C290.184 117.807 284.629 115.785 282.851 111.764C282.071 109.995 282.126 107.985 282.192 106.051C282.433 99.3049 282.686 92.5699 282.927 85.8239C282.971 84.5384 283.015 83.22 282.642 81.9785C282.148 80.3634 280.995 79.0559 279.865 77.7924C276.11 73.6174 271.038 70.9585 265.791 70.9365L265.813 70.9585Z" fill="#D5A654"/>
<path d="M239.433 114.181C239.312 117.191 239.191 120.279 238.082 123.091C236.952 125.981 234.866 128.387 232.824 130.716C229.552 134.463 226.171 138.144 223.13 142.077C215.325 152.174 212.921 166.27 217.125 178.334C219.233 184.377 222.845 189.804 226.907 194.749C228.476 196.66 230.2 199.275 228.872 201.363C228.487 201.978 227.884 202.417 227.269 202.791C222.449 205.757 216.401 205.56 210.758 205.263C207.948 205.12 205.049 204.944 202.513 203.714C200.109 202.549 198.77 200.088 196.267 199.143C194.06 199.956 191.546 199.363 189.537 198.154C187.528 196.946 185.915 195.188 184.301 193.485C181.04 190.046 177.648 186.739 174.135 183.564C171.292 180.993 168.317 178.466 166.22 175.258C164.145 172.082 163.014 168.347 160.753 165.292C157.657 161.106 153.123 157.799 147.963 158.437C146.174 158.656 145.054 156.613 144.45 154.921C140.904 144.955 137.315 134.738 137.337 124.157C137.348 119.125 138.358 113.763 141.882 110.171C145.482 106.501 151.268 105.15 153.913 100.733C155 98.909 155.407 96.7665 156.065 94.7449C157.064 91.6685 158.7 88.757 158.985 85.5378C159.49 79.7806 155.626 73.7378 158.041 68.497C159.15 66.0908 161.455 64.3878 163.958 63.5308C166.461 62.6739 169.162 62.564 171.808 62.6629C170.688 62.1025 172.17 61.3774 173.202 60.6632C174.234 59.9491 175.628 59.2569 175.628 58.0044C172.554 56.5651 169.491 55.1148 166.417 53.6755C165.759 53.3679 165.078 53.0383 164.606 52.4889C163.333 50.9947 164.123 48.6984 165.166 47.0394C168.042 42.4688 173.29 38.7222 178.559 39.8978C184.476 41.2163 188.659 46.1824 194.324 48.3468C197.672 49.6213 200.076 52.5219 202.338 55.3126C205.829 59.6195 209.309 63.9154 212.8 68.2223C214.523 70.3428 216.269 72.4962 218.454 74.1443C221.209 76.2208 224.546 77.4074 227.313 79.473C230.485 81.8352 233.68 85.351 234.591 89.1965C237.039 89.559 238.192 92.3827 238.664 94.8108C239.905 101.172 239.663 107.721 239.411 114.192L239.433 114.181ZM207.882 102.249C207.344 97.8542 206.641 93.4814 205.785 89.1305C204.237 89.625 203.227 91.0533 202.041 92.1629C200.68 93.4484 198.989 94.3713 197.178 94.8328C196.947 94.8877 196.706 94.9536 196.552 95.1294C196.399 95.3052 196.366 95.5469 196.344 95.7777C196.058 99.0957 196.421 99.9637 199.352 100.667C202.129 101.337 204.961 102.568 207.871 102.249H207.882Z" fill="#B2CDD6"/>
<path d="M67.6367 86.3289C67.2964 85.0324 66.967 83.692 67.2195 82.3735C67.4391 81.2419 68.0538 80.2311 68.7235 79.2972C73.466 72.6281 81.2275 68.2003 89.3732 67.5081C97.5189 66.816 105.917 69.8594 111.725 75.6275C112.976 76.8691 114.129 78.2644 114.798 79.9015C115.644 81.967 115.644 84.2633 115.501 86.4827C115.139 91.8553 113.931 97.173 111.933 102.183C119.288 104.249 127.676 100.183 134.581 103.447C138.632 105.358 141.19 109.38 143.539 113.203C144.472 114.719 145.405 116.235 146.031 117.894C146.799 119.916 147.107 122.092 147.48 124.234C149.017 133.133 150.905 143.143 154.704 151.317C158.502 159.491 163.618 167.149 164.2 176.224C164.342 178.411 164.178 180.685 163.179 182.63C162.246 184.465 160.654 185.871 159.018 187.124C150.609 193.562 140.202 197.122 129.663 198.231C119.124 199.341 108.442 198.1 98.1337 195.649C91.4371 194.056 84.7076 191.87 79.2954 187.618C73.2574 182.872 69.3602 175.95 63.981 170.467C59.5788 165.974 54.0019 162.183 51.7514 156.305C50.5219 153.075 50.4341 149.526 50.6317 146.076C51.0379 138.693 52.7943 131.035 57.6796 125.497C59.6446 123.267 62.0708 121.443 63.948 119.136C65.8582 116.796 67.1426 114.005 69.0967 111.698C70.8093 109.665 74.0039 107.786 74.0588 104.82C74.1137 102.128 71.7424 98.7442 70.8093 96.2721C69.5797 93.0199 68.5259 89.7019 67.6257 86.3398L67.6367 86.3289Z" fill="#B18A46"/>
<path d="M35.5254 87.9989C33.9555 85.9883 31.7708 84.538 29.5313 83.3075C25.8647 81.3079 21.8467 79.7916 17.675 79.5829C13.5034 79.3741 9.15606 80.5607 6.07122 83.3844C4.07322 85.2192 2.68997 87.6254 1.39456 90.0095C0.154041 92.2948 -1.07551 94.69 -1.15236 97.2939C-1.2292 99.8978 -0.131351 102.37 0.746891 104.82C2.78881 110.456 3.80973 116.411 4.81971 122.322C4.92949 122.938 5.02828 123.586 4.87458 124.19C4.74285 124.706 4.42454 125.146 4.10617 125.574C-0.504608 131.518 -8.69429 134.21 -12.35 140.791C-12.8111 141.615 -13.1953 142.593 -12.8879 143.494C-12.7122 144.022 -12.317 144.45 -11.9328 144.846C-9.61644 147.307 -7.10246 149.878 -3.82001 150.68C-0.252148 151.548 3.43649 150.13 6.76284 148.581C12.4165 145.944 17.8397 142.868 23.2519 139.781C31.6501 135.001 40.0483 130.222 48.4465 125.454C49.1271 125.069 49.8188 124.663 50.2689 124.036C50.8617 123.201 50.9385 122.114 50.9934 121.092C51.18 117.466 51.3008 113.588 49.4016 110.489C46.8327 106.314 39.6751 105.369 37.9076 101.062C37.2489 99.4474 38.0064 97.4697 38.0173 95.7997C38.0283 92.998 37.2709 90.2513 35.5254 88.0209V87.9989Z" fill="#A3C3CE"/>
<path d="M599.051 81.4286C597.481 79.418 595.297 77.9677 593.057 76.7372C589.391 74.7375 585.373 73.2213 581.201 73.0126C577.029 72.8038 572.682 73.9904 569.597 76.8141C567.599 78.6489 566.216 81.0551 564.92 83.4392C563.68 85.7245 562.45 88.1197 562.374 90.7236C562.297 93.3275 563.394 95.7996 564.273 98.2497C566.315 103.886 567.336 109.841 568.346 115.752C568.455 116.367 568.554 117.015 568.4 117.62C568.269 118.136 567.95 118.576 567.632 119.004C563.021 124.948 554.832 127.64 551.176 134.221C550.715 135.045 550.331 136.023 550.638 136.924C550.814 137.451 551.209 137.88 551.593 138.275C553.909 140.736 556.423 143.307 559.706 144.109C563.274 144.977 566.962 143.56 570.289 142.011C575.942 139.374 581.366 136.298 586.778 133.21C595.176 128.431 603.574 123.652 611.972 118.883C612.653 118.499 613.345 118.092 613.795 117.466C614.388 116.631 614.464 115.543 614.519 114.521C614.706 110.896 614.827 107.017 612.927 103.919C610.359 99.7439 603.201 98.799 601.433 94.4921C600.775 92.8771 601.532 90.8994 601.543 89.2294C601.554 86.4277 600.797 83.6809 599.051 81.4506V81.4286Z" fill="#D5A654"/>
<path d="M391.302 93.6683C391.302 93.0421 391.302 92.3828 391.017 91.8225C390.391 90.603 388.767 90.3503 387.724 89.4713C386.823 88.7022 386.417 87.5266 386.044 86.3949C385.199 83.824 384.364 81.242 383.519 78.6711C382.696 76.1331 381.828 73.5402 380.193 71.4416C377.767 68.3433 373.836 66.6733 369.917 66.3327C365.998 65.9921 362.068 66.8711 358.324 68.1016C354.361 69.409 350.486 71.156 347.291 73.8148C344.097 76.4737 341.583 80.1543 340.913 84.2635C340.792 84.9886 340.738 85.7467 341.023 86.4279C341.254 86.9772 341.704 87.4057 342.143 87.8123C345.239 90.581 349.158 92.7344 350.947 96.481C351.88 98.4367 352.122 100.645 352.693 102.744C353.428 105.435 354.713 107.973 356.458 110.16C357.062 110.918 357.754 111.731 357.71 112.698C357.677 113.346 357.314 113.917 356.93 114.434C352.243 120.707 343.427 122.553 338.257 128.442C334.689 132.507 337.411 141.187 337.642 146.263C337.993 153.657 338.257 161.052 338.421 168.446C338.751 183.531 338.663 198.627 337.971 213.701C337.587 222.029 337.027 230.401 337.839 238.708C338.652 247.014 340.924 255.342 345.733 262.165C350.859 269.427 359.543 274.822 368.347 273.613C372.19 273.086 375.78 271.372 379.062 269.295C389.612 262.648 397.395 252.43 404.158 241.949C406.803 237.84 409.372 233.599 410.756 228.907C411.897 225.04 412.216 220.986 412.435 216.953C413.643 195.397 412.523 173.72 409.109 152.405C408.626 149.394 408.099 146.318 408.538 143.297C409.263 138.352 412.314 134.057 412.633 129.013C412.951 123.97 410.196 119.576 407.221 115.587C404.52 111.962 401.282 108.27 396.868 107.303C394.025 106.688 391.775 107.018 391.226 104.04C390.644 100.865 391.292 96.9095 391.302 93.6683Z" fill="#C2D7DE"/>
<path d="M456.875 125.585C458.488 123.893 459.553 121.772 460.695 119.74C464.603 112.818 469.697 106.665 474.769 100.545C477.052 97.7987 479.358 95.019 482.157 92.7996C484.956 90.5802 488.349 88.9432 491.917 88.8113C493.695 88.7454 495.473 89.0531 497.241 88.9432C499.601 88.8004 501.852 87.9324 504.058 87.0754C503.905 77.1981 503.443 66.6506 503.29 56.7733C503.279 55.9053 503.268 55.0154 503.498 54.1803C503.773 53.1695 504.388 52.2796 505.101 51.4995C506.77 49.6537 508.944 48.3572 511.139 47.2036C514.696 45.3248 518.549 43.7097 522.567 43.8306C528.232 44.0064 533.205 47.5881 537.355 51.4666C540.341 54.2572 543.316 57.7951 543.008 61.8822C542.767 65.0794 540.549 67.8152 539.978 70.9685C539.638 72.8582 539.913 74.8139 539.649 76.7147C539.199 80.0217 537.014 83.0322 534.028 84.5154C533.864 87.6138 534.522 90.745 535.939 93.5028C536.367 94.3378 536.905 95.1838 537.739 95.6013C538.233 95.843 538.793 95.9309 539.276 96.1836C540.923 97.0516 541.021 99.2929 541.384 101.117C542.13 104.918 544.831 108.05 547.817 110.533C549.595 112.016 551.56 113.389 552.735 115.389C553.394 116.499 553.767 117.74 554.151 118.96C555.139 122.201 556.138 125.475 556.369 128.848C556.555 131.694 554.261 133.528 552.757 135.836C550.836 138.791 549.145 141.911 547.707 145.142C546.51 147.822 545.467 150.646 543.557 152.876C539.891 157.183 533.699 158.48 528.067 158.018C522.436 157.557 517.034 155.623 511.49 154.558C503.872 153.085 496.044 153.261 488.294 152.811C480.543 152.36 472.617 151.239 465.833 147.471C463.077 145.933 460.519 143.966 457.522 142.977C453.493 141.648 449.794 140.758 448.915 135.847C448.037 130.935 454.064 128.496 456.864 125.574L456.875 125.585Z" fill="#88A2AC"/>
<path d="M-81.434 125.574C-79.8202 123.882 -78.7553 121.762 -77.6136 119.729C-73.7054 112.807 -68.6116 106.654 -63.5397 100.535C-61.2563 97.788 -58.9509 95.0083 -56.1515 92.7889C-53.3521 90.5695 -49.9599 88.9324 -46.392 88.8006C-44.6136 88.7347 -42.8352 89.0423 -41.0677 88.9324C-38.7074 88.7896 -36.4569 87.9216 -34.2503 87.0647C-34.404 77.1873 -34.8651 66.6398 -35.0188 56.7625C-35.0297 55.8946 -35.0407 55.0046 -34.8102 54.1696C-34.5357 53.1588 -33.921 52.2688 -33.2074 51.4888C-31.5388 49.643 -29.3651 48.3465 -27.1695 47.1929C-23.6126 45.3141 -19.7593 43.699 -15.7413 43.8199C-10.0766 43.9956 -5.10361 47.5774 -0.953907 51.4558C2.03212 54.2465 5.0072 57.7843 4.69982 61.8715C4.4583 65.0687 2.24072 67.8045 1.66986 70.9577C1.32955 72.8475 1.60401 74.8032 1.34054 76.7039C0.890436 80.011 -1.29419 83.0214 -4.28022 84.5047C-4.44489 87.603 -3.78622 90.7343 -2.37005 93.4921C-1.94191 94.3271 -1.40397 95.1731 -0.569635 95.5906C-0.0756226 95.8323 0.484219 95.9202 0.967255 96.1729C2.61396 97.0408 2.71281 99.2822 3.07509 101.106C3.8216 104.908 6.52218 108.039 9.50821 110.522C11.2867 112.005 13.2517 113.379 14.4264 115.378C15.085 116.488 15.4583 117.729 15.8426 118.949C16.8306 122.19 17.8296 125.464 18.0601 128.837C18.2467 131.683 15.9523 133.518 14.4483 135.825C12.5272 138.78 10.8365 141.901 9.39839 145.131C8.20178 147.812 7.1589 150.635 5.24872 152.866C1.58205 157.173 -4.60956 158.469 -10.2413 158.008C-15.873 157.546 -21.2743 155.613 -26.8182 154.547C-34.437 153.075 -42.2643 153.25 -50.0148 152.8C-57.7653 152.349 -65.6915 151.229 -72.4759 147.46C-75.2314 145.922 -77.7893 143.955 -80.7863 142.966C-84.8152 141.637 -88.5149 140.747 -89.3931 135.836C-90.2714 130.925 -84.2444 128.486 -81.445 125.563L-81.434 125.574Z" fill="#C2D7DE"/>
<path d="M644.444 122.948C641.239 125.541 637.989 128.068 634.707 130.551C633.203 131.683 631.633 132.837 629.788 133.221C628.219 133.551 626.286 133.441 625.375 134.76C624.706 135.715 624.925 137.078 625.584 138.045C626.242 139.011 627.241 139.671 628.208 140.319C631.83 142.758 635.354 145.428 638.077 148.834C640.799 152.24 641.546 156.898 642.951 161.029C645.564 168.72 648.21 176.532 648.66 184.64C648.758 186.409 648.747 188.211 648.275 189.914C647.869 191.386 647.134 192.749 646.365 194.067C641.831 201.813 635.76 208.537 630.754 215.975C628.515 219.293 626.473 222.765 623.871 225.809C622.093 227.885 620.018 229.775 617.625 231.104C615.846 232.082 613.135 232.5 612.377 234.719C612.169 235.323 612.245 235.983 612.322 236.609C614.276 252.287 617.833 268.339 614.024 283.677C613.266 286.732 612.267 288.116 612.344 291.258H539.373C538.286 285.193 537.199 279.096 537.101 272.932C536.98 265.12 538.473 257.385 539.417 249.629C542.447 224.765 540.24 199.451 541.217 174.423C538.736 170.368 537.562 165.523 537.891 160.788C538.506 152.273 543.775 144.78 549.835 138.759C555.895 132.738 562.899 127.695 568.465 121.213C571.33 117.872 574.437 113.84 578.828 113.774C580.793 113.741 582.747 114.565 584.691 114.236C588.763 113.544 590.333 108.545 590.553 104.413C590.772 100.282 590.794 95.481 594.077 92.965C595.976 91.5147 598.501 91.262 600.883 91.1521C606.471 90.8885 612.081 91.1082 617.68 91.3169C624.288 91.5696 631.128 90.6687 636.353 94.7339C640.723 98.1399 642.457 103.864 643.742 109.259C644.883 114.016 645.18 118.092 644.466 122.938L644.444 122.948Z" fill="#DCB571"/>
<path d="M433.889 111.779C433.384 115.032 433.428 118.372 433.998 121.613C434.657 120.921 435.931 121.404 436.348 122.261C436.765 123.118 436.6 124.129 436.436 125.074C436.15 126.766 435.898 128.458 435.678 130.161C435.612 130.666 435.557 131.193 435.755 131.666C436.007 132.259 436.6 132.611 437.16 132.929C442.276 135.764 447.93 133.94 453.21 135.709C455.252 136.39 457.173 137.742 458.04 139.719C458.534 140.84 458.666 142.093 458.787 143.312C459.215 147.641 459.599 152.003 459.292 156.354C459.05 159.705 458.392 163.012 457.733 166.308C456.734 171.318 455.263 176.526 455.131 181.624C454.977 187.458 454.758 193.281 454.659 199.115C454.461 210.585 454.56 222.078 455.504 233.515C455.834 237.471 457.382 241.239 457.656 245.107C457.931 248.974 457.239 252.929 456.822 256.676C455.482 268.608 455.933 281.364 456.053 293.372H364.815C364.793 285.671 364.771 277.969 364.749 270.267C364.727 264.213 363.904 258.313 363.739 252.38C363.53 244.865 364.595 237.306 364.299 229.747C364.013 222.682 363.3 215.628 362.158 208.652C359.26 190.952 354.056 172.417 359.018 154.574C359.864 151.53 359.82 147.828 362.476 146.059C365.572 144.004 369.415 142.664 372.982 141.719C375.123 141.148 377.352 140.73 379.273 139.62C381.194 138.511 382.797 136.511 382.676 134.292C382.588 132.677 382.819 131.018 383.115 129.425C383.412 127.831 384.553 126.205 386.167 126.128C387.078 126.084 387.956 126.546 388.604 127.183C389.252 127.82 389.713 128.622 390.163 129.414C390.163 127.073 390.789 124.689 390.789 122.349C390.789 122.03 390.778 121.679 390.547 121.448C390.284 121.184 389.856 121.228 389.482 121.25C388.077 121.36 386.606 121.074 385.453 120.261C382.885 118.449 382.61 114.515 384.103 111.746C385.596 108.978 388.352 107.154 391.118 105.671C393.885 104.187 396.816 102.869 399.066 100.672C400.471 99.2982 401.635 97.5732 403.436 96.8151C404.237 96.4745 405.115 96.3537 405.982 96.2438C412.119 95.4308 418.245 94.6177 424.382 93.8047C426.775 93.4861 429.333 93.1894 431.517 94.2332C432.758 94.8265 433.757 95.8043 434.712 96.7932C437.204 99.3971 439.575 102.451 439.894 106.044C440.212 109.637 437.5 111.889 433.9 111.812L433.889 111.779Z" fill="#B18A46"/>
<path d="M472.1 123.728C474.559 126.124 476.128 130.024 474.888 133.342C473.428 137.253 468.861 138.89 464.766 139.703C460.671 140.516 456.126 141.209 453.47 144.417C451.142 147.23 450.956 151.185 451 154.833C451.109 164.875 452.108 174.895 451.757 184.937C451.439 194.166 448.727 202.945 447.783 212.174C447.278 217.03 446.477 220.941 448.167 225.765C449.353 229.16 451.088 232.335 452.328 235.697C455.654 244.673 455.018 253.584 454.776 262.879C454.513 273.075 454.249 283.27 453.986 293.466H540.043C540.734 282.15 539.285 269.702 539.604 258.374C539.779 252.122 540.416 245.86 541.228 239.652C542.041 233.444 541.448 227.5 541.887 221.469C541.942 220.711 542.008 219.952 542.227 219.216C542.513 218.293 543.051 217.469 543.622 216.689C545.927 213.525 548.847 210.888 551.471 207.988C554.095 205.087 556.477 201.802 557.333 197.978C558.124 194.474 557.553 190.837 556.993 187.288C555.785 179.674 555.269 172.763 552.415 165.6C550.143 159.898 547.881 154.184 545.609 148.482C543.775 143.868 539.549 139.857 535.103 137.748C531.403 135.99 527.242 135.484 523.4 134.056C521.885 133.496 520.392 132.76 519.25 131.617C518.306 130.672 517.636 129.497 517.011 128.321C515.869 126.178 514.837 123.97 513.915 121.718C512.499 118.268 514.244 114.928 513.553 111.269C512.861 107.61 511.159 104.007 508.206 101.732C506.099 100.117 503.519 99.2603 500.961 98.5462C495.516 97.019 489.763 95.9313 484.219 97.0409C478.675 98.1506 473.351 101.864 471.737 107.292C470.903 110.104 471.101 113.104 471.298 116.026C471.32 116.323 468.806 118.334 468.718 119.52C468.554 121.751 469.893 121.915 471.265 122.981C471.551 123.201 471.814 123.443 472.078 123.695L472.1 123.728Z" fill="#A3C3CE"/>
<path d="M365.228 292.961C368.269 279.414 367.534 265.043 363.121 251.881C360.058 242.729 356.117 232.972 356.512 223.326C359.783 220.733 363.132 218.052 365.316 214.492C368.621 209.098 368.818 202.429 368.939 196.1C368.972 194.023 369.005 191.925 368.621 189.881C368.214 187.739 367.369 185.717 366.623 183.674C362.561 172.478 361.639 160.096 355.798 149.713C352.626 144.066 346.994 136.902 340.605 134.804C339.123 134.32 326.234 132.837 326.399 133.353C325.06 129.255 327.157 124.135 324.434 120.795C323.413 119.543 321.689 118.158 322.447 116.73C322.754 116.148 323.391 115.84 323.984 115.565C325.872 114.697 327.771 113.829 329.66 112.961C331.043 112.324 332.536 111.588 333.227 110.226C334.237 108.226 333.019 105.71 331.207 104.403C329.396 103.095 327.124 102.634 325.005 101.93C322.886 101.227 320.69 100.118 319.724 98.096C318.78 96.1294 319.197 93.7012 318.22 91.7456C316.662 88.6692 313.61 88.6472 310.711 88.834C306.715 89.0867 302.621 88.1308 298.548 88.3725C296.144 88.5154 293.432 88.9878 292.104 91.0094C291.16 92.4487 291.192 94.3165 290.567 95.9316C289.129 99.6782 284.726 101.15 280.895 102.337C278.985 102.93 277.031 103.59 275.549 104.93C274.067 106.27 273.177 108.468 273.935 110.314C274.583 111.907 276.24 112.841 277.865 113.39C279.49 113.939 281.224 114.225 282.706 115.093C284.188 115.961 285.385 117.642 285.001 119.323C284.869 119.894 284.562 120.411 284.32 120.938C282.871 124.135 284.551 128.069 283.145 131.002C281.806 133.782 277.854 135.265 275.11 135.935C271.992 136.693 268.709 136.979 265.789 138.319C261.958 140.077 259.158 143.45 256.612 146.801C250.53 154.8 244.964 163.831 244.393 173.862C244.228 176.708 244.986 178.07 244.316 180.839C243.306 185.025 242.296 189.233 241.956 193.529C241.374 200.824 242.757 208.109 243.756 215.36C244.975 224.227 245.612 233.181 245.666 242.135C245.688 246.53 246.325 250.617 244.667 254.694C243.833 256.737 242.527 258.561 241.67 260.605C240.21 264.055 240.068 267.9 239.958 271.647C239.738 278.821 239.519 286.007 239.618 293.181C243.592 293.181 247.555 293.159 251.529 293.148C260.07 293.126 268.611 293.104 277.152 293.082C285.209 293.06 293.278 293.038 301.336 293.027C304.97 293.027 308.593 293.027 312.226 293.027C320.745 293.005 329.297 293.016 337.827 293.016C345.896 293.016 353.965 293.016 362.034 293.016C362.22 293.016 365.239 293.126 365.261 293.016L365.228 292.961Z" fill="#88A2AC"/>
<path d="M278.956 167.463C280.471 161.068 277.376 154.158 272.304 149.972C267.232 145.786 260.513 144.05 253.959 143.841C251.994 143.775 249.974 143.841 248.152 144.599C246.407 145.313 244.968 146.61 243.618 147.906C241.258 150.169 238.941 152.685 237.953 155.806C236.581 160.178 238.041 164.881 239.501 169.232C240.939 173.528 242.378 177.824 243.816 182.119C244.068 182.878 244.332 183.669 244.288 184.46C244.222 185.613 243.53 186.646 242.773 187.514C241.554 188.92 240.083 190.107 238.458 190.997C236.208 192.228 233.65 192.931 231.619 194.502C229.105 196.447 227.722 199.512 226.734 202.533C224.483 209.477 223.858 216.838 223.484 224.134C222.332 246.635 223.353 269.235 226.394 291.55C226.394 291.572 227.469 291.55 227.535 291.55C238.612 291.55 249.678 291.55 260.755 291.55C267.594 291.55 274.433 291.55 281.273 291.55C283.875 291.55 286.476 291.506 289.078 291.55C292.163 291.605 295.555 293.385 296.401 289.276C298.344 289.473 299.441 287.704 299.925 286.023C301.923 279.003 302.285 271.631 302.636 264.346C302.987 257.007 303.339 249.668 303.624 242.317C304.162 228.265 304.437 214.125 302.439 200.193C301.714 195.161 300.627 189.997 297.663 185.877C292.613 178.867 285.554 181.867 279.297 177.791C278.803 177.461 278.298 177.109 277.99 176.593C276.618 174.341 278.375 170.023 278.989 167.452L278.956 167.463Z" fill="#D5A654"/>
<path d="M213.89 158.025C216.085 153.531 216.843 148.521 217.106 143.577C217.227 141.335 217.523 138.962 217.468 136.754C217.414 134.381 216.107 132.183 214.889 130.217C214.131 128.986 213.352 127.767 212.408 126.657C210.179 124.042 206.897 122.108 203.603 121.174C201.133 120.471 198.619 120.713 196.127 120.405C191.286 119.79 186.521 122.647 183.261 125.998C175.576 133.875 172.689 146.104 176.037 156.596C176.981 159.53 178.321 162.892 176.685 165.507C175.104 168.034 171.657 168.353 168.803 169.199C161.579 171.33 156.529 178.153 154.443 185.393C152.358 192.634 152.742 200.314 153.148 207.84C153.609 216.454 151.227 226.573 149.789 235.076C146.44 254.864 144.08 275.322 148.581 294.89H241.17C242.059 288.001 241.368 280.87 239.479 274.179C238.601 271.048 237.416 267.983 237.031 264.752C236.614 261.259 237.13 257.732 237.218 254.227C237.284 251.513 236.724 248.887 236.625 246.239C236.504 242.965 236.735 240.24 235.242 237.153C234.265 235.12 232.838 233.275 232.267 231.088C231.905 229.682 231.927 228.21 231.948 226.759C232.058 219.431 232.201 212.081 232.585 204.807C232.969 197.534 231.981 189.821 228.995 183.493C226.811 178.867 223.375 174.967 220.378 170.825C218.105 167.682 216.074 164.375 214.043 161.079C213.736 160.585 213.428 160.057 213.428 159.475C213.428 158.959 213.67 158.486 213.901 158.025H213.89Z" fill="#A3C3CE"/>
<path d="M144.991 140.16C145.595 142.973 145.343 145.972 144.289 148.653C144.102 149.125 143.883 149.609 143.916 150.114C143.948 150.686 144.3 151.191 144.651 151.641C149.053 157.454 155.344 161.673 159.406 167.726C162.556 172.429 164.203 178.032 164.631 183.68C165.059 189.327 164.313 195.007 162.973 200.501C161.777 205.434 160.086 210.301 159.603 215.377C159.384 217.706 159.779 220.025 159.603 222.321C159.428 224.617 158.769 226.924 158.154 229.089C155.201 239.351 155.223 250.228 153.082 260.687C152.215 264.906 150.996 269.048 150.458 273.322C149.602 280.134 150.535 287.693 150.162 294.549H50.5032C50.4483 292.714 50.3825 290.88 50.2947 289.056C50.0422 283.936 48.8895 277.695 49.8117 272.663C51.4035 264.06 52.9843 255.458 54.5761 246.855C55.7837 240.317 56.9913 233.769 58.8136 227.375C63.15 212.169 70.8676 198.182 78.8596 184.537C82.8995 177.648 90.6061 170.935 91.4734 162.991C91.7478 160.508 91.6051 158.003 91.9125 155.52C92.2199 153.037 93.0213 150.51 94.8326 148.796C96.4245 147.28 98.5982 146.565 100.442 145.368C102.287 144.17 103.901 142.039 103.308 139.918C103.033 138.951 102.331 138.138 102.067 137.161C101.661 135.688 102.32 134.15 102.956 132.755C104.438 129.536 105.931 126.316 107.414 123.097C108.259 121.273 109.104 119.428 110.4 117.889C112.441 115.461 115.449 113.978 118.556 113.341C121.663 112.704 124.88 112.857 128.019 113.253C131.686 113.725 135.781 114.055 138.58 116.461C141.38 118.867 143.092 122.416 143.674 126.064C144.443 130.931 143.948 135.337 144.98 140.149L144.991 140.16Z" fill="#88A2AC"/>
<path d="M100.541 124.482C97.3357 127.075 94.0862 129.602 90.8037 132.085C89.2997 133.216 87.7299 134.37 85.8856 134.755C84.3157 135.084 82.3835 134.974 81.4724 136.293C80.8027 137.249 81.0223 138.611 81.681 139.578C82.3396 140.545 83.3387 141.204 84.3047 141.852C87.9275 144.291 91.4514 146.961 94.174 150.367C96.8965 153.773 97.6431 158.431 99.0482 162.563C101.661 170.253 104.307 178.065 104.757 186.174C104.856 187.943 104.845 189.744 104.373 191.447C103.966 192.92 103.231 194.282 102.462 195.6C97.9285 203.346 91.8576 210.07 86.8516 217.509C84.6121 220.827 82.5702 224.298 79.9684 227.342C78.1899 229.418 76.1151 231.308 73.7219 232.638C71.9434 233.615 69.2319 234.033 68.4744 236.252C68.2658 236.857 68.3426 237.516 68.4194 238.142C70.3735 253.821 73.9305 269.873 70.1211 285.21C69.3636 288.265 68.3646 289.649 68.4414 292.791H-4.52969C-5.61652 286.727 -6.70335 280.629 -6.80215 274.465C-6.92291 266.653 -5.42992 258.918 -4.4858 251.162C-1.45586 226.298 -3.66243 200.984 -2.68539 175.956C-5.16642 171.902 -6.34111 167.056 -6.01176 162.321C-5.397 153.806 -0.127525 146.313 5.93237 140.292C11.9922 134.271 18.9963 129.228 24.5622 122.746C27.4274 119.406 30.5342 115.373 34.9254 115.308C36.8905 115.275 38.8446 116.099 40.7877 115.769C44.8605 115.077 46.4304 110.078 46.65 105.947C46.8696 101.816 46.8915 97.0142 50.1739 94.4982C52.0731 93.0479 54.5981 92.7952 56.9803 92.6853C62.5682 92.4217 68.1779 92.6414 73.7767 92.8501C80.3855 93.1028 87.2249 92.2019 92.4504 96.2671C96.8197 99.6731 98.5542 105.397 99.8386 110.792C100.98 115.549 101.277 119.625 100.563 124.471L100.541 124.482Z" fill="#DCB571"/>
<path d="M-84.832 266.929C-82.8153 264.814 -81.4845 262.164 -80.0577 259.624C-75.1737 250.974 -68.8079 243.285 -62.4697 235.637C-59.6161 232.205 -56.7351 228.731 -53.2367 225.957C-49.7383 223.184 -45.499 221.138 -41.0403 220.973C-38.8177 220.891 -36.5953 221.275 -34.3865 221.138C-31.4368 220.959 -28.6244 219.875 -25.8668 218.804C-26.0589 206.46 -26.6351 193.279 -26.8272 180.935C-26.8409 179.851 -26.8546 178.738 -26.5665 177.695C-26.2235 176.432 -25.4553 175.32 -24.5636 174.345C-22.4782 172.038 -19.7618 170.418 -17.018 168.976C-12.573 166.628 -7.75748 164.61 -2.73625 164.761C4.34286 164.981 10.5576 169.457 15.7435 174.304C19.4751 177.791 23.1931 182.212 22.8089 187.32C22.5071 191.315 19.7358 194.734 19.0224 198.675C18.5971 201.037 18.9401 203.481 18.6108 205.856C18.0484 209.989 15.3182 213.751 11.5866 215.605C11.3808 219.476 12.204 223.39 13.9737 226.836C14.5088 227.879 15.181 228.937 16.2237 229.458C16.8411 229.761 17.5407 229.87 18.1444 230.186C20.2022 231.271 20.3258 234.072 20.7785 236.351C21.7114 241.102 25.0863 245.015 28.8179 248.118C31.0404 249.972 33.4962 251.688 34.9641 254.187C35.7873 255.574 36.2538 257.125 36.7339 258.649C37.9687 262.7 39.2171 266.791 39.5052 271.007C39.7384 274.563 36.8711 276.856 34.9916 279.739C32.5907 283.433 30.4779 287.332 28.6807 291.369C27.1853 294.719 25.882 298.248 23.4949 301.035C18.9127 306.417 11.175 308.037 4.13709 307.461C-2.90087 306.884 -9.65076 304.468 -16.579 303.136C-26.1001 301.296 -35.8819 301.516 -45.5677 300.953C-55.2534 300.39 -65.1587 298.989 -73.6371 294.28C-77.0806 292.357 -80.2772 289.9 -84.0226 288.664C-89.0575 287.002 -93.6809 285.89 -94.7785 279.753C-95.876 273.615 -88.3442 270.567 -84.8458 266.915L-84.832 266.929Z" fill="#A3C3CE"/>
</g>
<defs>
<clipPath id="clip0_453_24793">
<rect width="1512" height="308" fill="white"/>
</clipPath>
</defs>
</svg>
