<svg width="1512" height="203" viewBox="0 0 1512 203" fill="none" xmlns="http://www.w3.org/2000/svg">
<g clip-path="url(#clip0_453_24381)">
<path d="M442.313 99.9871C439.1 93.4117 437.992 86.0807 437.606 78.8461C437.43 75.5665 436.996 72.0939 437.076 68.8625C437.156 65.3899 439.068 62.1745 440.851 59.2968C441.959 57.4962 443.1 55.7117 444.481 54.0879C447.742 50.2617 452.545 47.4322 457.365 46.0656C460.979 45.0367 464.657 45.3904 468.304 44.9403C475.388 44.04 482.36 48.2199 487.131 53.1233C498.375 64.6504 502.6 82.5438 497.7 97.8971C496.319 102.19 494.359 107.109 496.753 110.935C499.066 114.633 504.11 115.099 508.286 116.337C518.856 119.456 526.246 129.44 529.298 140.034C532.35 150.629 531.788 161.867 531.193 172.879C530.519 185.483 534.004 200.29 536.109 212.733C541.008 241.688 544.462 271.623 537.876 300.255H402.395C401.093 290.175 402.105 279.741 404.868 269.951C406.154 265.369 407.888 260.883 408.451 256.157C409.061 251.044 408.306 245.884 408.178 240.755C408.081 236.784 408.9 232.942 409.045 229.067C409.222 224.276 408.884 220.289 411.069 215.772C412.499 212.798 414.587 210.097 415.422 206.898C415.952 204.84 415.92 202.685 415.888 200.563C415.727 189.84 415.519 179.085 414.956 168.442C414.394 157.799 415.84 146.513 420.209 137.253C423.406 130.485 428.434 124.777 432.819 118.716C436.144 114.119 439.116 109.279 442.088 104.456C442.538 103.733 442.988 102.961 442.988 102.109C442.988 101.354 442.634 100.662 442.297 99.9871H442.313Z" fill="#C2D7DE"/>
<path d="M541.742 74.0449C540.858 78.1605 541.228 82.5495 542.77 86.4722C543.043 87.1635 543.364 87.8709 543.316 88.6104C543.268 89.4464 542.754 90.1859 542.24 90.8451C535.798 99.3497 526.594 105.523 520.65 114.381C516.04 121.262 513.63 129.461 513.004 137.725C512.377 145.988 513.47 154.3 515.43 162.338C517.18 169.557 519.654 176.679 520.361 184.106C520.682 187.515 520.104 190.907 520.361 194.267C520.618 197.627 521.582 201.003 522.482 204.17C526.803 219.186 526.771 235.102 529.903 250.407C531.172 256.58 532.955 262.641 533.742 268.895C534.995 278.863 533.63 289.924 534.176 299.955H680.002C680.082 297.271 680.179 294.586 680.307 291.917C680.677 284.425 682.363 275.294 681.014 267.931C678.685 255.342 676.372 242.754 674.042 230.166C672.275 220.601 670.508 211.019 667.842 201.662C661.497 179.412 650.204 158.946 638.509 138.979C632.598 128.899 621.321 119.076 620.052 107.452C619.651 103.819 619.86 100.154 619.41 96.5202C618.96 92.8868 617.787 89.1892 615.137 86.6812C612.808 84.4626 609.627 83.4176 606.928 81.6652C604.23 79.9129 601.868 76.794 602.736 73.6912C603.137 72.2764 604.165 71.0867 604.551 69.6559C605.145 67.5016 604.181 65.2509 603.25 63.2091C601.081 58.4986 598.896 53.7882 596.728 49.0777C595.491 46.4089 594.254 43.708 592.359 41.4573C589.371 37.9043 584.969 35.734 580.423 34.8015C575.877 33.8691 571.171 34.0941 566.576 34.6729C561.211 35.3642 555.219 35.8465 551.123 39.3673C547.027 42.8881 544.521 48.0809 543.67 53.4184C542.545 60.5404 543.268 66.9872 541.758 74.0288L541.742 74.0449Z" fill="#E3C48D"/>
<path d="M608.171 50.9042C612.861 54.6983 617.616 58.396 622.419 62.0293C624.62 63.6852 626.917 65.3733 629.616 65.936C631.913 66.4183 634.74 66.2575 636.073 68.1867C637.053 69.5854 636.732 71.5789 635.768 72.9937C634.804 74.4084 633.342 75.373 631.929 76.3215C626.628 79.8906 621.471 83.7972 617.487 88.781C613.504 93.7648 612.411 100.581 610.355 106.626C606.532 117.88 602.661 129.311 602.002 141.175C601.857 143.764 601.874 146.4 602.564 148.892C603.159 151.046 604.235 153.04 605.359 154.969C611.994 166.303 620.877 176.142 628.202 187.026C631.479 191.881 634.467 196.962 638.274 201.415C640.876 204.453 643.912 207.218 647.414 209.164C650.016 210.595 653.984 211.206 655.093 214.453C655.398 215.337 655.285 216.302 655.173 217.218C652.314 240.16 647.109 263.648 652.683 286.091C653.791 290.56 655.253 292.586 655.141 297.184H761.916C763.506 288.31 765.097 279.387 765.241 270.368C765.418 258.937 763.233 247.619 761.852 236.269C757.418 199.888 760.647 162.847 759.217 126.224C762.848 120.291 764.566 113.202 764.085 106.273C763.185 93.8131 755.474 82.8487 746.607 74.0386C737.74 65.2286 727.492 57.8494 719.347 48.3641C715.155 43.4767 710.609 37.5766 704.183 37.4801C701.308 37.4319 698.448 38.6376 695.605 38.1553C689.645 37.1425 687.348 29.8276 687.027 23.7827C686.706 17.7378 686.674 10.7123 681.871 7.03073C679.092 4.9086 675.397 4.53883 671.911 4.37806C663.735 3.99222 655.526 4.31376 647.334 4.61922C637.663 4.98898 627.656 3.67069 620.009 9.61909C613.616 14.6029 611.078 22.9789 609.199 30.8726C607.528 37.8338 607.094 43.7983 608.138 50.8881L608.171 50.9042Z" fill="#DCB571"/>
<path d="M872.346 34.5616C873.085 39.3204 873.021 44.2077 872.186 48.9503C871.222 47.9375 869.359 48.6449 868.748 49.8989C868.138 51.1529 868.379 52.6319 868.62 54.0145C869.037 56.4903 869.407 58.9662 869.728 61.4581C869.824 62.1976 869.905 62.9693 869.616 63.6606C869.246 64.5287 868.379 65.0432 867.559 65.5094C860.074 69.6572 851.801 66.9885 844.074 69.5768C841.086 70.5736 838.275 72.551 837.006 75.4448C836.283 77.0847 836.091 78.9174 835.914 80.7019C835.288 87.0362 834.725 93.4187 835.175 99.7851C835.529 104.688 836.492 109.528 837.456 114.351C838.918 121.682 841.07 129.302 841.263 136.762C841.488 145.298 841.809 153.819 841.954 162.356C842.243 179.14 842.099 195.956 840.717 212.692C840.235 218.48 837.97 223.994 837.569 229.653C837.167 235.312 838.179 241.1 838.789 246.582C840.749 264.041 840.091 282.706 839.914 300.278H973.419C973.451 289.009 973.483 277.739 973.515 266.469C973.548 257.611 974.752 248.977 974.993 240.296C975.299 229.299 973.74 218.239 974.174 207.178C974.592 196.84 975.636 186.519 977.306 176.31C981.547 150.411 989.162 123.289 981.901 97.1806C980.664 92.7274 980.728 87.3095 976.841 84.7211C972.311 81.7148 966.688 79.7534 961.468 78.3708C958.335 77.5348 955.074 76.9239 952.263 75.3002C949.452 73.6764 947.107 70.7504 947.283 67.5029C947.412 65.1396 947.075 62.712 946.641 60.3809C946.207 58.0498 944.537 55.6704 942.175 55.5579C940.842 55.4936 939.557 56.1688 938.609 57.1013C937.661 58.0337 936.987 59.2073 936.328 60.3648C936.328 56.9405 935.412 53.4518 935.412 50.0275C935.412 49.5613 935.429 49.0468 935.766 48.7092C936.151 48.3234 936.778 48.3877 937.324 48.4198C939.38 48.5806 941.533 48.1626 943.219 46.9729C946.978 44.3202 947.38 38.5648 945.195 34.5134C943.011 30.4621 938.979 27.7933 934.931 25.623C930.882 23.4526 926.593 21.5234 923.3 18.308C921.244 16.2984 919.541 13.7744 916.907 12.6651C915.734 12.1667 914.449 11.9899 913.18 11.8291C904.201 10.6394 895.237 9.44975 886.258 8.26007C882.756 7.79384 879.013 7.35977 875.816 8.88706C874.001 9.75521 872.539 11.186 871.142 12.633C867.495 16.4431 864.025 20.9125 863.56 26.1696C863.094 31.4267 867.061 34.7224 872.33 34.6099L872.346 34.5616Z" fill="#B18A46"/>
<path d="M831.074 52.0449C827.476 55.5496 825.179 61.2569 826.994 66.112C829.13 71.8354 835.813 74.2308 841.805 75.4205C847.796 76.6102 854.447 77.623 858.334 82.3174C861.74 86.433 862.013 92.2207 861.948 97.5582C861.788 112.252 860.326 126.914 860.84 141.608C861.306 155.113 865.274 167.958 866.655 181.463C867.394 188.569 868.567 194.292 866.093 201.35C864.358 206.317 861.82 210.964 860.005 215.883C855.137 229.018 856.069 242.056 856.423 255.657C856.808 270.576 857.194 285.495 857.579 300.415H731.656C730.644 283.856 732.764 265.641 732.298 249.066C732.041 239.918 731.11 230.754 729.921 221.671C728.732 212.587 729.6 203.89 728.957 195.064C728.877 193.954 728.781 192.845 728.459 191.768C728.042 190.418 727.254 189.212 726.419 188.07C723.046 183.44 718.773 179.582 714.934 175.338C711.094 171.093 707.609 166.286 706.356 160.692C705.199 155.563 706.034 150.242 706.854 145.049C708.621 133.908 709.376 123.795 713.552 113.313C716.877 104.97 720.186 96.6096 723.512 88.2658C726.194 81.5136 732.379 75.6456 738.885 72.5588C744.298 69.9865 750.386 69.247 756.008 67.157C758.225 66.3371 760.41 65.26 762.081 63.588C763.462 62.2054 764.442 60.4852 765.358 58.765C767.028 55.63 768.538 52.3986 769.887 49.1028C771.96 44.0547 769.406 39.1674 770.418 33.8138C771.43 28.4603 773.919 23.1871 778.241 19.8592C781.325 17.4959 785.1 16.2419 788.843 15.197C796.81 12.9623 805.228 11.3707 813.34 12.9944C821.452 14.6182 829.243 20.0521 831.604 27.994C832.825 32.1097 832.536 36.4986 832.247 40.7751C832.215 41.2091 835.893 44.1512 836.022 45.8875C836.263 49.1511 834.303 49.3922 832.295 50.9517C831.877 51.2732 831.492 51.6269 831.106 51.9966L831.074 52.0449Z" fill="#B2CDD6"/>
<path d="M943.534 299.676C939.084 279.853 940.16 258.825 946.618 239.565C951.1 226.173 956.867 211.897 956.288 197.782C951.501 193.987 946.602 190.065 943.405 184.856C938.57 176.962 938.281 167.204 938.104 157.943C938.056 154.905 938.008 151.834 938.57 148.844C939.164 145.709 940.401 142.751 941.494 139.761C947.437 123.378 948.787 105.26 957.332 90.0673C961.975 81.8039 970.216 71.3218 979.565 68.2511C981.733 67.5438 1000.59 65.3734 1000.35 66.129C1002.31 60.1324 999.243 52.6406 1003.23 47.7533C1004.72 45.9205 1007.24 43.8949 1006.13 41.8049C1005.68 40.9528 1004.75 40.5027 1003.89 40.1008C1001.12 38.8307 998.343 37.5606 995.58 36.2906C993.556 35.3581 991.371 34.281 990.359 32.2875C988.882 29.3615 990.665 25.6799 993.315 23.7668C995.966 21.8536 999.291 21.1784 1002.39 20.1495C1005.49 19.1206 1008.7 17.4968 1010.12 14.5387C1011.5 11.661 1010.89 8.10801 1012.32 5.24635C1014.6 0.744858 1019.07 0.712702 1023.31 0.986007C1029.15 1.35577 1035.14 -0.0429023 1041.1 0.310786C1044.62 0.519784 1048.59 1.21109 1050.53 4.16921C1051.92 6.27526 1051.87 9.00831 1052.78 11.3716C1054.89 16.8538 1061.33 19.0081 1066.93 20.7443C1069.73 21.6125 1072.59 22.5771 1074.76 24.5385C1076.93 26.4998 1078.23 29.7152 1077.12 32.4161C1076.17 34.7472 1073.75 36.1137 1071.37 36.9176C1068.99 37.7214 1066.45 38.1394 1064.28 39.4095C1062.12 40.6795 1060.36 43.1393 1060.93 45.599C1061.12 46.435 1061.57 47.1906 1061.92 47.9623C1064.04 52.6406 1061.59 58.3961 1063.64 62.6886C1065.6 66.756 1071.38 68.9264 1075.4 69.9071C1079.96 71.0163 1084.77 71.4344 1089.04 73.3957C1094.64 75.968 1098.74 80.9036 1102.47 85.807C1111.37 97.5109 1119.51 110.726 1120.35 125.404C1120.59 129.568 1119.48 131.561 1120.46 135.613C1121.94 141.738 1123.41 147.895 1123.91 154.181C1124.76 164.856 1122.74 175.515 1121.28 186.126C1119.5 199.1 1118.56 212.202 1118.48 225.305C1118.45 231.736 1117.52 237.716 1119.95 243.681C1121.17 246.671 1123.08 249.34 1124.33 252.33C1126.47 257.378 1126.68 263.005 1126.84 268.487C1127.16 278.985 1127.48 289.499 1127.33 299.998C1121.52 299.998 1115.72 299.965 1109.91 299.949C1097.41 299.917 1084.91 299.885 1072.41 299.853C1060.62 299.821 1048.82 299.789 1037.02 299.773C1031.71 299.773 1026.41 299.773 1021.09 299.773C1008.62 299.74 996.11 299.756 983.629 299.756C971.822 299.756 960.015 299.756 948.208 299.756C947.935 299.756 943.518 299.917 943.486 299.756L943.534 299.676Z" fill="#88A2AC"/>
<path d="M1084.41 116.041C1082.19 106.684 1086.72 96.5719 1094.15 90.4467C1101.57 84.3214 1111.4 81.7813 1120.99 81.4758C1123.86 81.3794 1126.82 81.4758 1129.49 82.5851C1132.04 83.6301 1134.14 85.5272 1136.12 87.4242C1139.57 90.736 1142.96 94.4176 1144.41 98.9834C1146.42 105.382 1144.28 112.263 1142.14 118.629C1140.04 124.915 1137.94 131.201 1135.83 137.487C1135.46 138.597 1135.08 139.754 1135.14 140.912C1135.24 142.6 1136.25 144.111 1137.36 145.381C1139.14 147.439 1141.29 149.175 1143.67 150.477C1146.96 152.278 1150.71 153.307 1153.68 155.606C1157.36 158.451 1159.38 162.937 1160.83 167.358C1164.12 177.518 1165.04 188.29 1165.58 198.965C1167.27 231.89 1165.77 264.96 1161.32 297.612C1161.32 297.644 1159.75 297.612 1159.65 297.612C1143.45 297.612 1127.25 297.612 1111.05 297.612C1101.04 297.612 1091.03 297.612 1081.02 297.612C1077.22 297.612 1073.41 297.547 1069.6 297.612C1065.09 297.692 1060.12 300.297 1058.89 294.284C1056.04 294.573 1054.44 291.985 1053.73 289.525C1050.81 279.252 1050.28 268.465 1049.76 257.806C1049.25 247.066 1048.73 236.327 1048.32 225.572C1047.53 205.01 1047.13 184.319 1050.05 163.933C1051.11 156.57 1052.7 149.014 1057.04 142.985C1064.43 132.729 1074.76 137.117 1083.91 131.153C1084.64 130.671 1085.38 130.156 1085.83 129.401C1087.83 126.105 1085.26 119.787 1084.36 116.025L1084.41 116.041Z" fill="#C2D7DE"/>
<path d="M1179.62 102.23C1176.41 95.6549 1175.3 88.3238 1174.91 81.0893C1174.74 77.8096 1174.3 74.3371 1174.38 71.1056C1174.46 67.6331 1176.38 64.4177 1178.16 61.54C1179.27 59.7394 1180.41 57.9549 1181.79 56.3311C1185.05 52.5048 1189.85 49.6753 1194.67 48.3088C1198.29 47.2799 1201.97 47.6336 1205.61 47.1834C1212.7 46.2831 1219.67 50.4631 1224.44 55.3665C1235.68 66.8935 1239.91 84.787 1235.01 100.14C1233.63 104.433 1231.67 109.352 1234.06 113.179C1236.37 116.876 1241.42 117.342 1245.59 118.58C1256.16 121.699 1263.55 131.683 1266.61 142.277C1269.66 152.872 1269.1 164.11 1268.5 175.122C1267.83 187.726 1271.31 202.533 1273.42 214.977C1278.32 243.931 1281.77 273.866 1275.18 302.498H1139.7C1138.4 292.418 1139.41 281.984 1142.18 272.194C1143.46 267.612 1145.2 263.126 1145.76 258.4C1146.37 253.287 1145.61 248.127 1145.49 242.998C1145.39 239.027 1146.21 235.185 1146.35 231.311C1146.53 226.52 1146.19 222.533 1148.38 218.015C1149.81 215.041 1151.9 212.34 1152.73 209.141C1153.26 207.083 1153.23 204.929 1153.2 202.806C1153.04 192.083 1152.83 181.328 1152.26 170.685C1151.7 160.042 1153.15 148.756 1157.52 139.496C1160.71 132.728 1165.74 127.021 1170.13 120.96C1173.45 116.362 1176.42 111.523 1179.4 106.7C1179.85 105.976 1180.3 105.204 1180.3 104.352C1180.3 103.597 1179.94 102.905 1179.6 102.23H1179.62Z" fill="#DCB571"/>
<path d="M1280.44 76.0898C1279.55 80.2054 1279.92 84.5944 1281.46 88.5171C1281.74 89.2084 1282.06 89.9158 1282.01 90.6553C1281.96 91.4913 1281.45 92.2309 1280.93 92.89C1274.49 101.395 1265.29 107.568 1259.35 116.426C1254.73 123.307 1252.33 131.506 1251.7 139.77C1251.07 148.033 1252.16 156.345 1254.12 164.383C1255.88 171.602 1258.35 178.724 1259.06 186.151C1259.38 189.56 1258.8 192.952 1259.06 196.312C1259.31 199.672 1260.28 203.048 1261.18 206.215C1265.5 221.231 1265.47 237.147 1268.6 252.452C1269.87 258.625 1271.65 264.686 1272.44 270.94C1273.69 280.908 1272.32 291.968 1272.87 302H1418.7C1418.78 299.316 1418.87 296.631 1419 293.962C1419.37 286.47 1421.06 277.339 1419.71 269.975C1417.38 257.387 1415.07 244.799 1412.74 232.211C1410.97 222.645 1409.2 213.064 1406.54 203.707C1400.19 181.457 1388.9 160.991 1377.2 141.024C1371.29 130.944 1360.02 121.121 1358.75 109.497C1358.35 105.864 1358.55 102.198 1358.1 98.5651C1357.65 94.9318 1356.48 91.2341 1353.83 88.7261C1351.5 86.5075 1348.32 85.4625 1345.62 83.7102C1342.92 81.9578 1340.56 78.8389 1341.43 75.7361C1341.83 74.3213 1342.86 73.1317 1343.25 71.7008C1343.84 69.5466 1342.88 67.2958 1341.94 65.2541C1339.78 60.5436 1337.59 55.8331 1335.42 51.1226C1334.19 48.4538 1332.95 45.753 1331.05 43.5022C1328.07 39.9492 1323.66 37.7789 1319.12 36.8464C1314.57 35.914 1309.87 36.1391 1305.27 36.7178C1299.91 37.4091 1293.91 37.8914 1289.82 41.4122C1285.72 44.933 1283.22 50.1258 1282.36 55.4633C1281.24 62.5853 1281.96 69.0321 1280.45 76.0737L1280.44 76.0898Z" fill="#88A2AC"/>
<path d="M1345.48 53.1483C1350.17 56.9424 1354.92 60.6401 1359.73 64.2734C1361.93 65.9293 1364.22 67.6174 1366.92 68.1801C1369.22 68.6624 1372.05 68.5016 1373.38 70.4308C1374.36 71.8295 1374.04 73.823 1373.08 75.2378C1372.11 76.6525 1370.65 77.6172 1369.24 78.5657C1363.94 82.1347 1358.78 86.0414 1354.8 91.0252C1350.81 96.009 1349.72 102.825 1347.66 108.87C1343.84 120.124 1339.97 131.555 1339.31 143.419C1339.17 146.008 1339.18 148.644 1339.87 151.136C1340.47 153.29 1341.54 155.284 1342.67 157.213C1349.3 168.547 1358.18 178.386 1365.51 189.27C1368.79 194.125 1371.77 199.206 1375.58 203.659C1378.18 206.697 1381.22 209.463 1384.72 211.408C1387.32 212.839 1391.29 213.45 1392.4 216.697C1392.71 217.581 1392.59 218.546 1392.48 219.462C1389.62 242.404 1384.42 265.892 1389.99 288.335C1391.1 292.805 1392.56 294.83 1392.45 299.428H1499.22C1500.81 290.554 1502.4 281.631 1502.55 272.612C1502.73 261.182 1500.54 249.863 1499.16 238.513C1494.73 202.132 1497.96 165.091 1496.53 128.468C1500.16 122.536 1501.87 115.446 1501.39 108.517C1500.49 96.0572 1492.78 85.0928 1483.92 76.2828C1475.05 67.4727 1464.8 60.0935 1456.66 50.6082C1452.46 45.7209 1447.92 39.8207 1441.49 39.7242C1438.62 39.676 1435.76 40.8818 1432.91 40.3995C1426.95 39.3866 1424.66 32.0717 1424.34 26.0268C1424.01 19.982 1423.98 12.9564 1419.18 9.27486C1416.4 7.15273 1412.71 6.78297 1409.22 6.62221C1401.04 6.23636 1392.83 6.55789 1384.64 6.86335C1374.97 7.23311 1364.96 5.91482 1357.32 11.8632C1350.92 16.847 1348.39 25.223 1346.51 33.1167C1344.84 40.0779 1344.4 46.0424 1345.45 53.1322L1345.48 53.1483Z" fill="#B2CDD6"/>
<path d="M1597.66 54.29C1594.06 57.7947 1591.77 63.502 1593.58 68.3572C1595.72 74.0805 1602.4 76.4759 1608.39 77.6656C1614.38 78.8553 1621.03 79.8681 1624.92 84.5625C1628.33 88.6782 1628.6 94.4658 1628.54 99.8033C1628.38 114.497 1626.91 129.159 1627.43 143.854C1627.89 157.358 1631.86 170.203 1633.24 183.708C1633.98 190.814 1635.15 196.537 1632.68 203.595C1630.95 208.563 1628.41 213.209 1626.59 218.128C1621.73 231.263 1622.66 244.301 1623.01 257.902C1623.4 272.821 1623.78 287.741 1624.17 302.66H1498.24C1497.23 286.101 1499.35 267.886 1498.89 251.311C1498.63 242.163 1497.7 232.999 1496.51 223.916C1495.32 214.832 1496.19 206.135 1495.55 197.309C1495.46 196.2 1495.37 195.09 1495.05 194.013C1494.63 192.663 1493.84 191.457 1493.01 190.315C1489.63 185.685 1485.36 181.827 1481.52 177.583C1477.68 173.338 1474.2 168.531 1472.94 162.937C1471.79 157.808 1472.62 152.487 1473.44 147.294C1475.21 136.153 1475.96 126.041 1480.14 115.559C1483.47 107.215 1486.77 98.8548 1490.1 90.5109C1492.78 83.7587 1498.97 77.8907 1505.47 74.8039C1510.89 72.2317 1516.97 71.4921 1522.6 69.4022C1524.81 68.5822 1527 67.5051 1528.67 65.8331C1530.05 64.4505 1531.03 62.7303 1531.95 61.0101C1533.62 57.8751 1535.13 54.6437 1536.48 51.348C1538.55 46.2999 1535.99 41.4125 1537.01 36.059C1538.02 30.7054 1540.51 25.4322 1544.83 22.1043C1547.91 19.741 1551.69 18.4871 1555.43 17.4421C1563.4 15.2074 1571.82 13.6158 1579.93 15.2395C1588.04 16.8633 1595.83 22.2972 1598.19 30.2392C1599.41 34.3548 1599.12 38.7438 1598.83 43.0202C1598.8 43.4543 1602.48 46.3963 1602.61 48.1326C1602.85 51.3962 1600.89 51.6373 1598.88 53.1968C1598.47 53.5183 1598.08 53.872 1597.69 54.2418L1597.66 54.29Z" fill="#C2D7DE"/>
<path d="M725.097 113.797C727.313 104.44 722.784 94.3278 715.362 88.2025C707.941 82.0773 698.11 79.5371 688.52 79.2317C685.644 79.1352 682.689 79.2317 680.022 80.341C677.468 81.386 675.364 83.283 673.388 85.1801C669.934 88.4919 666.545 92.1735 665.099 96.7393C663.091 103.138 665.227 110.019 667.364 116.385C669.468 122.671 671.573 128.957 673.677 135.243C674.046 136.352 674.432 137.51 674.368 138.667C674.271 140.356 673.259 141.867 672.151 143.137C670.368 145.195 668.215 146.931 665.838 148.233C662.545 150.034 658.802 151.063 655.83 153.362C652.152 156.207 650.128 160.693 648.682 165.114C645.389 175.274 644.473 186.046 643.927 196.721C642.24 229.646 643.734 262.716 648.184 295.368C648.184 295.4 649.758 295.368 649.854 295.368C666.063 295.368 682.255 295.368 698.463 295.368C708.471 295.368 718.478 295.368 728.486 295.368C732.293 295.368 736.1 295.303 739.907 295.368C744.421 295.448 749.385 298.052 750.622 292.04C753.465 292.329 755.072 289.741 755.778 287.281C758.702 277.008 759.232 266.22 759.746 255.562C760.26 244.822 760.774 234.083 761.192 223.328C761.979 202.765 762.381 182.075 759.457 161.689C758.397 154.326 756.806 146.77 752.469 140.741C745.08 130.484 734.751 134.873 725.595 128.909C724.872 128.427 724.133 127.912 723.683 127.156C721.675 123.861 724.245 117.543 725.145 113.781L725.097 113.797Z" fill="#88A2AC"/>
<path d="M629.887 99.9871C633.1 93.4117 634.208 86.0807 634.594 78.8461C634.771 75.5665 635.204 72.0939 635.124 68.8625C635.044 65.3899 633.132 62.1745 631.349 59.2968C630.241 57.4962 629.1 55.7117 627.719 54.0879C624.458 50.2617 619.655 47.4322 614.836 46.0656C611.221 45.0367 607.543 45.3904 603.896 44.9403C596.812 44.04 589.841 48.2199 585.07 53.1233C573.825 64.6504 569.6 82.5438 574.5 97.8971C575.881 102.19 577.841 107.109 575.448 110.935C573.134 114.633 568.09 115.099 563.914 116.337C553.344 119.456 545.955 129.44 542.902 140.034C539.85 150.629 540.413 161.867 541.007 172.879C541.682 185.483 538.196 200.29 536.091 212.733C531.192 241.688 527.738 271.623 534.324 300.255H669.806C671.107 290.175 670.095 279.741 667.332 269.951C666.047 265.369 664.312 260.883 663.75 256.157C663.139 251.044 663.894 245.884 664.023 240.755C664.119 236.784 663.3 232.942 663.155 229.067C662.978 224.276 663.316 220.289 661.131 215.772C659.702 212.798 657.613 210.097 656.778 206.898C656.248 204.84 656.28 202.685 656.312 200.563C656.473 189.84 656.682 179.085 657.244 168.442C657.806 157.799 656.36 146.513 651.991 137.253C648.794 130.485 643.766 124.777 639.381 118.716C636.056 114.119 633.084 109.279 630.112 104.456C629.662 103.733 629.213 102.961 629.213 102.109C629.213 101.354 629.566 100.662 629.903 99.9871H629.887Z" fill="#D5A654"/>
<path d="M530.458 74.0449C531.342 78.1605 530.972 82.5495 529.43 86.4722C529.157 87.1635 528.836 87.8709 528.884 88.6104C528.932 89.4464 529.446 90.1859 529.96 90.8451C536.402 99.3497 545.606 105.523 551.55 114.381C556.16 121.262 558.57 129.461 559.196 137.725C559.823 145.988 558.73 154.3 556.771 162.338C555.02 169.557 552.546 176.679 551.839 184.106C551.518 187.515 552.096 190.907 551.839 194.267C551.582 197.627 550.618 201.003 549.719 204.17C545.398 219.186 545.43 235.102 542.297 250.407C541.028 256.58 539.245 262.641 538.458 268.895C537.205 278.863 538.57 289.924 538.024 299.955H392.198C392.118 297.271 392.022 294.586 391.893 291.917C391.524 284.425 389.837 275.294 391.186 267.931C393.515 255.342 395.829 242.754 398.158 230.166C399.925 220.601 401.692 211.019 404.358 201.662C410.704 179.412 421.996 158.946 433.691 138.979C439.602 128.899 450.879 119.076 452.148 107.452C452.549 103.819 452.341 100.154 452.79 96.5202C453.24 92.8868 454.413 89.1892 457.063 86.6812C459.393 84.4626 462.573 83.4176 465.272 81.6652C467.971 79.9129 470.332 76.794 469.465 73.6912C469.063 72.2764 468.035 71.0867 467.649 69.6559C467.055 67.5016 468.019 65.2509 468.951 63.2091C471.119 58.4986 473.304 53.7882 475.472 49.0777C476.709 46.4089 477.946 43.708 479.842 41.4573C482.83 37.9043 487.231 35.734 491.777 34.8015C496.323 33.8691 501.03 34.0941 505.624 34.6729C510.989 35.3642 516.981 35.8465 521.077 39.3673C525.173 42.8881 527.679 48.0809 528.531 53.4184C529.655 60.5404 528.932 66.9872 530.442 74.0288L530.458 74.0449Z" fill="#B18A46"/>
<path d="M464.03 50.9042C459.339 54.6983 454.584 58.396 449.781 62.0293C447.58 63.6852 445.283 65.3733 442.585 65.936C440.288 66.4183 437.46 66.2575 436.127 68.1867C435.147 69.5854 435.468 71.5789 436.432 72.9937C437.396 74.4084 438.858 75.373 440.271 76.3215C445.572 79.8906 450.729 83.7972 454.713 88.781C458.697 93.7648 459.789 100.581 461.845 106.626C465.668 117.88 469.54 129.311 470.198 141.175C470.343 143.764 470.327 146.4 469.636 148.892C469.042 151.046 467.965 153.04 466.841 154.969C460.207 166.303 451.323 176.142 443.998 187.026C440.721 191.881 437.733 196.962 433.926 201.415C431.324 204.453 428.288 207.218 424.786 209.164C422.184 210.595 418.216 211.206 417.108 214.453C416.802 215.337 416.915 216.302 417.027 217.218C419.887 240.16 425.091 263.648 419.517 286.091C418.409 290.56 416.947 292.586 417.059 297.184H310.284C308.694 288.31 307.104 279.387 306.959 270.368C306.782 258.937 308.967 247.619 310.348 236.269C314.782 199.888 311.553 162.847 312.983 126.224C309.353 120.291 307.634 113.202 308.116 106.273C309.015 93.8131 316.726 82.8487 325.593 74.0386C334.46 65.2286 344.709 57.8494 352.853 48.3641C357.046 43.4767 361.592 37.5766 368.017 37.4801C370.892 37.4319 373.752 38.6376 376.595 38.1553C382.555 37.1425 384.852 29.8276 385.173 23.7827C385.494 17.7378 385.526 10.7123 390.33 7.03073C393.109 4.9086 396.803 4.53883 400.289 4.37806C408.465 3.99222 416.674 4.31376 424.866 4.61922C434.537 4.98898 444.544 3.67069 452.191 9.61909C458.584 14.6029 461.122 22.9789 463.002 30.8726C464.672 37.8338 465.106 43.7983 464.062 50.8881L464.03 50.9042Z" fill="#DCB571"/>
<path d="M155.934 34.5616C155.195 39.3204 155.259 44.2077 156.094 48.9503C157.058 47.9375 158.922 48.6449 159.532 49.8989C160.143 51.1529 159.902 52.6319 159.661 54.0145C159.243 56.4903 158.874 58.9662 158.552 61.4581C158.456 62.1976 158.376 62.9693 158.665 63.6606C159.034 64.5287 159.902 65.0432 160.721 65.5094C168.207 69.6572 176.479 66.9885 184.206 69.5768C187.194 70.5736 190.005 72.551 191.274 75.4448C191.997 77.0847 192.19 78.9174 192.366 80.7019C192.993 87.0362 193.555 93.4187 193.105 99.7851C192.752 104.688 191.788 109.528 190.824 114.351C189.362 121.682 187.21 129.302 187.017 136.762C186.792 145.298 186.471 153.819 186.326 162.356C186.037 179.14 186.182 195.956 187.563 212.692C188.045 218.48 190.31 223.994 190.712 229.653C191.113 235.312 190.101 241.1 189.491 246.582C187.531 264.041 188.19 282.706 188.366 300.278H54.8612C54.829 289.009 54.7969 277.739 54.7648 266.469C54.7327 257.611 53.5279 248.977 53.287 240.296C52.9817 229.299 54.5399 218.239 54.1062 207.178C53.6885 196.84 52.6444 186.519 50.9738 176.31C46.733 150.411 39.1188 123.289 46.3795 97.1806C47.6165 92.7274 47.5522 87.3095 51.4396 84.7211C55.9696 81.7148 61.5919 79.7534 66.8125 78.3708C69.945 77.5348 73.2059 76.9239 76.0171 75.3002C78.8282 73.6764 81.1735 70.7504 80.9968 67.5029C80.8683 65.1396 81.2056 62.712 81.6393 60.3809C82.0731 58.0498 83.7437 55.6704 86.105 55.5579C87.4383 55.4936 88.7234 56.1688 89.6712 57.1013C90.6189 58.0337 91.2936 59.2073 91.9522 60.3648C91.9522 56.9405 92.8678 53.4518 92.8678 50.0275C92.8678 49.5613 92.8518 49.0468 92.5144 48.7092C92.1289 48.3234 91.5024 48.3877 90.9562 48.4198C88.9001 48.5806 86.7476 48.1626 85.0609 46.9729C81.302 44.3202 80.9004 38.5648 83.0851 34.5134C85.2697 30.4621 89.3017 27.7933 93.3498 25.623C97.3978 23.4526 101.687 21.5234 104.98 18.308C107.036 16.2984 108.739 13.7744 111.373 12.6651C112.546 12.1667 113.831 11.9899 115.1 11.8291C124.08 10.6394 133.043 9.44975 142.023 8.26007C145.525 7.79384 149.267 7.35977 152.464 8.88706C154.279 9.75521 155.741 11.186 157.139 12.633C160.785 16.4431 164.255 20.9125 164.721 26.1696C165.187 31.4267 161.219 34.7224 155.95 34.6099L155.934 34.5616Z" fill="#B18A46"/>
<path d="M211.846 52.0449C215.445 55.5496 217.742 61.2569 215.927 66.112C213.79 71.8354 207.108 74.2308 201.116 75.4205C195.124 76.6102 188.474 77.623 184.586 82.3174C181.181 86.433 180.908 92.2207 180.972 97.5582C181.133 112.252 182.594 126.914 182.08 141.608C181.614 155.113 177.647 167.958 176.265 181.463C175.526 188.569 174.354 194.292 176.828 201.35C178.562 206.317 181.1 210.964 182.916 215.883C187.783 229.018 186.851 242.056 186.498 255.657C186.112 270.576 185.727 285.495 185.341 300.415H311.264C312.276 283.856 310.156 265.641 310.622 249.066C310.879 239.918 311.811 230.754 312.999 221.671C314.188 212.587 313.321 203.89 313.963 195.064C314.043 193.954 314.14 192.845 314.461 191.768C314.879 190.418 315.666 189.212 316.501 188.07C319.875 183.44 324.148 179.582 327.987 175.338C331.826 171.093 335.312 166.286 336.565 160.692C337.721 155.563 336.886 150.242 336.067 145.049C334.3 133.908 333.545 123.795 329.368 113.313C326.043 104.97 322.734 96.6096 319.409 88.2658C316.726 81.5136 310.542 75.6456 304.036 72.5588C298.622 69.9865 292.534 69.247 286.912 67.157C284.695 66.3371 282.51 65.26 280.84 63.588C279.458 62.2054 278.478 60.4852 277.563 58.765C275.892 55.63 274.382 52.3986 273.033 49.1028C270.961 44.0547 273.515 39.1674 272.503 33.8138C271.491 28.4603 269.001 23.1871 264.68 19.8592C261.596 17.4959 257.821 16.2419 254.078 15.197C246.11 12.9623 237.693 11.3707 229.581 12.9944C221.468 14.6182 213.678 20.0521 211.316 27.994C210.095 32.1097 210.385 36.4986 210.674 40.7751C210.706 41.2091 207.027 44.1512 206.899 45.8875C206.658 49.1511 208.618 49.3922 210.626 50.9517C211.043 51.2732 211.429 51.6269 211.814 51.9966L211.846 52.0449Z" fill="#A3C3CE"/>
<path d="M55.4662 299.676C59.9159 279.853 58.8396 258.825 52.382 239.565C47.9002 226.173 42.1334 211.897 42.7117 197.782C47.4987 193.987 52.3981 190.065 55.5947 184.856C60.4299 176.962 60.7191 167.204 60.8958 157.943C60.944 154.905 60.9921 151.834 60.4299 148.844C59.8356 145.709 58.5986 142.751 57.5063 139.761C51.5627 123.378 50.2134 105.26 41.6675 90.0673C37.0251 81.8039 28.7844 71.3218 19.4354 68.2511C17.2668 67.5438 -1.59194 65.3734 -1.35099 66.129C-3.31076 60.1324 -0.242609 52.6406 -4.2264 47.7533C-5.72032 45.9205 -8.24232 43.8949 -7.13392 41.8049C-6.68414 40.9528 -5.75246 40.5027 -4.88502 40.1008C-2.12207 38.8307 0.656923 37.5606 3.41988 36.2906C5.4439 35.3581 7.62856 34.281 8.64057 32.2875C10.1184 29.3615 8.33537 25.6799 5.68486 23.7668C3.03435 21.8536 -0.290818 21.1784 -3.39111 20.1495C-6.4914 19.1206 -9.70413 17.4968 -11.1177 14.5387C-12.4992 11.661 -11.8888 8.10801 -13.3185 5.24635C-15.5995 0.744858 -20.0652 0.712702 -24.306 0.986007C-30.1532 1.35577 -36.1449 -0.0429023 -42.1045 0.310786C-45.6225 0.519784 -49.5902 1.21109 -51.5339 4.16921C-52.9154 6.27526 -52.8672 9.00831 -53.7829 11.3716C-55.8872 16.8538 -62.3287 19.0081 -67.935 20.7443C-70.73 21.6125 -73.5894 22.5771 -75.758 24.5385C-77.9266 26.4998 -79.2278 29.7152 -78.1194 32.4161C-77.1716 34.7472 -74.746 36.1137 -72.3686 36.9176C-69.9911 37.7214 -67.453 38.1394 -65.2844 39.4095C-63.1158 40.6795 -61.3649 43.1393 -61.9272 45.599C-62.1199 46.435 -62.5697 47.1906 -62.9231 47.9623C-65.0435 52.6406 -62.5858 58.3961 -64.6419 62.6886C-66.6017 66.756 -72.3846 68.9264 -76.4006 69.9071C-80.9626 71.0163 -85.7657 71.4344 -90.0386 73.3957C-95.6448 75.968 -99.741 80.9036 -103.468 85.807C-112.367 97.5109 -120.511 110.726 -121.347 125.404C-121.588 129.568 -120.479 131.561 -121.459 135.613C-122.937 141.738 -124.415 147.895 -124.913 154.181C-125.764 164.856 -123.74 175.515 -122.278 186.126C-120.495 199.1 -119.564 212.202 -119.483 225.305C-119.451 231.736 -118.519 237.716 -120.945 243.681C-122.166 246.671 -124.077 249.34 -125.33 252.33C-127.467 257.378 -127.676 263.005 -127.836 268.487C-128.158 278.985 -128.479 289.499 -128.334 299.998C-122.519 299.998 -116.72 299.965 -110.905 299.949C-98.4078 299.917 -85.9102 299.885 -73.4126 299.853C-61.6219 299.821 -49.8151 299.789 -38.0244 299.773C-32.7073 299.773 -27.4063 299.773 -22.0892 299.773C-9.62379 299.74 2.88978 299.756 15.3713 299.756C27.1781 299.756 38.9849 299.756 50.7917 299.756C51.0648 299.756 55.4823 299.917 55.5144 299.756L55.4662 299.676Z" fill="#88A2AC"/>
</g>
<defs>
<clipPath id="clip0_453_24381">
<rect width="1512" height="203" fill="white"/>
</clipPath>
</defs>
</svg>
