<svg width="1512" height="323" viewBox="0 0 1512 323" fill="none" xmlns="http://www.w3.org/2000/svg">
<g clip-path="url(#clip0_453_24353)">
<path d="M1150.6 187.368C1148.55 187.947 1146.19 187.995 1143.65 187.883C1135.39 187.497 1127.06 188.494 1118.78 188.22C1109.08 187.899 1099.38 187.191 1089.68 187.191C1088.1 187.658 1086.45 186.42 1085.8 184.908C1085.16 183.397 1085.27 181.693 1085.35 180.053C1086.13 160.729 1078.69 141.855 1078.86 122.515C1078.91 117.322 1079.51 112.145 1080.41 107.017C1082.21 96.7435 1085.19 86.6955 1089.29 77.1138C1091.27 72.4837 1093.72 67.725 1098 65.0884C1100.47 63.5611 1103.36 62.8698 1106.25 62.5322C1107.89 62.3392 1109.59 62.2428 1111.02 61.4068C1113.3 60.0563 1114.22 57.1143 1113.93 54.4777C1113.64 51.8411 1112.42 49.4135 1111.3 47.0181C1106.67 37.163 1103.46 25.9736 1106.09 15.3951C1109.29 2.51763 1132.81 5.1703 1141.8 6.60113C1143.63 6.89051 1145.51 7.26027 1147.14 8.16057C1149 9.18948 1150.43 10.8775 1151.5 12.7264C1154.67 18.1764 1154.77 24.8804 1153.82 31.1021C1152.87 37.3238 1150.96 43.4008 1150.38 49.6708C1149.95 54.3491 1150.46 59.558 1153.8 62.8698C1156.92 65.9565 1160.87 67.725 1163.65 71.2618C1169.62 78.8661 1170.86 89.2839 1169.66 98.8978C1168.44 108.496 1165.05 117.675 1162.64 127.032C1159.26 140.103 1157.79 153.639 1158.27 167.128C1158.43 171.758 1158.8 176.549 1157.17 180.889C1155.75 184.732 1153.46 186.58 1150.62 187.384L1150.6 187.368Z" fill="#E3C48D"/>
<path d="M978.83 72.3705C979.617 70.4092 980.243 68.2709 979.89 66.197C979.119 61.5669 974.187 59.075 970.943 55.6828C966.862 51.4386 965.272 45.2812 965.385 39.3971C965.497 33.513 967.136 27.7736 968.758 22.1146C970.123 17.3237 971.585 12.3721 974.846 8.61012C979.97 2.66172 988.42 0.925427 996.243 0.427048C1000.84 0.137666 1005.64 0.169821 1009.8 2.14726C1016.29 5.234 1019.86 12.3399 1021.91 19.2369C1024.85 29.0758 1025.72 39.5418 1024.43 49.7345C1024.24 51.31 1023.98 52.9337 1024.43 54.4449C1024.84 55.7954 1025.74 56.9368 1026.6 58.0301C1030.47 62.8531 1034.44 67.7726 1039.6 71.1969C1043.65 73.8817 1048.32 75.5698 1052.08 78.6405C1055.87 81.7272 1058.47 85.9875 1061 90.1675C1065.69 97.9165 1070.39 105.73 1073.64 114.186C1078.33 126.453 1079.74 139.7 1081.11 152.754C1082.14 162.513 1083.15 172.448 1081.14 182.046C1079.82 188.348 1077.22 194.329 1073.93 199.859C1072.8 201.74 1071.55 203.637 1069.73 204.891C1067.77 206.258 1065.33 206.74 1062.96 206.965C1047.34 208.396 1032.85 199.763 1018.68 193.027C991.793 180.213 962.477 173.525 933.45 166.805C929.804 165.953 925.788 164.86 923.812 161.661C922.687 159.828 922.446 157.593 922.318 155.439C921.643 142.771 924.294 130.183 926.944 117.787C927.828 113.623 928.775 109.331 931.281 105.907C936.486 98.7846 950.477 98.1255 958.06 94.0098C966.975 89.1707 974.942 82.0005 978.798 72.4188L978.83 72.3705Z" fill="#A3C3CE"/>
<path d="M1181.04 94.829C1185.31 94.829 1189.65 96.0026 1193.78 98.6875C1197.55 101.131 1200.23 104.973 1202.14 109.057C1203.86 112.755 1205.04 116.886 1204.23 120.889C1203.4 125.053 1200.51 128.622 1199.82 132.818C1198.5 140.889 1205.84 148.011 1213.57 150.728C1221.29 153.445 1229.74 153.397 1237.48 156.033C1247.24 159.361 1255.03 166.66 1262.5 173.75C1268.25 179.216 1274.09 184.827 1277.77 191.868C1281.56 199.135 1282.77 207.431 1284.25 215.485C1286.38 227.028 1289.21 238.603 1288.89 250.339C1288.73 256.031 1287.55 262.204 1283.28 265.966C1277.74 270.853 1274.58 278.281 1268.46 282.413C1262.91 286.159 1256.17 287.702 1249.52 288.281C1239.24 289.165 1228.91 287.927 1218.67 286.673C1206.27 284.985 1193.79 283.345 1181.33 282.22C1176.64 281.802 1172.94 280.13 1168.39 279.294C1164.46 278.57 1160.36 278.763 1156.81 276.609C1153.68 274.696 1151.72 271.384 1149.91 268.185C1145.02 259.648 1140.07 250.999 1137.41 241.529C1135.71 235.485 1134.95 229.199 1134.37 222.945C1133.2 210.051 1132.78 197.077 1133.13 184.119C1133.33 176.74 1134.44 171.387 1140.44 166.998C1145.38 163.38 1153.5 160.422 1156.11 154.538C1157.25 151.95 1157.17 149.008 1157.07 146.178C1156.72 136.307 1156.35 126.452 1155.99 116.581C1155.93 114.7 1155.86 112.771 1156.41 110.954C1157.13 108.591 1158.82 106.678 1160.48 104.829C1165.97 98.7196 1173.39 94.829 1181.07 94.7969L1181.04 94.829Z" fill="#A3C3CE"/>
<path d="M1218.17 158.075C1218.35 162.48 1218.53 166.997 1220.15 171.113C1221.8 175.341 1224.86 178.862 1227.84 182.27C1232.63 187.752 1237.58 193.138 1242.03 198.894C1253.45 213.668 1256.97 234.295 1250.82 251.947C1247.73 260.789 1242.45 268.731 1236.5 275.966C1234.21 278.763 1231.68 282.589 1233.63 285.644C1234.19 286.544 1235.07 287.187 1235.97 287.734C1243.02 292.074 1251.88 291.785 1260.13 291.351C1264.24 291.142 1268.49 290.885 1272.2 289.084C1275.71 287.38 1277.67 283.779 1281.34 282.396C1284.57 283.586 1288.24 282.718 1291.18 280.949C1294.12 279.181 1296.48 276.609 1298.85 274.117C1303.62 269.085 1308.58 264.246 1313.72 259.599C1317.88 255.837 1322.23 252.14 1325.3 247.445C1328.34 242.799 1329.99 237.333 1333.3 232.864C1337.83 226.739 1344.47 221.899 1352.02 222.832C1354.64 223.153 1356.27 220.163 1357.16 217.687C1362.35 203.106 1367.6 188.154 1367.57 172.672C1367.55 165.309 1366.07 157.464 1360.92 152.207C1355.65 146.837 1347.18 144.86 1343.31 138.397C1341.72 135.728 1341.13 132.593 1340.16 129.635C1338.7 125.133 1336.31 120.873 1335.89 116.163C1335.15 107.738 1340.8 98.8962 1337.27 91.2275C1335.65 87.7067 1332.27 85.2148 1328.61 83.9608C1324.95 82.7069 1321 82.5461 1317.13 82.6908C1318.76 81.8709 1316.6 80.8098 1315.09 79.7648C1313.58 78.7198 1311.54 77.707 1311.54 75.8742C1316.03 73.7682 1320.52 71.6461 1325.01 69.54C1325.98 69.0899 1326.97 68.6075 1327.66 67.8037C1329.53 65.6173 1328.37 62.2572 1326.84 59.8296C1322.64 53.1417 1314.96 47.6595 1307.25 49.3797C1298.59 51.309 1292.47 58.5756 1284.18 61.7428C1279.28 63.6077 1275.76 67.8519 1272.45 71.9354C1267.35 78.2375 1262.25 84.5235 1257.14 90.8256C1254.62 93.9284 1252.07 97.0795 1248.87 99.491C1244.84 102.53 1239.96 104.266 1235.91 107.288C1231.27 110.745 1226.59 115.889 1225.26 121.516C1221.68 122.047 1219.99 126.178 1219.3 129.731C1217.48 139.04 1217.84 148.622 1218.21 158.091L1218.17 158.075ZM1264.34 140.615C1265.13 134.185 1266.16 127.786 1267.41 121.42C1269.67 122.143 1271.15 124.233 1272.89 125.857C1274.88 127.738 1277.35 129.088 1280 129.764C1280.34 129.844 1280.69 129.94 1280.92 130.198C1281.14 130.455 1281.19 130.809 1281.22 131.146C1281.64 136.001 1281.11 137.271 1276.82 138.3C1272.76 139.281 1268.61 141.082 1264.36 140.615H1264.34Z" fill="#B18A46"/>
<path d="M1485.66 117.32C1486.16 115.423 1486.64 113.462 1486.27 111.532C1485.95 109.877 1485.05 108.398 1484.07 107.031C1477.13 97.2724 1465.77 90.7935 1453.85 89.7806C1441.93 88.7678 1429.64 93.2211 1421.15 101.661C1419.32 103.478 1417.63 105.52 1416.65 107.915C1415.41 110.938 1415.41 114.298 1415.62 117.545C1416.15 125.407 1417.92 133.188 1420.84 140.519C1410.08 143.541 1397.81 137.593 1387.7 142.368C1381.77 145.165 1378.03 151.049 1374.59 156.644C1373.23 158.862 1371.86 161.081 1370.95 163.509C1369.82 166.467 1369.37 169.65 1368.83 172.785C1366.58 185.807 1363.82 200.453 1358.26 212.414C1352.7 224.375 1345.21 235.581 1344.36 248.86C1344.15 252.059 1344.39 255.387 1345.86 258.233C1347.22 260.918 1349.55 262.976 1351.94 264.808C1364.25 274.229 1379.48 279.438 1394.9 281.062C1410.32 282.686 1425.95 280.869 1441.03 277.284C1450.83 274.953 1460.68 271.753 1468.6 265.532C1477.43 258.587 1483.14 248.458 1491.01 240.436C1497.45 233.861 1505.61 228.314 1508.9 219.713C1510.7 214.986 1510.83 209.794 1510.54 204.746C1509.95 193.942 1507.38 182.736 1500.23 174.634C1497.35 171.37 1493.8 168.701 1491.06 165.325C1488.26 161.901 1486.38 157.817 1483.52 154.441C1481.02 151.467 1476.34 148.718 1476.26 144.377C1476.18 140.438 1479.65 135.487 1481.02 131.87C1482.82 127.111 1484.36 122.256 1485.67 117.336L1485.66 117.32Z" fill="#E3C48D"/>
<path d="M1503.36 119.765C1505.66 116.823 1508.86 114.701 1512.14 112.9C1517.5 109.974 1523.38 107.756 1529.48 107.45C1535.59 107.145 1541.95 108.881 1546.46 113.013C1549.39 115.698 1551.41 119.218 1553.31 122.707C1555.12 126.051 1556.92 129.556 1557.03 133.366C1557.15 137.176 1555.54 140.793 1554.25 144.378C1551.27 152.626 1549.77 161.339 1548.29 169.989C1548.13 170.889 1547.99 171.838 1548.21 172.722C1548.41 173.477 1548.87 174.12 1549.34 174.747C1556.09 183.445 1568.07 187.384 1573.42 197.014C1574.09 198.22 1574.66 199.65 1574.21 200.969C1573.95 201.74 1573.37 202.367 1572.81 202.946C1569.42 206.547 1565.74 210.309 1560.94 211.483C1555.72 212.753 1550.32 210.679 1545.45 208.412C1537.18 204.554 1529.24 200.052 1521.32 195.535C1509.04 188.541 1496.75 181.548 1484.46 174.571C1483.46 174.008 1482.45 173.413 1481.79 172.497C1480.92 171.275 1480.81 169.683 1480.73 168.188C1480.46 162.883 1480.28 157.208 1483.06 152.674C1486.82 146.565 1497.29 145.182 1499.88 138.88C1500.84 136.517 1499.73 133.623 1499.72 131.179C1499.7 127.08 1500.81 123.061 1503.36 119.797V119.765Z" fill="#DCB571"/>
<path d="M415.032 85.2157C419.305 85.2157 423.642 86.3893 427.77 89.0742C431.545 91.5178 434.228 95.3602 436.14 99.4437C437.858 103.141 439.031 107.273 438.228 111.276C437.393 115.44 434.501 119.009 433.81 123.205C432.493 131.276 439.834 138.398 447.561 141.115C455.287 143.832 463.737 143.783 471.48 146.42C481.23 149.748 489.021 157.047 496.491 164.137C502.242 169.603 508.089 175.213 511.767 182.255C515.558 189.522 516.763 197.817 518.241 205.872C520.377 217.415 523.205 228.99 522.883 240.726C522.723 246.417 521.55 252.591 517.277 256.353C511.735 261.24 508.571 268.668 502.45 272.799C496.908 276.545 490.162 278.089 483.511 278.667C473.231 279.552 462.902 278.314 452.669 277.06C440.268 275.372 427.786 273.732 415.321 272.606C410.63 272.188 406.936 270.516 402.39 269.68C398.454 268.957 394.358 269.15 390.808 266.996C387.675 265.082 385.716 261.771 383.9 258.571C379.017 250.035 374.069 241.385 371.403 231.916C369.7 225.871 368.945 219.585 368.367 213.331C367.194 200.438 366.777 187.464 367.13 174.506C367.323 167.127 368.431 161.773 374.439 157.384C379.37 153.767 387.499 150.809 390.101 144.925C391.242 142.336 391.161 139.394 391.065 136.565C390.711 126.694 390.342 116.839 389.989 106.968C389.924 105.087 389.86 103.157 390.406 101.341C391.129 98.9774 392.816 97.0643 394.47 95.2155C399.964 89.1063 407.386 85.2157 415.064 85.1836L415.032 85.2157Z" fill="#C2D7DE"/>
<path d="M704.997 107.707C705.495 105.81 705.977 103.848 705.607 101.919C705.286 100.263 704.387 98.7842 703.407 97.4177C696.467 87.6591 685.11 81.1802 673.191 80.1673C661.272 79.1545 648.983 83.6078 640.485 92.0481C638.654 93.8647 636.967 95.9065 635.987 98.3019C634.751 101.324 634.751 104.684 634.959 107.932C635.489 115.793 637.256 123.575 640.18 130.906C629.417 133.928 617.145 127.98 607.041 132.754C601.113 135.552 597.37 141.436 593.933 147.031C592.567 149.249 591.202 151.468 590.286 153.895C589.162 156.853 588.712 160.037 588.166 163.172C585.917 176.194 583.154 190.84 577.596 202.801C572.038 214.762 564.552 225.967 563.701 239.247C563.492 242.446 563.733 245.774 565.195 248.62C566.56 251.304 568.889 253.362 571.283 255.195C583.588 264.616 598.816 269.825 614.237 271.449C629.658 273.072 645.288 271.256 660.372 267.671C670.171 265.339 680.018 262.14 687.937 255.918C696.772 248.973 702.475 238.845 710.346 230.823C716.788 224.247 724.948 218.701 728.241 210.1C730.04 205.373 730.169 200.18 729.88 195.132C729.285 184.329 726.715 173.123 719.567 165.02C716.691 161.757 713.141 159.088 710.394 155.712C707.599 152.288 705.72 148.204 702.861 144.828C700.355 141.854 695.68 139.105 695.6 134.764C695.519 130.825 698.989 125.874 700.355 122.256C702.154 117.498 703.696 112.642 705.013 107.723L704.997 107.707Z" fill="#B18A46"/>
<path d="M751.984 110.15C754.281 107.208 757.478 105.086 760.755 103.285C766.12 100.359 771.999 98.1404 778.103 97.8349C784.208 97.5295 790.569 99.2657 795.083 103.397C798.006 106.082 800.03 109.603 801.926 113.092C803.741 116.436 805.54 119.94 805.653 123.751C805.765 127.561 804.159 131.178 802.873 134.763C799.886 143.011 798.392 151.724 796.914 160.373C796.753 161.274 796.609 162.222 796.834 163.107C797.026 163.862 797.492 164.505 797.958 165.132C804.705 173.83 816.688 177.769 822.037 187.399C822.712 188.604 823.274 190.035 822.825 191.353C822.568 192.125 821.989 192.752 821.427 193.331C818.038 196.932 814.359 200.694 809.556 201.868C804.335 203.138 798.938 201.064 794.071 198.797C785.798 194.939 777.862 190.437 769.943 185.919C757.654 178.926 745.366 171.933 733.077 164.955C732.081 164.393 731.069 163.798 730.41 162.881C729.543 161.66 729.43 160.068 729.35 158.573C729.077 153.268 728.9 147.592 731.679 143.059C735.438 136.95 745.912 135.567 748.498 129.265C749.462 126.902 748.353 124.008 748.337 121.564C748.321 117.465 749.43 113.445 751.984 110.182V110.15Z" fill="#88A2AC"/>
<path d="M1085.25 128.06C1085.25 127.144 1085.25 126.179 1085.67 125.359C1086.59 123.575 1088.96 123.205 1090.49 121.919C1091.81 120.794 1092.4 119.073 1092.95 117.417C1094.18 113.655 1095.4 109.877 1096.64 106.115C1097.85 102.402 1099.12 98.6076 1101.51 95.537C1105.06 91.0033 1110.81 88.5596 1116.54 88.0613C1122.28 87.5629 1128.03 88.849 1133.51 90.6496C1139.31 92.5628 1144.98 95.119 1149.65 99.0095C1154.33 102.9 1158.01 108.286 1158.98 114.299C1159.16 115.36 1159.24 116.469 1158.82 117.466C1158.49 118.269 1157.83 118.896 1157.19 119.491C1152.66 123.543 1146.92 126.694 1144.3 132.176C1142.94 135.038 1142.58 138.269 1141.75 141.34C1140.67 145.278 1138.79 148.992 1136.24 152.191C1135.36 153.301 1134.34 154.49 1134.41 155.905C1134.46 156.854 1134.99 157.69 1135.55 158.445C1142.41 167.625 1155.31 170.326 1162.87 178.943C1168.09 184.892 1164.11 197.592 1163.77 205.02C1163.26 215.839 1162.87 226.659 1162.63 237.479C1162.15 259.552 1162.28 281.641 1163.29 303.699C1163.85 315.885 1164.67 328.135 1163.48 340.289C1162.29 352.444 1158.97 364.63 1151.93 374.613C1144.43 385.24 1131.72 393.134 1118.84 391.365C1113.22 390.594 1107.97 388.086 1103.16 385.047C1087.73 375.321 1076.34 360.369 1066.44 345.032C1062.57 339.019 1058.81 332.814 1056.79 325.949C1055.12 320.29 1054.65 314.358 1054.33 308.457C1052.56 276.915 1054.2 245.195 1059.2 214.007C1059.9 209.602 1060.68 205.1 1060.03 200.679C1058.97 193.444 1054.51 187.158 1054.04 179.779C1053.58 172.4 1057.61 165.969 1061.96 160.133C1065.91 154.828 1070.65 149.426 1077.11 148.011C1081.27 147.111 1084.56 147.593 1085.37 143.237C1086.22 138.591 1085.27 132.803 1085.25 128.06Z" fill="#D5A654"/>
<path d="M989.304 174.763C986.943 172.288 985.384 169.185 983.714 166.211C977.995 156.082 970.542 147.079 963.12 138.125C959.779 134.105 956.406 130.038 952.309 126.79C948.213 123.543 943.249 121.147 938.029 120.955C935.426 120.858 932.824 121.308 930.238 121.147C926.784 120.938 923.491 119.668 920.262 118.414C920.487 103.961 921.162 88.5277 921.387 74.0747C921.403 72.8046 921.419 71.5024 921.081 70.2806C920.68 68.8015 919.78 67.4993 918.736 66.3579C916.294 63.657 913.114 61.7599 909.901 60.0718C904.696 57.3227 899.058 54.9594 893.179 55.1363C884.89 55.3935 877.613 60.6345 871.541 66.3096C867.172 70.3931 862.818 75.5698 863.268 81.5504C863.622 86.2287 866.867 90.2319 867.702 94.8459C868.2 97.6111 867.798 100.473 868.184 103.254C868.842 108.093 872.039 112.498 876.408 114.669C876.649 119.202 875.685 123.784 873.613 127.819C872.987 129.041 872.2 130.279 870.979 130.89C870.256 131.244 869.437 131.372 868.73 131.742C866.32 133.012 866.176 136.292 865.646 138.96C864.553 144.523 860.602 149.105 856.232 152.738C853.63 154.909 850.755 156.918 849.036 159.844C848.072 161.468 847.526 163.285 846.964 165.069C845.518 169.812 844.056 174.603 843.719 179.538C843.446 183.702 846.803 186.387 849.004 189.763C851.815 194.088 854.289 198.653 856.393 203.38C858.144 207.303 859.67 211.435 862.465 214.698C867.83 221 876.89 222.897 885.131 222.222C893.372 221.547 901.275 218.717 909.387 217.158C920.535 215.004 931.989 215.261 943.33 214.602C954.671 213.942 966.269 212.303 976.196 206.788C980.228 204.538 983.971 201.66 988.356 200.213C994.251 198.268 999.665 196.965 1000.95 189.779C1002.24 182.593 993.416 179.024 989.32 174.747L989.304 174.763Z" fill="#B2CDD6"/>
<path d="M734.56 85.2157C730.287 85.2157 725.95 86.3893 721.822 89.0742C718.047 91.5178 715.364 95.3602 713.453 99.4437C711.734 103.141 710.561 107.273 711.364 111.276C712.2 115.44 715.091 119.009 715.782 123.205C717.099 131.276 709.758 138.398 702.031 141.115C694.305 143.832 685.855 143.783 678.113 146.42C668.362 149.748 660.571 157.047 653.102 164.137C647.351 169.603 641.504 175.213 637.825 182.255C634.034 189.522 632.829 197.817 631.351 205.872C629.215 217.415 626.388 228.99 626.709 240.726C626.87 246.417 628.042 252.591 632.315 256.353C637.857 261.24 641.022 268.668 647.142 272.799C652.684 276.545 659.431 278.089 666.081 278.667C676.362 279.552 686.691 278.314 696.923 277.06C709.324 275.372 721.806 273.732 734.271 272.606C738.962 272.188 742.657 270.516 747.203 269.68C751.138 268.957 755.234 269.15 758.784 266.996C761.917 265.082 763.877 261.771 765.692 258.571C770.575 250.035 775.523 241.385 778.189 231.916C779.892 225.871 780.647 219.585 781.225 213.331C782.398 200.438 782.816 187.464 782.462 174.506C782.27 167.127 781.161 161.773 775.153 157.384C770.222 153.767 762.094 150.809 759.491 144.925C758.351 142.336 758.431 139.394 758.527 136.565C758.881 126.694 759.25 116.839 759.604 106.968C759.668 105.087 759.732 103.157 759.186 101.341C758.463 98.9774 756.776 97.0643 755.122 95.2155C749.628 89.1063 742.207 85.2157 734.528 85.1836L734.56 85.2157Z" fill="#D5A654"/>
<path d="M695.976 148.478C695.799 152.883 695.622 157.401 694 161.516C692.345 165.744 689.293 169.265 686.305 172.674C681.518 178.156 676.571 183.541 672.121 189.297C660.7 204.071 657.182 224.698 663.334 242.35C666.419 251.192 671.704 259.134 677.647 266.369C679.944 269.166 682.466 272.992 680.523 276.047C679.96 276.947 679.077 277.59 678.177 278.137C671.125 282.478 662.274 282.188 654.017 281.754C649.905 281.545 645.664 281.288 641.954 279.487C638.436 277.783 636.476 274.182 632.813 272.8C629.585 273.989 625.906 273.121 622.966 271.353C620.027 269.584 617.665 267.012 615.304 264.52C610.533 259.488 605.569 254.649 600.429 250.003C596.269 246.241 591.915 242.543 588.847 237.849C585.811 233.203 584.157 227.736 580.847 223.267C576.317 217.142 569.683 212.303 562.133 213.235C559.515 213.557 557.876 210.566 556.993 208.091C551.804 193.509 546.551 178.558 546.584 163.076C546.6 155.713 548.078 147.867 553.234 142.61C558.503 137.24 566.968 135.263 570.84 128.8C572.43 126.131 573.024 122.996 573.988 120.038C575.45 115.537 577.844 111.276 578.261 106.566C579 98.1417 573.346 89.2995 576.88 81.6309C578.502 78.1101 581.875 75.6182 585.538 74.3642C589.201 73.1102 593.152 72.9494 597.024 73.0941C595.385 72.2742 597.554 71.2131 599.064 70.1681C600.574 69.1232 602.614 68.1103 602.614 66.2776C598.116 64.1715 593.634 62.0494 589.136 59.9433C588.172 59.4932 587.176 59.0109 586.486 58.207C584.622 56.0206 585.779 52.6605 587.305 50.233C591.514 43.545 599.192 38.0629 606.903 39.7831C615.561 41.7123 621.681 48.979 629.97 52.1461C634.87 54.011 638.388 58.2553 641.697 62.3388C646.805 68.6409 651.897 74.9269 657.005 81.2289C659.527 84.3318 662.081 87.4828 665.278 89.8943C669.31 92.9328 674.193 94.6691 678.242 97.6915C682.884 101.148 687.558 106.293 688.892 111.919C692.474 112.45 694.161 116.582 694.851 120.135C696.667 129.443 696.313 139.025 695.944 148.494L695.976 148.478ZM649.809 131.019C649.022 124.588 647.994 118.189 646.741 111.823C644.476 112.546 642.998 114.636 641.263 116.26C639.271 118.141 636.797 119.492 634.147 120.167C633.809 120.247 633.456 120.344 633.231 120.601C633.006 120.858 632.958 121.212 632.926 121.549C632.508 126.405 633.038 127.675 637.327 128.704C641.391 129.684 645.536 131.485 649.793 131.019H649.809Z" fill="#A3C3CE"/>
<path d="M444.595 107.707C444.097 105.81 443.615 103.848 443.984 101.919C444.306 100.263 445.205 98.7842 446.185 97.4177C453.125 87.6591 464.482 81.1802 476.401 80.1673C488.32 79.1545 500.609 83.6078 509.106 92.0481C510.938 93.8647 512.624 95.9065 513.604 98.3019C514.841 101.324 514.841 104.684 514.632 107.932C514.102 115.793 512.335 123.575 509.412 130.906C520.174 133.928 532.447 127.98 542.551 132.754C548.479 135.552 552.221 141.436 555.659 147.031C557.024 149.249 558.39 151.468 559.306 153.895C560.43 156.853 560.88 160.037 561.426 163.172C563.675 176.194 566.438 190.84 571.996 202.801C577.554 214.762 585.04 225.967 585.891 239.247C586.1 242.446 585.859 245.774 584.397 248.62C583.032 251.304 580.702 253.362 578.309 255.195C566.004 264.616 550.776 269.825 535.355 271.449C519.933 273.072 504.303 271.256 489.22 267.671C479.421 265.339 469.574 262.14 461.654 255.918C452.819 248.973 447.117 238.845 439.246 230.823C432.804 224.247 424.644 218.701 421.351 210.1C419.551 205.373 419.423 200.18 419.712 195.132C420.306 184.329 422.877 173.123 430.025 165.02C432.9 161.757 436.45 159.088 439.197 155.712C441.992 152.288 443.872 148.204 446.731 144.828C449.237 141.854 453.912 139.105 453.992 134.764C454.072 130.825 450.603 125.874 449.237 122.256C447.438 117.498 445.896 112.642 444.579 107.723L444.595 107.707Z" fill="#B2CDD6"/>
<path d="M397.609 110.151C395.312 107.209 392.115 105.087 388.838 103.286C383.473 100.36 377.594 98.1413 371.489 97.8359C365.385 97.5304 359.024 99.2667 354.51 103.398C351.587 106.083 349.563 109.604 347.667 113.093C345.852 116.437 344.053 119.941 343.94 123.752C343.828 127.562 345.434 131.179 346.719 134.764C349.707 143.012 351.201 151.725 352.679 160.374C352.84 161.275 352.984 162.223 352.759 163.108C352.566 163.863 352.101 164.506 351.635 165.133C344.888 173.831 332.905 177.77 327.555 187.399C326.881 188.605 326.318 190.036 326.768 191.354C327.025 192.126 327.603 192.753 328.166 193.332C331.555 196.933 335.234 200.695 340.037 201.869C345.257 203.139 350.655 201.065 355.522 198.798C363.795 194.94 371.73 190.438 379.65 185.92C391.939 178.927 404.227 171.934 416.516 164.956C417.512 164.394 418.524 163.799 419.183 162.882C420.05 161.661 420.162 160.069 420.243 158.574C420.516 153.269 420.693 147.593 417.914 143.06C414.155 136.951 403.681 135.568 401.095 129.266C400.131 126.903 401.239 124.009 401.255 121.565C401.272 117.466 400.163 113.446 397.609 110.183V110.151Z" fill="#D5A654"/>
<path d="M93.6194 128.06C93.6194 127.144 93.6194 126.179 93.2017 125.359C92.2861 123.575 89.9087 123.205 88.3826 121.919C87.0654 120.794 86.4711 119.073 85.9249 117.417C84.688 113.655 83.4672 109.877 82.2303 106.115C81.0255 102.402 79.7565 98.6076 77.363 95.537C73.8129 91.0033 68.0621 88.5596 62.3273 88.0613C56.5926 87.5629 50.8418 88.849 45.3641 90.6496C39.5651 92.5628 33.8947 95.119 29.2201 99.0095C24.5456 102.9 20.867 108.286 19.8871 114.299C19.7104 115.36 19.6301 116.469 20.0477 117.466C20.3851 118.269 21.0437 118.896 21.6863 119.491C26.2162 123.543 31.9509 126.694 34.5693 132.176C35.9347 135.038 36.2881 138.269 37.1234 141.34C38.1997 145.278 40.0791 148.992 42.6333 152.191C43.5168 153.301 44.5288 154.49 44.4645 155.905C44.4164 156.854 43.8863 157.69 43.324 158.445C36.4648 167.625 23.5657 170.326 15.9997 178.943C10.779 184.892 14.7628 197.592 15.1001 205.02C15.6142 215.839 15.9997 226.659 16.2407 237.479C16.7226 259.552 16.5941 281.641 15.582 303.699C15.0198 315.885 14.2006 328.135 15.3893 340.289C16.578 352.444 19.9032 364.63 26.9391 374.613C34.4408 385.24 47.1472 393.134 60.0303 391.365C65.6525 390.594 70.9054 388.086 75.7084 385.047C91.1456 375.321 102.535 360.369 112.43 345.032C116.301 339.019 120.06 332.814 122.084 325.949C123.755 320.29 124.221 314.358 124.542 308.457C126.309 276.915 124.671 245.195 119.675 214.007C118.968 209.602 118.197 205.1 118.839 200.679C119.9 193.444 124.365 187.158 124.831 179.779C125.297 172.4 121.265 165.969 116.912 160.133C112.96 154.828 108.221 149.426 101.764 148.011C97.6032 147.111 94.3101 147.593 93.507 143.237C92.6556 138.591 93.6033 132.803 93.6194 128.06Z" fill="#C2D7DE"/>
<path d="M200.036 193.122C202.107 190.398 203.309 187.141 204.638 183.999C209.192 173.296 215.596 163.518 221.972 153.792C224.845 149.426 227.744 145.007 231.452 141.324C235.161 137.64 239.827 134.706 244.994 133.932C247.569 133.546 250.205 133.703 252.757 133.255C256.166 132.663 259.297 131.033 262.366 129.427C260.531 115.089 258.14 99.8272 256.306 85.4894C256.148 84.229 255.987 82.9367 256.186 81.6849C256.42 80.1703 257.169 78.7759 258.08 77.5251C260.205 74.5689 263.154 72.3291 266.159 70.2934C271.025 66.9813 276.364 64.0042 282.227 63.5245C290.493 62.8562 298.308 67.2533 304.975 72.2162C309.773 75.7872 314.676 80.4463 314.895 86.4398C315.066 91.1283 312.287 95.4682 311.972 100.147C311.785 102.95 312.503 105.749 312.43 108.556C312.315 113.438 309.629 118.172 305.529 120.816C305.795 125.348 307.264 129.794 309.773 133.573C310.531 134.718 311.452 135.86 312.733 136.331C313.491 136.602 314.319 136.639 315.063 136.927C317.599 137.921 318.108 141.164 318.933 143.757C320.638 149.163 325.076 153.276 329.823 156.4C332.651 158.266 335.733 159.943 337.767 162.659C338.906 164.165 339.651 165.91 340.409 167.62C342.374 172.172 344.361 176.77 345.246 181.638C345.982 185.745 342.945 188.787 341.134 192.388C338.822 196.999 336.873 201.812 335.309 206.744C334.006 210.837 332.95 215.113 330.536 218.668C325.907 225.529 317.115 228.424 308.85 228.672C300.586 228.919 292.416 226.989 284.181 226.343C272.862 225.445 261.509 226.977 250.165 227.586C238.821 228.196 227.113 227.859 216.632 223.486C212.375 221.698 208.334 219.256 203.815 218.307C197.74 217.031 192.215 216.34 190.136 209.342C188.058 202.344 196.424 197.814 200.018 193.107L200.036 193.122Z" fill="#88A2AC"/>
</g>
<defs>
<clipPath id="clip0_453_24353">
<rect width="1512" height="323" fill="white"/>
</clipPath>
</defs>
</svg>
