<svg width="360" height="682" viewBox="0 0 360 682" fill="none" xmlns="http://www.w3.org/2000/svg">
<path opacity="0.5" d="M324 681.001V641.001M324 681.001C319.53 681.001 315.129 680.708 310.814 680.14M324 681.001H334M224 581.001H264M224 581.001V571.001M224 581.001C224 585.471 224.293 589.873 224.862 594.188M324 641.001C321.322 641.001 318.685 640.826 316.1 640.486M324 641.001H334M264 581.001V571.001M264 581.001C264 583.724 264.181 586.404 264.532 589.03M224 571.001V561.001M224 571.001H264M224 561.001V551.001M224 561.001H264M224 551.001V541.001M224 551.001H264M224 541.001V180.998M224 541.001H264M224 541.001V531.001M224 180.998V170.998M224 180.998H264M224 170.998V160.998M224 170.998H264M224 160.998V150.998M224 160.998H264M264 571.001V561.001M264 561.001V551.001M264 551.001V541.001M264 541.001V180.998M264 541.001V531.001M264 180.998V170.998M264 170.998V160.998M264 160.998V150.998M224.862 594.188C225.425 598.466 226.259 602.659 227.346 606.749M224.862 594.188L264.532 589.03M227.346 606.749C228.497 611.082 229.932 615.3 231.63 619.381M227.346 606.749L266.024 596.513M231.63 619.381C233.336 623.483 235.308 627.447 237.524 631.252M231.63 619.381L268.662 604.231M237.524 631.252C239.685 634.963 242.077 638.521 244.682 641.908M237.524 631.252L272.28 611.434M244.682 641.908C247.384 645.421 250.314 648.75 253.449 651.872M244.682 641.908L276.564 617.746M253.449 651.872C256.564 654.972 259.882 657.869 263.381 660.54M253.449 651.872L281.911 623.762M263.381 660.54C266.738 663.102 270.262 665.457 273.934 667.585M263.381 660.54L287.925 628.949M273.934 667.585C277.711 669.774 281.645 671.722 285.714 673.41M273.934 667.585L294.125 633.046M285.714 673.41C289.773 675.094 293.967 676.518 298.275 677.661M285.714 673.41L301.161 636.501M298.275 677.661C302.358 678.745 306.544 679.577 310.814 680.14M298.275 677.661L308.751 639.046M310.814 680.14L316.1 640.486M316.1 640.486C313.599 640.157 311.146 639.674 308.751 639.046M308.751 639.046C306.148 638.364 303.614 637.512 301.161 636.501M301.161 636.501C298.731 635.5 296.382 634.345 294.125 633.046M294.125 633.046C291.97 631.807 289.9 630.438 287.925 628.949M287.925 628.949C285.807 627.353 283.797 625.619 281.911 623.762M281.911 623.762C279.998 621.879 278.211 619.87 276.564 617.746M276.564 617.746C275.008 615.739 273.576 613.631 272.28 611.434M272.28 611.434C270.919 609.127 269.709 606.722 268.662 604.231M268.662 604.231C267.615 601.739 266.731 599.162 266.024 596.513M266.024 596.513C265.374 594.076 264.873 591.578 264.532 589.03M354 641.001H364V681.001H354M354 641.001V681.001M354 641.001H344M354 681.001H344M344 641.001V681.001M344 641.001H334M344 681.001H334M334 641.001V681.001M164 1V41M164 1C168.47 1 172.871 1.29325 177.186 1.86157M164 1H14M264 101V111M264 101H224M264 101C264 96.5298 263.707 92.1281 263.138 87.8131M164 41C166.678 41 169.315 41.1754 171.9 41.5154M164 41H14M224 101V111M224 101C224 98.2777 223.819 95.5977 223.468 92.9714M264 111V121M264 111H224M264 121V131M264 121H224M264 131V141M264 131H224M264 141V151M264 141H224M264 151V161M264 151H224M264 161V171M264 161H224M264 171V181M264 171H224M264 181V191M264 181H224M224 111V121M224 121V131M224 131V141M224 141V151M224 151V161M224 161V171M224 171V181M224 181V191M263.138 87.8131C262.575 83.5351 261.741 79.3424 260.654 75.2526M263.138 87.8131L223.468 92.9714M260.654 75.2526C259.503 70.9192 258.068 66.7016 256.37 62.6205M260.654 75.2526L221.976 85.4885M256.37 62.6205C254.664 58.5181 252.692 54.5537 250.476 50.749M256.37 62.6205L219.338 77.7705M250.476 50.749C248.315 47.0387 245.923 43.48 243.318 40.093M250.476 50.749L215.72 70.5675M243.318 40.093C240.616 36.5798 237.686 33.2513 234.551 30.1295M243.318 40.093L211.436 64.2552M234.551 30.1295C231.436 27.0288 228.118 24.1322 224.619 21.4612M234.551 30.1295L206.089 58.2393M224.619 21.4612C221.262 18.8988 217.738 16.5441 214.066 14.4163M224.619 21.4612L200.075 53.0522M214.066 14.4163C210.289 12.2276 206.355 10.2789 202.286 8.59119M214.066 14.4163L193.875 48.9551M202.286 8.59119C198.227 6.9075 194.033 5.48347 189.725 4.33984M202.286 8.59119L186.839 45.4998M189.725 4.33984C185.642 3.25604 181.456 2.42408 177.186 1.86157M189.725 4.33984L179.249 42.9548M177.186 1.86157L171.9 41.5154M171.9 41.5154C174.401 41.8444 176.854 42.3275 179.249 42.9548M179.249 42.9548C181.852 43.6369 184.386 44.4894 186.839 45.4998M186.839 45.4998C189.269 46.5008 191.618 47.6567 193.875 48.9551M193.875 48.9551C196.03 50.1945 198.1 51.5638 200.075 53.0522M200.075 53.0522C202.193 54.6485 204.203 56.3819 206.089 58.2393M206.089 58.2393C208.002 60.1218 209.789 62.1318 211.436 64.2552M211.436 64.2552C212.992 66.2618 214.424 68.3697 215.72 70.5675M215.72 70.5675C217.081 72.874 218.291 75.2795 219.338 77.7705M219.338 77.7705C220.385 80.2621 221.269 82.8392 221.976 85.4885M221.976 85.4885C222.626 87.9252 223.127 90.423 223.468 92.9714M14 1V41M14 1L-6 1.00018V41.0002L14 41M24 1V41M34 1V41M44 1V41M54 1V41M64 1V41M74 1V41M84 1V41M94 1V41M104 1V41M114 1V41M124 1V41M134 1V41M144 1V41M154 1V41M4 1.00018V41.0002M224 530.999V540.999H264V530.999M224 530.999V520.999M224 530.999H264M224 520.999V510.999M224 520.999H264M264 530.999V520.999M264 520.999V510.999M264 471.001V481.001M264 471.001H224M264 471.001V461.001M264 481.001V491.001M264 481.001H224M264 491.001V501.001M264 491.001H224M264 501.001V511.001M264 501.001H224M264 511.001V521.001M264 511.001H224M264 521.001V531.001M264 521.001H224M264 531.001H224M224 471.001V481.001M224 471.001V461.001M224 481.001V491.001M224 491.001V501.001M224 501.001V511.001M224 511.001V521.001M224 521.001V531.001M224 460.999V470.999H264V460.999M224 460.999V450.999M224 460.999H264M224 450.999V440.999M224 450.999H264M224 440.999V430.999M224 440.999H264M264 460.999V450.999M264 450.999V440.999M264 440.999V430.999M264 310.998V320.998M264 310.998H224M264 310.998V300.998M264 320.998V330.998M264 320.998H224M264 330.998V340.998M264 330.998H224M264 340.998V441.001M264 340.998H224M264 441.001V451.001M264 441.001H224M264 451.001V461.001M264 451.001H224M264 461.001H224M224 310.998V320.998M224 310.998V300.998M224 320.998V330.998M224 330.998V340.998M224 340.998V441.001M224 441.001V451.001M224 451.001V461.001M264 191V290.998M264 191H224M264 191V200.999M264 290.998V300.998M264 290.998H224M264 290.998V280.998M264 300.998H224M224 191V290.998M224 191V200.999M224 290.998V300.998M224 290.998V280.998M224 220.997V230.997H264V220.997M224 220.997V210.997M224 220.997H264M224 210.997V200.997M224 210.997H264M264 220.997V210.997M264 210.997V200.997M264 200.999V210.999M264 200.999H224M264 210.999V220.999M264 210.999H224M264 220.999V230.999M264 220.999H224M264 230.999V240.999M264 230.999H224M224 200.999V210.999M224 210.999V220.999M224 220.999V230.999M224 230.999V240.999M264 240.999H224M264 240.999V250.998M224 240.999V250.998M224 270.996V280.996H264V270.996M224 270.996V260.996M224 270.996H264M224 260.996V250.996M224 260.996H264M264 270.996V260.996M264 260.996V250.996M264 250.998V260.998M264 250.998H224M264 260.998V270.998M264 260.998H224M264 270.998V280.998M264 270.998H224M264 280.998H224M224 250.998V260.998M224 260.998V270.998M224 270.998V280.998M264 410.999V420.999M264 410.999H224M264 410.999V400.999M264 420.999V430.999M264 420.999H224M264 430.999H224M224 410.999V420.999M224 410.999V400.999M224 420.999V430.999M264 390.999V400.999M264 390.999H224M264 390.999V380.999M264 400.999H224M224 390.999V400.999M224 390.999V380.999M224 370.997V380.997H264V370.997M224 370.997V360.997M224 370.997H264M224 360.997V350.997M224 360.997H264M264 370.997V360.997M264 360.997V350.997M264 350.999V341H224V350.999M264 350.999V360.999M264 350.999H224M264 360.999V370.999M264 360.999H224M264 370.999V380.999M264 370.999H224M264 380.999H224M224 350.999V360.999M224 360.999V370.999M224 370.999V380.999" stroke="#A3C3CE" stroke-linecap="round" stroke-linejoin="round"/>
<path opacity="0.5" d="M154 242.998H164M154 242.998V282.998M154 242.998C149.53 242.998 145.129 243.291 140.814 243.86M54 342.998V372.998M54 342.998H94M54 342.998C54 338.528 54.2933 334.126 54.8618 329.811M54 342.998V472.998M54 342.998V352.998M154 282.998H164M154 282.998C151.322 282.998 148.685 283.173 146.1 283.513M94 342.998V372.998M94 342.998C94 340.276 94.1813 337.596 94.5325 334.969M94 342.998V472.998M94 342.998V352.998M94 513.5V503.5M94 513.5H54M94 513.5C94 517.97 93.7067 522.372 93.1382 526.687M54 513.5V503.5M54 513.5C54 516.223 53.8187 518.903 53.4675 521.529M54 372.998V382.998M54 372.998H94M54 372.998V362.998M54 382.998V463M54 382.998H94M54 382.998V392.998M54 463V473M54 463H94M54 463V453M54 473V483M54 473H94M54 483V493M54 483H94M54 493V483.5M54 493H94M54 483.5V493.5M54 483.5H94M54 493.5V503.5M54 493.5H94M54 503.5H94M94 372.998V382.998M94 372.998V362.998M94 382.998V463M94 382.998V392.998M94 463V473M94 463V453M94 473V483M94 483V493M94 493V483.5M94 483.5V493.5M94 493.5V503.5M164 242.998V282.998M164 242.998H174M164 282.998H174M54.8618 329.811C55.4253 325.533 56.2592 321.34 57.3459 317.251M54.8618 329.811L94.5325 334.969M57.3459 317.251C58.4972 312.917 59.9323 308.7 61.6299 304.618M57.3459 317.251L96.0243 327.487M61.6299 304.618C63.3364 300.516 65.3082 296.552 67.5239 292.747M61.6299 304.618L98.6623 319.769M67.5239 292.747C69.6846 289.037 72.0773 285.478 74.682 282.091M67.5239 292.747L102.28 312.566M74.682 282.091C77.3837 278.578 80.3136 275.249 83.4495 272.128M74.682 282.091L106.564 306.253M83.4495 272.128C86.5641 269.027 89.882 266.13 93.3813 263.459M83.4495 272.128L111.911 300.237M93.3813 263.459C96.7383 260.897 100.262 258.542 103.934 256.414M93.3813 263.459L117.925 295.05M103.934 256.414C107.711 254.226 111.645 252.277 115.714 250.589M103.934 256.414L124.124 290.953M115.714 250.589C119.773 248.906 123.967 247.482 128.275 246.338M115.714 250.589L131.161 287.498M128.275 246.338C132.358 245.254 136.544 244.422 140.814 243.86M128.275 246.338L138.751 284.953M140.814 243.86L146.1 283.513M146.1 283.513C143.599 283.842 141.146 284.326 138.751 284.953M138.751 284.953C136.148 285.635 133.614 286.487 131.161 287.498M131.161 287.498C128.731 288.499 126.382 289.655 124.124 290.953M124.124 290.953C121.97 292.193 119.9 293.562 117.925 295.05M117.925 295.05C115.807 296.647 113.797 298.38 111.911 300.237M111.911 300.237C109.998 302.12 108.211 304.13 106.564 306.253M106.564 306.253C105.008 308.26 103.576 310.368 102.28 312.566M102.28 312.566C100.919 314.872 99.7092 317.278 98.6623 319.769M98.6623 319.769C97.6151 322.26 96.7313 324.837 96.0243 327.487M96.0243 327.487C95.374 329.923 94.8733 332.421 94.5325 334.969M93.1382 526.687C92.5747 530.965 91.7408 535.158 90.6541 539.248M93.1382 526.687L53.4675 521.529M90.6541 539.248C89.5028 543.581 88.0677 547.799 86.3701 551.88M90.6541 539.248L51.9757 529.012M86.3701 551.88C84.6636 555.982 82.6918 559.946 80.4761 563.751M86.3701 551.88L49.3377 536.73M80.4761 563.751C78.3154 567.462 75.9227 571.02 73.318 574.407M80.4761 563.751L45.7205 543.933M73.318 574.407C70.6163 577.92 67.6864 581.249 64.5505 584.371M73.318 574.407L41.4359 550.245M64.5505 584.371C61.4359 587.471 58.118 590.368 54.6187 593.039M64.5505 584.371L36.0894 556.261M54.6187 593.039C51.2617 595.601 47.7376 597.956 44.0657 600.084M54.6187 593.039L30.0752 561.448M44.0657 600.084C40.2887 602.273 36.3553 604.221 32.2863 605.909M44.0657 600.084L23.8755 565.545M32.2863 605.909C28.2271 607.593 24.033 609.017 19.7246 610.16M32.2863 605.909L16.839 569M19.7246 610.16C15.6416 611.244 11.4561 612.076 7.18567 612.639M19.7246 610.16L9.24854 571.545M7.18567 612.639C2.87106 613.207 -1.53021 613.5 -6 613.5V573.5C-3.32209 573.5 -0.685188 573.325 1.8999 572.985M7.18567 612.639L1.8999 572.985M1.8999 572.985C4.40125 572.656 6.8541 572.173 9.24854 571.545M9.24854 571.545C11.8519 570.863 14.3863 570.011 16.839 569M16.839 569C19.2687 567.999 21.6184 566.844 23.8755 565.545M23.8755 565.545C26.0299 564.306 28.1 562.936 30.0752 561.448M30.0752 561.448C32.1935 559.852 34.2026 558.118 36.0894 556.261M36.0894 556.261C38.0018 554.378 39.7886 552.368 41.4359 550.245M41.4359 550.245C42.9924 548.238 44.4245 546.13 45.7205 543.933M45.7205 543.933C47.0806 541.626 48.2908 539.221 49.3377 536.73M49.3377 536.73C50.3849 534.238 51.2687 531.661 51.9757 529.012M51.9757 529.012C52.626 526.575 53.1267 524.077 53.4675 521.529M54 432.998V442.998M54 432.998H94M54 432.998V422.998M54 442.998V452.998M54 442.998H94M54 452.998V462.998M54 452.998H94M54 462.998V472.998M54 462.998H94M54 472.998H94M54 352.998V362.998M54 352.998H94M54 362.998H94M94 432.998V442.998M94 432.998V422.998M94 442.998V452.998M94 452.998V462.998M94 462.998V472.998M94 352.998V362.998M54 392.998V402.998M54 392.998H94M54 402.998V412.998M54 402.998H94M54 412.998V422.998M54 412.998H94M54 422.998H94M94 392.998V402.998M94 402.998V412.998M94 412.998V422.998M174 242.998V282.998M174 242.998H184M174 282.998H184M184 242.998V282.998M184 242.998H194M184 282.998H194M194 242.998V282.998M194 242.998H204M194 282.998H204M204 242.998V282.998M204 242.998H214M204 282.998H214M214 242.998V282.998M214 242.998H224M214 282.998H224M224 242.998V282.998M224 242.998H234M224 282.998H234M234 242.998V282.998M234 242.998H244M234 282.998H244M244 242.998V282.998M244 242.998H254M244 282.998H254M254 242.998V282.998M254 242.998H264M254 282.998H264M264 242.998V282.998M264 242.998H274M264 282.998H274M274 242.998V282.998M274 242.998H284M274 282.998H284M284 242.998V282.998M284 242.998H294M284 282.998H294M294 242.998V282.998M294 242.998H304M294 282.998H304M304 242.998V282.998M304 242.998H314M304 282.998H314M314 242.998V282.998M314 242.998H324M314 282.998H324M324 242.998V282.998M324 242.998H334M324 282.998H334M334 242.998V282.998M334 242.998H344M334 282.998H344M344 242.998V282.998M344 242.998H354M344 282.998H354M354 242.998V282.998M354 242.998H364V282.998H354M54 413V423M54 413H94M54 413V403M54 423H94M54 423V433M94 413V423M94 413V403M94 423V433M54 383V393M54 393V403M54 393H94M54 403H94M94 383V393M94 393V403M54 453H94M54 453V443V433M94 453V443V433M54 433H94" stroke="#D5A654" stroke-linecap="round" stroke-linejoin="round"/>
</svg>
