<svg width="834" height="946" viewBox="0 0 834 946" fill="none" xmlns="http://www.w3.org/2000/svg">
<path opacity="0.5" d="M284 264.998H294M284 264.998V304.998M284 264.998C279.53 264.998 275.129 265.291 270.814 265.86M184 364.998V684.998M184 364.998H224M184 364.998C184 360.528 184.293 356.126 184.862 351.811M184 364.998V374.998M284 304.998H294M284 304.998C281.322 304.998 278.685 305.173 276.1 305.513M224 364.998V684.998M224 364.998C224 362.276 224.181 359.596 224.532 356.969M224 364.998V374.998M124 945H114M124 945V905M124 945C128.47 945 132.871 944.707 137.186 944.139M224 845V835M224 845H184M224 845C224 849.47 223.707 853.872 223.138 858.187M124 905H114M124 905C126.678 905 129.315 904.825 131.9 904.485M184 845V835M184 845C184 847.723 183.819 850.403 183.468 853.029M114 905H104M114 905V945M104 905H94M104 905V945M94 905H84M94 905V945M84 905V945M84 905H-6V945H84M114 945H104M104 945H94M94 945H84M184 684.998V694.998M184 684.998H224M184 684.998V674.998M184 694.998V775M184 694.998H224M184 775V785M184 775H224M184 775V765M184 785V795M184 785H224M184 795V805M184 795H224M184 805V815M184 805H224M184 815V825M184 815H224M184 825V835M184 825H224M184 835H224M224 684.998V694.998M224 684.998V674.998M224 694.998V775M224 775V785M224 775V765M224 785V795M224 795V805M224 805V815M224 815V825M224 825V835M294 264.998V304.998M294 264.998H304M294 304.998H304M184.862 351.811C185.425 347.533 186.259 343.34 187.346 339.251M184.862 351.811L224.532 356.969M187.346 339.251C188.497 334.917 189.932 330.7 191.63 326.618M187.346 339.251L226.024 349.487M191.63 326.618C193.336 322.516 195.308 318.552 197.524 314.747M191.63 326.618L228.662 341.769M197.524 314.747C199.685 311.037 202.077 307.478 204.682 304.091M197.524 314.747L232.28 334.566M204.682 304.091C207.384 300.578 210.314 297.249 213.45 294.128M204.682 304.091L236.564 328.253M213.45 294.128C216.564 291.027 219.882 288.13 223.381 285.459M213.45 294.128L241.911 322.237M223.381 285.459C226.738 282.897 230.262 280.542 233.934 278.414M223.381 285.459L247.925 317.05M233.934 278.414C237.711 276.226 241.645 274.277 245.714 272.589M233.934 278.414L254.124 312.953M245.714 272.589C249.773 270.906 253.967 269.482 258.275 268.338M245.714 272.589L261.161 309.498M258.275 268.338C262.358 267.254 266.544 266.422 270.814 265.86M258.275 268.338L268.751 306.953M270.814 265.86L276.1 305.513M276.1 305.513C273.599 305.842 271.146 306.326 268.751 306.953M268.751 306.953C266.148 307.635 263.614 308.487 261.161 309.498M261.161 309.498C258.731 310.499 256.382 311.655 254.124 312.953M254.124 312.953C251.97 314.193 249.9 315.562 247.925 317.05M247.925 317.05C245.807 318.647 243.797 320.38 241.911 322.237M241.911 322.237C239.998 324.12 238.211 326.13 236.564 328.253M236.564 328.253C235.008 330.26 233.576 332.368 232.28 334.566M232.28 334.566C230.919 336.872 229.709 339.278 228.662 341.769M228.662 341.769C227.615 344.26 226.731 346.837 226.024 349.487M226.024 349.487C225.374 351.923 224.873 354.421 224.532 356.969M223.138 858.187C222.575 862.465 221.741 866.658 220.654 870.748M223.138 858.187L183.468 853.029M220.654 870.748C219.503 875.081 218.068 879.299 216.37 883.38M220.654 870.748L181.976 860.512M216.37 883.38C214.664 887.482 212.692 891.446 210.476 895.251M216.37 883.38L179.338 868.23M210.476 895.251C208.315 898.962 205.923 902.52 203.318 905.907M210.476 895.251L175.72 875.433M203.318 905.907C200.616 909.42 197.686 912.749 194.55 915.871M203.318 905.907L171.436 881.745M194.55 915.871C191.436 918.971 188.118 921.868 184.619 924.539M194.55 915.871L166.089 887.761M184.619 924.539C181.262 927.101 177.738 929.456 174.066 931.584M184.619 924.539L160.075 892.948M174.066 931.584C170.289 933.773 166.355 935.721 162.286 937.409M174.066 931.584L153.876 897.045M162.286 937.409C158.227 939.093 154.033 940.517 149.725 941.66M162.286 937.409L146.839 900.5M149.725 941.66C145.642 942.744 141.456 943.576 137.186 944.139M149.725 941.66L139.249 903.045M137.186 944.139L131.9 904.485M131.9 904.485C134.401 904.156 136.854 903.673 139.249 903.045M139.249 903.045C141.852 902.363 144.386 901.511 146.839 900.5M146.839 900.5C149.269 899.499 151.618 898.344 153.876 897.045M153.876 897.045C156.03 895.806 158.1 894.436 160.075 892.948M160.075 892.948C162.193 891.352 164.203 889.618 166.089 887.761M166.089 887.761C168.002 885.878 169.789 883.868 171.436 881.745M171.436 881.745C172.992 879.738 174.424 877.63 175.72 875.433M175.72 875.433C177.081 873.126 178.291 870.721 179.338 868.23M179.338 868.23C180.385 865.738 181.269 863.161 181.976 860.512M181.976 860.512C182.626 858.075 183.127 855.577 183.468 853.029M74 905V945M64 905V945M54 905V945M44 905V945M34 905V945M24 905V945M14 905V945M4 905V945M184 604.998V614.998M184 604.998H224M184 604.998V594.998M184 614.998V624.998M184 614.998H224M184 624.998V634.998M184 624.998H224M184 634.998V644.998M184 634.998H224M184 644.998V654.998M184 644.998H224M184 654.998V664.998M184 654.998H224M184 664.998V674.998M184 664.998H224M184 674.998H224M224 604.998V614.998M224 604.998V594.998M224 614.998V624.998M224 624.998V634.998M224 634.998V644.998M224 644.998V654.998M224 654.998V664.998M224 664.998V674.998M184 524.998V534.998M184 524.998H224M184 524.998V514.998M184 534.998V544.998M184 534.998H224M184 544.998V554.998M184 544.998H224M184 554.998V564.998M184 554.998H224M184 564.998V574.998M184 564.998H224M184 574.998V584.998M184 574.998H224M184 584.998V594.998M184 584.998H224M184 594.998H224M224 524.998V534.998M224 524.998V514.998M224 534.998V544.998M224 544.998V554.998M224 554.998V564.998M224 564.998V574.998M224 574.998V584.998M224 584.998V594.998M184 444.998V454.998M184 444.998H224M184 444.998V434.998M184 454.998V464.998M184 454.998H224M184 464.998V474.998M184 464.998H224M184 474.998V484.998M184 474.998H224M184 484.998V494.998M184 484.998H224M184 494.998V504.998M184 494.998H224M184 504.998V514.998M184 504.998H224M184 514.998H224M224 444.998V454.998M224 444.998V434.998M224 454.998V464.998M224 464.998V474.998M224 474.998V484.998M224 484.998V494.998M224 494.998V504.998M224 504.998V514.998M184 374.998V384.998M184 374.998H224M184 384.998V394.998M184 384.998H224M184 394.998V404.998M184 394.998H224M184 404.998V414.998M184 404.998H224M184 414.998V424.998M184 414.998H224M184 424.998V434.998M184 424.998H224M184 434.998H224M224 374.998V384.998M224 384.998V394.998M224 394.998V404.998M224 404.998V414.998M224 414.998V424.998M224 424.998V434.998M304 264.998V304.998M304 264.998H314M304 304.998H314M314 264.998V304.998M314 264.998H324M314 304.998H324M324 264.998V304.998M324 264.998H334M324 304.998H334M334 264.998V304.998M334 264.998H344M334 304.998H344M344 264.998V304.998M344 264.998H354M344 304.998H354M354 264.998V304.998M354 264.998H364M354 304.998H364M364 264.998V304.998M364 264.998H374M364 304.998H374M374 264.998V304.998M374 264.998H384M374 304.998H384M384 264.998V304.998M384 264.998H394M384 304.998H394M394 264.998V304.998M394 264.998H404M394 304.998H404M404 264.998V304.998M404 264.998H414M404 304.998H414M414 264.998V304.998M414 264.998H424M414 304.998H424M424 264.998V304.998M424 264.998H434M424 304.998H434M434 264.998V304.998M434 264.998H444M434 304.998H444M444 264.998V304.998M444 264.998H454M444 304.998H454M454 264.998V304.998M454 264.998H464M454 304.998H464M464 264.998V304.998M464 264.998H474M464 304.998H474M474 264.998V304.998M474 264.998H484M474 304.998H484M484 264.998V304.998M484 264.998H494M484 304.998H494M494 264.998V304.998M494 264.998H504M494 304.998H504M504 264.998V304.998M504 264.998H514M504 304.998H514M514 264.998V304.998M514 264.998H524M514 304.998H524M524 264.998V304.998M524 264.998H534M524 304.998H534M534 264.998V304.998M534 264.998H544M534 304.998H544M544 264.998V304.998M544 264.998H554M544 304.998H554M554 264.998V304.998M554 264.998H564M554 304.998H564M564 264.998V304.998M564 264.998H574M564 304.998H574M574 264.998V304.998M574 264.998H584M574 304.998H584M584 264.998V304.998M584 264.998H594M584 304.998H594M594 264.998V304.998M594 264.998H604M594 304.998H604M604 264.998V304.998M604 264.998H614M604 304.998H614M614 264.998V304.998M614 264.998H624M614 304.998H624M624 264.998V304.998M624 264.998H634M624 304.998H634M634 264.998V304.998M634 264.998H644M634 304.998H644M644 264.998V304.998M644 264.998H654M644 304.998H654M654 264.998V304.998M654 264.998H664M654 304.998H664M664 264.998V304.998M664 264.998H674M664 304.998H674M674 264.998V304.998M674 264.998H684M674 304.998H684M684 264.998V304.998M684 264.998H694M684 304.998H694M694 264.998V304.998M694 264.998H704M694 304.998H704M704 264.998V304.998M704 264.998H714M704 304.998H714M714 264.998V304.998M714 264.998H724M714 304.998H724M724 264.998V304.998M724 264.998H734M724 304.998H734M734 264.998V304.998M734 264.998H744M734 304.998H744M744 264.998V304.998M744 264.998H754M744 304.998H754M754 264.998V304.998M754 264.998H764M754 304.998H764M764 264.998V304.998M764 264.998H774M764 304.998H774M774 264.998V304.998M774 264.998H784M774 304.998H784M784 264.998V304.998M784 264.998H794M784 304.998H794M794 264.998V304.998M794 264.998H804M794 304.998H804M804 264.998V304.998M804 264.998H814M804 304.998H814M814 264.998V304.998M814 264.998H824M814 304.998H824M824 264.998V304.998M824 264.998H834M824 304.998H834M834 264.998V304.998M834 264.998H844V304.998H834M184 725V735M184 725H224M184 725V715M184 735H224M184 735V745M224 725V735M224 725V715M224 735V745M184 695V705M184 705V715M184 705H224M184 715H224M224 695V705M224 705V715M184 765H224M184 765V755M224 765V755M184 745V755M184 745H224M184 755H224M224 745V755" stroke="#D5A654" stroke-width="2" stroke-linecap="round" stroke-linejoin="round"/>
<path opacity="0.5" d="M434 590.999V550.999M434 590.999H514M434 590.999C429.53 590.999 425.129 590.706 420.814 590.137M434 590.999H444M334 490.999H374M334 490.999V480.999M334 490.999C334 495.469 334.293 499.871 334.862 504.186M434 550.999H514M434 550.999C431.322 550.999 428.685 550.824 426.1 550.484M434 550.999H444M374 490.999V480.999M374 490.999C374 493.721 374.181 496.401 374.532 499.028M524 550.999H514M524 550.999V590.999M524 550.999C528.47 550.999 532.871 551.292 537.186 551.861M624 650.999V801M624 650.999H584M624 650.999C624 646.529 623.707 642.127 623.138 637.812M624 650.999V661M524 590.999H514M524 590.999C526.678 590.999 529.315 591.174 531.9 591.514M584 650.999V801M584 650.999C584 648.277 583.819 645.597 583.468 642.97M584 650.999V661M684 941H694M684 941V901M684 941C679.53 941 675.129 940.707 670.814 940.138M684 941H724M584 841V831M584 841H624M584 841C584 845.47 584.293 849.872 584.862 854.187M684 901H694M684 901C681.322 901 678.685 900.825 676.1 900.485M624 841V831M624 841C624 843.722 624.181 846.402 624.532 849.029M694 901H704M694 901V941M704 901H714M704 901V941M714 901H724M714 901V941M724 901V941M724 901H844V941H724M694 941H704M704 941H714M714 941H724M624 801V811M624 801V791M624 801H584M624 811V821M624 811H584M624 821V781M624 821V831M624 821H584M624 781V791M624 781H584M624 781V771M624 791H584M624 791V751M624 831H584M584 801V811M584 801V791M584 811V821M584 821V781M584 821V831M584 781V791M584 781V771M584 791V751M514 550.999V590.999M514 550.999H504M514 590.999H504M334 480.999V470.999M334 480.999H374M334 470.999V460.999M334 470.999H374M334 460.999V450.999M334 460.999H374M334 450.999V180.999M334 450.999H374M334 450.999V440.999M334 180.999V170.999M334 180.999H374M334 170.999V160.999M334 170.999H374M334 160.999V150.999M334 160.999H374M374 480.999V470.999M374 470.999V460.999M374 460.999V450.999M374 450.999V180.999M374 450.999V440.999M374 180.999V170.999M374 170.999V160.999M374 160.999V150.999M334.862 504.186C335.425 508.464 336.259 512.657 337.346 516.746M334.862 504.186L374.532 499.028M337.346 516.746C338.497 521.08 339.932 525.298 341.63 529.379M337.346 516.746L376.024 506.51M341.63 529.379C343.336 533.481 345.308 537.445 347.524 541.25M341.63 529.379L378.662 514.229M347.524 541.25C349.685 544.96 352.077 548.519 354.682 551.906M347.524 541.25L382.28 521.431M354.682 551.906C357.384 555.419 360.314 558.748 363.449 561.87M354.682 551.906L386.564 527.744M363.449 561.87C366.564 564.97 369.882 567.867 373.381 570.538M363.449 561.87L391.911 533.76M373.381 570.538C376.738 573.1 380.262 575.455 383.934 577.583M373.381 570.538L397.925 538.947M383.934 577.583C387.711 579.771 391.645 581.72 395.714 583.408M383.934 577.583L404.125 543.044M395.714 583.408C399.773 585.092 403.967 586.516 408.275 587.659M395.714 583.408L411.161 546.499M408.275 587.659C412.358 588.743 416.544 589.575 420.814 590.137M408.275 587.659L418.751 549.044M420.814 590.137L426.1 550.484M426.1 550.484C423.599 550.155 421.146 549.672 418.751 549.044M418.751 549.044C416.148 548.362 413.614 547.51 411.161 546.499M411.161 546.499C408.731 545.498 406.382 544.342 404.125 543.044M404.125 543.044C401.97 541.805 399.9 540.435 397.925 538.947M397.925 538.947C395.807 537.351 393.797 535.617 391.911 533.76M391.911 533.76C389.998 531.877 388.211 529.867 386.564 527.744M386.564 527.744C385.008 525.737 383.576 523.629 382.28 521.431M382.28 521.431C380.919 519.125 379.709 516.72 378.662 514.229M378.662 514.229C377.615 511.737 376.731 509.16 376.024 506.51M376.024 506.51C375.374 504.074 374.873 501.576 374.532 499.028M623.138 637.812C622.575 633.534 621.741 629.341 620.654 625.252M623.138 637.812L583.468 642.97M620.654 625.252C619.503 620.918 618.068 616.701 616.37 612.619M620.654 625.252L581.976 635.488M616.37 612.619C614.664 608.517 612.692 604.553 610.476 600.748M616.37 612.619L579.338 627.77M610.476 600.748C608.315 597.038 605.923 593.479 603.318 590.092M610.476 600.748L575.72 620.567M603.318 590.092C600.616 586.579 597.686 583.25 594.55 580.128M603.318 590.092L571.436 614.254M594.55 580.128C591.436 577.028 588.118 574.131 584.619 571.46M594.55 580.128L566.089 608.238M584.619 571.46C581.262 568.898 577.738 566.543 574.066 564.415M584.619 571.46L560.075 603.051M574.066 564.415C570.289 562.227 566.355 560.278 562.286 558.59M574.066 564.415L553.876 598.954M562.286 558.59C558.227 556.907 554.033 555.482 549.725 554.339M562.286 558.59L546.839 595.499M549.725 554.339C545.642 553.255 541.456 552.423 537.186 551.861M549.725 554.339L539.249 592.954M537.186 551.861L531.9 591.514M531.9 591.514C534.401 591.843 536.854 592.326 539.249 592.954M539.249 592.954C541.852 593.636 544.386 594.488 546.839 595.499M546.839 595.499C549.269 596.5 551.618 597.656 553.876 598.954M553.876 598.954C556.03 600.194 558.1 601.563 560.075 603.051M560.075 603.051C562.193 604.648 564.203 606.381 566.089 608.238M566.089 608.238C568.002 610.121 569.789 612.131 571.436 614.254M571.436 614.254C572.992 616.261 574.424 618.369 575.72 620.567M575.72 620.567C577.081 622.873 578.291 625.279 579.338 627.77M579.338 627.77C580.385 630.261 581.269 632.838 581.976 635.488M581.976 635.488C582.626 637.924 583.127 640.422 583.468 642.97M584.862 854.187C585.425 858.465 586.259 862.658 587.346 866.747M584.862 854.187L624.532 849.029M587.346 866.747C588.497 871.081 589.932 875.298 591.63 879.379M587.346 866.747L626.024 856.511M591.63 879.379C593.336 883.482 595.308 887.446 597.524 891.251M591.63 879.379L628.662 864.229M597.524 891.251C599.685 894.961 602.077 898.52 604.682 901.907M597.524 891.251L632.28 871.432M604.682 901.907C607.384 905.42 610.314 908.749 613.45 911.871M604.682 901.907L636.564 877.745M613.45 911.871C616.564 914.971 619.882 917.868 623.381 920.539M613.45 911.871L641.911 883.761M623.381 920.539C626.738 923.101 630.262 925.456 633.934 927.584M623.381 920.539L647.925 888.948M633.934 927.584C637.711 929.772 641.645 931.721 645.714 933.409M633.934 927.584L654.124 893.045M645.714 933.409C649.773 935.092 653.967 936.517 658.275 937.66M645.714 933.409L661.161 896.5M658.275 937.66C662.358 938.744 666.544 939.576 670.814 940.138M658.275 937.66L668.751 899.045M670.814 940.138L676.1 900.485M676.1 900.485C673.599 900.156 671.146 899.672 668.751 899.045M668.751 899.045C666.148 898.363 663.614 897.511 661.161 896.5M661.161 896.5C658.731 895.499 656.382 894.343 654.124 893.045M654.124 893.045C651.97 891.806 649.9 890.436 647.925 888.948M647.925 888.948C645.807 887.351 643.797 885.618 641.911 883.761M641.911 883.761C639.998 881.878 638.211 879.868 636.564 877.745M636.564 877.745C635.008 875.738 633.576 873.63 632.28 871.432M632.28 871.432C630.919 869.126 629.709 866.72 628.662 864.229M628.662 864.229C627.615 861.738 626.731 859.161 626.024 856.511M626.024 856.511C625.374 854.075 624.873 851.577 624.532 849.029M734 901V941M744 901V941M754 901V941M764 901V941M774 901V941M784 901V941M794 901V941M804 901V941M814 901V941M824 901V941M834 901V941M624 771V761M624 771H584M624 771V661M624 751V761M624 751H584M624 751V741M624 761H584M584 771V761M584 771V661M584 751V761M584 751V741M624 691V701M624 691H584M624 691V681M624 701V711M624 701H584M624 711V721M624 711H584M624 721V731M624 721H584M624 731V741M624 731H584M624 741H584M584 691V701M584 691V681M584 701V711M584 711V721M584 721V731M584 731V741M624 661V671M624 661H584M624 671V681M624 671H584M624 681H584M584 661V671M584 671V681M504 550.999V590.999M504 550.999H494M504 550.999H474M504 550.999H464M504 550.999H484M504 590.999H494M504 590.999H474M504 590.999H464M504 590.999H484M494 550.999V590.999M494 550.999H484M494 550.999H464M494 590.999H484M494 590.999H464M484 550.999V590.999M484 550.999H474M484 590.999H474M474 550.999V590.999M474 550.999H464M474 590.999H464M464 550.999V590.999M464 550.999H454M464 590.999H454M454 550.999V590.999M454 550.999H444M454 590.999H444M444 550.999V590.999M274 1.00098V41.001M274 1.00098C278.47 1.00098 282.871 1.29423 287.186 1.86255M274 1.00098H124M374 101.001V111.001M374 101.001H334M374 101.001C374 96.5308 373.707 92.1291 373.138 87.8141M274 41.001C276.678 41.001 279.315 41.1764 281.9 41.5164M274 41.001H124M334 101.001V111.001M334 101.001C334 98.2786 333.819 95.5986 333.468 92.9724M374 111.001V121.001M374 111.001H334M374 121.001V131.001M374 121.001H334M374 131.001V141.001M374 131.001H334M374 141.001V151.001M374 141.001H334M374 151.001V161.001M374 151.001H334M374 161.001V171.001M374 161.001H334M374 171.001V181.001M374 171.001H334M374 181.001V191.001M374 181.001H334M334 111.001V121.001M334 121.001V131.001M334 131.001V141.001M334 141.001V151.001M334 151.001V161.001M334 161.001V171.001M334 171.001V181.001M334 181.001V191.001M373.138 87.8141C372.575 83.5361 371.741 79.3433 370.654 75.2535M373.138 87.8141L333.468 92.9724M370.654 75.2535C369.503 70.9202 368.068 66.7025 366.37 62.6215M370.654 75.2535L331.976 85.4895M366.37 62.6215C364.664 58.5191 362.692 54.5547 360.476 50.7499M366.37 62.6215L329.338 77.7715M360.476 50.7499C358.315 47.0396 355.923 43.481 353.318 40.094M360.476 50.7499L325.72 70.5685M353.318 40.094C350.616 36.5808 347.686 33.2523 344.551 30.1304M353.318 40.094L321.436 64.2562M344.551 30.1304C341.436 27.0298 338.118 24.1331 334.619 21.4622M344.551 30.1304L316.089 58.2402M334.619 21.4622C331.262 18.8998 327.738 16.5451 324.066 14.4172M334.619 21.4622L310.075 53.0532M324.066 14.4172C320.289 12.2285 316.355 10.2799 312.286 8.59216M324.066 14.4172L303.875 48.9561M312.286 8.59216C308.227 6.90848 304.033 5.48444 299.725 4.34082M312.286 8.59216L296.839 45.5008M299.725 4.34082C295.642 3.25702 291.456 2.42506 287.186 1.86255M299.725 4.34082L289.249 42.9558M287.186 1.86255L281.9 41.5164M281.9 41.5164C284.401 41.8454 286.854 42.3285 289.249 42.9558M289.249 42.9558C291.852 43.6379 294.386 44.4904 296.839 45.5008M296.839 45.5008C299.269 46.5017 301.618 47.6576 303.875 48.9561M303.875 48.9561C306.03 50.1955 308.1 51.5647 310.075 53.0532M310.075 53.0532C312.193 54.6495 314.203 56.3829 316.089 58.2402M316.089 58.2402C318.002 60.1228 319.789 62.1328 321.436 64.2562M321.436 64.2562C322.992 66.2628 324.424 68.3707 325.72 70.5685M325.72 70.5685C327.081 72.875 328.291 75.2805 329.338 77.7715M329.338 77.7715C330.385 80.2631 331.269 82.8402 331.976 85.4895M331.976 85.4895C332.626 87.9262 333.127 90.424 333.468 92.9724M124 1.00098V41.001M124 1.00098L-6 1.00116V41.0012L124 41.001M134 1.00098V41.001M144 1.00098V41.001M154 1.00098V41.001M164 1.00098V41.001M174 1.00098V41.001M184 1.00098V41.001M194 1.00098V41.001M204 1.00098V41.001M214 1.00098V41.001M224 1.00098V41.001M234 1.00098V41.001M244 1.00098V41.001M254 1.00098V41.001M264 1.00098V41.001M4 1.00116V41.0012M14 1.00116V41.0012M24 1.00116V41.0012M34 1.00116V41.0012M44 1.00116V41.0012M54 1.00116V41.0012M64 1.00116V41.0012M74 1.00116V41.0012M84 1.00116V41.0012M94 1.00116V41.0012M104 1.00116V41.0012M114 1.00116V41.0012M334 440.997V450.997H374V440.997M334 440.997V430.997M334 440.997H374M334 430.997V420.997M334 430.997H374M374 440.997V430.997M374 430.997V420.997M374 380.999V390.999M374 380.999H334M374 380.999V370.999M374 390.999V400.999M374 390.999H334M374 400.999V410.999M374 400.999H334M374 410.999V420.999M374 410.999H334M374 420.999V430.999M374 420.999H334M374 430.999V440.999M374 430.999H334M374 440.999H334M334 380.999V390.999M334 380.999V370.999M334 390.999V400.999M334 400.999V410.999M334 410.999V420.999M334 420.999V430.999M334 430.999V440.999M334 370.997V380.997H374V370.997M334 370.997V360.997M334 370.997H374M334 360.997V350.997M334 360.997H374M374 370.997V360.997M374 360.997V350.997M374 310.999V320.999M374 310.999H334M374 310.999V300.999M374 320.999V330.999M374 320.999H334M374 330.999V340.999M374 330.999H334M374 340.999V350.999M374 340.999H334M374 350.999V360.999M374 350.999H334M374 360.999V370.999M374 360.999H334M374 370.999H334M334 310.999V320.999M334 310.999V300.999M334 320.999V330.999M334 330.999V340.999M334 340.999V350.999M334 350.999V360.999M334 360.999V370.999M374 191.001V290.999M374 191.001H334M374 191.001V201M374 290.999V300.999M374 290.999H334M374 290.999V280.999M374 300.999H334M334 191.001V290.999M334 191.001V201M334 290.999V300.999M334 290.999V280.999M334 220.998V230.998H374V220.998M334 220.998V210.998M334 220.998H374M334 210.998V200.998M334 210.998H374M374 220.998V210.998M374 210.998V200.998M374 201V211M374 201H334M374 211V221M374 211H334M374 221V231M374 221H334M374 231V241M374 231H334M334 201V211M334 211V221M334 221V231M334 231V241M374 241H334M374 241V250.999M334 241V250.999M334 270.997V280.997H374V270.997M334 270.997V260.997M334 270.997H374M334 260.997V250.997M334 260.997H374M374 270.997V260.997M374 260.997V250.997M374 250.999V260.999M374 250.999H334M374 260.999V270.999M374 260.999H334M374 270.999V280.999M374 270.999H334M374 280.999H334M334 250.999V260.999M334 260.999V270.999M334 270.999V280.999" stroke="#A3C3CE" stroke-width="2" stroke-linecap="round" stroke-linejoin="round"/>
</svg>
