<svg width="834" height="946" viewBox="0 0 834 946" fill="none" xmlns="http://www.w3.org/2000/svg">
<path opacity="0.5" d="M281 264.998H291M281 264.998V304.998M281 264.998C276.53 264.998 272.129 265.291 267.814 265.86M181 364.998V684.998M181 364.998H221M181 364.998C181 360.528 181.293 356.126 181.862 351.811M181 364.998V374.998M281 304.998H291M281 304.998C278.322 304.998 275.685 305.173 273.1 305.513M221 364.998V684.998M221 364.998C221 362.276 221.181 359.596 221.532 356.969M221 364.998V374.998M121 945H111M121 945V905M121 945C125.47 945 129.871 944.707 134.186 944.139M221 845V835M221 845H181M221 845C221 849.47 220.707 853.872 220.138 858.187M121 905H111M121 905C123.678 905 126.315 904.825 128.9 904.485M181 845V835M181 845C181 847.723 180.819 850.403 180.468 853.029M111 905H101M111 905V945M101 905H91M101 905V945M91 905H81M91 905V945M81 905V945M81 905H-29V945H81M111 945H101M101 945H91M91 945H81M181 684.998V694.998M181 684.998H221M181 684.998V674.998M181 694.998V775M181 694.998H221M181 775V785M181 775H221M181 775V765M181 785V795M181 785H221M181 795V805M181 795H221M181 805V815M181 805H221M181 815V825M181 815H221M181 825V835M181 825H221M181 835H221M221 684.998V694.998M221 684.998V674.998M221 694.998V775M221 775V785M221 775V765M221 785V795M221 795V805M221 805V815M221 815V825M221 825V835M291 264.998V304.998M291 264.998H301M291 304.998H301M181.862 351.811C182.425 347.533 183.259 343.34 184.346 339.251M181.862 351.811L221.532 356.969M184.346 339.251C185.497 334.917 186.932 330.7 188.63 326.618M184.346 339.251L223.024 349.487M188.63 326.618C190.336 322.516 192.308 318.552 194.524 314.747M188.63 326.618L225.662 341.769M194.524 314.747C196.685 311.037 199.077 307.478 201.682 304.091M194.524 314.747L229.28 334.566M201.682 304.091C204.384 300.578 207.314 297.249 210.45 294.128M201.682 304.091L233.564 328.253M210.45 294.128C213.564 291.027 216.882 288.13 220.381 285.459M210.45 294.128L238.911 322.237M220.381 285.459C223.738 282.897 227.262 280.542 230.934 278.414M220.381 285.459L244.925 317.05M230.934 278.414C234.711 276.226 238.645 274.277 242.714 272.589M230.934 278.414L251.124 312.953M242.714 272.589C246.773 270.906 250.967 269.482 255.275 268.338M242.714 272.589L258.161 309.498M255.275 268.338C259.358 267.254 263.544 266.422 267.814 265.86M255.275 268.338L265.751 306.953M267.814 265.86L273.1 305.513M273.1 305.513C270.599 305.842 268.146 306.326 265.751 306.953M265.751 306.953C263.148 307.635 260.614 308.487 258.161 309.498M258.161 309.498C255.731 310.499 253.382 311.655 251.124 312.953M251.124 312.953C248.97 314.193 246.9 315.562 244.925 317.05M244.925 317.05C242.807 318.647 240.797 320.38 238.911 322.237M238.911 322.237C236.998 324.12 235.211 326.13 233.564 328.253M233.564 328.253C232.008 330.26 230.576 332.368 229.28 334.566M229.28 334.566C227.919 336.872 226.709 339.278 225.662 341.769M225.662 341.769C224.615 344.26 223.731 346.837 223.024 349.487M223.024 349.487C222.374 351.923 221.873 354.421 221.532 356.969M220.138 858.187C219.575 862.465 218.741 866.658 217.654 870.748M220.138 858.187L180.468 853.029M217.654 870.748C216.503 875.081 215.068 879.299 213.37 883.38M217.654 870.748L178.976 860.512M213.37 883.38C211.664 887.482 209.692 891.446 207.476 895.251M213.37 883.38L176.338 868.23M207.476 895.251C205.315 898.962 202.923 902.52 200.318 905.907M207.476 895.251L172.72 875.433M200.318 905.907C197.616 909.42 194.686 912.749 191.55 915.871M200.318 905.907L168.436 881.745M191.55 915.871C188.436 918.971 185.118 921.868 181.619 924.539M191.55 915.871L163.089 887.761M181.619 924.539C178.262 927.101 174.738 929.456 171.066 931.584M181.619 924.539L157.075 892.948M171.066 931.584C167.289 933.773 163.355 935.721 159.286 937.409M171.066 931.584L150.876 897.045M159.286 937.409C155.227 939.093 151.033 940.517 146.725 941.66M159.286 937.409L143.839 900.5M146.725 941.66C142.642 942.744 138.456 943.576 134.186 944.139M146.725 941.66L136.249 903.045M134.186 944.139L128.9 904.485M128.9 904.485C131.401 904.156 133.854 903.673 136.249 903.045M136.249 903.045C138.852 902.363 141.386 901.511 143.839 900.5M143.839 900.5C146.269 899.499 148.618 898.344 150.876 897.045M150.876 897.045C153.03 895.806 155.1 894.436 157.075 892.948M157.075 892.948C159.193 891.352 161.203 889.618 163.089 887.761M163.089 887.761C165.002 885.878 166.789 883.868 168.436 881.745M168.436 881.745C169.992 879.738 171.424 877.63 172.72 875.433M172.72 875.433C174.081 873.126 175.291 870.721 176.338 868.23M176.338 868.23C177.385 865.738 178.269 863.161 178.976 860.512M178.976 860.512C179.626 858.075 180.127 855.577 180.468 853.029M71 905V945M61 905V945M51 905V945M41 905V945M31 905V945M21 905V945M11 905V945M1 905V945M-9 905V945M-19 905V945M181 604.998V614.998M181 604.998H221M181 604.998V594.998M181 614.998V624.998M181 614.998H221M181 624.998V634.998M181 624.998H221M181 634.998V644.998M181 634.998H221M181 644.998V654.998M181 644.998H221M181 654.998V664.998M181 654.998H221M181 664.998V674.998M181 664.998H221M181 674.998H221M221 604.998V614.998M221 604.998V594.998M221 614.998V624.998M221 624.998V634.998M221 634.998V644.998M221 644.998V654.998M221 654.998V664.998M221 664.998V674.998M181 524.998V534.998M181 524.998H221M181 524.998V514.998M181 534.998V544.998M181 534.998H221M181 544.998V554.998M181 544.998H221M181 554.998V564.998M181 554.998H221M181 564.998V574.998M181 564.998H221M181 574.998V584.998M181 574.998H221M181 584.998V594.998M181 584.998H221M181 594.998H221M221 524.998V534.998M221 524.998V514.998M221 534.998V544.998M221 544.998V554.998M221 554.998V564.998M221 564.998V574.998M221 574.998V584.998M221 584.998V594.998M181 444.998V454.998M181 444.998H221M181 444.998V434.998M181 454.998V464.998M181 454.998H221M181 464.998V474.998M181 464.998H221M181 474.998V484.998M181 474.998H221M181 484.998V494.998M181 484.998H221M181 494.998V504.998M181 494.998H221M181 504.998V514.998M181 504.998H221M181 514.998H221M221 444.998V454.998M221 444.998V434.998M221 454.998V464.998M221 464.998V474.998M221 474.998V484.998M221 484.998V494.998M221 494.998V504.998M221 504.998V514.998M181 374.998V384.998M181 374.998H221M181 384.998V394.998M181 384.998H221M181 394.998V404.998M181 394.998H221M181 404.998V414.998M181 404.998H221M181 414.998V424.998M181 414.998H221M181 424.998V434.998M181 424.998H221M181 434.998H221M221 374.998V384.998M221 384.998V394.998M221 394.998V404.998M221 404.998V414.998M221 414.998V424.998M221 424.998V434.998M301 264.998V304.998M301 264.998H311M301 304.998H311M311 264.998V304.998M311 264.998H321M311 304.998H321M321 264.998V304.998M321 264.998H331M321 304.998H331M331 264.998V304.998M331 264.998H341M331 304.998H341M341 264.998V304.998M341 264.998H351M341 304.998H351M351 264.998V304.998M351 264.998H361M351 304.998H361M361 264.998V304.998M361 264.998H371M361 304.998H371M371 264.998V304.998M371 264.998H381M371 304.998H381M381 264.998V304.998M381 264.998H391M381 304.998H391M391 264.998V304.998M391 264.998H401M391 304.998H401M401 264.998V304.998M401 264.998H411M401 304.998H411M411 264.998V304.998M411 264.998H421M411 304.998H421M421 264.998V304.998M421 264.998H431M421 304.998H431M431 264.998V304.998M431 264.998H441M431 304.998H441M441 264.998V304.998M441 264.998H451M441 304.998H451M451 264.998V304.998M451 264.998H461M451 304.998H461M461 264.998V304.998M461 264.998H471M461 304.998H471M471 264.998V304.998M471 264.998H481M471 304.998H481M481 264.998V304.998M481 264.998H491M481 304.998H491M491 264.998V304.998M491 264.998H501M491 304.998H501M501 264.998V304.998M501 264.998H511M501 304.998H511M511 264.998V304.998M511 264.998H521M511 304.998H521M521 264.998V304.998M521 264.998H531M521 304.998H531M531 264.998V304.998M531 264.998H541M531 304.998H541M541 264.998V304.998M541 264.998H551M541 304.998H551M551 264.998V304.998M551 264.998H561M551 304.998H561M561 264.998V304.998M561 264.998H571M561 304.998H571M571 264.998V304.998M571 264.998H581M571 304.998H581M581 264.998V304.998M581 264.998H591M581 304.998H591M591 264.998V304.998M591 264.998H601M591 304.998H601M601 264.998V304.998M601 264.998H611M601 304.998H611M611 264.998V304.998M611 264.998H621M611 304.998H621M621 264.998V304.998M621 264.998H631M621 304.998H631M631 264.998V304.998M631 264.998H641M631 304.998H641M641 264.998V304.998M641 264.998H651M641 304.998H651M651 264.998V304.998M651 264.998H661M651 304.998H661M661 264.998V304.998M661 264.998H671M661 304.998H671M671 264.998V304.998M671 264.998H681M671 304.998H681M681 264.998V304.998M681 264.998H691M681 304.998H691M691 264.998V304.998M691 264.998H701M691 304.998H701M701 264.998V304.998M701 264.998H711M701 304.998H711M711 264.998V304.998M711 264.998H721M711 304.998H721M721 264.998V304.998M721 264.998H731M721 304.998H731M731 264.998V304.998M731 264.998H741M731 304.998H741M741 264.998V304.998M741 264.998H751M741 304.998H751M751 264.998V304.998M751 264.998H761M751 304.998H761M761 264.998V304.998M761 264.998H771M761 304.998H771M771 264.998V304.998M771 264.998H781M771 304.998H781M781 264.998V304.998M781 264.998H791M781 304.998H791M791 264.998V304.998M791 264.998H801M791 304.998H801M801 264.998V304.998M801 264.998H811M801 304.998H811M811 264.998V304.998M811 264.998H821M811 304.998H821M821 264.998V304.998M821 264.998H831M821 304.998H831M831 264.998V304.998M831 264.998H841M831 304.998H841M841 264.998V304.998M841 264.998H851M841 304.998H851M851 264.998V304.998M851 264.998H861V304.998H851M181 725V735M181 725H221M181 725V715M181 735H221M181 735V745M221 725V735M221 725V715M221 735V745M181 695V705M181 705V715M181 705H221M181 715H221M221 695V705M221 705V715M181 765H221M181 765V755M221 765V755M181 745V755M181 745H221M181 755H221M221 745V755" stroke="#D5A654" stroke-width="2" stroke-linecap="round" stroke-linejoin="round"/>
<path opacity="0.5" d="M431 590.999V550.999M431 590.999H511M431 590.999C426.53 590.999 422.129 590.706 417.814 590.137M431 590.999H441M331 490.999H371M331 490.999V480.999M331 490.999C331 495.469 331.293 499.871 331.862 504.186M431 550.999H511M431 550.999C428.322 550.999 425.685 550.824 423.1 550.484M431 550.999H441M371 490.999V480.999M371 490.999C371 493.721 371.181 496.401 371.532 499.028M521 550.999H511M521 550.999V590.999M521 550.999C525.47 550.999 529.871 551.292 534.186 551.861M621 650.999V801M621 650.999H581M621 650.999C621 646.529 620.707 642.127 620.138 637.812M621 650.999V661M521 590.999H511M521 590.999C523.678 590.999 526.315 591.174 528.9 591.514M581 650.999V801M581 650.999C581 648.277 580.819 645.597 580.468 642.97M581 650.999V661M681 941H691M681 941V901M681 941C676.53 941 672.129 940.707 667.814 940.138M681 941H721M581 841V831M581 841H621M581 841C581 845.47 581.293 849.872 581.862 854.187M681 901H691M681 901C678.322 901 675.685 900.825 673.1 900.485M621 841V831M621 841C621 843.722 621.181 846.402 621.532 849.029M691 901H701M691 901V941M701 901H711M701 901V941M711 901H721M711 901V941M721 901V941M721 901H871V941H721M691 941H701M701 941H711M711 941H721M621 801V811M621 801V791M621 801H581M621 811V821M621 811H581M621 821V781M621 821V831M621 821H581M621 781V791M621 781H581M621 781V771M621 791H581M621 791V751M621 831H581M581 801V811M581 801V791M581 811V821M581 821V781M581 821V831M581 781V791M581 781V771M581 791V751M511 550.999V590.999M511 550.999H501M511 590.999H501M331 480.999V470.999M331 480.999H371M331 470.999V460.999M331 470.999H371M331 460.999V450.999M331 460.999H371M331 450.999V180.999M331 450.999H371M331 450.999V440.999M331 180.999V170.999M331 180.999H371M331 170.999V160.999M331 170.999H371M331 160.999V150.999M331 160.999H371M371 480.999V470.999M371 470.999V460.999M371 460.999V450.999M371 450.999V180.999M371 450.999V440.999M371 180.999V170.999M371 170.999V160.999M371 160.999V150.999M331.862 504.186C332.425 508.464 333.259 512.657 334.346 516.746M331.862 504.186L371.532 499.028M334.346 516.746C335.497 521.08 336.932 525.298 338.63 529.379M334.346 516.746L373.024 506.51M338.63 529.379C340.336 533.481 342.308 537.445 344.524 541.25M338.63 529.379L375.662 514.229M344.524 541.25C346.685 544.96 349.077 548.519 351.682 551.906M344.524 541.25L379.28 521.431M351.682 551.906C354.384 555.419 357.314 558.748 360.449 561.87M351.682 551.906L383.564 527.744M360.449 561.87C363.564 564.97 366.882 567.867 370.381 570.538M360.449 561.87L388.911 533.76M370.381 570.538C373.738 573.1 377.262 575.455 380.934 577.583M370.381 570.538L394.925 538.947M380.934 577.583C384.711 579.771 388.645 581.72 392.714 583.408M380.934 577.583L401.125 543.044M392.714 583.408C396.773 585.092 400.967 586.516 405.275 587.659M392.714 583.408L408.161 546.499M405.275 587.659C409.358 588.743 413.544 589.575 417.814 590.137M405.275 587.659L415.751 549.044M417.814 590.137L423.1 550.484M423.1 550.484C420.599 550.155 418.146 549.672 415.751 549.044M415.751 549.044C413.148 548.362 410.614 547.51 408.161 546.499M408.161 546.499C405.731 545.498 403.382 544.342 401.125 543.044M401.125 543.044C398.97 541.805 396.9 540.435 394.925 538.947M394.925 538.947C392.807 537.351 390.797 535.617 388.911 533.76M388.911 533.76C386.998 531.877 385.211 529.867 383.564 527.744M383.564 527.744C382.008 525.737 380.576 523.629 379.28 521.431M379.28 521.431C377.919 519.125 376.709 516.72 375.662 514.229M375.662 514.229C374.615 511.737 373.731 509.16 373.024 506.51M373.024 506.51C372.374 504.074 371.873 501.576 371.532 499.028M620.138 637.812C619.575 633.534 618.741 629.341 617.654 625.252M620.138 637.812L580.468 642.97M617.654 625.252C616.503 620.918 615.068 616.701 613.37 612.619M617.654 625.252L578.976 635.488M613.37 612.619C611.664 608.517 609.692 604.553 607.476 600.748M613.37 612.619L576.338 627.77M607.476 600.748C605.315 597.038 602.923 593.479 600.318 590.092M607.476 600.748L572.72 620.567M600.318 590.092C597.616 586.579 594.686 583.25 591.55 580.128M600.318 590.092L568.436 614.254M591.55 580.128C588.436 577.028 585.118 574.131 581.619 571.46M591.55 580.128L563.089 608.238M581.619 571.46C578.262 568.898 574.738 566.543 571.066 564.415M581.619 571.46L557.075 603.051M571.066 564.415C567.289 562.227 563.355 560.278 559.286 558.59M571.066 564.415L550.876 598.954M559.286 558.59C555.227 556.907 551.033 555.482 546.725 554.339M559.286 558.59L543.839 595.499M546.725 554.339C542.642 553.255 538.456 552.423 534.186 551.861M546.725 554.339L536.249 592.954M534.186 551.861L528.9 591.514M528.9 591.514C531.401 591.843 533.854 592.326 536.249 592.954M536.249 592.954C538.852 593.636 541.386 594.488 543.839 595.499M543.839 595.499C546.269 596.5 548.618 597.656 550.876 598.954M550.876 598.954C553.03 600.194 555.1 601.563 557.075 603.051M557.075 603.051C559.193 604.648 561.203 606.381 563.089 608.238M563.089 608.238C565.002 610.121 566.789 612.131 568.436 614.254M568.436 614.254C569.992 616.261 571.424 618.369 572.72 620.567M572.72 620.567C574.081 622.873 575.291 625.279 576.338 627.77M576.338 627.77C577.385 630.261 578.269 632.838 578.976 635.488M578.976 635.488C579.626 637.924 580.127 640.422 580.468 642.97M581.862 854.187C582.425 858.465 583.259 862.658 584.346 866.747M581.862 854.187L621.532 849.029M584.346 866.747C585.497 871.081 586.932 875.298 588.63 879.379M584.346 866.747L623.024 856.511M588.63 879.379C590.336 883.482 592.308 887.446 594.524 891.251M588.63 879.379L625.662 864.229M594.524 891.251C596.685 894.961 599.077 898.52 601.682 901.907M594.524 891.251L629.28 871.432M601.682 901.907C604.384 905.42 607.314 908.749 610.45 911.871M601.682 901.907L633.564 877.745M610.45 911.871C613.564 914.971 616.882 917.868 620.381 920.539M610.45 911.871L638.911 883.761M620.381 920.539C623.738 923.101 627.262 925.456 630.934 927.584M620.381 920.539L644.925 888.948M630.934 927.584C634.711 929.772 638.645 931.721 642.714 933.409M630.934 927.584L651.124 893.045M642.714 933.409C646.773 935.092 650.967 936.517 655.275 937.66M642.714 933.409L658.161 896.5M655.275 937.66C659.358 938.744 663.544 939.576 667.814 940.138M655.275 937.66L665.751 899.045M667.814 940.138L673.1 900.485M673.1 900.485C670.599 900.156 668.146 899.672 665.751 899.045M665.751 899.045C663.148 898.363 660.614 897.511 658.161 896.5M658.161 896.5C655.731 895.499 653.382 894.343 651.124 893.045M651.124 893.045C648.97 891.806 646.9 890.436 644.925 888.948M644.925 888.948C642.807 887.351 640.797 885.618 638.911 883.761M638.911 883.761C636.998 881.878 635.211 879.868 633.564 877.745M633.564 877.745C632.008 875.738 630.576 873.63 629.28 871.432M629.28 871.432C627.919 869.126 626.709 866.72 625.662 864.229M625.662 864.229C624.615 861.738 623.731 859.161 623.024 856.511M623.024 856.511C622.374 854.075 621.873 851.577 621.532 849.029M731 901V941M741 901V941M751 901V941M761 901V941M771 901V941M781 901V941M791 901V941M801 901V941M811 901V941M821 901V941M831 901V941M841 901V941M851 901V941M861 901V941M621 771V761M621 771H581M621 771V661M621 751V761M621 751H581M621 751V741M621 761H581M581 771V761M581 771V661M581 751V761M581 751V741M621 691V701M621 691H581M621 691V681M621 701V711M621 701H581M621 711V721M621 711H581M621 721V731M621 721H581M621 731V741M621 731H581M621 741H581M581 691V701M581 691V681M581 701V711M581 711V721M581 721V731M581 731V741M621 661V671M621 661H581M621 671V681M621 671H581M621 681H581M581 661V671M581 671V681M501 550.999V590.999M501 550.999H491M501 550.999H471M501 550.999H461M501 550.999H481M501 590.999H491M501 590.999H471M501 590.999H461M501 590.999H481M491 550.999V590.999M491 550.999H481M491 550.999H461M491 590.999H481M491 590.999H461M481 550.999V590.999M481 550.999H471M481 590.999H471M471 550.999V590.999M471 550.999H461M471 590.999H461M461 550.999V590.999M461 550.999H451M461 590.999H451M451 550.999V590.999M451 550.999H441M451 590.999H441M441 550.999V590.999M271 1.00098V41.001M271 1.00098C275.47 1.00098 279.871 1.29423 284.186 1.86255M271 1.00098H121M371 101.001V111.001M371 101.001H331M371 101.001C371 96.5308 370.707 92.1291 370.138 87.8141M271 41.001C273.678 41.001 276.315 41.1764 278.9 41.5164M271 41.001H121M331 101.001V111.001M331 101.001C331 98.2786 330.819 95.5986 330.468 92.9724M371 111.001V121.001M371 111.001H331M371 121.001V131.001M371 121.001H331M371 131.001V141.001M371 131.001H331M371 141.001V151.001M371 141.001H331M371 151.001V161.001M371 151.001H331M371 161.001V171.001M371 161.001H331M371 171.001V181.001M371 171.001H331M371 181.001V191.001M371 181.001H331M331 111.001V121.001M331 121.001V131.001M331 131.001V141.001M331 141.001V151.001M331 151.001V161.001M331 161.001V171.001M331 171.001V181.001M331 181.001V191.001M370.138 87.8141C369.575 83.5361 368.741 79.3433 367.654 75.2535M370.138 87.8141L330.468 92.9724M367.654 75.2535C366.503 70.9202 365.068 66.7025 363.37 62.6215M367.654 75.2535L328.976 85.4895M363.37 62.6215C361.664 58.5191 359.692 54.5547 357.476 50.7499M363.37 62.6215L326.338 77.7715M357.476 50.7499C355.315 47.0396 352.923 43.481 350.318 40.094M357.476 50.7499L322.72 70.5685M350.318 40.094C347.616 36.5808 344.686 33.2523 341.551 30.1304M350.318 40.094L318.436 64.2562M341.551 30.1304C338.436 27.0298 335.118 24.1331 331.619 21.4622M341.551 30.1304L313.089 58.2402M331.619 21.4622C328.262 18.8998 324.738 16.5451 321.066 14.4172M331.619 21.4622L307.075 53.0532M321.066 14.4172C317.289 12.2285 313.355 10.2799 309.286 8.59216M321.066 14.4172L300.875 48.9561M309.286 8.59216C305.227 6.90848 301.033 5.48444 296.725 4.34082M309.286 8.59216L293.839 45.5008M296.725 4.34082C292.642 3.25702 288.456 2.42506 284.186 1.86255M296.725 4.34082L286.249 42.9558M284.186 1.86255L278.9 41.5164M278.9 41.5164C281.401 41.8454 283.854 42.3285 286.249 42.9558M286.249 42.9558C288.852 43.6379 291.386 44.4904 293.839 45.5008M293.839 45.5008C296.269 46.5017 298.618 47.6576 300.875 48.9561M300.875 48.9561C303.03 50.1955 305.1 51.5647 307.075 53.0532M307.075 53.0532C309.193 54.6495 311.203 56.3829 313.089 58.2402M313.089 58.2402C315.002 60.1228 316.789 62.1328 318.436 64.2562M318.436 64.2562C319.992 66.2628 321.424 68.3707 322.72 70.5685M322.72 70.5685C324.081 72.875 325.291 75.2805 326.338 77.7715M326.338 77.7715C327.385 80.2631 328.269 82.8402 328.976 85.4895M328.976 85.4895C329.626 87.9262 330.127 90.424 330.468 92.9724M121 1.00098V41.001M121 1.00098L-29 1.00116V41.0012L121 41.001M131 1.00098V41.001M141 1.00098V41.001M151 1.00098V41.001M161 1.00098V41.001M171 1.00098V41.001M181 1.00098V41.001M191 1.00098V41.001M201 1.00098V41.001M211 1.00098V41.001M221 1.00098V41.001M231 1.00098V41.001M241 1.00098V41.001M251 1.00098V41.001M261 1.00098V41.001M-19 1.00116V41.0012M-9 1.00116V41.0012M1 1.00116V41.0012M11 1.00116V41.0012M21 1.00116V41.0012M31 1.00116V41.0012M41 1.00116V41.0012M51 1.00116V41.0012M61 1.00116V41.0012M71 1.00116V41.0012M81 1.00116V41.0012M91 1.00116V41.0012M101 1.00116V41.0012M111 1.00116V41.0012M331 440.997V450.997H371V440.997M331 440.997V430.997M331 440.997H371M331 430.997V420.997M331 430.997H371M371 440.997V430.997M371 430.997V420.997M371 380.999V390.999M371 380.999H331M371 380.999V370.999M371 390.999V400.999M371 390.999H331M371 400.999V410.999M371 400.999H331M371 410.999V420.999M371 410.999H331M371 420.999V430.999M371 420.999H331M371 430.999V440.999M371 430.999H331M371 440.999H331M331 380.999V390.999M331 380.999V370.999M331 390.999V400.999M331 400.999V410.999M331 410.999V420.999M331 420.999V430.999M331 430.999V440.999M331 370.997V380.997H371V370.997M331 370.997V360.997M331 370.997H371M331 360.997V350.997M331 360.997H371M371 370.997V360.997M371 360.997V350.997M371 310.999V320.999M371 310.999H331M371 310.999V300.999M371 320.999V330.999M371 320.999H331M371 330.999V340.999M371 330.999H331M371 340.999V350.999M371 340.999H331M371 350.999V360.999M371 350.999H331M371 360.999V370.999M371 360.999H331M371 370.999H331M331 310.999V320.999M331 310.999V300.999M331 320.999V330.999M331 330.999V340.999M331 340.999V350.999M331 350.999V360.999M331 360.999V370.999M371 191.001V290.999M371 191.001H331M371 191.001V201M371 290.999V300.999M371 290.999H331M371 290.999V280.999M371 300.999H331M331 191.001V290.999M331 191.001V201M331 290.999V300.999M331 290.999V280.999M331 220.998V230.998H371V220.998M331 220.998V210.998M331 220.998H371M331 210.998V200.998M331 210.998H371M371 220.998V210.998M371 210.998V200.998M371 201V211M371 201H331M371 211V221M371 211H331M371 221V231M371 221H331M371 231V241M371 231H331M331 201V211M331 211V221M331 221V231M331 231V241M371 241H331M371 241V250.999M331 241V250.999M331 270.997V280.997H371V270.997M331 270.997V260.997M331 270.997H371M331 260.997V250.997M331 260.997H371M371 270.997V260.997M371 260.997V250.997M371 250.999V260.999M371 250.999H331M371 260.999V270.999M371 260.999H331M371 270.999V280.999M371 270.999H331M371 280.999H331M331 250.999V260.999M331 260.999V270.999M331 270.999V280.999" stroke="#A3C3CE" stroke-width="2" stroke-linecap="round" stroke-linejoin="round"/>
</svg>
