<svg width="1512" height="1181" viewBox="0 0 1512 1181" fill="none" xmlns="http://www.w3.org/2000/svg">
<path opacity="0.5" d="M975 330.998V290.998M975 330.998H385M975 330.998C979.47 330.998 983.871 330.705 988.186 330.136M975 330.998H965M1075 230.998H1035M1075 230.998V220.998M1075 230.998C1075 235.468 1074.71 239.87 1074.14 244.185M975 290.998H385M975 290.998C977.678 290.998 980.315 290.822 982.9 290.482M975 290.998H965M1035 230.998V220.998M1035 230.998C1035 233.72 1034.82 236.4 1034.47 239.026M375 290.998H385M375 290.998V330.998M375 290.998C370.53 290.998 366.129 291.291 361.814 291.859M275 390.998V710.998M275 390.998H315M275 390.998C275 386.528 275.293 382.126 275.862 377.811M275 390.998V400.998M375 330.998H385M375 330.998C372.322 330.998 369.685 331.173 367.1 331.513M315 390.998V710.998M315 390.998C315 388.275 315.181 385.595 315.532 382.969M315 390.998V400.998M215 900.998H205M215 900.998V860.998M215 900.998C219.47 900.998 223.871 900.705 228.186 900.136M315 800.998V790.998M315 800.998H275M315 800.998C315 805.468 314.707 809.87 314.138 814.185M215 860.998H205M215 860.998C217.678 860.998 220.315 860.822 222.9 860.482M275 800.998V790.998M275 800.998C275 803.72 274.819 806.4 274.468 809.026M15 860.998H175M15 860.998V900.998M15 860.998H-5V900.998H15M15 900.998H175M205 860.998H195M205 860.998V900.998M195 860.998H185M195 860.998V900.998M185 860.998H175M185 860.998V900.998M175 860.998V900.998M205 900.998H195M195 900.998H185M185 900.998H175M275 710.998V720.998M275 710.998H315M275 710.998V700.998M275 720.998V730.998M275 720.998H315M275 730.998V740.998M275 730.998H315M275 740.998V750.998M275 740.998H315M275 750.998V760.998M275 750.998H315M275 760.998V770.998M275 760.998H315M275 770.998V780.998M275 770.998H315M275 780.998V790.998M275 780.998H315M275 790.998H315M315 710.998V720.998M315 710.998V700.998M315 720.998V730.998M315 730.998V740.998M315 740.998V750.998M315 750.998V760.998M315 760.998V770.998M315 770.998V780.998M315 780.998V790.998M385 290.998V330.998M385 290.998H395M385 330.998H395M1075 220.998V210.998M1075 220.998H1035M1075 210.998V200.998M1075 210.998H1035M1075 200.998V190.998M1075 200.998H1035M1075 190.998V180.998M1075 190.998H1035M1075 180.998V170.998M1075 180.998H1035M1075 170.998V160.998M1075 170.998H1035M1075 160.998V150.998M1075 160.998H1035M1035 220.998V210.998M1035 210.998V200.998M1035 200.998V190.998M1035 190.998V180.998M1035 180.998V170.998M1035 170.998V160.998M1035 160.998V150.998M1074.14 244.185C1073.57 248.463 1072.74 252.655 1071.65 256.745M1074.14 244.185L1034.47 239.026M1071.65 256.745C1070.5 261.078 1069.07 265.296 1067.37 269.377M1071.65 256.745L1032.98 246.509M1067.37 269.377C1065.66 273.48 1063.69 277.444 1061.48 281.249M1067.37 269.377L1030.34 254.227M1061.48 281.249C1059.32 284.959 1056.92 288.518 1054.32 291.905M1061.48 281.249L1026.72 261.43M1054.32 291.905C1051.62 295.418 1048.69 298.747 1045.55 301.868M1054.32 291.905L1022.44 267.743M1045.55 301.868C1042.44 304.969 1039.12 307.866 1035.62 310.537M1045.55 301.868L1017.09 273.758M1035.62 310.537C1032.26 313.099 1028.74 315.454 1025.07 317.582M1035.62 310.537L1011.08 278.946M1025.07 317.582C1021.29 319.77 1017.36 321.719 1013.29 323.407M1025.07 317.582L1004.88 283.043M1013.29 323.407C1009.23 325.09 1005.03 326.514 1000.72 327.658M1013.29 323.407L997.839 286.498M1000.72 327.658C996.642 328.742 992.456 329.574 988.186 330.136M1000.72 327.658L990.249 289.043M988.186 330.136L982.9 290.482M982.9 290.482C985.401 290.153 987.854 289.67 990.249 289.043M990.249 289.043C992.852 288.361 995.386 287.508 997.839 286.498M997.839 286.498C1000.27 285.497 1002.62 284.341 1004.88 283.043M1004.88 283.043C1007.03 281.803 1009.1 280.434 1011.08 278.946M1011.08 278.946C1013.19 277.349 1015.2 275.616 1017.09 273.758M1017.09 273.758C1019 271.876 1020.79 269.866 1022.44 267.743M1022.44 267.743C1023.99 265.736 1025.42 263.628 1026.72 261.43M1026.72 261.43C1028.08 259.124 1029.29 256.718 1030.34 254.227M1030.34 254.227C1031.38 251.736 1032.27 249.159 1032.98 246.509M1032.98 246.509C1033.63 244.072 1034.13 241.575 1034.47 239.026M275.862 377.811C276.425 373.533 277.259 369.34 278.346 365.25M275.862 377.811L315.532 382.969M278.346 365.25C279.497 360.917 280.932 356.699 282.63 352.618M278.346 365.25L317.024 375.486M282.63 352.618C284.336 348.516 286.308 344.552 288.524 340.747M282.63 352.618L319.662 367.768M288.524 340.747C290.685 337.036 293.077 333.478 295.682 330.091M288.524 340.747L323.28 360.565M295.682 330.091C298.384 326.578 301.314 323.249 304.45 320.127M295.682 330.091L327.564 354.253M304.45 320.127C307.564 317.027 310.882 314.13 314.381 311.459M304.45 320.127L332.911 348.237M314.381 311.459C317.738 308.897 321.262 306.542 324.934 304.414M314.381 311.459L338.925 343.05M324.934 304.414C328.711 302.225 332.645 300.277 336.714 298.589M324.934 304.414L345.124 338.953M336.714 298.589C340.773 296.905 344.967 295.481 349.275 294.338M336.714 298.589L352.161 335.498M349.275 294.338C353.358 293.254 357.544 292.422 361.814 291.859M349.275 294.338L359.751 332.953M361.814 291.859L367.1 331.513M367.1 331.513C364.599 331.842 362.146 332.325 359.751 332.953M359.751 332.953C357.148 333.635 354.614 334.487 352.161 335.498M352.161 335.498C349.731 336.499 347.382 337.654 345.124 338.953M345.124 338.953C342.97 340.192 340.9 341.562 338.925 343.05M338.925 343.05C336.807 344.646 334.797 346.38 332.911 348.237M332.911 348.237C330.998 350.12 329.211 352.13 327.564 354.253M327.564 354.253C326.008 356.26 324.576 358.368 323.28 360.565M323.28 360.565C321.919 362.872 320.709 365.277 319.662 367.768M319.662 367.768C318.615 370.26 317.731 372.837 317.024 375.486M317.024 375.486C316.374 377.923 315.873 380.421 315.532 382.969M314.138 814.185C313.575 818.463 312.741 822.655 311.654 826.745M314.138 814.185L274.468 809.026M311.654 826.745C310.503 831.078 309.068 835.296 307.37 839.377M311.654 826.745L272.976 816.509M307.37 839.377C305.664 843.48 303.692 847.444 301.476 851.249M307.37 839.377L270.338 824.227M301.476 851.249C299.315 854.959 296.923 858.518 294.318 861.905M301.476 851.249L266.72 831.43M294.318 861.905C291.616 865.418 288.686 868.747 285.55 871.868M294.318 861.905L262.436 837.742M285.55 871.868C282.436 874.969 279.118 877.866 275.619 880.537M285.55 871.868L257.089 843.759M275.619 880.537C272.262 883.099 268.738 885.454 265.066 887.582M275.619 880.537L251.075 848.946M265.066 887.582C261.289 889.77 257.355 891.719 253.286 893.407M265.066 887.582L244.876 853.043M253.286 893.407C249.227 895.09 245.033 896.514 240.725 897.658M253.286 893.407L237.839 856.498M240.725 897.658C236.642 898.742 232.456 899.574 228.186 900.136M240.725 897.658L230.249 859.043M228.186 900.136L222.9 860.482M222.9 860.482C225.401 860.153 227.854 859.67 230.249 859.043M230.249 859.043C232.852 858.361 235.386 857.508 237.839 856.498M237.839 856.498C240.269 855.497 242.618 854.341 244.876 853.043M244.876 853.043C247.03 851.803 249.1 850.434 251.075 848.946M251.075 848.946C253.193 847.349 255.203 845.616 257.089 843.759M257.089 843.759C259.002 841.876 260.789 839.866 262.436 837.742M262.436 837.742C263.992 835.736 265.424 833.628 266.72 831.43M266.72 831.43C268.081 829.124 269.291 826.718 270.338 824.227M270.338 824.227C271.385 821.736 272.269 819.159 272.976 816.509M272.976 816.509C273.626 814.073 274.127 811.575 274.468 809.026M165 860.998V900.998M155 860.998V900.998M145 860.998V900.998M135 860.998V900.998M125 860.998V900.998M115 860.998V900.998M105 860.998V900.998M95 860.998V900.998M85 860.998V900.998M75 860.998V900.998M65 860.998V900.998M55 860.998V900.998M45 860.998V900.998M35 860.998V900.998M25 860.998V900.998M275 630.998V640.998M275 630.998H315M275 630.998V620.998M275 640.998V650.998M275 640.998H315M275 650.998V660.998M275 650.998H315M275 660.998V670.998M275 660.998H315M275 670.998V680.998M275 670.998H315M275 680.998V690.998M275 680.998H315M275 690.998V700.998M275 690.998H315M275 700.998H315M315 630.998V640.998M315 630.998V620.998M315 640.998V650.998M315 650.998V660.998M315 660.998V670.998M315 670.998V680.998M315 680.998V690.998M315 690.998V700.998M275 550.998V560.998M275 550.998H315M275 550.998V540.998M275 560.998V570.998M275 560.998H315M275 570.998V580.998M275 570.998H315M275 580.998V590.998M275 580.998H315M275 590.998V600.998M275 590.998H315M275 600.998V610.998M275 600.998H315M275 610.998V620.998M275 610.998H315M275 620.998H315M315 550.998V560.998M315 550.998V540.998M315 560.998V570.998M315 570.998V580.998M315 580.998V590.998M315 590.998V600.998M315 600.998V610.998M315 610.998V620.998M275 470.998V480.998M275 470.998H315M275 470.998V460.998M275 480.998V490.998M275 480.998H315M275 490.998V500.998M275 490.998H315M275 500.998V510.998M275 500.998H315M275 510.998V520.998M275 510.998H315M275 520.998V530.998M275 520.998H315M275 530.998V540.998M275 530.998H315M275 540.998H315M315 470.998V480.998M315 470.998V460.998M315 480.998V490.998M315 490.998V500.998M315 500.998V510.998M315 510.998V520.998M315 520.998V530.998M315 530.998V540.998M275 400.998V410.998M275 400.998H315M275 410.998V420.998M275 410.998H315M275 420.998V430.998M275 420.998H315M275 430.998V440.998M275 430.998H315M275 440.998V450.998M275 440.998H315M275 450.998V460.998M275 450.998H315M275 460.998H315M315 400.998V410.998M315 410.998V420.998M315 420.998V430.998M315 430.998V440.998M315 440.998V450.998M315 450.998V460.998M395 290.998V330.998M395 290.998H405M395 330.998H405M405 290.998V330.998M405 290.998H415M405 330.998H415M415 290.998V330.998M415 290.998H425M415 330.998H425M425 290.998V330.998M425 290.998H435M425 330.998H435M435 290.998V330.998M435 290.998H445M435 330.998H445M445 290.998V330.998M445 290.998H455M445 330.998H455M455 290.998V330.998M455 290.998H465M455 330.998H465M465 290.998V330.998M465 290.998H475M465 330.998H475M475 290.998V330.998M475 290.998H485M475 330.998H485M485 290.998V330.998M485 290.998H495M485 330.998H495M495 290.998V330.998M495 290.998H505M495 330.998H505M505 290.998V330.998M505 290.998H515M505 330.998H515M515 290.998V330.998M515 290.998H525M515 330.998H525M525 290.998V330.998M525 290.998H535M525 330.998H535M535 290.998V330.998M535 290.998H545M535 330.998H545M545 290.998V330.998M545 290.998H555M545 330.998H555M555 290.998V330.998M555 290.998H565M555 330.998H565M565 290.998V330.998M565 290.998H575M565 330.998H575M575 290.998V330.998M575 290.998H585M575 330.998H585M585 290.998V330.998M585 290.998H595M585 330.998H595M595 290.998V330.998M595 290.998H605M595 330.998H605M605 290.998V330.998M605 290.998H615M605 330.998H615M615 290.998V330.998M615 290.998H625M615 330.998H625M625 290.998V330.998M625 290.998H635M625 330.998H635M635 290.998V330.998M635 290.998H645M635 330.998H645M645 290.998V330.998M645 290.998H655M645 330.998H655M655 290.998V330.998M655 290.998H665M655 330.998H665M665 290.998V330.998M665 290.998H675M665 330.998H675M675 290.998V330.998M675 290.998H685M675 330.998H685M685 290.998V330.998M685 290.998H695M685 330.998H695M695 290.998V330.998M695 290.998H705M695 330.998H705M705 290.998V330.998M705 290.998H715M705 330.998H715M715 290.998V330.998M715 290.998H725M715 330.998H725M725 290.998V330.998M725 290.998H735M725 330.998H735M735 290.998V330.998M735 290.998H745M735 330.998H745M745 290.998V330.998M745 290.998H755M745 330.998H755M755 290.998V330.998M755 290.998H765M755 330.998H765M765 290.998V330.998M765 290.998H775M765 330.998H775M775 290.998V330.998M775 290.998H785M775 330.998H785M785 290.998V330.998M785 290.998H795M785 330.998H795M795 290.998V330.998M795 290.998H805M795 330.998H805M805 290.998V330.998M805 290.998H815M805 330.998H815M815 290.998V330.998M815 290.998H825M815 330.998H825M825 290.998V330.998M825 290.998H835M825 330.998H835M835 290.998V330.998M835 290.998H845M835 330.998H845M845 290.998V330.998M845 290.998H855M845 330.998H855M855 290.998V330.998M855 290.998H865M855 330.998H865M865 290.998V330.998M865 290.998H875M865 330.998H875M875 290.998V330.998M875 290.998H885M875 330.998H885M885 290.998V330.998M885 290.998H895M885 330.998H895M895 290.998V330.998M895 290.998H905M895 330.998H905M905 290.998V330.998M905 290.998H915M905 330.998H915M915 290.998V330.998M915 290.998H925M915 330.998H925M925 290.998V330.998M925 290.998H935M925 330.998H935M935 290.998V330.998M935 290.998H945M935 330.998H945M945 290.998V330.998M945 290.998H955M945 330.998H955M955 290.998V330.998M955 290.998H965M955 330.998H965M965 290.998V330.998M1135 1V41M1135 1C1130.53 1 1126.13 1.29325 1121.81 1.86157M1135 1H1285M1035 101V111M1035 101H1075M1035 101C1035 96.5298 1035.29 92.1281 1035.86 87.8131M1135 41C1132.32 41 1129.69 41.1754 1127.1 41.5154M1135 41H1285M1075 101V111M1075 101C1075 98.2777 1075.18 95.5977 1075.53 92.9714M1035 111V121M1035 111H1075M1035 121V131M1035 121H1075M1035 131V141M1035 131H1075M1035 141V151M1035 141H1075M1035 151V161M1035 151H1075M1035 161V171M1035 161H1075M1035 171V181M1035 171H1075M1075 111V121M1075 121V131M1075 131V141M1075 141V151M1075 151V161M1075 161V171M1075 171V181M1035.86 87.8131C1036.43 83.5351 1037.26 79.3424 1038.35 75.2526M1035.86 87.8131L1075.53 92.9714M1038.35 75.2526C1039.5 70.9192 1040.93 66.7016 1042.63 62.6205M1038.35 75.2526L1077.02 85.4885M1042.63 62.6205C1044.34 58.5181 1046.31 54.5537 1048.52 50.749M1042.63 62.6205L1079.66 77.7705M1048.52 50.749C1050.68 47.0387 1053.08 43.48 1055.68 40.093M1048.52 50.749L1083.28 70.5675M1055.68 40.093C1058.38 36.5798 1061.31 33.2513 1064.45 30.1295M1055.68 40.093L1087.56 64.2552M1064.45 30.1295C1067.56 27.0288 1070.88 24.1322 1074.38 21.4612M1064.45 30.1295L1092.91 58.2393M1074.38 21.4612C1077.74 18.8988 1081.26 16.5441 1084.93 14.4163M1074.38 21.4612L1098.92 53.0522M1084.93 14.4163C1088.71 12.2276 1092.64 10.2789 1096.71 8.59119M1084.93 14.4163L1105.12 48.9551M1096.71 8.59119C1100.77 6.9075 1104.97 5.48347 1109.28 4.33984M1096.71 8.59119L1112.16 45.4998M1109.28 4.33984C1113.36 3.25604 1117.54 2.42408 1121.81 1.86157M1109.28 4.33984L1119.75 42.9548M1121.81 1.86157L1127.1 41.5154M1127.1 41.5154C1124.6 41.8444 1122.15 42.3275 1119.75 42.9548M1119.75 42.9548C1117.15 43.6369 1114.61 44.4894 1112.16 45.4998M1112.16 45.4998C1109.73 46.5008 1107.38 47.6567 1105.12 48.9551M1105.12 48.9551C1102.97 50.1945 1100.9 51.5638 1098.92 53.0522M1098.92 53.0522C1096.81 54.6485 1094.8 56.3819 1092.91 58.2393M1092.91 58.2393C1091 60.1218 1089.21 62.1318 1087.56 64.2552M1087.56 64.2552C1086.01 66.2618 1084.58 68.3697 1083.28 70.5675M1083.28 70.5675C1081.92 72.874 1080.71 75.2795 1079.66 77.7705M1079.66 77.7705C1078.62 80.2621 1077.73 82.8392 1077.02 85.4885M1077.02 85.4885C1076.37 87.9252 1075.87 90.423 1075.53 92.9714M1285 1V41M1285 1L1435 1.00018M1275 1V41M1265 1V41M1255 1V41M1285 41L1435 41.0002M1245 1V41M1235 1V41M1225 1V41M1215 1V41M1205 1V41M1195 1V41M1185 1V41M1175 1V41M1165 1V41M1155 1V41M1145 1V41M1435 1.00018V41.0002M1435 1.00018H1515V41.0002H1435M1425 1.00018V41.0002M1415 1.00018V41.0002M1405 1.00018V41.0002M1395 1.00018V41.0002M1385 1.00018V41.0002M1375 1.00018V41.0002M1365 1.00018V41.0002M1355 1.00018V41.0002M1345 1.00018V41.0002M1335 1.00018V41.0002M1325 1.00018V41.0002M1315 1.00018V41.0002M1305 1.00018V41.0002M1295 1.00018V41.0002M1505 1.00018V41.0002M1495 1.00018V41.0002M1485 1.00018V41.0002M1475 1.00018V41.0002M1465 1.00018V41.0002M1455 1.00018V41.0002M1445 1.00018V41.0002M5 860.998V900.998" stroke="#D5A654" stroke-width="2" stroke-linecap="round" stroke-linejoin="round"/>
<path opacity="0.5" d="M595 660.001V620.001M595 660.001H1085M595 660.001C590.53 660.001 586.129 659.708 581.814 659.139M595 660.001H605M495 560.001H535M495 560.001V550.001M495 560.001C495 564.471 495.293 568.873 495.862 573.188M595 620.001H1085M595 620.001C592.322 620.001 589.685 619.826 587.1 619.486M595 620.001H605M535 560.001V550.001M535 560.001C535 562.723 535.181 565.403 535.532 568.03M1095 620.001H1085M1095 620.001V660.001M1095 620.001C1099.47 620.001 1103.87 620.294 1108.19 620.863M1195 720.001V1040M1195 720.001H1155M1195 720.001C1195 715.531 1194.71 711.129 1194.14 706.814M1195 720.001V730.001M1095 660.001H1085M1095 660.001C1097.68 660.001 1100.31 660.176 1102.9 660.516M1155 720.001V1040M1155 720.001C1155 717.279 1154.82 714.599 1154.47 711.972M1155 720.001V730.001M1255 1180H1265M1255 1180V1140M1255 1180C1250.53 1180 1246.13 1179.71 1241.81 1179.14M1155 1080V1070M1155 1080H1195M1155 1080C1155 1084.47 1155.29 1088.87 1155.86 1093.19M1255 1140H1265M1255 1140C1252.32 1140 1249.69 1139.83 1247.1 1139.49M1195 1080V1070M1195 1080C1195 1082.72 1195.18 1085.4 1195.53 1088.03M1455 1140H1295M1455 1140V1180M1455 1140H1515V1180H1455M1455 1180H1295M1265 1140H1275M1265 1140V1180M1275 1140H1285M1275 1140V1180M1285 1140H1295M1285 1140V1180M1295 1140V1180M1265 1180H1275M1275 1180H1285M1285 1180H1295M1195 1040V1050M1195 1040V1030M1195 1040H1155M1195 1050V1060M1195 1050H1155M1195 1060V1020M1195 1060V1070M1195 1060H1155M1195 1020V1030M1195 1020H1155M1195 1020V1010M1195 1030H1155M1195 1070H1155M1155 1040V1050M1155 1040V1030M1155 1050V1060M1155 1060V1020M1155 1060V1070M1155 1020V1030M1155 1020V1010M1085 620.001V660.001M1085 620.001H1075M1085 660.001H1075M495 550.001V540.001M495 550.001H535M495 540.001V530.001M495 540.001H535M495 530.001V520.001M495 530.001H535M495 520.001V339.999M495 520.001H535M495 520.001V510.001M495 339.999V329.999M495 339.999H535M495 329.999V319.999M495 329.999H535M495 319.999V309.999M495 319.999H535M535 550.001V540.001M535 540.001V530.001M535 530.001V520.001M535 520.001V339.999M535 520.001V510.001M535 339.999V329.999M535 329.999V319.999M535 319.999V309.999M495.862 573.188C496.425 577.466 497.259 581.659 498.346 585.748M495.862 573.188L535.532 568.03M498.346 585.748C499.497 590.082 500.932 594.299 502.63 598.381M498.346 585.748L537.024 575.512M502.63 598.381C504.336 602.483 506.308 606.447 508.524 610.252M502.63 598.381L539.662 583.23M508.524 610.252C510.685 613.962 513.077 617.521 515.682 620.908M508.524 610.252L543.28 590.433M515.682 620.908C518.384 624.421 521.314 627.75 524.449 630.872M515.682 620.908L547.564 596.746M524.449 630.872C527.564 633.972 530.882 636.869 534.381 639.54M524.449 630.872L552.911 602.762M534.381 639.54C537.738 642.102 541.262 644.457 544.934 646.585M534.381 639.54L558.925 607.949M544.934 646.585C548.711 648.773 552.645 650.722 556.714 652.41M544.934 646.585L565.125 612.046M556.714 652.41C560.773 654.093 564.967 655.518 569.275 656.661M556.714 652.41L572.161 615.501M569.275 656.661C573.358 657.745 577.544 658.577 581.814 659.139M569.275 656.661L579.751 618.046M581.814 659.139L587.1 619.486M587.1 619.486C584.599 619.157 582.146 618.674 579.751 618.046M579.751 618.046C577.148 617.364 574.614 616.512 572.161 615.501M572.161 615.501C569.731 614.5 567.382 613.344 565.125 612.046M565.125 612.046C562.97 610.807 560.9 609.437 558.925 607.949M558.925 607.949C556.807 606.352 554.797 604.619 552.911 602.762M552.911 602.762C550.998 600.879 549.211 598.869 547.564 596.746M547.564 596.746C546.008 594.739 544.576 592.631 543.28 590.433M543.28 590.433C541.919 588.127 540.709 585.721 539.662 583.23M539.662 583.23C538.615 580.739 537.731 578.162 537.024 575.512M537.024 575.512C536.374 573.076 535.873 570.578 535.532 568.03M1194.14 706.814C1193.57 702.536 1192.74 698.343 1191.65 694.254M1194.14 706.814L1154.47 711.972M1191.65 694.254C1190.5 689.92 1189.07 685.702 1187.37 681.621M1191.65 694.254L1152.98 704.49M1187.37 681.621C1185.66 677.519 1183.69 673.555 1181.48 669.75M1187.37 681.621L1150.34 696.771M1181.48 669.75C1179.32 666.04 1176.92 662.481 1174.32 659.094M1181.48 669.75L1146.72 689.569M1174.32 659.094C1171.62 655.581 1168.69 652.252 1165.55 649.13M1174.32 659.094L1142.44 683.256M1165.55 649.13C1162.44 646.03 1159.12 643.133 1155.62 640.462M1165.55 649.13L1137.09 677.24M1155.62 640.462C1152.26 637.9 1148.74 635.545 1145.07 633.417M1155.62 640.462L1131.08 672.053M1145.07 633.417C1141.29 631.229 1137.36 629.28 1133.29 627.592M1145.07 633.417L1124.88 667.956M1133.29 627.592C1129.23 625.908 1125.03 624.484 1120.72 623.341M1133.29 627.592L1117.84 664.501M1120.72 623.341C1116.64 622.257 1112.46 621.425 1108.19 620.863M1120.72 623.341L1110.25 661.956M1108.19 620.863L1102.9 660.516M1102.9 660.516C1105.4 660.845 1107.85 661.328 1110.25 661.956M1110.25 661.956C1112.85 662.638 1115.39 663.49 1117.84 664.501M1117.84 664.501C1120.27 665.502 1122.62 666.658 1124.88 667.956M1124.88 667.956C1127.03 669.195 1129.1 670.565 1131.08 672.053M1131.08 672.053C1133.19 673.649 1135.2 675.383 1137.09 677.24M1137.09 677.24C1139 679.123 1140.79 681.133 1142.44 683.256M1142.44 683.256C1143.99 685.263 1145.42 687.371 1146.72 689.569M1146.72 689.569C1148.08 691.875 1149.29 694.28 1150.34 696.771M1150.34 696.771C1151.38 699.263 1152.27 701.84 1152.98 704.49M1152.98 704.49C1153.63 706.926 1154.13 709.424 1154.47 711.972M1155.86 1093.19C1156.43 1097.47 1157.26 1101.66 1158.35 1105.75M1155.86 1093.19L1195.53 1088.03M1158.35 1105.75C1159.5 1110.08 1160.93 1114.3 1162.63 1118.38M1158.35 1105.75L1197.02 1095.51M1162.63 1118.38C1164.34 1122.48 1166.31 1126.45 1168.52 1130.25M1162.63 1118.38L1199.66 1103.23M1168.52 1130.25C1170.68 1133.96 1173.08 1137.52 1175.68 1140.91M1168.52 1130.25L1203.28 1110.43M1175.68 1140.91C1178.38 1144.42 1181.31 1147.75 1184.45 1150.87M1175.68 1140.91L1207.56 1116.75M1184.45 1150.87C1187.56 1153.97 1190.88 1156.87 1194.38 1159.54M1184.45 1150.87L1212.91 1122.76M1194.38 1159.54C1197.74 1162.1 1201.26 1164.46 1204.93 1166.58M1194.38 1159.54L1218.92 1127.95M1204.93 1166.58C1208.71 1168.77 1212.64 1170.72 1216.71 1172.41M1204.93 1166.58L1225.12 1132.05M1216.71 1172.41C1220.77 1174.09 1224.97 1175.52 1229.28 1176.66M1216.71 1172.41L1232.16 1135.5M1229.28 1176.66C1233.36 1177.75 1237.54 1178.58 1241.81 1179.14M1229.28 1176.66L1239.75 1138.05M1241.81 1179.14L1247.1 1139.49M1247.1 1139.49C1244.6 1139.16 1242.15 1138.67 1239.75 1138.05M1239.75 1138.05C1237.15 1137.36 1234.61 1136.51 1232.16 1135.5M1232.16 1135.5C1229.73 1134.5 1227.38 1133.34 1225.12 1132.05M1225.12 1132.05C1222.97 1130.81 1220.9 1129.44 1218.92 1127.95M1218.92 1127.95C1216.81 1126.35 1214.8 1124.62 1212.91 1122.76M1212.91 1122.76C1211 1120.88 1209.21 1118.87 1207.56 1116.75M1207.56 1116.75C1206.01 1114.74 1204.58 1112.63 1203.28 1110.43M1203.28 1110.43C1201.92 1108.13 1200.71 1105.72 1199.66 1103.23M1199.66 1103.23C1198.62 1100.74 1197.73 1098.16 1197.02 1095.51M1197.02 1095.51C1196.37 1093.08 1195.87 1090.58 1195.53 1088.03M1305 1140V1180M1315 1140V1180M1325 1140V1180M1335 1140V1180M1345 1140V1180M1355 1140V1180M1365 1140V1180M1375 1140V1180M1385 1140V1180M1395 1140V1180M1405 1140V1180M1415 1140V1180M1425 1140V1180M1435 1140V1180M1445 1140V1180M1195 960.001V970.001M1195 960.001H1155M1195 960.001V950.001M1195 970.001V980.001M1195 970.001H1155M1195 980.001V990.001M1195 980.001H1155M1195 990.001V1000M1195 990.001H1155M1195 1000V1010M1195 1000H1155M1195 1010H1155M1155 960.001V970.001M1155 960.001V950.001M1155 970.001V980.001M1155 980.001V990.001M1155 990.001V1000M1155 1000V1010M1195 880.001V890.001M1195 880.001H1155M1195 880.001V870.001M1195 890.001V900.001M1195 890.001H1155M1195 900.001V910.001M1195 900.001H1155M1195 910.001V920.001M1195 910.001H1155M1195 920.001V930.001M1195 920.001H1155M1195 930.001V940.001M1195 930.001H1155M1195 940.001V950.001M1195 940.001H1155M1195 950.001H1155M1155 880.001V890.001M1155 880.001V870.001M1155 890.001V900.001M1155 900.001V910.001M1155 910.001V920.001M1155 920.001V930.001M1155 930.001V940.001M1155 940.001V950.001M1195 800.001V810.001M1195 800.001H1155M1195 800.001V790.001M1195 810.001V820.001M1195 810.001H1155M1195 820.001V830.001M1195 820.001H1155M1195 830.001V840.001M1195 830.001H1155M1195 840.001V850.001M1195 840.001H1155M1195 850.001V860.001M1195 850.001H1155M1195 860.001V870.001M1195 860.001H1155M1195 870.001H1155M1155 800.001V810.001M1155 800.001V790.001M1155 810.001V820.001M1155 820.001V830.001M1155 830.001V840.001M1155 840.001V850.001M1155 850.001V860.001M1155 860.001V870.001M1195 730.001V740.001M1195 730.001H1155M1195 740.001V750.001M1195 740.001H1155M1195 750.001V760.001M1195 750.001H1155M1195 760.001V770.001M1195 760.001H1155M1195 770.001V780.001M1195 770.001H1155M1195 780.001V790.001M1195 780.001H1155M1195 790.001H1155M1155 730.001V740.001M1155 740.001V750.001M1155 750.001V760.001M1155 760.001V770.001M1155 770.001V780.001M1155 780.001V790.001M1075 620.001V660.001M1075 620.001H1065M1075 660.001H1065M1065 620.001V660.001M1065 620.001H1055M1065 660.001H1055M1055 620.001V660.001M1055 620.001H1045M1055 660.001H1045M1045 620.001V660.001M1045 620.001H1035M1045 660.001H1035M1035 620.001V660.001M1035 620.001H1025M1035 660.001H1025M1025 620.001V660.001M1025 620.001H1015M1025 660.001H1015M1015 620.001V660.001M1015 620.001H1005M1015 660.001H1005M1005 620.001V660.001M1005 620.001H995M1005 660.001H995M995 620.001V660.001M995 620.001H985M995 660.001H985M985 620.001V660.001M985 620.001H975M985 620.001H895M985 660.001H975M985 660.001H895M975 620.001V660.001M975 620.001H965M975 660.001H965M965 620.001V660.001M965 620.001H955M965 660.001H955M955 620.001V660.001M955 620.001H945M955 660.001H945M945 620.001V660.001M945 620.001H935M945 660.001H935M935 620.001V660.001M935 620.001H925M935 660.001H925M925 620.001V660.001M925 620.001H915M925 660.001H915M915 620.001V660.001M915 620.001H905M915 660.001H905M905 620.001V660.001M905 620.001H895M905 660.001H895M895 620.001V660.001M895 620.001H885M895 660.001H885M885 620.001V660.001M885 620.001H875M885 660.001H875M875 620.001V660.001M875 620.001H865M875 660.001H865M865 620.001V660.001M865 620.001H855M865 660.001H855M855 620.001V660.001M855 620.001H845M855 660.001H845M845 620.001V660.001M845 620.001H835M845 660.001H835M835 620.001V660.001M835 620.001H825M835 660.001H825M825 620.001V660.001M825 620.001H815M825 660.001H815M815 620.001V660.001M815 620.001H805M815 660.001H805M805 620.001V660.001M805 620.001H795M805 660.001H795M795 620.001V660.001M795 620.001H785M795 660.001H785M785 620.001V660.001M785 620.001H775M785 660.001H775M775 620.001V660.001M775 620.001H765M775 660.001H765M765 620.001V660.001M765 620.001H755M765 660.001H755M755 620.001V660.001M755 620.001H745M755 660.001H745M745 620.001V660.001M745 620.001H735M745 660.001H735M735 620.001V660.001M735 620.001H725M735 660.001H725M725 620.001V660.001M725 620.001H715M725 660.001H715M715 620.001V660.001M715 620.001H705M715 660.001H705M705 620.001V660.001M705 620.001H695M705 660.001H695M695 620.001V660.001M695 620.001H685M695 660.001H685M685 620.001V660.001M685 620.001H675M685 660.001H675M675 620.001V660.001M675 620.001H665M675 660.001H665M665 620.001V660.001M665 620.001H655M665 660.001H655M655 620.001V660.001M655 620.001H645M655 660.001H645M645 620.001V660.001M645 620.001H635M645 660.001H635M635 620.001V660.001M635 620.001H625M635 660.001H625M625 620.001V660.001M625 620.001H615M625 660.001H615M615 620.001V660.001M615 620.001H605M615 660.001H605M605 620.001V660.001M435 160.001V200.001M435 160.001C439.47 160.001 443.871 160.294 448.186 160.863M435 160.001H285M535 260.001V270.001M535 260.001H495M535 260.001C535 255.531 534.707 251.129 534.138 246.814M435 200.001C437.678 200.001 440.315 200.176 442.9 200.516M435 200.001H285M495 260.001V270.001M495 260.001C495 257.279 494.819 254.599 494.468 251.972M535 270.001V280.001M535 270.001H495M535 280.001V290.001M535 280.001H495M535 290.001V300.001M535 290.001H495M535 300.001V310.001M535 300.001H495M535 310.001V320.001M535 310.001H495M535 320.001V330.001M535 320.001H495M535 330.001V340.001M535 330.001H495M535 340.001V350.001M535 340.001H495M495 270.001V280.001M495 280.001V290.001M495 290.001V300.001M495 300.001V310.001M495 310.001V320.001M495 320.001V330.001M495 330.001V340.001M495 340.001V350.001M534.138 246.814C533.575 242.536 532.741 238.343 531.654 234.254M534.138 246.814L494.468 251.972M531.654 234.254C530.503 229.92 529.068 225.703 527.37 221.621M531.654 234.254L492.976 244.49M527.37 221.621C525.664 217.519 523.692 213.555 521.476 209.75M527.37 221.621L490.338 236.771M521.476 209.75C519.315 206.04 516.923 202.481 514.318 199.094M521.476 209.75L486.72 229.568M514.318 199.094C511.616 195.581 508.686 192.252 505.551 189.13M514.318 199.094L482.436 223.256M505.551 189.13C502.436 186.03 499.118 183.133 495.619 180.462M505.551 189.13L477.089 217.24M495.619 180.462C492.262 177.9 488.738 175.545 485.066 173.417M495.619 180.462L471.075 212.053M485.066 173.417C481.289 171.229 477.355 169.28 473.286 167.592M485.066 173.417L464.875 207.956M473.286 167.592C469.227 165.908 465.033 164.484 460.725 163.341M473.286 167.592L457.839 204.501M460.725 163.341C456.642 162.257 452.456 161.425 448.186 160.863M460.725 163.341L450.249 201.956M448.186 160.863L442.9 200.516M442.9 200.516C445.401 200.845 447.854 201.329 450.249 201.956M450.249 201.956C452.852 202.638 455.386 203.49 457.839 204.501M457.839 204.501C460.269 205.502 462.618 206.658 464.875 207.956M464.875 207.956C467.03 209.195 469.1 210.565 471.075 212.053M471.075 212.053C473.193 213.65 475.203 215.383 477.089 217.24M477.089 217.24C479.002 219.123 480.789 221.133 482.436 223.256M482.436 223.256C483.992 225.263 485.424 227.371 486.72 229.568M486.72 229.568C488.081 231.875 489.291 234.28 490.338 236.771M490.338 236.771C491.385 239.263 492.269 241.84 492.976 244.49M492.976 244.49C493.626 246.926 494.127 249.424 494.468 251.972M285 160.001V200.001M285 160.001L135 160.001M295 160.001V200.001M305 160.001V200.001M315 160.001V200.001M285 200.001L135 200.001M325 160.001V200.001M335 160.001V200.001M345 160.001V200.001M355 160.001V200.001M365 160.001V200.001M375 160.001V200.001M385 160.001V200.001M395 160.001V200.001M405 160.001V200.001M415 160.001V200.001M425 160.001V200.001M135 160.001V200.001M135 160.001H-5V200.001H135M145 160.001V200.001M155 160.001V200.001M165 160.001V200.001M175 160.001V200.001M185 160.001V200.001M195 160.001V200.001M205 160.001V200.001M215 160.001V200.001M225 160.001V200.001M235 160.001V200.001M245 160.001V200.001M255 160.001V200.001M265 160.001V200.001M275 160.001V200.001M5 160.001V200.001M15 160.001V200.001M25 160.001V200.001M35 160.001V200.001M45 160.001V200.001M55 160.001V200.001M65 160.001V200.001M75 160.001V200.001M85 160.001V200.001M95 160.001V200.001M105 160.001V200.001M115 160.001V200.001M125 160.001V200.001M495 509.999V519.999H535V509.999M495 509.999V499.999M495 509.999H535M495 499.999V489.999M495 499.999H535M535 509.999V499.999M535 499.999V489.999M535 450.001V460.001M535 450.001H495M535 450.001V440.001M535 460.001V470.001M535 460.001H495M535 470.001V480.001M535 470.001H495M535 480.001V490.001M535 480.001H495M535 490.001V500.001M535 490.001H495M535 500.001V510.001M535 500.001H495M535 510.001H495M495 450.001V460.001M495 450.001V440.001M495 460.001V470.001M495 470.001V480.001M495 480.001V490.001M495 490.001V500.001M495 500.001V510.001M495 439.999V449.999H535V439.999M495 439.999V429.999M495 439.999H535M495 429.999V419.999M495 429.999H535M535 439.999V429.999M535 429.999V419.999M535 380.001V390.001M535 380.001H495M535 380.001V370.001M535 390.001V400.001M535 390.001H495M535 400.001V410.001M535 400.001H495M535 410.001V420.001M535 410.001H495M535 420.001V430.001M535 420.001H495M535 430.001V440.001M535 430.001H495M535 440.001H495M495 380.001V390.001M495 380.001V370.001M495 390.001V400.001M495 400.001V410.001M495 410.001V420.001M495 420.001V430.001M495 430.001V440.001M535 350.001V360.001M535 350.001H495M535 360.001V370.001M535 360.001H495M535 370.001H495M495 350.001V360.001M495 360.001V370.001M1465 1140V1180M1475 1140V1180M1485 1140V1180M1495 1140V1180M1505 1140V1180" stroke="#A3C3CE" stroke-width="2" stroke-linecap="round" stroke-linejoin="round"/>
</svg>
