<svg width="339" height="533" viewBox="0 0 339 533" fill="none" xmlns="http://www.w3.org/2000/svg">
<path d="M334.503 525C334.623 525 334.743 525.006 334.86 525.018C336.625 525.197 338.003 526.688 338.003 528.5V532H338H334.503H334.5C332.567 532 331 530.433 331 528.5V525H8.00254V528.5C8.00254 530.312 6.6253 531.803 4.8604 531.982C4.74274 531.994 4.62336 532 4.50255 532H1.00252H1.00006L1 528.5C1 526.567 2.567 525 4.5 525H4.50255H8V8H4.50255H4.5C2.567 8 1 6.433 1 4.5V1H1.00246H4.5H4.50255C6.43554 1 8.00254 2.567 8.00254 4.5V8H331V4.5C331 2.567 332.567 1 334.5 1H334.503H338H338.002L338.003 4.5C338.003 6.433 336.436 8 334.503 8H334.5H331.003H331V525H331.003H334.503Z" fill="#FBF3E8"/>
<path d="M331.003 525V525.003M331.003 525H331M331.003 525L334.503 528.5M331.003 525H334.503C334.623 525 334.743 525.006 334.86 525.018M331.003 525.003V528.5C331.003 530.433 332.57 532 334.503 532M331.003 525.003L331 525M331.003 525.003L334.5 528.5M331 525V528.5C331 530.433 332.567 532 334.5 532H334.503M331 525H8.00254M331 525V8M334.503 532H338M334.86 525.018C336.625 525.197 338.003 526.688 338.003 528.5V532H338M334.86 525.018C336.624 525.198 338 526.689 338 528.5V532M334.5 8H334.503C336.436 8 338.003 6.433 338.003 4.5L338.002 1H338M334.5 8H331.003M334.5 8C336.433 8 338 6.433 338 4.5V1M331.003 8V7.99747M331.003 8H331M331.003 8L334.503 4.5M331.003 7.99747V4.5C331.003 2.567 332.57 1 334.503 1M331.003 7.99747L331 8M331.003 7.99747L334.5 4.5M331 8V4.5C331 2.567 332.567 1 334.5 1H334.503M331 8H8.00254M334.503 1H338M4.50255 525H8M4.50255 525C2.56955 525 1.00255 526.567 1.00255 528.5L1.00252 532M4.50255 525H4.5C2.567 525 1 526.567 1 528.5L1.00006 532H1.00252M8 525H8.00254M8 525V525.003M8 525L4.5 528.5M8 525V8M8.00254 525V528.5C8.00254 530.312 6.6253 531.803 4.8604 531.982M8.00254 525L8 525.003M4.8604 531.982C4.74274 531.994 4.62336 532 4.50255 532H1.00252M4.8604 531.982C6.62409 531.802 8 530.311 8 528.5V525.003M4.50255 8H8M4.50255 8C2.56955 8 1.00255 6.433 1.00255 4.5L1.00246 1M4.50255 8H4.5C2.567 8 1 6.433 1 4.5V1H1.00246M8 8H8.00254M8 8V7.99745M8 8L4.5 4.5M8.00254 8V4.5C8.00254 2.567 6.43554 1 4.50255 1H4.5M8.00254 8L8 7.99745M1.00246 1H4.5M4.5 1C6.433 1 8 2.567 8 4.5V7.99745M8 7.99745L4.50255 4.5M8 525.003L4.50255 528.5" stroke="#474542" stroke-linecap="round" stroke-linejoin="round"/>
</svg>
