<svg width="1084" height="1440" viewBox="0 0 1084 1440" fill="none" xmlns="http://www.w3.org/2000/svg">
<path d="M1051.93 1432.64V1419.91M1051.93 1419.91V1407.19H1064.66M1051.93 1419.91H1064.66M1064.66 1419.91H1072.08C1076.18 1419.91 1079.5 1423.24 1079.5 1427.33C1079.5 1429.41 1079.5 1434.76 1079.5 1434.76C1079.5 1434.76 1074.1 1434.76 1072.08 1434.76C1067.98 1434.76 1064.66 1431.43 1064.66 1427.33V1419.91ZM1064.66 1419.91V1407.19M1064.66 1419.91L1072.08 1427.33M1077.38 1407.19H1064.66M1051.93 20.0885V7.36283H609.352M1051.93 20.0885V32.8142M1051.93 20.0885H1064.66M1051.93 20.0885L587.441 20.0886M1051.93 32.8142H1064.66M1051.93 32.8142L609.352 32.8158M1064.66 20.0885H1072.08C1076.18 20.0885 1079.5 16.765 1079.5 12.6652C1079.5 10.6425 1079.5 5.24189 1079.5 5.24189C1079.5 5.24189 1074.16 5.24189 1072.08 5.24189C1067.98 5.24189 1064.66 8.56541 1064.66 12.6652V20.0885ZM1064.66 20.0885V32.8142M1064.66 20.0885L1072.08 12.6652M1077.38 32.8142H1064.66M31.7564 1432.64V1419.91M31.7564 1419.91V1407.19H19.0308M31.7564 1419.91H19.0308M19.0308 1419.91H11.6075C7.50769 1419.91 4.18416 1423.24 4.18416 1427.33C4.18416 1429.41 4.18412 1434.76 4.18412 1434.76C4.18412 1434.76 9.58482 1434.76 11.6075 1434.76C15.7072 1434.76 19.0308 1431.43 19.0308 1427.33V1419.91ZM19.0308 1419.91V1407.19M19.0308 1419.91L11.6075 1427.33M6.30511 1407.19H19.0308M31.7564 20.0885V7.36283H474.33M31.7564 20.0885V32.8142M31.7564 20.0885H19.0308M31.7564 20.0885L496.24 20.0886M31.7564 32.8142H19.0308M31.7564 32.8142L474.33 32.8159M19.0308 20.0885H11.6075C7.50769 20.0885 4.18416 16.765 4.18416 12.6652C4.18416 10.6425 4.18398 5.24189 4.18398 5.24189C4.18398 5.24189 9.53033 5.24189 11.6075 5.24189C15.7072 5.24189 19.0308 8.56541 19.0308 12.6652V20.0885ZM19.0308 20.0885V32.8142M19.0308 20.0885L11.6075 12.6652M6.30511 32.8142H19.0308M19.0308 32.8142L19.0311 668.037M587.441 20.0886C606.53 20.0886 609.711 9.48378 609.711 4.18142M587.441 20.0886C603.195 20.0886 608.114 27.3115 609.352 32.8158M587.441 20.0886C576.899 20.0886 568.353 14.391 568.353 7.36283C566.897 7.36283 565.479 7.47149 564.116 7.6773M587.441 20.0886C576.899 20.0886 568.353 25.786 568.353 32.8142C566.897 32.8142 565.479 32.7055 564.116 32.4997M587.441 20.0886C606.53 20.0886 609.711 30.6932 609.711 35.9956M587.441 20.0886C603.195 20.0886 608.114 12.8672 609.352 7.36283M609.711 4.18142C609.711 2.42437 608.287 1 606.53 1C604.772 1 603.348 2.42437 603.348 4.18142C603.348 5.93846 604.772 7.36113 606.53 7.36113C607.459 7.36113 608.4 7.36283 609.352 7.36283M609.711 4.18142C609.711 5.10776 609.614 6.19763 609.352 7.36283M609.352 32.8158C608.4 32.8158 607.459 32.8143 606.53 32.8143C604.773 32.8143 603.348 34.2385 603.348 35.9956C603.348 37.7526 604.772 39.177 606.53 39.177C608.287 39.177 609.711 37.7526 609.711 35.9956M609.352 32.8158C609.614 33.981 609.711 35.0692 609.711 35.9956M564.116 7.6773C561.907 8.01107 559.843 8.60033 557.998 9.39606C556.069 10.2281 554.379 11.2858 553.013 12.5132M564.116 7.6773C561.903 8.01167 559.835 8.60248 557.988 9.40039C556.063 10.2318 554.377 11.288 553.013 12.5132M553.013 12.5132C551.499 13.8738 550.382 15.4428 549.778 17.1439C549.442 18.089 549.264 19.0749 549.264 20.0885C549.264 21.1021 549.442 22.088 549.778 23.0332C550.382 24.7342 551.499 26.3033 553.013 27.6638M553.013 27.6638C554.377 28.889 556.063 29.9452 557.988 30.7766C559.835 31.5745 561.903 32.1653 564.116 32.4997M553.013 27.6638C554.379 28.8912 556.069 29.9489 557.998 30.7809C559.843 31.5767 561.907 32.1659 564.116 32.4997M496.24 20.0886C477.152 20.0886 473.971 9.48378 473.971 4.18142M496.24 20.0886C480.487 20.0886 475.568 27.3115 474.33 32.8159M496.24 20.0886C506.783 20.0886 515.329 14.391 515.329 7.36283C516.785 7.36283 518.203 7.47149 519.565 7.6773M496.24 20.0886C506.783 20.0886 515.329 25.786 515.329 32.8142C516.785 32.8142 518.203 32.7055 519.565 32.4997M496.24 20.0886C477.152 20.0886 473.971 30.6932 473.971 35.9956M496.24 20.0886C480.487 20.0886 475.568 12.8672 474.33 7.36283M473.971 4.18142C473.971 2.42437 475.395 1 477.152 1C478.909 1 480.333 2.42437 480.333 4.18142C480.333 5.93846 478.909 7.36113 477.152 7.36113C476.222 7.36113 475.281 7.36283 474.33 7.36283M473.971 4.18142C473.971 5.10776 474.068 6.19763 474.33 7.36283M474.33 32.8159C475.281 32.8159 476.222 32.8143 477.152 32.8143C478.909 32.8143 480.333 34.2385 480.333 35.9956C480.333 37.7526 478.909 39.177 477.152 39.177C475.395 39.177 473.971 37.7526 473.971 35.9956M474.33 32.8159C474.068 33.9811 473.971 35.0692 473.971 35.9956M519.565 7.6773C521.775 8.01107 523.839 8.60033 525.684 9.39606C527.613 10.2281 529.302 11.2858 530.668 12.5132M519.565 7.6773C521.779 8.01167 523.846 8.60248 525.694 9.40039C527.619 10.2318 529.305 11.288 530.668 12.5132M530.668 12.5132C532.183 13.8738 533.299 15.4428 533.904 17.1439C534.24 18.089 534.417 19.0749 534.417 20.0885C534.417 21.1021 534.24 22.088 533.904 23.0332C533.299 24.7343 532.183 26.3033 530.668 27.6638M530.668 27.6638C529.305 28.889 527.619 29.9452 525.694 30.7766C523.846 31.5745 521.779 32.1653 519.565 32.4997M530.668 27.6638C529.302 28.8912 527.613 29.9489 525.684 30.7809C523.839 31.5767 521.775 32.1659 519.565 32.4997M31.751 7.36283V20.0885M31.751 20.0885V32.8142M31.751 20.0885H19.0254M31.751 32.8142H19.0254M31.751 32.8142V648.948M19.0254 20.0885H11.6021C7.50229 20.0885 4.17876 16.765 4.17876 12.6652C4.17876 10.5881 4.17876 5.24189 4.17876 5.24189C4.17876 5.24189 9.57942 5.24189 11.6021 5.24189C15.7018 5.24189 19.0254 8.56541 19.0254 12.6652V20.0885ZM19.0254 20.0885V32.8142M19.0254 20.0885L11.6021 12.6652M19.0254 32.8142H6.29971V648.948M31.751 1419.91V1432.64H474.33M31.751 1419.91V1407.19M31.751 1419.91H19.0254M31.751 1419.91L496.24 1419.91M31.751 1407.19H19.0254M31.751 1407.19V791.052M31.751 1407.19L474.33 1407.18M19.0254 1419.91H11.6021C7.50229 1419.91 4.17876 1423.24 4.17876 1427.33C4.17876 1429.36 4.17889 1434.76 4.17889 1434.76C4.17889 1434.76 9.52493 1434.76 11.6021 1434.76C15.7018 1434.76 19.0254 1431.43 19.0254 1427.33V1419.91ZM19.0254 1419.91V1407.19M19.0254 1419.91L11.6021 1427.33M19.0254 1407.19H6.29971V791.052M19.0254 1407.19L19.028 791.052L19.0296 769.842M1051.93 7.36283V20.0885M1051.93 20.0885V32.8142M1051.93 20.0885H1064.65M1051.93 32.8142H1064.65M1051.93 32.8142L1051.93 648.948C1051.93 659.008 1058.13 664.952 1064.65 670.158M1064.65 20.0885H1072.07C1076.17 20.0885 1079.5 16.765 1079.5 12.6652C1079.5 10.5881 1079.5 5.24189 1079.5 5.24189C1079.5 5.24189 1074.1 5.24189 1072.07 5.24189C1067.97 5.24189 1064.65 8.56541 1064.65 12.6652V20.0885ZM1064.65 20.0885V32.8142M1064.65 20.0885L1072.07 12.6652M1064.65 32.8142H1077.38L1077.38 648.948C1077.38 659.008 1071.17 664.952 1064.65 670.158M1064.65 32.8142L1064.65 670.158M1051.93 1419.91V1432.64H609.352M1051.93 1419.91V1407.19M1051.93 1419.91H1064.65M1051.93 1419.91L587.441 1419.91M1051.93 1407.19H1064.65M1051.93 1407.19L1051.93 791.052C1051.93 780.992 1058.13 775.048 1064.65 769.842M1051.93 1407.19L609.352 1407.18M1064.65 1419.91H1072.07C1076.17 1419.91 1079.5 1423.24 1079.5 1427.33C1079.5 1429.36 1079.5 1434.76 1079.5 1434.76C1079.5 1434.76 1074.15 1434.76 1072.07 1434.76C1067.97 1434.76 1064.65 1431.43 1064.65 1427.33V1419.91ZM1064.65 1419.91V1407.19M1064.65 1419.91L1072.07 1427.33M1064.65 1407.19H1077.38L1077.38 791.052C1077.38 780.992 1071.17 775.048 1064.65 769.842M1064.65 1407.19L1064.65 769.842M1046.62 727.423C1049.8 729.544 1051.92 732.425 1051.92 738.028C1051.92 740.149 1049.8 746.512 1049.8 749.693C1049.8 759.17 1057.42 764.073 1064.65 769.842M1064.65 769.842C1071.88 764.073 1079.5 759.17 1079.5 749.693C1079.5 746.512 1077.38 740.149 1077.38 738.028C1077.38 732.425 1079.5 729.544 1082.68 727.423M1046.62 712.577C1049.8 710.456 1051.92 707.575 1051.92 701.972C1051.92 699.851 1049.8 693.488 1049.8 690.307C1049.8 680.83 1057.42 675.927 1064.65 670.158M1064.65 670.158C1071.88 675.927 1079.5 680.83 1079.5 690.307C1079.5 693.488 1077.38 699.851 1077.38 701.972C1077.38 707.575 1079.5 710.456 1082.68 712.577M1064.65 670.158C1064.65 678.642 1057.23 681.824 1057.23 687.126C1057.23 693.49 1064.65 697.731 1064.65 706.214C1064.65 697.731 1072.07 693.49 1072.07 687.126C1072.07 681.824 1064.65 678.642 1064.65 670.158ZM1 727.423C4.18142 729.544 6.30391 732.425 6.30391 738.028C6.30391 740.149 4.18142 746.512 4.18142 749.693C4.18142 759.17 11.8012 764.073 19.0296 769.842M6.30547 791.052C6.30547 780.992 12.5074 775.048 19.0296 769.842M19.0296 769.842C25.5517 775.048 31.7552 780.992 31.7552 791.052M19.0296 769.842C26.258 764.073 33.8793 759.17 33.8793 749.693C33.8793 746.512 31.7568 740.149 31.7568 738.028C31.7568 732.425 33.8793 729.544 37.0607 727.423M1 712.577C4.18142 710.456 6.30391 707.575 6.30391 701.972C6.30391 699.851 4.18142 693.488 4.18142 690.307C4.18142 680.83 11.8012 675.927 19.0296 670.158M6.30547 648.948C6.30547 659.008 12.5074 664.952 19.0296 670.158M19.0296 670.158C25.5517 664.952 31.7552 659.008 31.7552 648.948M19.0296 670.158C26.258 675.927 33.8793 680.83 33.8793 690.307C33.8793 693.488 31.7568 699.851 31.7568 701.972C31.7568 707.575 33.8793 710.456 37.0607 712.577M19.0296 670.158L19.0299 648.948M19.0296 670.158C19.0296 678.642 11.6045 681.824 11.6045 687.126C11.6045 693.49 19.0296 697.731 19.0296 706.214C19.0296 697.731 26.4511 693.49 26.4511 687.126C26.4511 681.824 19.0296 678.642 19.0296 670.158ZM496.24 1419.91C477.152 1419.91 473.971 1430.52 473.971 1435.82M496.24 1419.91C480.487 1419.91 475.568 1412.69 474.33 1407.18M496.24 1419.91C506.783 1419.91 515.329 1425.61 515.329 1432.64C516.785 1432.64 518.203 1432.53 519.565 1432.32M496.24 1419.91C506.783 1419.91 515.329 1414.21 515.329 1407.19C516.785 1407.19 518.203 1407.29 519.565 1407.5M496.24 1419.91C477.152 1419.91 473.971 1409.31 473.971 1404M496.24 1419.91C480.487 1419.91 475.568 1427.13 474.33 1432.64M473.971 1435.82C473.971 1437.58 475.395 1439 477.152 1439C478.909 1439 480.333 1437.58 480.333 1435.82C480.333 1434.06 478.909 1432.64 477.152 1432.64C476.222 1432.64 475.281 1432.64 474.33 1432.64M473.971 1435.82C473.971 1434.89 474.068 1433.8 474.33 1432.64M474.33 1407.18C475.281 1407.18 476.222 1407.19 477.152 1407.19C478.909 1407.19 480.333 1405.76 480.333 1404C480.333 1402.25 478.909 1400.82 477.152 1400.82C475.395 1400.82 473.971 1402.25 473.971 1404M474.33 1407.18C474.068 1406.02 473.971 1404.93 473.971 1404M519.565 1432.32C521.775 1431.99 523.839 1431.4 525.684 1430.6C527.613 1429.77 529.302 1428.71 530.668 1427.49M519.565 1432.32C521.779 1431.99 523.846 1431.4 525.694 1430.6C527.619 1429.77 529.305 1428.71 530.668 1427.49M530.668 1427.49C532.183 1426.13 533.299 1424.56 533.904 1422.86C534.24 1421.91 534.417 1420.93 534.417 1419.91C534.417 1418.9 534.24 1417.91 533.904 1416.97C533.299 1415.27 532.183 1413.7 530.668 1412.34M530.668 1412.34C529.305 1411.11 527.619 1410.05 525.694 1409.22C523.846 1408.43 521.779 1407.83 519.565 1407.5M530.668 1412.34C529.302 1411.11 527.613 1410.05 525.684 1409.22C523.839 1408.42 521.775 1407.83 519.565 1407.5M587.441 1419.91C606.53 1419.91 609.711 1430.52 609.711 1435.82M587.441 1419.91C603.195 1419.91 608.114 1412.69 609.352 1407.18M587.441 1419.91C576.899 1419.91 568.353 1425.61 568.353 1432.64C566.897 1432.64 565.479 1432.53 564.116 1432.32M587.441 1419.91C576.899 1419.91 568.353 1414.21 568.353 1407.19C566.897 1407.19 565.479 1407.29 564.116 1407.5M587.441 1419.91C606.53 1419.91 609.711 1409.31 609.711 1404M587.441 1419.91C603.195 1419.91 608.114 1427.13 609.352 1432.64M609.711 1435.82C609.711 1437.58 608.287 1439 606.53 1439C604.772 1439 603.348 1437.58 603.348 1435.82C603.348 1434.06 604.772 1432.64 606.53 1432.64C607.459 1432.64 608.4 1432.64 609.352 1432.64M609.711 1435.82C609.711 1434.89 609.614 1433.8 609.352 1432.64M609.352 1407.18C608.4 1407.18 607.459 1407.19 606.53 1407.19C604.772 1407.19 603.348 1405.76 603.348 1404C603.348 1402.25 604.772 1400.82 606.53 1400.82C608.287 1400.82 609.711 1402.25 609.711 1404M609.352 1407.18C609.614 1406.02 609.711 1404.93 609.711 1404M564.116 1432.32C561.907 1431.99 559.843 1431.4 557.998 1430.6C556.069 1429.77 554.379 1428.71 553.013 1427.49M564.116 1432.32C561.903 1431.99 559.835 1431.4 557.988 1430.6C556.063 1429.77 554.377 1428.71 553.013 1427.49M553.013 1427.49C551.499 1426.13 550.382 1424.56 549.778 1422.86C549.442 1421.91 549.264 1420.93 549.264 1419.91C549.264 1418.9 549.442 1417.91 549.778 1416.97C550.382 1415.27 551.499 1413.7 553.013 1412.34M553.013 1412.34C554.377 1411.11 556.063 1410.05 557.988 1409.22C559.835 1408.43 561.903 1407.83 564.116 1407.5M553.013 1412.34C554.379 1411.11 556.069 1410.05 557.998 1409.22C559.843 1408.42 561.907 1407.83 564.116 1407.5M26.4544 750.754C26.4544 745.451 19.0329 742.269 19.0329 733.785C19.0329 742.269 11.6078 745.451 11.6078 750.754C11.6078 757.118 19.0329 761.358 19.0329 769.841C19.0329 761.358 26.4544 757.118 26.4544 750.754ZM1072.08 750.754C1072.08 745.451 1064.65 742.269 1064.65 733.785C1064.65 742.269 1057.23 745.451 1057.23 750.754C1057.23 757.118 1064.65 761.358 1064.65 769.841C1064.65 761.358 1072.08 757.118 1072.08 750.754Z" stroke="#474542" stroke-linecap="round" stroke-linejoin="round"/>
</svg>
