<svg width="1271" height="524" viewBox="0 0 1271 524" fill="none" xmlns="http://www.w3.org/2000/svg">
<path opacity="0.5" d="M1 1L23.5629 39.1773C25.8465 43.0636 28.2216 46.9956 31.6928 49.8761C34.7529 52.4365 38.4982 53.9453 42.1521 55.5455C60.7413 63.6382 78.8281 74.1083 91.8908 89.6536C98.6505 97.7005 106.141 108.034 116.6 106.891C120.346 106.479 123.771 104.513 127.425 103.69C138.661 101.221 142.908 107.942 148.663 115.989C155.195 125.088 162.228 134.689 172.642 138.85C182.69 142.919 195.114 141.639 203.106 148.908C209.592 154.806 211.282 164.957 218.453 169.986C222.609 172.912 227.588 173.461 229.734 178.582C233.16 186.72 235.855 195.133 237.864 203.728C238.321 205.74 238.823 207.889 240.148 209.443C240.879 210.312 241.883 210.952 242.934 211.455C249.237 214.381 256.499 212.187 262.391 216.439C268.603 220.919 274.358 227.686 280.661 232.578C282.487 233.996 284.406 235.459 286.689 235.779C290.526 236.327 293.952 233.493 297.514 231.938C305.142 228.601 314.048 231.024 322.178 229.195C328.39 227.778 333.779 223.983 339.899 222.2C349.902 219.273 360.59 222.062 370.638 224.806C383.107 228.509 395.667 233.081 408.638 233.31C412.658 233.401 416.86 233.264 420.422 231.481C422.615 230.384 424.442 228.783 426.634 227.686C439.788 221.148 455.317 237.425 469.247 232.716C471.805 231.847 474.135 230.292 476.281 228.646C484.457 222.337 491.125 214.107 499.895 208.62C508.664 203.134 520.905 201.122 528.852 207.706C532.825 210.998 535.474 216.164 540.407 217.582C546.573 219.365 555.708 214.839 560.869 209.535C564.843 205.466 566.852 199.888 570.324 195.361C573.11 191.704 577.22 188.594 581.833 188.549C584.437 188.549 586.903 189.463 589.278 190.515C598.322 194.447 605.629 198.191 616.637 201.625C627.645 205.059 633.278 203.367 646.605 208.192C673.839 218.051 688.39 232.167 701.544 240.214C713.1 247.301 726.848 249.587 740.23 251.736C765.325 255.809 792.038 245.579 815.356 264.035C834.927 279.525 861.174 281.957 881.316 293.525C884.879 295.582 888.441 297.685 891.456 300.52C897.987 306.555 901.504 317.894 905.66 325.804L922.149 357.123L922.244 357.303C925.091 362.687 928 368.187 932.517 372.257C934.846 374.406 937.586 376.052 940.281 377.743C963.758 392.329 985.635 408.102 1008.06 424.333C1017.2 430.963 1026.47 437.638 1037.06 441.433C1059.35 449.434 1086.99 444.725 1104.52 460.682C1135.63 488.892 1180.11 491.91 1218.43 509.009L1218.94 509.235C1227.59 513.094 1236.34 516.997 1245.66 518.656C1253.79 520.12 1262.33 519.891 1270 523" stroke="#474542" stroke-width="1.5" stroke-linecap="round" stroke-linejoin="round"/>
</svg>
