<svg width="1349" height="583" viewBox="0 0 1349 583" fill="none" xmlns="http://www.w3.org/2000/svg">
<path opacity="0.5" d="M40 5L62.5629 43.1773C64.8465 47.0636 67.2216 50.9956 70.6928 53.8761C73.7529 56.4365 77.4982 57.9453 81.1521 59.5455C99.7413 67.6382 117.828 78.1083 130.891 93.6536C137.651 101.701 145.141 112.034 155.6 110.891C159.346 110.479 162.771 108.513 166.425 107.69C177.661 105.221 181.908 111.942 187.663 119.989C194.195 129.088 201.228 138.689 211.642 142.85C221.69 146.919 234.114 145.639 242.106 152.908C248.592 158.806 250.282 168.957 257.453 173.986C261.609 176.912 266.588 177.461 268.734 182.582C272.16 190.72 274.855 199.133 276.864 207.728C277.321 209.74 277.823 211.889 279.148 213.443C279.879 214.312 280.883 214.952 281.934 215.455C288.237 218.381 295.499 216.187 301.391 220.439C307.603 224.919 313.358 231.686 319.661 236.578C321.487 237.996 323.406 239.459 325.689 239.779C329.526 240.327 332.952 237.493 336.514 235.938C344.142 232.601 353.048 235.024 361.178 233.195C367.39 231.778 372.779 227.983 378.899 226.2C388.902 223.273 399.59 226.062 409.638 228.806C422.107 232.509 434.667 237.081 447.638 237.31C451.658 237.401 455.86 237.264 459.422 235.481C461.615 234.384 463.442 232.783 465.634 231.686C478.788 225.148 494.317 241.425 508.247 236.716C510.805 235.847 513.135 234.292 515.281 232.646C523.457 226.337 530.125 218.107 538.895 212.62C547.664 207.134 559.905 205.122 567.852 211.706C571.825 214.998 574.474 220.164 579.407 221.582C585.573 223.365 594.708 218.839 599.869 213.535C603.843 209.466 605.852 203.888 609.324 199.361C612.11 195.704 616.22 192.594 620.833 192.549C623.437 192.549 625.903 193.463 628.278 194.515C637.322 198.447 644.629 202.191 655.637 205.625C666.645 209.059 672.278 207.367 685.605 212.192C712.839 222.051 727.39 236.167 740.544 244.214C752.1 251.301 765.848 253.587 779.23 255.736C804.325 259.809 831.038 249.579 854.356 268.035C873.927 283.525 900.174 285.957 920.316 297.525C923.879 299.582 927.441 301.685 930.456 304.52C936.987 310.555 940.504 321.894 944.66 329.804L961.149 361.123L961.244 361.303C964.091 366.687 967 372.187 971.517 376.257C973.846 378.406 976.586 380.052 979.281 381.743C1002.76 396.329 1024.64 412.102 1047.06 428.333C1056.2 434.963 1065.47 441.638 1076.06 445.433C1098.35 453.434 1125.99 448.725 1143.52 464.682C1174.63 492.892 1219.11 495.91 1257.43 513.009L1257.94 513.235C1266.59 517.094 1275.34 520.997 1284.66 522.656C1292.79 524.12 1301.33 523.891 1309 527" stroke="#474542" stroke-width="1.5" stroke-linecap="round" stroke-linejoin="round"/>
</svg>
