<svg width="157" height="66" viewBox="0 0 157 66" fill="none" xmlns="http://www.w3.org/2000/svg">
<path d="M2.33537 53.0103L6.07552 53.3898L6.069 54.0338C4.21818 54.2107 1.96639 54.7916 1.07868 56.5838C0.412904 57.9279 0.93751 59.4823 2.28166 60.148C3.84087 60.9203 5.28483 59.5822 6.28259 58.5141C8.10006 56.6021 9.85455 54.592 12.7041 56.0035C14.9982 57.1397 15.6338 59.6865 14.5331 61.9088C13.9738 63.0379 12.9747 63.7483 12.6196 64.4651C12.4243 64.8594 12.4622 65.4138 12.5979 65.8158L8.45505 65.3931L8.47045 64.7311C10.4636 64.3569 12.9652 63.5873 13.8884 61.7234C14.5719 60.3434 14.2702 58.6093 12.7827 57.8725C8.62481 55.8131 7.10888 64.1907 2.30579 61.8116C0.047621 60.6931 -0.569112 58.4235 0.531644 56.2012C0.81571 55.6277 1.08303 55.3584 1.54648 54.9184C1.87611 54.5683 2.04561 54.4514 2.24091 54.0571C2.39182 53.7524 2.47975 53.3496 2.33537 53.0103Z" fill="#474542"/>
<path d="M17.6162 51.7926L14.8163 50.1228C14.2951 51.4654 13.9928 53.8466 15.4185 54.6968C16.2259 55.1783 17.0792 54.9188 17.489 54.2317C17.868 53.5961 17.8411 52.5089 17.6162 51.7926ZM14.2494 49.7848L13.1157 49.1087C12.274 48.6068 11.1925 48.1946 10.5779 49.2253C10.0657 50.0841 10.4174 50.7829 11.0433 51.4124C11.4837 51.8845 11.6769 52.3025 11.3081 52.9208C11.0212 53.4018 10.5346 53.554 10.0708 53.2775C8.64508 52.4272 9.29394 50.0896 9.95979 48.9731C10.39 48.2517 11.0327 47.4473 11.862 47.1501C12.7461 46.839 13.4675 47.2693 14.189 47.6995L18.1054 50.0351C18.5177 50.281 19.2735 50.7317 19.5808 50.2164C19.7549 49.9244 19.6717 49.5953 19.5714 49.256L20.0653 49.2478C20.4447 50.0563 20.7043 50.9097 20.2228 51.717C19.8028 52.4213 19.0175 52.4886 18.3238 52.168C18.4881 53.3372 18.5018 54.6028 17.8872 55.6335C17.1701 56.8359 15.8539 57.1687 14.6343 56.4414C12.3497 55.0789 13.5481 51.7418 14.2494 49.7848Z" fill="#474542"/>
<path d="M24.8848 44.7332L23.7457 43.8854C23.918 45.0608 23.915 46.4048 23.1746 47.3995C22.685 48.0573 21.9309 48.5681 21.0507 48.5113C20.1264 48.4467 19.3563 47.8735 18.6183 47.3242L15.7625 45.1986C14.8763 44.6139 14.5596 44.403 13.8311 45.3817L13.4461 45.0951L14.3265 41.9359L20.0863 46.2228C20.9366 46.8557 22.0377 47.1517 22.7661 46.173C23.3512 45.3868 23.1752 44.2835 23.0599 43.3999L19.2255 40.5459C18.3393 39.9612 18.0225 39.7503 17.2941 40.729L16.9091 40.4424L17.7895 37.2832L23.7257 41.7014C25.2338 42.8239 25.3301 42.8956 26.2824 41.8841L26.7477 42.2304L24.8848 44.7332Z" fill="#474542"/>
<path d="M23.343 34.8047L26.5799 38.2674C27.8637 39.6408 27.9457 39.7285 29.0485 38.9166L29.4445 39.3403L26.1718 42.3997L25.7757 41.976C26.66 40.9303 26.578 40.8427 25.2942 39.4693L22.3578 36.3281C21.5901 35.5947 21.316 35.3307 20.4247 36.1639L20.0969 35.8132L21.5265 32.8616L22.8786 34.308C22.7519 33.0302 23.0832 31.5981 24.0474 30.6966C24.8802 29.9181 26.0548 29.9153 27.0426 30.4155C27.102 29.0732 27.2471 27.7056 28.2845 26.7359C28.9127 26.1486 29.7166 25.8078 30.599 26.0781C31.4394 26.3328 32.176 27.15 32.7906 27.8075L35.1124 30.2912C36.3962 31.6646 36.4782 31.7523 37.5663 30.9541L37.9624 31.3778L34.7043 34.4235L34.3082 33.9998C35.1925 32.9542 35.1105 32.8665 33.8267 31.4931L31.3819 28.8779C30.6444 28.0889 29.6074 26.9502 28.5262 27.9609C27.7664 28.6711 27.5997 29.84 27.6092 30.8167L30.8461 34.2793C32.13 35.6527 32.2119 35.7404 33.3147 34.9285L33.7108 35.3522L30.4527 38.3979L30.0566 37.9742C30.9262 36.9423 30.8443 36.8546 29.5604 35.4812L27.1157 32.866C26.3782 32.077 25.2973 30.9793 24.2161 31.99C23.4564 32.7002 23.2896 33.869 23.343 34.8047Z" fill="#474542"/>
<path d="M41.591 29.8918C39.4117 31.2351 36.5271 30.0999 35.2362 28.0058C33.8719 25.7925 33.9298 22.6086 36.3304 21.1288C38.6969 19.6701 41.5373 21.1145 42.8701 23.2767C44.2134 25.4559 43.8554 28.496 41.591 29.8918ZM41.2447 29.3299C43.0153 28.2385 41.7592 25.3241 40.9512 24.0132C40.1851 22.7703 38.3452 20.6622 36.6767 21.6907C34.9572 22.7506 35.9168 25.2603 36.7249 26.5713C37.47 27.7801 39.5932 30.3479 41.2447 29.3299Z" fill="#474542"/>
<path d="M45.2382 19.031L47.1701 23.5123C47.9143 25.2387 47.9618 25.3489 49.2557 24.9654L49.4853 25.498L45.3896 27.2636L45.16 26.7309C46.3456 26.0456 46.2981 25.9354 45.5538 24.209L43.8516 20.2603C43.3769 19.3106 43.2081 18.9696 42.0878 19.4526L41.8978 19.0118L44.2407 16.7168L44.9136 18.2779C45.2869 17.2241 46.1511 16.0457 47.1796 15.6024C47.8224 15.3253 48.576 15.3053 49.2331 15.5665C50.1322 15.9848 50.5147 16.8217 50.8868 17.6849L52.4228 21.2479C53.167 22.9744 53.2145 23.0846 54.5084 22.701L54.738 23.2337L50.624 25.0071L50.3944 24.4745C51.5983 23.7813 51.5508 23.6711 50.8066 21.9447L49.421 18.7306C48.946 17.6286 48.2787 16.2828 46.8278 16.9083C46.0197 17.2567 45.5517 18.2424 45.2382 19.031Z" fill="#474542"/>
<path d="M66.4646 14.3686L59.8878 16.0157C60.3639 17.917 61.6311 20.5892 64.0562 19.9819C65.356 19.6563 66.3015 18.6567 66.7958 17.4195L67.2033 17.6474C66.7237 19.1901 65.6037 20.4808 64.0129 20.8793C61.2968 21.5595 58.764 19.8434 58.0983 17.1855C57.4764 14.7022 58.5617 11.7088 61.2778 11.0286C63.7029 10.4213 65.8913 12.0793 66.4646 14.3686ZM59.8001 15.2542L64.3205 14.1221C64.1017 12.7543 63.1066 11.251 61.4188 11.6737C59.7697 12.0867 59.5085 13.9252 59.8001 15.2542Z" fill="#474542"/>
<path d="M69.9588 11.5856L70.7777 16.3964C71.0932 18.2498 71.1133 18.3681 72.4612 18.301L72.5585 18.8727L68.1617 19.6211L68.0644 19.0494C69.3783 18.6634 69.3581 18.5451 69.0427 16.6918L68.3211 12.4527C68.0841 11.4178 68.0006 11.0466 66.7979 11.2513L66.7174 10.7781L69.536 9.10137L69.8212 10.7773C70.4329 9.84136 71.5508 8.90043 72.655 8.71249C73.345 8.59503 74.0821 8.7536 74.6589 9.16261C75.4337 9.78137 75.6078 10.685 75.7655 11.6116L76.4166 15.4366C76.7321 17.29 76.7522 17.4083 78.1001 17.3411L78.1974 17.9129L73.7809 18.6647L73.6836 18.0929C75.0172 17.7036 74.997 17.5853 74.6816 15.732L74.0943 12.2816C73.8929 11.0986 73.5623 9.63329 72.0047 9.89841C71.1372 10.0461 70.4497 10.8935 69.9588 11.5856Z" fill="#474542"/>
<path d="M86.6819 8.89711L87.8377 8.79803C90.0097 8.61182 92.0462 8.01569 91.8207 5.38534C91.6431 3.31294 89.783 2.68954 87.9697 2.845C86.4154 2.97825 86.2343 3.67626 86.3522 5.05122L86.6819 8.89711ZM86.7383 9.5547L87.1432 14.2774C87.2627 15.6723 87.6527 16.241 89.207 16.1078C91.3592 15.9233 93.2869 14.9952 93.0768 12.5442C92.8205 9.55517 90.3052 9.24891 87.8343 9.46074L86.7383 9.5547ZM89.9011 16.7107L83.5643 17.254L83.5079 16.5964C85.0822 16.4614 85.2968 15.9211 85.1072 13.7092L84.4375 5.89786C84.2496 3.7059 83.9444 3.19008 82.3702 3.32504L82.3138 2.66745L86.638 2.29674C89.1089 2.08491 93.5805 1.56105 93.9011 5.06647C94.138 7.59548 92.0457 8.47742 89.959 8.95741L89.9642 9.01719C92.1812 8.88735 95.1378 9.65762 95.3616 12.268C95.6264 15.3567 92.3919 16.4972 89.9011 16.7107Z" fill="#474542"/>
<path d="M105.411 10.2519L98.6396 10.5867C98.7363 12.5443 99.4588 15.4121 101.956 15.2887C103.294 15.2225 104.416 14.4261 105.142 13.3089L105.497 13.6118C104.726 15.0316 103.377 16.0795 101.739 16.1605C98.9419 16.2987 96.7919 14.1222 96.6566 11.3855C96.5302 8.82866 98.1777 6.104 100.974 5.96575C103.471 5.84232 105.295 7.89479 105.411 10.2519ZM98.7019 9.82265L103.356 9.59257C103.408 8.20833 102.725 6.54003 100.987 6.62594C99.2889 6.70987 98.6747 8.46233 98.7019 9.82265Z" fill="#474542"/>
<path d="M107.93 12.9436L107.639 3.82826C107.583 2.08915 107.306 2.17805 105.883 2.12344L105.865 1.54374L109.287 0.293829L109.689 12.8874C109.749 14.7664 109.753 14.8864 111.137 15.0022L111.156 15.5819L106.678 15.725L106.66 15.1453C107.994 14.9426 107.99 14.8226 107.93 12.9436Z" fill="#474542"/>
<path d="M113.116 12.7966L112.914 3.6788C112.875 1.93923 112.597 2.02541 111.175 1.95691L111.162 1.37705L114.596 0.160645L114.876 12.7576C114.917 14.6371 114.92 14.7571 116.303 14.8864L116.316 15.4663L111.837 15.5656L111.824 14.9857C113.16 14.7961 113.158 14.6761 113.116 12.7966Z" fill="#474542"/>
<path d="M125.814 9.8514L119.035 9.91885C119.054 11.8787 119.663 14.7728 122.163 14.748C123.503 14.7346 124.656 13.9831 125.425 12.8954L125.768 13.212C124.942 14.6003 123.551 15.5942 121.912 15.6105C119.112 15.6384 117.049 13.3788 117.022 10.6389C116.996 8.07903 118.75 5.42146 121.55 5.3936C124.05 5.36873 125.791 7.49151 125.814 9.8514ZM119.127 9.15789L123.787 9.11153C123.893 7.7304 123.276 6.03646 121.536 6.05377C119.837 6.07068 119.154 7.79756 119.127 9.15789Z" fill="#474542"/>
<path d="M131.407 12.881L133.056 8.54443C133.197 8.14472 133.458 7.58527 133.459 7.16527C133.461 6.40527 132.801 6.16389 132.141 6.16251L132.142 5.58251L136.102 5.5908L136.101 6.1708C135.801 6.19017 135.481 6.1895 135.241 6.389C134.86 6.7282 134.458 7.80736 134.277 8.28698L131.442 15.3611L130.482 15.3591L127.478 7.69274C127.179 6.97212 126.981 6.1717 126.061 6.14977L126.062 5.56977L130.502 5.57907L130.501 6.15907C129.981 6.15798 129.221 6.23639 129.219 6.91639C129.219 7.21639 129.418 7.73681 129.517 7.99701L131.407 12.881Z" fill="#474542"/>
<path d="M143.118 15.4562L143.134 14.0363C142.285 14.8665 141.195 15.654 139.955 15.6398C139.136 15.6303 138.279 15.3204 137.808 14.5749C137.317 13.7892 137.328 12.8293 137.338 11.9094L137.379 8.34959C137.331 7.28897 137.316 6.90877 136.096 6.89471L136.101 6.41475L139.175 5.27007L139.092 12.4496C139.08 13.5095 139.488 14.5743 140.708 14.5883C141.688 14.5996 142.477 13.8087 143.124 13.1961L143.179 8.4164C143.131 7.35578 143.115 6.97558 141.896 6.96152L141.901 6.48155L144.974 5.33688L144.889 12.7364C144.868 14.6163 144.866 14.7363 146.244 14.9121L146.238 15.4921L143.118 15.4562Z" fill="#474542"/>
<path d="M156.261 10.1714L149.482 10.0472C149.447 12.0069 149.973 14.917 152.473 14.9628C153.813 14.9874 154.986 14.2687 155.786 13.2032L156.12 13.5294C155.255 14.8938 153.837 15.848 152.197 15.8179C149.398 15.7666 147.4 13.4496 147.45 10.71C147.497 8.15048 149.325 5.54354 152.125 5.59485C154.624 5.64066 156.305 7.81182 156.261 10.1714ZM149.596 9.28914L154.256 9.37454C154.401 7.99697 153.832 6.28626 152.092 6.25437C150.393 6.22322 149.661 7.9301 149.596 9.28914Z" fill="#474542"/>
</svg>
