<svg width="210" height="20" viewBox="0 0 210 20" fill="none" xmlns="http://www.w3.org/2000/svg">
<path d="M10.0466 1.794L11.7165 5.98477L11.0275 6.33492C9.81304 4.46332 7.94629 2.38901 5.54679 2.43801C3.74717 2.47477 2.38388 3.8949 2.42064 5.69453C2.46327 7.78209 4.68796 8.57683 6.3779 9.04642C9.42039 9.92048 12.5324 10.6731 12.6103 14.4883C12.673 17.5597 10.3152 19.6482 7.33982 19.709C5.82814 19.7399 4.5182 19.0705 3.5584 19.0901C3.03051 19.1009 2.46149 19.4486 2.10891 19.8158L0.261719 15.1726L0.974708 14.822C2.4781 16.7357 4.6842 18.9711 7.17968 18.9201C9.0273 18.8824 10.7055 17.5998 10.6648 15.6083C10.5511 10.0414 0.794964 13.0733 0.663629 6.6426C0.601883 3.61923 2.67522 1.7045 5.6506 1.64373C6.41844 1.62805 6.85329 1.7632 7.57853 2.01244C8.13384 2.16913 8.35225 2.2847 8.88014 2.27392C9.28805 2.26558 9.7655 2.13581 10.0466 1.794Z" fill="#474542"/>
<path d="M20.3376 16.8651L20.2843 12.9534C18.5844 13.2646 15.9603 14.4524 15.9875 16.4442C16.0028 17.5721 16.8045 18.2813 17.7645 18.2682C18.6524 18.2561 19.7468 17.5452 20.3376 16.8651ZM20.2736 12.1615L20.252 10.5776C20.236 9.40174 19.9774 8.03714 18.5375 8.05674C17.3376 8.07308 16.8445 8.87186 16.5945 9.90736C16.3887 10.6542 16.0829 11.1144 15.219 11.1262C14.5471 11.1353 14.0855 10.7336 14.0767 10.0857C14.0496 8.09384 16.8469 7.28768 18.4067 7.26645C19.4147 7.25273 20.6408 7.40405 21.4659 8.06488C22.3396 8.77305 22.3533 9.78095 22.3671 10.7889L22.4416 16.2604C22.4494 16.8363 22.4638 17.8922 23.1837 17.8824C23.5917 17.8768 23.8757 17.585 24.1594 17.2691L24.4783 17.7688C23.8904 18.6649 23.1813 19.4666 22.0534 19.4819C21.0695 19.4953 20.5071 18.7349 20.3987 17.8243C19.3068 18.7273 18.0217 19.5368 16.5819 19.5564C14.902 19.5793 13.7345 18.4431 13.7113 16.7392C13.6678 13.5475 17.8323 12.6748 20.2736 12.1615Z" fill="#474542"/>
<path d="M33.136 19.096L33.12 17.3921C32.1215 18.4096 30.8346 19.3817 29.3467 19.3957C28.3627 19.405 27.3274 19.0548 26.743 18.1722C26.1342 17.2419 26.1234 16.09 26.113 14.986L26.0727 10.7142C25.9887 9.44295 25.9604 8.9872 24.4965 9.001L24.4911 8.42502L28.1496 6.97448L28.2308 15.5901C28.2428 16.862 28.7587 18.1292 30.2227 18.1154C31.3986 18.1044 32.3255 17.1356 33.0865 16.3844L33.0324 10.6486C32.9484 9.37736 32.9201 8.9216 31.4562 8.9354L31.4508 8.35943L35.1093 6.90888L35.1929 15.7885C35.2142 18.0444 35.2156 18.1884 36.8733 18.3648L36.8799 19.0607L33.136 19.096Z" fill="#474542"/>
<path d="M41.7005 10.0514L41.7313 15.7393C41.7435 17.9953 41.7442 18.1393 43.3773 18.3225L43.381 19.0185L38.0051 19.0476L38.0013 18.3516C39.6323 18.1507 39.6315 18.0067 39.6193 15.7508L39.5914 10.5908C39.5125 9.31926 39.486 8.86339 38.022 8.87131L38.0189 8.29532L41.6832 6.85947L41.6961 9.23544C42.6254 8.00639 44.0841 7.01449 45.6681 7.00592C47.036 6.99852 48.0732 7.95292 48.536 9.19843C49.6818 8.06422 50.924 6.97748 52.628 6.96826C53.66 6.96268 54.6459 7.31735 55.2031 8.27435C55.736 9.18348 55.7191 10.5036 55.725 11.5836L55.7471 15.6635C55.7593 17.9195 55.76 18.0635 57.3691 18.2468L57.3728 18.9428L52.0209 18.9717L52.0171 18.2757C53.6481 18.0749 53.6473 17.9309 53.6351 15.6749L53.6118 11.379C53.6048 10.083 53.6188 8.23492 51.8429 8.24453C50.5949 8.25128 49.4957 9.14524 48.7084 10.0135L48.7392 15.7014C48.7514 17.9574 48.7521 18.1014 50.3852 18.2846L50.3889 18.9806L45.037 19.0095L45.0332 18.3135C46.6402 18.1128 46.6394 17.9688 46.6272 15.7129L46.6039 11.4169C46.5969 10.1209 46.5389 8.27322 44.763 8.28283C43.515 8.28959 42.4158 9.18355 41.7005 10.0514Z" fill="#474542"/>
<path d="M63.8741 19.1964C60.8021 19.205 58.5618 16.2352 58.5535 13.2832C58.5448 10.1633 60.5998 6.9415 63.9838 6.93205C67.3198 6.92274 69.3209 10.1812 69.3294 13.2291C69.338 16.3011 67.066 19.1875 63.8741 19.1964ZM63.8718 18.4044C66.3678 18.3974 66.9093 14.6279 66.9041 12.7799C66.8993 11.0279 66.338 7.71748 63.986 7.72405C61.562 7.73082 60.9709 10.9005 60.976 12.7485C60.9808 14.4525 61.5439 18.4109 63.8718 18.4044Z" fill="#474542"/>
<path d="M74.5566 9.76491L74.5627 15.6209C74.5651 17.8769 74.5653 18.0209 76.1735 18.2112L76.1742 18.9072L70.8222 18.9128L70.8215 18.2168C72.4533 18.0231 72.4531 17.8791 72.4507 15.6231L72.4453 10.4631C72.372 9.1912 72.3475 8.73523 70.8835 8.73676L70.8829 8.16076L74.5535 6.74091L74.5556 8.78091C75.4666 7.79596 76.9776 6.90638 78.3216 6.90497C79.1616 6.90409 80.002 7.23921 80.6026 7.83858C81.3955 8.72575 81.4207 9.82972 81.4219 10.9577L81.4267 15.6137C81.4291 17.8697 81.4293 18.0137 83.0375 18.204L83.0382 18.9L77.6622 18.9057L77.6615 18.2097C79.3173 18.0159 79.3171 17.8719 79.3147 15.6159L79.3103 11.4159C79.3088 9.97594 79.211 8.17604 77.315 8.17802C76.259 8.17913 75.2759 9.04416 74.5566 9.76491Z" fill="#474542"/>
<path d="M100.87 12.3115L92.7341 12.3044C92.732 14.6564 93.425 18.1371 96.425 18.1397C98.033 18.1411 99.4258 17.2543 100.363 15.9591L100.771 16.3435C99.7611 17.9986 98.0801 19.1731 96.1121 19.1714C92.7521 19.1685 90.3065 16.4303 90.3093 13.1423C90.312 10.0703 92.4508 6.9042 95.8108 6.90713C98.8108 6.90975 100.873 9.47955 100.87 12.3115ZM92.8549 11.3926L98.4469 11.3974C98.5923 9.74156 97.8741 7.70093 95.7861 7.69911C93.7461 7.69733 92.9043 9.7606 92.8549 11.3926Z" fill="#474542"/>
<path d="M105.816 9.77878L105.803 15.6348C105.799 17.8908 105.798 18.0348 107.406 18.2301L107.404 18.9261L102.052 18.9149L102.054 18.2189C103.686 18.0303 103.687 17.8863 103.691 15.6303L103.702 10.4704C103.633 9.19821 103.61 8.74216 102.146 8.73909L102.147 8.1631L105.822 6.75479L105.818 8.79479C106.732 7.8127 108.246 6.92787 109.59 6.93068C110.43 6.93244 111.269 7.2702 111.868 7.87145C112.658 8.76111 112.679 9.86516 112.677 10.9932L112.667 15.6491C112.663 17.9051 112.662 18.0491 114.27 18.2445L114.268 18.9405L108.892 18.9292L108.894 18.2332C110.55 18.0447 110.551 17.9007 110.555 15.6447L110.564 11.4447C110.567 10.0047 110.475 8.20454 108.579 8.20057C107.523 8.19836 106.537 9.06029 105.816 9.77878Z" fill="#474542"/>
<path d="M126.21 9.30721L127.601 9.31231C130.217 9.3219 132.715 8.82705 132.727 5.65907C132.736 3.16309 130.58 2.21918 128.396 2.21117C126.524 2.20431 126.233 3.01925 126.226 4.67524L126.21 9.30721ZM126.207 10.0992L126.186 15.7872C126.18 17.4672 126.585 18.1886 128.457 18.1955C131.049 18.205 133.452 17.3018 133.463 14.3498C133.476 10.7499 130.503 10.1149 127.527 10.104L126.207 10.0992ZM129.222 18.9903L121.59 18.9623L121.593 18.1703C123.489 18.1773 123.803 17.5544 123.813 14.8905L123.848 5.48252C123.857 2.84254 123.548 2.1934 121.652 2.18645L121.654 1.39446L126.862 1.41355C129.838 1.42445 135.239 1.27625 135.248 5.50031C135.26 8.54838 132.665 9.37887 130.12 9.72954L130.12 9.80154C132.783 9.88331 136.235 11.12 136.223 14.2639C136.21 17.9839 132.222 19.0013 129.222 18.9903Z" fill="#474542"/>
<path d="M148.573 12.4677L140.437 12.4307C140.426 14.7827 141.107 18.2658 144.107 18.2794C145.715 18.2867 147.111 17.4051 148.052 16.1133L148.459 16.4992C147.443 18.1506 145.758 19.319 143.79 19.31C140.43 19.2948 137.994 16.5477 138.009 13.2597C138.023 10.1878 140.174 7.02949 143.534 7.04473C146.533 7.05835 148.586 9.63569 148.573 12.4677ZM140.561 11.5193L146.153 11.5447C146.305 9.88934 145.594 7.84609 143.506 7.83662C141.466 7.82736 140.617 9.88753 140.561 11.5193Z" fill="#474542"/>
<path d="M151.554 15.7961L151.609 4.85227C151.62 2.7643 151.283 2.85859 149.58 2.72997L149.583 2.03398L153.742 0.687012L153.666 15.8068C153.654 18.0628 153.654 18.2068 155.309 18.4072L155.305 19.1032L149.929 19.0759L149.933 18.38C151.542 18.1961 151.542 18.0521 151.554 15.7961Z" fill="#474542"/>
<path d="M157.847 15.8307L157.906 4.88687C157.918 2.7989 157.581 2.89308 155.878 2.76386L155.882 2.06787L160.041 0.722355L159.959 15.8421C159.947 18.0981 159.946 18.2421 161.601 18.4431L161.597 19.139L156.221 19.11L156.225 18.414C157.834 18.2307 157.835 18.0867 157.847 15.8307Z" fill="#474542"/>
<path d="M173.206 12.6067L165.07 12.5584C165.056 14.9104 165.731 18.3944 168.731 18.4122C170.339 18.4218 171.736 17.5421 172.68 16.2516L173.086 16.638C172.068 18.288 170.381 19.454 168.413 19.4424C165.053 19.4224 162.621 16.6719 162.641 13.384C162.659 10.3121 164.814 7.15679 168.174 7.17673C171.174 7.19453 173.222 9.77473 173.206 12.6067ZM165.195 11.6471L170.787 11.6803C170.941 10.0252 170.233 7.98096 168.145 7.96857C166.105 7.95647 165.253 10.0154 165.195 11.6471Z" fill="#474542"/>
<path d="M179.953 16.274L181.956 11.0791C182.127 10.6003 182.443 9.93034 182.447 9.42635C182.453 8.51437 181.663 8.22113 180.871 8.21587L180.875 7.51989L185.627 7.5514L185.623 8.24739C185.262 8.269 184.878 8.26645 184.589 8.50454C184.13 8.90951 183.642 10.2023 183.422 10.7768L179.981 19.2502L178.829 19.2426L175.266 10.0267C174.912 9.16038 174.679 8.19881 173.575 8.16748L173.579 7.4715L178.907 7.50684L178.903 8.20282C178.279 8.19868 177.366 8.28863 177.361 9.10461C177.358 9.46461 177.594 10.0902 177.712 10.403L179.953 16.274Z" fill="#474542"/>
<path d="M194.085 19.3485L194.098 17.6445C193.083 18.6451 191.78 19.5956 190.292 19.5847C189.308 19.5775 188.278 19.2099 187.709 18.3177C187.116 17.3773 187.124 16.2254 187.132 15.1214L187.164 10.8495C187.101 9.57703 187.08 9.12086 185.616 9.11013L185.62 8.53415L189.303 7.1451L189.24 15.7609C189.23 17.0328 189.725 18.3085 191.189 18.3192C192.365 18.3279 193.308 17.3747 194.081 16.6364L194.123 10.9005C194.061 9.62805 194.04 9.17188 192.576 9.16115L192.58 8.58517L196.263 7.19612L196.198 16.0759C196.181 18.3318 196.18 18.4758 197.834 18.68L197.829 19.3759L194.085 19.3485Z" fill="#474542"/>
<path d="M209.852 12.8727L201.716 12.8074C201.697 15.1593 202.365 18.6448 205.365 18.6689C206.973 18.6818 208.372 17.805 209.319 16.5165L209.724 16.9038C208.702 18.5516 207.013 19.7141 205.045 19.6983C201.685 19.6713 199.259 16.9158 199.286 13.6279C199.31 10.556 201.472 7.40523 204.832 7.43221C207.831 7.45629 209.875 10.0408 209.852 12.8727ZM201.844 11.8964L207.435 11.9413C207.593 10.2865 206.889 8.24075 204.801 8.22399C202.761 8.20761 201.905 10.2648 201.844 11.8964Z" fill="#474542"/>
</svg>
