<svg width="281" height="28" viewBox="0 0 281 28" fill="none" xmlns="http://www.w3.org/2000/svg">
<path d="M14.4742 0.79896L16.5172 6.45634L15.5838 6.89297C14.0468 4.346 11.6494 1.5005 8.44962 1.46141C6.0498 1.43209 4.17127 3.26528 4.14195 5.6651C4.10793 8.44889 7.03803 9.60477 9.26966 10.3041C13.2861 11.6013 17.4005 12.7396 17.3383 17.8272C17.2883 21.9229 14.0553 24.6036 10.0876 24.5551C8.07176 24.5305 6.35523 23.5815 5.07532 23.5658C4.37138 23.5572 3.59796 23.9958 3.11213 24.4699L0.852539 18.2018L1.81794 17.7656C3.73813 20.3813 6.58077 23.4562 9.90853 23.4969C12.3723 23.527 14.6645 21.8909 14.697 19.2351C14.7876 11.8116 1.65449 15.4274 1.75927 6.85207C1.80853 2.82038 4.65481 0.358964 8.62251 0.407441C9.64644 0.419952 10.22 0.618975 11.1757 0.982678C11.9089 1.21565 12.1949 1.37916 12.8989 1.38776C13.4428 1.3944 14.0847 1.24224 14.4742 0.79896Z" fill="#474542"/>
<path d="M27.6369 21.2545L27.7016 16.0389C25.425 16.3947 21.8862 17.887 21.8533 20.5428C21.8347 22.0467 22.8787 23.0197 24.1586 23.0356C25.3425 23.0502 26.8259 22.1405 27.6369 21.2545ZM27.7147 14.983L27.7408 12.8712C27.7603 11.3033 27.4629 9.47547 25.543 9.45167C23.9432 9.43185 23.2581 10.4794 22.8891 11.851C22.5888 12.8393 22.1653 13.4421 21.0134 13.4279C20.1175 13.4167 19.5163 12.8653 19.527 12.0013C19.5599 9.34553 23.3163 8.368 25.3961 8.39377C26.74 8.41043 28.3691 8.65463 29.4459 9.56404C30.586 10.5382 30.5693 11.8821 30.5526 13.226L30.4622 20.5215C30.4527 21.2894 30.4353 22.6973 31.3952 22.7092C31.9392 22.716 32.3279 22.3367 32.717 21.9255L33.1246 22.6026C32.31 23.7766 31.337 24.8207 29.8331 24.802C28.5212 24.7858 27.798 23.7527 27.6851 22.5352C26.1985 23.7009 24.4576 24.7354 22.5377 24.7116C20.2979 24.6839 18.781 23.1289 18.8092 20.8571C18.8619 16.6014 24.443 15.5825 27.7147 14.983Z" fill="#474542"/>
<path d="M44.6789 24.6367L44.707 22.3649C43.3465 23.6921 41.6027 24.9506 39.6189 24.9261C38.307 24.9098 36.937 24.4128 36.1838 23.2194C35.3993 21.9615 35.4183 20.4257 35.4366 18.9538L35.5072 13.2582C35.4322 11.5611 35.4077 10.9528 33.4559 10.9286L33.4654 10.1607L38.3844 8.33348L38.2421 19.8206C38.221 21.5165 38.872 23.2207 40.8238 23.2449C42.3917 23.2643 43.6555 21.9998 44.6917 21.0206L44.7864 13.3732C44.7115 11.6761 44.687 11.0678 42.7352 11.0436L42.7447 10.2757L47.6637 8.44847L47.517 20.2876C47.4797 23.2953 47.4773 23.4873 49.682 23.7707L49.6705 24.6986L44.6789 24.6367Z" fill="#474542"/>
<path d="M56.394 12.809L56.3 20.3924C56.2628 23.4002 56.2604 23.5921 58.4331 23.8751L58.4216 24.803L51.2541 24.7142L51.2656 23.7863C53.4446 23.5572 53.447 23.3653 53.4843 20.3575L53.5695 13.478C53.4945 11.781 53.4701 11.1726 51.5182 11.1484L51.5277 10.3805L56.4468 8.55329L56.4075 11.7211C57.6756 10.1046 59.6437 8.81693 61.7556 8.8431C63.5794 8.8657 64.9395 10.1627 65.5268 11.8341C67.0813 10.3492 68.763 8.92994 71.0349 8.9581C72.4108 8.97515 73.7167 9.47137 74.4368 10.7604C75.1257 11.985 75.0719 13.7445 75.054 15.1844L74.9866 20.624C74.9493 23.6317 74.947 23.8237 77.0876 24.1063L77.0761 25.0342L69.9407 24.9458L69.9522 24.0178C72.1312 23.7888 72.1336 23.5968 72.1708 20.5891L72.2418 14.8615C72.2632 13.1336 72.3257 10.6702 69.9579 10.6409C68.2941 10.6203 66.8075 11.7859 65.7373 12.9248L65.6433 20.5082C65.6061 23.5159 65.6037 23.7079 67.7763 23.9909L67.7648 24.9188L60.6294 24.8304L60.6409 23.9024C62.7879 23.673 62.7903 23.481 62.8275 20.4733L62.8985 14.7457C62.9199 13.0179 62.8865 10.5532 60.5187 10.5239C58.8548 10.5033 57.3682 11.669 56.394 12.809Z" fill="#474542"/>
<path d="M85.7688 25.4943C81.6732 25.4435 78.7466 21.4389 78.7953 17.5032C78.8469 13.3435 81.6518 9.08998 86.1635 9.14589C90.6111 9.20101 93.213 13.5856 93.1626 17.6493C93.1119 21.745 90.0245 25.547 85.7688 25.4943ZM85.7819 24.4383C89.1097 24.4796 89.9079 19.4651 89.9384 17.0013C89.9674 14.6654 89.2861 10.2407 86.1504 10.2018C82.9186 10.1618 82.0663 14.3755 82.0358 16.8393C82.0077 19.1112 82.6782 24.3999 85.7819 24.4383Z" fill="#474542"/>
<path d="M100.234 13.1295L100.137 20.9369C100.1 23.9447 100.098 24.1367 102.238 24.4192L102.227 25.3472L95.0915 25.2587L95.103 24.3308C97.282 24.1018 97.2843 23.9098 97.3216 20.902L97.4069 14.0226C97.3319 12.3255 97.3074 11.7172 95.3556 11.693L95.3651 10.925L100.284 9.09785L100.25 11.8176C101.483 10.5208 103.513 9.36188 105.305 9.38409C106.425 9.39797 107.539 9.85981 108.329 10.6697C109.371 11.8667 109.384 13.3389 109.366 14.8428L109.289 21.0504C109.251 24.0581 109.249 24.2501 111.39 24.5327L111.378 25.4606L104.211 25.3718L104.222 24.4438C106.433 24.2152 106.436 24.0232 106.473 21.0155L106.542 15.4159C106.566 13.496 106.468 11.0946 103.94 11.0633C102.532 11.0459 101.206 12.1815 100.234 13.1295Z" fill="#474542"/>
<path d="M135.289 16.9506L124.442 16.8161C124.403 19.9519 125.273 24.603 129.273 24.6526C131.417 24.6792 133.287 23.5183 134.556 21.8059L135.094 22.3246C133.723 24.5157 131.464 26.0559 128.84 26.0233C124.36 25.9678 121.142 22.2797 121.196 17.896C121.247 13.8003 124.147 9.61193 128.626 9.66745C132.626 9.71701 135.335 13.1749 135.289 16.9506ZM124.617 15.6022L132.072 15.6946C132.291 13.4892 131.365 10.7575 128.581 10.723C125.862 10.6893 124.708 13.4272 124.617 15.6022Z" fill="#474542"/>
<path d="M141.925 13.6378L141.828 21.4452C141.791 24.453 141.789 24.645 143.929 24.9275L143.918 25.8554L136.782 25.767L136.794 24.8391C138.973 24.6101 138.975 24.4181 139.013 21.4103L139.098 14.5308C139.023 12.8338 138.998 12.2254 137.047 12.2012L137.056 11.4333L141.975 9.60611L141.941 12.3259C143.174 11.0291 145.204 9.87014 146.996 9.89235C148.116 9.90622 149.23 10.3681 150.02 11.1779C151.061 12.3749 151.075 13.8472 151.057 15.3511L150.98 21.5586C150.942 24.5664 150.94 24.7584 153.081 25.0409L153.069 25.9688L145.902 25.88L145.913 24.9521C148.124 24.7235 148.127 24.5315 148.164 21.5237L148.233 15.9241C148.257 14.0043 148.159 11.6029 145.631 11.5716C144.223 11.5541 142.897 12.6898 141.925 13.6378Z" fill="#474542"/>
<path d="M169.099 13.274L170.954 13.297C174.442 13.3402 177.778 12.7095 177.831 8.48584C177.872 5.1581 175.007 3.87451 172.096 3.83842C169.6 3.8075 169.202 4.89065 169.175 7.09848L169.099 13.274ZM169.085 14.3299L168.991 21.9133C168.964 24.1532 169.496 25.1198 171.992 25.1508C175.447 25.1936 178.662 24.0173 178.711 20.0816C178.77 15.282 174.813 14.4009 170.845 14.3517L169.085 14.3299ZM173.002 26.2194L162.827 26.0933L162.84 25.0374C165.368 25.0687 165.794 24.2419 165.838 20.6902L165.994 8.14714C166.037 4.62741 165.632 3.75833 163.104 3.727L163.117 2.67108L170.061 2.75713C174.029 2.8063 181.231 2.67153 181.193 8.3035C181.175 12.3676 177.705 13.4447 174.307 13.8826L174.306 13.9786C177.857 14.1186 182.444 15.8076 182.392 19.9993C182.331 24.9589 177.002 26.2689 173.002 26.2194Z" fill="#474542"/>
<path d="M198.902 17.7401L188.055 17.6057C188.016 20.7414 188.886 25.3926 192.886 25.4421C195.03 25.4687 196.9 24.3078 198.17 22.5954L198.707 23.1141C197.336 25.3053 195.077 26.8454 192.453 26.8129C187.973 26.7574 184.755 23.0692 184.809 18.6855C184.86 14.5899 187.76 10.4015 192.239 10.457C196.239 10.5066 198.949 13.9644 198.902 17.7401ZM188.23 16.3918L195.685 16.4841C195.904 14.2787 194.978 11.547 192.194 11.5125C189.475 11.4788 188.321 14.2167 188.23 16.3918Z" fill="#474542"/>
<path d="M202.827 22.1981L203.008 7.6072C203.043 4.82341 202.593 4.94585 200.323 4.75771L200.335 3.82978L205.893 2.07452L205.643 22.233C205.606 25.2407 205.604 25.4327 207.808 25.7161L207.797 26.644L200.629 26.5552L200.641 25.6272C202.788 25.3978 202.79 25.2058 202.827 22.1981Z" fill="#474542"/>
<path d="M211.23 22.3072L211.411 7.71628C211.446 4.9325 210.996 5.05494 208.726 4.86679L208.738 3.93887L214.296 2.18361L214.046 22.3421C214.009 25.3498 214.007 25.5418 216.211 25.8252L216.2 26.7531L209.032 26.6643L209.044 25.7363C211.191 25.5069 211.193 25.3149 211.23 22.3072Z" fill="#474542"/>
<path d="M231.747 18.1364L220.9 18.002C220.861 21.1378 221.731 25.7889 225.731 25.8385C227.875 25.8651 229.745 24.7041 231.015 22.9917L231.552 23.5104C230.181 25.7016 227.922 27.2417 225.298 27.2092C220.818 27.1537 217.6 23.4655 217.654 19.0819C217.705 14.9862 220.605 10.7978 225.085 10.8533C229.084 10.9029 231.794 14.3607 231.747 18.1364ZM221.075 16.7881L228.53 16.8805C228.75 14.675 227.823 11.9433 225.04 11.9089C222.32 11.8751 221.166 14.6131 221.075 16.7881Z" fill="#474542"/>
<path d="M240.714 23.0773L243.423 16.1663C243.655 15.5291 244.082 14.6384 244.091 13.9664C244.106 12.7505 243.055 12.3534 241.999 12.3404L242.01 11.4124L248.346 11.4909L248.334 12.4189C247.854 12.4449 247.342 12.4386 246.954 12.7538C246.339 13.2902 245.678 15.0101 245.38 15.7745L240.728 27.0457L239.193 27.0267L234.513 14.7118C234.047 13.5539 233.743 12.27 232.272 12.2198L232.283 11.2919L239.386 11.3799L239.375 12.3078C238.543 12.2975 237.326 12.4105 237.312 13.4984C237.306 13.9783 237.616 14.8142 237.771 15.2322L240.714 23.0773Z" fill="#474542"/>
<path d="M259.559 27.2821L259.588 25.0103C258.227 26.3375 256.483 27.596 254.5 27.5714C253.188 27.5552 251.818 27.0581 251.064 25.8647C250.28 24.6069 250.299 23.071 250.317 21.5991L250.388 15.9036C250.313 14.2065 250.288 13.5982 248.337 13.574L248.346 12.806L253.265 10.9788L253.123 22.466C253.102 24.1618 253.753 25.866 255.704 25.8902C257.272 25.9097 258.536 24.6452 259.572 23.666L259.667 16.0186C259.592 14.3215 259.568 13.7132 257.616 13.689L257.625 12.921L262.544 11.0938L262.398 22.9329C262.36 25.9407 262.358 26.1327 264.563 26.416L264.551 27.344L259.559 27.2821Z" fill="#474542"/>
<path d="M280.612 18.7423L269.765 18.6079C269.726 21.7436 270.596 26.3948 274.596 26.4443C276.74 26.4709 278.61 25.31 279.88 23.5976L280.417 24.1163C279.046 26.3075 276.787 27.8476 274.163 27.8151C269.683 27.7596 266.465 24.0714 266.519 19.6877C266.57 15.592 269.47 11.4037 273.949 11.4592C277.949 11.5087 280.659 14.9666 280.612 18.7423ZM269.94 17.3939L277.395 17.4863C277.614 15.2809 276.688 12.5492 273.904 12.5147C271.185 12.481 270.031 15.2189 269.94 17.3939Z" fill="#474542"/>
</svg>
