<svg width="210" height="67" viewBox="0 0 210 67" fill="none" xmlns="http://www.w3.org/2000/svg">
<path d="M7.09506 29.915L12.7744 32.3418L12.503 33.1867C9.66518 32.8787 5.41646 33.1294 3.34779 35.3132C-0.305383 39.1696 2.81867 44.2007 5.93165 47.1496C9.27694 50.3187 15.4355 52.8909 19.1988 48.9184C21.5535 46.4327 21.3969 43.1547 20.5214 40.0773L21.2623 39.8535C22.8152 43.7049 22.7285 48.0306 19.7796 51.1436C15.4442 55.7202 8.90663 55.0369 4.56239 50.9216C2.44836 48.9189 0.994529 46.2194 0.35132 43.362C-0.362809 40.3934 -0.0914865 37.036 2.13123 34.6897C2.90148 33.8766 3.65951 33.4486 4.32951 33.1136C5.02153 32.7553 5.62429 32.4448 6.08644 31.9569C6.65862 31.3529 6.86645 30.6682 7.09506 29.915Z" fill="#474542"/>
<path d="M30.8738 41.2612C27.6116 43.7382 22.8419 42.3777 20.4616 39.243C17.9459 35.9299 17.5445 30.8506 21.138 28.122C24.6805 25.4321 29.4276 27.292 31.8853 30.5286C34.3623 33.7908 34.2634 38.6875 30.8738 41.2612ZM30.2352 40.4202C32.8857 38.4076 30.4336 33.9613 28.9436 31.9989C27.5309 30.1385 24.2742 27.0666 21.7766 28.963C19.2026 30.9175 21.1198 34.7654 22.6099 36.7278C23.9839 38.5373 27.7631 42.2973 30.2352 40.4202Z" fill="#474542"/>
<path d="M34.0277 23.9956L37.8071 30.828C39.2631 33.4601 39.356 33.6281 41.356 32.8143L41.8052 33.6263L35.5609 37.0805L35.1117 36.2685C36.8919 34.9912 36.799 34.8232 35.343 32.191L32.0127 26.1707C31.1078 24.7331 30.7855 24.2166 29.0774 25.1615L28.7056 24.4894L32.076 20.4675L33.3926 22.8476C33.8216 21.1109 35.0125 19.099 36.5806 18.2316C37.5607 17.6895 38.7576 17.5394 39.8448 17.8522C41.342 18.3771 42.0825 19.6496 42.8105 20.9657L45.8155 26.398C47.2715 29.0301 47.3644 29.1981 49.3644 28.3843L49.8136 29.1964L43.5413 32.666L43.0921 31.854C44.9003 30.5612 44.8074 30.3932 43.3514 27.761L40.6407 22.8608C39.7113 21.1807 38.4376 19.1426 36.2255 20.3662C34.9934 21.0478 34.403 22.6909 34.0277 23.9956Z" fill="#474542"/>
<path d="M52.3915 10.9436L56.0351 15.112L55.4738 15.7812C53.2745 14.4828 50.6301 13.0163 48.2196 13.9692C47.059 14.428 46.1863 15.7021 46.6687 16.9222C48.1039 20.5528 56.9071 15.4899 59.06 20.9358C60.0717 23.495 58.3664 26.4058 55.9857 27.347C55.2417 27.6411 54.6237 27.6445 53.8569 27.7068C53.4527 27.7289 53.0368 27.7213 52.6499 27.8743C52.025 28.1213 51.5357 28.6244 51.1945 29.241L47.3495 24.9114L47.8748 24.3252C49.7468 25.753 53.5441 27.1767 55.776 26.2943C57.1449 25.7532 57.983 24.2175 57.4301 22.8188C55.9125 18.9799 47.3163 24.3052 45.1869 18.9188C44.1869 16.3893 45.8376 13.7754 48.1885 12.846C49.2599 12.4225 50.4896 12.4869 51.3229 12.1575C51.8883 11.9339 52.1991 11.5014 52.3915 10.9436Z" fill="#474542"/>
<path d="M66.9785 23.8265C63.017 24.8673 59.1304 21.7857 58.1303 17.9789C57.0732 13.9554 58.6453 9.10889 63.0092 7.96241C67.3113 6.83219 70.9859 10.3665 72.0186 14.2971C73.0593 18.2587 71.0948 22.7451 66.9785 23.8265ZM66.7102 22.8052C69.929 21.9595 69.3642 16.9134 68.7381 14.5303C68.1446 12.271 66.3106 8.1869 63.2776 8.98375C60.1516 9.80498 60.4512 14.0936 61.0773 16.4768C61.6546 18.6742 63.7081 23.5939 66.7102 22.8052Z" fill="#474542"/>
<path d="M76.3578 9.04472L77.1097 16.5914C77.408 19.5845 77.427 19.7756 79.6177 19.8146L79.7097 20.738L72.577 21.4487L72.485 20.5253C74.6249 20.0548 74.6058 19.8637 74.3076 16.8706L73.6255 10.0244C73.3618 8.34632 73.2697 7.74449 71.3273 7.93802L71.2512 7.17381L75.9359 4.80969L76.25 7.96208C77.33 6.21439 79.1423 4.71532 81.2439 4.50592C83.0589 4.32508 84.555 5.46235 85.325 7.05787C86.7043 5.40899 88.2174 3.81111 90.4782 3.58585C91.8474 3.44942 93.2005 3.79698 94.0598 4.9977C94.8809 6.13791 95.0235 7.89241 95.1663 9.32532L95.7057 14.7385C96.0039 17.7317 96.0229 17.9227 98.1818 17.9649L98.2738 18.8883L91.1729 19.5958L91.0809 18.6724C93.2208 18.2019 93.2018 18.0109 92.9035 15.0177L92.3356 9.31793C92.1643 7.59844 91.9519 5.14341 89.5955 5.37819C87.9397 5.54317 86.5924 6.86728 85.6558 8.1183L86.4077 15.6649C86.7059 18.6581 86.725 18.8492 88.9156 18.8882L89.0077 19.8116L81.9068 20.5191L81.8148 19.5957C83.9229 19.1284 83.9038 18.9373 83.6056 15.9441L83.0377 10.2444C82.8663 8.52486 82.5584 6.07935 80.202 6.31413C78.5462 6.47911 77.1989 7.80322 76.3578 9.04472Z" fill="#474542"/>
<path d="M101.562 7.43962L100.942 14.9982C100.696 17.9962 100.68 18.1875 102.828 18.6206L102.752 19.5455L95.6083 18.9594L95.6842 18.0345C97.8738 17.9573 97.8895 17.7659 98.1355 14.768L98.698 7.91102C98.741 6.21285 98.7588 5.60427 96.8134 5.44466L96.8762 4.67923L101.91 3.19787L101.651 6.35527C103.028 4.83077 105.081 3.68277 107.186 3.85546C109.004 4.0046 110.271 5.39282 110.741 7.10096C112.394 5.72759 114.171 4.42846 116.435 4.61423C117.806 4.72674 119.075 5.31241 119.704 6.6483C120.306 7.91779 120.13 9.66928 120.012 11.1045L119.567 16.5262C119.322 19.5242 119.306 19.7155 121.422 20.146L121.346 21.0709L114.234 20.4874L114.31 19.5625C116.499 19.4853 116.515 19.2939 116.761 16.296L117.229 10.5872C117.371 8.86496 117.604 6.41183 115.244 6.21821C113.585 6.08215 112.022 7.14183 110.875 8.20363L110.255 15.7622C110.009 18.7602 109.993 18.9515 112.141 19.3846L112.065 20.3095L104.953 19.726L105.029 18.8011C107.187 18.7213 107.202 18.5299 107.448 15.532L107.917 9.82317C108.058 8.10096 108.196 5.63997 105.835 5.44635C104.177 5.3103 102.613 6.36998 101.562 7.43962Z" fill="#474542"/>
<path d="M135.494 15.7805L124.912 13.3956C124.222 16.4548 124.107 21.1853 128.01 22.0647C130.101 22.5361 132.172 21.7891 133.769 20.3777L134.187 20.9968C132.391 22.8553 129.861 23.8925 127.301 23.3156C122.931 22.3307 120.549 18.0544 121.512 13.7776C122.413 9.78183 126.12 6.2873 130.49 7.27221C134.392 8.15159 136.324 12.0968 135.494 15.7805ZM125.335 12.2445L132.609 13.8837C133.281 11.7719 132.943 8.90739 130.227 8.29534C127.573 7.69736 125.876 10.1358 125.335 12.2445ZM129.548 5.48535L131.979 1.53925C132.526 0.711344 132.855 -0.165812 134.01 0.094486C134.479 0.200012 135.023 0.552199 134.896 1.11411C134.734 1.8321 132.396 3.76535 131.794 4.25295L130.015 5.8859L129.548 5.48535Z" fill="#474542"/>
<path d="M153.978 17.9842L155.278 27.6498C155.549 29.74 155.925 31.9091 158.189 32.7168L157.781 33.6911L149.101 30.062L149.509 29.0877C150.259 29.3668 151.686 30.1021 152.143 29.0097C152.402 28.3897 152.116 26.9174 152.03 26.292L151.13 19.9845L147.826 22.245C146.979 22.8618 144.596 24.3285 144.164 25.3618C143.683 26.5132 144.962 27.1868 145.848 27.5571L145.441 28.5313L137.942 25.396L138.349 24.4217C140.947 25.508 142.137 24.6528 144.295 23.0579L150.868 18.4531L149.682 10.2571C149.365 7.69675 149.222 5.79872 146.57 4.75917L146.977 3.78489L155.716 7.43867L155.309 8.41294C154.753 8.2498 153.292 7.43078 152.909 8.34601C152.563 9.17266 152.891 10.6278 153.008 11.5092L153.729 16.4233L157.688 13.6737C158.193 13.2952 159.747 12.315 160.019 11.6655C160.488 10.5436 159.038 10.111 158.35 9.68436L158.757 8.71009L166.02 11.7467L165.613 12.7209C163.187 11.6374 161.763 12.6375 159.775 13.9913L153.978 17.9842Z" fill="#474542"/>
<path d="M164.953 34.6169L167.56 30.0988C165.4 29.2961 161.583 28.8676 160.256 31.1683C159.505 32.471 159.94 33.8303 161.048 34.4699C162.074 35.0615 163.813 34.9932 164.953 34.6169ZM168.087 29.1841L169.143 27.3547C169.926 25.9965 170.561 24.2566 168.897 23.2972C167.512 22.4977 166.402 23.0766 165.409 24.0926C164.664 24.8079 164 25.1267 163.002 24.5511C162.226 24.1033 161.971 23.3283 162.403 22.5799C163.73 20.2793 167.485 21.2632 169.287 22.3025C170.451 22.9741 171.752 23.9837 172.247 25.3034C172.765 26.7106 172.094 27.8748 171.422 29.039L167.776 35.3588C167.393 36.024 166.689 37.2436 167.521 37.7234C167.992 37.9952 168.516 37.8544 169.057 37.686L169.081 38.476C167.797 39.1018 166.437 39.5368 165.135 38.7852C163.998 38.1296 163.872 36.8749 164.369 35.7576C162.502 36.0476 160.478 36.0989 158.815 35.1394C156.875 34.0201 156.312 31.9221 157.447 29.9541C159.574 26.2675 164.94 28.1074 168.087 29.1841Z" fill="#474542"/>
<path d="M174.684 40.2667L180.947 36.2805C181.509 35.9024 182.379 35.4344 182.782 34.8965C183.511 33.923 182.896 32.9828 182.05 32.3499L182.607 31.607L187.679 35.4042L187.122 36.1471C186.719 35.8851 186.309 35.5782 185.81 35.6042C184.997 35.6754 183.449 36.6751 182.759 37.1173L172.358 43.4816L171.128 42.561L174.605 29.854C174.911 28.6441 175.422 27.4277 174.263 26.5199L174.819 25.777L180.506 30.0345L179.95 30.7774C179.284 30.2787 178.234 29.6524 177.582 30.5234C177.294 30.9077 177.051 31.7655 176.93 32.1944L174.684 40.2667Z" fill="#474542"/>
<path d="M191.359 38.3323L183.34 47.0435C181.303 49.2566 181.173 49.3978 182.601 51.0599L181.972 51.7427L176.698 46.8881L177.348 46.1818C179.123 47.4671 179.275 47.3023 181.29 45.1128L185.928 40.0744C187.006 38.7616 187.394 38.2925 185.958 36.9705L186.478 36.4055L191.359 38.3323ZM195.234 34.5484C194.453 35.396 193.097 35.4521 192.249 34.6719C191.378 33.8701 191.3 32.5371 192.102 31.666C192.904 30.7949 194.237 30.7171 195.108 31.5189C195.979 32.3208 196.035 33.6773 195.234 34.5484Z" fill="#474542"/>
<path d="M197.382 55.9031L190.295 47.6899C187.921 49.7386 185.014 53.4725 187.628 56.5009C189.028 58.1242 191.137 58.7559 193.261 58.5719L193.228 59.3182C190.679 59.7431 188.028 59.0716 186.314 57.0849C183.387 53.6931 184.017 48.8387 187.336 45.9746C190.437 43.2988 195.496 42.6955 198.422 46.0874C201.036 49.1158 200.241 53.4362 197.382 55.9031ZM191.321 47.0167L196.192 52.6617C197.989 51.3646 199.421 48.8608 197.602 46.753C195.825 44.6937 193.01 45.6436 191.321 47.0167Z" fill="#474542"/>
<path d="M201.675 58.6935L196.05 62.2521C193.508 63.8603 193.346 63.9629 194.275 65.9117L193.491 66.4078L189.71 60.4314L190.494 59.9353C191.84 61.5832 192.002 61.4806 194.544 59.8723L200.358 56.194C201.74 55.2061 202.237 54.854 201.193 53.2044L201.842 52.7938L206.055 55.9218L202.864 57.9407C204.786 58.1642 207.732 58.572 208.861 60.3568C209.426 61.2492 209.3 62.4269 208.354 63.0257C207.515 63.5561 206.48 63.4159 205.915 62.5235C205.317 61.577 205.797 60.7807 205.25 59.9153C204.651 58.9688 202.723 58.6741 201.675 58.6935Z" fill="#474542"/>
</svg>
