<svg width="134" height="60" viewBox="0 0 134 60" fill="none" xmlns="http://www.w3.org/2000/svg">
<path d="M2.0281 46.1982L5.88814 46.2088L5.93812 46.7612C4.2301 47.2764 1.84657 48.4574 1.1891 50.2187C0.0280399 53.329 3.05325 55.4617 5.56402 56.3989C8.26217 57.4061 12.4335 57.3834 13.6295 54.1794C14.3779 52.1745 13.488 50.3266 12.2333 48.7695L12.605 48.46C14.4383 50.2971 15.4439 52.8073 14.5067 55.3181C13.1288 59.0093 9.20037 60.2113 5.69653 58.9034C3.99145 58.2669 2.4962 57.0683 1.4289 55.5812C0.293631 54.0473 -0.369482 52.0492 0.336947 50.1568C0.581748 49.501 0.913498 49.0698 1.21727 48.7135C1.52804 48.3385 1.79908 48.0127 1.94596 47.6192C2.12782 47.1321 2.08033 46.6874 2.0281 46.1982Z" fill="#474542"/>
<path d="M18.8395 46.4645C17.5145 48.6549 14.4298 48.9628 12.325 47.6896C10.1003 46.3439 8.69746 43.485 10.157 41.0722C11.5959 38.6935 14.7824 38.6809 16.9557 39.9956C19.1462 41.3206 20.2163 44.1885 18.8395 46.4645ZM18.2748 46.1229C19.3514 44.3432 16.9028 42.3244 15.5851 41.5273C14.3358 40.7716 11.7362 39.7367 10.7218 41.4138C9.67624 43.1421 11.6763 44.9364 12.994 45.7334C14.209 46.4684 17.2707 47.7828 18.2748 46.1229Z" fill="#474542"/>
<path d="M17.1583 35.1597L20.8647 38.3341C22.2925 39.5571 22.3837 39.6352 23.3769 38.7215L23.8174 39.0988L20.9161 42.4862L20.4756 42.1089C21.2388 40.9719 21.1476 40.8938 19.7198 39.6709L16.4539 36.8737C15.6098 36.2297 15.3082 35.9977 14.5146 36.9243L14.15 36.612L15.2444 33.5204L16.5355 34.6262C16.4071 33.5156 16.6647 32.0773 17.3933 31.2266C17.8487 30.695 18.5167 30.3455 19.2217 30.291C20.2131 30.2711 20.9248 30.8544 21.6387 31.4658L24.5856 33.9898C26.0134 35.2128 26.1046 35.2908 27.0978 34.3772L27.5383 34.7545L24.624 38.157L24.1835 37.7797C24.9597 36.6275 24.8685 36.5495 23.4407 35.3265L20.7824 33.0497C19.871 32.2691 18.6798 31.3541 17.652 32.5541C17.0795 33.2225 17.0929 34.3137 17.1583 35.1597Z" fill="#474542"/>
<path d="M25.6168 23.1188L28.6343 24.8124L28.4436 25.3239C26.8767 25.0189 25.0126 24.7078 23.7921 25.773C23.2044 26.2859 22.9567 27.2187 23.4958 27.8366C25.1001 29.675 29.2269 24.8527 31.6334 27.6103C32.7643 28.9062 32.3683 30.9772 31.1628 32.0292C30.7861 32.3579 30.4228 32.4891 29.9841 32.6861C29.7507 32.7836 29.5041 32.8661 29.3082 33.037C28.9918 33.3132 28.8088 33.7118 28.7367 34.1463L25.5669 32.3999L25.7537 31.9449C27.1548 32.3945 29.6891 32.4392 30.8192 31.453C31.5124 30.8481 31.6851 29.7684 31.067 29.0601C29.3706 27.1162 25.4206 32.0498 23.0404 29.3223C21.9227 28.0414 22.3485 26.1568 23.5389 25.1179C24.0814 24.6445 24.8192 24.4254 25.2412 24.0572C25.5275 23.8073 25.6201 23.4876 25.6168 23.1188Z" fill="#474542"/>
<path d="M37.3153 27.4077C35.1796 28.8192 32.2605 27.7757 30.9041 25.7234C29.4706 23.5543 29.4279 20.3701 31.7806 18.8153C34.0998 17.2825 36.9844 18.6365 38.3849 20.7555C39.7963 22.8913 39.5345 25.9411 37.3153 27.4077ZM36.9514 26.8571C38.6867 25.7103 37.3392 22.837 36.4901 21.5523C35.6851 20.3342 33.7796 18.2853 32.1445 19.3659C30.4592 20.4796 31.4977 22.9578 32.3468 24.2426C33.1297 25.4272 35.3329 27.9267 36.9514 26.8571Z" fill="#474542"/>
<path d="M40.5834 16.4371L42.4674 20.7866C43.2146 22.5117 43.2623 22.6219 44.5739 22.2281L44.8044 22.7603L40.6935 24.541L40.463 24.0088C41.6473 23.3214 41.5996 23.2113 40.8524 21.4862L39.1433 17.5404C38.6669 16.5916 38.4975 16.2509 37.378 16.7358L37.1872 16.2953L39.5261 13.9963L40.3131 15.8131C40.6234 14.5672 41.417 13.3298 42.6283 12.8051C43.6743 12.352 44.7815 12.7443 45.5435 13.5476C46.0508 12.3035 46.6474 11.0642 47.9504 10.4998C48.7396 10.158 49.6113 10.1074 50.3513 10.6586C51.0572 11.1811 51.476 12.1984 51.8337 13.0243L53.1851 16.1442C53.9324 17.8693 53.9801 17.9794 55.2733 17.5936L55.5038 18.1259L51.4112 19.8986L51.1807 19.3664C52.3651 18.679 52.3174 18.5689 51.5701 16.8437L50.1472 13.5587C49.7179 12.5677 49.1242 11.1466 47.7661 11.7348C46.8118 12.1482 46.2617 13.1929 45.9423 14.1159L47.8263 18.4654C48.5735 20.1905 48.6212 20.3006 49.9328 19.9069L50.1633 20.4391L46.0707 22.2118L45.8402 21.6796C47.0062 21.0002 46.9585 20.8901 46.2113 19.165L44.7883 15.8799C44.3591 14.8889 43.7103 13.4916 42.3522 14.0799C41.3979 14.4933 40.8478 15.538 40.5834 16.4371Z" fill="#474542"/>
<path d="M56.1589 10.4712L57.1298 15.1107C57.5149 16.9508 57.5395 17.0682 58.9035 16.9463L59.0223 17.514L54.6373 18.4317L54.5184 17.864C55.8168 17.4288 55.7923 17.3113 55.4072 15.4712L54.5264 11.2623C54.2505 10.2371 54.1531 9.86927 52.959 10.1192L52.8606 9.64935L55.614 7.86757L56.0196 9.80558C56.5741 8.64744 57.6003 7.59492 58.8923 7.32454C60.0082 7.09102 61.0138 7.6979 61.5988 8.63801C62.3459 7.52129 63.1795 6.42735 64.5693 6.13648C65.4111 5.96032 66.2752 6.08599 66.8893 6.7748C67.4756 7.42856 67.6814 8.50933 67.8657 9.39025L68.5622 12.7182C68.9473 14.5583 68.9719 14.6757 70.3162 14.5579L70.435 15.1256L66.0696 16.0391L65.9508 15.4714C67.2492 15.0363 67.2246 14.9188 66.8395 13.0787L66.1062 9.57458C65.885 8.51748 65.5891 7.00603 64.1405 7.30919C63.1225 7.52223 62.3736 8.43499 61.8751 9.27491L62.846 13.9144C63.2311 15.7545 63.2557 15.872 64.6196 15.75L64.7384 16.3177L60.373 17.2313L60.2542 16.6636C61.533 16.2325 61.5084 16.1151 61.1233 14.2749L60.39 10.7708C60.1688 9.71373 59.8142 8.21458 58.3656 8.51774C57.3476 8.73077 56.5987 9.64353 56.1589 10.4712Z" fill="#474542"/>
<path d="M78.6179 9.55875L71.8456 9.88167C71.9389 11.8395 72.6564 14.7085 75.1535 14.5895C76.492 14.5256 77.6155 13.7312 78.3431 12.6153L78.698 12.9187C77.9247 14.3372 76.5729 15.3828 74.9348 15.4609C72.138 15.5942 69.9917 13.414 69.8612 10.6771C69.7393 8.12 71.3915 5.39821 74.1883 5.26485C76.6855 5.14578 78.5055 7.20142 78.6179 9.55875ZM71.9092 9.11777L76.564 8.89582C76.6181 7.51167 75.9378 5.84218 74.1998 5.92505C72.5017 6.00602 71.8844 7.75741 71.9092 9.11777ZM73.3235 4.345L74.132 1.56333C74.3241 0.973513 74.3764 0.390361 75.1155 0.355115C75.4152 0.340826 75.8014 0.462568 75.8186 0.822159C75.8405 1.28164 74.7532 2.83519 74.4717 3.22904L73.6717 4.5086L73.3235 4.345Z" fill="#474542"/>
<path d="M90.9562 8.06449L93.2061 13.7295C93.6863 14.9561 94.2426 16.2146 95.7374 16.3621L95.6377 17.0146L89.8252 16.1262L89.9249 15.4737C90.4222 15.5295 91.3987 15.7597 91.5105 15.0282C91.5739 14.613 91.1777 13.7634 91.0314 13.3971L89.5315 9.7081L87.8699 11.5785C87.4492 12.0807 86.2263 13.3303 86.1206 14.0223C86.0027 14.7933 86.8803 15.0084 87.4734 15.099L87.3737 15.7515L82.352 14.9839L82.4517 14.3315C84.1915 14.5974 84.7839 13.8989 85.8516 12.6054L89.1414 8.81895L87.1828 4.02803C86.6035 2.52323 86.2298 1.39381 84.4642 1.16441L84.5639 0.511987L90.416 1.40643L90.3163 2.05885C89.9544 2.044 88.9444 1.76825 88.8507 2.38113C88.7661 2.9347 89.1851 3.76757 89.3894 4.28436L90.5691 7.15556L92.5543 4.88949C92.8033 4.58361 93.5978 3.75412 93.6643 3.31917C93.7791 2.56789 92.8348 2.52472 92.3526 2.37009L92.4523 1.71767L97.3158 2.46103L97.2161 3.11345C95.5812 2.8231 94.8689 3.64491 93.8679 4.76655L90.9562 8.06449Z" fill="#474542"/>
<path d="M100.611 16.7159L101.562 13.5978C100.134 13.4129 97.7499 13.689 97.2654 15.2767C96.991 16.1758 97.4471 16.9423 98.2123 17.1758C98.9201 17.3918 99.9693 17.1056 100.611 16.7159ZM101.755 12.9666L102.14 11.7041C102.426 10.7667 102.568 9.618 101.42 9.26775C100.464 8.97588 99.8693 9.48456 99.4079 10.2429C99.0548 10.7834 98.6952 11.0709 98.0065 10.8608C97.4709 10.6973 97.2067 10.2612 97.3643 9.74475C97.8488 8.15703 100.274 8.22787 101.517 8.6073C102.321 8.85248 103.255 9.28409 103.742 10.0182C104.256 10.8022 104.011 11.6056 103.765 12.409L102.434 16.7705C102.294 17.2296 102.037 18.0713 102.611 18.2464C102.937 18.3456 103.236 18.1861 103.542 18.0075L103.668 18.4851C102.973 19.0469 102.207 19.5031 101.308 19.2287C100.524 18.9894 100.27 18.243 100.416 17.4927C99.3198 17.932 98.0942 18.248 96.9465 17.8978C95.6074 17.4892 94.9694 16.2908 95.3839 14.9326C96.1602 12.3884 99.6872 12.7538 101.755 12.9666Z" fill="#474542"/>
<path d="M107.808 19.0288L111.102 15.7608C111.395 15.455 111.864 15.0534 112.038 14.6713C112.354 13.9798 111.853 13.4875 111.252 13.2136L111.493 12.6859L115.096 14.3294L114.855 14.8571C114.574 14.7508 114.283 14.618 113.981 14.7003C113.495 14.852 112.683 15.6686 112.32 16.0306L106.816 21.3017L105.942 20.9033L106.374 12.6808C106.399 11.9012 106.549 11.0904 105.721 10.6904L105.961 10.1627L110.001 12.0053L109.76 12.533C109.287 12.3172 108.563 12.0746 108.28 12.6933C108.156 12.9662 108.122 13.5223 108.105 13.8004L107.808 19.0288Z" fill="#474542"/>
<path d="M118.146 15.8827L114.372 22.2476C113.413 23.8646 113.351 23.9678 114.44 24.7992L114.144 25.2981L110.29 23.0128L110.596 22.4968C111.848 23.0529 111.919 22.9325 112.868 21.3326L115.051 17.6513C115.54 16.709 115.717 16.3719 114.668 15.7496L114.912 15.3368L118.146 15.8827ZM120.025 13.0673C119.658 13.6866 118.836 13.8966 118.217 13.5294C117.58 13.1519 117.36 12.347 117.737 11.7105C118.115 11.074 118.92 10.8538 119.556 11.2312C120.193 11.6087 120.403 12.4308 120.025 13.0673Z" fill="#474542"/>
<path d="M124.575 26.1606L119.181 22.052C117.994 23.6111 116.698 26.2695 118.686 27.7844C119.752 28.5965 121.123 28.7108 122.398 28.3243L122.475 28.7849C120.97 29.3736 119.263 29.3048 117.958 28.311C115.731 26.6142 115.49 23.5643 117.15 21.3847C118.702 19.3483 121.717 18.3269 123.945 20.0237C125.933 21.5387 126.005 24.2833 124.575 26.1606ZM119.721 21.508L123.428 24.3319C124.36 23.3069 124.913 21.591 123.529 20.5366C122.177 19.5064 120.577 20.4504 119.721 21.508Z" fill="#474542"/>
<path d="M128.126 27.7945L125.173 30.7242C123.838 32.0482 123.753 32.1327 124.583 33.1967L124.171 33.6052L121.058 30.4673L121.47 30.0588C122.513 30.8833 122.599 30.7987 123.933 29.4747L126.986 26.4464C127.696 25.6573 127.952 25.3755 127.093 24.5093L127.434 24.1713L130.426 25.5127L128.751 27.1747C129.954 27.0523 131.807 26.9042 132.736 27.8413C133.201 28.3098 133.283 29.0456 132.786 29.5385C132.346 29.9752 131.695 30.0291 131.23 29.5606C130.737 29.0636 130.923 28.5128 130.473 28.0585C129.98 27.5615 128.763 27.6415 128.126 27.7945Z" fill="#474542"/>
</svg>
