<svg width="149" height="88" viewBox="0 0 149 88" fill="none" xmlns="http://www.w3.org/2000/svg">
<path d="M1.36539 73.0335L5.9262 72.2242L6.10284 72.8658C4.19542 73.8379 1.63202 75.7402 1.23058 77.9602C0.521653 81.8806 4.54837 83.755 7.71305 84.3273C11.1139 84.9423 16.0352 84.0274 16.7655 79.9889C17.2225 77.4619 15.778 75.469 13.9648 73.8973L14.3379 73.4526C16.894 75.2318 18.6161 77.9822 18.0439 81.1468C17.2025 85.7994 12.8191 88.0554 8.40277 87.2568C6.25363 86.8681 4.2326 85.771 2.65551 84.242C0.988228 82.6722 -0.220299 80.4538 0.211036 78.0685C0.360508 77.2419 0.660481 76.662 0.94337 76.1766C1.23053 75.6676 1.48126 75.2251 1.57095 74.7292C1.68198 74.1151 1.53123 73.6001 1.36539 73.0335Z" fill="#474542"/>
<path d="M21.1203 70.1998C20.035 73.0737 16.4623 74.1103 13.7007 73.0673C10.7819 71.965 8.50257 68.8979 9.69818 65.7321C10.8768 62.6113 14.6341 61.9009 17.4855 62.9778C20.3594 64.0632 22.2481 67.2137 21.1203 70.1998ZM20.3794 69.92C21.2613 67.585 17.9313 65.7373 16.2025 65.0844C14.5635 64.4654 11.2701 63.8116 10.4391 66.0119C9.58267 68.2796 12.3344 69.9602 14.0632 70.6131C15.6573 71.2152 19.5569 72.0979 20.3794 69.92Z" fill="#474542"/>
<path d="M16.4641 57.656L21.5381 60.5796C23.4928 61.7059 23.6176 61.7777 24.5868 60.4803L25.1898 60.8278L22.5179 65.4651L21.9148 65.1176C22.5632 63.6077 22.4384 63.5358 20.4837 62.4095L16.0128 59.8334C14.8747 59.2608 14.4676 59.0539 13.7367 60.3224L13.2376 60.0349L13.8439 56.1463L15.6115 57.1647C15.2142 55.8833 15.1997 54.1298 15.8706 52.9653C16.29 52.2375 17.0005 51.6774 17.8199 51.4571C18.9848 51.2142 19.9533 51.7445 20.9307 52.3077L24.9649 54.6322C26.9197 55.7585 27.0444 55.8304 28.0136 54.5329L28.6166 54.8804L25.9327 59.5385L25.3296 59.191C25.99 57.6603 25.8653 57.5884 23.9105 56.4621L20.2714 54.3653C19.0237 53.6464 17.4161 52.8309 16.4695 54.4738C15.9423 55.3887 16.1997 56.6727 16.4641 57.656Z" fill="#474542"/>
<path d="M23.514 41.9245L27.4503 43.2463L27.3398 43.892C25.4244 43.8829 23.1571 43.933 21.9562 45.4618C21.378 46.1978 21.2946 47.3531 22.0684 47.9609C24.371 49.7696 28.158 43.1613 31.6118 45.8744C33.2349 47.1494 33.2312 49.6795 32.0452 51.1894C31.6745 51.6612 31.2756 51.8972 30.8025 52.2275C30.5491 52.3947 30.2768 52.547 30.0841 52.7924C29.7727 53.1887 29.6461 53.6996 29.6583 54.228L25.5306 52.8779L25.6492 52.2996C27.4016 52.5164 30.3994 52.0024 31.5113 50.5869C32.1933 49.7187 32.1554 48.4071 31.2683 47.7104C28.8336 45.7979 25.2799 52.4978 21.8638 49.8144C20.2595 48.5542 20.3401 46.2371 21.5113 44.746C22.045 44.0666 22.8659 43.6432 23.281 43.1148C23.5627 42.7562 23.6003 42.3585 23.514 41.9245Z" fill="#474542"/>
<path d="M37.9994 44.6474C35.8023 46.7944 32.126 46.226 30.0628 44.1147C27.8822 41.8832 27.1107 38.1406 29.5309 35.7755C31.9168 33.4439 35.6228 34.3861 37.7531 36.566C39.9001 38.7631 40.2823 42.4164 37.9994 44.6474ZM37.4459 44.0809C39.231 42.3364 36.9923 39.2558 35.7007 37.9341C34.4762 36.681 31.7666 34.6981 30.0844 36.3419C28.3508 38.0361 30.1358 40.7212 31.4274 42.0429C32.6184 43.2616 35.7809 45.708 37.4459 44.0809Z" fill="#474542"/>
<path d="M38.997 31.2646L42.2253 35.9477C43.5057 37.8051 43.5874 37.9237 45.0401 37.1555L45.4351 37.7286L41.0088 40.7797L40.6138 40.2067C41.8485 39.1224 41.7668 39.0038 40.4864 37.1464L37.5578 32.898C36.7766 31.8915 36.498 31.5297 35.2927 32.3606L34.9658 31.8864L37.1854 28.6365L38.5339 30.5927C38.6098 29.0537 39.2567 27.4127 40.5609 26.5137C41.6872 25.7372 43.0817 25.9419 44.1655 26.7106C44.4738 25.1281 44.8883 23.5306 46.2913 22.5635C47.141 21.9777 48.1555 21.7157 49.1548 22.1928C50.1071 22.644 50.8365 23.7444 51.4495 24.6336L53.7651 27.9928C55.0455 29.8503 55.1273 29.9688 56.5602 29.2143L56.9552 29.7873L52.5487 32.8249L52.1537 32.2518C53.3884 31.1675 53.3067 31.0489 52.0263 29.1915L49.588 25.6545C48.8525 24.5874 47.8234 23.0523 46.3611 24.0602C45.3336 24.7686 44.9287 26.1263 44.7669 27.2871L47.9952 31.9703C49.2756 33.8277 49.3573 33.9463 50.81 33.1781L51.205 33.7511L46.7985 36.7887L46.4035 36.2156C47.6185 35.1449 47.5367 35.0264 46.2563 33.1689L43.8181 29.6319C43.0825 28.5648 41.9942 27.0706 40.5319 28.0785C39.5044 28.7869 39.0994 30.1446 38.997 31.2646Z" fill="#474542"/>
<path d="M55.4604 20.8611L57.7376 26.0734C58.6408 28.1407 58.6984 28.2726 60.2708 27.7952L60.5495 28.433L55.6231 30.5853L55.3445 29.9475C56.7631 29.1182 56.7054 28.9862 55.8022 26.9189L53.7365 22.1905C53.1612 21.0537 52.9567 20.6454 51.6151 21.2316L51.3845 20.7037L54.1825 17.9361L55.1337 20.1134C55.5014 18.617 56.449 17.1292 57.9006 16.495C59.1541 15.9474 60.4842 16.4139 61.4017 17.375C62.0057 15.8801 62.717 14.3908 64.2784 13.7086C65.2241 13.2954 66.27 13.2314 67.1601 13.8901C68.0091 14.5144 68.5155 15.7337 68.9479 16.7233L70.5814 20.4621C71.4845 22.5294 71.5422 22.6614 73.0926 22.1935L73.3712 22.8313L68.4668 24.974L68.1882 24.3362C69.6068 23.5069 69.5492 23.3749 68.646 21.3076L66.9261 17.3709C66.4072 16.1833 65.6894 14.4803 64.0619 15.1913C62.9183 15.6909 62.2622 16.9466 61.8823 18.0555L64.1595 23.2677C65.0627 25.335 65.1203 25.467 66.6927 24.9896L66.9713 25.6274L62.067 27.77L61.7883 27.1322C63.185 26.3125 63.1273 26.1806 62.2241 24.1133L60.5042 20.1766C59.9854 18.989 59.2015 17.3147 57.5741 18.0258C56.4305 18.5254 55.7743 19.7811 55.4604 20.8611Z" fill="#474542"/>
<path d="M81.1959 14.2452L73.3483 16.3921C73.9689 18.6607 75.5585 21.8337 78.4522 21.0421C80.0032 20.6178 81.1115 19.3939 81.6724 17.8969L82.1673 18.1596C81.632 20.0229 80.3218 21.6005 78.4236 22.1198C75.1826 23.0064 72.0995 21.0134 71.2318 17.8419C70.4212 14.8788 71.6456 11.2594 74.8865 10.3728C77.7802 9.58121 80.4486 11.5136 81.1959 14.2452ZM73.2234 15.4807L78.6172 14.0051C78.3191 12.3698 77.0863 10.5921 75.0723 11.1431C73.1046 11.6814 72.839 13.8939 73.2234 15.4807ZM73.6334 9.52131L73.8538 6.0522C73.9248 5.3112 73.8337 4.61454 74.6902 4.38022C75.0375 4.28523 75.5216 4.32695 75.6356 4.74363C75.7813 5.27607 74.9136 7.37959 74.6867 7.91442L74.0839 9.622L73.6334 9.52131Z" fill="#474542"/>
<path d="M94.7382 9.15415L98.9817 15.1119C99.8924 16.4039 100.901 17.7113 102.685 17.4553L102.756 18.2442L95.7278 18.8726L95.6572 18.0838C96.2527 18.0064 97.4565 17.9952 97.3774 17.1107C97.3325 16.6087 96.6276 15.732 96.3522 15.347L93.5484 11.4774L92.1474 14.1327C91.8008 14.8384 90.7335 16.6446 90.8083 17.4813C90.8917 18.4136 91.9759 18.413 92.6931 18.3489L92.7636 19.1377L86.6918 19.6807L86.6213 18.8918C88.7249 18.7037 89.2152 17.7201 90.0892 15.9071L92.8393 10.5528L89.1854 5.53033C88.0796 3.94251 87.3209 2.73328 85.1976 2.97134L85.1271 2.18249L92.2028 1.54975L92.2734 2.3386C91.8474 2.42489 90.5915 2.39261 90.6578 3.13366C90.7176 3.80299 91.4443 4.65365 91.8303 5.19743L94.0269 8.20573L95.6917 4.9967C95.8944 4.56894 96.5828 3.37488 96.5358 2.84898C96.4546 1.94061 95.3417 2.1606 94.7356 2.11842L94.665 1.32957L100.546 0.803711L100.616 1.59256C98.6277 1.72218 98.0328 2.88378 97.1874 4.47742L94.7382 9.15415Z" fill="#474542"/>
<path d="M108.231 16.3391L108.379 12.4299C106.665 12.6535 103.983 13.7051 103.908 15.6957C103.866 16.8229 104.63 17.5723 105.589 17.6084C106.477 17.6419 107.606 16.988 108.231 16.3391ZM108.408 11.6385L108.468 10.0556C108.512 8.88041 108.324 7.50434 106.885 7.45007C105.686 7.40484 105.153 8.17728 104.85 9.1986C104.606 9.93393 104.277 10.3778 103.414 10.3453C102.742 10.32 102.302 9.89506 102.326 9.24752C102.401 7.25693 105.236 6.59531 106.795 6.65411C107.802 6.6921 109.019 6.90611 109.809 7.60839C110.646 8.36044 110.608 9.36773 110.57 10.375L110.363 15.8431C110.342 16.4187 110.302 17.474 111.021 17.5011C111.429 17.5165 111.728 17.2395 112.027 16.9386L112.32 17.454C111.687 18.3188 110.938 19.0831 109.81 19.0406C108.827 19.0035 108.305 18.2152 108.243 17.3002C107.106 18.146 105.781 18.8886 104.342 18.8343C102.664 18.771 101.556 17.5764 101.62 15.8736C101.74 12.6839 105.944 12.0258 108.408 11.6385Z" fill="#474542"/>
<path d="M117.056 16.7069L119.8 11.8622C120.039 11.4136 120.451 10.7974 120.528 10.2994C120.668 9.39818 119.929 8.99215 119.147 8.87071L119.253 8.18294L123.949 8.91157L123.842 9.59934C123.483 9.56785 123.104 9.50898 122.782 9.70198C122.269 10.0352 121.596 11.2423 121.294 11.7784L116.647 19.655L115.509 19.4784L113.337 9.83943C113.114 8.93045 113.024 7.945 111.937 7.75201L112.044 7.06424L117.309 7.88118L117.202 8.56895C116.585 8.47328 115.669 8.4283 115.544 9.23465C115.489 9.5904 115.63 10.2438 115.701 10.5705L117.056 16.7069Z" fill="#474542"/>
<path d="M127.72 9.58904L125.519 18.192C124.96 20.3776 124.924 20.5171 126.458 21.1076L126.285 21.7819L121.077 20.4495L121.255 19.7519C122.884 19.9704 122.926 19.8076 123.479 17.6453L124.752 12.6695C124.997 11.4194 125.087 10.9716 123.669 10.6088L123.812 10.0508L127.72 9.58904ZM128.935 5.71312C128.72 6.55016 127.844 7.06925 127.007 6.85511C126.147 6.63503 125.622 5.78229 125.842 4.922C126.062 4.0617 126.915 3.53667 127.775 3.75676C128.636 3.97684 129.155 4.85282 128.935 5.71312Z" fill="#474542"/>
<path d="M138.359 19.0995L130.737 16.2542C129.915 18.4576 129.35 21.9613 132.16 23.0105C133.667 23.5728 135.281 23.2277 136.612 22.3408L136.859 22.8433C135.336 24.0422 133.351 24.5564 131.507 23.8682C128.359 22.6931 127.023 19.2738 128.173 16.1934C129.247 13.3154 132.356 11.0944 135.504 12.2695C138.314 13.3186 139.35 16.4463 138.359 19.0995ZM131.169 15.4417L136.408 17.3973C137.122 15.8963 137.16 13.7333 135.204 13.0031C133.293 12.2896 131.784 13.9295 131.169 15.4417Z" fill="#474542"/>
<path d="M142.672 19.5528L140.321 23.9564C139.258 25.9464 139.19 26.0735 140.518 27.0002L140.19 27.6142L135.512 25.1159L135.839 24.502C137.327 25.0787 137.395 24.9517 138.458 22.9616L140.888 18.4098C141.424 17.2538 141.617 16.8403 140.326 16.1507L140.597 15.6426L144.503 16.1231L143.169 18.6213C144.505 18.0558 146.578 17.2309 147.975 17.977C148.674 18.35 149.028 19.1648 148.632 19.9058C148.282 20.5621 147.555 20.854 146.856 20.4809C146.115 20.0853 146.134 19.3879 145.456 19.0261C144.715 18.6305 143.348 19.1522 142.672 19.5528Z" fill="#474542"/>
</svg>
