<svg width="1098" height="669" viewBox="0 0 1098 669" fill="none" xmlns="http://www.w3.org/2000/svg">
<circle cx="177.5" cy="25" r="23" stroke="#A3C3CE" stroke-width="4"/>
<circle cx="980.5" cy="641" r="26" stroke="#D5A654" stroke-width="4"/>
<path d="M955.191 91.3773C964.812 127.284 992.405 151.089 996.356 150.03C960.45 159.651 923.542 138.342 913.921 102.436C904.3 66.5288 925.608 29.6211 961.515 19.9999C957.564 21.0587 945.57 55.4705 955.191 91.3773Z" fill="#A3C3CE"/>
<circle cx="114" cy="519.5" r="50.5" fill="#D5A654"/>
<path d="M1053.13 641C1030.94 641 1027.24 628.778 1027.24 622.667M1053.13 641C1034.82 641 1029.1 649.325 1027.66 655.669M1053.13 641C1065.38 641 1075.31 634.434 1075.31 626.333C1077.01 626.333 1078.65 626.459 1080.24 626.696M1053.13 641C1065.38 641 1075.31 647.566 1075.31 655.667C1077.01 655.667 1078.65 655.541 1080.24 655.304M1053.13 641C1030.94 641 1027.24 653.222 1027.24 659.333M1053.13 641C1034.82 641 1029.1 632.675 1027.66 626.331M1053.13 641H44.873M1027.24 622.667C1027.24 620.642 1028.9 619 1030.94 619C1032.98 619 1034.64 620.642 1034.64 622.667C1034.64 624.692 1032.98 626.331 1030.94 626.331C1029.86 626.331 1028.77 626.331 1027.66 626.331M1027.24 622.667C1027.24 623.734 1027.36 624.988 1027.66 626.331M1027.66 655.669C1028.77 655.669 1029.86 655.667 1030.94 655.667C1032.98 655.667 1034.64 657.308 1034.64 659.333C1034.64 661.358 1032.98 663 1030.94 663C1028.9 663 1027.24 661.358 1027.24 659.333M1027.66 655.669C1027.36 657.012 1027.24 658.266 1027.24 659.333M1027.66 655.669H70.3399M1080.24 626.696C1082.81 627.08 1085.2 627.76 1087.35 628.677C1089.59 629.636 1091.55 630.855 1093.14 632.269M1080.24 626.696C1082.81 627.081 1085.21 627.762 1087.36 628.682C1089.6 629.64 1091.56 630.857 1093.14 632.269M1093.14 632.269C1094.9 633.837 1096.2 635.646 1096.9 637.606C1097.29 638.696 1097.5 639.832 1097.5 641C1097.5 642.168 1097.29 643.304 1096.9 644.394C1096.2 646.354 1094.9 648.163 1093.14 649.731M1093.14 649.731C1091.56 651.143 1089.6 652.36 1087.36 653.318C1085.21 654.238 1082.81 654.919 1080.24 655.304M1093.14 649.731C1091.55 651.145 1089.59 652.364 1087.35 653.323C1085.2 654.24 1082.81 654.92 1080.24 655.304M44.873 641C67.0596 641 70.7573 628.778 70.7573 622.667M44.873 641C63.1835 641 68.901 649.325 70.3399 655.669M44.873 641C32.6198 641 22.6865 634.434 22.6865 626.333C20.9944 626.333 19.3464 626.459 17.7628 626.696M44.873 641C32.6198 641 22.6865 647.566 22.6865 655.667C20.9944 655.667 19.3464 655.541 17.7628 655.304M44.873 641C67.0596 641 70.7573 653.222 70.7573 659.333M44.873 641C63.1835 641 68.901 632.675 70.3399 626.331M70.7573 622.667C70.7573 620.642 69.1018 619 67.0595 619C65.0173 619 63.3618 620.642 63.3618 622.667C63.3618 624.692 65.0173 626.331 67.0595 626.331C68.1403 626.331 69.234 626.331 70.3399 626.331M70.7573 622.667C70.7573 623.734 70.6444 624.988 70.3399 626.331M70.3399 655.669C69.234 655.669 68.1403 655.667 67.0596 655.667C65.0174 655.667 63.3618 657.308 63.3618 659.333C63.3618 661.358 65.0173 663 67.0595 663C69.1018 663 70.7573 661.358 70.7573 659.333M70.3399 655.669C70.6444 657.012 70.7573 658.266 70.7573 659.333M17.7628 626.696C15.1947 627.08 12.7957 627.76 10.6513 628.677C8.40904 629.636 6.44517 630.855 4.8574 632.269M17.7628 626.696C15.1901 627.081 12.787 627.762 10.6397 628.682C8.40227 629.64 6.44242 630.857 4.8574 632.269M4.8574 632.269C3.09738 633.837 1.79951 635.646 1.09693 637.606C0.706589 638.696 0.5 639.832 0.5 641C0.500018 642.168 0.706634 643.304 1.09701 644.394C1.79961 646.354 3.09746 648.163 4.85742 649.731M4.85742 649.731C6.44244 651.143 8.40227 652.36 10.6397 653.318C12.787 654.238 15.1901 654.919 17.7628 655.304M4.85742 649.731C6.44518 651.145 8.40904 652.364 10.6513 653.323C12.7957 654.24 15.1947 654.92 17.7628 655.304M1027.66 626.331H980M70.3399 626.331H117" stroke="#474542" stroke-linecap="round" stroke-linejoin="round"/>
</svg>
