<svg width="466" height="19" viewBox="0 0 466 19" fill="none" xmlns="http://www.w3.org/2000/svg">
<path d="M181 2.19995L181 18.2M181 2.19995L177 2.19995M181 2.19995L185 2.19995M181 18.2L177 18.2M181 18.2L185 18.2M177 2.19995L177 18.2M177 2.19995L173 2.19995M177 18.2L173 18.2M173 2.19995L173 18.2M173 2.19995L169 2.19995M173 18.2L169 18.2M169 2.19995L169 18.2M169 2.19995L165 2.19995M169 18.2L165 18.2M165 2.19995L161 2.19995M165 2.19995L165 18.2M161 2.19995L157 2.19995M161 2.19995L161 18.2M157 2.19995L157 18.2M157 2.19995L153 2.19995M165 18.2L161 18.2M161 18.2L157 18.2M157 18.2L153 18.2M153 2.19995L153 18.2M153 2.19995L149 2.19995M153 18.2L149 18.2M149 2.19995L145 2.19995M149 2.19995L149 18.2M145 2.19995L145 18.2M145 2.19995L141 2.19995M149 18.2L145 18.2M145 18.2L141 18.2M141 2.19995L141 18.2M141 2.19995L137 2.19995M141 18.2L137 18.2M137 2.19995L133 2.19995M137 2.19995L137 18.2M133 2.19995L129 2.19995M133 2.19995L133 18.2M129 2.19995L129 18.2M129 2.19995L125 2.19995M137 18.2L133 18.2M133 18.2L129 18.2M129 18.2L125 18.2M125 2.19995L125 18.2M125 2.19995L121 2.19995M125 18.2L121 18.2M121 2.19995L121 18.2M121 2.19995L117 2.19995M121 18.2L117 18.2M117 2.19995L117 18.2M117 2.19995L113 2.19995M117 18.2L113 18.2M113 2.19995L109 2.19995M113 2.19995L113 18.2M109 2.19995L109 18.2M109 2.19995L105 2.19995M113 18.2L109 18.2M109 18.2L105 18.2M105 2.19995L105 18.2M105 2.19995L101 2.19995M105 18.2L101 18.2M101 2.19995L101 18.2M101 2.19995L97 2.19995M101 18.2L97 18.2M97 2.19995L93 2.19995L93 18.2L97 18.2M97 2.19995L97 18.2M185 2.19995L189 2.19995M185 2.19995L185 18.2M185 18.2L189 18.2M273 2.19995V18.2M273 2.19995L269 2.19995M273 2.19995L277 2.19995V18.2L273 18.2M273 18.2L269 18.2M269 2.19995V18.2M269 2.19995L265 2.19995M269 18.2L265 18.2M265 2.19995V18.2M265 2.19995L261 2.19995M265 18.2L261 18.2M261 2.19995V18.2M261 2.19995L257 2.19995M261 18.2L257 18.2M257 2.19995L253 2.19995M257 2.19995V18.2M253 2.19995L249 2.19995M253 2.19995L253 18.2M249 2.19995L249 18.2M249 2.19995L245 2.19995M257 18.2L253 18.2M253 18.2L249 18.2M249 18.2L245 18.2M245 2.19995L245 18.2M245 2.19995L241 2.19995M245 18.2L241 18.2M241 2.19995L237 2.19995M241 2.19995L241 18.2M237 2.19995L237 18.2M237 2.19995L233 2.19995M241 18.2L237 18.2M237 18.2L233 18.2M233 2.19995L233 18.2M233 2.19995L229 2.19995M233 18.2L229 18.2M229 2.19995L225 2.19995M229 2.19995L229 18.2M225 2.19995L221 2.19995M225 2.19995L225 18.2M221 2.19995L221 18.2M221 2.19995L217 2.19995M229 18.2L225 18.2M225 18.2L221 18.2M221 18.2L217 18.2M217 2.19995L217 18.2M217 2.19995L213 2.19995M217 18.2L213 18.2M213 2.19995L213 18.2M213 2.19995L209 2.19995M213 18.2L209 18.2M209 2.19995L209 18.2M209 2.19995L205 2.19995M209 18.2L205 18.2M205 2.19995L201 2.19995M205 2.19995L205 18.2M201 2.19995L201 18.2M201 2.19995L197 2.19995M205 18.2L201 18.2M201 18.2L197 18.2M197 2.19995L197 18.2M197 2.19995L193 2.19995M197 18.2L193 18.2M193 2.19995L193 18.2M193 2.19995L189 2.19995M193 18.2L189 18.2M189 2.19995L189 18.2" stroke="#A3C3CE" stroke-linecap="round" stroke-linejoin="round"/>
<path d="M461 2.19995V18.2M461 2.19995L457 2.19995M461 2.19995L465 2.19995V18.2L461 18.2M461 18.2L457 18.2M457 2.19995V18.2M457 2.19995L453 2.19995M457 18.2L453 18.2M453 2.19995V18.2M453 2.19995L449 2.19995M453 18.2L449 18.2M449 2.19995V18.2M449 2.19995L445 2.19995M449 18.2L445 18.2M445 2.19995L441 2.19995M445 2.19995V18.2M441 2.19995L437 2.19995M441 2.19995V18.2M437 2.19995V18.2M437 2.19995L433 2.19995M445 18.2L441 18.2M441 18.2L437 18.2M437 18.2L433 18.2M433 2.19995V18.2M433 2.19995L429 2.19995M433 18.2L429 18.2M429 2.19995L425 2.19995M429 2.19995V18.2M425 2.19995V18.2M425 2.19995L421 2.19995M429 18.2L425 18.2M425 18.2L421 18.2M421 2.19995V18.2M421 2.19995L417 2.19995M421 18.2L417 18.2M417 2.19995L413 2.19995M417 2.19995V18.2M413 2.19995L409 2.19995M413 2.19995V18.2M409 2.19995V18.2M409 2.19995L405 2.19995M417 18.2L413 18.2M413 18.2L409 18.2M409 18.2L405 18.2M405 2.19995V18.2M405 2.19995L401 2.19995M405 18.2L401 18.2M401 2.19995V18.2M401 2.19995L397 2.19995M401 18.2L397 18.2M397 2.19995V18.2M397 2.19995L393 2.19995M397 18.2L393 18.2M393 2.19995L389 2.19995M393 2.19995V18.2M389 2.19995V18.2M389 2.19995L385 2.19995M393 18.2L389 18.2M389 18.2L385 18.2M385 2.19995V18.2M385 2.19995L381 2.19995M385 18.2L381 18.2M381 2.19995V18.2M381 2.19995L377 2.19995M381 18.2L377 18.2M377 2.19995L373 2.19995V18.2L377 18.2M377 2.19995V18.2" stroke="#A3C3CE" stroke-linecap="round" stroke-linejoin="round"/>
<path d="M89 2.19995L89 18.2M89 2.19995L85 2.19995M89 2.19995L93 2.19995L93 18.2L89 18.2M89 18.2L85 18.2M85 2.19995L85 18.2M85 2.19995L81 2.19995M85 18.2L81 18.2M81 2.19995L81 18.2M81 2.19995L77 2.19995M81 18.2L77 18.2M77 2.19995L77 18.2M77 2.19995L73 2.19995M77 18.2L73 18.2M73 2.19995L69 2.19995M73 2.19995L73 18.2M69 2.19995L65 2.19995M69 2.19995L69 18.2M65 2.19995L65 18.2M65 2.19995L61 2.19995M73 18.2L69 18.2M69 18.2L65 18.2M65 18.2L61 18.2M61 2.19995L61 18.2M61 2.19995L57 2.19995M61 18.2L57 18.2M57 2.19995L53 2.19995M57 2.19995L57 18.2M53 2.19995L53 18.2M53 2.19995L49 2.19995M57 18.2L53 18.2M53 18.2L49 18.2M49 2.19995L49 18.2M49 2.19995L45 2.19995M49 18.2L45 18.2M45 2.19995L41 2.19995M45 2.19995L45 18.2M41 2.19995L37 2.19995M41 2.19995L41 18.2M37 2.19995L37 18.2M37 2.19995L33 2.19995M45 18.2L41 18.2M41 18.2L37 18.2M37 18.2L33 18.2M33 2.19995L33 18.2M33 2.19995L29 2.19995M33 18.2L29 18.2M29 2.19995L29 18.2M29 2.19995L25 2.19995M29 18.2L25 18.2M25 2.19995L25 18.2M25 2.19995L21 2.19995M25 18.2L21 18.2M21 2.19995L17 2.19995M21 2.19995L21 18.2M17 2.19995L17 18.2M17 2.19995L13 2.19995M21 18.2L17 18.2M17 18.2L13 18.2M13 2.19995L13 18.2M13 2.19995L9 2.19995M13 18.2L9 18.2M9 2.19995L9 18.2M9 2.19995L5 2.19995M9 18.2L5 18.2M5 2.19995L0.999999 2.19995L0.999999 18.2L5 18.2M5 2.19995L5 18.2" stroke="#A3C3CE" stroke-linecap="round" stroke-linejoin="round"/>
<path d="M277 2.2C278.562 2.2 279.438 1 281 1C282.562 1 283.438 2.2 285 2.2C286.562 2.2 287.438 1 289 1C290.562 1 291.438 2.2 293 2.2C294.562 2.2 295.438 1 297 1C298.562 1 299.438 2.2 301 2.2C302.562 2.2 303.438 1 305 1C306.562 1 307.438 2.2 309 2.2C310.562 2.2 311.438 1 313 1C314.562 1 315.438 2.2 317 2.2C318.562 2.2 319.438 1 321 1C322.562 1 323.438 2.2 325 2.2C326.562 2.2 327.438 1 329 1C330.562 1 331.438 2.2 333 2.2C334.562 2.2 335.438 1 337 1C338.562 1 339.438 2.2 341 2.2C342.562 2.2 343.438 1 345 1C346.562 1 347.438 2.2 349 2.2C350.562 2.2 351.438 1 353 1C354.562 1 355.438 2.2 357 2.2C358.562 2.2 359.438 1 361 1C362.562 1 363.438 2.2 365 2.2C366.562 2.2 367.438 1 369 1C370.562 1 371.438 2.2 373 2.2M277 6.2C278.562 6.2 279.438 5 281 5C282.562 5 283.438 6.2 285 6.2C286.562 6.2 287.438 5 289 5C290.562 5 291.438 6.2 293 6.2C294.562 6.2 295.438 5 297 5C298.562 5 299.438 6.2 301 6.2C302.562 6.2 303.438 5 305 5C306.562 5 307.438 6.2 309 6.2C310.562 6.2 311.438 5 313 5C314.562 5 315.438 6.2 317 6.2C318.562 6.2 319.438 5 321 5C322.562 5 323.438 6.2 325 6.2C326.562 6.2 327.438 5 329 5C330.562 5 331.438 6.2 333 6.2C334.562 6.2 335.438 5 337 5C338.562 5 339.438 6.2 341 6.2C342.562 6.2 343.438 5 345 5C346.562 5 347.438 6.2 349 6.2C350.562 6.2 351.438 5 353 5C354.562 5 355.438 6.2 357 6.2C358.562 6.2 359.438 5 361 5C362.562 5 363.438 6.2 365 6.2C366.562 6.2 367.438 5 369 5C370.562 5 371.438 6.2 373 6.2M277 10.2C278.562 10.2 279.438 9 281 9C282.562 9 283.438 10.2 285 10.2C286.562 10.2 287.438 9 289 9C290.562 9 291.438 10.2 293 10.2C294.562 10.2 295.438 9 297 9C298.562 9 299.438 10.2 301 10.2C302.562 10.2 303.438 9 305 9C306.562 9 307.438 10.2 309 10.2C310.562 10.2 311.438 9 313 9C314.562 9 315.438 10.2 317 10.2C318.562 10.2 319.438 9 321 9C322.562 9 323.438 10.2 325 10.2C326.562 10.2 327.438 9 329 9C330.562 9 331.438 10.2 333 10.2C334.562 10.2 335.438 9 337 9C338.562 9 339.438 10.2 341 10.2C342.562 10.2 343.438 9 345 9C346.562 9 347.438 10.2 349 10.2C350.562 10.2 351.438 9 353 9C354.562 9 355.438 10.2 357 10.2C358.562 10.2 359.438 9 361 9C362.562 9 363.438 10.2 365 10.2C366.562 10.2 367.438 9 369 9C370.562 9 371.438 10.2 373 10.2M277 14.2C278.562 14.2 279.438 13 281 13C282.562 13 283.438 14.2 285 14.2C286.562 14.2 287.438 13 289 13C290.562 13 291.438 14.2 293 14.2C294.562 14.2 295.438 13 297 13C298.562 13 299.438 14.2 301 14.2C302.562 14.2 303.438 13 305 13C306.562 13 307.438 14.2 309 14.2C310.562 14.2 311.438 13 313 13C314.562 13 315.438 14.2 317 14.2C318.562 14.2 319.438 13 321 13C322.562 13 323.438 14.2 325 14.2C326.562 14.2 327.438 13 329 13C330.562 13 331.438 14.2 333 14.2C334.562 14.2 335.438 13 337 13C338.562 13 339.438 14.2 341 14.2C342.562 14.2 343.438 13 345 13C346.562 13 347.438 14.2 349 14.2C350.562 14.2 351.438 13 353 13C354.562 13 355.438 14.2 357 14.2C358.562 14.2 359.438 13 361 13C362.562 13 363.438 14.2 365 14.2C366.562 14.2 367.438 13 369 13C370.562 13 371.438 14.2 373 14.2M277 18.2C278.562 18.2 279.438 17 281 17C282.562 17 283.438 18.2 285 18.2C286.562 18.2 287.438 17 289 17C290.562 17 291.438 18.2 293 18.2C294.562 18.2 295.438 17 297 17C298.562 17 299.438 18.2 301 18.2C302.562 18.2 303.438 17 305 17C306.562 17 307.438 18.2 309 18.2C310.562 18.2 311.438 17 313 17C314.562 17 315.438 18.2 317 18.2C318.562 18.2 319.438 17 321 17C322.562 17 323.438 18.2 325 18.2C326.562 18.2 327.438 17 329 17C330.562 17 331.438 18.2 333 18.2C334.562 18.2 335.438 17 337 17C338.562 17 339.438 18.2 341 18.2C342.562 18.2 343.438 17 345 17C346.562 17 347.438 18.2 349 18.2C350.562 18.2 351.438 17 353 17C354.562 17 355.438 18.2 357 18.2C358.562 18.2 359.438 17 361 17C362.562 17 363.438 18.2 365 18.2C366.562 18.2 367.438 17 369 17C370.562 17 371.438 18.2 373 18.2" stroke="#A3C3CE" stroke-linecap="round" stroke-linejoin="round"/>
</svg>
