<svg width="318" height="82" viewBox="0 0 318 82" fill="none" xmlns="http://www.w3.org/2000/svg">
<path d="M313 1V17M313 1L309 1M313 1L317 1V17L313 17M313 17L309 17M309 1V17M309 1L305 1M309 17L305 17M305 1V17M305 1L301 1M305 17L301 17M301 1V17M301 1L297 1M301 17L297 17M297 1L293 1M297 1V17M293 1L289 1M293 1V17M289 1V17M289 1L285 1M297 17L293 17M293 17L289 17M289 17L285 17M285 1V17M285 1L281 1M285 17L281 17M281 1L277 1M281 1V17M277 1V17M277 1L273 1M281 17L277 17M277 17L273 17M273 1V17M273 1L269 1M273 17L269 17M269 1L265 1M269 1V17M265 1L261 1M265 1V17M261 1V17M261 1L257 1M269 17L265 17M265 17L261 17M261 17L257 17M257 1V17M257 1L253 1M257 17L253 17M253 1L253 17M253 1L249 1M253 17L249 17M249 1L249 17M249 1L245 1M249 17L245 17M245 1L241 1M245 1L245 17M241 1L241 17M241 1L237 1M245 17L241 17M241 17L237 17M237 1L237 17M237 1L233 1M237 17L233 17M233 1L233 17M233 1L229 1M233 17L229 17M229 1L225 1L225 17L229 17M229 1L229 17" stroke="#A3C3CE" stroke-linecap="round" stroke-linejoin="round"/>
<path d="M129 1L129 17M129 1L125 1M129 1L133 1L133 17L129 17M129 17L125 17M125 1L125 17M125 1L121 1M125 17L121 17M121 1L121 17M121 1L117 1M121 17L117 17M117 1L117 17M117 1L113 1M117 17L113 17M113 1L109 1M113 1L113 17M109 1L105 1M109 1L109 17M105 1L105 17M105 1L101 1M113 17L109 17M109 17L105 17M105 17L101 17M101 1L101 17M101 1L97 1M101 17L97 17M97 1L93 1M97 1L97 17M93 1L93 17M93 1L89 1M97 17L93 17M93 17L89 17M89 1L89 17M89 1L85 1M89 17L85 17M85 1L81 1M85 1L85 17M81 1L77 1M81 1L81 17M77 1L77 17M77 1L73 1M85 17L81 17M81 17L77 17M77 17L73 17M73 1L73 17M73 1L69 1M73 17L69 17M69 1L69 17M69 1L65 1M69 17L65 17M65 1L65 17M65 1L61 1M65 17L61 17M61 1L57 1M61 1L61 17M57 1L57 17M57 1L53 1M61 17L57 17M57 17L53 17M53 1L53 17M53 1L49 1M53 17L49 17M49 1L49 17M49 1L45 1M49 17L45 17M45 1L41 1L41 17L45 17M45 1L45 17" stroke="#A3C3CE" stroke-linecap="round" stroke-linejoin="round"/>
<path d="M225 65L225 81M225 65L221 65M225 65H229L229 81H225M225 81L221 81M221 65L221 81M221 65H217M221 81L217 81M217 65L217 81M217 65L213 65M217 81H213M213 65L213 81M213 65H209M213 81H209M209 65L205 65M209 65L209 81M205 65H201M205 65L205 81M201 65L201 81M201 65L197 65M209 81L205 81M205 81L201 81M201 81H197M197 65L197 81M197 65H193M197 81H193M193 65L189 65M193 65L193 81M189 65L189 81M189 65H185M193 81L189 81M189 81H185M185 65L185 81M185 65L181 65M185 81L181 81M181 65H177M181 65L181 81M177 65L173 65M177 65L177 81M173 65L173 81M173 65H169M181 81H177M177 81L173 81M173 81H169M169 65L169 81M169 65L165 65M169 81L165 81M165 65L165 81M165 65H161M165 81H161M161 65L161 81M161 65L157 65M161 81L157 81M157 65H153M157 65L157 81M153 65L153 81M153 65L149 65M157 81H153M153 81L149 81M149 65L149 81M149 65H145M149 81H145M145 65L145 81M145 65L141 65M145 81H141M141 65H137L137 81L141 81M141 65L141 81" stroke="#A3C3CE" stroke-linecap="round" stroke-linejoin="round"/>
<path d="M133 0.999992L225 1M133 17L225 17M225 9L133 8.99999" stroke="#A3C3CE" stroke-linecap="round" stroke-linejoin="round"/>
<path d="M225 13L133 13M225 5L133 5" stroke="#A3C3CE" stroke-linecap="round" stroke-linejoin="round" stroke-dasharray="8 8"/>
<path d="M41 65C42.5621 65 43.4379 63.8 45 63.8C46.5621 63.8 47.4379 65 49 65C50.5621 65 51.4379 63.8 53 63.8C54.5621 63.8 55.4379 65 57 65C58.5621 65 59.4379 63.8 61 63.8C62.5621 63.8 63.4379 65 65 65C66.5621 65 67.4379 63.8 69 63.8C70.5621 63.8 71.4379 65 73 65C74.5621 65 75.4379 63.8 77 63.8C78.5621 63.8 79.4379 65 81 65C82.5621 65 83.4379 63.8 85 63.8C86.5621 63.8 87.4379 65 89 65C90.5621 65 91.4379 63.8 93 63.8C94.5621 63.8 95.4379 65 97 65C98.5621 65 99.4379 63.8 101 63.8C102.562 63.8 103.438 65 105 65C106.562 65 107.438 63.8 109 63.8C110.562 63.8 111.438 65 113 65C114.562 65 115.438 63.8 117 63.8C118.562 63.8 119.438 65 121 65C122.562 65 123.438 63.8 125 63.8C126.562 63.8 127.438 65 129 65C130.562 65 131.438 63.8 133 63.8C134.562 63.8 135.438 65 137 65M41 69C42.5621 69 43.4379 67.8 45 67.8C46.5621 67.8 47.4379 69 49 69C50.5621 69 51.4379 67.8 53 67.8C54.5621 67.8 55.4379 69 57 69C58.5621 69 59.4379 67.8 61 67.8C62.5621 67.8 63.4379 69 65 69C66.5621 69 67.4379 67.8 69 67.8C70.5621 67.8 71.4379 69 73 69C74.5621 69 75.4379 67.8 77 67.8C78.5621 67.8 79.4379 69 81 69C82.5621 69 83.4379 67.8 85 67.8C86.5621 67.8 87.4379 69 89 69C90.5621 69 91.4379 67.8 93 67.8C94.5621 67.8 95.4379 69 97 69C98.5621 69 99.4379 67.8 101 67.8C102.562 67.8 103.438 69 105 69C106.562 69 107.438 67.8 109 67.8C110.562 67.8 111.438 69 113 69C114.562 69 115.438 67.8 117 67.8C118.562 67.8 119.438 69 121 69C122.562 69 123.438 67.8 125 67.8C126.562 67.8 127.438 69 129 69C130.562 69 131.438 67.8 133 67.8C134.562 67.8 135.438 69 137 69M41 73C42.5621 73 43.4379 71.8 45 71.8C46.5621 71.8 47.4379 73 49 73C50.5621 73 51.4379 71.8 53 71.8C54.5621 71.8 55.4379 73 57 73C58.5621 73 59.4379 71.8 61 71.8C62.5621 71.8 63.4379 73 65 73C66.5621 73 67.4379 71.8 69 71.8C70.5621 71.8 71.4379 73 73 73C74.5621 73 75.4379 71.8 77 71.8C78.5621 71.8 79.4379 73 81 73C82.5621 73 83.4379 71.8 85 71.8C86.5621 71.8 87.4379 73 89 73C90.5621 73 91.4379 71.8 93 71.8C94.5621 71.8 95.4379 73 97 73C98.5621 73 99.4379 71.8 101 71.8C102.562 71.8 103.438 73 105 73C106.562 73 107.438 71.8 109 71.8C110.562 71.8 111.438 73 113 73C114.562 73 115.438 71.8 117 71.8C118.562 71.8 119.438 73 121 73C122.562 73 123.438 71.8 125 71.8C126.562 71.8 127.438 73 129 73C130.562 73 131.438 71.8 133 71.8C134.562 71.8 135.438 73 137 73M41 77C42.5621 77 43.4379 75.8 45 75.8C46.5621 75.8 47.4379 77 49 77C50.5621 77 51.4379 75.8 53 75.8C54.5621 75.8 55.4379 77 57 77C58.5621 77 59.4379 75.8 61 75.8C62.5621 75.8 63.4379 77 65 77C66.5621 77 67.4379 75.8 69 75.8C70.5621 75.8 71.4379 77 73 77C74.5621 77 75.4379 75.8 77 75.8C78.5621 75.8 79.4379 77 81 77C82.5621 77 83.4379 75.8 85 75.8C86.5621 75.8 87.4379 77 89 77C90.5621 77 91.4379 75.8 93 75.8C94.5621 75.8 95.4379 77 97 77C98.5621 77 99.4379 75.8 101 75.8C102.562 75.8 103.438 77 105 77C106.562 77 107.438 75.8 109 75.8C110.562 75.8 111.438 77 113 77C114.562 77 115.438 75.8 117 75.8C118.562 75.8 119.438 77 121 77C122.562 77 123.438 75.8 125 75.8C126.562 75.8 127.438 77 129 77C130.562 77 131.438 75.8 133 75.8C134.562 75.8 135.438 77 137 77M41 81C42.5621 81 43.4379 79.8 45 79.8C46.5621 79.8 47.4379 81 49 81C50.5621 81 51.4379 79.8 53 79.8C54.5621 79.8 55.4379 81 57 81C58.5621 81 59.4379 79.8 61 79.8C62.5621 79.8 63.4379 81 65 81C66.5621 81 67.4379 79.8 69 79.8C70.5621 79.8 71.4379 81 73 81C74.5621 81 75.4379 79.8 77 79.8C78.5621 79.8 79.4379 81 81 81C82.5621 81 83.4379 79.8 85 79.8C86.5621 79.8 87.4379 81 89 81C90.5621 81 91.4379 79.8 93 79.8C94.5621 79.8 95.4379 81 97 81C98.5621 81 99.4379 79.8 101 79.8C102.562 79.8 103.438 81 105 81C106.562 81 107.438 79.8 109 79.8C110.562 79.8 111.438 81 113 81C114.562 81 115.438 79.8 117 79.8C118.562 79.8 119.438 81 121 81C122.562 81 123.438 79.8 125 79.8C126.562 79.8 127.438 81 129 81C130.562 81 131.438 79.8 133 79.8C134.562 79.8 135.438 81 137 81" stroke="#A3C3CE" stroke-linecap="round" stroke-linejoin="round"/>
<path d="M1.3447 35.7252C1.11733 37.4512 1 39.2119 1 41H17C17 39.9111 17.0725 38.8391 17.213 37.7886M1.3447 35.7252C1.57012 34.0141 1.90369 32.3369 2.33835 30.701M1.3447 35.7252L17.213 37.7886M2.33835 30.701C2.7989 28.9677 3.37291 27.2806 4.05195 25.6482M2.33835 30.701L17.8097 34.7954M4.05195 25.6482C4.73455 24.0072 5.52328 22.4215 6.40957 20.8996M4.05195 25.6482L18.8649 31.7082M6.40957 20.8996C7.27385 19.4155 8.23091 17.992 9.2728 16.6372M6.40957 20.8996L20.3118 28.827M9.2728 16.6372C10.3535 15.2319 11.5254 13.9005 12.7798 12.6518M9.2728 16.6372L22.0257 26.3021M12.7798 12.6518C14.0257 11.4115 15.3528 10.2529 16.7525 9.18447M12.7798 12.6518L24.1642 23.8957M16.7525 9.18447C18.0953 8.15951 19.505 7.21763 20.9737 6.3665M16.7525 9.18447L26.5699 21.8209M20.9737 6.3665C22.4845 5.49102 24.0579 4.71157 25.6855 4.03647M20.9737 6.3665L29.0498 20.1821M25.6855 4.03647C27.3092 3.363 28.9868 2.79339 30.7102 2.33594M25.6855 4.03647L31.8644 18.7999M30.7102 2.33594C32.3433 1.90242 34.0176 1.56963 35.7257 1.34463M30.7102 2.33594L34.9006 17.7819M35.7257 1.34463C37.4516 1.1173 39.2121 0.999999 41 0.999999L41 17C39.9288 17 38.8741 17.0702 37.84 17.2062M35.7257 1.34463L37.84 17.2062M37.84 17.2062C36.8395 17.3378 35.8584 17.531 34.9006 17.7819M34.9006 17.7819C33.8592 18.0548 32.8455 18.3958 31.8644 18.7999M31.8644 18.7999C30.8925 19.2003 29.9526 19.6627 29.0498 20.1821M29.0498 20.1821C28.188 20.6778 27.36 21.2255 26.5699 21.8209M26.5699 21.8209C25.7226 22.4594 24.9189 23.1528 24.1642 23.8957M24.1642 23.8957C23.3993 24.6487 22.6846 25.4527 22.0257 26.3021M22.0257 26.3021C21.403 27.1047 20.8302 27.9479 20.3118 28.827M20.3118 28.827C19.7678 29.7496 19.2837 30.7118 18.8649 31.7082M18.8649 31.7082C18.4461 32.7048 18.0925 33.7357 17.8097 34.7954M17.8097 34.7954C17.5496 35.7701 17.3493 36.7692 17.213 37.7886" stroke="#A3C3CE" stroke-linecap="round" stroke-linejoin="round"/>
<path d="M1.3447 46.2748C1.11733 44.5488 1 42.7881 1 41H17C17 42.0889 17.0725 43.1609 17.213 44.2114M1.3447 46.2748C1.57012 47.9859 1.90369 49.6631 2.33835 51.299M1.3447 46.2748L17.213 44.2114M2.33835 51.299C2.7989 53.0323 3.37291 54.7194 4.05195 56.3518M2.33835 51.299L17.8097 47.2046M4.05195 56.3518C4.73455 57.9928 5.52328 59.5785 6.40957 61.1004M4.05195 56.3518L18.8649 50.2918M6.40957 61.1004C7.27385 62.5845 8.23091 64.008 9.2728 65.3628M6.40957 61.1004L20.3118 53.173M9.2728 65.3628C10.3535 66.7681 11.5254 68.0995 12.7798 69.3482M9.2728 65.3628L22.0257 55.6979M12.7798 69.3482C14.0257 70.5885 15.3528 71.7471 16.7525 72.8155M12.7798 69.3482L24.1642 58.1043M16.7525 72.8155C18.0953 73.8405 19.505 74.7824 20.9737 75.6335M16.7525 72.8155L26.5699 60.1791M20.9737 75.6335C22.4845 76.509 24.0579 77.2884 25.6855 77.9635M20.9737 75.6335L29.0498 61.8179M25.6855 77.9635C27.3092 78.637 28.9868 79.2066 30.7102 79.6641M25.6855 77.9635L31.8644 63.2001M30.7102 79.6641C32.3433 80.0976 34.0176 80.4304 35.7257 80.6554M30.7102 79.6641L34.9006 64.2181M35.7257 80.6554C37.4516 80.8827 39.2121 81 41 81L41 65C39.9288 65 38.8741 64.9298 37.84 64.7938M35.7257 80.6554L37.84 64.7938M37.84 64.7938C36.8395 64.6622 35.8584 64.469 34.9006 64.2181M34.9006 64.2181C33.8592 63.9452 32.8455 63.6042 31.8644 63.2001M31.8644 63.2001C30.8925 62.7997 29.9526 62.3373 29.0498 61.8179M29.0498 61.8179C28.188 61.3222 27.36 60.7745 26.5699 60.1791M26.5699 60.1791C25.7226 59.5406 24.9189 58.8472 24.1642 58.1043M24.1642 58.1043C23.3993 57.3513 22.6846 56.5473 22.0257 55.6979M22.0257 55.6979C21.403 54.8953 20.8302 54.0521 20.3118 53.173M20.3118 53.173C19.7678 52.2504 19.2837 51.2882 18.8649 50.2918M18.8649 50.2918C18.4461 49.2952 18.0925 48.2643 17.8097 47.2046M17.8097 47.2046C17.5496 46.2299 17.3493 45.2308 17.213 44.2114" stroke="#A3C3CE" stroke-linecap="round" stroke-linejoin="round"/>
</svg>
