<svg width="181" height="802" viewBox="0 0 181 802" fill="none" xmlns="http://www.w3.org/2000/svg">
<path d="M20 1H10M20 1V41M20 1C24.4698 1 28.8711 1.29327 33.1857 1.86159M120 101V111M120 101H80M120 101C120 96.5298 119.707 92.1281 119.138 87.8131M20 41H10M20 41C22.6779 41 25.3148 41.1754 27.8999 41.5154M80 101V111M80 101C80 98.2777 79.8187 95.5977 79.4675 92.9714M80 701V691M80 701H120M80 701C80 705.47 80.2933 709.872 80.8618 714.187M120 701V691M120 701C120 703.722 120.181 706.402 120.532 709.029M120 111V121M120 111H80M120 121V131M120 121H80M120 131V141M120 131H80M120 141V151M120 141H80M120 151V161M120 151H80M120 161V171M120 161H80M120 171V181M120 171H80M120 181V191M120 181H80M120 191V201M120 191H80M120 201V211M120 201H80M120 211V221M120 211H80M120 221V231M120 221H80M120 231V241M120 231H80M120 241V251M120 241H80M120 251V261M120 251H80M120 261V271M120 261H80M120 271V281M120 271H80M120 281V291M120 281H80M120 291V591M120 291H80M120 291V301M120 591V601M120 591H80M120 591V581M120 591V592.5M120 601V611M120 601H80M120 611V621M120 611H80M120 621V631M120 621H80M120 631V641M120 631H80M120 641V651M120 641H80M120 651V661M120 651H80M120 661V671M120 661H80M120 671V681M120 671H80M120 681V691M120 681H80M120 691H80M80 111V121M80 121V131M80 131V141M80 141V151M80 151V161M80 161V171M80 171V181M80 181V191M80 191V201M80 201V211M80 211V221M80 221V231M80 231V241M80 241V251M80 251V261M80 261V271M80 271V281M80 281V291M80 291V591M80 291V301M80 591V601M80 591V581M80 591V592.5M80 601V611M80 611V621M80 621V631M80 631V641M80 641V651M80 651V661M80 661V671M80 671V681M80 681V691M-20 1H-30V41H-20M-20 1H-10M-20 1V41M-10 1H0M-10 1V41M0 1H10M0 1V41M10 1V41M-20 41H-10M-10 41H0M0 41H10M119.138 87.8131C118.575 83.5351 117.741 79.3424 116.654 75.2526M119.138 87.8131L79.4675 92.9714M116.654 75.2526C115.503 70.9193 114.068 66.7015 112.37 62.6205M116.654 75.2526L77.9757 85.4886M112.37 62.6205C110.664 58.518 108.692 54.5537 106.476 50.749M112.37 62.6205L75.3377 77.7705M106.476 50.749C104.315 47.0387 101.923 43.4801 99.318 40.093M106.476 50.749L71.7205 70.5675M99.318 40.093C96.6163 36.5799 93.6864 33.2513 90.5505 30.1295M99.318 40.093L67.4359 64.2552M90.5505 30.1295C87.4359 27.0288 84.118 24.1322 80.6187 21.4612M90.5505 30.1295L62.0894 58.2393M80.6187 21.4612C77.2617 18.8988 73.7376 16.5441 70.0657 14.4163M80.6187 21.4612L56.0752 53.0522M70.0657 14.4163C66.2887 12.2276 62.3553 10.2789 58.2863 8.59119M70.0657 14.4163L49.8755 48.9551M58.2863 8.59119C54.2271 6.9075 50.033 5.48348 45.7246 4.33986M58.2863 8.59119L42.839 45.4998M45.7246 4.33986C41.6416 3.25606 37.4561 2.4241 33.1857 1.86159M45.7246 4.33986L35.2485 42.9548M33.1857 1.86159L27.8999 41.5154M27.8999 41.5154C30.4013 41.8444 32.8541 42.3275 35.2485 42.9548M35.2485 42.9548C37.8519 43.6369 40.3863 44.4894 42.839 45.4998M42.839 45.4998C45.2687 46.5008 47.6184 47.6567 49.8755 48.9551M49.8755 48.9551C52.0299 50.1945 54.1 51.5637 56.0752 53.0522M56.0752 53.0522C58.1935 54.6485 60.2026 56.3819 62.0894 58.2393M62.0894 58.2393C64.0018 60.1219 65.7886 62.1317 67.4359 64.2552M67.4359 64.2552C68.9924 66.2618 70.4245 68.3697 71.7205 70.5675M71.7205 70.5675C73.0806 72.8741 74.2908 75.2795 75.3377 77.7705M75.3377 77.7705C76.3849 80.2621 77.2687 82.8392 77.9757 85.4886M77.9757 85.4886C78.626 87.9253 79.1267 90.423 79.4675 92.9714M80.8618 714.187C81.4253 718.465 82.2592 722.658 83.3459 726.747M80.8618 714.187L120.532 709.029M83.3459 726.747C84.4972 731.081 85.9323 735.298 87.6299 739.38M83.3459 726.747L122.024 716.511M87.6299 739.38C89.3364 743.482 91.3082 747.446 93.5239 751.251M87.6299 739.38L124.662 724.229M93.5239 751.251C95.6846 754.961 98.0773 758.52 100.682 761.907M93.5239 751.251L128.28 731.432M100.682 761.907C103.384 765.42 106.314 768.749 109.45 771.871M100.682 761.907L132.564 737.745M109.45 771.871C112.564 774.971 115.882 777.868 119.381 780.539M109.45 771.871L137.911 743.761M119.381 780.539C122.738 783.101 126.262 785.456 129.934 787.584M119.381 780.539L143.925 748.948M129.934 787.584C133.711 789.772 137.645 791.721 141.714 793.409M129.934 787.584L150.124 753.045M141.714 793.409C145.773 795.092 149.967 796.517 154.275 797.66M141.714 793.409L157.161 756.5M154.275 797.66C158.358 798.744 162.544 799.576 166.814 800.138M154.275 797.66L164.751 759.045M166.814 800.138C171.129 800.707 175.53 801 180 801V761C177.322 761 174.685 760.825 172.1 760.485M166.814 800.138L172.1 760.485M172.1 760.485C169.599 760.156 167.146 759.672 164.751 759.045M164.751 759.045C162.148 758.363 159.614 757.511 157.161 756.5M157.161 756.5C154.731 755.499 152.382 754.343 150.124 753.045M150.124 753.045C147.97 751.806 145.9 750.436 143.925 748.948M143.925 748.948C141.807 747.351 139.797 745.618 137.911 743.761M137.911 743.761C135.998 741.878 134.211 739.868 132.564 737.745M132.564 737.745C131.008 735.738 129.576 733.63 128.28 731.432M128.28 731.432C126.919 729.126 125.709 726.72 124.662 724.229M124.662 724.229C123.615 721.738 122.731 719.161 122.024 716.511M122.024 716.511C121.374 714.075 120.873 711.577 120.532 709.029M120 301V311M120 301H80M120 311V321M120 311H80M120 321V331M120 321H80M120 331V341M120 331H80M120 341V351M120 341H80M120 351V361M120 351H80M120 361V371M120 361H80M120 371V381M120 371H80M120 381V391M120 381H80M120 391V401M120 391H80M120 401V411M120 401H80M120 411V421M120 411H80M120 421V431M120 421H80M120 431V441M120 431H80M120 441V451M120 441H80M120 451V461M120 451H80M120 461H80M120 461V471M80 301V311M80 311V321M80 321V331M80 331V341M80 341V351M80 351V361M80 361V371M80 371V381M80 381V391M80 391V401M80 401V411M80 411V421M80 421V431M80 431V441M80 441V451M80 451V461M80 461V471M120 471V481M120 471H80M120 481V491M120 481H80M120 491V501M120 491H80M120 501V511M120 501H80M120 511V521M120 511H80M120 521V531M120 521H80M120 531V541M120 531H80M120 541V551M120 541H80M120 551V561M120 551H80M120 561V571M120 561H80M120 571V581M120 571H80M120 581H80M80 471V481M80 481V491M80 491V501M80 501V511M80 511V521M80 521V531M80 531V541M80 541V551M80 551V561M80 561V571M80 571V581" stroke="#A3C3CE" stroke-width="2" stroke-linecap="round" stroke-linejoin="round"/>
</svg>
