<svg width="753" height="400" viewBox="0 0 753 400" fill="none" xmlns="http://www.w3.org/2000/svg">
<path d="M1.51705 54.8877C1.176 57.4767 1 60.1177 1 62.7998L25 62.7998C25 61.1664 25.1088 59.5584 25.3195 57.9827M1.51705 54.8877C1.85518 52.3209 2.35554 49.8052 3.00753 47.3513M1.51705 54.8877L25.3195 57.9827M3.00753 47.3513C3.69834 44.7514 4.55937 42.2207 5.57793 39.7721M3.00753 47.3513L26.2146 53.4929M5.57793 39.7721C6.60182 37.3106 7.78492 34.9321 9.11436 32.6492M5.57793 39.7721L27.7974 48.8621M9.11436 32.6492C10.4108 30.423 11.8464 28.2878 13.4092 26.2556M9.11436 32.6492L29.9677 44.5403M13.4092 26.2556C15.0302 24.1477 16.7882 22.1506 18.6697 20.2775M13.4092 26.2556L32.5385 40.753M18.6697 20.2775C20.5385 18.4171 22.5292 16.6791 24.6288 15.0765M18.6697 20.2775L35.7464 37.1434M24.6288 15.0765C26.643 13.5391 28.7574 12.1262 30.9606 10.8496M24.6288 15.0765L39.3549 34.0312M30.9606 10.8496C33.2268 9.53634 35.5868 8.36715 38.0282 7.35451M30.9606 10.8496L43.0747 31.5729M38.0282 7.35451C40.4638 6.3443 42.9802 5.48988 45.5652 4.80371M38.0282 7.35451L47.2966 29.4997M45.5652 4.80371C48.015 4.15343 50.5263 3.65425 53.0886 3.31675M45.5652 4.80371L51.8509 27.9727M53.0886 3.31675C55.6774 2.97575 58.3181 2.7998 61 2.7998V26.7998C59.3933 26.7998 57.8111 26.9051 56.2601 27.1091M53.0886 3.31675L56.2601 27.1091M56.2601 27.1091C54.7593 27.3065 53.2875 27.5963 51.8509 27.9727M51.8509 27.9727C50.2888 28.3819 48.7682 28.8934 47.2966 29.4997M47.2966 29.4997C45.8388 30.1003 44.429 30.7938 43.0747 31.5729M43.0747 31.5729C41.7821 32.3165 40.54 33.1381 39.3549 34.0312M39.3549 34.0312C38.0839 34.9889 36.8784 36.0289 35.7464 37.1434M35.7464 37.1434C34.5989 38.2729 33.5269 39.4789 32.5385 40.753M32.5385 40.753C31.6045 41.9569 30.7453 43.2216 29.9677 44.5403M29.9677 44.5403C29.1517 45.9242 28.4255 47.3675 27.7974 48.8621M27.7974 48.8621C27.1691 50.3571 26.6388 51.9033 26.2146 53.4929M26.2146 53.4929C25.8244 54.9549 25.524 56.4536 25.3195 57.9827" stroke="#A3C3CE" stroke-width="2" stroke-linecap="round" stroke-linejoin="round"/>
<path d="M53.0879 398.283C55.6769 398.624 58.3179 398.8 61 398.8L61 374.8C59.3666 374.8 57.7586 374.691 56.1829 374.48M53.0879 398.283C50.5211 397.945 48.0054 397.444 45.5515 396.792M53.0879 398.283L56.1829 374.48M45.5515 396.792C42.9515 396.101 40.4209 395.24 37.9723 394.222M45.5515 396.792L51.6931 373.585M37.9723 394.222C35.5108 393.198 33.1322 392.015 30.8494 390.685M37.9723 394.222L47.0623 372.002M30.8494 390.685C28.6232 389.389 26.488 387.953 24.4558 386.391M30.8494 390.685L42.7405 369.832M24.4558 386.391C22.3479 384.77 20.3508 383.012 18.4777 381.13M24.4558 386.391L38.9531 367.261M18.4777 381.13C16.6173 379.261 14.8793 377.271 13.2767 375.171M18.4777 381.13L35.3436 364.053M13.2767 375.171C11.7393 373.157 10.3264 371.042 9.04975 368.839M13.2767 375.171L32.2313 360.445M9.04975 368.839C7.73653 366.573 6.56735 364.213 5.55471 361.772M9.04975 368.839L29.7731 356.725M5.55471 361.772C4.5445 359.336 3.69008 356.82 3.0039 354.235M5.55471 361.772L27.6999 352.503M3.0039 354.235C2.35362 351.785 1.85444 349.273 1.51694 346.711M3.0039 354.235L26.1729 347.949M1.51694 346.711C1.17595 344.122 0.999995 341.482 0.999995 338.8L25 338.8C25 340.407 25.1053 341.989 25.3093 343.54M1.51694 346.711L25.3093 343.54M25.3093 343.54C25.5067 345.041 25.7965 346.512 26.1729 347.949M26.1729 347.949C26.5821 349.511 27.0936 351.032 27.6999 352.503M27.6999 352.503C28.3005 353.961 28.994 355.371 29.7731 356.725M29.7731 356.725C30.5167 358.018 31.3383 359.26 32.2313 360.445M32.2313 360.445C33.1891 361.716 34.2291 362.921 35.3436 364.053M35.3436 364.053C36.4731 365.201 37.6791 366.273 38.9531 367.261M38.9531 367.261C40.1571 368.195 41.4218 369.054 42.7405 369.832M42.7405 369.832C44.1244 370.648 45.5677 371.374 47.0623 372.002M47.0623 372.002C48.5572 372.631 50.1035 373.161 51.6931 373.585M51.6931 373.585C53.1551 373.975 54.6538 374.276 56.1829 374.48" stroke="#A3C3CE" stroke-width="2" stroke-linecap="round" stroke-linejoin="round"/>
<path d="M751 2.7998H757V26.7998H751M751 2.7998V26.7998M751 2.7998H745M751 26.7998H745M745 2.7998V26.7998M745 2.7998H739M745 26.7998H739M739 2.7998V26.7998M739 2.7998H733M739 26.7998H733M733 2.7998H727M733 2.7998V26.7998M727 2.7998H721M727 2.7998V26.7998M721 2.7998V26.7998M721 2.7998H715M733 26.7998H727M727 26.7998H721M721 26.7998H715M715 2.7998V26.7998M715 2.7998H709M715 26.7998H709M709 2.7998H703M709 2.7998V26.7998M703 2.7998V26.7998M703 2.7998H697M709 26.7998H703M703 26.7998H697M697 2.7998V26.7998M697 2.7998H691M697 26.7998H691M691 2.7998H685M691 2.7998V26.7998M685 2.7998H679M685 2.7998V26.7998M679 2.7998V26.7998M679 2.7998H673M691 26.7998H685M685 26.7998H679M679 26.7998H673M673 2.7998V26.7998M673 2.7998H667M673 26.7998H667M667 2.7998V26.7998M667 2.7998H661M667 26.7998H661M661 2.7998V26.7998M661 2.7998H655M661 26.7998H655M655 2.7998H649M655 2.7998V26.7998M649 2.7998V26.7998M649 2.7998H643M655 26.7998H649M649 26.7998H643M643 2.7998V26.7998M643 2.7998H637M643 26.7998H637M637 2.7998V26.7998M637 2.7998H631M637 26.7998H631M631 2.7998H625M631 2.7998V26.7998M625 2.7998V26.7998M625 2.7998H619V26.7998H625M631 26.7998H625" stroke="#A3C3CE" stroke-width="2" stroke-linecap="round" stroke-linejoin="round"/>
<path d="M613 2.7998H619V26.7998H613M613 2.7998V26.7998M613 2.7998H607M613 26.7998H607M607 2.7998V26.7998M607 2.7998H601M607 26.7998H601M601 2.7998V26.7998M601 2.7998H595M601 26.7998H595M595 2.7998H589M595 2.7998V26.7998M589 2.7998H583M589 2.7998V26.7998M583 2.7998V26.7998M583 2.7998H577M595 26.7998H589M589 26.7998H583M583 26.7998H577M577 2.7998V26.7998M577 2.7998H571M577 26.7998H571M571 2.7998H565M571 2.7998V26.7998M565 2.7998V26.7998M565 2.7998H559M571 26.7998H565M565 26.7998H559M559 2.7998V26.7998M559 2.7998H553M559 26.7998H553M553 2.7998H547M553 2.7998V26.7998M547 2.7998H541M547 2.7998V26.7998M541 2.7998V26.7998M541 2.7998H535M553 26.7998H547M547 26.7998H541M541 26.7998H535M535 2.7998V26.7998M535 2.7998H529M535 26.7998H529M529 2.7998V26.7998M529 2.7998H523M529 26.7998H523M523 2.7998V26.7998M523 2.7998H517M523 26.7998H517M517 2.7998H511M517 2.7998V26.7998M511 2.7998V26.7998M511 2.7998H505M517 26.7998H511M511 26.7998H505M505 2.7998V26.7998M505 2.7998H499M505 26.7998H499M499 2.7998V26.7998M499 2.7998H493M499 26.7998H493M493 2.7998H487M493 2.7998V26.7998M487 2.7998V26.7998M487 2.7998H481V26.7998H487M493 26.7998H487" stroke="#A3C3CE" stroke-width="2" stroke-linecap="round" stroke-linejoin="round"/>
<path d="M475 2.7998H481V26.7998H475M475 2.7998V26.7998M475 2.7998H469M475 26.7998H469M469 2.7998V26.7998M469 2.7998H463M469 26.7998H463M463 2.7998V26.7998M463 2.7998H457M463 26.7998H457M457 2.7998H451M457 2.7998V26.7998M451 2.7998H445M451 2.7998V26.7998M445 2.7998V26.7998M445 2.7998H439M457 26.7998H451M451 26.7998H445M445 26.7998H439M439 2.7998V26.7998M439 2.7998H433M439 26.7998H433M433 2.7998H427M433 2.7998V26.7998M427 2.7998V26.7998M427 2.7998H421M433 26.7998H427M427 26.7998H421M421 2.7998V26.7998M421 2.7998H415M421 26.7998H415M415 2.7998H409M415 2.7998V26.7998M409 2.7998H403M409 2.7998V26.7998M403 2.7998V26.7998M403 2.7998H397M415 26.7998H409M409 26.7998H403M403 26.7998H397M397 2.7998V26.7998M397 2.7998H391M397 26.7998H391M391 2.7998V26.7998M391 2.7998H385M391 26.7998H385M385 2.7998V26.7998M385 2.7998H379M385 26.7998H379M379 2.7998H373M379 2.7998V26.7998M373 2.7998V26.7998M373 2.7998H367M379 26.7998H373M373 26.7998H367M367 2.7998V26.7998M367 2.7998H361M367 26.7998H361M361 2.7998V26.7998M361 2.7998H355M361 26.7998H355M355 2.7998H349M355 2.7998V26.7998M349 2.7998V26.7998M349 2.7998H343V26.7998H349M355 26.7998H349" stroke="#A3C3CE" stroke-width="2" stroke-linecap="round" stroke-linejoin="round"/>
<path d="M25 332.8L25 338.8L0.999999 338.8L0.999999 332.8M25 332.8L0.999999 332.8M25 332.8L25 326.8M0.999999 332.8L0.999999 326.8M25 326.8L0.999999 326.8M25 326.8L25 320.8M0.999999 326.8L0.999999 320.8M25 320.8L0.999999 320.8M25 320.8L25 314.8M0.999999 320.8L0.999999 314.8M25 314.8L25 308.8M25 314.8L0.999999 314.8M25 308.8L25 302.8M25 308.8L0.999999 308.8M25 302.8L0.999999 302.8M25 302.8L25 296.8M0.999999 314.8L0.999999 308.8M0.999999 308.8L0.999999 302.8M0.999999 302.8L1 296.8M25 296.8L1 296.8M25 296.8L25 290.8M1 296.8L1 290.8M25 290.8L25 284.8M25 290.8L1 290.8M25 284.8L1 284.8M25 284.8L25 278.8M1 290.8L1 284.8M1 284.8L1 278.8M25 278.8L1 278.8M25 278.8L25 272.8M1 278.8L1 272.8M25 272.8L25 266.8M25 272.8L1 272.8M25 266.8L25 260.8M25 266.8L1 266.8M25 260.8L1 260.8M25 260.8L25 254.8M1 272.8L1 266.8M1 266.8L1 260.8M1 260.8L1 254.8M25 254.8L1 254.8M25 254.8L25 248.8M1 254.8L1 248.8M25 248.8L1 248.8M25 248.8L25 242.8M1 248.8L1 242.8M25 242.8L1 242.8M25 242.8L25 236.8M1 242.8L1 236.8M25 236.8L25 230.8M25 236.8L1 236.8M25 230.8L1 230.8M25 230.8L25 224.8M1 236.8L1 230.8M1 230.8L1 224.8M25 224.8L1 224.8M25 224.8L25 218.8M1 224.8L1 218.8M25 218.8L1 218.8M25 218.8L25 212.8M1 218.8L1 212.8M25 212.8L25 206.8M25 212.8L1 212.8M25 206.8L1 206.8M25 206.8L25 200.8L1 200.8L1 206.8M1 212.8L1 206.8" stroke="#A3C3CE" stroke-width="2" stroke-linecap="round" stroke-linejoin="round"/>
<path d="M193 2.7998H199V26.7998H193M193 2.7998V26.7998M193 2.7998H187M193 26.7998H187M187 2.7998V26.7998M187 2.7998H181M187 26.7998H181M181 2.7998V26.7998M181 2.7998H175M181 26.7998H175M175 2.7998H169M175 2.7998V26.7998M169 2.7998H163M169 2.7998V26.7998M163 2.7998V26.7998M163 2.7998H157M175 26.7998H169M169 26.7998H163M163 26.7998H157M157 2.7998V26.7998M157 2.7998H151M157 26.7998H151M151 2.7998H145M151 2.7998V26.7998M145 2.7998V26.7998M145 2.7998H139M151 26.7998H145M145 26.7998H139M139 2.7998V26.7998M139 2.7998H133M139 26.7998H133M133 2.7998H127M133 2.7998V26.7998M127 2.7998H121M127 2.7998V26.7998M121 2.7998V26.7998M121 2.7998H115M133 26.7998H127M127 26.7998H121M121 26.7998H115M115 2.7998V26.7998M115 2.7998H109M115 26.7998H109M109 2.7998V26.7998M109 2.7998H103M109 26.7998H103M103 2.7998V26.7998M103 2.7998H97M103 26.7998H97M97 2.7998H91M97 2.7998V26.7998M91 2.7998V26.7998M91 2.7998H85M97 26.7998H91M91 26.7998H85M85 2.7998V26.7998M85 2.7998H79M85 26.7998H79M79 2.7998V26.7998M79 2.7998H73M79 26.7998H73M73 2.7998H67M73 2.7998V26.7998M67 2.7998V26.7998M67 2.7998H61V26.7998H67M73 26.7998H67" stroke="#A3C3CE" stroke-width="2" stroke-linecap="round" stroke-linejoin="round"/>
<path d="M337 374.8H343V398.8H337M337 374.8V398.8M337 374.8H331M337 398.8H331M331 374.8V398.8M331 374.8H325M331 398.8H325M325 374.8V398.8M325 374.8H319M325 398.8H319M319 374.8H313M319 374.8V398.8M313 374.8H307M313 374.8V398.8M307 374.8V398.8M307 374.8H301M319 398.8H313M313 398.8H307M307 398.8H301M301 374.8V398.8M301 374.8H295M301 398.8H295M295 374.8H289M295 374.8V398.8M289 374.8V398.8M289 374.8H283M295 398.8H289M289 398.8H283M283 374.8V398.8M283 374.8H277M283 398.8H277M277 374.8H271M277 374.8V398.8M271 374.8H265M271 374.8V398.8M265 374.8V398.8M265 374.8H259M277 398.8H271M271 398.8H265M265 398.8H259M259 374.8V398.8M259 374.8H253M259 398.8H253M253 374.8V398.8M253 374.8H247M253 398.8H247M247 374.8V398.8M247 374.8H241M247 398.8H241M241 374.8H235M241 374.8V398.8M235 374.8V398.8M235 374.8H229M241 398.8H235M235 398.8H229M229 374.8V398.8M229 374.8H223M229 398.8H223M223 374.8V398.8M223 374.8H217M223 398.8H217M217 374.8H211M217 374.8V398.8M211 374.8V398.8M211 374.8H205V398.8H211M217 398.8H211" stroke="#A3C3CE" stroke-width="2" stroke-linecap="round" stroke-linejoin="round"/>
<path d="M0.999993 200.8L0.999999 62.7998M25 200.8L25 62.7998M13 62.7998L13 200.8" stroke="#A3C3CE" stroke-width="2" stroke-linecap="round" stroke-linejoin="round"/>
<path d="M19 62.7998L19 200.8M7.00001 62.7998L7 200.8" stroke="#A3C3CE" stroke-width="2" stroke-linecap="round" stroke-linejoin="round" stroke-dasharray="8 8"/>
<path d="M199 2.8C201.343 2.8 202.657 1 205 1C207.343 1 208.657 2.8 211 2.8C213.343 2.8 214.657 1 217 1C219.343 1 220.657 2.8 223 2.8C225.343 2.8 226.657 1 229 1C231.343 1 232.657 2.8 235 2.8C237.343 2.8 238.657 1 241 1C243.343 1 244.657 2.8 247 2.8C249.343 2.8 250.657 1 253 1C255.343 1 256.657 2.8 259 2.8C261.343 2.8 262.657 1 265 1C267.343 1 268.657 2.8 271 2.8C273.343 2.8 274.657 1 277 1C279.343 1 280.657 2.8 283 2.8C285.343 2.8 286.657 1 289 1C291.343 1 292.657 2.8 295 2.8C297.343 2.8 298.657 1 301 1C303.343 1 304.657 2.8 307 2.8C309.343 2.8 310.657 1 313 1C315.343 1 316.657 2.8 319 2.8C321.343 2.8 322.657 1 325 1C327.343 1 328.657 2.8 331 2.8C333.343 2.8 334.657 1 337 1C339.343 1 340.657 2.8 343 2.8M199 8.8C201.343 8.8 202.657 7 205 7C207.343 7 208.657 8.8 211 8.8C213.343 8.8 214.657 7 217 7C219.343 7 220.657 8.8 223 8.8C225.343 8.8 226.657 7 229 7C231.343 7 232.657 8.8 235 8.8C237.343 8.8 238.657 7 241 7C243.343 7 244.657 8.8 247 8.8C249.343 8.8 250.657 7 253 7C255.343 7 256.657 8.8 259 8.8C261.343 8.8 262.657 7 265 7C267.343 7 268.657 8.8 271 8.8C273.343 8.8 274.657 7 277 7C279.343 7 280.657 8.8 283 8.8C285.343 8.8 286.657 7 289 7C291.343 7 292.657 8.8 295 8.8C297.343 8.8 298.657 7 301 7C303.343 7 304.657 8.8 307 8.8C309.343 8.8 310.657 7 313 7C315.343 7 316.657 8.8 319 8.8C321.343 8.8 322.657 7 325 7C327.343 7 328.657 8.8 331 8.8C333.343 8.8 334.657 7 337 7C339.343 7 340.657 8.8 343 8.8M199 14.8C201.343 14.8 202.657 13 205 13C207.343 13 208.657 14.8 211 14.8C213.343 14.8 214.657 13 217 13C219.343 13 220.657 14.8 223 14.8C225.343 14.8 226.657 13 229 13C231.343 13 232.657 14.8 235 14.8C237.343 14.8 238.657 13 241 13C243.343 13 244.657 14.8 247 14.8C249.343 14.8 250.657 13 253 13C255.343 13 256.657 14.8 259 14.8C261.343 14.8 262.657 13 265 13C267.343 13 268.657 14.8 271 14.8C273.343 14.8 274.657 13 277 13C279.343 13 280.657 14.8 283 14.8C285.343 14.8 286.657 13 289 13C291.343 13 292.657 14.8 295 14.8C297.343 14.8 298.657 13 301 13C303.343 13 304.657 14.8 307 14.8C309.343 14.8 310.657 13 313 13C315.343 13 316.657 14.8 319 14.8C321.343 14.8 322.657 13 325 13C327.343 13 328.657 14.8 331 14.8C333.343 14.8 334.657 13 337 13C339.343 13 340.657 14.8 343 14.8M199 20.8C201.343 20.8 202.657 19 205 19C207.343 19 208.657 20.8 211 20.8C213.343 20.8 214.657 19 217 19C219.343 19 220.657 20.8 223 20.8C225.343 20.8 226.657 19 229 19C231.343 19 232.657 20.8 235 20.8C237.343 20.8 238.657 19 241 19C243.343 19 244.657 20.8 247 20.8C249.343 20.8 250.657 19 253 19C255.343 19 256.657 20.8 259 20.8C261.343 20.8 262.657 19 265 19C267.343 19 268.657 20.8 271 20.8C273.343 20.8 274.657 19 277 19C279.343 19 280.657 20.8 283 20.8C285.343 20.8 286.657 19 289 19C291.343 19 292.657 20.8 295 20.8C297.343 20.8 298.657 19 301 19C303.343 19 304.657 20.8 307 20.8C309.343 20.8 310.657 19 313 19C315.343 19 316.657 20.8 319 20.8C321.343 20.8 322.657 19 325 19C327.343 19 328.657 20.8 331 20.8C333.343 20.8 334.657 19 337 19C339.343 19 340.657 20.8 343 20.8M199 26.8C201.343 26.8 202.657 25 205 25C207.343 25 208.657 26.8 211 26.8C213.343 26.8 214.657 25 217 25C219.343 25 220.657 26.8 223 26.8C225.343 26.8 226.657 25 229 25C231.343 25 232.657 26.8 235 26.8C237.343 26.8 238.657 25 241 25C243.343 25 244.657 26.8 247 26.8C249.343 26.8 250.657 25 253 25C255.343 25 256.657 26.8 259 26.8C261.343 26.8 262.657 25 265 25C267.343 25 268.657 26.8 271 26.8C273.343 26.8 274.657 25 277 25C279.343 25 280.657 26.8 283 26.8C285.343 26.8 286.657 25 289 25C291.343 25 292.657 26.8 295 26.8C297.343 26.8 298.657 25 301 25C303.343 25 304.657 26.8 307 26.8C309.343 26.8 310.657 25 313 25C315.343 25 316.657 26.8 319 26.8C321.343 26.8 322.657 25 325 25C327.343 25 328.657 26.8 331 26.8C333.343 26.8 334.657 25 337 25C339.343 25 340.657 26.8 343 26.8" stroke="#A3C3CE" stroke-width="2" stroke-linecap="round" stroke-linejoin="round"/>
<path d="M61 374.8C63.3431 374.8 64.6569 373 67 373C69.3431 373 70.6569 374.8 73 374.8C75.3431 374.8 76.6569 373 79 373C81.3431 373 82.6569 374.8 85 374.8C87.3431 374.8 88.6569 373 91 373C93.3431 373 94.6569 374.8 97 374.8C99.3431 374.8 100.657 373 103 373C105.343 373 106.657 374.8 109 374.8C111.343 374.8 112.657 373 115 373C117.343 373 118.657 374.8 121 374.8C123.343 374.8 124.657 373 127 373C129.343 373 130.657 374.8 133 374.8C135.343 374.8 136.657 373 139 373C141.343 373 142.657 374.8 145 374.8C147.343 374.8 148.657 373 151 373C153.343 373 154.657 374.8 157 374.8C159.343 374.8 160.657 373 163 373C165.343 373 166.657 374.8 169 374.8C171.343 374.8 172.657 373 175 373C177.343 373 178.657 374.8 181 374.8C183.343 374.8 184.657 373 187 373C189.343 373 190.657 374.8 193 374.8C195.343 374.8 196.657 373 199 373C201.343 373 202.657 374.8 205 374.8M61 380.8C63.3431 380.8 64.6569 379 67 379C69.3431 379 70.6569 380.8 73 380.8C75.3431 380.8 76.6569 379 79 379C81.3431 379 82.6569 380.8 85 380.8C87.3431 380.8 88.6569 379 91 379C93.3431 379 94.6569 380.8 97 380.8C99.3431 380.8 100.657 379 103 379C105.343 379 106.657 380.8 109 380.8C111.343 380.8 112.657 379 115 379C117.343 379 118.657 380.8 121 380.8C123.343 380.8 124.657 379 127 379C129.343 379 130.657 380.8 133 380.8C135.343 380.8 136.657 379 139 379C141.343 379 142.657 380.8 145 380.8C147.343 380.8 148.657 379 151 379C153.343 379 154.657 380.8 157 380.8C159.343 380.8 160.657 379 163 379C165.343 379 166.657 380.8 169 380.8C171.343 380.8 172.657 379 175 379C177.343 379 178.657 380.8 181 380.8C183.343 380.8 184.657 379 187 379C189.343 379 190.657 380.8 193 380.8C195.343 380.8 196.657 379 199 379C201.343 379 202.657 380.8 205 380.8M61 386.8C63.3431 386.8 64.6569 385 67 385C69.3431 385 70.6569 386.8 73 386.8C75.3431 386.8 76.6569 385 79 385C81.3431 385 82.6569 386.8 85 386.8C87.3431 386.8 88.6569 385 91 385C93.3431 385 94.6569 386.8 97 386.8C99.3431 386.8 100.657 385 103 385C105.343 385 106.657 386.8 109 386.8C111.343 386.8 112.657 385 115 385C117.343 385 118.657 386.8 121 386.8C123.343 386.8 124.657 385 127 385C129.343 385 130.657 386.8 133 386.8C135.343 386.8 136.657 385 139 385C141.343 385 142.657 386.8 145 386.8C147.343 386.8 148.657 385 151 385C153.343 385 154.657 386.8 157 386.8C159.343 386.8 160.657 385 163 385C165.343 385 166.657 386.8 169 386.8C171.343 386.8 172.657 385 175 385C177.343 385 178.657 386.8 181 386.8C183.343 386.8 184.657 385 187 385C189.343 385 190.657 386.8 193 386.8C195.343 386.8 196.657 385 199 385C201.343 385 202.657 386.8 205 386.8M61 392.8C63.3431 392.8 64.6569 391 67 391C69.3431 391 70.6569 392.8 73 392.8C75.3431 392.8 76.6569 391 79 391C81.3431 391 82.6569 392.8 85 392.8C87.3431 392.8 88.6569 391 91 391C93.3431 391 94.6569 392.8 97 392.8C99.3431 392.8 100.657 391 103 391C105.343 391 106.657 392.8 109 392.8C111.343 392.8 112.657 391 115 391C117.343 391 118.657 392.8 121 392.8C123.343 392.8 124.657 391 127 391C129.343 391 130.657 392.8 133 392.8C135.343 392.8 136.657 391 139 391C141.343 391 142.657 392.8 145 392.8C147.343 392.8 148.657 391 151 391C153.343 391 154.657 392.8 157 392.8C159.343 392.8 160.657 391 163 391C165.343 391 166.657 392.8 169 392.8C171.343 392.8 172.657 391 175 391C177.343 391 178.657 392.8 181 392.8C183.343 392.8 184.657 391 187 391C189.343 391 190.657 392.8 193 392.8C195.343 392.8 196.657 391 199 391C201.343 391 202.657 392.8 205 392.8M61 398.8C63.3431 398.8 64.6569 397 67 397C69.3431 397 70.6569 398.8 73 398.8C75.3431 398.8 76.6569 397 79 397C81.3431 397 82.6569 398.8 85 398.8C87.3431 398.8 88.6569 397 91 397C93.3431 397 94.6569 398.8 97 398.8C99.3431 398.8 100.657 397 103 397C105.343 397 106.657 398.8 109 398.8C111.343 398.8 112.657 397 115 397C117.343 397 118.657 398.8 121 398.8C123.343 398.8 124.657 397 127 397C129.343 397 130.657 398.8 133 398.8C135.343 398.8 136.657 397 139 397C141.343 397 142.657 398.8 145 398.8C147.343 398.8 148.657 397 151 397C153.343 397 154.657 398.8 157 398.8C159.343 398.8 160.657 397 163 397C165.343 397 166.657 398.8 169 398.8C171.343 398.8 172.657 397 175 397C177.343 397 178.657 398.8 181 398.8C183.343 398.8 184.657 397 187 397C189.343 397 190.657 398.8 193 398.8C195.343 398.8 196.657 397 199 397C201.343 397 202.657 398.8 205 398.8" stroke="#A3C3CE" stroke-width="2" stroke-linecap="round" stroke-linejoin="round"/>
</svg>
