<svg width="80" height="80" viewBox="0 0 80 80" fill="none" xmlns="http://www.w3.org/2000/svg">
<path d="M14 8V2H66V8H72V4.5C72 2.567 73.567 1 75.5 1L79 1.00003V4.5C79 6.433 77.433 8 75.5 8H72V14H78V66H72V72H75.5C77.433 72 79 73.567 79 75.5V79H75.5C73.567 79 72 77.433 72 75.5V72H66V78H14V72H8V75.5C8 77.433 6.433 79 4.5 79H1.00002L1 75.5C1 73.567 2.567 72 4.5 72H8L8.00001 66H2.00001V14H8.00001V8H4.50001C2.56701 8 1.00001 6.433 1.00001 4.5L1 1H4.50001C6.433 1 8.00001 2.567 8.00001 4.5V8H14Z" fill="#FBF3E8"/>
<path d="M40 25C33.8854 25 28.9286 29.9568 28.9286 36.0714C28.9286 38.4849 29.8924 40.6676 31.0477 42.5C33.2899 46.056 33.5487 50.1038 33.5719 53.2153C33.5792 54.2015 34.3709 55 35.3571 55H44.6429C45.6291 55 46.4208 54.2015 46.4281 53.2153C46.4513 50.1038 46.7101 46.056 48.9523 42.5C50.1076 40.6676 51.0714 38.4849 51.0714 36.0714C51.0714 29.9568 46.1146 25 40 25Z" fill="#FBF3E8"/>
<path d="M35.7143 37.3214C36.5157 37.3214 37.1387 38.1537 37.5956 40H35.7143C33.5714 40 33.5714 37.3214 35.7143 37.3214Z" fill="#FBF3E8"/>
<path d="M44.6429 37.3214C43.8415 37.3214 43.2184 38.1537 42.7616 40H44.6429C46.7857 40 46.7857 37.3214 44.6429 37.3214Z" fill="#FBF3E8"/>
<path d="M14 2V1.5C13.7239 1.5 13.5 1.72386 13.5 2H14ZM1.00001 4.5L1.50001 4.5L1.50001 4.5L1.00001 4.5ZM2.00001 14V13.5C1.72386 13.5 1.50001 13.7239 1.50001 14H2.00001ZM4.85356 4.14645C4.6583 3.95118 4.34172 3.95118 4.14645 4.14645C3.95119 4.34171 3.95119 4.65829 4.14645 4.85355L4.85356 4.14645ZM1 1V0.5C0.867392 0.5 0.740214 0.552679 0.646446 0.646447C0.552678 0.740215 0.5 0.867393 0.5 1L1 1ZM2.00001 66H1.50001C1.50001 66.2761 1.72386 66.5 2.00001 66.5V66ZM66 2H66.5C66.5 1.72386 66.2761 1.5 66 1.5V2ZM75.5 1L75.5 0.5H75.5V1ZM78 14H78.5C78.5 13.7239 78.2761 13.5 78 13.5V14ZM79 1.00003H79.5C79.5 0.723895 79.2761 0.500038 79 0.500035L79 1.00003ZM75.8536 4.85355C76.0488 4.65829 76.0488 4.34171 75.8536 4.14645C75.6583 3.95118 75.3417 3.95118 75.1464 4.14645L75.8536 4.85355ZM78 66V66.5C78.2761 66.5 78.5 66.2761 78.5 66H78ZM66 78V78.5C66.2761 78.5 66.5 78.2761 66.5 78H66ZM14 78H13.5C13.5 78.2761 13.7239 78.5 14 78.5V78ZM75.1464 75.8536C75.3417 76.0488 75.6583 76.0488 75.8536 75.8536C76.0488 75.6583 76.0488 75.3417 75.8536 75.1464L75.1464 75.8536ZM79 79V79.5C79.2761 79.5 79.5 79.2761 79.5 79H79ZM1 75.5L0.5 75.5L0.5 75.5L1 75.5ZM4.14645 75.1464C3.95118 75.3417 3.95118 75.6583 4.14645 75.8536C4.34171 76.0488 4.65829 76.0488 4.85355 75.8536L4.14645 75.1464ZM1.00002 79L0.500015 79C0.500016 79.2761 0.723874 79.5 1.00002 79.5V79ZM31.0477 42.5L31.4707 42.2333L31.4707 42.2333L31.0477 42.5ZM33.5719 53.2153L34.0718 53.2116L34.0718 53.2116L33.5719 53.2153ZM48.9523 42.5L48.5293 42.2333L48.5293 42.2333L48.9523 42.5ZM46.4281 53.2153L46.9281 53.219L46.9281 53.219L46.4281 53.2153ZM13.5 2V8H14.5V2H13.5ZM13.5 8V14H14.5V8H13.5ZM4.50001 8.5H8.00001V7.5H4.50001V8.5ZM8.50001 8V4.5H7.50001V8H8.50001ZM14 7.5H8.00001V8.5H14V7.5ZM4.50001 1.5C6.15686 1.5 7.50001 2.84315 7.50001 4.5H8.50001C8.50001 2.29086 6.70915 0.5 4.50001 0.5V1.5ZM4.50001 7.5C2.84315 7.5 1.50001 6.15685 1.50001 4.5H0.500007C0.500007 6.70914 2.29087 8.5 4.50001 8.5V7.5ZM14 13.5H8.00001V14.5H14V13.5ZM8.00001 13.5H2.00001V14.5H8.00001V13.5ZM7.50001 8V14H8.50001V8H7.50001ZM8.35356 7.64645L4.85356 4.14645L4.14645 4.85355L7.64645 8.35355L8.35356 7.64645ZM1.50001 4.5L1.5 0.999999L0.5 1L0.500007 4.5L1.50001 4.5ZM1 1.5H4.50001V0.5H1V1.5ZM1.50001 14V66H2.50001V14H1.50001ZM7.50001 14V66H8.50001V14H7.50001ZM13.5 14V66H14.5V14H13.5ZM66 1.5H14V2.5H66V1.5ZM66 7.5H14V8.5H66V7.5ZM66 13.5H14V14.5H66V13.5ZM65.5 2V8H66.5V2H65.5ZM65.5 8V14H66.5V8H65.5ZM75.5 7.5H72V8.5H75.5V7.5ZM72.5 8V4.5H71.5V8H72.5ZM66 8.5H72V7.5H66V8.5ZM75.5 0.5C73.2909 0.5 71.5 2.29086 71.5 4.5H72.5C72.5 2.84315 73.8431 1.5 75.5 1.5V0.5ZM75.5 8.5C77.7091 8.5 79.5 6.70914 79.5 4.5H78.5C78.5 6.15685 77.1569 7.5 75.5 7.5V8.5ZM66 14.5H72V13.5H66V14.5ZM72 14.5H78V13.5H72V14.5ZM71.5 8V14H72.5V8H71.5ZM79.5 4.5V1.00003H78.5V4.5H79.5ZM79 0.500035L75.5 0.5L75.5 1.5L79 1.50003L79 0.500035ZM72.3536 8.35355L75.8536 4.85355L75.1464 4.14645L71.6464 7.64645L72.3536 8.35355ZM77.5 14V66H78.5V14H77.5ZM71.5 14V66H72.5V14H71.5ZM65.5 14V66H66.5V14H65.5ZM66.5 78V72H65.5V78H66.5ZM66.5 72V66H65.5V72H66.5ZM75.5 71.5H72V72.5H75.5V71.5ZM71.5 72V75.5H72.5V72H71.5ZM66 72.5H72V71.5H66V72.5ZM75.5 78.5C73.8431 78.5 72.5 77.1569 72.5 75.5H71.5C71.5 77.7091 73.2909 79.5 75.5 79.5V78.5ZM75.5 72.5C77.1569 72.5 78.5 73.8431 78.5 75.5H79.5C79.5 73.2909 77.7091 71.5 75.5 71.5V72.5ZM66 66.5H72V65.5H66V66.5ZM72 66.5H78V65.5H72V66.5ZM72.5 72V66H71.5V72H72.5ZM66 77.5H14V78.5H66V77.5ZM66 71.5H14V72.5H66V71.5ZM66 65.5H14V66.5H66V65.5ZM71.6464 72.3536L75.1464 75.8536L75.8536 75.1464L72.3536 71.6464L71.6464 72.3536ZM78.5 75.5V79H79.5V75.5H78.5ZM79 78.5H75.5V79.5H79V78.5ZM14.5 78V72H13.5V78H14.5ZM14.5 72L14.5 66L13.5 66L13.5 72L14.5 72ZM4.5 72.5H8V71.5H4.5V72.5ZM7.5 72V75.5H8.5V72H7.5ZM14 71.5H8V72.5H14V71.5ZM4.5 79.5C6.70914 79.5 8.5 77.7091 8.5 75.5H7.5C7.5 77.1569 6.15685 78.5 4.5 78.5V79.5ZM4.5 71.5C2.29086 71.5 0.5 73.2909 0.5 75.5H1.5C1.5 73.8431 2.84315 72.5 4.5 72.5V71.5ZM14 65.5H8.00001V66.5H14V65.5ZM8.00001 65.5H2.00001V66.5H8.00001V65.5ZM8.5 72L8.50001 66L7.50001 66L7.5 72L8.5 72ZM7.64645 71.6464L4.14645 75.1464L4.85355 75.8536L8.35355 72.3536L7.64645 71.6464ZM0.5 75.5L0.500015 79L1.50002 79L1.5 75.5L0.5 75.5ZM1.00002 79.5H4.5V78.5H1.00002V79.5ZM29.4286 36.0714C29.4286 30.233 34.1616 25.5 40 25.5V24.5C33.6093 24.5 28.4286 29.6807 28.4286 36.0714H29.4286ZM31.4707 42.2333C30.34 40.4401 29.4286 38.3519 29.4286 36.0714H28.4286C28.4286 38.618 29.4447 40.8951 30.6248 42.7667L31.4707 42.2333ZM30.6248 42.7667C32.7872 46.1962 33.0488 50.1206 33.0719 53.219L34.0718 53.2116C34.0486 50.0871 33.7926 45.9159 31.4707 42.2333L30.6248 42.7667ZM35.3571 54.5C34.6502 54.5 34.0772 53.9277 34.0718 53.2116L33.0719 53.219C33.0812 54.4752 34.0916 55.5 35.3571 55.5V54.5ZM51.5714 36.0714C51.5714 29.6807 46.3907 24.5 40 24.5V25.5C45.8384 25.5 50.5714 30.233 50.5714 36.0714H51.5714ZM49.3752 42.7667C50.5553 40.8951 51.5714 38.618 51.5714 36.0714H50.5714C50.5714 38.3519 49.66 40.4401 48.5293 42.2333L49.3752 42.7667ZM48.5293 42.2333C46.2074 45.9159 45.9514 50.0871 45.9282 53.2116L46.9281 53.219C46.9512 50.1206 47.2128 46.1962 49.3752 42.7667L48.5293 42.2333ZM44.6429 55.5C45.9084 55.5 46.9188 54.4752 46.9281 53.219L45.9282 53.2116C45.9228 53.9277 45.3498 54.5 44.6429 54.5V55.5ZM44.6429 54.5H35.3571V55.5H44.6429V54.5ZM39.0714 55C39.0714 47.5001 38.7606 42.6267 38.0809 39.8799L37.1102 40.1201C37.7564 42.7319 38.0714 47.4879 38.0714 55H39.0714ZM38.0809 39.8799C37.8466 38.933 37.558 38.1923 37.1912 37.678C36.8141 37.1494 36.3219 36.8214 35.7143 36.8214V37.8214C35.9081 37.8214 36.128 37.9096 36.3771 38.2587C36.6363 38.6221 36.8876 39.2206 37.1102 40.1201L38.0809 39.8799ZM35.7143 36.8214C35.0715 36.8214 34.5411 37.0244 34.167 37.3752C33.7954 37.7236 33.6071 38.1917 33.6071 38.6607C33.6071 39.1297 33.7954 39.5979 34.167 39.9462C34.5411 40.297 35.0715 40.5 35.7143 40.5V39.5C35.2856 39.5 35.0125 39.3682 34.8509 39.2167C34.6868 39.0629 34.6071 38.8614 34.6071 38.6607C34.6071 38.46 34.6868 38.2586 34.8509 38.1047C35.0125 37.9533 35.2856 37.8214 35.7143 37.8214V36.8214ZM35.7143 40.5H37.5956V39.5H35.7143V40.5ZM42.2857 55C42.2857 47.4879 42.6007 42.7319 43.2469 40.1201L42.2762 39.8799C41.5966 42.6267 41.2857 47.5001 41.2857 55H42.2857ZM43.2469 40.1201C43.4695 39.2206 43.7208 38.6221 43.9801 38.2587C44.2291 37.9096 44.4491 37.8214 44.6429 37.8214V36.8214C44.0353 36.8214 43.543 37.1494 43.166 37.678C42.7991 38.1923 42.5105 38.933 42.2762 39.8799L43.2469 40.1201ZM44.6429 37.8214C45.0715 37.8214 45.3447 37.9533 45.5063 38.1047C45.6704 38.2586 45.75 38.46 45.75 38.6607C45.75 38.8614 45.6704 39.0629 45.5063 39.2167C45.3447 39.3682 45.0715 39.5 44.6429 39.5V40.5C45.2856 40.5 45.816 40.297 46.1902 39.9462C46.5618 39.5979 46.75 39.1297 46.75 38.6607C46.75 38.1917 46.5618 37.7236 46.1902 37.3752C45.816 37.0244 45.2856 36.8214 44.6429 36.8214V37.8214ZM44.6429 39.5H42.7616V40.5H44.6429V39.5ZM37.5956 40.5H42.7616V39.5H37.5956V40.5Z" fill="#D5A654"/>
</svg>
