<svg width="272" height="592" viewBox="0 0 272 592" fill="none" xmlns="http://www.w3.org/2000/svg">
<path d="M41 101L1.00002 101M41 101V111M41 101C41 98.3221 41.1755 95.6852 41.5155 93.1001M1.00002 101L1.00002 111M1.00002 101C1.00002 96.5302 1.29328 92.1289 1.86161 87.8143M101 1V41M101 1L111 1M101 1C96.5298 1 92.1281 1.29331 87.8131 1.86174M101 41H111M101 41C98.2777 41 95.5977 41.1813 92.9715 41.5325M41 111L41 121M41 111L1.00002 111M41 121V131M41 121L1.00002 121M41 131V141M41 131H1.00002M41 141V151M41 141H1.00002M41 151V161M41 151H1.00002M41 161V171M41 161H1.00002M41 171V181M41 171H1.00002M41 181V191M41 181H1.00002M41 191L41 201M41 191H1.00002M41 201V211M41 201H1.00002M41 211V221M41 211H1.00002M41 221V231M41 221H1.00002M41 231V241M41 231H1.00002M41 241V251M41 241H1.00002M41 251V261M41 251H1.00001M41 261V271M41 261H1.00001M41 271V281M41 271H1.00001M41 281L41 291M41 281H1.00001M41 291V301M41 291H1.00001M41 301V311M41 301H1.00001M41 311V321M41 311H1.00001M41 321V331M41 321H1.00001M41 331V341M41 331H1.00001M41 341V351M41 341H1.00001M41 351V361M41 351H1.00001M41 361V371M41 361H1.00001M41 371L41 381M41 371H1.00001M41 381V391M41 381H1.00001M41 391V401M41 391H1.00001M41 401V411M41 401H1.00001M41 411V421M41 411H1.00001M41 421V431M41 421H1.00001M41 431V441M41 431H1.00001M41 441V451M41 441H1.00001M41 451L41 461M41 451H1.00001M41 461V471M41 461H1.00001M41 471V481M41 471H1.00001M41 481V491M41 481H1M41 491V501M41 491H1M41 501V511M41 501H1M41 511V521M41 511H1M41 521V531M41 521H1M41 531V541M41 531H1M41 541L41 551M41 541H1M41 551V561M41 551H1M41 561V571M41 561H1M41 571V581M41 571H1M41 581V591H1L1 581M41 581H1M1.00002 111L1.00002 121M1.00002 121L1.00002 131M1.00002 131L1.00002 141M1.00002 141L1.00002 151M1.00002 151L1.00002 161M1.00002 161L1.00002 171M1.00002 171L1.00002 181M1.00002 181L1.00002 191M1.00002 191L1.00002 201M1.00002 201L1.00002 211M1.00002 211L1.00002 221M1.00002 221L1.00002 231M1.00002 231L1.00002 241M1.00002 241L1.00001 251M1.00001 251L1.00001 261M1.00001 261L1.00001 271M1.00001 271L1.00001 281M1.00001 281L1.00001 291M1.00001 291L1.00001 301M1.00001 301L1.00001 311M1.00001 311L1.00001 321M1.00001 321L1.00001 331M1.00001 331L1.00001 341M1.00001 341L1.00001 351M1.00001 351L1.00001 361M1.00001 361L1.00001 371M1.00001 371L1.00001 381M1.00001 381L1.00001 391M1.00001 391L1.00001 401M1.00001 401L1.00001 411M1.00001 411L1.00001 421M1.00001 421L1.00001 431M1.00001 431L1.00001 441M1.00001 441L1.00001 451M1.00001 451L1.00001 461M1.00001 461L1.00001 471M1.00001 471L1 481M1 481L1 491M1 491L1 501M1 501L1 511M1 511L1 521M1 521L1 531M1 531L1 541M1 541L1 551M1 551L1 561M1 561L1 571M1 571L1 581M111 1L121 1M111 1V41M121 1L131 1M121 1V41M131 1L141 1M131 1V41M141 1L151 1M141 1V41M151 1L161 1M151 1V41M161 1L171 1M161 1V41M171 1L181 1M171 1V41M181 1L191 1M181 1V41M111 41H121M121 41H131M131 41H141M141 41L151 41M151 41H161M161 41H171M171 41H181M181 41H191M87.8131 1.86174C83.5352 2.42529 79.3424 3.25926 75.2526 4.34591M87.8131 1.86174L92.9715 41.5325M75.2526 4.34591C70.9193 5.49727 66.7016 6.93229 62.6205 8.6299M75.2526 4.34591L85.4886 43.0243M62.6205 8.6299C58.5181 10.3364 54.5538 12.3082 50.749 14.5239M62.6205 8.6299L77.7705 45.6623M50.749 14.5239C47.0387 16.6846 43.4801 19.0773 40.0931 21.682M50.749 14.5239L70.5676 49.2795M40.0931 21.682C36.5799 24.3837 33.2513 27.3136 30.1295 30.4495M40.0931 21.682L64.2552 53.5642M30.1295 30.4495C27.0288 33.5641 24.1322 36.882 21.4612 40.3813M30.1295 30.4495L58.2393 58.9106M21.4612 40.3813C18.8988 43.7383 16.5441 47.2624 14.4163 50.9343M21.4612 40.3813L53.0522 64.9248M14.4163 50.9343C12.2276 54.7113 10.2789 58.6447 8.59121 62.7137M14.4163 50.9343L48.9552 71.1245M8.59121 62.7137C6.90752 66.7729 5.4835 70.967 4.33988 75.2754M8.59121 62.7137L45.4999 78.161M4.33988 75.2754C3.25608 79.3583 2.42411 83.5439 1.86161 87.8143M4.33988 75.2754L42.9548 85.7515M1.86161 87.8143L41.5155 93.1001M41.5155 93.1001C41.8445 90.5987 42.3275 88.1459 42.9548 85.7515M42.9548 85.7515C43.6369 83.1481 44.4894 80.6137 45.4999 78.161M45.4999 78.161C46.5008 75.7312 47.6567 73.3816 48.9552 71.1245M48.9552 71.1245C50.1945 68.9701 51.5638 66.9 53.0522 64.9248M53.0522 64.9248C54.6485 62.8065 56.382 60.7973 58.2393 58.9106M58.2393 58.9106C60.1219 56.9981 62.1318 55.2114 64.2552 53.5642M64.2552 53.5642C66.2618 52.0076 68.3698 50.5755 70.5676 49.2795M70.5676 49.2795C72.8741 47.9194 75.2795 46.7092 77.7705 45.6623M77.7705 45.6623C80.2621 44.6151 82.8393 43.7313 85.4886 43.0243M85.4886 43.0243C87.9253 42.374 90.4231 41.8733 92.9715 41.5325M191 1L201 1M191 1V41M201 1L211 1M201 1V41M211 1L221 1.00001M211 1V41M221 1.00001L231 1.00001M221 1.00001V41M231 1.00001L241 1.00001M231 1.00001V41M241 1.00001L251 1.00001M241 1.00001V41M191 41H201M201 41L211 41M211 41H221M221 41H231M231 41H241M241 41H251M251 1.00001L261 1.00001M251 1.00001V41M261 1.00001L271 1.00001V41H261M261 1.00001V41M251 41H261" stroke="#A3C3CE" stroke-width="2" stroke-linecap="round" stroke-linejoin="round"/>
</svg>
