<svg width="962" height="42" viewBox="0 0 962 42" fill="none" xmlns="http://www.w3.org/2000/svg">
<path d="M481 1L491 1M481 1V41M481 1L471 1M491 1L501 1M491 1V41M501 1L511 1M501 1V41M511 1L521 1M511 1V41M521 1L531 1M521 1V41M531 1L541 1M531 1V41M541 1L551 1M541 1V41M551 1L561 1M551 1V41M561 1L571 1M561 1V41M571 1L581 1M571 1V41M581 1L591 1M581 1V41M591 1L601 1M591 1V41M601 1L611 1M601 1V41M611 1L621 1M611 1V41M621 1L631 1M621 1V41M631 1L641 1M631 1V41M641 1L651 1M641 1V41M651 1L661 1M651 1V41M661 1L671 1M661 1V41M671 1L681 1M671 1V41M681 1L691 1M681 1V41M691 1L701 1M691 1V41M701 1L711 1M701 1V41M711 1L721 1M711 1V41M721 1L731 1M721 1V41M731 1L741 1M731 1V41M741 1L751 1M741 1V41M751 1L761 1M751 1V41M761 1L771 1M761 1V41M771 1L781 1M771 1V41M781 1L791 1M781 1V41M791 1L801 1M791 1V41M801 1L811 1M801 1V41M811 1L821 1M811 1V41M821 1L831 1M821 1V41M831 1L841 1M831 1V41M841 1L851 1M841 1V41M851 1L861 1M851 1V41M861 1L871 1M861 1V41M871 1L881 1M871 1V41M881 1L891 1M881 1V41M891 1L901 1M891 1V41M901 1L911 1M901 1V41M911 1L921 1M911 1V41M921 1L931 1M921 1V41M931 1L941 1M931 1V41M941 1L951 1M941 1V41M951 1L961 1V41H951M951 1V41M481 41H491M481 41H471M491 41H501M501 41L511 41M511 41H521M521 41H531M531 41H541M541 41H551M551 41L561 41M561 41H571M571 41H581M581 41H591M591 41L601 41M601 41H611M611 41H621M621 41H631M631 41H641M641 41L651 41M651 41H661M661 41H671M671 41H681M681 41L691 41M691 41H701M701 41H711M711 41H721M721 41L731 41M731 41H741M741 41H751M751 41H761M761 41H771M771 41L781 41M781 41H791M791 41H801M801 41H811M811 41L821 41M821 41H831M831 41H841M841 41H851M851 41H861M861 41L871 41M871 41H881M881 41H891M891 41H901M901 41L911 41M911 41H921M921 41H931M931 41H941M941 41L951 41M11 1L1 1L1 41H11M11 1L21 1M11 1L11 41M21 1L31 1M21 1L21 41M31 1L41 1M31 1L31 41M41 1L51 1M41 1L41 41M51 1L61 1M51 1L51 41M61 1L71 1M61 1L61 41M71 1L81 1M71 1V41M81 1L91 1M81 1V41M91 1L101 1M91 1V41M101 1L111 1M101 1V41M111 1L121 1M111 1V41M121 1L131 1M121 1V41M131 1L141 1M131 1V41M141 1L151 1M141 1V41M151 1L161 1M151 1V41M161 1L171 1M161 1V41M171 1L181 1M171 1V41M181 1L191 1M181 1V41M191 1L201 1M191 1V41M201 1L211 1M201 1V41M211 1L221 1M211 1V41M221 1L231 1M221 1V41M231 1L241 1M231 1V41M241 1L251 1M241 1V41M251 1L261 1M251 1V41M261 1L271 1M261 1V41M271 1L281 1M271 1V41M281 1L291 1M281 1V41M291 1L301 1M291 1V41M301 1L311 1M301 1V41M311 1L321 1M311 1V41M321 1L331 1M321 1V41M331 1L341 1M331 1V41M341 1L351 1M341 1V41M351 1L361 1M351 1V41M361 1L371 1M361 1V41M371 1L381 1M371 1V41M381 1L391 1M381 1V41M391 1L401 1M391 1V41M401 1L411 1M401 1V41M411 1L421 1M411 1V41M421 1L431 1M421 1V41M431 1L441 1M431 1V41M441 1L451 1M441 1V41M451 1L461 1M451 1V41M461 1L471 1M461 1V41M471 1V41M11 41H21M21 41L31 41M31 41H41M41 41H51M51 41H61M61 41L71 41M71 41H81M81 41H91M91 41H101M101 41H111M111 41L121 41M121 41H131M131 41H141M141 41H151M151 41L161 41M161 41H171M171 41H181M181 41H191M191 41L201 41M201 41H211M211 41H221M221 41H231M231 41H241M241 41L251 41M251 41H261M261 41H271M271 41H281M281 41L291 41M291 41H301M301 41H311M311 41H321M321 41H331M331 41L341 41M341 41H351M351 41H361M361 41H371M371 41L381 41M381 41H391M391 41H401M401 41H411M411 41L421 41M421 41H431M431 41H441M441 41H451M451 41H461M461 41L471 41" stroke="#A3C3CE" stroke-width="2" stroke-linecap="round" stroke-linejoin="round"/>
</svg>
