<svg width="134" height="512" viewBox="0 0 134 512" fill="none" xmlns="http://www.w3.org/2000/svg">
<path d="M133 41.1875V1.1875C128.53 1.1875 124.129 1.48075 119.814 2.04907C115.544 2.61158 111.358 3.44354 107.275 4.52734C102.967 5.67097 98.7729 7.095 94.7137 8.77869C90.6447 10.4664 86.7114 12.4151 82.9344 14.6038C79.2625 16.7316 75.7384 19.0863 72.3814 21.6487C68.8821 24.3197 65.5641 27.2163 62.4495 30.317C59.3136 33.4388 56.3838 36.7674 53.6821 40.2805C51.0773 43.6676 48.6847 47.2262 46.524 50.9365C44.3083 54.7412 42.3364 58.7056 40.6299 62.808C38.9323 66.8891 37.4974 71.1068 36.346 75.4401C35.2594 79.5299 34.4254 83.7226 33.8619 88.0006C33.2934 92.3156 33.0001 96.7173 33.0001 101.188H73.0001C73.0001 98.4652 73.1813 95.7852 73.5325 93.1589C73.8733 90.6105 74.3741 88.1127 75.0244 85.676C75.7314 83.0267 76.6153 80.4496 77.6624 77.958C78.7093 75.467 79.9195 73.0615 81.2796 70.755C82.5756 68.5572 84.0077 66.4493 85.5643 64.4427C87.2115 62.3193 88.9983 60.3093 90.9107 58.4268C92.7975 56.5694 94.8066 54.836 96.9249 53.2397C98.9001 51.7513 100.97 50.382 103.125 49.1426C105.382 47.8442 107.731 46.6883 110.161 45.6873C112.614 44.6769 115.148 43.8244 117.752 43.1423C120.146 42.515 122.599 42.0319 125.1 41.7029C127.685 41.3629 130.322 41.1875 133 41.1875Z" fill="#FBF3E8"/>
<path d="M-26.9999 471.188V511.188C-22.5302 511.188 -18.1289 510.894 -13.8143 510.326C-9.54382 509.763 -5.3583 508.931 -1.27533 507.848C3.03301 506.704 7.22721 505.28 11.2864 503.596C15.3554 501.909 19.2888 499.96 23.0657 497.771C26.7377 495.643 30.2617 493.289 33.6187 490.726C37.118 488.055 40.436 485.159 43.5506 482.058C46.6865 478.936 49.6163 475.608 52.3181 472.094C54.9228 468.707 57.3154 465.149 59.4761 461.439C61.6919 457.634 63.6637 453.669 65.3702 449.567C67.0678 445.486 68.5028 441.268 69.6541 436.935C70.7408 432.845 71.5747 428.652 72.1382 424.374C72.7067 420.059 73.0001 415.658 73.0001 411.188H33.0001C33.0001 413.91 32.8188 416.59 32.4676 419.216C32.1268 421.764 31.6261 424.262 30.9758 426.699C30.2687 429.348 29.3849 431.925 28.3377 434.417C27.2908 436.908 26.0806 439.313 24.7205 441.62C23.4245 443.818 21.9924 445.926 20.4359 447.932C18.7886 450.056 17.0018 452.066 15.0894 453.948C13.2026 455.806 11.1936 457.539 9.07526 459.135C7.10004 460.624 5.02989 461.993 2.87555 463.232C0.618393 464.531 -1.73119 465.687 -4.16095 466.688C-6.61366 467.698 -9.148 468.551 -11.7514 469.233C-14.1458 469.86 -16.5987 470.343 -19.1 470.672C-21.6851 471.012 -24.322 471.188 -26.9999 471.188Z" fill="#FBF3E8"/>
<path d="M33.0001 101.188H73.0001V411.188H33.0001V101.188Z" fill="#FBF3E8"/>
<path d="M133 1.1875H133.5C133.5 0.911358 133.276 0.6875 133 0.6875V1.1875ZM133 41.1875V41.6875C133.276 41.6875 133.5 41.4636 133.5 41.1875H133ZM-26.9999 511.188H-27.4999C-27.4999 511.464 -27.2761 511.688 -26.9999 511.688V511.188ZM-26.9999 471.188V470.688C-27.2761 470.688 -27.4999 470.911 -27.4999 471.188H-26.9999ZM40.6299 62.808L40.1683 62.6159L40.6299 62.808ZM46.524 50.9365L46.0919 50.6848L46.524 50.9365ZM53.6821 40.2805L53.2857 39.9757L53.6821 40.2805ZM62.4495 30.317L62.0968 29.9626L62.4495 30.317ZM94.7137 8.77869L94.5221 8.31684L94.7137 8.77869ZM119.814 2.04907L119.749 1.55335V1.55335L119.814 2.04907ZM125.1 41.7029L125.165 42.1987L125.1 41.7029ZM117.752 43.1423L117.878 43.626L117.752 43.1423ZM110.161 45.6873L110.352 46.1496L110.161 45.6873ZM103.125 49.1426L103.374 49.576L103.125 49.1426ZM96.9249 53.2397L97.2258 53.6391L96.9249 53.2397ZM85.5643 64.4427L85.9593 64.7492L85.5643 64.4427ZM77.6624 77.958L78.1234 78.1517L77.6624 77.958ZM65.3702 449.567L65.8318 449.759L65.3702 449.567ZM59.4761 461.439L59.9082 461.69L59.4761 461.439ZM52.3181 472.094L52.7144 472.399L52.3181 472.094ZM43.5506 482.058L43.9034 482.412L43.5506 482.058ZM11.2864 503.596L11.478 504.058L11.2864 503.596ZM-13.8143 510.326L-13.749 510.822L-13.8143 510.326ZM-19.1 470.672L-19.1652 470.176H-19.1652L-19.1 470.672ZM-11.7514 469.233L-11.8781 468.749L-11.7514 469.233ZM-4.16095 466.688L-4.3514 466.225L-4.16095 466.688ZM2.87555 463.232L2.62622 462.799L2.87555 463.232ZM9.07526 459.135L8.77434 458.736L9.07526 459.135ZM20.4359 447.932L20.0408 447.626L20.4359 447.932ZM28.3377 434.417L27.8768 434.223L28.3377 434.417ZM32.5001 101.188V111.188H33.5001V101.188H32.5001ZM32.5001 111.188V121.188H33.5001V111.188H32.5001ZM32.5001 121.188V131.188H33.5001V121.188H32.5001ZM32.5001 131.188V141.188H33.5001V131.188H32.5001ZM32.5001 141.188V151.188H33.5001V141.188H32.5001ZM32.5001 151.188V161.188H33.5001V151.188H32.5001ZM32.5001 161.188V171.188H33.5001V161.188H32.5001ZM32.5001 171.188V181.188H33.5001V171.188H32.5001ZM32.5001 181.188V191.188H33.5001V181.188H32.5001ZM32.5001 191.188V201.188H33.5001V191.188H32.5001ZM32.5001 201.188V211.188H33.5001V201.188H32.5001ZM32.5001 211.188V221.188H33.5001V211.188H32.5001ZM32.5001 221.188V231.188H33.5001V221.188H32.5001ZM32.5001 231.188V241.188H33.5001V231.188H32.5001ZM32.5001 241.188V251.188H33.5001V241.188H32.5001ZM32.5001 251.188V261.188H33.5001V251.188H32.5001ZM32.5001 261.188V271.188H33.5001V261.188H32.5001ZM32.5001 271.188V281.188H33.5001V271.188H32.5001ZM32.5001 281.188V291.188H33.5001V281.188H32.5001ZM32.5001 291.188V301.188H33.5001V291.188H32.5001ZM32.5001 301.188V311.188H33.5001V301.188H32.5001ZM32.5001 311.188V321.188H33.5001V311.188H32.5001ZM32.5001 321.188V331.188H33.5001V321.188H32.5001ZM32.5001 331.188V341.188H33.5001V331.188H32.5001ZM32.5001 341.188V351.188H33.5001V341.188H32.5001ZM32.5001 351.188V361.188H33.5001V351.188H32.5001ZM32.5001 361.188V371.188H33.5001V361.188H32.5001ZM32.5001 371.188V381.188H33.5001V371.188H32.5001ZM32.5001 381.188V391.188H33.5001V381.188H32.5001ZM32.5001 391.188V401.188H33.5001V391.188H32.5001ZM32.5001 401.188V411.188H33.5001V401.188H32.5001ZM72.5001 101.188V111.188H73.5001V101.188H72.5001ZM72.5001 111.188V121.188H73.5001V111.188H72.5001ZM72.5001 121.188V131.188H73.5001V121.188H72.5001ZM72.5001 131.188V141.188H73.5001V131.188H72.5001ZM72.5001 141.188V151.188H73.5001V141.188H72.5001ZM72.5001 151.188V161.188H73.5001V151.188H72.5001ZM72.5001 161.188V171.188H73.5001V161.188H72.5001ZM72.5001 171.188V181.188H73.5001V171.188H72.5001ZM72.5001 181.188V191.188H73.5001V181.188H72.5001ZM72.5001 191.188V201.188H73.5001V191.188H72.5001ZM72.5001 201.188V211.188H73.5001V201.188H72.5001ZM72.5001 211.188V221.188H73.5001V211.188H72.5001ZM72.5001 221.188V231.188H73.5001V221.188H72.5001ZM72.5001 231.188V241.188H73.5001V231.188H72.5001ZM72.5001 241.188V251.188H73.5001V241.188H72.5001ZM72.5001 251.188V261.188H73.5001V251.188H72.5001ZM72.5001 261.188V271.188H73.5001V261.188H72.5001ZM72.5001 271.188V281.188H73.5001V271.188H72.5001ZM72.5001 281.188V291.188H73.5001V281.188H72.5001ZM72.5001 291.188V301.188H73.5001V291.188H72.5001ZM72.5001 301.188V311.188H73.5001V301.188H72.5001ZM72.5001 311.188V321.188H73.5001V311.188H72.5001ZM72.5001 321.188V331.188H73.5001V321.188H72.5001ZM72.5001 331.188V341.188H73.5001V331.188H72.5001ZM72.5001 341.188V351.188H73.5001V341.188H72.5001ZM72.5001 351.188V361.188H73.5001V351.188H72.5001ZM72.5001 361.188V371.188H73.5001V361.188H72.5001ZM72.5001 371.188V381.188H73.5001V371.188H72.5001ZM72.5001 381.188V391.188H73.5001V381.188H72.5001ZM72.5001 391.188V401.188H73.5001V391.188H72.5001ZM72.5001 401.188V411.188H73.5001V401.188H72.5001ZM132.5 1.1875V41.1875H133.5V1.1875H132.5ZM73.0001 100.688H33.0001V101.688H73.0001V100.688ZM73.0001 170.688H33.0001V171.688H73.0001V170.688ZM73.0001 160.688H33.0001V161.688H73.0001V160.688ZM73.0001 150.688H33.0001V151.688H73.0001V150.688ZM73.0001 140.688H33.0001V141.688H73.0001V140.688ZM73.0001 130.688H33.0001V131.688H73.0001V130.688ZM73.0001 120.688H33.0001V121.688H73.0001V120.688ZM73.0001 110.688H33.0001V111.688H73.0001V110.688ZM73.0001 240.688H33.0001V241.688H73.0001V240.688ZM73.0001 230.688H33.0001V231.688H73.0001V230.688ZM73.0001 220.688H33.0001V221.688H73.0001V220.688ZM73.0001 210.688H33.0001V211.688H73.0001V210.688ZM73.0001 200.688H33.0001V201.688H73.0001V200.688ZM73.0001 190.688H33.0001V191.688H73.0001V190.688ZM73.0001 180.688H33.0001V181.688H73.0001V180.688ZM73.0001 310.688H33.0001V311.688H73.0001V310.688ZM73.0001 300.688H33.0001V301.688H73.0001V300.688ZM73.0001 290.688H33.0001V291.688H73.0001V290.688ZM73.0001 280.688H33.0001V281.688H73.0001V280.688ZM73.0001 270.688H33.0001V271.688H73.0001V270.688ZM73.0001 260.688H33.0001V261.688H73.0001V260.688ZM73.0001 250.688H33.0001V251.688H73.0001V250.688ZM73.0001 380.688H33.0001V381.688H73.0001V380.688ZM73.0001 370.688H33.0001V371.688H73.0001V370.688ZM73.0001 360.688H33.0001V361.688H73.0001V360.688ZM73.0001 350.688H33.0001V351.688H73.0001V350.688ZM73.0001 340.688H33.0001V341.688H73.0001V340.688ZM73.0001 330.688H33.0001V331.688H73.0001V330.688ZM73.0001 320.688H33.0001V321.688H73.0001V320.688ZM73.0001 400.688H33.0001V401.688H73.0001V400.688ZM73.0001 390.688H33.0001V391.688H73.0001V390.688ZM-27.4999 471.188V511.188H-26.4999V471.188H-27.4999ZM33.3662 87.9353C32.7949 92.2719 32.5001 96.6954 32.5001 101.188H33.5001C33.5001 96.7392 33.792 92.3593 34.3576 88.0659L33.3662 87.9353ZM35.8628 75.3117C34.7706 79.4221 33.9325 83.6359 33.3662 87.9353L34.3576 88.0659C34.9183 83.8093 35.7481 79.6376 36.8292 75.5685L35.8628 75.3117ZM40.1683 62.6159C38.4621 66.7176 37.0199 70.9565 35.8628 75.3117L36.8292 75.5685C37.9748 71.257 39.4025 67.0605 41.0916 63L40.1683 62.6159ZM46.0919 50.6848C43.8651 54.5087 41.8834 58.4929 40.1683 62.6159L41.0916 63C42.7895 58.9183 44.7514 54.9738 46.9561 51.1881L46.0919 50.6848ZM53.2857 39.9757C50.668 43.3796 48.2634 46.956 46.0919 50.6848L46.9561 51.1881C49.1059 47.4964 51.4867 43.9555 54.0784 40.5854L53.2857 39.9757ZM62.0968 29.9626C58.9453 33.1 56.0009 36.4451 53.2857 39.9757L54.0784 40.5854C56.7667 37.0897 59.682 33.7776 62.8023 30.6713L62.0968 29.9626ZM72.078 21.2512C68.5613 23.9355 65.2269 26.8466 62.0968 29.9626L62.8023 30.6713C65.9014 27.5861 69.2029 24.7038 72.6848 22.0461L72.078 21.2512ZM82.6837 14.1711C78.9934 16.3096 75.4518 18.6761 72.078 21.2512L72.6848 22.0461C76.0251 19.4965 79.5315 17.1535 83.1851 15.0364L82.6837 14.1711ZM94.5221 8.31684C90.4327 10.0131 86.4796 11.9715 82.6837 14.1711L83.1851 15.0364C86.9432 12.8586 90.8568 10.9198 94.9053 9.24053L94.5221 8.31684ZM107.147 4.04408C102.817 5.19347 98.6018 6.62468 94.5221 8.31684L94.9053 9.24053C98.944 7.56532 103.117 6.14847 107.404 5.01061L107.147 4.04408ZM133 0.6875C128.508 0.6875 124.085 0.982189 119.749 1.55335L119.88 2.54479C124.173 1.97931 128.552 1.6875 133 1.6875V0.6875ZM119.749 1.55335C115.457 2.11868 111.251 2.95481 107.147 4.04408L107.404 5.01061C111.466 3.93227 115.631 3.10448 119.88 2.54479L119.749 1.55335ZM125.596 41.6369L120.31 1.98301L119.319 2.11514L124.605 41.769L125.596 41.6369ZM133 40.6875C130.3 40.6875 127.642 40.8644 125.035 41.2072L125.165 42.1987C127.729 41.8615 130.344 41.6875 133 41.6875V40.6875ZM125.035 41.2072C122.513 41.5389 120.039 42.0261 117.625 42.6586L117.878 43.626C120.253 43.0039 122.685 42.5249 125.165 42.1987L125.035 41.2072ZM118.234 43.0114L107.758 4.39643L106.793 4.65826L117.269 43.2732L118.234 43.0114ZM117.625 42.6586C115 43.3464 112.444 44.2061 109.971 45.225L110.352 46.1496C112.784 45.1477 115.297 44.3023 117.878 43.626L117.625 42.6586ZM109.971 45.225C107.52 46.2344 105.151 47.3999 102.875 48.7092L103.374 49.576C105.612 48.2884 107.942 47.1422 110.352 46.1496L109.971 45.225ZM103.556 48.8903L83.366 14.3514L82.5027 14.8561L102.693 49.395L103.556 48.8903ZM102.875 48.7092C100.703 49.9589 98.6156 51.3396 96.624 52.8404L97.2258 53.6391C99.1846 52.1629 101.238 50.805 103.374 49.576L102.875 48.7092ZM97.3197 52.933L72.7763 21.3419L71.9866 21.9554L96.53 53.5465L97.3197 52.933ZM96.624 52.8404C94.4881 54.45 92.4623 56.1977 90.5599 58.0704L91.2615 58.7831C93.1326 56.9411 95.1251 55.2221 97.2258 53.6391L96.624 52.8404ZM91.2621 58.071L62.8009 29.9612L62.0982 30.6727L90.5594 58.7825L91.2621 58.071ZM90.5599 58.0704C88.6317 59.9686 86.8301 61.9952 85.1692 64.1363L85.9593 64.7492C87.5929 62.6434 89.3649 60.6501 91.2615 58.7831L90.5599 58.0704ZM85.8663 64.0443L53.9841 39.8821L53.3801 40.679L85.2623 64.8412L85.8663 64.0443ZM85.1692 64.1363C83.5997 66.1595 82.1557 68.2849 80.8489 70.501L81.7103 71.009C82.9955 68.8295 84.4157 66.7391 85.9593 64.7492L85.1692 64.1363ZM81.5273 70.3207L46.7717 50.5021L46.2763 51.3708L81.0319 71.1894L81.5273 70.3207ZM80.8489 70.501C79.4775 72.8268 78.2572 75.2524 77.2015 77.7643L78.1234 78.1517C79.1615 75.6816 80.3615 73.2963 81.7103 71.009L80.8489 70.501ZM77.8517 77.4952L40.8193 62.3452L40.4406 63.2708L77.4731 78.4208L77.8517 77.4952ZM77.2015 77.7643C76.1455 80.2767 75.2542 82.8755 74.5413 85.5471L75.5074 85.8049C76.2085 83.1779 77.085 80.6224 78.1234 78.1517L77.2015 77.7643ZM75.1523 85.1927L36.4739 74.9567L36.2181 75.9234L74.8964 86.1594L75.1523 85.1927ZM74.5413 85.5471C73.8855 88.0043 73.3806 90.523 73.0369 93.0927L74.0281 93.2252C74.3661 90.6981 74.8626 88.2212 75.5074 85.8049L74.5413 85.5471ZM73.0369 93.0927C72.6828 95.7408 72.5001 98.4429 72.5001 101.188H73.5001C73.5001 98.4874 73.6799 95.8295 74.0281 93.2252L73.0369 93.0927ZM73.597 92.6631L33.9263 87.5048L33.7974 88.4964L73.4681 93.6548L73.597 92.6631ZM110.622 45.4943L95.1749 8.58565L94.2524 8.97173L109.7 45.8804L110.622 45.4943ZM73.0001 410.688H33.0001V411.688H73.0001V410.688ZM72.634 424.44C73.2052 420.103 73.5001 415.68 73.5001 411.188H72.5001C72.5001 415.636 72.2081 420.016 71.6425 424.309L72.634 424.44ZM70.1373 437.063C71.2295 432.953 72.0676 428.739 72.634 424.44L71.6425 424.309C71.0818 428.566 70.2521 432.737 69.1709 436.807L70.1373 437.063ZM65.8318 449.759C67.538 445.657 68.9802 441.418 70.1373 437.063L69.1709 436.807C68.0253 441.118 66.5976 445.314 64.9085 449.375L65.8318 449.759ZM59.9082 461.69C62.135 457.866 64.1168 453.882 65.8318 449.759L64.9085 449.375C63.2106 453.457 61.2487 457.401 59.0441 461.187L59.9082 461.69ZM52.7144 472.399C55.3321 468.995 57.7367 465.419 59.9082 461.69L59.0441 461.187C56.8942 464.879 54.5135 468.42 51.9217 471.79L52.7144 472.399ZM43.9034 482.412C47.0548 479.275 49.9992 475.93 52.7144 472.399L51.9217 471.79C49.2334 475.285 46.3182 478.597 43.1978 481.704L43.9034 482.412ZM33.9221 491.124C37.4388 488.439 40.7733 485.528 43.9034 482.412L43.1978 481.704C40.0987 484.789 36.7972 487.671 33.3153 490.329L33.9221 491.124ZM23.3164 498.204C27.0067 496.065 30.5483 493.699 33.9221 491.124L33.3153 490.329C29.975 492.879 26.4686 495.221 22.815 497.339L23.3164 498.204ZM11.478 504.058C15.5675 502.362 19.5205 500.404 23.3164 498.204L22.815 497.339C19.057 499.516 15.1434 501.455 11.0949 503.134L11.478 504.058ZM-1.14705 508.331C3.18301 507.182 7.39834 505.75 11.478 504.058L11.0949 503.134C7.05608 504.81 2.88302 506.227 -1.40361 507.364L-1.14705 508.331ZM-26.9999 511.688C-22.5083 511.688 -18.0852 511.393 -13.749 510.822L-13.8796 509.83C-18.1726 510.396 -22.552 510.688 -26.9999 510.688V511.688ZM-13.749 510.822C-9.45716 510.256 -5.2506 509.42 -1.14705 508.331L-1.40361 507.364C-5.46599 508.443 -9.63048 509.271 -13.8796 509.83L-13.749 510.822ZM-19.5957 470.738L-14.3099 510.392L-13.3187 510.26L-18.6044 470.606L-19.5957 470.738ZM-26.9999 471.688C-24.3002 471.688 -21.6415 471.511 -19.0348 471.168L-19.1652 470.176C-21.7288 470.513 -24.3439 470.688 -26.9999 470.688V471.688ZM-19.0348 471.168C-16.5126 470.836 -14.0392 470.349 -11.6247 469.716L-11.8781 468.749C-14.2524 469.371 -16.6847 469.85 -19.1652 470.176L-19.0348 471.168ZM-12.234 469.364L-1.75789 507.979L-0.792772 507.717L-11.2688 469.102L-12.234 469.364ZM-11.6247 469.716C-8.99942 469.029 -6.44379 468.169 -3.9705 467.15L-4.3514 466.225C-6.78353 467.227 -9.29659 468.073 -11.8781 468.749L-11.6247 469.716ZM-3.9705 467.15C-1.52036 466.141 0.848888 464.975 3.12487 463.666L2.62622 462.799C0.387897 464.087 -1.94203 465.233 -4.3514 466.225L-3.9705 467.15ZM2.44389 463.485L22.6341 498.024L23.4974 497.519L3.30721 462.98L2.44389 463.485ZM3.12487 463.666C5.29719 462.416 7.38456 461.035 9.37617 459.535L8.77434 458.736C6.81552 460.212 4.76259 461.57 2.62622 462.799L3.12487 463.666ZM8.68042 459.442L33.2239 491.033L34.0136 490.42L9.4701 458.828L8.68042 459.442ZM9.37617 459.535C11.512 457.925 13.5378 456.177 15.4402 454.305L14.7387 453.592C12.8675 455.434 10.8751 457.153 8.77434 458.736L9.37617 459.535ZM14.7381 454.304L43.1992 482.414L43.9019 481.702L15.4408 453.592L14.7381 454.304ZM15.4402 454.305C17.3684 452.406 19.17 450.38 20.8309 448.239L20.0408 447.626C18.4072 449.732 16.6352 451.725 14.7387 453.592L15.4402 454.305ZM20.1339 448.331L52.0161 472.493L52.6201 471.696L20.7379 447.534L20.1339 448.331ZM20.8309 448.239C22.4004 446.216 23.8444 444.09 25.1512 441.874L24.2898 441.366C23.0047 443.545 21.5845 445.636 20.0408 447.626L20.8309 448.239ZM24.4728 442.054L59.2285 461.873L59.7238 461.004L24.9682 441.186L24.4728 442.054ZM25.1512 441.874C26.5227 439.548 27.743 437.123 28.7987 434.611L27.8768 434.223C26.8386 436.693 25.6386 439.079 24.2898 441.366L25.1512 441.874ZM28.1484 434.88L65.1809 450.03L65.5595 449.104L28.527 433.954L28.1484 434.88ZM28.7987 434.611C29.8546 432.098 30.7459 429.499 31.4589 426.828L30.4927 426.57C29.7916 429.197 28.9151 431.753 27.8768 434.223L28.7987 434.611ZM30.8479 427.182L69.5262 437.418L69.782 436.452L31.1037 426.216L30.8479 427.182ZM31.4589 426.828C32.1146 424.371 32.6196 421.852 32.9632 419.282L31.972 419.15C31.6341 421.677 31.1375 424.154 30.4927 426.57L31.4589 426.828ZM32.9632 419.282C33.3173 416.634 33.5001 413.932 33.5001 411.188H32.5001C32.5001 413.888 32.3203 416.545 31.972 419.15L32.9632 419.282ZM32.4031 419.712L72.0738 424.87L72.2027 423.879L32.5321 418.72L32.4031 419.712ZM-4.62218 466.881L10.8252 503.789L11.7477 503.403L-3.69972 466.495L-4.62218 466.881ZM33.5001 411.188V101.188H32.5001V411.188H33.5001ZM72.5001 101.188V411.188H73.5001V101.188H72.5001Z" fill="#D5A654"/>
</svg>
