<svg width="93" height="20" viewBox="0 0 93 20" fill="none" xmlns="http://www.w3.org/2000/svg">
<path d="M1.66992 3.0367C3.19312 3.0367 4.04711 1.8833 5.5703 1.8833C7.09349 1.8833 7.94749 3.0367 9.47068 3.0367C10.9939 3.0367 11.8479 1.8833 13.3711 1.8833C14.8943 1.8833 15.7482 3.0367 17.2714 3.0367C18.7946 3.0367 19.6486 1.8833 21.1718 1.8833C22.695 1.8833 23.549 3.0367 25.0722 3.0367C26.5954 3.0367 27.4494 1.8833 28.9726 1.8833C30.4958 1.8833 31.3498 3.0367 32.873 3.0367C34.3962 3.0367 35.2501 1.8833 36.7733 1.8833C38.2965 1.8833 39.1505 3.0367 40.6737 3.0367C42.1969 3.0367 43.0509 1.8833 44.5741 1.8833C46.0973 1.8833 46.9513 3.0367 48.4745 3.0367C49.9977 3.0367 50.8517 1.8833 52.3749 1.8833C53.8981 1.8833 54.7521 3.0367 56.2752 3.0367C57.7984 3.0367 58.6524 1.8833 60.1756 1.8833C61.6988 1.8833 62.5528 3.0367 64.076 3.0367C65.5992 3.0367 66.4532 1.8833 67.9764 1.8833C69.4996 1.8833 70.3536 3.0367 71.8768 3.0367C73.4 3.0367 74.254 1.8833 75.7771 1.8833C77.3003 1.8833 78.1543 3.0367 79.6775 3.0367C81.2007 3.0367 82.0547 1.8833 83.5779 1.8833C85.1011 1.8833 85.9551 3.0367 87.4783 3.0367C89.0015 3.0367 89.8555 1.8833 91.3787 1.8833M1.66992 6.88136C3.19312 6.88136 4.04711 5.72796 5.5703 5.72796C7.09349 5.72796 7.94749 6.88136 9.47068 6.88136C10.9939 6.88136 11.8479 5.72796 13.3711 5.72796C14.8943 5.72796 15.7482 6.88136 17.2714 6.88136C18.7946 6.88136 19.6486 5.72796 21.1718 5.72796C22.695 5.72796 23.549 6.88136 25.0722 6.88136C26.5954 6.88136 27.4494 5.72796 28.9726 5.72796C30.4958 5.72796 31.3498 6.88136 32.873 6.88136C34.3962 6.88136 35.2501 5.72796 36.7733 5.72796C38.2965 5.72796 39.1505 6.88136 40.6737 6.88136C42.1969 6.88136 43.0509 5.72796 44.5741 5.72796C46.0973 5.72796 46.9513 6.88136 48.4745 6.88136C49.9977 6.88136 50.8517 5.72796 52.3749 5.72796C53.8981 5.72796 54.7521 6.88136 56.2752 6.88136C57.7984 6.88136 58.6524 5.72796 60.1756 5.72796C61.6988 5.72796 62.5528 6.88136 64.076 6.88136C65.5992 6.88136 66.4532 5.72796 67.9764 5.72796C69.4996 5.72796 70.3536 6.88136 71.8768 6.88136C73.4 6.88136 74.254 5.72796 75.7771 5.72796C77.3003 5.72796 78.1543 6.88136 79.6775 6.88136C81.2007 6.88136 82.0547 5.72796 83.5779 5.72796C85.1011 5.72796 85.9551 6.88136 87.4783 6.88136C89.0015 6.88136 89.8555 5.72796 91.3787 5.72796M1.66992 10.726C3.19312 10.726 4.04711 9.57262 5.5703 9.57262C7.09349 9.57262 7.94749 10.726 9.47068 10.726C10.9939 10.726 11.8479 9.57262 13.3711 9.57262C14.8943 9.57262 15.7482 10.726 17.2714 10.726C18.7946 10.726 19.6486 9.57262 21.1718 9.57262C22.695 9.57262 23.549 10.726 25.0722 10.726C26.5954 10.726 27.4494 9.57262 28.9726 9.57262C30.4958 9.57262 31.3498 10.726 32.873 10.726C34.3962 10.726 35.2501 9.57262 36.7733 9.57262C38.2965 9.57262 39.1505 10.726 40.6737 10.726C42.1969 10.726 43.0509 9.57262 44.5741 9.57262C46.0973 9.57262 46.9513 10.726 48.4745 10.726C49.9977 10.726 50.8517 9.57262 52.3749 9.57262C53.8981 9.57262 54.7521 10.726 56.2752 10.726C57.7984 10.726 58.6524 9.57262 60.1756 9.57262C61.6988 9.57262 62.5528 10.726 64.076 10.726C65.5992 10.726 66.4532 9.57262 67.9764 9.57262C69.4996 9.57262 70.3536 10.726 71.8768 10.726C73.4 10.726 74.254 9.57262 75.7771 9.57262C77.3003 9.57262 78.1543 10.726 79.6775 10.726C81.2007 10.726 82.0547 9.57262 83.5779 9.57262C85.1011 9.57262 85.9551 10.726 87.4783 10.726C89.0015 10.726 89.8555 9.57262 91.3787 9.57262M1.66992 14.5707C3.19312 14.5707 4.04711 13.4173 5.5703 13.4173C7.09349 13.4173 7.94749 14.5707 9.47068 14.5707C10.9939 14.5707 11.8479 13.4173 13.3711 13.4173C14.8943 13.4173 15.7482 14.5707 17.2714 14.5707C18.7946 14.5707 19.6486 13.4173 21.1718 13.4173C22.695 13.4173 23.549 14.5707 25.0722 14.5707C26.5954 14.5707 27.4494 13.4173 28.9726 13.4173C30.4958 13.4173 31.3498 14.5707 32.873 14.5707C34.3962 14.5707 35.2501 13.4173 36.7733 13.4173C38.2965 13.4173 39.1505 14.5707 40.6737 14.5707C42.1969 14.5707 43.0509 13.4173 44.5741 13.4173C46.0973 13.4173 46.9513 14.5707 48.4745 14.5707C49.9977 14.5707 50.8517 13.4173 52.3749 13.4173C53.8981 13.4173 54.7521 14.5707 56.2752 14.5707C57.7984 14.5707 58.6524 13.4173 60.1756 13.4173C61.6988 13.4173 62.5528 14.5707 64.076 14.5707C65.5992 14.5707 66.4532 13.4173 67.9764 13.4173C69.4996 13.4173 70.3536 14.5707 71.8768 14.5707C73.4 14.5707 74.254 13.4173 75.7771 13.4173C77.3003 13.4173 78.1543 14.5707 79.6775 14.5707C81.2007 14.5707 82.0547 13.4173 83.5779 13.4173C85.1011 13.4173 85.9551 14.5707 87.4783 14.5707C89.0015 14.5707 89.8555 13.4173 91.3787 13.4173M1.66992 18.4153C3.19312 18.4153 4.04711 17.2619 5.5703 17.2619C7.09349 17.2619 7.94749 18.4153 9.47068 18.4153C10.9939 18.4153 11.8479 17.2619 13.3711 17.2619C14.8943 17.2619 15.7482 18.4153 17.2714 18.4153C18.7946 18.4153 19.6486 17.2619 21.1718 17.2619C22.695 17.2619 23.549 18.4153 25.0722 18.4153C26.5954 18.4153 27.4494 17.2619 28.9726 17.2619C30.4958 17.2619 31.3498 18.4153 32.873 18.4153C34.3962 18.4153 35.2501 17.2619 36.7733 17.2619C38.2965 17.2619 39.1505 18.4153 40.6737 18.4153C42.1969 18.4153 43.0509 17.2619 44.5741 17.2619C46.0973 17.2619 46.9513 18.4153 48.4745 18.4153C49.9977 18.4153 50.8517 17.2619 52.3749 17.2619C53.8981 17.2619 54.7521 18.4153 56.2752 18.4153C57.7984 18.4153 58.6524 17.2619 60.1756 17.2619C61.6988 17.2619 62.5528 18.4153 64.076 18.4153C65.5992 18.4153 66.4532 17.2619 67.9764 17.2619C69.4996 17.2619 70.3536 18.4153 71.8768 18.4153C73.4 18.4153 74.254 17.2619 75.7771 17.2619C77.3003 17.2619 78.1543 18.4153 79.6775 18.4153C81.2007 18.4153 82.0547 17.2619 83.5779 17.2619C85.1011 17.2619 85.9551 18.4153 87.4783 18.4153C89.0015 18.4153 89.8555 17.2619 91.3787 17.2619" stroke="#A3C3CE" stroke-width="2" stroke-linecap="round"/>
</svg>
