<svg width="93" height="19" viewBox="0 0 93 19" fill="none" xmlns="http://www.w3.org/2000/svg">
<path d="M5.37609 1.66357L1.47571 1.66357L1.47571 17.0422H5.37609M5.37609 1.66357L5.37609 17.0422M5.37609 1.66357L9.27647 1.66357M5.37609 17.0422H9.27647M9.27647 1.66357L9.27647 17.0422M9.27647 1.66357L13.1768 1.66357M9.27647 17.0422H13.1768M13.1768 1.66357L13.1768 17.0422M13.1768 1.66357L17.0772 1.66357M13.1768 17.0422H17.0772M17.0772 1.66357L20.9776 1.66357M17.0772 1.66357V17.0422M20.9776 1.66357L24.878 1.66357M20.9776 1.66357L20.9776 17.0422M24.878 1.66357L24.878 17.0422M24.878 1.66357L28.7784 1.66357M17.0772 17.0422L20.9776 17.0422M20.9776 17.0422H24.878M24.878 17.0422H28.7784M28.7784 1.66357L28.7784 17.0422M28.7784 1.66357L32.6787 1.66357M28.7784 17.0422L32.6787 17.0422M32.6787 1.66357L36.5791 1.66357M32.6787 1.66357V17.0422M36.5791 1.66357V17.0422M36.5791 1.66357L40.4795 1.66357M32.6787 17.0422H36.5791M36.5791 17.0422H40.4795M40.4795 1.66357V17.0422M40.4795 1.66357L44.3799 1.66357M40.4795 17.0422H44.3799M44.3799 1.66357L48.2803 1.66357M44.3799 1.66357V17.0422M48.2803 1.66357L52.1806 1.66357M48.2803 1.66357V17.0422M52.1806 1.66357V17.0422M52.1806 1.66357L56.081 1.66357M44.3799 17.0422H48.2803M48.2803 17.0422H52.1806M52.1806 17.0422H56.081M56.081 1.66357V17.0422M56.081 1.66357L59.9814 1.66357M56.081 17.0422H59.9814M59.9814 1.66357V17.0422M59.9814 1.66357L63.8818 1.66357M59.9814 17.0422L63.8818 17.0422M63.8818 1.66357V17.0422M63.8818 1.66357L67.7822 1.66357M63.8818 17.0422H67.7822M67.7822 1.66357L71.6825 1.66357M67.7822 1.66357V17.0422M71.6825 1.66357V17.0422M71.6825 1.66357L75.5829 1.66357M67.7822 17.0422H71.6825M71.6825 17.0422L75.5829 17.0422M75.5829 1.66357V17.0422M75.5829 1.66357L79.4833 1.66357M75.5829 17.0422H79.4833M79.4833 1.66357V17.0422M79.4833 1.66357L83.3837 1.66357M79.4833 17.0422H83.3837M83.3837 1.66357L87.2841 1.66357M83.3837 1.66357V17.0422M87.2841 1.66357V17.0422M87.2841 1.66357L91.1844 1.66357V17.0422H87.2841M83.3837 17.0422H87.2841" stroke="#A3C3CE" stroke-width="2" stroke-linecap="round" stroke-linejoin="round"/>
</svg>
