<svg width="41" height="41" viewBox="0 0 41 41" fill="none" xmlns="http://www.w3.org/2000/svg">
<path d="M1.88471 34.3769C1.66617 36.0358 1.5534 37.7281 1.5534 39.4468H16.932C16.932 38.4001 17.0017 37.3698 17.1368 36.3601M1.88471 34.3769C2.10138 32.7321 2.422 31.1202 2.83978 29.5478M1.88471 34.3769L17.1368 36.3601M2.83978 29.5478C3.28243 27.8817 3.83416 26.2602 4.48683 24.6912M2.83978 29.5478L17.7103 33.4831M4.48683 24.6912C5.14291 23.1139 5.90102 21.5898 6.75289 20.127M4.48683 24.6912L18.7245 30.5158M6.75289 20.127C7.5836 18.7005 8.5035 17.3323 9.50493 16.0301M6.75289 20.127L20.1152 27.7465M9.50493 16.0301C10.5437 14.6794 11.6701 13.3997 12.8757 12.1995M9.50493 16.0301L21.7625 25.3197M12.8757 12.1995C14.0732 11.0074 15.3488 9.89371 16.6942 8.8668M12.8757 12.1995L23.8181 23.0067M16.6942 8.8668C17.9848 7.88165 19.3397 6.97634 20.7514 6.15827M16.6942 8.8668L26.1303 21.0125M20.7514 6.15827C22.2036 5.31679 23.7158 4.5676 25.2802 3.91873M20.7514 6.15827L28.5139 19.4373M25.2802 3.91873C26.8408 3.27141 28.4534 2.72392 30.1098 2.28423M25.2802 3.91873L31.2192 18.1088M30.1098 2.28423C31.6795 1.86755 33.2887 1.54769 34.9306 1.33142M30.1098 2.28423L34.1375 17.1304M34.9306 1.33142C36.5894 1.11292 38.2815 1.00018 40 1.00018V16.3788C38.9704 16.3788 37.9566 16.4463 36.9628 16.577M34.9306 1.33142L36.9628 16.577M36.9628 16.577C36.0011 16.7035 35.058 16.8892 34.1375 17.1304M34.1375 17.1304C33.1365 17.3926 32.1622 17.7204 31.2192 18.1088M31.2192 18.1088C30.285 18.4937 29.3817 18.9381 28.5139 19.4373M28.5139 19.4373C27.6856 19.9138 26.8897 20.4402 26.1303 21.0125M26.1303 21.0125C25.3159 21.6262 24.5435 22.2926 23.8181 23.0067M23.8181 23.0067C23.0828 23.7305 22.3958 24.5033 21.7625 25.3197M21.7625 25.3197C21.1641 26.0911 20.6135 26.9015 20.1152 27.7465M20.1152 27.7465C19.5923 28.6333 19.127 29.5581 18.7245 30.5158M18.7245 30.5158C18.3219 31.4738 17.9821 32.4646 17.7103 33.4831M17.7103 33.4831C17.4603 34.42 17.2678 35.3803 17.1368 36.3601" stroke="#A3C3CE" stroke-width="2" stroke-linecap="round" stroke-linejoin="round"/>
</svg>
