<svg width="1572" height="512" viewBox="0 0 1572 512" fill="none" xmlns="http://www.w3.org/2000/svg">
<path d="M1411 1H1401M1411 1V41M1411 1C1415.47 1 1419.87 1.29327 1424.19 1.86159M1511 101V111M1511 101H1471M1511 101C1511 96.5298 1510.71 92.1281 1510.14 87.8131M1411 41H1401M1411 41C1413.68 41 1416.31 41.1754 1418.9 41.5154M1471 101V111M1471 101C1471 98.2777 1470.82 95.5977 1470.47 92.9714M1471 411V401M1471 411H1511M1471 411C1471 415.47 1471.29 419.872 1471.86 424.187M1511 411V401M1511 411C1511 413.722 1511.18 416.402 1511.53 419.029M1511 111V121M1511 111H1471M1511 121V131M1511 121H1471M1511 131V141M1511 131H1471M1511 141V151M1511 141H1471M1511 151V161M1511 151H1471M1511 161V171M1511 161H1471M1511 171V181M1511 171H1471M1511 181V191M1511 181H1471M1511 191V201M1511 191H1471M1511 201V211M1511 201H1471M1511 211V221M1511 211H1471M1511 221V231M1511 221H1471M1511 231V241M1511 231H1471M1511 241V251M1511 241H1471M1511 251V261M1511 251H1471M1511 261V271M1511 261H1471M1511 271V281M1511 271H1471M1511 281V291M1511 281H1471M1511 291V301M1511 291H1471M1511 301V311M1511 301H1471M1511 311V321M1511 311H1471M1511 321V331M1511 321H1471M1511 331V341M1511 331H1471M1511 341V351M1511 341H1471M1511 351V361M1511 351H1471M1511 361V371M1511 361H1471M1511 371V381M1511 371H1471M1511 381V391M1511 381H1471M1511 391V401M1511 391H1471M1511 401H1471M1471 111V121M1471 121V131M1471 131V141M1471 141V151M1471 151V161M1471 161V171M1471 171V181M1471 181V191M1471 191V201M1471 201V211M1471 211V221M1471 221V231M1471 231V241M1471 241V251M1471 251V261M1471 261V271M1471 271V281M1471 281V291M1471 291V301M1471 301V311M1471 311V321M1471 321V331M1471 331V341M1471 341V351M1471 351V361M1471 361V371M1471 371V381M1471 381V391M1471 391V401M201 1H211M201 1V41M201 1H1V41H201M211 1H221M211 1V41M221 1H231M221 1V41M231 1H241M231 1V41M241 1H251M241 1V41M251 1H261M251 1V41M261 1H271M261 1V41M271 1H281M271 1V41M281 1H291M281 1V41M291 1H301M291 1V41M301 1H311M301 1V41M311 1H321M311 1V41M321 1H331M321 1V41M331 1H341M331 1V41M341 1H351M341 1V41M351 1H361M351 1V41M361 1H371M361 1V41M371 1H381M371 1V41M381 1H391M381 1V41M391 1H401M391 1V41M401 1H411M401 1V41M411 1H421M411 1V41M421 1H431M421 1V41M431 1H441M431 1V41M441 1H451M441 1V41M451 1H461M451 1V41M461 1H471M461 1V41M471 1H481M471 1V41M481 1H491M481 1V41M491 1H501M491 1V41M501 1H511M501 1V41M511 1H521M511 1V41M521 1H531M521 1V41M531 1H541M531 1V41M541 1H551M541 1V41M551 1H561M551 1V41M561 1H571M561 1V41M571 1H581M571 1V41M581 1H591M581 1V41M591 1H1221M591 1V41M1221 1H1231M1221 1V41M1231 1H1241M1231 1V41M1241 1H1251M1241 1V41M1251 1H1261M1251 1V41M1261 1H1271M1261 1V41M1271 1H1281M1271 1V41M1281 1H1291M1281 1V41M1291 1H1301M1291 1V41M1301 1H1311M1301 1V41M1311 1H1321M1311 1V41M1321 1H1331M1321 1V41M1331 1H1341M1331 1V41M1341 1H1351M1341 1V41M1351 1H1361M1351 1V41M1361 1H1371M1361 1V41M1371 1H1381M1371 1V41M1381 1H1391M1381 1V41M1391 1H1401M1391 1V41M1401 1V41M201 41H211M211 41H221M221 41H231M231 41H241M241 41H251M251 41H261M261 41H271M271 41H281M281 41H291M291 41H301M301 41H311M311 41H321M321 41H331M331 41H341M341 41H351M351 41H361M361 41H371M371 41H381M381 41H391M391 41H401M401 41H411M411 41H421M421 41H431M431 41H441M441 41H451M451 41H461M461 41H471M471 41H481M481 41H491M491 41H501M501 41H511M511 41H521M521 41H531M531 41H541M541 41H551M551 41H561M561 41H571M571 41H581M581 41H591M591 41H1221M1221 41H1231M1231 41H1241M1241 41H1251M1251 41H1261M1261 41H1271M1271 41H1281M1281 41H1291M1291 41H1301M1301 41H1311M1311 41H1321M1321 41H1331M1331 41H1341M1341 41H1351M1351 41H1361M1361 41H1371M1371 41H1381M1381 41H1391M1391 41H1401M1510.14 87.8131C1509.57 83.5351 1508.74 79.3424 1507.65 75.2526M1510.14 87.8131L1470.47 92.9714M1507.65 75.2526C1506.5 70.9193 1505.07 66.7015 1503.37 62.6205M1507.65 75.2526L1468.98 85.4886M1503.37 62.6205C1501.66 58.518 1499.69 54.5537 1497.48 50.749M1503.37 62.6205L1466.34 77.7705M1497.48 50.749C1495.32 47.0387 1492.92 43.4801 1490.32 40.093M1497.48 50.749L1462.72 70.5675M1490.32 40.093C1487.62 36.5799 1484.69 33.2513 1481.55 30.1295M1490.32 40.093L1458.44 64.2552M1481.55 30.1295C1478.44 27.0288 1475.12 24.1322 1471.62 21.4612M1481.55 30.1295L1453.09 58.2393M1471.62 21.4612C1468.26 18.8988 1464.74 16.5441 1461.07 14.4163M1471.62 21.4612L1447.08 53.0522M1461.07 14.4163C1457.29 12.2276 1453.36 10.2789 1449.29 8.59119M1461.07 14.4163L1440.88 48.9551M1449.29 8.59119C1445.23 6.9075 1441.03 5.48348 1436.72 4.33986M1449.29 8.59119L1433.84 45.4998M1436.72 4.33986C1432.64 3.25606 1428.46 2.4241 1424.19 1.86159M1436.72 4.33986L1426.25 42.9548M1424.19 1.86159L1418.9 41.5154M1418.9 41.5154C1421.4 41.8444 1423.85 42.3275 1426.25 42.9548M1426.25 42.9548C1428.85 43.6369 1431.39 44.4894 1433.84 45.4998M1433.84 45.4998C1436.27 46.5008 1438.62 47.6567 1440.88 48.9551M1440.88 48.9551C1443.03 50.1945 1445.1 51.5637 1447.08 53.0522M1447.08 53.0522C1449.19 54.6485 1451.2 56.3819 1453.09 58.2393M1453.09 58.2393C1455 60.1219 1456.79 62.1317 1458.44 64.2552M1458.44 64.2552C1459.99 66.2618 1461.42 68.3697 1462.72 70.5675M1462.72 70.5675C1464.08 72.8741 1465.29 75.2795 1466.34 77.7705M1466.34 77.7705C1467.38 80.2621 1468.27 82.8392 1468.98 85.4886M1468.98 85.4886C1469.63 87.9253 1470.13 90.423 1470.47 92.9714M1471.86 424.187C1472.43 428.465 1473.26 432.658 1474.35 436.747M1471.86 424.187L1511.53 419.029M1474.35 436.747C1475.5 441.081 1476.93 445.298 1478.63 449.38M1474.35 436.747L1513.02 426.511M1478.63 449.38C1480.34 453.482 1482.31 457.446 1484.52 461.251M1478.63 449.38L1515.66 434.229M1484.52 461.251C1486.68 464.961 1489.08 468.52 1491.68 471.907M1484.52 461.251L1519.28 441.432M1491.68 471.907C1494.38 475.42 1497.31 478.749 1500.45 481.871M1491.68 471.907L1523.56 447.745M1500.45 481.871C1503.56 484.971 1506.88 487.868 1510.38 490.539M1500.45 481.871L1528.91 453.761M1510.38 490.539C1513.74 493.101 1517.26 495.456 1520.93 497.584M1510.38 490.539L1534.92 458.948M1520.93 497.584C1524.71 499.772 1528.64 501.721 1532.71 503.409M1520.93 497.584L1541.12 463.045M1532.71 503.409C1536.77 505.092 1540.97 506.517 1545.28 507.66M1532.71 503.409L1548.16 466.5M1545.28 507.66C1549.36 508.744 1553.54 509.576 1557.81 510.138M1545.28 507.66L1555.75 469.045M1557.81 510.138C1562.13 510.707 1566.53 511 1571 511V471C1568.32 471 1565.69 470.825 1563.1 470.485M1557.81 510.138L1563.1 470.485M1563.1 470.485C1560.6 470.156 1558.15 469.672 1555.75 469.045M1555.75 469.045C1553.15 468.363 1550.61 467.511 1548.16 466.5M1548.16 466.5C1545.73 465.499 1543.38 464.343 1541.12 463.045M1541.12 463.045C1538.97 461.806 1536.9 460.436 1534.92 458.948M1534.92 458.948C1532.81 457.351 1530.8 455.618 1528.91 453.761M1528.91 453.761C1527 451.878 1525.21 449.868 1523.56 447.745M1523.56 447.745C1522.01 445.738 1520.58 443.63 1519.28 441.432M1519.28 441.432C1517.92 439.126 1516.71 436.72 1515.66 434.229M1515.66 434.229C1514.62 431.738 1513.73 429.161 1513.02 426.511M1513.02 426.511C1512.37 424.075 1511.87 421.577 1511.53 419.029M601 1V41M611 1V41M621 1V41M631 1V41M641 1V41M651 1V41M661 1V41M671 1V41M681 1V41M691 1V41M701 1V41M711 1V41M721 1V41M731 1V41M741 1V41M751 1V41M761 1V41M771 1V41M781 1V41M791 1V41M801 1V41M811 1V41M821 1V41M831 1V41M841 1V41M851 1V41M861 1V41M871 1V41M881 1V41M891 1V41M901 1V41M911 1V41M921 1V41M931 1V41M941 1V41M951 1V41M961 1V41M971 1V41M981 1V41M991 1V41M1001 1V41M1011 1V41M1021 1V41M1031 1V41M1041 1V41M1051 1V41M1061 1V41M1071 1V41M1081 1V41M1091 1V41M1101 1V41M1111 1V41M1121 1V41M1131 1V41M1141 1V41M1151 1V41M1161 1V41M1171 1V41M1181 1V41M1191 1V41M1201 1V41M1211 1V41M21 1V41M31 1V41M41 1V41M51 1V41M61 1V41M71 1V41M81 1V41M91 1V41M101 1V41M111 1V41M121 1V41M131 1V41M141 1V41M151 1V41M161 1V41M171 1V41M181 1V41M191 1V41M11 1V41" stroke="#A3C3CE" stroke-width="2" stroke-linecap="round" stroke-linejoin="round"/>
</svg>
